<svg width="1040" height="128" viewBox="0 0 1040 128" fill="none" xmlns="http://www.w3.org/2000/svg">
<path d="M500.463 33.5811H509.104L525.375 81.2916L527.581 87.8185H527.949L530.247 81.2916L547.254 33.5811H555.895L531.81 99.4014H523.721L500.463 33.5811ZM576.424 100.872C571.95 100.872 567.936 99.7997 564.381 97.6547C560.827 95.5098 558.038 92.5681 556.016 88.8297C554.055 85.03 553.074 80.7707 553.074 76.0517C553.074 71.5166 553.993 67.3492 555.832 63.5495C557.732 59.7498 560.398 56.7162 563.83 54.4487C567.262 52.1811 571.245 51.0473 575.78 51.0473C580.377 51.0473 584.36 52.0892 587.731 54.1729C591.102 56.1953 593.676 59.0144 595.453 62.6302C597.291 66.2461 598.211 70.3828 598.211 75.0405C598.211 75.9598 598.119 76.7565 597.935 77.4306H560.888C561.072 80.9852 561.93 83.9881 563.462 86.4395C564.994 88.891 566.925 90.7295 569.253 91.9552C571.644 93.1809 574.126 93.7938 576.7 93.7938C582.706 93.7938 587.333 90.9747 590.581 85.3364L597.2 88.5539C595.177 92.3536 592.419 95.3565 588.926 97.5628C585.494 99.7691 581.327 100.872 576.424 100.872ZM589.937 70.9957C589.815 69.0345 589.263 67.0734 588.283 65.1123C587.302 63.1512 585.739 61.4965 583.594 60.1482C581.511 58.7999 578.875 58.1258 575.688 58.1258C572.011 58.1258 568.886 59.3208 566.312 61.711C563.799 64.0398 562.144 67.1347 561.348 70.9957H589.937ZM605.517 52.5182H612.963V59.9643H613.331C614.434 57.2065 616.303 55.0615 618.938 53.5294C621.574 51.9973 624.454 51.2312 627.58 51.2312C628.928 51.2312 630.062 51.3231 630.981 51.507V59.5047C629.939 59.2596 628.529 59.137 626.752 59.137C622.769 59.137 619.521 60.4546 617.008 63.0899C614.556 65.7251 613.331 69.1571 613.331 73.3858V99.4014H605.517V52.5182ZM658.375 100.137C656.476 100.137 654.698 99.8304 653.044 99.2175C651.45 98.6047 650.102 97.7773 648.999 96.7355C647.773 95.571 646.854 94.2228 646.241 92.6906C645.628 91.1585 645.322 89.2893 645.322 87.083V59.5966H637.14V52.5182H645.322V39.2806H653.135V52.5182H664.535V59.5966H653.135V85.1526C653.135 87.7265 653.626 89.6264 654.606 90.8521C655.771 92.2004 657.456 92.8745 659.662 92.8745C661.44 92.8745 663.156 92.3536 664.81 91.3117V98.9417C663.891 99.3707 662.941 99.6772 661.961 99.861C661.041 100.045 659.846 100.137 658.375 100.137ZM690.978 100.872C686.504 100.872 682.49 99.7997 678.936 97.6547C675.381 95.5098 672.593 92.5681 670.57 88.8297C668.609 85.03 667.628 80.7707 667.628 76.0517C667.628 71.5166 668.548 67.3492 670.386 63.5495C672.286 59.7498 674.952 56.7162 678.384 54.4487C681.816 52.1811 685.8 51.0473 690.335 51.0473C694.931 51.0473 698.915 52.0892 702.285 54.1729C705.656 56.1953 708.23 59.0144 710.007 62.6302C711.846 66.2461 712.765 70.3828 712.765 75.0405C712.765 75.9598 712.673 76.7565 712.489 77.4306H675.442C675.626 80.9852 676.484 83.9881 678.016 86.4395C679.548 88.891 681.479 90.7295 683.808 91.9552C686.198 93.1809 688.68 93.7938 691.254 93.7938C697.26 93.7938 701.887 90.9747 705.135 85.3364L711.754 88.5539C709.731 92.3536 706.974 95.3565 703.48 97.5628C700.048 99.7691 695.881 100.872 690.978 100.872ZM704.492 70.9957C704.369 69.0345 703.817 67.0734 702.837 65.1123C701.856 63.1512 700.293 61.4965 698.148 60.1482C696.065 58.7999 693.43 58.1258 690.243 58.1258C686.566 58.1258 683.44 59.3208 680.866 61.711C678.353 64.0398 676.699 67.1347 675.902 70.9957H704.492ZM731.124 75.5921L714.853 52.5182H723.678L735.812 69.8925L747.487 52.5182H756.588L740.225 75.5921L756.956 99.4014H747.855L735.628 81.3835L723.678 99.4014H714.577L731.124 75.5921ZM799.376 33.5811H808.201L833.206 99.4014H824.656L818.037 81.2916H789.632L783.013 99.4014H774.464L799.376 33.5811ZM815.372 73.9374L806.638 50.22L803.972 43.1415H803.605L801.031 50.22L792.298 73.9374H815.372ZM840.095 33.5811H847.817V99.4014H840.095V33.5811ZM895.83 100.872C890.682 100.872 885.963 99.3094 881.673 96.1839C877.383 93.0583 874.441 88.6765 872.848 83.0382L880.294 80.0046C881.336 83.9269 883.266 87.1443 886.086 89.657C888.905 92.1697 892.214 93.4261 896.014 93.4261C899.813 93.4261 903.031 92.4149 905.666 90.3924C908.301 88.3087 909.619 85.4896 909.619 81.9351C909.619 78.8708 908.485 76.3581 906.218 74.397C904.011 72.3746 900.365 70.5054 895.278 68.7894L891.142 67.3186C886.484 65.6639 882.684 63.4882 879.743 60.7917C876.801 58.0951 875.33 54.3567 875.33 49.5765C875.33 46.4509 876.188 43.5705 877.904 40.9353C879.62 38.2387 882.01 36.0938 885.074 34.5003C888.139 32.9069 891.571 32.1102 895.37 32.1102C899.17 32.1102 902.479 32.815 905.298 34.2246C908.118 35.6341 910.354 37.3501 912.009 39.3725C913.725 41.3949 914.92 43.3867 915.594 45.3478L908.24 48.4734C907.627 46.2058 906.218 44.1528 904.011 42.3142C901.866 40.4756 899.017 39.5564 895.462 39.5564C892.092 39.5564 889.211 40.5063 886.821 42.4061C884.431 44.306 883.236 46.6961 883.236 49.5765C883.236 52.1505 884.247 54.2648 886.269 55.9195C888.292 57.5129 891.356 59.0144 895.462 60.424L899.783 61.8948C905.36 63.9172 909.711 66.4606 912.837 69.5248C915.962 72.5278 917.525 76.6339 917.525 81.8432C917.525 86.0718 916.422 89.6264 914.215 92.5068C912.07 95.3872 909.343 97.5015 906.034 98.8498C902.724 100.198 899.323 100.872 895.83 100.872ZM927.136 33.5811H946.992C953.733 33.5811 959.617 34.9906 964.642 37.8097C969.668 40.5676 973.529 44.4285 976.225 49.3926C978.922 54.3567 980.27 60.0563 980.27 66.4912C980.27 72.9262 978.922 78.6257 976.225 83.5898C973.529 88.5539 969.668 92.4455 964.642 95.2646C959.617 98.0225 953.733 99.4014 946.992 99.4014H927.136V33.5811ZM946.992 91.9552C954.775 91.9552 960.934 89.7183 965.47 85.2445C970.066 80.7707 972.364 74.5196 972.364 66.4912C972.364 58.4629 970.066 52.2118 965.47 47.7379C960.934 43.2641 954.775 41.0272 946.992 41.0272H934.858V91.9552H946.992ZM989.934 33.5811H997.656V68.2378H998.023L1027.72 33.5811H1037.74V33.9488L1013.38 62.0787L1039.48 99.0337V99.4014H1030.01L1008.14 68.054L997.656 80.0965V99.4014H989.934V33.5811Z" fill="white"/>
<path d="M461.612 99.8672C457.157 99.8672 453.13 98.83 449.531 96.7554C445.992 94.6809 443.215 91.8132 441.202 88.1523C439.188 84.4303 438.182 80.2813 438.182 75.7051C438.182 71.312 439.127 67.285 441.019 63.624C442.971 59.9021 445.687 56.9733 449.164 54.8378C452.642 52.6412 456.608 51.543 461.062 51.543C465.639 51.543 469.605 52.5497 472.96 54.5632C476.377 56.5767 478.97 59.3835 480.74 62.9834C482.509 66.5223 483.394 70.6103 483.394 75.2475C483.394 75.7966 483.364 76.3458 483.303 76.8949C483.242 77.444 483.211 77.7491 483.211 77.8101H448.249C448.554 81.9592 450.049 85.1625 452.734 87.4201C455.419 89.6776 458.469 90.8064 461.886 90.8064C467.133 90.8064 471.161 88.3658 473.967 83.4846L482.57 87.6031C480.557 91.3251 477.75 94.3148 474.15 96.5724C470.611 98.769 466.432 99.8672 461.612 99.8672ZM473.144 70.1222C473.021 68.6578 472.533 67.1629 471.679 65.6375C470.825 64.1122 469.483 62.8308 467.652 61.7936C465.883 60.6953 463.656 60.1461 460.971 60.1461C457.981 60.1461 455.388 61.0614 453.191 62.8919C451.056 64.7223 449.592 67.1324 448.798 70.1222H473.144Z" fill="white"/>
<path d="M416.087 99.8672C410.9 99.8672 406.599 98.6774 403.182 96.2978C399.826 93.8572 397.446 90.8064 396.043 87.1455L405.012 83.3015C406.05 85.8032 407.544 87.6946 409.497 88.976C411.51 90.2573 413.707 90.898 416.087 90.898C418.588 90.898 420.632 90.4403 422.219 89.5251C423.805 88.5489 424.598 87.298 424.598 85.7727C424.598 84.3083 423.958 83.1185 422.676 82.2032C421.395 81.227 419.29 80.3728 416.361 79.6406L410.138 78.1762C406.721 77.383 403.761 75.9187 401.26 73.7831C398.819 71.5866 397.599 68.7493 397.599 65.2715C397.599 61.0614 399.338 57.736 402.816 55.2954C406.294 52.7938 410.565 51.543 415.629 51.543C419.839 51.543 423.561 52.4277 426.795 54.1971C430.09 55.9666 432.469 58.5292 433.934 61.8851L425.056 65.6375C424.202 63.7461 422.89 62.3427 421.12 61.4275C419.351 60.5122 417.429 60.0546 415.354 60.0546C413.341 60.0546 411.571 60.5122 410.046 61.4275C408.521 62.2817 407.758 63.441 407.758 64.9054C407.758 66.1867 408.277 67.2239 409.314 68.0171C410.412 68.8104 412.121 69.4815 414.439 70.0307L421.212 71.6781C425.788 72.8374 429.205 74.6068 431.462 76.9864C433.72 79.305 434.849 82.1117 434.849 85.4066C434.849 88.0912 434.025 90.5319 432.378 92.7284C430.791 94.925 428.564 96.6639 425.696 97.9452C422.89 99.2266 419.686 99.8672 416.087 99.8672Z" fill="white"/>
<path d="M367.921 99.8672C364.688 99.8672 361.759 99.2266 359.135 97.9452C356.573 96.6029 354.529 94.7724 353.003 92.4538C351.539 90.0742 350.807 87.3896 350.807 84.3998C350.807 79.6406 352.576 75.8881 356.115 73.1424C359.715 70.3968 364.261 69.0239 369.752 69.0239C374.572 69.0239 378.691 69.8476 382.108 71.495V69.573C382.108 66.8273 381.009 64.5698 378.813 62.8003C376.677 60.9699 374.084 60.0546 371.033 60.0546C366.396 60.0546 362.674 61.9461 359.867 65.7291L352.18 60.4207C354.315 57.553 356.969 55.3564 360.142 53.8311C363.376 52.3057 367.006 51.543 371.033 51.543C377.684 51.543 382.809 53.2209 386.409 56.5767C390.07 59.8716 391.901 64.5393 391.901 70.5798V98.4029H382.108V92.8199H381.558C380.094 94.8945 378.233 96.6029 375.976 97.9452C373.718 99.2266 371.033 99.8672 367.921 99.8672ZM369.569 91.5386C371.826 91.5386 373.901 90.9895 375.792 89.8912C377.745 88.7319 379.27 87.237 380.369 85.4066C381.528 83.5151 382.108 81.5016 382.108 79.366C378.874 77.5966 375.426 76.7119 371.765 76.7119C368.41 76.7119 365.786 77.444 363.894 78.9084C362.003 80.3728 361.057 82.2338 361.057 84.4913C361.057 86.5659 361.881 88.2743 363.528 89.6166C365.237 90.898 367.25 91.5386 369.569 91.5386Z" fill="white"/>
<path d="M325.684 99.8671C322.389 99.8671 319.43 99.1654 316.806 97.762C314.244 96.3587 312.322 94.5892 311.04 92.4537H310.491V98.4027H300.973V32.8721H311.04V52.5496L310.491 58.8647H311.04C312.322 56.7901 314.244 55.0512 316.806 53.6478C319.43 52.2445 322.389 51.5428 325.684 51.5428C329.589 51.5428 333.189 52.5801 336.484 54.6546C339.84 56.7291 342.494 59.6274 344.446 63.3493C346.46 67.0102 347.466 71.1288 347.466 75.7049C347.466 80.2811 346.46 84.3996 344.446 88.0606C342.494 91.7215 339.84 94.6197 336.484 96.7553C333.189 98.8298 329.589 99.8671 325.684 99.8671ZM323.945 90.6232C326.325 90.6232 328.521 90.0131 330.535 88.7928C332.609 87.5724 334.257 85.8335 335.477 83.5759C336.758 81.2573 337.399 78.6337 337.399 75.7049C337.399 72.7762 336.758 70.183 335.477 67.9255C334.257 65.6069 332.609 63.8374 330.535 62.6171C328.521 61.3968 326.325 60.7866 323.945 60.7866C321.565 60.7866 319.338 61.3968 317.264 62.6171C315.25 63.8374 313.603 65.5764 312.322 67.8339C311.101 70.0915 310.491 72.7152 310.491 75.7049C310.491 78.6947 311.101 81.3184 312.322 83.5759C313.603 85.8335 315.25 87.5724 317.264 88.7928C319.338 90.0131 321.565 90.6232 323.945 90.6232Z" fill="white"/>
<path d="M273.192 99.8672C268.738 99.8672 264.711 98.83 261.111 96.7554C257.572 94.6809 254.795 91.8132 252.782 88.1523C250.768 84.4303 249.762 80.2813 249.762 75.7051C249.762 71.312 250.707 67.285 252.599 63.624C254.551 59.9021 257.267 56.9733 260.745 54.8378C264.222 52.6412 268.188 51.543 272.643 51.543C277.219 51.543 281.185 52.5497 284.541 54.5632C287.957 56.5767 290.551 59.3835 292.32 62.9834C294.089 66.5223 294.974 70.6103 294.974 75.2475C294.974 75.7966 294.944 76.3458 294.883 76.8949C294.822 77.444 294.791 77.7491 294.791 77.8101H259.829C260.134 81.9592 261.629 85.1625 264.314 87.4201C266.999 89.6776 270.049 90.8064 273.466 90.8064C278.714 90.8064 282.741 88.3658 285.547 83.4846L294.15 87.6031C292.137 91.3251 289.33 94.3148 285.73 96.5724C282.191 98.769 278.012 99.8672 273.192 99.8672ZM284.724 70.1222C284.602 68.6578 284.113 67.1629 283.259 65.6375C282.405 64.1122 281.063 62.8308 279.232 61.7936C277.463 60.6953 275.236 60.1461 272.551 60.1461C269.561 60.1461 266.968 61.0614 264.772 62.8919C262.636 64.7223 261.172 67.1324 260.378 70.1222H284.724Z" fill="white"/>
<path d="M221.822 53.0076H231.341V59.7803H231.89C232.866 57.4617 234.636 55.5398 237.198 54.0144C239.761 52.428 242.384 51.6348 245.069 51.6348C247.266 51.6348 249.066 51.9398 250.469 52.55V63.0752C248.395 62.0379 246.076 61.5193 243.513 61.5193C240.218 61.5193 237.442 62.8006 235.185 65.3632C232.988 67.8649 231.89 70.9462 231.89 74.6071V98.4031H221.822V53.0076Z" fill="white"/>
<path d="M207.452 45.3189C205.561 45.3189 203.944 44.6782 202.602 43.3969C201.32 42.0545 200.68 40.4376 200.68 38.5462C200.68 36.6547 201.32 35.0683 202.602 33.787C203.944 32.4446 205.561 31.7734 207.452 31.7734C209.344 31.7734 210.93 32.4446 212.212 33.787C213.554 35.0683 214.225 36.6547 214.225 38.5462C214.225 40.4376 213.554 42.0545 212.212 43.3969C210.93 44.6782 209.344 45.3189 207.452 45.3189ZM202.419 53.0068H212.486V98.4023H202.419V53.0068Z" fill="white"/>
<path d="M156.562 32.8721H196.375V42.6651H166.813V61.5188H193.446V71.2203H166.813V98.4027H156.562V32.8721Z" fill="white"/>
<path d="M96.6179 66.9557V66.9173C96.6171 66.9029 96.6171 66.8885 96.6179 66.874C95.463 59.3471 92.4665 52.4136 88.4918 46.177C87.9918 45.3884 87.4719 44.6132 86.9403 43.843C86.6825 43.4696 86.4209 43.0995 86.1553 42.7328C81.044 35.6376 64.9002 16.3476 56.4192 6.28996C53.2111 2.48397 51.0996 0 51.0996 0C50.143 0.766866 49.208 1.55818 48.2948 2.37395L48.2631 2.40228C41.6491 8.5865 36.1645 15.8777 32.056 23.9479L32.0426 23.9729C31.2516 25.5289 30.5128 27.1126 29.8261 28.7241C28.2377 32.4574 26.9465 36.3104 25.9648 40.2471C25.3692 42.6266 24.8871 45.0478 24.5182 47.5107C22.4884 47.1785 20.4382 46.9858 18.382 46.9338C17.9931 46.9238 17.6043 46.9188 17.2154 46.9188C13.8555 46.9163 10.5059 47.291 7.22949 48.0358C5.2239 51.2756 3.6094 54.7417 2.41983 58.3618C0.811797 63.2612 -0.00504604 68.3857 2.34521e-05 73.5424C2.34521e-05 97.1119 16.7888 116.762 39.0571 121.171C42.1801 121.79 45.3561 122.101 48.5398 122.1C49.168 122.1 49.793 122.087 50.4163 122.065C52.0528 122.001 53.6666 121.858 55.2576 121.638C58.9651 121.124 62.6003 120.181 66.0901 118.828C67.0201 118.467 67.9356 118.078 68.8366 117.661C85.502 109.974 97.0795 93.1092 97.0795 73.5424C97.0732 71.339 96.9189 69.1385 96.6179 66.9557ZM32.8726 110.599C28.0934 108.579 23.7517 105.65 20.0885 101.975C16.4155 98.3105 13.4883 93.968 11.4692 89.1881C9.37475 84.2363 8.30117 78.9125 8.31274 73.5358C8.30099 68.1584 9.37457 62.834 11.4692 57.8817C11.8025 57.0859 12.163 56.3046 12.5508 55.5378C14.0914 55.3445 15.6427 55.2476 17.1954 55.2476C19.3797 55.2475 21.5597 55.4405 23.7099 55.8245C23.6633 56.9098 23.6399 58.0051 23.6399 59.1037C23.6106 79.543 31.667 99.1636 46.05 113.681C41.5137 113.414 37.0568 112.371 32.8726 110.599ZM50.7046 106.499C49.7291 105.462 48.7909 104.399 47.8898 103.308C43.5702 98.1073 40.0404 92.2979 37.4139 86.0673C33.8047 77.535 31.9539 68.3618 31.9727 59.097C31.9727 58.8447 31.9727 58.593 31.9727 58.3418C36.1015 60.1738 39.8555 62.7547 43.0452 65.9538C47.9902 70.8741 51.4142 77.1149 52.9078 83.9301C53.4725 86.5199 53.7563 89.1631 53.7544 91.8138C53.77 96.8667 52.7354 101.868 50.7163 106.499H50.7046ZM88.7701 74.9278C88.5155 82.4895 86.1301 89.8254 81.889 96.09C78.4423 101.178 73.883 105.413 68.5566 108.476L68.5033 108.451C67.1034 109.254 65.6565 109.971 64.1703 110.599C62.3188 111.382 60.4107 112.025 58.4624 112.521C58.1157 112.61 57.768 112.693 57.4191 112.771C57.2308 112.814 57.0441 112.856 56.8558 112.894C56.9291 112.761 57.0008 112.623 57.0708 112.486C57.1791 112.277 57.2858 112.069 57.3891 111.859C58.6614 109.314 59.686 106.652 60.4489 103.91C61.5437 99.975 62.0971 95.9087 62.0938 91.8238C62.0952 88.8521 61.8033 85.8875 61.2222 82.9732C58.1341 67.5258 47.1249 54.9426 32.6126 49.6312C33.2811 44.7179 34.4808 39.8918 36.1907 35.2375C36.574 34.1961 36.9823 33.1619 37.4156 32.135C38.0689 30.5879 38.7755 29.0709 39.5354 27.5838C39.54 27.5764 39.5439 27.5686 39.5471 27.5605C39.8587 26.912 40.1804 26.2735 40.5137 25.6367C43.1296 20.6538 46.4272 16.06 50.3113 11.9881L50.3763 12.0665C53.8194 16.1509 58.4274 21.6456 63.017 27.1821C65.3652 30.0161 67.7084 32.8618 69.8882 35.5375C73.9762 40.5572 77.4893 44.9783 79.3875 47.604C79.6591 47.9808 79.9241 48.3559 80.1841 48.736C82.9106 52.6954 85.0171 56.6981 86.4453 60.6574C87.3533 63.1539 88.0082 65.7353 88.4001 68.3627V68.3961C88.7209 70.5576 88.8459 72.7437 88.7735 74.9278H88.7701Z" fill="white"/>
<g filter="url(#filter0_d_47_2620)">
<circle cx="100" cy="90" r="30" fill="white"/>
<g clip-path="url(#clip0_47_2620)">
<path d="M87.8844 79.4967C87.5088 79.4621 87.1606 79.3064 86.9061 79.0593C86.6515 78.8122 86.5084 78.4908 86.5039 78.1563V74.8404C86.5107 74.4868 86.6724 74.1494 86.9547 73.8993C87.237 73.6492 87.618 73.506 88.0172 73.5C88.4139 73.5062 88.792 73.6501 89.0701 73.9008C89.3482 74.1515 89.504 74.489 89.5039 74.8404V78.1563C89.5044 78.3405 89.462 78.5228 89.3794 78.6919C89.2968 78.861 89.1758 79.0132 89.0238 79.139C88.8718 79.2647 88.6922 79.3614 88.4962 79.423C88.3002 79.4845 88.0919 79.5096 87.8844 79.4967Z" fill="#1F1F1F"/>
<path d="M111.879 83.9967C111.503 83.9621 111.155 83.8064 110.9 83.5593C110.646 83.3122 110.503 82.9908 110.498 82.6563V79.3404C110.505 78.9868 110.666 78.6494 110.949 78.3993C111.231 78.1492 111.612 78.006 112.011 78C112.408 78.0062 112.786 78.1501 113.064 78.4008C113.342 78.6515 113.498 78.989 113.498 79.3404V82.6563C113.499 82.8405 113.456 83.0228 113.374 83.1919C113.291 83.361 113.17 83.5132 113.018 83.639C112.866 83.7647 112.686 83.8614 112.49 83.923C112.294 83.9845 112.086 84.0096 111.879 83.9967Z" fill="#1F1F1F"/>
<path d="M88.0039 84C88.8323 84 89.5039 83.3284 89.5039 82.5C89.5039 81.6716 88.8323 81 88.0039 81C87.1755 81 86.5039 81.6716 86.5039 82.5C86.5039 83.3284 87.1755 84 88.0039 84Z" fill="#1F1F1F"/>
<path d="M88.0039 93C88.8323 93 89.5039 92.3284 89.5039 91.5C89.5039 90.6716 88.8323 90 88.0039 90C87.1755 90 86.5039 90.6716 86.5039 91.5C86.5039 92.3284 87.1755 93 88.0039 93Z" fill="#1F1F1F"/>
<path d="M88.0039 88.5C88.8323 88.5 89.5039 87.8284 89.5039 87C89.5039 86.1716 88.8323 85.5 88.0039 85.5C87.1755 85.5 86.5039 86.1716 86.5039 87C86.5039 87.8284 87.1755 88.5 88.0039 88.5Z" fill="#1F1F1F"/>
<path d="M111.998 93C112.826 93 113.498 92.3284 113.498 91.5C113.498 90.6716 112.826 90 111.998 90C111.17 90 110.498 90.6716 110.498 91.5C110.498 92.3284 111.17 93 111.998 93Z" fill="#1F1F1F"/>
<path d="M111.998 88.5C112.826 88.5 113.498 87.8284 113.498 87C113.498 86.1716 112.826 85.5 111.998 85.5C111.17 85.5 110.498 86.1716 110.498 87C110.498 87.8284 111.17 88.5 111.998 88.5Z" fill="#1F1F1F"/>
<path d="M111.998 76.5C112.826 76.5 113.498 75.8284 113.498 75C113.498 74.1716 112.826 73.5 111.998 73.5C111.17 73.5 110.498 74.1716 110.498 75C110.498 75.8284 111.17 76.5 111.998 76.5Z" fill="#1F1F1F"/>
<path d="M105.881 88.4967C105.505 88.4621 105.157 88.3064 104.902 88.0593C104.648 87.8122 104.504 87.4908 104.5 87.1563V83.8404C104.507 83.4868 104.668 83.1494 104.951 82.8993C105.233 82.6492 105.614 82.506 106.013 82.5C106.41 82.5062 106.788 82.6501 107.066 82.9008C107.344 83.1515 107.5 83.489 107.5 83.8404V87.1563C107.501 87.3405 107.458 87.5228 107.376 87.6919C107.293 87.861 107.172 88.0132 107.02 88.139C106.868 88.2647 106.688 88.3614 106.492 88.423C106.296 88.4845 106.088 88.5096 105.881 88.4967Z" fill="#1F1F1F"/>
<path d="M99.8805 97.4967C99.5049 97.4621 99.1567 97.3064 98.9021 97.0593C98.6476 96.8122 98.5045 96.4908 98.5 96.1563V92.8404C98.5068 92.4868 98.6685 92.1494 98.9508 91.8993C99.2331 91.6492 99.6141 91.506 100.013 91.5C100.41 91.5062 100.788 91.6501 101.066 91.9008C101.344 92.1515 101.5 92.489 101.5 92.8404V96.1563C101.501 96.3405 101.458 96.5228 101.376 96.6919C101.293 96.861 101.172 97.0132 101.02 97.139C100.868 97.2647 100.688 97.3614 100.492 97.423C100.296 97.4845 100.088 97.5096 99.8805 97.4967Z" fill="#1F1F1F"/>
<path d="M106 97.5C106.828 97.5 107.5 96.8284 107.5 96C107.5 95.1716 106.828 94.5 106 94.5C105.172 94.5 104.5 95.1716 104.5 96C104.5 96.8284 105.172 97.5 106 97.5Z" fill="#1F1F1F"/>
<path d="M100 102C100.828 102 101.5 101.328 101.5 100.5C101.5 99.6716 100.828 99 100 99C99.1716 99 98.5 99.6716 98.5 100.5C98.5 101.328 99.1716 102 100 102Z" fill="#1F1F1F"/>
<path d="M106 93C106.828 93 107.5 92.3284 107.5 91.5C107.5 90.6716 106.828 90 106 90C105.172 90 104.5 90.6716 104.5 91.5C104.5 92.3284 105.172 93 106 93Z" fill="#1F1F1F"/>
<path d="M100 90C100.828 90 101.5 89.3284 101.5 88.5C101.5 87.6716 100.828 87 100 87C99.1716 87 98.5 87.6716 98.5 88.5C98.5 89.3284 99.1716 90 100 90Z" fill="#1F1F1F"/>
<path d="M100 85.5C100.828 85.5 101.5 84.8284 101.5 84C101.5 83.1716 100.828 82.5 100 82.5C99.1716 82.5 98.5 83.1716 98.5 84C98.5 84.8284 99.1716 85.5 100 85.5Z" fill="#1F1F1F"/>
<path d="M93.8825 92.9967C93.5068 92.9621 93.1586 92.8064 92.9041 92.5593C92.6496 92.3122 92.5064 91.9908 92.502 91.6563V88.3404C92.5088 87.9868 92.6704 87.6494 92.9527 87.3993C93.2351 87.1492 93.616 87.006 94.0152 87C94.4119 87.0062 94.7901 87.1501 95.0681 87.4008C95.3462 87.6515 95.502 87.989 95.5019 88.3404V91.6563C95.5025 91.8405 95.4601 92.0228 95.3775 92.1919C95.2949 92.361 95.1738 92.5132 95.0219 92.639C94.8699 92.7647 94.6903 92.8614 94.4942 92.923C94.2982 92.9845 94.09 93.0096 93.8825 92.9967Z" fill="#1F1F1F"/>
<path d="M94.002 97.5C94.8304 97.5 95.502 96.8284 95.502 96C95.502 95.1716 94.8304 94.5 94.002 94.5C93.1735 94.5 92.502 95.1716 92.502 96C92.502 96.8284 93.1735 97.5 94.002 97.5Z" fill="#1F1F1F"/>
<path d="M94.002 85.5C94.8304 85.5 95.502 84.8284 95.502 84C95.502 83.1716 94.8304 82.5 94.002 82.5C93.1735 82.5 92.502 83.1716 92.502 84C92.502 84.8284 93.1735 85.5 94.002 85.5Z" fill="#1F1F1F"/>
<path d="M94.002 81C94.8304 81 95.502 80.3284 95.502 79.5C95.502 78.6716 94.8304 78 94.002 78C93.1735 78 92.502 78.6716 92.502 79.5C92.502 80.3284 93.1735 81 94.002 81Z" fill="#1F1F1F"/>
<path d="M106 81C106.828 81 107.5 80.3284 107.5 79.5C107.5 78.6716 106.828 78 106 78C105.172 78 104.5 78.6716 104.5 79.5C104.5 80.3284 105.172 81 106 81Z" fill="#1F1F1F"/>
<path fill-rule="evenodd" clip-rule="evenodd" d="M99.5432 104.297L86.1644 94.3586C85.4243 93.8089 84.3788 93.9632 83.8292 94.7035C83.2796 95.4437 83.434 96.4895 84.1741 97.0393L97.8643 107.209C97.7905 106.986 97.7505 106.748 97.7505 106.5C97.7505 105.414 98.5198 104.508 99.5432 104.297ZM102.137 107.208L115.825 97.0393C116.566 96.4895 116.72 95.4437 116.17 94.7035C115.621 93.9632 114.575 93.8089 113.835 94.3586L100.457 104.297C101.481 104.508 102.25 105.414 102.25 106.5C102.25 106.747 102.211 106.985 102.137 107.208Z" fill="#1F1F1F"/>
<path fill-rule="evenodd" clip-rule="evenodd" d="M100 109.497C101.657 109.497 103 108.154 103 106.497C103 104.84 101.657 103.497 100 103.497C98.3431 103.497 97 104.84 97 106.497C97 108.154 98.3431 109.497 100 109.497ZM100 107.997C100.828 107.997 101.5 107.325 101.5 106.497C101.5 105.669 100.828 104.997 100 104.997C99.1716 104.997 98.5 105.669 98.5 106.497C98.5 107.325 99.1716 107.997 100 107.997Z" fill="#1F1F1F"/>
</g>
</g>
<defs>
<filter id="filter0_d_47_2620" x="68" y="58.6704" width="64" height="64" filterUnits="userSpaceOnUse" color-interpolation-filters="sRGB">
<feFlood flood-opacity="0" result="BackgroundImageFix"/>
<feColorMatrix in="SourceAlpha" type="matrix" values="0 0 0 0 0 0 0 0 0 0 0 0 0 0 0 0 0 0 127 0" result="hardAlpha"/>
<feOffset dy="0.670408"/>
<feGaussianBlur stdDeviation="1"/>
<feComposite in2="hardAlpha" operator="out"/>
<feColorMatrix type="matrix" values="0 0 0 0 0 0 0 0 0 0 0 0 0 0 0 0 0 0 0.3 0"/>
<feBlend mode="normal" in2="BackgroundImageFix" result="effect1_dropShadow_47_2620"/>
<feBlend mode="normal" in="SourceGraphic" in2="effect1_dropShadow_47_2620" result="shape"/>
</filter>
<clipPath id="clip0_47_2620">
<rect width="36" height="36" fill="white" transform="translate(82 73.5)"/>
</clipPath>
</defs>
</svg>
