<svg width="1222" height="128" viewBox="0 0 1222 128" fill="none" xmlns="http://www.w3.org/2000/svg">
<path d="M506.53 33.5811H514.252V99.4014H506.53V33.5811ZM525.572 52.5182H533.018V59.4128H533.386C534.673 57.0839 536.726 55.1228 539.545 53.5294C542.364 51.8747 545.367 51.0473 548.554 51.0473C554.192 51.0473 558.482 52.702 561.424 56.0114C564.427 59.2596 565.928 63.7027 565.928 69.341V99.4014H558.114V70.536C558.114 66.1848 557.073 63.0286 554.989 61.0675C552.905 59.1063 550.055 58.1258 546.44 58.1258C543.927 58.1258 541.659 58.8306 539.637 60.2401C537.676 61.6497 536.144 63.5189 535.041 65.8477C533.937 68.1153 533.386 70.5054 533.386 73.0181V99.4014H525.572V52.5182ZM575.171 67.6863H604.312V74.1212H575.171V67.6863ZM634.502 33.5811H643.327L668.332 99.4014H659.782L653.163 81.2916H624.758L618.139 99.4014H609.59L634.502 33.5811ZM650.498 73.9374L641.764 50.22L639.099 43.1415H638.731L636.157 50.22L627.424 73.9374H650.498ZM673.739 52.5182H681.186V59.5047H681.553C682.963 57.1146 685.077 55.1228 687.896 53.5294C690.777 51.8747 693.994 51.0473 697.549 51.0473C701.716 51.0473 705.516 52.1198 708.948 54.2648C712.38 56.4098 715.076 59.3821 717.037 63.1818C718.999 66.9815 719.979 71.2408 719.979 75.9598C719.979 80.74 718.999 85.03 717.037 88.8297C715.076 92.5681 712.38 95.5098 708.948 97.6547C705.516 99.7997 701.716 100.872 697.549 100.872C693.994 100.872 690.777 100.076 687.896 98.4821C685.077 96.8274 682.963 94.8356 681.553 92.5068H681.186L681.553 98.9417V119.258H673.739V52.5182ZM696.63 93.7938C699.326 93.7938 701.869 93.0583 704.26 91.5875C706.65 90.1167 708.549 88.033 709.959 85.3364C711.43 82.5786 712.165 79.453 712.165 75.9598C712.165 72.4665 711.43 69.3716 709.959 66.6751C708.549 63.9172 706.65 61.8029 704.26 60.332C701.869 58.8612 699.326 58.1258 696.63 58.1258C693.933 58.1258 691.39 58.8612 689 60.332C686.609 61.8029 684.71 63.8866 683.3 66.5831C681.89 69.2797 681.186 72.4052 681.186 75.9598C681.186 79.5143 681.89 82.6399 683.3 85.3364C684.71 88.033 686.609 90.1167 689 91.5875C691.39 93.0583 693.933 93.7938 696.63 93.7938ZM725.944 52.5182H733.391V59.5047H733.758C735.168 57.1146 737.282 55.1228 740.101 53.5294C742.982 51.8747 746.199 51.0473 749.754 51.0473C753.921 51.0473 757.721 52.1198 761.153 54.2648C764.585 56.4098 767.281 59.3821 769.242 63.1818C771.204 66.9815 772.184 71.2408 772.184 75.9598C772.184 80.74 771.204 85.03 769.242 88.8297C767.281 92.5681 764.585 95.5098 761.153 97.6547C757.721 99.7997 753.921 100.872 749.754 100.872C746.199 100.872 742.982 100.076 740.101 98.4821C737.282 96.8274 735.168 94.8356 733.758 92.5068H733.391L733.758 98.9417V119.258H725.944V52.5182ZM748.834 93.7938C751.531 93.7938 754.074 93.0583 756.464 91.5875C758.855 90.1167 760.754 88.033 762.164 85.3364C763.635 82.5786 764.37 79.453 764.37 75.9598C764.37 72.4665 763.635 69.3716 762.164 66.6751C760.754 63.9172 758.855 61.8029 756.464 60.332C754.074 58.8612 751.531 58.1258 748.834 58.1258C746.138 58.1258 743.595 58.8612 741.204 60.332C738.814 61.8029 736.914 63.8866 735.505 66.5831C734.095 69.2797 733.391 72.4052 733.391 75.9598C733.391 79.5143 734.095 82.6399 735.505 85.3364C736.914 88.033 738.814 90.1167 741.204 91.5875C743.595 93.0583 746.138 93.7938 748.834 93.7938ZM800.505 33.5811H811.812L832.772 87.5427H833.139L854.099 33.5811H865.406V99.4014H857.684V57.5742L858.052 45.072H857.684L836.173 99.4014H829.738L808.227 45.072H807.859L808.227 57.5742V99.4014H800.505V33.5811ZM897.6 100.872C893.126 100.872 889.112 99.7997 885.558 97.6547C882.003 95.5098 879.215 92.5681 877.192 88.8297C875.231 85.03 874.251 80.7707 874.251 76.0517C874.251 71.5166 875.17 67.3492 877.008 63.5495C878.908 59.7498 881.574 56.7162 885.006 54.4487C888.438 52.1811 892.422 51.0473 896.957 51.0473C901.553 51.0473 905.537 52.0892 908.907 54.1729C912.278 56.1953 914.852 59.0144 916.629 62.6302C918.468 66.2461 919.387 70.3828 919.387 75.0405C919.387 75.9598 919.295 76.7565 919.111 77.4306H882.064C882.248 80.9852 883.106 83.9881 884.638 86.4395C886.171 88.891 888.101 90.7295 890.43 91.9552C892.82 93.1809 895.302 93.7938 897.876 93.7938C903.882 93.7938 908.509 90.9747 911.757 85.3364L918.376 88.5539C916.353 92.3536 913.596 95.3565 910.102 97.5628C906.67 99.7691 902.503 100.872 897.6 100.872ZM911.114 70.9957C910.991 69.0345 910.439 67.0734 909.459 65.1123C908.478 63.1512 906.916 61.4965 904.771 60.1482C902.687 58.7999 900.052 58.1258 896.865 58.1258C893.188 58.1258 890.062 59.3208 887.488 61.711C884.975 64.0398 883.321 67.1347 882.524 70.9957H911.114ZM943.505 100.872C938.48 100.872 934.282 99.7078 930.911 97.379C927.54 94.9888 925.15 91.9552 923.741 88.2781L930.727 85.1526C931.892 87.9717 933.608 90.1473 935.875 91.6794C938.204 93.2116 940.747 93.9776 943.505 93.9776C946.447 93.9776 948.96 93.3954 951.043 92.231C953.127 91.0053 954.169 89.2893 954.169 87.083C954.169 85.1219 953.341 83.5591 951.687 82.3947C950.032 81.169 947.427 80.1272 943.873 79.2692L938.173 77.7983C934.435 76.8791 931.371 75.3163 928.981 73.11C926.591 70.9037 925.395 68.054 925.395 64.5607C925.395 61.8642 926.192 59.5047 927.786 57.4823C929.44 55.3986 931.616 53.8052 934.312 52.702C937.009 51.5989 939.92 51.0473 943.046 51.0473C947.152 51.0473 950.798 51.936 953.985 53.7132C957.233 55.4905 959.531 57.9726 960.88 61.1594L954.077 64.2849C951.993 60.1176 948.285 58.0339 942.954 58.0339C940.38 58.0339 938.112 58.6467 936.151 59.8724C934.251 61.0368 933.301 62.5383 933.301 64.3769C933.301 66.0929 933.975 67.5024 935.324 68.6056C936.672 69.6474 938.694 70.5054 941.391 71.1795L948.194 72.9262C952.79 74.0906 956.253 75.8372 958.581 78.166C960.91 80.4336 962.075 83.2221 962.075 86.5315C962.075 89.4119 961.247 91.9552 959.593 94.1615C957.938 96.3065 955.701 97.9612 952.882 99.1256C950.063 100.29 946.937 100.872 943.505 100.872ZM985.117 100.872C980.092 100.872 975.893 99.7078 972.523 97.379C969.152 94.9888 966.762 91.9552 965.352 88.2781L972.339 85.1526C973.503 87.9717 975.219 90.1473 977.487 91.6794C979.816 93.2116 982.359 93.9776 985.117 93.9776C988.059 93.9776 990.571 93.3954 992.655 92.231C994.739 91.0053 995.781 89.2893 995.781 87.083C995.781 85.1219 994.953 83.5591 993.298 82.3947C991.644 81.169 989.039 80.1272 985.485 79.2692L979.785 77.7983C976.047 76.8791 972.982 75.3163 970.592 73.11C968.202 70.9037 967.007 68.054 967.007 64.5607C967.007 61.8642 967.804 59.5047 969.397 57.4823C971.052 55.3986 973.228 53.8052 975.924 52.702C978.621 51.5989 981.532 51.0473 984.657 51.0473C988.763 51.0473 992.41 51.936 995.597 53.7132C998.845 55.4905 1001.14 57.9726 1002.49 61.1594L995.689 64.2849C993.605 60.1176 989.897 58.0339 984.565 58.0339C981.991 58.0339 979.724 58.6467 977.763 59.8724C975.863 61.0368 974.913 62.5383 974.913 64.3769C974.913 66.0929 975.587 67.5024 976.935 68.6056C978.284 69.6474 980.306 70.5054 983.003 71.1795L989.805 72.9262C994.402 74.0906 997.864 75.8372 1000.19 78.166C1002.52 80.4336 1003.69 83.2221 1003.69 86.5315C1003.69 89.4119 1002.86 91.9552 1001.2 94.1615C999.55 96.3065 997.313 97.9612 994.494 99.1256C991.674 100.29 988.549 100.872 985.117 100.872ZM1025.8 100.872C1022.37 100.872 1019.3 100.198 1016.61 98.8498C1013.91 97.5015 1011.83 95.663 1010.35 93.3341C1008.88 90.944 1008.15 88.2475 1008.15 85.2445C1008.15 80.2804 1010.02 76.4194 1013.76 73.6616C1017.49 70.8425 1022.21 69.4329 1027.91 69.4329C1030.73 69.4329 1033.34 69.7393 1035.73 70.3522C1038.18 70.965 1040.05 71.6698 1041.33 72.4665V69.6168C1041.33 66.1235 1040.11 63.335 1037.66 61.2513C1035.21 59.1063 1032.11 58.0339 1028.37 58.0339C1025.74 58.0339 1023.32 58.6161 1021.11 59.7805C1018.9 60.8836 1017.16 62.4464 1015.87 64.4688L1009.99 60.0563C1011.83 57.2371 1014.34 55.0309 1017.53 53.4375C1020.77 51.844 1024.36 51.0473 1028.28 51.0473C1034.65 51.0473 1039.65 52.7327 1043.26 56.1034C1046.94 59.4128 1048.78 63.9479 1048.78 69.7087V99.4014H1041.33V92.6906H1040.97C1039.62 94.9582 1037.6 96.8887 1034.9 98.4821C1032.2 100.076 1029.17 100.872 1025.8 100.872ZM1026.53 93.9776C1029.17 93.9776 1031.62 93.3035 1033.89 91.9552C1036.16 90.6069 1037.96 88.799 1039.31 86.5315C1040.66 84.2639 1041.33 81.7819 1041.33 79.0853C1039.86 78.1048 1038.06 77.3081 1035.91 76.6952C1033.77 76.0823 1031.5 75.7759 1029.11 75.7759C1024.82 75.7759 1021.57 76.6646 1019.36 78.4418C1017.22 80.2191 1016.15 82.5173 1016.15 85.3364C1016.15 87.9104 1017.13 89.9941 1019.09 91.5875C1021.05 93.1809 1023.53 93.9776 1026.53 93.9776ZM1077.96 120.729C1072.44 120.729 1067.87 119.442 1064.26 116.868C1060.7 114.294 1058.31 111.199 1057.09 107.583L1064.17 104.549C1065.21 107.246 1066.92 109.421 1069.31 111.076C1071.77 112.792 1074.65 113.65 1077.96 113.65C1082.8 113.65 1086.54 112.241 1089.17 109.421C1091.87 106.602 1093.22 102.619 1093.22 97.4709V92.231H1092.85C1091.32 94.6211 1089.14 96.5822 1086.32 98.1144C1083.56 99.5852 1080.41 100.321 1076.85 100.321C1072.81 100.321 1069.1 99.2788 1065.73 97.1951C1062.42 95.1114 1059.78 92.2004 1057.82 88.462C1055.86 84.7236 1054.88 80.4642 1054.88 75.684C1054.88 70.965 1055.86 66.7364 1057.82 62.998C1059.78 59.1983 1062.42 56.2566 1065.73 54.1729C1069.1 52.0892 1072.81 51.0473 1076.85 51.0473C1080.41 51.0473 1083.56 51.8134 1086.32 53.3455C1089.14 54.8164 1091.32 56.7775 1092.85 59.2289H1093.22V52.5182H1100.66V97.5628C1100.66 105.101 1098.58 110.831 1094.41 114.753C1090.24 118.737 1084.76 120.729 1077.96 120.729ZM1077.96 93.2422C1080.77 93.2422 1083.32 92.5374 1085.59 91.1279C1087.91 89.7183 1089.75 87.6959 1091.1 85.0606C1092.51 82.4254 1093.22 79.2998 1093.22 75.684C1093.22 72.0069 1092.51 68.8507 1091.1 66.2154C1089.75 63.5802 1087.91 61.5884 1085.59 60.2401C1083.32 58.8306 1080.77 58.1258 1077.96 58.1258C1075.14 58.1258 1072.56 58.8306 1070.23 60.2401C1067.9 61.6497 1066.04 63.6721 1064.63 66.3074C1063.28 68.9426 1062.6 72.0682 1062.6 75.684C1062.6 79.2998 1063.28 82.456 1064.63 85.1526C1066.04 87.7878 1067.9 89.8102 1070.23 91.2198C1072.56 92.5681 1075.14 93.2422 1077.96 93.2422ZM1114.97 43.877C1113.44 43.877 1112.12 43.3254 1111.02 42.2223C1109.92 41.1191 1109.37 39.8015 1109.37 38.2694C1109.37 36.7372 1109.92 35.4503 1111.02 34.4084C1112.12 33.3053 1113.44 32.7537 1114.97 32.7537C1116.5 32.7537 1117.82 33.3053 1118.93 34.4084C1120.03 35.4503 1120.58 36.7372 1120.58 38.2694C1120.58 39.8015 1120.03 41.1191 1118.93 42.2223C1117.88 43.3254 1116.57 43.877 1114.97 43.877ZM1111.11 52.5182H1118.83V99.4014H1111.11V52.5182ZM1129.28 52.5182H1136.72V59.4128H1137.09C1138.38 57.0839 1140.43 55.1228 1143.25 53.5294C1146.07 51.8747 1149.07 51.0473 1152.26 51.0473C1157.9 51.0473 1162.19 52.702 1165.13 56.0114C1168.13 59.2596 1169.63 63.7027 1169.63 69.341V99.4014H1161.82V70.536C1161.82 66.1848 1160.78 63.0286 1158.69 61.0675C1156.61 59.1063 1153.76 58.1258 1150.14 58.1258C1147.63 58.1258 1145.36 58.8306 1143.34 60.2401C1141.38 61.6497 1139.85 63.5189 1138.74 65.8477C1137.64 68.1153 1137.09 70.5054 1137.09 73.0181V99.4014H1129.28V52.5182ZM1199.11 120.729C1193.59 120.729 1189.03 119.442 1185.41 116.868C1181.86 114.294 1179.47 111.199 1178.24 107.583L1185.32 104.549C1186.36 107.246 1188.08 109.421 1190.47 111.076C1192.92 112.792 1195.8 113.65 1199.11 113.65C1203.95 113.65 1207.69 112.241 1210.32 109.421C1213.02 106.602 1214.37 102.619 1214.37 97.4709V92.231H1214C1212.47 94.6211 1210.29 96.5822 1207.48 98.1144C1204.72 99.5852 1201.56 100.321 1198.01 100.321C1193.96 100.321 1190.25 99.2788 1186.88 97.1951C1183.57 95.1114 1180.94 92.2004 1178.98 88.462C1177.02 84.7236 1176.04 80.4642 1176.04 75.684C1176.04 70.965 1177.02 66.7364 1178.98 62.998C1180.94 59.1983 1183.57 56.2566 1186.88 54.1729C1190.25 52.0892 1193.96 51.0473 1198.01 51.0473C1201.56 51.0473 1204.72 51.8134 1207.48 53.3455C1210.29 54.8164 1212.47 56.7775 1214 59.2289H1214.37V52.5182H1221.82V97.5628C1221.82 105.101 1219.73 110.831 1215.56 114.753C1211.4 118.737 1205.91 120.729 1199.11 120.729ZM1199.11 93.2422C1201.93 93.2422 1204.47 92.5374 1206.74 91.1279C1209.07 89.7183 1210.91 87.6959 1212.26 85.0606C1213.67 82.4254 1214.37 79.2998 1214.37 75.684C1214.37 72.0069 1213.67 68.8507 1212.26 66.2154C1210.91 63.5802 1209.07 61.5884 1206.74 60.2401C1204.47 58.8306 1201.93 58.1258 1199.11 58.1258C1196.29 58.1258 1193.72 58.8306 1191.39 60.2401C1189.06 61.6497 1187.19 63.6721 1185.78 66.3074C1184.43 68.9426 1183.76 72.0682 1183.76 75.684C1183.76 79.2998 1184.43 82.456 1185.78 85.1526C1187.19 87.7878 1189.06 89.8102 1191.39 91.2198C1193.72 92.5681 1196.29 93.2422 1199.11 93.2422Z" fill="white"/>
<path d="M461.612 99.8672C457.157 99.8672 453.13 98.83 449.531 96.7554C445.992 94.6809 443.215 91.8132 441.202 88.1523C439.188 84.4303 438.182 80.2813 438.182 75.7051C438.182 71.312 439.127 67.285 441.019 63.624C442.971 59.9021 445.687 56.9733 449.164 54.8378C452.642 52.6412 456.608 51.543 461.062 51.543C465.639 51.543 469.605 52.5497 472.96 54.5632C476.377 56.5767 478.97 59.3835 480.74 62.9834C482.509 66.5223 483.394 70.6103 483.394 75.2475C483.394 75.7966 483.364 76.3458 483.303 76.8949C483.242 77.444 483.211 77.7491 483.211 77.8101H448.249C448.554 81.9592 450.049 85.1625 452.734 87.4201C455.419 89.6776 458.469 90.8064 461.886 90.8064C467.133 90.8064 471.161 88.3658 473.967 83.4846L482.57 87.6031C480.557 91.3251 477.75 94.3148 474.15 96.5724C470.611 98.769 466.432 99.8672 461.612 99.8672ZM473.144 70.1222C473.021 68.6578 472.533 67.1629 471.679 65.6375C470.825 64.1122 469.483 62.8308 467.652 61.7936C465.883 60.6953 463.656 60.1461 460.971 60.1461C457.981 60.1461 455.388 61.0614 453.191 62.8919C451.056 64.7223 449.592 67.1324 448.798 70.1222H473.144Z" fill="white"/>
<path d="M416.087 99.8672C410.9 99.8672 406.599 98.6774 403.182 96.2978C399.826 93.8572 397.446 90.8064 396.043 87.1455L405.012 83.3015C406.05 85.8032 407.544 87.6946 409.497 88.976C411.51 90.2573 413.707 90.898 416.087 90.898C418.588 90.898 420.632 90.4403 422.219 89.5251C423.805 88.5489 424.598 87.298 424.598 85.7727C424.598 84.3083 423.958 83.1185 422.676 82.2032C421.395 81.227 419.29 80.3728 416.361 79.6406L410.138 78.1762C406.721 77.383 403.761 75.9187 401.26 73.7831C398.819 71.5866 397.599 68.7493 397.599 65.2715C397.599 61.0614 399.338 57.736 402.816 55.2954C406.294 52.7938 410.565 51.543 415.629 51.543C419.839 51.543 423.561 52.4277 426.795 54.1971C430.09 55.9666 432.469 58.5292 433.934 61.8851L425.056 65.6375C424.202 63.7461 422.89 62.3427 421.12 61.4275C419.351 60.5122 417.429 60.0546 415.354 60.0546C413.341 60.0546 411.571 60.5122 410.046 61.4275C408.521 62.2817 407.758 63.441 407.758 64.9054C407.758 66.1867 408.277 67.2239 409.314 68.0171C410.412 68.8104 412.121 69.4815 414.439 70.0307L421.212 71.6781C425.788 72.8374 429.205 74.6068 431.462 76.9864C433.72 79.305 434.849 82.1117 434.849 85.4066C434.849 88.0912 434.025 90.5319 432.378 92.7284C430.791 94.925 428.564 96.6639 425.696 97.9452C422.89 99.2266 419.686 99.8672 416.087 99.8672Z" fill="white"/>
<path d="M367.921 99.8672C364.688 99.8672 361.759 99.2266 359.135 97.9452C356.573 96.6029 354.529 94.7724 353.003 92.4538C351.539 90.0742 350.807 87.3896 350.807 84.3998C350.807 79.6406 352.576 75.8881 356.115 73.1424C359.715 70.3968 364.261 69.0239 369.752 69.0239C374.572 69.0239 378.691 69.8476 382.108 71.495V69.573C382.108 66.8273 381.009 64.5698 378.813 62.8003C376.677 60.9699 374.084 60.0546 371.033 60.0546C366.396 60.0546 362.674 61.9461 359.867 65.7291L352.18 60.4207C354.315 57.553 356.969 55.3564 360.142 53.8311C363.376 52.3057 367.006 51.543 371.033 51.543C377.684 51.543 382.809 53.2209 386.409 56.5767C390.07 59.8716 391.901 64.5393 391.901 70.5798V98.4029H382.108V92.8199H381.558C380.094 94.8945 378.233 96.6029 375.976 97.9452C373.718 99.2266 371.033 99.8672 367.921 99.8672ZM369.569 91.5386C371.826 91.5386 373.901 90.9895 375.792 89.8912C377.745 88.7319 379.27 87.237 380.369 85.4066C381.528 83.5151 382.108 81.5016 382.108 79.366C378.874 77.5966 375.426 76.7119 371.765 76.7119C368.41 76.7119 365.786 77.444 363.894 78.9084C362.003 80.3728 361.057 82.2338 361.057 84.4913C361.057 86.5659 361.881 88.2743 363.528 89.6166C365.237 90.898 367.25 91.5386 369.569 91.5386Z" fill="white"/>
<path d="M325.684 99.8661C322.389 99.8661 319.43 99.1644 316.806 97.7611C314.244 96.3577 312.322 94.5882 311.04 92.4527H310.491V98.4017H300.973V32.8711H311.04V52.5486L310.491 58.8637H311.04C312.322 56.7892 314.244 55.0502 316.806 53.6469C319.43 52.2435 322.389 51.5418 325.684 51.5418C329.589 51.5418 333.189 52.5791 336.484 54.6536C339.84 56.7281 342.494 59.6264 344.446 63.3483C346.46 67.0093 347.466 71.1278 347.466 75.704C347.466 80.2801 346.46 84.3987 344.446 88.0596C342.494 91.7205 339.84 94.6188 336.484 96.7543C333.189 98.8288 329.589 99.8661 325.684 99.8661ZM323.945 90.6222C326.325 90.6222 328.521 90.0121 330.535 88.7918C332.609 87.5715 334.257 85.8325 335.477 83.575C336.758 81.2564 337.399 78.6327 337.399 75.704C337.399 72.7752 336.758 70.1821 335.477 67.9245C334.257 65.6059 332.609 63.8364 330.535 62.6161C328.521 61.3958 326.325 60.7857 323.945 60.7857C321.565 60.7857 319.338 61.3958 317.264 62.6161C315.25 63.8364 313.603 65.5754 312.322 67.833C311.101 70.0905 310.491 72.7142 310.491 75.704C310.491 78.6937 311.101 81.3174 312.322 83.575C313.603 85.8325 315.25 87.5715 317.264 88.7918C319.338 90.0121 321.565 90.6222 323.945 90.6222Z" fill="white"/>
<path d="M273.192 99.8672C268.738 99.8672 264.711 98.83 261.111 96.7554C257.572 94.6809 254.795 91.8132 252.782 88.1523C250.768 84.4303 249.762 80.2813 249.762 75.7051C249.762 71.312 250.707 67.285 252.599 63.624C254.551 59.9021 257.267 56.9733 260.745 54.8378C264.222 52.6412 268.188 51.543 272.643 51.543C277.219 51.543 281.185 52.5497 284.541 54.5632C287.957 56.5767 290.551 59.3835 292.32 62.9834C294.089 66.5223 294.974 70.6103 294.974 75.2475C294.974 75.7966 294.944 76.3458 294.883 76.8949C294.822 77.444 294.791 77.7491 294.791 77.8101H259.829C260.134 81.9592 261.629 85.1625 264.314 87.4201C266.999 89.6776 270.049 90.8064 273.466 90.8064C278.714 90.8064 282.741 88.3658 285.547 83.4846L294.15 87.6031C292.137 91.3251 289.33 94.3148 285.73 96.5724C282.191 98.769 278.012 99.8672 273.192 99.8672ZM284.724 70.1222C284.602 68.6578 284.113 67.1629 283.259 65.6375C282.405 64.1122 281.063 62.8308 279.232 61.7936C277.463 60.6953 275.236 60.1461 272.551 60.1461C269.561 60.1461 266.968 61.0614 264.772 62.8919C262.636 64.7223 261.172 67.1324 260.378 70.1222H284.724Z" fill="white"/>
<path d="M221.822 53.0076H231.341V59.7803H231.89C232.866 57.4617 234.636 55.5398 237.198 54.0144C239.761 52.428 242.384 51.6348 245.069 51.6348C247.266 51.6348 249.066 51.9398 250.469 52.55V63.0752C248.395 62.0379 246.076 61.5193 243.513 61.5193C240.218 61.5193 237.442 62.8006 235.185 65.3632C232.988 67.8649 231.89 70.9462 231.89 74.6071V98.4031H221.822V53.0076Z" fill="white"/>
<path d="M207.452 45.3189C205.561 45.3189 203.944 44.6782 202.602 43.3969C201.32 42.0545 200.68 40.4376 200.68 38.5462C200.68 36.6547 201.32 35.0683 202.602 33.787C203.944 32.4446 205.561 31.7734 207.452 31.7734C209.344 31.7734 210.93 32.4446 212.212 33.787C213.554 35.0683 214.225 36.6547 214.225 38.5462C214.225 40.4376 213.554 42.0545 212.212 43.3969C210.93 44.6782 209.344 45.3189 207.452 45.3189ZM202.419 53.0068H212.486V98.4023H202.419V53.0068Z" fill="white"/>
<path d="M156.562 32.8721H196.375V42.6651H166.813V61.5188H193.446V71.2203H166.813V98.4027H156.562V32.8721Z" fill="white"/>
<g clip-path="url(#clip0_47_2168)">
<path d="M86.8743 43.1134C84.1283 39.3031 77.814 31.4684 68.1144 19.8296C63.9039 14.7813 60.2921 10.4962 58.5142 8.39247C57.5337 7.232 56.6928 6.23909 56.0288 5.45406L54.9707 4.20672L54.3967 3.53029L54.285 3.36584L54.2354 3.34412L51.7872 0.467773L48.6844 2.95626C40.7628 9.30161 34.2747 17.4807 29.9276 26.5969C27.2622 32.0207 25.5215 37.3235 24.6093 42.7845C24.3704 44.0133 24.1656 45.2761 23.9949 46.5421C22.9306 46.4552 21.8477 46.3994 20.7742 46.3745C20.6842 46.3683 20.5942 46.3652 20.4732 46.3621C16.5419 46.2256 12.6323 46.6941 8.85608 47.7584L7.23949 48.2114L6.40793 49.6698C2.51074 56.5054 0.304608 64.2873 0.0284535 72.1717C-0.328375 82.4111 2.46109 92.3216 8.09588 100.833C13.6097 109.158 21.3978 115.522 30.6195 119.236L31.8203 119.72L32.1834 119.847L32.1989 119.841C37.0021 121.585 42.0442 122.559 47.1857 122.736C47.769 122.758 48.3492 122.767 48.9295 122.767C55.4176 122.767 61.735 121.498 67.7297 118.988L67.7731 119.006L69.368 118.268C77.454 114.529 84.3734 108.652 89.3783 101.27C94.526 93.6776 97.4178 84.7941 97.7405 75.5817C98.1253 64.5697 94.467 53.6476 86.8712 43.1165L86.8743 43.1134ZM50.7788 77.2325C52.4512 83.5716 52.1223 89.6625 49.8076 95.3624C44.0239 89.6532 39.7823 83.3761 37.1945 76.6863C34.4236 69.5312 32.7574 62.7235 32.2299 56.4278C34.6781 57.2314 36.9276 58.2926 38.9321 59.5989C44.6972 63.3565 48.6844 69.2891 50.7788 77.2356V77.2325ZM51.8338 107.92C54.2912 109.791 56.8759 111.544 59.5412 113.157C55.6161 114.225 51.5669 114.693 47.4711 114.547C46.8382 114.526 46.2052 114.488 45.5691 114.436C47.9024 112.425 50 110.244 51.8307 107.92H51.8338ZM58.6973 75.1442C56.066 65.1716 50.9184 57.6317 43.4002 52.7354C40.1019 50.5882 36.3443 48.9592 32.2175 47.8949C32.2764 47.2092 32.3509 46.5266 32.4378 45.8564C32.5123 45.2823 32.5898 44.7548 32.6736 44.2615C33.3531 40.7522 34.3647 37.2801 35.6741 33.9445C36.1767 32.6661 36.7259 31.3971 37.3093 30.1714L37.331 30.128C38.2308 28.3066 39.2455 26.4666 40.4401 24.4994L40.9086 23.7268L40.8931 23.7175C43.667 19.3828 46.9902 15.4297 50.7912 11.9452L52.2588 13.6797C55.6813 17.7352 58.899 21.5703 61.825 25.0796C68.4061 32.9733 76.939 43.3399 80.2311 47.9105C86.7409 56.9336 89.8779 66.1459 89.5583 75.2994C89.3101 82.408 87.2063 89.3398 83.4705 95.3407C79.9332 101.028 75.0059 105.788 69.2004 109.139C65.9611 107.523 61.2571 104.863 56.2615 100.994C60.289 92.967 61.1113 84.2759 58.7004 75.1442H58.6973ZM45.5753 102.648C41.8829 107.433 37.4892 110.545 34.9263 112.109C34.5105 111.957 34.0947 111.798 33.6851 111.631L33.3562 111.5C25.7635 108.363 19.3593 103.061 14.8353 96.1599C10.212 89.1071 7.92212 80.9093 8.21689 72.451C8.42789 66.388 9.93898 60.5949 12.7129 55.2301C14.3233 54.8733 15.9647 54.6499 17.6061 54.5661L18.0312 54.5568C18.8597 54.5382 19.6851 54.5382 20.4701 54.5568C21.6243 54.6095 22.7817 54.7305 23.9205 54.9136C24.2928 62.6211 26.1855 70.9368 29.5521 79.6372C32.7946 88.0118 38.1812 95.7472 45.5722 102.645L45.5753 102.648Z" fill="white"/>
</g>
<g filter="url(#filter0_d_47_2168)">
<circle cx="100" cy="90" r="30" fill="white"/>
<path fill-rule="evenodd" clip-rule="evenodd" d="M109.619 105.619C109.031 106.206 108.325 106.5 107.5 106.5H92.5C91.675 106.5 90.9687 106.206 90.3812 105.619C89.7937 105.031 89.5 104.325 89.5 103.5V99L92.5 97.5V99H107.5V81H92.5V82.5L89.5 81V76.5C89.5 75.675 89.7937 74.9688 90.3812 74.3813C90.9687 73.7938 91.675 73.5 92.5 73.5H107.5C108.325 73.5 109.031 73.7938 109.619 74.3813C110.206 74.9688 110.5 75.675 110.5 76.5V103.5C110.5 104.325 110.206 105.031 109.619 105.619ZM83.5 97.5V91.875L91.0789 90L83.5 88.125V82.5L101.5 90L83.5 97.5Z" fill="#1F1F1F"/>
</g>
<defs>
<filter id="filter0_d_47_2168" x="68" y="58.6704" width="64" height="64" filterUnits="userSpaceOnUse" color-interpolation-filters="sRGB">
<feFlood flood-opacity="0" result="BackgroundImageFix"/>
<feColorMatrix in="SourceAlpha" type="matrix" values="0 0 0 0 0 0 0 0 0 0 0 0 0 0 0 0 0 0 127 0" result="hardAlpha"/>
<feOffset dy="0.670408"/>
<feGaussianBlur stdDeviation="1"/>
<feComposite in2="hardAlpha" operator="out"/>
<feColorMatrix type="matrix" values="0 0 0 0 0 0 0 0 0 0 0 0 0 0 0 0 0 0 0.3 0"/>
<feBlend mode="normal" in2="BackgroundImageFix" result="effect1_dropShadow_47_2168"/>
<feBlend mode="normal" in="SourceGraphic" in2="effect1_dropShadow_47_2168" result="shape"/>
</filter>
<clipPath id="clip0_47_2168">
<rect width="97.7741" height="122.296" fill="white" transform="translate(-0.00195312 0.467773)"/>
</clipPath>
</defs>
</svg>
