<svg width="943" height="128" viewBox="0 0 943 128" fill="none" xmlns="http://www.w3.org/2000/svg">
<path d="M525.467 33.5811H534.292L559.297 99.4014H550.747L544.128 81.2916H515.723L509.104 99.4014H500.555L525.467 33.5811ZM541.463 73.9374L532.729 50.22L530.064 43.1415H529.696L527.122 50.22L518.389 73.9374H541.463ZM564.705 52.5182H572.151V59.5047H572.518C573.928 57.1146 576.042 55.1228 578.861 53.5294C581.742 51.8747 584.959 51.0473 588.514 51.0473C592.681 51.0473 596.481 52.1198 599.913 54.2648C603.345 56.4098 606.041 59.3821 608.003 63.1818C609.964 66.9815 610.944 71.2408 610.944 75.9598C610.944 80.74 609.964 85.03 608.003 88.8297C606.041 92.5681 603.345 95.5098 599.913 97.6547C596.481 99.7997 592.681 100.872 588.514 100.872C584.959 100.872 581.742 100.076 578.861 98.4821C576.042 96.8274 573.928 94.8356 572.518 92.5068H572.151L572.518 98.9417V119.258H564.705V52.5182ZM587.595 93.7938C590.291 93.7938 592.834 93.0583 595.225 91.5875C597.615 90.1167 599.515 88.033 600.924 85.3364C602.395 82.5786 603.13 79.453 603.13 75.9598C603.13 72.4665 602.395 69.3716 600.924 66.6751C599.515 63.9172 597.615 61.8029 595.225 60.332C592.834 58.8612 590.291 58.1258 587.595 58.1258C584.898 58.1258 582.355 58.8612 579.965 60.332C577.574 61.8029 575.675 63.8866 574.265 66.5831C572.855 69.2797 572.151 72.4052 572.151 75.9598C572.151 79.5143 572.855 82.6399 574.265 85.3364C575.675 88.033 577.574 90.1167 579.965 91.5875C582.355 93.0583 584.898 93.7938 587.595 93.7938ZM616.909 52.5182H624.356V59.5047H624.723C626.133 57.1146 628.247 55.1228 631.066 53.5294C633.947 51.8747 637.164 51.0473 640.719 51.0473C644.886 51.0473 648.686 52.1198 652.118 54.2648C655.55 56.4098 658.246 59.3821 660.207 63.1818C662.169 66.9815 663.149 71.2408 663.149 75.9598C663.149 80.74 662.169 85.03 660.207 88.8297C658.246 92.5681 655.55 95.5098 652.118 97.6547C648.686 99.7997 644.886 100.872 640.719 100.872C637.164 100.872 633.947 100.076 631.066 98.4821C628.247 96.8274 626.133 94.8356 624.723 92.5068H624.356L624.723 98.9417V119.258H616.909V52.5182ZM639.799 93.7938C642.496 93.7938 645.039 93.0583 647.429 91.5875C649.82 90.1167 651.719 88.033 653.129 85.3364C654.6 82.5786 655.335 79.453 655.335 75.9598C655.335 72.4665 654.6 69.3716 653.129 66.6751C651.719 63.9172 649.82 61.8029 647.429 60.332C645.039 58.8612 642.496 58.1258 639.799 58.1258C637.103 58.1258 634.56 58.8612 632.169 60.332C629.779 61.8029 627.879 63.8866 626.47 66.5831C625.06 69.2797 624.356 72.4052 624.356 75.9598C624.356 79.5143 625.06 82.6399 626.47 85.3364C627.879 88.033 629.779 90.1167 632.169 91.5875C634.56 93.0583 637.103 93.7938 639.799 93.7938ZM720.562 100.872C714.189 100.872 708.397 99.3707 703.188 96.3677C697.979 93.3648 693.873 89.2587 690.87 84.0494C687.928 78.7789 686.457 72.9262 686.457 66.4912C686.457 60.0563 687.928 54.2342 690.87 49.0249C693.873 43.7544 697.979 39.6177 703.188 36.6147C708.397 33.6117 714.189 32.1102 720.562 32.1102C725.465 32.1102 729.939 33.0601 733.984 34.96C738.09 36.7985 741.644 39.4338 744.647 42.8658L739.04 48.2895C736.527 45.2865 733.769 43.0803 730.766 41.6707C727.825 40.2611 724.423 39.5564 720.562 39.5564C715.782 39.5564 711.4 40.6901 707.417 42.9577C703.433 45.164 700.246 48.3201 697.856 52.4263C695.527 56.4711 694.363 61.1594 694.363 66.4912C694.363 71.823 695.527 76.542 697.856 80.6481C700.246 84.6929 703.433 87.8491 707.417 90.1167C711.4 92.3229 715.782 93.4261 720.562 93.4261C728.529 93.4261 735.301 90.1473 740.878 83.5898L746.578 89.1055C743.514 92.7213 739.745 95.6017 735.271 97.7467C730.797 99.8304 725.894 100.872 720.562 100.872ZM753.513 33.5811H761.327V52.9778L760.96 59.4128H761.327C762.614 57.0226 764.637 55.0309 767.395 53.4375C770.214 51.844 773.278 51.0473 776.587 51.0473C782.287 51.0473 786.638 52.7327 789.641 56.1034C792.644 59.4128 794.146 63.8253 794.146 69.341V99.4014H786.332V70.536C786.332 66.3074 785.259 63.1818 783.114 61.1594C780.969 59.137 778.181 58.1258 774.749 58.1258C772.297 58.1258 770.03 58.8612 767.946 60.332C765.924 61.8029 764.3 63.7027 763.074 66.0316C761.91 68.3604 761.327 70.7812 761.327 73.2939V99.4014H753.513V33.5811ZM824.431 100.872C819.958 100.872 815.943 99.7997 812.389 97.6547C808.834 95.5098 806.046 92.5681 804.023 88.8297C802.062 85.03 801.082 80.7707 801.082 76.0517C801.082 71.5166 802.001 67.3492 803.84 63.5495C805.739 59.7498 808.405 56.7162 811.837 54.4487C815.269 52.1811 819.253 51.0473 823.788 51.0473C828.384 51.0473 832.368 52.0892 835.739 54.1729C839.109 56.1953 841.683 59.0144 843.46 62.6302C845.299 66.2461 846.218 70.3828 846.218 75.0405C846.218 75.9598 846.126 76.7565 845.943 77.4306H808.896C809.079 80.9852 809.937 83.9881 811.47 86.4395C813.002 88.891 814.932 90.7295 817.261 91.9552C819.651 93.1809 822.133 93.7938 824.707 93.7938C830.713 93.7938 835.34 90.9747 838.588 85.3364L845.207 88.5539C843.185 92.3536 840.427 95.3565 836.934 97.5628C833.502 99.7691 829.334 100.872 824.431 100.872ZM837.945 70.9957C837.822 69.0345 837.271 67.0734 836.29 65.1123C835.31 63.1512 833.747 61.4965 831.602 60.1482C829.518 58.7999 826.883 58.1258 823.696 58.1258C820.019 58.1258 816.893 59.3208 814.319 61.711C811.807 64.0398 810.152 67.1347 809.355 70.9957H837.945ZM875.209 100.872C870.673 100.872 866.598 99.7997 862.982 97.6547C859.366 95.4485 856.547 92.4761 854.525 88.7377C852.502 84.9381 851.491 80.6787 851.491 75.9598C851.491 71.2408 852.502 66.9815 854.525 63.1818C856.547 59.3821 859.366 56.4098 862.982 54.2648C866.598 52.1198 870.673 51.0473 875.209 51.0473C880.295 51.0473 884.555 52.2424 887.987 54.6325C891.48 56.9614 893.962 60.0869 895.433 64.0092L888.354 66.9509C887.19 64.0704 885.443 61.8948 883.114 60.424C880.847 58.8918 878.089 58.1258 874.841 58.1258C872.083 58.1258 869.509 58.8918 867.119 60.424C864.729 61.8948 862.798 63.9785 861.328 66.6751C859.918 69.3716 859.213 72.4665 859.213 75.9598C859.213 79.453 859.918 82.5479 861.328 85.2445C862.798 87.941 864.729 90.0554 867.119 91.5875C869.509 93.0583 872.083 93.7938 874.841 93.7938C878.15 93.7938 881 93.0277 883.39 91.4956C885.78 89.9634 887.558 87.7878 888.722 84.9687L895.708 87.9104C894.115 91.7714 891.541 94.8969 887.987 97.287C884.493 99.6772 880.234 100.872 875.209 100.872ZM902.318 33.5811H910.132V74.9486L932.195 52.5182H942.123V52.8859L923.737 71.4553L942.582 99.0337V99.4014H933.298L918.221 76.8791L910.132 84.9687V99.4014H902.318V33.5811Z" fill="white"/>
<path d="M461.612 99.8663C457.157 99.8663 453.13 98.829 449.531 96.7545C445.992 94.6799 443.215 91.8122 441.202 88.1513C439.188 84.4293 438.182 80.2803 438.182 75.7041C438.182 71.311 439.127 67.284 441.019 63.6231C442.971 59.9011 445.687 56.9724 449.164 54.8368C452.642 52.6403 456.608 51.542 461.062 51.542C465.639 51.542 469.605 52.5487 472.96 54.5623C476.377 56.5758 478.97 59.3825 480.74 62.9824C482.509 66.5213 483.394 70.6093 483.394 75.2465C483.394 75.7956 483.364 76.3448 483.303 76.8939C483.242 77.4431 483.211 77.7481 483.211 77.8092H448.249C448.554 81.9582 450.049 85.1615 452.734 87.4191C455.419 89.6767 458.469 90.8055 461.886 90.8055C467.133 90.8055 471.161 88.3648 473.967 83.4836L482.57 87.6021C480.557 91.3241 477.75 94.3138 474.15 96.5714C470.611 98.768 466.432 99.8663 461.612 99.8663ZM473.144 70.1212C473.021 68.6568 472.533 67.162 471.679 65.6366C470.825 64.1112 469.483 62.8299 467.652 61.7926C465.883 60.6943 463.656 60.1452 460.971 60.1452C457.981 60.1452 455.388 61.0604 453.191 62.8909C451.056 64.7213 449.592 67.1314 448.798 70.1212H473.144Z" fill="white"/>
<path d="M416.087 99.8663C410.9 99.8663 406.599 98.6765 403.182 96.2968C399.826 93.8562 397.446 90.8055 396.043 87.1445L405.012 83.3006C406.05 85.8022 407.544 87.6937 409.497 88.975C411.51 90.2563 413.707 90.897 416.087 90.897C418.588 90.897 420.632 90.4394 422.219 89.5241C423.805 88.5479 424.598 87.2971 424.598 85.7717C424.598 84.3073 423.958 83.1175 422.676 82.2023C421.395 81.226 419.29 80.3718 416.361 79.6396L410.138 78.1752C406.721 77.382 403.761 75.9177 401.26 73.7821C398.819 71.5856 397.599 68.7484 397.599 65.2705C397.599 61.0604 399.338 57.7351 402.816 55.2944C406.294 52.7928 410.565 51.542 415.629 51.542C419.839 51.542 423.561 52.4267 426.795 54.1962C430.09 55.9656 432.469 58.5283 433.934 61.8841L425.056 65.6366C424.202 63.7451 422.89 62.3417 421.12 61.4265C419.351 60.5113 417.429 60.0537 415.354 60.0537C413.341 60.0537 411.571 60.5113 410.046 61.4265C408.521 62.2807 407.758 63.44 407.758 64.9044C407.758 66.1857 408.277 67.223 409.314 68.0162C410.412 68.8094 412.121 69.4805 414.439 70.0297L421.212 71.6771C425.788 72.8364 429.205 74.6058 431.462 76.9854C433.72 79.304 434.849 82.1107 434.849 85.4056C434.849 88.0903 434.025 90.5309 432.378 92.7274C430.791 94.924 428.564 96.6629 425.696 97.9443C422.89 99.2256 419.686 99.8663 416.087 99.8663Z" fill="white"/>
<path d="M367.921 99.8663C364.688 99.8663 361.759 99.2256 359.135 97.9443C356.573 96.6019 354.529 94.7715 353.003 92.4529C351.539 90.0733 350.807 87.3886 350.807 84.3988C350.807 79.6396 352.576 75.8872 356.115 73.1415C359.715 70.3958 364.261 69.0229 369.752 69.0229C374.572 69.0229 378.691 69.8466 382.108 71.4941V69.5721C382.108 66.8264 381.009 64.5688 378.813 62.7993C376.677 60.9689 374.084 60.0537 371.033 60.0537C366.396 60.0537 362.674 61.9451 359.867 65.7281L352.18 60.4197C354.315 57.552 356.969 55.3555 360.142 53.8301C363.376 52.3047 367.006 51.542 371.033 51.542C377.684 51.542 382.809 53.2199 386.409 56.5758C390.07 59.8706 391.901 64.5383 391.901 70.5788V98.4019H382.108V92.819H381.558C380.094 94.8935 378.233 96.6019 375.976 97.9443C373.718 99.2256 371.033 99.8663 367.921 99.8663ZM369.569 91.5376C371.826 91.5376 373.901 90.9885 375.792 89.8902C377.745 88.7309 379.27 87.236 380.369 85.4056C381.528 83.5141 382.108 81.5006 382.108 79.3651C378.874 77.5956 375.426 76.7109 371.765 76.7109C368.41 76.7109 365.786 77.4431 363.894 78.9074C362.003 80.3718 361.057 82.2328 361.057 84.4904C361.057 86.5649 361.881 88.2733 363.528 89.6157C365.237 90.897 367.25 91.5376 369.569 91.5376Z" fill="white"/>
<path d="M325.684 99.8661C322.389 99.8661 319.43 99.1644 316.806 97.7611C314.244 96.3577 312.322 94.5882 311.04 92.4527H310.491V98.4017H300.973V32.8711H311.04V52.5486L310.491 58.8637H311.04C312.322 56.7892 314.244 55.0502 316.806 53.6469C319.43 52.2435 322.389 51.5418 325.684 51.5418C329.589 51.5418 333.189 52.5791 336.484 54.6536C339.84 56.7281 342.494 59.6264 344.446 63.3483C346.46 67.0093 347.466 71.1278 347.466 75.704C347.466 80.2801 346.46 84.3987 344.446 88.0596C342.494 91.7205 339.84 94.6188 336.484 96.7543C333.189 98.8288 329.589 99.8661 325.684 99.8661ZM323.945 90.6222C326.325 90.6222 328.521 90.0121 330.535 88.7918C332.609 87.5715 334.257 85.8325 335.477 83.575C336.758 81.2564 337.399 78.6327 337.399 75.704C337.399 72.7752 336.758 70.1821 335.477 67.9245C334.257 65.6059 332.609 63.8364 330.535 62.6161C328.521 61.3958 326.325 60.7857 323.945 60.7857C321.565 60.7857 319.338 61.3958 317.264 62.6161C315.25 63.8364 313.603 65.5754 312.322 67.833C311.101 70.0905 310.491 72.7142 310.491 75.704C310.491 78.6937 311.101 81.3174 312.322 83.575C313.603 85.8325 315.25 87.5715 317.264 88.7918C319.338 90.0121 321.565 90.6222 323.945 90.6222Z" fill="white"/>
<path d="M273.192 99.8667C268.738 99.8667 264.711 98.8295 261.111 96.7549C257.572 94.6804 254.795 91.8127 252.782 88.1518C250.768 84.4298 249.762 80.2808 249.762 75.7046C249.762 71.3115 250.707 67.2845 252.599 63.6235C254.551 59.9016 257.267 56.9729 260.745 54.8373C264.222 52.6408 268.188 51.5425 272.643 51.5425C277.219 51.5425 281.185 52.5492 284.541 54.5627C287.957 56.5763 290.551 59.383 292.32 62.9829C294.089 66.5218 294.974 70.6098 294.974 75.247C294.974 75.7961 294.944 76.3453 294.883 76.8944C294.822 77.4436 294.791 77.7486 294.791 77.8096H259.829C260.134 81.9587 261.629 85.162 264.314 87.4196C266.999 89.6772 270.049 90.8059 273.466 90.8059C278.714 90.8059 282.741 88.3653 285.547 83.4841L294.15 87.6026C292.137 91.3246 289.33 94.3143 285.73 96.5719C282.191 98.7685 278.012 99.8667 273.192 99.8667ZM284.724 70.1217C284.602 68.6573 284.113 67.1624 283.259 65.6371C282.405 64.1117 281.063 62.8303 279.232 61.7931C277.463 60.6948 275.236 60.1457 272.551 60.1457C269.561 60.1457 266.968 61.0609 264.772 62.8914C262.636 64.7218 261.172 67.1319 260.378 70.1217H284.724Z" fill="white"/>
<path d="M221.822 53.0066H231.341V59.7794H231.89C232.866 57.4608 234.636 55.5388 237.198 54.0134C239.761 52.427 242.384 51.6338 245.069 51.6338C247.266 51.6338 249.066 51.9389 250.469 52.549V63.0742C248.395 62.0369 246.076 61.5183 243.513 61.5183C240.218 61.5183 237.442 62.7996 235.185 65.3623C232.988 67.8639 231.89 70.9452 231.89 74.6061V98.4022H221.822V53.0066Z" fill="white"/>
<path d="M207.452 45.3184C205.561 45.3184 203.944 44.6777 202.602 43.3964C201.32 42.0541 200.68 40.4371 200.68 38.5457C200.68 36.6542 201.32 35.0678 202.602 33.7865C203.944 32.4441 205.561 31.7729 207.452 31.7729C209.344 31.7729 210.93 32.4441 212.212 33.7865C213.554 35.0678 214.225 36.6542 214.225 38.5457C214.225 40.4371 213.554 42.0541 212.212 43.3964C210.93 44.6777 209.344 45.3184 207.452 45.3184ZM202.419 53.0063H212.486V98.4018H202.419V53.0063Z" fill="white"/>
<path d="M156.562 32.8711H196.375V42.6641H166.813V61.5179H193.446V71.2193H166.813V98.4017H156.562V32.8711Z" fill="white"/>
<path d="M31.6581 118.567C36.7104 120.601 42.1915 121.807 47.9467 122.008C55.7355 122.28 63.1422 120.67 69.7635 117.611C61.8234 114.492 54.6322 109.929 48.4949 104.257C44.5166 110.627 38.6325 115.658 31.6581 118.567Z" fill="#FF9100"/>
<path d="M48.4923 104.259C34.4827 91.302 25.9838 72.5484 26.7021 51.979C26.7254 51.311 26.7607 50.6435 26.8019 49.9762C24.2928 49.3273 21.6734 48.9313 18.9777 48.8371C15.1191 48.7024 11.3823 49.181 7.85452 50.1744C4.11472 56.7255 1.85787 64.242 1.57672 72.2932C0.851127 93.0713 13.4253 111.227 31.6556 118.569C38.63 115.66 44.5139 110.635 48.4923 104.259Z" fill="#FFC400"/>
<path d="M48.4937 104.258C51.7509 99.0459 53.7258 92.9348 53.9557 86.3506C54.5605 69.0316 42.9175 54.133 26.8033 49.9757C26.762 50.643 26.7268 51.3105 26.7035 51.9785C25.9852 72.5479 34.484 91.3015 48.4937 104.258Z" fill="#FF9100"/>
<path d="M52.1543 1.29291C42.9766 8.64534 35.7294 18.3402 31.3447 29.5084C28.8344 35.9054 27.2569 42.7768 26.7964 49.9798C42.9106 54.1372 54.5536 69.0358 53.9488 86.3548C53.7189 92.939 51.7382 99.044 48.4868 104.263C54.6239 109.941 61.8153 114.497 69.7555 117.616C85.693 110.249 97.0006 94.3967 97.6554 75.6462C98.0796 63.4978 93.4121 52.6704 86.8167 43.5311C79.8515 33.8654 52.1543 1.29291 52.1543 1.29291Z" fill="#DD2C00"/>
<g filter="url(#filter0_d_47_1082)">
<circle cx="100" cy="90.4678" r="30" fill="white"/>
<path d="M98.2285 96.8083L107.762 87.9103L105.358 85.6663L98.2285 92.3203L94.684 89.0128L92.2795 91.2568L98.2285 96.8083ZM100 106.968C96.091 106.048 92.863 103.956 90.319 100.687C87.7735 97.4188 86.5 93.7903 86.5 89.8003V80.1928L100 75.4678L113.5 80.1928V89.8003C113.5 93.7903 112.228 97.4203 109.682 100.687C107.137 103.956 103.909 106.05 100 106.968ZM100 103.66C102.925 102.793 105.344 101.061 107.256 98.4628C109.17 95.8648 110.125 92.9773 110.125 89.8003V82.3588L100 78.8128L89.875 82.3588V89.8003C89.875 92.9758 90.832 95.8648 92.743 98.4628C94.657 101.062 97.075 102.795 100 103.66Z" fill="#1F1F1F"/>
</g>
<defs>
<filter id="filter0_d_47_1082" x="68" y="59.1382" width="64" height="64" filterUnits="userSpaceOnUse" color-interpolation-filters="sRGB">
<feFlood flood-opacity="0" result="BackgroundImageFix"/>
<feColorMatrix in="SourceAlpha" type="matrix" values="0 0 0 0 0 0 0 0 0 0 0 0 0 0 0 0 0 0 127 0" result="hardAlpha"/>
<feOffset dy="0.670408"/>
<feGaussianBlur stdDeviation="1"/>
<feComposite in2="hardAlpha" operator="out"/>
<feColorMatrix type="matrix" values="0 0 0 0 0 0 0 0 0 0 0 0 0 0 0 0 0 0 0.3 0"/>
<feBlend mode="normal" in2="BackgroundImageFix" result="effect1_dropShadow_47_1082"/>
<feBlend mode="normal" in="SourceGraphic" in2="effect1_dropShadow_47_1082" result="shape"/>
</filter>
</defs>
</svg>
