<svg width="921" height="128" viewBox="0 0 921 128" fill="none" xmlns="http://www.w3.org/2000/svg">
<path d="M506.53 33.5813H544.588V41.0275H514.252V62.8143H541.646V70.1686H514.252V91.9555H544.588V99.4016H506.53V33.5813ZM564.814 75.5923L548.542 52.5184H557.368L569.502 69.8928L581.177 52.5184H590.278L573.915 75.5923L590.645 99.4016H581.545L569.318 81.3838L557.368 99.4016H548.267L564.814 75.5923ZM613.839 100.137C611.939 100.137 610.162 99.8306 608.507 99.2178C606.914 98.6049 605.566 97.7776 604.463 96.7357C603.237 95.5713 602.318 94.223 601.705 92.6909C601.092 91.1588 600.785 89.2896 600.785 87.0833V59.5969H592.604V52.5184H600.785V39.2808H608.599V52.5184H619.998V59.5969H608.599V85.1528C608.599 87.7268 609.09 89.6266 610.07 90.8523C611.235 92.2006 612.92 92.8747 615.126 92.8747C616.903 92.8747 618.619 92.3538 620.274 91.312V98.942C619.355 99.371 618.405 99.6774 617.424 99.8613C616.505 100.045 615.31 100.137 613.839 100.137ZM646.451 100.872C641.977 100.872 637.963 99.8 634.408 97.655C630.853 95.51 628.065 92.5683 626.043 88.8299C624.081 85.0302 623.101 80.7709 623.101 76.0519C623.101 71.5168 624.02 67.3494 625.859 63.5498C627.759 59.7501 630.425 56.7165 633.856 54.4489C637.288 52.1814 641.272 51.0476 645.807 51.0476C650.403 51.0476 654.387 52.0894 657.758 54.1731C661.128 56.1955 663.702 59.0147 665.48 62.6305C667.318 66.2463 668.237 70.3831 668.237 75.0407C668.237 75.96 668.146 76.7567 667.962 77.4309H630.915C631.099 80.9854 631.957 83.9884 633.489 86.4398C635.021 88.8912 636.951 90.7298 639.28 91.9555C641.67 93.1812 644.152 93.794 646.726 93.794C652.732 93.794 657.359 90.9749 660.607 85.3367L667.226 88.5541C665.204 92.3538 662.446 95.3568 658.953 97.5631C655.521 99.7693 651.353 100.872 646.451 100.872ZM659.964 70.9959C659.841 69.0348 659.29 67.0737 658.309 65.1125C657.329 63.1514 655.766 61.4967 653.621 60.1484C651.537 58.8002 648.902 58.126 645.715 58.126C642.038 58.126 638.913 59.3211 636.339 61.7112C633.826 64.04 632.171 67.135 631.374 70.9959H659.964ZM675.544 52.5184H682.99V59.413H683.357C684.644 57.0842 686.697 55.1231 689.517 53.5296C692.336 51.8749 695.339 51.0476 698.526 51.0476C704.164 51.0476 708.454 52.7023 711.395 56.0117C714.398 59.2598 715.9 63.703 715.9 69.3412V99.4016H708.086V70.5363C708.086 66.185 707.044 63.0288 704.96 61.0677C702.877 59.1066 700.027 58.126 696.411 58.126C693.899 58.126 691.631 58.8308 689.609 60.2404C687.647 61.6499 686.115 63.5191 685.012 65.848C683.909 68.1155 683.357 70.5056 683.357 73.0183V99.4016H675.544V52.5184ZM741.149 100.872C736.124 100.872 731.926 99.708 728.555 97.3792C725.184 94.9891 722.794 91.9555 721.385 88.2783L728.371 85.1528C729.536 87.9719 731.252 90.1475 733.519 91.6797C735.848 93.2118 738.391 93.9779 741.149 93.9779C744.091 93.9779 746.604 93.3957 748.687 92.2312C750.771 91.0055 751.813 89.2896 751.813 87.0833C751.813 85.1222 750.985 83.5594 749.331 82.395C747.676 81.1693 745.071 80.1274 741.517 79.2694L735.817 77.7986C732.079 76.8793 729.015 75.3165 726.625 73.1103C724.234 70.904 723.039 68.0542 723.039 64.561C723.039 61.8644 723.836 59.5049 725.429 57.4825C727.084 55.3988 729.26 53.8054 731.956 52.7023C734.653 51.5992 737.564 51.0476 740.69 51.0476C744.796 51.0476 748.442 51.9362 751.629 53.7135C754.877 55.4908 757.175 57.9728 758.524 61.1596L751.721 64.2852C749.637 60.1178 745.929 58.0341 740.598 58.0341C738.024 58.0341 735.756 58.647 733.795 59.8727C731.895 61.0371 730.945 62.5386 730.945 64.3771C730.945 66.0931 731.619 67.5027 732.968 68.6058C734.316 69.6476 736.338 70.5056 739.035 71.1798L745.837 72.9264C750.434 74.0908 753.896 75.8374 756.225 78.1663C758.554 80.4338 759.719 83.2223 759.719 86.5317C759.719 89.4121 758.891 91.9555 757.237 94.1617C755.582 96.3067 753.345 97.9614 750.526 99.1258C747.707 100.29 744.581 100.872 741.149 100.872ZM770.545 43.8772C769.013 43.8772 767.695 43.3256 766.592 42.2225C765.489 41.1194 764.938 39.8017 764.938 38.2696C764.938 36.7375 765.489 35.4505 766.592 34.4087C767.695 33.3055 769.013 32.754 770.545 32.754C772.077 32.754 773.395 33.3055 774.498 34.4087C775.601 35.4505 776.153 36.7375 776.153 38.2696C776.153 39.8017 775.601 41.1194 774.498 42.2225C773.456 43.3256 772.139 43.8772 770.545 43.8772ZM766.684 52.5184H774.406V99.4016H766.684V52.5184ZM806.002 100.872C801.406 100.872 797.269 99.7693 793.592 97.5631C789.915 95.3568 787.034 92.3538 784.951 88.5541C782.928 84.7544 781.917 80.5564 781.917 75.96C781.917 71.3636 782.928 67.1656 784.951 63.3659C787.034 59.5662 789.915 56.5633 793.592 54.357C797.269 52.1507 801.406 51.0476 806.002 51.0476C810.598 51.0476 814.735 52.1507 818.412 54.357C822.089 56.5633 824.939 59.5662 826.962 63.3659C829.045 67.1656 830.087 71.3636 830.087 75.96C830.087 80.5564 829.045 84.7544 826.962 88.5541C824.939 92.3538 822.089 95.3568 818.412 97.5631C814.735 99.7693 810.598 100.872 806.002 100.872ZM806.002 93.794C808.882 93.794 811.548 93.0892 814 91.6797C816.512 90.2088 818.504 88.1251 819.975 85.4286C821.507 82.732 822.273 79.5758 822.273 75.96C822.273 72.3442 821.507 69.188 819.975 66.4915C818.504 63.7949 816.512 61.7419 814 60.3323C811.548 58.8614 808.882 58.126 806.002 58.126C803.122 58.126 800.425 58.8614 797.912 60.3323C795.4 61.7419 793.377 63.7949 791.845 66.4915C790.374 69.188 789.639 72.3442 789.639 75.96C789.639 79.5758 790.374 82.732 791.845 85.4286C793.377 88.1251 795.4 90.2088 797.912 91.6797C800.425 93.0892 803.122 93.794 806.002 93.794ZM836.424 52.5184H843.871V59.413H844.238C845.525 57.0842 847.578 55.1231 850.397 53.5296C853.217 51.8749 856.22 51.0476 859.406 51.0476C865.045 51.0476 869.335 52.7023 872.276 56.0117C875.279 59.2598 876.781 63.703 876.781 69.3412V99.4016H868.967V70.5363C868.967 66.185 867.925 63.0288 865.841 61.0677C863.758 59.1066 860.908 58.126 857.292 58.126C854.779 58.126 852.512 58.8308 850.489 60.2404C848.528 61.6499 846.996 63.5191 845.893 65.848C844.79 68.1155 844.238 70.5056 844.238 73.0183V99.4016H836.424V52.5184ZM902.03 100.872C897.005 100.872 892.807 99.708 889.436 97.3792C886.065 94.9891 883.675 91.9555 882.266 88.2783L889.252 85.1528C890.416 87.9719 892.132 90.1475 894.4 91.6797C896.729 93.2118 899.272 93.9779 902.03 93.9779C904.972 93.9779 907.484 93.3957 909.568 92.2312C911.652 91.0055 912.694 89.2896 912.694 87.0833C912.694 85.1222 911.866 83.5594 910.212 82.395C908.557 81.1693 905.952 80.1274 902.398 79.2694L896.698 77.7986C892.96 76.8793 889.896 75.3165 887.505 73.1103C885.115 70.904 883.92 68.0542 883.92 64.561C883.92 61.8644 884.717 59.5049 886.31 57.4825C887.965 55.3988 890.141 53.8054 892.837 52.7023C895.534 51.5992 898.445 51.0476 901.57 51.0476C905.676 51.0476 909.323 51.9362 912.51 53.7135C915.758 55.4908 918.056 57.9728 919.404 61.1596L912.602 64.2852C910.518 60.1178 906.81 58.0341 901.478 58.0341C898.904 58.0341 896.637 58.647 894.676 59.8727C892.776 61.0371 891.826 62.5386 891.826 64.3771C891.826 66.0931 892.5 67.5027 893.848 68.6058C895.197 69.6476 897.219 70.5056 899.916 71.1798L906.718 72.9264C911.315 74.0908 914.777 75.8374 917.106 78.1663C919.435 80.4338 920.599 83.2223 920.599 86.5317C920.599 89.4121 919.772 91.9555 918.117 94.1617C916.463 96.3067 914.226 97.9614 911.407 99.1258C908.588 100.29 905.462 100.872 902.03 100.872Z" fill="#5A5A5A"/>
<path d="M461.612 99.8665C457.157 99.8665 453.13 98.8292 449.531 96.7547C445.992 94.6802 443.215 91.8125 441.202 88.1515C439.188 84.4296 438.182 80.2805 438.182 75.7044C438.182 71.3113 439.127 67.2842 441.019 63.6233C442.971 59.9014 445.687 56.9726 449.164 54.8371C452.642 52.6405 456.608 51.5422 461.062 51.5422C465.639 51.5422 469.605 52.549 472.96 54.5625C476.377 56.576 478.97 59.3827 480.74 62.9826C482.509 66.5215 483.394 70.6096 483.394 75.2467C483.394 75.7959 483.364 76.345 483.303 76.8942C483.242 77.4433 483.211 77.7484 483.211 77.8094H448.249C448.554 81.9585 450.049 85.1618 452.734 87.4193C455.419 89.6769 458.469 90.8057 461.886 90.8057C467.133 90.8057 471.161 88.3651 473.967 83.4838L482.57 87.6024C480.557 91.3243 477.75 94.3141 474.15 96.5717C470.611 98.7682 466.432 99.8665 461.612 99.8665ZM473.144 70.1215C473.021 68.6571 472.533 67.1622 471.679 65.6368C470.825 64.1114 469.483 62.8301 467.652 61.7928C465.883 60.6946 463.656 60.1454 460.971 60.1454C457.981 60.1454 455.388 61.0607 453.191 62.8911C451.056 64.7216 449.592 67.1317 448.798 70.1215H473.144Z" fill="#5A5A5A"/>
<path d="M416.087 99.8665C410.9 99.8665 406.599 98.6767 403.182 96.2971C399.826 93.8565 397.446 90.8057 396.043 87.1448L405.012 83.3008C406.05 85.8024 407.544 87.6939 409.497 88.9752C411.51 90.2566 413.707 90.8972 416.087 90.8972C418.588 90.8972 420.632 90.4396 422.219 89.5244C423.805 88.5481 424.598 87.2973 424.598 85.7719C424.598 84.3076 423.958 83.1177 422.676 82.2025C421.395 81.2263 419.29 80.3721 416.361 79.6399L410.138 78.1755C406.721 77.3823 403.761 75.9179 401.26 73.7824C398.819 71.5858 397.599 68.7486 397.599 65.2707C397.599 61.0607 399.338 57.7353 402.816 55.2947C406.294 52.7931 410.565 51.5422 415.629 51.5422C419.839 51.5422 423.561 52.427 426.795 54.1964C430.09 55.9659 432.469 58.5285 433.934 61.8844L425.056 65.6368C424.202 63.7453 422.89 62.342 421.12 61.4267C419.351 60.5115 417.429 60.0539 415.354 60.0539C413.341 60.0539 411.571 60.5115 410.046 61.4267C408.521 62.281 407.758 63.4403 407.758 64.9046C407.758 66.186 408.277 67.2232 409.314 68.0164C410.412 68.8096 412.121 69.4808 414.439 70.0299L421.212 71.6773C425.788 72.8366 429.205 74.6061 431.462 76.9857C433.72 79.3043 434.849 82.111 434.849 85.4058C434.849 88.0905 434.025 90.5311 432.378 92.7277C430.791 94.9242 428.564 96.6632 425.696 97.9445C422.89 99.2258 419.686 99.8665 416.087 99.8665Z" fill="#5A5A5A"/>
<path d="M367.921 99.8665C364.688 99.8665 361.759 99.2258 359.135 97.9445C356.573 96.6022 354.529 94.7717 353.003 92.4531C351.539 90.0735 350.807 87.3888 350.807 84.3991C350.807 79.6399 352.576 75.8874 356.115 73.1417C359.715 70.396 364.261 69.0232 369.752 69.0232C374.572 69.0232 378.691 69.8469 382.108 71.4943V69.5723C382.108 66.8266 381.009 64.569 378.813 62.7996C376.677 60.9691 374.084 60.0539 371.033 60.0539C366.396 60.0539 362.674 61.9454 359.867 65.7283L352.18 60.42C354.315 57.5523 356.969 55.3557 360.142 53.8303C363.376 52.3049 367.006 51.5422 371.033 51.5422C377.684 51.5422 382.809 53.2202 386.409 56.576C390.07 59.8708 391.901 64.5385 391.901 70.5791V98.4021H382.108V92.8192H381.558C380.094 94.8937 378.233 96.6022 375.976 97.9445C373.718 99.2258 371.033 99.8665 367.921 99.8665ZM369.569 91.5379C371.826 91.5379 373.901 90.9887 375.792 89.8905C377.745 88.7312 379.27 87.2363 380.369 85.4058C381.528 83.5143 382.108 81.5008 382.108 79.3653C378.874 77.5958 375.426 76.7111 371.765 76.7111C368.41 76.7111 365.786 77.4433 363.894 78.9077C362.003 80.372 361.057 82.233 361.057 84.4906C361.057 86.5651 361.881 88.2736 363.528 89.6159C365.237 90.8972 367.25 91.5379 369.569 91.5379Z" fill="#5A5A5A"/>
<path d="M325.684 99.8661C322.389 99.8661 319.43 99.1644 316.806 97.7611C314.244 96.3577 312.322 94.5882 311.04 92.4527H310.491V98.4017H300.973V32.8711H311.04V52.5486L310.491 58.8637H311.04C312.322 56.7892 314.244 55.0502 316.806 53.6469C319.43 52.2435 322.389 51.5418 325.684 51.5418C329.589 51.5418 333.189 52.5791 336.484 54.6536C339.84 56.7281 342.494 59.6264 344.446 63.3483C346.46 67.0093 347.466 71.1278 347.466 75.704C347.466 80.2801 346.46 84.3987 344.446 88.0596C342.494 91.7205 339.84 94.6188 336.484 96.7543C333.189 98.8288 329.589 99.8661 325.684 99.8661ZM323.945 90.6222C326.325 90.6222 328.521 90.0121 330.535 88.7918C332.609 87.5715 334.257 85.8325 335.477 83.575C336.758 81.2564 337.399 78.6327 337.399 75.704C337.399 72.7752 336.758 70.1821 335.477 67.9245C334.257 65.6059 332.609 63.8364 330.535 62.6161C328.521 61.3958 326.325 60.7857 323.945 60.7857C321.565 60.7857 319.338 61.3958 317.264 62.6161C315.25 63.8364 313.603 65.5754 312.322 67.833C311.101 70.0905 310.491 72.7142 310.491 75.704C310.491 78.6937 311.101 81.3174 312.322 83.575C313.603 85.8325 315.25 87.5715 317.264 88.7918C319.338 90.0121 321.565 90.6222 323.945 90.6222Z" fill="#5A5A5A"/>
<path d="M273.192 99.8667C268.738 99.8667 264.711 98.8295 261.111 96.7549C257.572 94.6804 254.795 91.8127 252.782 88.1518C250.768 84.4298 249.762 80.2808 249.762 75.7046C249.762 71.3115 250.707 67.2845 252.599 63.6235C254.551 59.9016 257.267 56.9729 260.745 54.8373C264.222 52.6408 268.188 51.5425 272.643 51.5425C277.219 51.5425 281.185 52.5492 284.541 54.5627C287.957 56.5763 290.551 59.383 292.32 62.9829C294.089 66.5218 294.974 70.6098 294.974 75.247C294.974 75.7961 294.944 76.3453 294.883 76.8944C294.822 77.4436 294.791 77.7486 294.791 77.8096H259.829C260.134 81.9587 261.629 85.162 264.314 87.4196C266.999 89.6772 270.049 90.8059 273.466 90.8059C278.714 90.8059 282.741 88.3653 285.547 83.4841L294.15 87.6026C292.137 91.3246 289.33 94.3143 285.73 96.5719C282.191 98.7685 278.012 99.8667 273.192 99.8667ZM284.724 70.1217C284.602 68.6573 284.113 67.1624 283.259 65.6371C282.405 64.1117 281.063 62.8303 279.232 61.7931C277.463 60.6948 275.236 60.1457 272.551 60.1457C269.561 60.1457 266.968 61.0609 264.772 62.8914C262.636 64.7218 261.172 67.1319 260.378 70.1217H284.724Z" fill="#5A5A5A"/>
<path d="M221.822 53.0066H231.341V59.7794H231.89C232.866 57.4608 234.636 55.5388 237.198 54.0134C239.761 52.427 242.384 51.6338 245.069 51.6338C247.266 51.6338 249.066 51.9389 250.469 52.549V63.0742C248.395 62.0369 246.076 61.5183 243.513 61.5183C240.218 61.5183 237.442 62.7996 235.185 65.3623C232.988 67.8639 231.89 70.9452 231.89 74.6061V98.4021H221.822V53.0066Z" fill="#5A5A5A"/>
<path d="M207.452 45.3184C205.561 45.3184 203.944 44.6777 202.602 43.3964C201.32 42.0541 200.68 40.4371 200.68 38.5457C200.68 36.6542 201.32 35.0678 202.602 33.7865C203.944 32.4441 205.561 31.7729 207.452 31.7729C209.344 31.7729 210.93 32.4441 212.212 33.7865C213.554 35.0678 214.225 36.6542 214.225 38.5457C214.225 40.4371 213.554 42.0541 212.212 43.3964C210.93 44.6777 209.344 45.3184 207.452 45.3184ZM202.419 53.0063H212.486V98.4018H202.419V53.0063Z" fill="#5A5A5A"/>
<path d="M156.562 32.8713H196.375V42.6643H166.813V61.5181H193.446V71.2196H166.813V98.402H156.562V32.8713Z" fill="#5A5A5A"/>
<path d="M31.6581 118.567C36.7104 120.601 42.1915 121.807 47.9467 122.008C55.7355 122.28 63.1422 120.67 69.7635 117.611C61.8234 114.491 54.6322 109.929 48.4949 104.257C44.5166 110.627 38.6325 115.658 31.6581 118.567Z" fill="#FF9100"/>
<path d="M48.4923 104.259C34.4827 91.302 25.9838 72.5484 26.7021 51.979C26.7254 51.311 26.7607 50.6435 26.8019 49.9762C24.2928 49.3273 21.6734 48.9313 18.9777 48.8371C15.1191 48.7024 11.3823 49.181 7.85452 50.1744C4.11472 56.7255 1.85787 64.242 1.57672 72.2932C0.851127 93.0713 13.4253 111.227 31.6556 118.569C38.63 115.66 44.5139 110.635 48.4923 104.259Z" fill="#FFC400"/>
<path d="M48.4937 104.258C51.7509 99.0459 53.7258 92.9348 53.9557 86.3506C54.5605 69.0316 42.9175 54.133 26.8033 49.9757C26.762 50.643 26.7268 51.3105 26.7035 51.9785C25.9852 72.5479 34.484 91.3015 48.4937 104.258Z" fill="#FF9100"/>
<path d="M52.1543 1.29291C42.9766 8.64534 35.7294 18.3402 31.3447 29.5084C28.8344 35.9054 27.2569 42.7768 26.7964 49.9798C42.9106 54.1372 54.5536 69.0358 53.9488 86.3548C53.7189 92.939 51.7382 99.044 48.4868 104.263C54.6239 109.941 61.8153 114.497 69.7555 117.616C85.693 110.249 97.0006 94.3967 97.6554 75.6462C98.0796 63.4978 93.4121 52.6704 86.8167 43.5311C79.8515 33.8654 52.1543 1.29291 52.1543 1.29291Z" fill="#DD2C00"/>
<g filter="url(#filter0_d_47_996)">
<circle cx="100" cy="90.4678" r="30" fill="white"/>
<path fill-rule="evenodd" clip-rule="evenodd" d="M101.737 75.6734L105.244 79.2329C106.423 80.4299 105.945 80.8769 105.184 81.6494L101.758 85.1264C100.998 85.8989 101.113 86.8409 101.754 87.4904L104.082 89.8529C104.724 90.5039 105.649 90.6209 106.41 89.8484L109.836 86.3714C110.596 85.5989 111.576 85.6604 112.221 86.3114L115.699 89.8439C116.341 90.4964 116.404 91.4924 115.642 92.2649L104.403 103.672C103.091 105.013 101.294 105.768 99.4184 105.768C97.5427 105.768 95.746 105.013 94.4339 103.672L84.2939 93.3794C83.6489 92.7269 83.5934 91.7249 84.3539 90.9539L87.7544 87.5024C88.5149 86.7299 88.6739 86.0174 88.0319 85.3649L85.4654 82.7594C84.8219 82.1084 84.8144 81.0614 85.5749 80.2889L88.8779 76.9364C89.6384 76.1639 90.6359 76.2074 91.2779 76.8584L93.8459 79.4639C94.4879 80.1164 95.1659 79.9799 95.9264 79.2089L99.3524 75.7304C100.113 74.9579 101.095 75.0209 101.737 75.6734Z" fill="#1F1F1F"/>
</g>
<defs>
<filter id="filter0_d_47_996" x="68" y="59.1382" width="64" height="64" filterUnits="userSpaceOnUse" color-interpolation-filters="sRGB">
<feFlood flood-opacity="0" result="BackgroundImageFix"/>
<feColorMatrix in="SourceAlpha" type="matrix" values="0 0 0 0 0 0 0 0 0 0 0 0 0 0 0 0 0 0 127 0" result="hardAlpha"/>
<feOffset dy="0.670408"/>
<feGaussianBlur stdDeviation="1"/>
<feComposite in2="hardAlpha" operator="out"/>
<feColorMatrix type="matrix" values="0 0 0 0 0 0 0 0 0 0 0 0 0 0 0 0 0 0 0.3 0"/>
<feBlend mode="normal" in2="BackgroundImageFix" result="effect1_dropShadow_47_996"/>
<feBlend mode="normal" in="SourceGraphic" in2="effect1_dropShadow_47_996" result="shape"/>
</filter>
</defs>
</svg>
