<svg width="1174" height="128" viewBox="0 0 1174 128" fill="none" xmlns="http://www.w3.org/2000/svg">
<path d="M537.418 100.872C531.228 100.872 525.528 99.3707 520.319 96.3677C515.11 93.3648 510.973 89.228 507.909 83.9575C504.845 78.687 503.313 72.8649 503.313 66.4912C503.313 60.1176 504.845 54.2955 507.909 49.0249C510.973 43.7544 515.11 39.6177 520.319 36.6147C525.528 33.6117 531.228 32.1102 537.418 32.1102C542.259 32.1102 546.794 32.9682 551.023 34.6842C555.313 36.4002 558.837 38.8209 561.595 41.9465L555.987 47.5541C553.903 44.9801 551.238 43.019 547.989 41.6707C544.741 40.2611 541.248 39.5564 537.51 39.5564C532.852 39.5564 528.501 40.6901 524.456 42.9577C520.472 45.164 517.255 48.3201 514.804 52.4263C512.413 56.4711 511.218 61.1594 511.218 66.4912C511.218 71.823 512.413 76.542 514.804 80.6481C517.255 84.6929 520.503 87.8491 524.548 90.1167C528.593 92.3229 532.913 93.4261 537.51 93.4261C541.922 93.4261 545.599 92.7519 548.541 91.4036C551.544 89.9941 554.118 88.1555 556.263 85.888C557.856 84.172 559.143 82.1189 560.124 79.7288C561.104 77.2774 561.717 74.5809 561.962 71.6392H537.602V64.3769H569.225C569.531 66.0929 569.684 67.6863 569.684 69.1571C569.684 73.2019 569.041 77.1548 567.754 81.0158C566.467 84.8155 564.414 88.1555 561.595 91.0359C555.528 97.5935 547.469 100.872 537.418 100.872ZM599.064 100.872C594.468 100.872 590.331 99.7691 586.654 97.5628C582.977 95.3565 580.096 92.3536 578.012 88.5539C575.99 84.7542 574.979 80.5562 574.979 75.9598C574.979 71.3634 575.99 67.1653 578.012 63.3657C580.096 59.566 582.977 56.563 586.654 54.3567C590.331 52.1505 594.468 51.0473 599.064 51.0473C603.66 51.0473 607.797 52.1505 611.474 54.3567C615.151 56.563 618.001 59.566 620.023 63.3657C622.107 67.1653 623.149 71.3634 623.149 75.9598C623.149 80.5562 622.107 84.7542 620.023 88.5539C618.001 92.3536 615.151 95.3565 611.474 97.5628C607.797 99.7691 603.66 100.872 599.064 100.872ZM599.064 93.7938C601.944 93.7938 604.61 93.089 607.062 91.6794C609.574 90.2086 611.566 88.1249 613.037 85.4283C614.569 82.7318 615.335 79.5756 615.335 75.9598C615.335 72.3439 614.569 69.1878 613.037 66.4912C611.566 63.7947 609.574 61.7416 607.062 60.332C604.61 58.8612 601.944 58.1258 599.064 58.1258C596.184 58.1258 593.487 58.8612 590.974 60.332C588.462 61.7416 586.439 63.7947 584.907 66.4912C583.436 69.1878 582.701 72.3439 582.701 75.9598C582.701 79.5756 583.436 82.7318 584.907 85.4283C586.439 88.1249 588.462 90.2086 590.974 91.6794C593.487 93.089 596.184 93.7938 599.064 93.7938ZM651.987 100.872C647.391 100.872 643.254 99.7691 639.577 97.5628C635.9 95.3565 633.019 92.3536 630.936 88.5539C628.913 84.7542 627.902 80.5562 627.902 75.9598C627.902 71.3634 628.913 67.1653 630.936 63.3657C633.019 59.566 635.9 56.563 639.577 54.3567C643.254 52.1505 647.391 51.0473 651.987 51.0473C656.583 51.0473 660.72 52.1505 664.397 54.3567C668.074 56.563 670.924 59.566 672.947 63.3657C675.03 67.1653 676.072 71.3634 676.072 75.9598C676.072 80.5562 675.03 84.7542 672.947 88.5539C670.924 92.3536 668.074 95.3565 664.397 97.5628C660.72 99.7691 656.583 100.872 651.987 100.872ZM651.987 93.7938C654.867 93.7938 657.533 93.089 659.985 91.6794C662.497 90.2086 664.489 88.1249 665.96 85.4283C667.492 82.7318 668.258 79.5756 668.258 75.9598C668.258 72.3439 667.492 69.1878 665.96 66.4912C664.489 63.7947 662.497 61.7416 659.985 60.332C657.533 58.8612 654.867 58.1258 651.987 58.1258C649.107 58.1258 646.41 58.8612 643.897 60.332C641.385 61.7416 639.362 63.7947 637.83 66.4912C636.359 69.1878 635.624 72.3439 635.624 75.9598C635.624 79.5756 636.359 82.7318 637.83 85.4283C639.362 88.1249 641.385 90.2086 643.897 91.6794C646.41 93.089 649.107 93.7938 651.987 93.7938ZM703.899 120.729C698.383 120.729 693.818 119.442 690.202 116.868C686.647 114.294 684.257 111.199 683.031 107.583L690.11 104.549C691.152 107.246 692.868 109.421 695.258 111.076C697.709 112.792 700.59 113.65 703.899 113.65C708.741 113.65 712.479 112.241 715.114 109.421C717.811 106.602 719.159 102.619 719.159 97.4709V92.231H718.791C717.259 94.6211 715.084 96.5822 712.264 98.1144C709.507 99.5852 706.35 100.321 702.796 100.321C698.751 100.321 695.043 99.2788 691.673 97.1951C688.363 95.1114 685.728 92.2004 683.767 88.462C681.806 84.7236 680.825 80.4642 680.825 75.684C680.825 70.965 681.806 66.7364 683.767 62.998C685.728 59.1983 688.363 56.2566 691.673 54.1729C695.043 52.0892 698.751 51.0473 702.796 51.0473C706.35 51.0473 709.507 51.8134 712.264 53.3455C715.084 54.8164 717.259 56.7775 718.791 59.2289H719.159V52.5182H726.605V97.5628C726.605 105.101 724.521 110.831 720.354 114.753C716.187 118.737 710.702 120.729 703.899 120.729ZM703.899 93.2422C706.718 93.2422 709.261 92.5374 711.529 91.1279C713.858 89.7183 715.696 87.6959 717.045 85.0606C718.454 82.4254 719.159 79.2998 719.159 75.684C719.159 72.0069 718.454 68.8507 717.045 66.2154C715.696 63.5802 713.858 61.5884 711.529 60.2401C709.261 58.8306 706.718 58.1258 703.899 58.1258C701.08 58.1258 698.506 58.8306 696.177 60.2401C693.848 61.6497 691.979 63.6721 690.569 66.3074C689.221 68.9426 688.547 72.0682 688.547 75.684C688.547 79.2998 689.221 82.456 690.569 85.1526C691.979 87.7878 693.848 89.8102 696.177 91.2198C698.506 92.5681 701.08 93.2422 703.899 93.2422ZM736.32 33.5811H744.134V99.4014H736.32V33.5811ZM774.291 100.872C769.817 100.872 765.803 99.7997 762.249 97.6547C758.694 95.5098 755.906 92.5681 753.883 88.8297C751.922 85.03 750.942 80.7707 750.942 76.0517C750.942 71.5166 751.861 67.3492 753.699 63.5495C755.599 59.7498 758.265 56.7162 761.697 54.4487C765.129 52.1811 769.113 51.0473 773.648 51.0473C778.244 51.0473 782.228 52.0892 785.598 54.1729C788.969 56.1953 791.543 59.0144 793.32 62.6302C795.159 66.2461 796.078 70.3828 796.078 75.0405C796.078 75.9598 795.986 76.7565 795.802 77.4306H758.755C758.939 80.9852 759.797 83.9881 761.329 86.4395C762.862 88.891 764.792 90.7295 767.121 91.9552C769.511 93.1809 771.993 93.7938 774.567 93.7938C780.573 93.7938 785.2 90.9747 788.448 85.3364L795.067 88.5539C793.045 92.3536 790.287 95.3565 786.793 97.5628C783.361 99.7691 779.194 100.872 774.291 100.872ZM787.805 70.9957C787.682 69.0345 787.131 67.0734 786.15 65.1123C785.169 63.1512 783.607 61.4965 781.462 60.1482C779.378 58.7999 776.743 58.1258 773.556 58.1258C769.879 58.1258 766.753 59.3208 764.179 61.711C761.667 64.0398 760.012 67.1347 759.215 70.9957H787.805ZM840.629 33.5811H849.454L874.458 99.4014H865.909L859.29 81.2916H830.884L824.266 99.4014H815.716L840.629 33.5811ZM856.624 73.9374L847.891 50.22L845.225 43.1415H844.857L842.283 50.22L833.55 73.9374H856.624ZM879.785 52.5182H887.231V59.4128H887.599C888.886 57.0839 890.939 55.1228 893.758 53.5294C896.577 51.8747 899.58 51.0473 902.767 51.0473C908.405 51.0473 912.695 52.702 915.637 56.0114C918.64 59.2596 920.141 63.7027 920.141 69.341V99.4014H912.327V70.536C912.327 66.1848 911.285 63.0286 909.202 61.0675C907.118 59.1063 904.268 58.1258 900.653 58.1258C898.14 58.1258 895.872 58.8306 893.85 60.2401C891.889 61.6497 890.357 63.5189 889.253 65.8477C888.15 68.1153 887.599 70.5054 887.599 73.0181V99.4014H879.785V52.5182ZM944.012 100.872C940.58 100.872 937.515 100.198 934.819 98.8498C932.122 97.5015 930.039 95.663 928.568 93.3341C927.097 90.944 926.361 88.2475 926.361 85.2445C926.361 80.2804 928.231 76.4194 931.969 73.6616C935.707 70.8425 940.426 69.4329 946.126 69.4329C948.945 69.4329 951.55 69.7393 953.94 70.3522C956.391 70.965 958.26 71.6698 959.547 72.4665V69.6168C959.547 66.1235 958.322 63.335 955.87 61.2513C953.419 59.1063 950.324 58.0339 946.586 58.0339C943.95 58.0339 941.53 58.6161 939.323 59.7805C937.117 60.8836 935.37 62.4464 934.083 64.4688L928.2 60.0563C930.039 57.2371 932.551 55.0309 935.738 53.4375C938.986 51.844 942.571 51.0473 946.494 51.0473C952.867 51.0473 957.862 52.7327 961.478 56.1034C965.155 59.4128 966.994 63.9479 966.994 69.7087V99.4014H959.547V92.6906H959.18C957.831 94.9582 955.809 96.8887 953.112 98.4821C950.416 100.076 947.382 100.872 944.012 100.872ZM944.747 93.9776C947.382 93.9776 949.834 93.3035 952.101 91.9552C954.369 90.6069 956.177 88.799 957.525 86.5315C958.873 84.2639 959.547 81.7819 959.547 79.0853C958.077 78.1048 956.269 77.3081 954.124 76.6952C951.979 76.0823 949.711 75.7759 947.321 75.7759C943.031 75.7759 939.783 76.6646 937.577 78.4418C935.432 80.2191 934.359 82.5173 934.359 85.3364C934.359 87.9104 935.34 89.9941 937.301 91.5875C939.262 93.1809 941.744 93.9776 944.747 93.9776ZM976.025 33.5811H983.839V99.4014H976.025V33.5811ZM1007.92 96.4597L988.522 52.5182H996.979L1011.69 87.3588H1011.87L1026.03 52.5182H1034.49L1005.53 119.258H997.439L1007.92 96.4597ZM1057.16 100.137C1055.26 100.137 1053.48 99.8304 1051.83 99.2175C1050.23 98.6047 1048.88 97.7773 1047.78 96.7355C1046.56 95.571 1045.64 94.2228 1045.02 92.6906C1044.41 91.1585 1044.1 89.2893 1044.1 87.083V59.5966H1035.92V52.5182H1044.1V39.2806H1051.92V52.5182H1063.32V59.5966H1051.92V85.1526C1051.92 87.7265 1052.41 89.6264 1053.39 90.8521C1054.55 92.2004 1056.24 92.8745 1058.44 92.8745C1060.22 92.8745 1061.94 92.3536 1063.59 91.3117V98.9417C1062.67 99.3707 1061.72 99.6772 1060.74 99.861C1059.82 100.045 1058.63 100.137 1057.16 100.137ZM1076.01 43.877C1074.48 43.877 1073.16 43.3254 1072.06 42.2223C1070.96 41.1191 1070.4 39.8015 1070.4 38.2694C1070.4 36.7372 1070.96 35.4503 1072.06 34.4084C1073.16 33.3053 1074.48 32.7537 1076.01 32.7537C1077.54 32.7537 1078.86 33.3053 1079.96 34.4084C1081.07 35.4503 1081.62 36.7372 1081.62 38.2694C1081.62 39.8015 1081.07 41.1191 1079.96 42.2223C1078.92 43.3254 1077.6 43.877 1076.01 43.877ZM1072.15 52.5182H1079.87V99.4014H1072.15V52.5182ZM1111.1 100.872C1106.57 100.872 1102.49 99.7997 1098.87 97.6547C1095.26 95.4485 1092.44 92.4761 1090.42 88.7377C1088.39 84.9381 1087.38 80.6787 1087.38 75.9598C1087.38 71.2408 1088.39 66.9815 1090.42 63.1818C1092.44 59.3821 1095.26 56.4098 1098.87 54.2648C1102.49 52.1198 1106.57 51.0473 1111.1 51.0473C1116.19 51.0473 1120.45 52.2424 1123.88 54.6325C1127.37 56.9614 1129.85 60.0869 1131.32 64.0092L1124.25 66.9509C1123.08 64.0704 1121.34 61.8948 1119.01 60.424C1116.74 58.8918 1113.98 58.1258 1110.73 58.1258C1107.97 58.1258 1105.4 58.8918 1103.01 60.424C1100.62 61.8948 1098.69 63.9785 1097.22 66.6751C1095.81 69.3716 1095.1 72.4665 1095.1 75.9598C1095.1 79.453 1095.81 82.5479 1097.22 85.2445C1098.69 87.941 1100.62 90.0554 1103.01 91.5875C1105.4 93.0583 1107.97 93.7938 1110.73 93.7938C1114.04 93.7938 1116.89 93.0277 1119.28 91.4956C1121.67 89.9634 1123.45 87.7878 1124.61 84.9687L1131.6 87.9104C1130.01 91.7714 1127.43 94.8969 1123.88 97.287C1120.39 99.6772 1116.13 100.872 1111.1 100.872ZM1154.57 100.872C1149.55 100.872 1145.35 99.7078 1141.98 97.379C1138.61 94.9888 1136.22 91.9552 1134.81 88.2781L1141.79 85.1526C1142.96 87.9717 1144.68 90.1473 1146.94 91.6794C1149.27 93.2116 1151.82 93.9776 1154.57 93.9776C1157.51 93.9776 1160.03 93.3954 1162.11 92.231C1164.19 91.0053 1165.24 89.2893 1165.24 87.083C1165.24 85.1219 1164.41 83.5591 1162.75 82.3947C1161.1 81.169 1158.5 80.1272 1154.94 79.2692L1149.24 77.7983C1145.5 76.8791 1142.44 75.3163 1140.05 73.11C1137.66 70.9037 1136.46 68.054 1136.46 64.5607C1136.46 61.8642 1137.26 59.5047 1138.85 57.4823C1140.51 55.3986 1142.68 53.8052 1145.38 52.702C1148.08 51.5989 1150.99 51.0473 1154.11 51.0473C1158.22 51.0473 1161.87 51.936 1165.05 53.7132C1168.3 55.4905 1170.6 57.9726 1171.95 61.1594L1165.14 64.2849C1163.06 60.1176 1159.35 58.0339 1154.02 58.0339C1151.45 58.0339 1149.18 58.6467 1147.22 59.8724C1145.32 61.0368 1144.37 62.5383 1144.37 64.3769C1144.37 66.0929 1145.04 67.5024 1146.39 68.6056C1147.74 69.6474 1149.76 70.5054 1152.46 71.1795L1159.26 72.9262C1163.86 74.0906 1167.32 75.8372 1169.65 78.166C1171.98 80.4336 1173.14 83.2221 1173.14 86.5315C1173.14 89.4119 1172.31 91.9552 1170.66 94.1615C1169.01 96.3065 1166.77 97.9612 1163.95 99.1256C1161.13 100.29 1158 100.872 1154.57 100.872Z" fill="white"/>
<path d="M461.612 99.8663C457.157 99.8663 453.13 98.829 449.531 96.7545C445.992 94.6799 443.215 91.8122 441.202 88.1513C439.188 84.4293 438.182 80.2803 438.182 75.7041C438.182 71.311 439.127 67.284 441.019 63.6231C442.971 59.9011 445.687 56.9724 449.164 54.8368C452.642 52.6403 456.608 51.542 461.062 51.542C465.639 51.542 469.605 52.5487 472.96 54.5623C476.377 56.5758 478.97 59.3825 480.74 62.9824C482.509 66.5213 483.394 70.6093 483.394 75.2465C483.394 75.7956 483.364 76.3448 483.303 76.8939C483.242 77.4431 483.211 77.7481 483.211 77.8092H448.249C448.554 81.9582 450.049 85.1615 452.734 87.4191C455.419 89.6767 458.469 90.8055 461.886 90.8055C467.133 90.8055 471.161 88.3648 473.967 83.4836L482.57 87.6021C480.557 91.3241 477.75 94.3138 474.15 96.5714C470.611 98.768 466.432 99.8663 461.612 99.8663ZM473.144 70.1212C473.021 68.6568 472.533 67.162 471.679 65.6366C470.825 64.1112 469.483 62.8299 467.652 61.7926C465.883 60.6943 463.656 60.1452 460.971 60.1452C457.981 60.1452 455.388 61.0604 453.191 62.8909C451.056 64.7213 449.592 67.1314 448.798 70.1212H473.144Z" fill="white"/>
<path d="M416.087 99.8663C410.9 99.8663 406.599 98.6765 403.182 96.2968C399.826 93.8562 397.446 90.8055 396.043 87.1445L405.012 83.3006C406.05 85.8022 407.544 87.6937 409.497 88.975C411.51 90.2563 413.707 90.897 416.087 90.897C418.588 90.897 420.632 90.4394 422.219 89.5241C423.805 88.5479 424.598 87.2971 424.598 85.7717C424.598 84.3073 423.958 83.1175 422.676 82.2023C421.395 81.226 419.29 80.3718 416.361 79.6396L410.138 78.1752C406.721 77.382 403.761 75.9177 401.26 73.7821C398.819 71.5856 397.599 68.7484 397.599 65.2705C397.599 61.0604 399.338 57.7351 402.816 55.2944C406.294 52.7928 410.565 51.542 415.629 51.542C419.839 51.542 423.561 52.4267 426.795 54.1962C430.09 55.9656 432.469 58.5283 433.934 61.8841L425.056 65.6366C424.202 63.7451 422.89 62.3417 421.12 61.4265C419.351 60.5113 417.429 60.0537 415.354 60.0537C413.341 60.0537 411.571 60.5113 410.046 61.4265C408.521 62.2807 407.758 63.44 407.758 64.9044C407.758 66.1857 408.277 67.223 409.314 68.0162C410.412 68.8094 412.121 69.4805 414.439 70.0297L421.212 71.6771C425.788 72.8364 429.205 74.6058 431.462 76.9854C433.72 79.304 434.849 82.1107 434.849 85.4056C434.849 88.0903 434.025 90.5309 432.378 92.7274C430.791 94.924 428.564 96.6629 425.696 97.9443C422.89 99.2256 419.686 99.8663 416.087 99.8663Z" fill="white"/>
<path d="M367.921 99.8663C364.688 99.8663 361.759 99.2256 359.135 97.9443C356.573 96.6019 354.529 94.7715 353.003 92.4529C351.539 90.0733 350.807 87.3886 350.807 84.3988C350.807 79.6396 352.576 75.8872 356.115 73.1415C359.715 70.3958 364.261 69.0229 369.752 69.0229C374.572 69.0229 378.691 69.8466 382.108 71.4941V69.5721C382.108 66.8264 381.009 64.5688 378.813 62.7993C376.677 60.9689 374.084 60.0537 371.033 60.0537C366.396 60.0537 362.674 61.9451 359.867 65.7281L352.18 60.4197C354.315 57.552 356.969 55.3555 360.142 53.8301C363.376 52.3047 367.006 51.542 371.033 51.542C377.684 51.542 382.809 53.2199 386.409 56.5758C390.07 59.8706 391.901 64.5383 391.901 70.5788V98.4019H382.108V92.819H381.558C380.094 94.8935 378.233 96.6019 375.976 97.9443C373.718 99.2256 371.033 99.8663 367.921 99.8663ZM369.569 91.5376C371.826 91.5376 373.901 90.9885 375.792 89.8902C377.745 88.7309 379.27 87.236 380.369 85.4056C381.528 83.5141 382.108 81.5006 382.108 79.3651C378.874 77.5956 375.426 76.7109 371.765 76.7109C368.41 76.7109 365.786 77.4431 363.894 78.9074C362.003 80.3718 361.057 82.2328 361.057 84.4904C361.057 86.5649 361.881 88.2733 363.528 89.6157C365.237 90.897 367.25 91.5376 369.569 91.5376Z" fill="white"/>
<path d="M325.684 99.8661C322.389 99.8661 319.43 99.1644 316.806 97.7611C314.244 96.3577 312.322 94.5882 311.04 92.4527H310.491V98.4017H300.973V32.8711H311.04V52.5486L310.491 58.8637H311.04C312.322 56.7892 314.244 55.0502 316.806 53.6469C319.43 52.2435 322.389 51.5418 325.684 51.5418C329.589 51.5418 333.189 52.5791 336.484 54.6536C339.84 56.7281 342.494 59.6264 344.446 63.3483C346.46 67.0093 347.466 71.1278 347.466 75.704C347.466 80.2801 346.46 84.3987 344.446 88.0596C342.494 91.7205 339.84 94.6188 336.484 96.7543C333.189 98.8288 329.589 99.8661 325.684 99.8661ZM323.945 90.6222C326.325 90.6222 328.521 90.0121 330.535 88.7918C332.609 87.5715 334.257 85.8325 335.477 83.575C336.758 81.2564 337.399 78.6327 337.399 75.704C337.399 72.7752 336.758 70.1821 335.477 67.9245C334.257 65.6059 332.609 63.8364 330.535 62.6161C328.521 61.3958 326.325 60.7857 323.945 60.7857C321.565 60.7857 319.338 61.3958 317.264 62.6161C315.25 63.8364 313.603 65.5754 312.322 67.833C311.101 70.0905 310.491 72.7142 310.491 75.704C310.491 78.6937 311.101 81.3174 312.322 83.575C313.603 85.8325 315.25 87.5715 317.264 88.7918C319.338 90.0121 321.565 90.6222 323.945 90.6222Z" fill="white"/>
<path d="M273.192 99.8667C268.738 99.8667 264.711 98.8295 261.111 96.7549C257.572 94.6804 254.795 91.8127 252.782 88.1518C250.768 84.4298 249.762 80.2808 249.762 75.7046C249.762 71.3115 250.707 67.2845 252.599 63.6235C254.551 59.9016 257.267 56.9729 260.745 54.8373C264.222 52.6408 268.188 51.5425 272.643 51.5425C277.219 51.5425 281.185 52.5492 284.541 54.5627C287.957 56.5763 290.551 59.383 292.32 62.9829C294.089 66.5218 294.974 70.6098 294.974 75.247C294.974 75.7961 294.944 76.3453 294.883 76.8944C294.822 77.4436 294.791 77.7486 294.791 77.8096H259.829C260.134 81.9587 261.629 85.162 264.314 87.4196C266.999 89.6772 270.049 90.8059 273.466 90.8059C278.714 90.8059 282.741 88.3653 285.547 83.4841L294.15 87.6026C292.137 91.3246 289.33 94.3143 285.73 96.5719C282.191 98.7685 278.012 99.8667 273.192 99.8667ZM284.724 70.1217C284.602 68.6573 284.113 67.1624 283.259 65.6371C282.405 64.1117 281.063 62.8303 279.232 61.7931C277.463 60.6948 275.236 60.1457 272.551 60.1457C269.561 60.1457 266.968 61.0609 264.772 62.8914C262.636 64.7218 261.172 67.1319 260.378 70.1217H284.724Z" fill="white"/>
<path d="M221.822 53.0066H231.341V59.7794H231.89C232.866 57.4608 234.636 55.5388 237.198 54.0134C239.761 52.427 242.384 51.6338 245.069 51.6338C247.266 51.6338 249.066 51.9389 250.469 52.549V63.0742C248.395 62.0369 246.076 61.5183 243.513 61.5183C240.218 61.5183 237.442 62.7996 235.185 65.3623C232.988 67.8639 231.89 70.9452 231.89 74.6061V98.4022H221.822V53.0066Z" fill="white"/>
<path d="M207.452 45.3184C205.561 45.3184 203.944 44.6777 202.602 43.3964C201.32 42.0541 200.68 40.4371 200.68 38.5457C200.68 36.6542 201.32 35.0678 202.602 33.7865C203.944 32.4441 205.561 31.7729 207.452 31.7729C209.344 31.7729 210.93 32.4441 212.212 33.7865C213.554 35.0678 214.225 36.6542 214.225 38.5457C214.225 40.4371 213.554 42.0541 212.212 43.3964C210.93 44.6777 209.344 45.3184 207.452 45.3184ZM202.419 53.0063H212.486V98.4018H202.419V53.0063Z" fill="white"/>
<path d="M156.562 32.8711H196.375V42.6641H166.813V61.5179H193.446V71.2193H166.813V98.4017H156.562V32.8711Z" fill="white"/>
<path d="M31.6562 118.567C36.7084 120.601 42.1896 121.807 47.9447 122.008C55.7335 122.28 63.1403 120.67 69.7616 117.611C61.8214 114.492 54.6303 109.929 48.4929 104.257C44.5147 110.627 38.6305 115.658 31.6562 118.567Z" fill="#FF9100"/>
<path d="M48.4923 104.259C34.4827 91.302 25.9838 72.5484 26.7021 51.979C26.7254 51.311 26.7607 50.6435 26.8019 49.9762C24.2928 49.3273 21.6734 48.9313 18.9777 48.8371C15.1191 48.7024 11.3823 49.181 7.85452 50.1744C4.11472 56.7255 1.85787 64.242 1.57672 72.2932C0.851127 93.0713 13.4253 111.227 31.6556 118.569C38.63 115.66 44.5139 110.635 48.4923 104.259Z" fill="#FFC400"/>
<path d="M48.4937 104.258C51.7509 99.0459 53.7258 92.9348 53.9557 86.3506C54.5605 69.0316 42.9175 54.133 26.8033 49.9757C26.762 50.643 26.7268 51.3105 26.7035 51.9785C25.9852 72.5479 34.484 91.3015 48.4937 104.258Z" fill="#FF9100"/>
<path d="M52.1543 1.29291C42.9766 8.64534 35.7294 18.3402 31.3447 29.5084C28.8344 35.9054 27.2569 42.7768 26.7964 49.9798C42.9106 54.1372 54.5536 69.0358 53.9488 86.3548C53.7189 92.939 51.7382 99.044 48.4868 104.263C54.6239 109.941 61.8153 114.497 69.7555 117.616C85.693 110.249 97.0006 94.3967 97.6554 75.6462C98.0796 63.4978 93.4121 52.6704 86.8167 43.5311C79.8515 33.8654 52.1543 1.29291 52.1543 1.29291Z" fill="#DD2C00"/>
<g filter="url(#filter0_d_47_1378)">
<circle cx="100" cy="90" r="30" fill="white"/>
<path fill-rule="evenodd" clip-rule="evenodd" d="M90.25 105C89.2554 105 88.3016 104.605 87.5983 103.902C86.8951 103.198 86.5 102.245 86.5 101.25C86.5 100.255 86.8951 99.3016 87.5983 98.5984C88.3016 97.8951 89.2554 97.5 90.25 97.5C91.2446 97.5 92.1984 97.8951 92.9017 98.5984C93.6049 99.3016 94 100.255 94 101.25C94 102.245 93.6049 103.198 92.9017 103.902C92.1984 104.605 91.2446 105 90.25 105ZM100 87C100.995 87 101.948 87.3951 102.652 88.0983C103.355 88.8016 103.75 89.7554 103.75 90.75V101.25C103.75 102.245 103.355 103.198 102.652 103.902C101.948 104.605 100.995 105 100 105C99.0054 105 98.0516 104.605 97.3483 103.902C96.6451 103.198 96.25 102.245 96.25 101.25V90.75C96.25 89.7554 96.6451 88.8016 97.3483 88.0983C98.0516 87.3951 99.0054 87 100 87ZM109.75 75C110.745 75 111.698 75.3951 112.402 76.0983C113.105 76.8016 113.5 77.7554 113.5 78.75V101.25C113.5 102.245 113.105 103.198 112.402 103.902C111.698 104.605 110.745 105 109.75 105C108.755 105 107.802 104.605 107.098 103.902C106.395 103.198 106 102.245 106 101.25V78.75C106 77.7554 106.395 76.8016 107.098 76.0983C107.802 75.3951 108.755 75 109.75 75Z" fill="#1F1F1F"/>
</g>
<defs>
<filter id="filter0_d_47_1378" x="68" y="58.6704" width="64" height="64" filterUnits="userSpaceOnUse" color-interpolation-filters="sRGB">
<feFlood flood-opacity="0" result="BackgroundImageFix"/>
<feColorMatrix in="SourceAlpha" type="matrix" values="0 0 0 0 0 0 0 0 0 0 0 0 0 0 0 0 0 0 127 0" result="hardAlpha"/>
<feOffset dy="0.670408"/>
<feGaussianBlur stdDeviation="1"/>
<feComposite in2="hardAlpha" operator="out"/>
<feColorMatrix type="matrix" values="0 0 0 0 0 0 0 0 0 0 0 0 0 0 0 0 0 0 0.3 0"/>
<feBlend mode="normal" in2="BackgroundImageFix" result="effect1_dropShadow_47_1378"/>
<feBlend mode="normal" in="SourceGraphic" in2="effect1_dropShadow_47_1378" result="shape"/>
</filter>
</defs>
</svg>
