<svg width="1049" height="128" viewBox="0 0 1049 128" fill="none" xmlns="http://www.w3.org/2000/svg">
<path d="M506.53 33.5811H526.386C533.128 33.5811 539.011 34.9906 544.037 37.8097C549.062 40.5676 552.923 44.4285 555.619 49.3926C558.316 54.3567 559.664 60.0563 559.664 66.4912C559.664 72.9262 558.316 78.6257 555.619 83.5898C552.923 88.5539 549.062 92.4455 544.037 95.2646C539.011 98.0225 533.128 99.4014 526.386 99.4014H506.53V33.5811ZM526.386 91.9552C534.17 91.9552 540.329 89.7183 544.864 85.2445C549.46 80.7707 551.758 74.5196 551.758 66.4912C551.758 58.4629 549.46 52.2118 544.864 47.7379C540.329 43.2641 534.17 41.0272 526.386 41.0272H514.252V91.9552H526.386ZM582.75 100.872C579.318 100.872 576.253 100.198 573.557 98.8498C570.86 97.5015 568.777 95.663 567.306 93.3341C565.835 90.944 565.1 88.2475 565.1 85.2445C565.1 80.2804 566.969 76.4194 570.707 73.6616C574.445 70.8425 579.164 69.4329 584.864 69.4329C587.683 69.4329 590.288 69.7393 592.678 70.3522C595.129 70.965 596.998 71.6698 598.285 72.4665V69.6168C598.285 66.1235 597.06 63.335 594.608 61.2513C592.157 59.1063 589.062 58.0339 585.324 58.0339C582.688 58.0339 580.268 58.6161 578.061 59.7805C575.855 60.8836 574.108 62.4464 572.821 64.4688L566.938 60.0563C568.777 57.2371 571.289 55.0309 574.476 53.4375C577.724 51.844 581.309 51.0473 585.232 51.0473C591.605 51.0473 596.6 52.7327 600.216 56.1034C603.893 59.4128 605.732 63.9479 605.732 69.7087V99.4014H598.285V92.6906H597.918C596.569 94.9582 594.547 96.8887 591.85 98.4821C589.154 100.076 586.12 100.872 582.75 100.872ZM583.485 93.9776C586.12 93.9776 588.572 93.3035 590.839 91.9552C593.107 90.6069 594.915 88.799 596.263 86.5315C597.611 84.2639 598.285 81.7819 598.285 79.0853C596.815 78.1048 595.007 77.3081 592.862 76.6952C590.717 76.0823 588.449 75.7759 586.059 75.7759C581.769 75.7759 578.521 76.6646 576.315 78.4418C574.17 80.2191 573.097 82.5173 573.097 85.3364C573.097 87.9104 574.078 89.9941 576.039 91.5875C578 93.1809 580.482 93.9776 583.485 93.9776ZM631.884 100.137C629.984 100.137 628.207 99.8304 626.552 99.2175C624.958 98.6047 623.61 97.7773 622.507 96.7355C621.281 95.571 620.362 94.2228 619.749 92.6906C619.136 91.1585 618.83 89.2893 618.83 87.083V59.5966H610.648V52.5182H618.83V39.2806H626.644V52.5182H638.043V59.5966H626.644V85.1526C626.644 87.7265 627.134 89.6264 628.115 90.8521C629.279 92.2004 630.964 92.8745 633.171 92.8745C634.948 92.8745 636.664 92.3536 638.319 91.3117V98.9417C637.399 99.3707 636.449 99.6772 635.469 99.861C634.55 100.045 633.354 100.137 631.884 100.137ZM659.779 100.872C656.347 100.872 653.282 100.198 650.586 98.8498C647.889 97.5015 645.806 95.663 644.335 93.3341C642.864 90.944 642.129 88.2475 642.129 85.2445C642.129 80.2804 643.998 76.4194 647.736 73.6616C651.475 70.8425 656.193 69.4329 661.893 69.4329C664.712 69.4329 667.317 69.7393 669.707 70.3522C672.158 70.965 674.027 71.6698 675.314 72.4665V69.6168C675.314 66.1235 674.089 63.335 671.637 61.2513C669.186 59.1063 666.091 58.0339 662.353 58.0339C659.717 58.0339 657.297 58.6161 655.09 59.7805C652.884 60.8836 651.137 62.4464 649.85 64.4688L643.967 60.0563C645.806 57.2371 648.318 55.0309 651.505 53.4375C654.753 51.844 658.338 51.0473 662.261 51.0473C668.634 51.0473 673.629 52.7327 677.245 56.1034C680.922 59.4128 682.761 63.9479 682.761 69.7087V99.4014H675.314V92.6906H674.947C673.598 94.9582 671.576 96.8887 668.88 98.4821C666.183 100.076 663.149 100.872 659.779 100.872ZM660.514 93.9776C663.149 93.9776 665.601 93.3035 667.868 91.9552C670.136 90.6069 671.944 88.799 673.292 86.5315C674.64 84.2639 675.314 81.7819 675.314 79.0853C673.844 78.1048 672.036 77.3081 669.891 76.6952C667.746 76.0823 665.478 75.7759 663.088 75.7759C658.798 75.7759 655.55 76.6646 653.344 78.4418C651.199 80.2191 650.126 82.5173 650.126 85.3364C650.126 87.9104 651.107 89.9941 653.068 91.5875C655.029 93.1809 657.511 93.9776 660.514 93.9776ZM741.975 100.872C735.601 100.872 729.81 99.3707 724.601 96.3677C719.391 93.3648 715.285 89.2587 712.282 84.0494C709.341 78.7789 707.87 72.9262 707.87 66.4912C707.87 60.0563 709.341 54.2342 712.282 49.0249C715.285 43.7544 719.391 39.6177 724.601 36.6147C729.81 33.6117 735.601 32.1102 741.975 32.1102C746.878 32.1102 751.352 33.0601 755.397 34.96C759.503 36.7985 763.057 39.4338 766.06 42.8658L760.453 48.2895C757.94 45.2865 755.182 43.0803 752.179 41.6707C749.237 40.2611 745.836 39.5564 741.975 39.5564C737.195 39.5564 732.813 40.6901 728.829 42.9577C724.846 45.164 721.659 48.3201 719.269 52.4263C716.94 56.4711 715.776 61.1594 715.776 66.4912C715.776 71.823 716.94 76.542 719.269 80.6481C721.659 84.6929 724.846 87.8491 728.829 90.1167C732.813 92.3229 737.195 93.4261 741.975 93.4261C749.942 93.4261 756.714 90.1473 762.291 83.5898L767.991 89.1055C764.926 92.7213 761.157 95.6017 756.684 97.7467C752.21 99.8304 747.307 100.872 741.975 100.872ZM795.631 100.872C791.035 100.872 786.898 99.7691 783.221 97.5628C779.544 95.3565 776.664 92.3536 774.58 88.5539C772.558 84.7542 771.546 80.5562 771.546 75.9598C771.546 71.3634 772.558 67.1653 774.58 63.3657C776.664 59.566 779.544 56.563 783.221 54.3567C786.898 52.1505 791.035 51.0473 795.631 51.0473C800.228 51.0473 804.365 52.1505 808.042 54.3567C811.719 56.563 814.569 59.566 816.591 63.3657C818.675 67.1653 819.717 71.3634 819.717 75.9598C819.717 80.5562 818.675 84.7542 816.591 88.5539C814.569 92.3536 811.719 95.3565 808.042 97.5628C804.365 99.7691 800.228 100.872 795.631 100.872ZM795.631 93.7938C798.512 93.7938 801.178 93.089 803.629 91.6794C806.142 90.2086 808.134 88.1249 809.604 85.4283C811.137 82.7318 811.903 79.5756 811.903 75.9598C811.903 72.3439 811.137 69.1878 809.604 66.4912C808.134 63.7947 806.142 61.7416 803.629 60.332C801.178 58.8612 798.512 58.1258 795.631 58.1258C792.751 58.1258 790.055 58.8612 787.542 60.332C785.029 61.7416 783.007 63.7947 781.475 66.4912C780.004 69.1878 779.268 72.3439 779.268 75.9598C779.268 79.5756 780.004 82.7318 781.475 85.4283C783.007 88.1249 785.029 90.2086 787.542 91.6794C790.055 93.089 792.751 93.7938 795.631 93.7938ZM826.054 52.5182H833.5V59.4128H833.868C835.155 57.0839 837.208 55.1228 840.027 53.5294C842.846 51.8747 845.849 51.0473 849.036 51.0473C854.674 51.0473 858.964 52.702 861.906 56.0114C864.909 59.2596 866.41 63.7027 866.41 69.341V99.4014H858.596V70.536C858.596 66.1848 857.554 63.0286 855.471 61.0675C853.387 59.1063 850.537 58.1258 846.921 58.1258C844.409 58.1258 842.141 58.8306 840.119 60.2401C838.158 61.6497 836.626 63.5189 835.522 65.8477C834.419 68.1153 833.868 70.5054 833.868 73.0181V99.4014H826.054V52.5182ZM875.745 52.5182H883.191V59.4128H883.559C884.846 57.0839 886.899 55.1228 889.718 53.5294C892.537 51.8747 895.54 51.0473 898.727 51.0473C904.365 51.0473 908.655 52.702 911.597 56.0114C914.6 59.2596 916.101 63.7027 916.101 69.341V99.4014H908.288V70.536C908.288 66.1848 907.246 63.0286 905.162 61.0675C903.078 59.1063 900.229 58.1258 896.613 58.1258C894.1 58.1258 891.832 58.8306 889.81 60.2401C887.849 61.6497 886.317 63.5189 885.214 65.8477C884.111 68.1153 883.559 70.5054 883.559 73.0181V99.4014H875.745V52.5182ZM946.304 100.872C941.83 100.872 937.816 99.7997 934.261 97.6547C930.707 95.5098 927.918 92.5681 925.896 88.8297C923.935 85.03 922.954 80.7707 922.954 76.0517C922.954 71.5166 923.874 67.3492 925.712 63.5495C927.612 59.7498 930.278 56.7162 933.71 54.4487C937.142 52.1811 941.125 51.0473 945.66 51.0473C950.257 51.0473 954.24 52.0892 957.611 54.1729C960.982 56.1953 963.556 59.0144 965.333 62.6302C967.172 66.2461 968.091 70.3828 968.091 75.0405C968.091 75.9598 967.999 76.7565 967.815 77.4306H930.768C930.952 80.9852 931.81 83.9881 933.342 86.4395C934.874 88.891 936.805 90.7295 939.134 91.9552C941.524 93.1809 944.006 93.7938 946.58 93.7938C952.586 93.7938 957.213 90.9747 960.461 85.3364L967.08 88.5539C965.057 92.3536 962.299 95.3565 958.806 97.5628C955.374 99.7691 951.207 100.872 946.304 100.872ZM959.817 70.9957C959.695 69.0345 959.143 67.0734 958.163 65.1123C957.182 63.1512 955.619 61.4965 953.474 60.1482C951.391 58.7999 948.755 58.1258 945.569 58.1258C941.891 58.1258 938.766 59.3208 936.192 61.711C933.679 64.0398 932.025 67.1347 931.228 70.9957H959.817ZM997.081 100.872C992.546 100.872 988.471 99.7997 984.855 97.6547C981.239 95.4485 978.42 92.4761 976.397 88.7377C974.375 84.9381 973.364 80.6787 973.364 75.9598C973.364 71.2408 974.375 66.9815 976.397 63.1818C978.42 59.3821 981.239 56.4098 984.855 54.2648C988.471 52.1198 992.546 51.0473 997.081 51.0473C1002.17 51.0473 1006.43 52.2424 1009.86 54.6325C1013.35 56.9614 1015.83 60.0869 1017.31 64.0092L1010.23 66.9509C1009.06 64.0704 1007.32 61.8948 1004.99 60.424C1002.72 58.8918 999.962 58.1258 996.713 58.1258C993.956 58.1258 991.382 58.8918 988.992 60.424C986.601 61.8948 984.671 63.9785 983.2 66.6751C981.791 69.3716 981.086 72.4665 981.086 75.9598C981.086 79.453 981.791 82.5479 983.2 85.2445C984.671 87.941 986.601 90.0554 988.992 91.5875C991.382 93.0583 993.956 93.7938 996.713 93.7938C1000.02 93.7938 1002.87 93.0277 1005.26 91.4956C1007.65 89.9634 1009.43 87.7878 1010.59 84.9687L1017.58 87.9104C1015.99 91.7714 1013.41 94.8969 1009.86 97.287C1006.37 99.6772 1002.11 100.872 997.081 100.872ZM1041.76 100.137C1039.86 100.137 1038.08 99.8304 1036.43 99.2175C1034.83 98.6047 1033.49 97.7773 1032.38 96.7355C1031.16 95.571 1030.24 94.2228 1029.63 92.6906C1029.01 91.1585 1028.71 89.2893 1028.71 87.083V59.5966H1020.52V52.5182H1028.71V39.2806H1036.52V52.5182H1047.92V59.5966H1036.52V85.1526C1036.52 87.7265 1037.01 89.6264 1037.99 90.8521C1039.15 92.2004 1040.84 92.8745 1043.05 92.8745C1044.82 92.8745 1046.54 92.3536 1048.19 91.3117V98.9417C1047.28 99.3707 1046.33 99.6772 1045.34 99.861C1044.43 100.045 1043.23 100.137 1041.76 100.137Z" fill="white"/>
<path d="M461.612 99.8663C457.157 99.8663 453.13 98.829 449.531 96.7545C445.992 94.6799 443.215 91.8122 441.202 88.1513C439.188 84.4293 438.182 80.2803 438.182 75.7041C438.182 71.311 439.127 67.284 441.019 63.6231C442.971 59.9011 445.687 56.9724 449.164 54.8368C452.642 52.6403 456.608 51.542 461.062 51.542C465.639 51.542 469.605 52.5487 472.96 54.5623C476.377 56.5758 478.97 59.3825 480.74 62.9824C482.509 66.5213 483.394 70.6093 483.394 75.2465C483.394 75.7956 483.364 76.3448 483.303 76.8939C483.242 77.4431 483.211 77.7481 483.211 77.8092H448.249C448.554 81.9582 450.049 85.1615 452.734 87.4191C455.419 89.6767 458.469 90.8055 461.886 90.8055C467.133 90.8055 471.161 88.3648 473.967 83.4836L482.57 87.6021C480.557 91.3241 477.75 94.3138 474.15 96.5714C470.611 98.768 466.432 99.8663 461.612 99.8663ZM473.144 70.1212C473.021 68.6568 472.533 67.162 471.679 65.6366C470.825 64.1112 469.483 62.8299 467.652 61.7926C465.883 60.6943 463.656 60.1452 460.971 60.1452C457.981 60.1452 455.388 61.0604 453.191 62.8909C451.056 64.7213 449.592 67.1314 448.798 70.1212H473.144Z" fill="white"/>
<path d="M416.087 99.8663C410.9 99.8663 406.599 98.6765 403.182 96.2968C399.826 93.8562 397.446 90.8055 396.043 87.1445L405.012 83.3006C406.05 85.8022 407.544 87.6937 409.497 88.975C411.51 90.2563 413.707 90.897 416.087 90.897C418.588 90.897 420.632 90.4394 422.219 89.5241C423.805 88.5479 424.598 87.2971 424.598 85.7717C424.598 84.3073 423.958 83.1175 422.676 82.2023C421.395 81.226 419.29 80.3718 416.361 79.6396L410.138 78.1752C406.721 77.382 403.761 75.9177 401.26 73.7821C398.819 71.5856 397.599 68.7484 397.599 65.2705C397.599 61.0604 399.338 57.7351 402.816 55.2944C406.294 52.7928 410.565 51.542 415.629 51.542C419.839 51.542 423.561 52.4267 426.795 54.1962C430.09 55.9656 432.469 58.5283 433.934 61.8841L425.056 65.6366C424.202 63.7451 422.89 62.3417 421.12 61.4265C419.351 60.5113 417.429 60.0537 415.354 60.0537C413.341 60.0537 411.571 60.5113 410.046 61.4265C408.521 62.2807 407.758 63.44 407.758 64.9044C407.758 66.1857 408.277 67.223 409.314 68.0162C410.412 68.8094 412.121 69.4805 414.439 70.0297L421.212 71.6771C425.788 72.8364 429.205 74.6058 431.462 76.9854C433.72 79.304 434.849 82.1107 434.849 85.4056C434.849 88.0903 434.025 90.5309 432.378 92.7274C430.791 94.924 428.564 96.6629 425.696 97.9443C422.89 99.2256 419.686 99.8663 416.087 99.8663Z" fill="white"/>
<path d="M367.921 99.8663C364.688 99.8663 361.759 99.2256 359.135 97.9443C356.573 96.6019 354.529 94.7715 353.003 92.4529C351.539 90.0733 350.807 87.3886 350.807 84.3988C350.807 79.6396 352.576 75.8872 356.115 73.1415C359.715 70.3958 364.261 69.0229 369.752 69.0229C374.572 69.0229 378.691 69.8466 382.108 71.4941V69.5721C382.108 66.8264 381.009 64.5688 378.813 62.7993C376.677 60.9689 374.084 60.0537 371.033 60.0537C366.396 60.0537 362.674 61.9451 359.867 65.7281L352.18 60.4197C354.315 57.552 356.969 55.3555 360.142 53.8301C363.376 52.3047 367.006 51.542 371.033 51.542C377.684 51.542 382.809 53.2199 386.409 56.5758C390.07 59.8706 391.901 64.5383 391.901 70.5788V98.4019H382.108V92.819H381.558C380.094 94.8935 378.233 96.6019 375.976 97.9443C373.718 99.2256 371.033 99.8663 367.921 99.8663ZM369.569 91.5376C371.826 91.5376 373.901 90.9885 375.792 89.8902C377.745 88.7309 379.27 87.236 380.369 85.4056C381.528 83.5141 382.108 81.5006 382.108 79.3651C378.874 77.5956 375.426 76.7109 371.765 76.7109C368.41 76.7109 365.786 77.4431 363.894 78.9074C362.003 80.3718 361.057 82.2328 361.057 84.4904C361.057 86.5649 361.881 88.2733 363.528 89.6157C365.237 90.897 367.25 91.5376 369.569 91.5376Z" fill="white"/>
<path d="M325.684 99.8661C322.389 99.8661 319.43 99.1644 316.806 97.7611C314.244 96.3577 312.322 94.5882 311.04 92.4527H310.491V98.4017H300.973V32.8711H311.04V52.5486L310.491 58.8637H311.04C312.322 56.7892 314.244 55.0502 316.806 53.6469C319.43 52.2435 322.389 51.5418 325.684 51.5418C329.589 51.5418 333.189 52.5791 336.484 54.6536C339.84 56.7281 342.494 59.6264 344.446 63.3483C346.46 67.0093 347.466 71.1278 347.466 75.704C347.466 80.2801 346.46 84.3987 344.446 88.0596C342.494 91.7205 339.84 94.6188 336.484 96.7543C333.189 98.8288 329.589 99.8661 325.684 99.8661ZM323.945 90.6222C326.325 90.6222 328.521 90.0121 330.535 88.7918C332.609 87.5715 334.257 85.8325 335.477 83.575C336.758 81.2564 337.399 78.6327 337.399 75.704C337.399 72.7752 336.758 70.1821 335.477 67.9245C334.257 65.6059 332.609 63.8364 330.535 62.6161C328.521 61.3958 326.325 60.7857 323.945 60.7857C321.565 60.7857 319.338 61.3958 317.264 62.6161C315.25 63.8364 313.603 65.5754 312.322 67.833C311.101 70.0905 310.491 72.7142 310.491 75.704C310.491 78.6937 311.101 81.3174 312.322 83.575C313.603 85.8325 315.25 87.5715 317.264 88.7918C319.338 90.0121 321.565 90.6222 323.945 90.6222Z" fill="white"/>
<path d="M273.192 99.8667C268.738 99.8667 264.711 98.8295 261.111 96.7549C257.572 94.6804 254.795 91.8127 252.782 88.1518C250.768 84.4298 249.762 80.2808 249.762 75.7046C249.762 71.3115 250.707 67.2845 252.599 63.6235C254.551 59.9016 257.267 56.9729 260.745 54.8373C264.222 52.6408 268.188 51.5425 272.643 51.5425C277.219 51.5425 281.185 52.5492 284.541 54.5627C287.957 56.5763 290.551 59.383 292.32 62.9829C294.089 66.5218 294.974 70.6098 294.974 75.247C294.974 75.7961 294.944 76.3453 294.883 76.8944C294.822 77.4436 294.791 77.7486 294.791 77.8096H259.829C260.134 81.9587 261.629 85.162 264.314 87.4196C266.999 89.6772 270.049 90.8059 273.466 90.8059C278.714 90.8059 282.741 88.3653 285.547 83.4841L294.15 87.6026C292.137 91.3246 289.33 94.3143 285.73 96.5719C282.191 98.7685 278.012 99.8667 273.192 99.8667ZM284.724 70.1217C284.602 68.6573 284.113 67.1624 283.259 65.6371C282.405 64.1117 281.063 62.8303 279.232 61.7931C277.463 60.6948 275.236 60.1457 272.551 60.1457C269.561 60.1457 266.968 61.0609 264.772 62.8914C262.636 64.7218 261.172 67.1319 260.378 70.1217H284.724Z" fill="white"/>
<path d="M221.822 53.0066H231.341V59.7794H231.89C232.866 57.4608 234.636 55.5388 237.198 54.0134C239.761 52.427 242.384 51.6338 245.069 51.6338C247.266 51.6338 249.066 51.9389 250.469 52.549V63.0742C248.395 62.0369 246.076 61.5183 243.513 61.5183C240.218 61.5183 237.442 62.7996 235.185 65.3623C232.988 67.8639 231.89 70.9452 231.89 74.6061V98.4022H221.822V53.0066Z" fill="white"/>
<path d="M207.452 45.3184C205.561 45.3184 203.944 44.6777 202.602 43.3964C201.32 42.0541 200.68 40.4371 200.68 38.5457C200.68 36.6542 201.32 35.0678 202.602 33.7865C203.944 32.4441 205.561 31.7729 207.452 31.7729C209.344 31.7729 210.93 32.4441 212.212 33.7865C213.554 35.0678 214.225 36.6542 214.225 38.5457C214.225 40.4371 213.554 42.0541 212.212 43.3964C210.93 44.6777 209.344 45.3184 207.452 45.3184ZM202.419 53.0063H212.486V98.4018H202.419V53.0063Z" fill="white"/>
<path d="M156.562 32.8711H196.375V42.6641H166.813V61.5179H193.446V71.2193H166.813V98.4017H156.562V32.8711Z" fill="white"/>
<path d="M31.6581 118.567C36.7104 120.601 42.1915 121.807 47.9467 122.008C55.7355 122.28 63.1422 120.67 69.7635 117.611C61.8234 114.492 54.6322 109.929 48.4949 104.257C44.5166 110.627 38.6325 115.658 31.6581 118.567Z" fill="#FF9100"/>
<path d="M48.4923 104.259C34.4827 91.302 25.9838 72.5484 26.7021 51.979C26.7254 51.311 26.7607 50.6435 26.8019 49.9762C24.2928 49.3273 21.6734 48.9313 18.9777 48.8371C15.1191 48.7024 11.3823 49.181 7.85452 50.1744C4.11472 56.7255 1.85787 64.242 1.57672 72.2932C0.851127 93.0713 13.4253 111.227 31.6556 118.569C38.63 115.66 44.5139 110.635 48.4923 104.259Z" fill="#FFC400"/>
<path d="M48.4937 104.258C51.7509 99.0459 53.7258 92.9348 53.9557 86.3506C54.5605 69.0316 42.9175 54.133 26.8033 49.9757C26.762 50.643 26.7268 51.3105 26.7035 51.9785C25.9852 72.5479 34.484 91.3015 48.4937 104.258Z" fill="#FF9100"/>
<path d="M52.1543 1.29291C42.9766 8.64534 35.7294 18.3402 31.3447 29.5084C28.8344 35.9054 27.2569 42.7768 26.7964 49.9798C42.9106 54.1372 54.5536 69.0358 53.9488 86.3548C53.7189 92.939 51.7382 99.044 48.4868 104.263C54.6239 109.941 61.8153 114.497 69.7555 117.616C85.693 110.249 97.0006 94.3967 97.6554 75.6462C98.0796 63.4978 93.4121 52.6704 86.8167 43.5311C79.8515 33.8654 52.1543 1.29291 52.1543 1.29291Z" fill="#DD2C00"/>
<g filter="url(#filter0_d_47_1216)">
<circle cx="100" cy="90.4678" r="30" fill="white"/>
<path fill-rule="evenodd" clip-rule="evenodd" d="M100.346 100.392L93.2043 93.2502C94.4262 91.0995 94.1202 88.3162 92.2863 86.4822C90.0851 84.281 86.5162 84.281 84.315 86.4822C82.1138 88.6835 82.1138 92.2523 84.315 94.4536C86.1489 96.2875 88.9322 96.5935 91.083 95.3715L98.2246 102.513C100.364 104.652 103.164 104.668 104.984 103.175C106.814 101.673 107.291 98.9448 105.52 96.5063L96.8401 82.8526L96.8089 82.8104C95.905 81.5867 96.28 80.6187 96.8639 80.137C97.4644 79.6416 98.5553 79.4438 99.6553 80.5439L104.79 85.6786C105.376 86.2644 106.326 86.2644 106.911 85.6786C107.497 85.0928 107.497 84.143 106.911 83.5573L101.777 78.4226C99.6119 76.2579 96.7786 76.3183 94.9549 77.8228C93.1256 79.3318 92.5718 82.081 94.363 84.5479L103.043 98.2017L103.074 98.2439C103.999 99.4961 103.605 100.426 103.081 100.856C102.536 101.302 101.472 101.518 100.346 100.392ZM86.4363 92.3322C87.4659 93.3619 89.1353 93.3619 90.165 92.3322C91.1946 91.3026 91.1946 89.6332 90.165 88.6036C89.1353 87.5739 87.4659 87.5739 86.4363 88.6036C85.4067 89.6332 85.4067 91.3026 86.4363 92.3322Z" fill="#1F1F1F"/>
<path d="M107.801 86.5679C105.647 88.7218 105.647 92.214 107.801 94.3679C109.955 96.5218 113.447 96.5218 115.601 94.3679C117.755 92.214 117.755 88.7218 115.601 86.5679C113.447 84.414 109.955 84.414 107.801 86.5679Z" fill="#1F1F1F"/>
</g>
<defs>
<filter id="filter0_d_47_1216" x="68" y="59.1382" width="64" height="64" filterUnits="userSpaceOnUse" color-interpolation-filters="sRGB">
<feFlood flood-opacity="0" result="BackgroundImageFix"/>
<feColorMatrix in="SourceAlpha" type="matrix" values="0 0 0 0 0 0 0 0 0 0 0 0 0 0 0 0 0 0 127 0" result="hardAlpha"/>
<feOffset dy="0.670408"/>
<feGaussianBlur stdDeviation="1"/>
<feComposite in2="hardAlpha" operator="out"/>
<feColorMatrix type="matrix" values="0 0 0 0 0 0 0 0 0 0 0 0 0 0 0 0 0 0 0.3 0"/>
<feBlend mode="normal" in2="BackgroundImageFix" result="effect1_dropShadow_47_1216"/>
<feBlend mode="normal" in="SourceGraphic" in2="effect1_dropShadow_47_1216" result="shape"/>
</filter>
</defs>
</svg>
