<svg width="1103" height="127" viewBox="0 0 1103 127" fill="none" xmlns="http://www.w3.org/2000/svg">
<path d="M537.418 100.405C531.044 100.405 525.253 98.9032 520.043 95.9002C514.834 92.8972 510.728 88.7911 507.725 83.5819C504.783 78.3114 503.313 72.4586 503.313 66.0237C503.313 59.5887 504.783 53.7666 507.725 48.5574C510.728 43.2869 514.834 39.1501 520.043 36.1471C525.253 33.1442 531.044 31.6427 537.418 31.6427C542.321 31.6427 546.794 32.5926 550.839 34.4924C554.945 36.331 558.5 38.9663 561.503 42.3982L555.895 47.822C553.383 44.819 550.625 42.6127 547.622 41.2032C544.68 39.7936 541.279 39.0888 537.418 39.0888C532.638 39.0888 528.256 40.2226 524.272 42.4902C520.289 44.6964 517.102 47.8526 514.712 51.9587C512.383 56.0036 511.218 60.6919 511.218 66.0237C511.218 71.3555 512.383 76.0745 514.712 80.1806C517.102 84.2254 520.289 87.3816 524.272 89.6491C528.256 91.8554 532.638 92.9585 537.418 92.9585C545.385 92.9585 552.157 89.6798 557.734 83.1223L563.433 88.6379C560.369 92.2538 556.6 95.1342 552.126 97.2791C547.652 99.3628 542.75 100.405 537.418 100.405ZM570.369 33.1135H578.183V98.9338H570.369V33.1135ZM609.075 100.405C604.479 100.405 600.342 99.3015 596.665 97.0953C592.988 94.889 590.108 91.886 588.024 88.0864C586.002 84.2867 584.99 80.0886 584.99 75.4922C584.99 70.8959 586.002 66.6978 588.024 62.8981C590.108 59.0985 592.988 56.0955 596.665 53.8892C600.342 51.6829 604.479 50.5798 609.075 50.5798C613.672 50.5798 617.809 51.6829 621.486 53.8892C625.163 56.0955 628.013 59.0985 630.035 62.8981C632.119 66.6978 633.161 70.8959 633.161 75.4922C633.161 80.0886 632.119 84.2867 630.035 88.0864C628.013 91.886 625.163 94.889 621.486 97.0953C617.809 99.3015 613.672 100.405 609.075 100.405ZM609.075 93.3262C611.956 93.3262 614.622 92.6215 617.073 91.2119C619.586 89.7411 621.578 87.6574 623.048 84.9608C624.581 82.2643 625.347 79.1081 625.347 75.4922C625.347 71.8764 624.581 68.7202 623.048 66.0237C621.578 63.3271 619.586 61.2741 617.073 59.8645C614.622 58.3937 611.956 57.6583 609.075 57.6583C606.195 57.6583 603.499 58.3937 600.986 59.8645C598.473 61.2741 596.451 63.3271 594.919 66.0237C593.448 68.7202 592.712 71.8764 592.712 75.4922C592.712 79.1081 593.448 82.2643 594.919 84.9608C596.451 87.6574 598.473 89.7411 600.986 91.2119C603.499 92.6215 606.195 93.3262 609.075 93.3262ZM656.953 100.405C651.315 100.405 646.994 98.75 643.992 95.4406C641.05 92.1312 639.579 87.5041 639.579 81.5595V52.0507H647.393V80.3644C647.393 84.8382 648.404 88.117 650.426 90.2007C652.449 92.2844 655.176 93.3262 658.608 93.3262C661.243 93.3262 663.572 92.6215 665.595 91.2119C667.678 89.8023 669.272 87.9638 670.375 85.6962C671.539 83.4287 672.121 81.0386 672.121 78.5259V52.0507H679.935V98.9338H672.489V92.1312H672.121C670.834 94.46 668.781 96.4211 665.962 98.0146C663.143 99.608 660.14 100.405 656.953 100.405ZM709.046 100.405C704.878 100.405 701.078 99.3322 697.646 97.1872C694.276 95.0422 691.61 92.1005 689.649 88.3621C687.688 84.5625 686.707 80.2725 686.707 75.4922C686.707 70.7733 687.688 66.514 689.649 62.7143C691.61 58.9146 694.276 55.9423 697.646 53.7973C701.078 51.6523 704.878 50.5798 709.046 50.5798C712.661 50.5798 715.879 51.4072 718.698 53.0619C721.517 54.6553 723.662 56.647 725.133 59.0372H725.501L725.133 52.5103V33.1135H732.947V98.9338H725.501V92.0393H725.133C723.662 94.3681 721.517 96.3599 718.698 98.0146C715.879 99.608 712.661 100.405 709.046 100.405ZM709.965 93.3262C712.723 93.3262 715.266 92.5908 717.595 91.12C719.985 89.6491 721.885 87.5654 723.294 84.8689C724.765 82.1723 725.501 79.0468 725.501 75.4922C725.501 71.9377 724.765 68.8122 723.294 66.1156C721.885 63.4191 719.985 61.3354 717.595 59.8645C715.266 58.3937 712.723 57.6583 709.965 57.6583C707.268 57.6583 704.725 58.3937 702.335 59.8645C699.945 61.3354 698.014 63.4497 696.543 66.2075C695.134 68.9041 694.429 71.999 694.429 75.4922C694.429 78.9855 695.134 82.111 696.543 84.8689C698.014 87.5654 699.945 89.6491 702.335 91.12C704.725 92.5908 707.268 93.3262 709.965 93.3262ZM763.741 33.1135H801.799V40.5597H771.463V63.082H798.858V70.4362H771.463V98.9338H763.741V33.1135ZM812.875 43.4094C811.343 43.4094 810.025 42.8579 808.922 41.7547C807.819 40.6516 807.267 39.334 807.267 37.8018C807.267 36.2697 807.819 34.9827 808.922 33.9409C810.025 32.8377 811.343 32.2862 812.875 32.2862C814.407 32.2862 815.725 32.8377 816.828 33.9409C817.931 34.9827 818.483 36.2697 818.483 37.8018C818.483 39.334 817.931 40.6516 816.828 41.7547C815.786 42.8579 814.469 43.4094 812.875 43.4094ZM809.014 52.0507H816.736V98.9338H809.014V52.0507ZM827.178 52.0507H834.624V59.5887H834.992C835.911 57.0148 837.688 54.9004 840.323 53.2457C842.959 51.5297 845.717 50.6717 848.597 50.6717C850.742 50.6717 852.58 50.9782 854.113 51.591V60.0484C852.151 59.0678 849.945 58.5775 847.494 58.5775C845.226 58.5775 843.143 59.221 841.243 60.508C839.343 61.795 837.811 63.5416 836.646 65.7479C835.543 67.8929 834.992 70.2217 834.992 72.7344V98.9338H827.178V52.0507ZM877.897 100.405C873.423 100.405 869.409 99.3322 865.854 97.1872C862.3 95.0422 859.511 92.1005 857.489 88.3621C855.528 84.5625 854.547 80.3031 854.547 75.5842C854.547 71.0491 855.466 66.8817 857.305 63.082C859.205 59.2823 861.871 56.2487 865.303 53.9811C868.735 51.7136 872.718 50.5798 877.253 50.5798C881.85 50.5798 885.833 51.6217 889.204 53.7054C892.575 55.7278 895.149 58.5469 896.926 62.1627C898.764 65.7785 899.684 69.9153 899.684 74.573C899.684 75.4922 899.592 76.289 899.408 76.9631H862.361C862.545 80.5176 863.403 83.5206 864.935 85.972C866.467 88.4234 868.398 90.262 870.726 91.4877C873.117 92.7134 875.599 93.3262 878.173 93.3262C884.179 93.3262 888.806 90.5071 892.054 84.8689L898.672 88.0864C896.65 91.886 893.892 94.889 890.399 97.0953C886.967 99.3015 882.8 100.405 877.897 100.405ZM891.41 70.5281C891.288 68.567 890.736 66.6059 889.755 64.6448C888.775 62.6836 887.212 61.0289 885.067 59.6807C882.983 58.3324 880.348 57.6583 877.161 57.6583C873.484 57.6583 870.359 58.8533 867.785 61.2434C865.272 63.5723 863.617 66.6672 862.821 70.5281H891.41ZM923.802 100.405C918.776 100.405 914.578 99.2403 911.208 96.9114C907.837 94.5213 905.447 91.4877 904.037 87.8106L911.024 84.685C912.188 87.5041 913.904 89.6798 916.172 91.2119C918.501 92.744 921.044 93.5101 923.802 93.5101C926.743 93.5101 929.256 92.9279 931.34 91.7635C933.424 90.5378 934.465 88.8218 934.465 86.6155C934.465 84.6544 933.638 83.0916 931.983 81.9272C930.329 80.7015 927.724 79.6596 924.169 78.8016L918.47 77.3308C914.732 76.4115 911.667 74.8488 909.277 72.6425C906.887 70.4362 905.692 67.5865 905.692 64.0932C905.692 61.3967 906.489 59.0372 908.082 57.0148C909.737 54.9311 911.912 53.3376 914.609 52.2345C917.306 51.1314 920.217 50.5798 923.342 50.5798C927.448 50.5798 931.095 51.4684 934.282 53.2457C937.53 55.023 939.828 57.505 941.176 60.6919L934.373 63.8174C932.29 59.65 928.582 57.5663 923.25 57.5663C920.676 57.5663 918.409 58.1792 916.448 59.4049C914.548 60.5693 913.598 62.0708 913.598 63.9093C913.598 65.6253 914.272 67.0349 915.62 68.138C916.968 69.1799 918.991 70.0379 921.687 70.712L928.49 72.4586C933.086 73.623 936.549 75.3697 938.878 77.6985C941.207 79.9661 942.371 82.7545 942.371 86.0639C942.371 88.9443 941.544 91.4877 939.889 93.694C938.234 95.8389 935.998 97.4936 933.178 98.6581C930.359 99.8225 927.234 100.405 923.802 100.405ZM966.619 99.6693C964.719 99.6693 962.942 99.3628 961.288 98.75C959.694 98.1371 958.346 97.3098 957.243 96.2679C956.017 95.1035 955.098 93.7552 954.485 92.2231C953.872 90.691 953.566 88.8218 953.566 86.6155V59.1291H945.384V52.0507H953.566V38.8131H961.379V52.0507H972.778V59.1291H961.379V84.685C961.379 87.259 961.87 89.1588 962.85 90.3846C964.015 91.7328 965.7 92.407 967.906 92.407C969.684 92.407 971.4 91.886 973.054 90.8442V98.4742C972.135 98.9032 971.185 99.2096 970.205 99.3935C969.285 99.5773 968.09 99.6693 966.619 99.6693ZM999.966 100.405C995.37 100.405 991.233 99.3015 987.556 97.0953C983.879 94.889 980.998 91.886 978.915 88.0864C976.892 84.2867 975.881 80.0886 975.881 75.4922C975.881 70.8959 976.892 66.6978 978.915 62.8981C980.998 59.0985 983.879 56.0955 987.556 53.8892C991.233 51.6829 995.37 50.5798 999.966 50.5798C1004.56 50.5798 1008.7 51.6829 1012.38 53.8892C1016.05 56.0955 1018.9 59.0985 1020.93 62.8981C1023.01 66.6978 1024.05 70.8959 1024.05 75.4922C1024.05 80.0886 1023.01 84.2867 1020.93 88.0864C1018.9 91.886 1016.05 94.889 1012.38 97.0953C1008.7 99.3015 1004.56 100.405 999.966 100.405ZM999.966 93.3262C1002.85 93.3262 1005.51 92.6215 1007.96 91.2119C1010.48 89.7411 1012.47 87.6574 1013.94 84.9608C1015.47 82.2643 1016.24 79.1081 1016.24 75.4922C1016.24 71.8764 1015.47 68.7202 1013.94 66.0237C1012.47 63.3271 1010.48 61.2741 1007.96 59.8645C1005.51 58.3937 1002.85 57.6583 999.966 57.6583C997.086 57.6583 994.389 58.3937 991.876 59.8645C989.364 61.2741 987.341 63.3271 985.809 66.0237C984.338 68.7202 983.603 71.8764 983.603 75.4922C983.603 79.1081 984.338 82.2643 985.809 84.9608C987.341 87.6574 989.364 89.7411 991.876 91.2119C994.389 92.6215 997.086 93.3262 999.966 93.3262ZM1030.39 52.0507H1037.83V59.5887H1038.2C1039.12 57.0148 1040.9 54.9004 1043.53 53.2457C1046.17 51.5297 1048.93 50.6717 1051.81 50.6717C1053.95 50.6717 1055.79 50.9782 1057.32 51.591V60.0484C1055.36 59.0678 1053.16 58.5775 1050.7 58.5775C1048.44 58.5775 1046.35 59.221 1044.45 60.508C1042.55 61.795 1041.02 63.5416 1039.86 65.7479C1038.75 67.8929 1038.2 70.2217 1038.2 72.7344V98.9338H1030.39V52.0507ZM1081.11 100.405C1076.63 100.405 1072.62 99.3322 1069.06 97.1872C1065.51 95.0422 1062.72 92.1005 1060.7 88.3621C1058.74 84.5625 1057.76 80.3031 1057.76 75.5842C1057.76 71.0491 1058.68 66.8817 1060.52 63.082C1062.42 59.2823 1065.08 56.2487 1068.51 53.9811C1071.95 51.7136 1075.93 50.5798 1080.46 50.5798C1085.06 50.5798 1089.04 51.6217 1092.41 53.7054C1095.79 55.7278 1098.36 58.5469 1100.14 62.1627C1101.98 65.7785 1102.89 69.9153 1102.89 74.573C1102.89 75.4922 1102.8 76.289 1102.62 76.9631H1065.57C1065.76 80.5176 1066.61 83.5206 1068.15 85.972C1069.68 88.4234 1071.61 90.262 1073.94 91.4877C1076.33 92.7134 1078.81 93.3262 1081.38 93.3262C1087.39 93.3262 1092.02 90.5071 1095.26 84.8689L1101.88 88.0864C1099.86 91.886 1097.1 94.889 1093.61 97.0953C1090.18 99.3015 1086.01 100.405 1081.11 100.405ZM1094.62 70.5281C1094.5 68.567 1093.95 66.6059 1092.97 64.6448C1091.99 62.6836 1090.42 61.0289 1088.28 59.6807C1086.19 58.3324 1083.56 57.6583 1080.37 57.6583C1076.69 57.6583 1073.57 58.8533 1071 61.2434C1068.48 63.5723 1066.83 66.6672 1066.03 70.5281H1094.62Z" fill="#5A5A5A"/>
<path d="M461.612 99.3987C457.157 99.3987 453.13 98.3615 449.531 96.2869C445.992 94.2124 443.215 91.3447 441.202 87.6838C439.188 83.9618 438.182 79.8128 438.182 75.2366C438.182 70.8435 439.127 66.8165 441.019 63.1555C442.971 59.4336 445.687 56.5048 449.164 54.3693C452.642 52.1727 456.608 51.0745 461.062 51.0745C465.639 51.0745 469.605 52.0812 472.96 54.0947C476.377 56.1082 478.97 58.915 480.74 62.5149C482.509 66.0538 483.394 70.1418 483.394 74.779C483.394 75.3281 483.364 75.8773 483.303 76.4264C483.242 76.9755 483.211 77.2806 483.211 77.3416H448.249C448.554 81.4907 450.049 84.694 452.734 86.9516C455.419 89.2091 458.469 90.3379 461.886 90.3379C467.133 90.3379 471.161 87.8973 473.967 83.0161L482.57 87.1346C480.557 90.8566 477.75 93.8463 474.15 96.1039C470.611 98.3004 466.432 99.3987 461.612 99.3987ZM473.144 69.6537C473.021 68.1893 472.533 66.6944 471.679 65.169C470.825 63.6437 469.483 62.3623 467.652 61.3251C465.883 60.2268 463.656 59.6776 460.971 59.6776C457.981 59.6776 455.388 60.5929 453.191 62.4233C451.056 64.2538 449.592 66.6639 448.798 69.6537H473.144Z" fill="#5A5A5A"/>
<path d="M416.087 99.3987C410.9 99.3987 406.599 98.2089 403.182 95.8293C399.826 93.3887 397.446 90.3379 396.043 86.677L405.012 82.833C406.05 85.3347 407.544 87.2261 409.497 88.5075C411.51 89.7888 413.707 90.4294 416.087 90.4294C418.588 90.4294 420.632 89.9718 422.219 89.0566C423.805 88.0804 424.598 86.8295 424.598 85.3041C424.598 83.8398 423.958 82.65 422.676 81.7347C421.395 80.7585 419.29 79.9043 416.361 79.1721L410.138 77.7077C406.721 76.9145 403.761 75.4501 401.26 73.3146C398.819 71.118 397.599 68.2808 397.599 64.8029C397.599 60.5929 399.338 57.2675 402.816 54.8269C406.294 52.3253 410.565 51.0745 415.629 51.0745C419.839 51.0745 423.561 51.9592 426.795 53.7286C430.09 55.4981 432.469 58.0607 433.934 61.4166L425.056 65.169C424.202 63.2776 422.89 61.8742 421.12 60.959C419.351 60.0437 417.429 59.5861 415.354 59.5861C413.341 59.5861 411.571 60.0437 410.046 60.959C408.521 61.8132 407.758 62.9725 407.758 64.4369C407.758 65.7182 408.277 66.7554 409.314 67.5486C410.412 68.3418 412.121 69.013 414.439 69.5622L421.212 71.2096C425.788 72.3689 429.205 74.1383 431.462 76.5179C433.72 78.8365 434.849 81.6432 434.849 84.9381C434.849 87.6227 434.025 90.0634 432.378 92.2599C430.791 94.4565 428.564 96.1954 425.696 97.4767C422.89 98.7581 419.686 99.3987 416.087 99.3987Z" fill="#5A5A5A"/>
<path d="M367.921 99.3987C364.688 99.3987 361.759 98.7581 359.135 97.4767C356.573 96.1344 354.529 94.3039 353.003 91.9853C351.539 89.6057 350.807 86.9211 350.807 83.9313C350.807 79.1721 352.576 75.4196 356.115 72.6739C359.715 69.9282 364.261 68.5554 369.752 68.5554C374.572 68.5554 378.691 69.3791 382.108 71.0265V69.1045C382.108 66.3588 381.009 64.1013 378.813 62.3318C376.677 60.5014 374.084 59.5861 371.033 59.5861C366.396 59.5861 362.674 61.4776 359.867 65.2606L352.18 59.9522C354.315 57.0845 356.969 54.8879 360.142 53.3625C363.376 51.8372 367.006 51.0745 371.033 51.0745C377.684 51.0745 382.809 52.7524 386.409 56.1082C390.07 59.4031 391.901 64.0708 391.901 70.1113V97.9344H382.108V92.3514H381.558C380.094 94.426 378.233 96.1344 375.976 97.4767C373.718 98.7581 371.033 99.3987 367.921 99.3987ZM369.569 91.0701C371.826 91.0701 373.901 90.521 375.792 89.4227C377.745 88.2634 379.27 86.7685 380.369 84.9381C381.528 83.0466 382.108 81.0331 382.108 78.8975C378.874 77.1281 375.426 76.2433 371.765 76.2433C368.41 76.2433 365.786 76.9755 363.894 78.4399C362.003 79.9043 361.057 81.7652 361.057 84.0228C361.057 86.0973 361.881 87.8058 363.528 89.1481C365.237 90.4295 367.25 91.0701 369.569 91.0701Z" fill="#5A5A5A"/>
<path d="M325.684 99.3983C322.389 99.3983 319.43 98.6966 316.806 97.2933C314.244 95.8899 312.322 94.1205 311.04 91.9849H310.491V97.9339H300.973V32.4033H311.04V52.0808L310.491 58.3959H311.04C312.322 56.3214 314.244 54.5824 316.806 53.1791C319.43 51.7757 322.389 51.0741 325.684 51.0741C329.589 51.0741 333.189 52.1113 336.484 54.1858C339.84 56.2604 342.494 59.1586 344.446 62.8805C346.46 66.5415 347.466 70.66 347.466 75.2362C347.466 79.8123 346.46 83.9309 344.446 87.5918C342.494 91.2527 339.84 94.151 336.484 96.2865C333.189 98.361 329.589 99.3983 325.684 99.3983ZM323.945 90.1545C326.325 90.1545 328.521 89.5443 330.535 88.324C332.609 87.1037 334.257 85.3648 335.477 83.1072C336.758 80.7886 337.399 78.1649 337.399 75.2362C337.399 72.3074 336.758 69.7143 335.477 67.4567C334.257 65.1381 332.609 63.3687 330.535 62.1484C328.521 60.9281 326.325 60.3179 323.945 60.3179C321.565 60.3179 319.338 60.9281 317.264 62.1484C315.25 63.3687 313.603 65.1076 312.322 67.3652C311.101 69.6228 310.491 72.2464 310.491 75.2362C310.491 78.2259 311.101 80.8496 312.322 83.1072C313.603 85.3648 315.25 87.1037 317.264 88.324C319.338 89.5443 321.565 90.1545 323.945 90.1545Z" fill="#5A5A5A"/>
<path d="M273.192 99.3988C268.738 99.3988 264.711 98.3616 261.111 96.2871C257.572 94.2125 254.795 91.3448 252.782 87.6839C250.768 83.9619 249.762 79.8129 249.762 75.2367C249.762 70.8436 250.707 66.8166 252.599 63.1556C254.551 59.4337 257.267 56.505 260.745 54.3694C264.222 52.1729 268.188 51.0746 272.643 51.0746C277.219 51.0746 281.185 52.0813 284.541 54.0949C287.957 56.1084 290.551 58.9151 292.32 62.515C294.089 66.0539 294.974 70.1419 294.974 74.7791C294.974 75.3282 294.944 75.8774 294.883 76.4265C294.822 76.9757 294.791 77.2807 294.791 77.3418H259.829C260.134 81.4908 261.629 84.6941 264.314 86.9517C266.999 89.2093 270.049 90.338 273.466 90.338C278.714 90.338 282.741 87.8974 285.547 83.0162L294.15 87.1347C292.137 90.8567 289.33 93.8464 285.73 96.104C282.191 98.3006 278.012 99.3988 273.192 99.3988ZM284.724 69.6538C284.602 68.1894 284.113 66.6945 283.259 65.1692C282.405 63.6438 281.063 62.3624 279.232 61.3252C277.463 60.2269 275.236 59.6778 272.551 59.6778C269.561 59.6778 266.968 60.593 264.772 62.4235C262.636 64.2539 261.172 66.664 260.378 69.6538H284.724Z" fill="#5A5A5A"/>
<path d="M221.822 52.5389H231.341V59.3116H231.89C232.866 56.9931 234.636 55.0711 237.198 53.5457C239.761 51.9593 242.384 51.1661 245.069 51.1661C247.266 51.1661 249.066 51.4712 250.469 52.0813V62.6065C248.395 61.5692 246.076 61.0506 243.513 61.0506C240.218 61.0506 237.442 62.3319 235.185 64.8946C232.988 67.3962 231.89 70.4775 231.89 74.1384V97.9344H221.822V52.5389Z" fill="#5A5A5A"/>
<path d="M207.452 44.8506C205.561 44.8506 203.944 44.2099 202.602 42.9286C201.32 41.5863 200.68 39.9694 200.68 38.0779C200.68 36.1864 201.32 34.6 202.602 33.3187C203.944 31.9763 205.561 31.3052 207.452 31.3052C209.344 31.3052 210.93 31.9763 212.212 33.3187C213.554 34.6 214.225 36.1864 214.225 38.0779C214.225 39.9694 213.554 41.5863 212.212 42.9286C210.93 44.2099 209.344 44.8506 207.452 44.8506ZM202.419 52.5386H212.486V97.9341H202.419V52.5386Z" fill="#5A5A5A"/>
<path d="M156.562 32.4034H196.375V42.1964H166.813V61.0502H193.446V70.7517H166.813V97.9341H156.562V32.4034Z" fill="#5A5A5A"/>
<path d="M31.6581 118.1C36.7104 120.133 42.1915 121.34 47.9467 121.541C55.7355 121.813 63.1422 120.202 69.7635 117.143C61.8234 114.024 54.6322 109.461 48.4949 103.79C44.5166 110.159 38.6325 115.19 31.6581 118.1Z" fill="#FF9100"/>
<path d="M48.4923 103.791C34.4827 90.8342 25.9838 72.0806 26.7021 51.5112C26.7254 50.8433 26.7607 50.1757 26.8019 49.5084C24.2928 48.8595 21.6734 48.4635 18.9777 48.3694C15.1191 48.2346 11.3823 48.7132 7.85452 49.7066C4.11472 56.2577 1.85787 63.7742 1.57672 71.8254C0.851127 92.6036 13.4253 110.759 31.6556 118.101C38.63 115.192 44.5139 110.167 48.4923 103.791Z" fill="#FFC400"/>
<path d="M48.4937 103.791C51.7509 98.5782 53.7258 92.4671 53.9557 85.8829C54.5605 68.5638 42.9175 53.6653 26.8033 49.5079C26.762 50.1753 26.7268 50.8428 26.7035 51.5108C25.9852 72.0802 34.484 90.8338 48.4937 103.791Z" fill="#FF9100"/>
<path d="M52.1543 0.825138C42.9766 8.17757 35.7294 17.8724 31.3447 29.0406C28.8344 35.4376 27.2569 42.309 26.7964 49.5121C42.9106 53.6694 54.5536 68.568 53.9488 85.8871C53.7189 92.4712 51.7382 98.5762 48.4868 103.795C54.6239 109.473 61.8153 114.029 69.7555 117.149C85.693 109.781 97.0006 93.9289 97.6554 75.1785C98.0796 63.0301 93.4121 52.2026 86.8167 43.0633C79.8515 33.3976 52.1543 0.825138 52.1543 0.825138Z" fill="#DD2C00"/>
<g filter="url(#filter0_d_47_997)">
<circle cx="100" cy="90" r="30" fill="white"/>
<path fill-rule="evenodd" clip-rule="evenodd" d="M100 91.5L86.5 97.5V91.5L100 85.5L113.5 91.5V96.75V95.625V97.5L100 91.5ZM100 75L113.5 81V87L100 81L86.5 87V81L100 75ZM105.062 96.75L111.812 99.75L100 105V99L105.062 96.75Z" fill="#1F1F1F"/>
</g>
<defs>
<filter id="filter0_d_47_997" x="68" y="58.6704" width="64" height="64" filterUnits="userSpaceOnUse" color-interpolation-filters="sRGB">
<feFlood flood-opacity="0" result="BackgroundImageFix"/>
<feColorMatrix in="SourceAlpha" type="matrix" values="0 0 0 0 0 0 0 0 0 0 0 0 0 0 0 0 0 0 127 0" result="hardAlpha"/>
<feOffset dy="0.670408"/>
<feGaussianBlur stdDeviation="1"/>
<feComposite in2="hardAlpha" operator="out"/>
<feColorMatrix type="matrix" values="0 0 0 0 0 0 0 0 0 0 0 0 0 0 0 0 0 0 0.3 0"/>
<feBlend mode="normal" in2="BackgroundImageFix" result="effect1_dropShadow_47_997"/>
<feBlend mode="normal" in="SourceGraphic" in2="effect1_dropShadow_47_997" result="shape"/>
</filter>
</defs>
</svg>
