<svg width="1186" height="127" viewBox="0 0 1186 127" fill="none" xmlns="http://www.w3.org/2000/svg">
<path d="M537.418 100.405C531.044 100.405 525.253 98.9032 520.043 95.9002C514.834 92.8972 510.728 88.7911 507.725 83.5819C504.783 78.3114 503.313 72.4586 503.313 66.0237C503.313 59.5887 504.783 53.7666 507.725 48.5574C510.728 43.2869 514.834 39.1501 520.043 36.1471C525.253 33.1442 531.044 31.6427 537.418 31.6427C542.321 31.6427 546.794 32.5926 550.839 34.4924C554.945 36.331 558.5 38.9663 561.503 42.3982L555.895 47.822C553.383 44.819 550.625 42.6127 547.622 41.2032C544.68 39.7936 541.279 39.0888 537.418 39.0888C532.638 39.0888 528.256 40.2226 524.272 42.4902C520.289 44.6964 517.102 47.8526 514.712 51.9587C512.383 56.0036 511.218 60.6919 511.218 66.0237C511.218 71.3555 512.383 76.0745 514.712 80.1806C517.102 84.2254 520.289 87.3816 524.272 89.6491C528.256 91.8554 532.638 92.9585 537.418 92.9585C545.385 92.9585 552.157 89.6798 557.734 83.1223L563.433 88.6379C560.369 92.2538 556.6 95.1342 552.126 97.2791C547.652 99.3628 542.75 100.405 537.418 100.405ZM570.369 33.1135H578.183V98.9338H570.369V33.1135ZM609.075 100.405C604.479 100.405 600.342 99.3015 596.665 97.0953C592.988 94.889 590.108 91.886 588.024 88.0864C586.002 84.2867 584.99 80.0886 584.99 75.4922C584.99 70.8959 586.002 66.6978 588.024 62.8981C590.108 59.0985 592.988 56.0955 596.665 53.8892C600.342 51.6829 604.479 50.5798 609.075 50.5798C613.672 50.5798 617.809 51.6829 621.486 53.8892C625.163 56.0955 628.013 59.0985 630.035 62.8981C632.119 66.6978 633.161 70.8959 633.161 75.4922C633.161 80.0886 632.119 84.2867 630.035 88.0864C628.013 91.886 625.163 94.889 621.486 97.0953C617.809 99.3015 613.672 100.405 609.075 100.405ZM609.075 93.3262C611.956 93.3262 614.622 92.6215 617.073 91.2119C619.586 89.7411 621.578 87.6574 623.048 84.9608C624.581 82.2643 625.347 79.1081 625.347 75.4922C625.347 71.8764 624.581 68.7202 623.048 66.0237C621.578 63.3271 619.586 61.2741 617.073 59.8645C614.622 58.3937 611.956 57.6583 609.075 57.6583C606.195 57.6583 603.499 58.3937 600.986 59.8645C598.473 61.2741 596.451 63.3271 594.919 66.0237C593.448 68.7202 592.712 71.8764 592.712 75.4922C592.712 79.1081 593.448 82.2643 594.919 84.9608C596.451 87.6574 598.473 89.7411 600.986 91.2119C603.499 92.6215 606.195 93.3262 609.075 93.3262ZM656.953 100.405C651.315 100.405 646.994 98.75 643.992 95.4406C641.05 92.1312 639.579 87.5041 639.579 81.5595V52.0507H647.393V80.3644C647.393 84.8382 648.404 88.117 650.426 90.2007C652.449 92.2844 655.176 93.3262 658.608 93.3262C661.243 93.3262 663.572 92.6215 665.595 91.2119C667.678 89.8023 669.272 87.9638 670.375 85.6962C671.539 83.4287 672.121 81.0386 672.121 78.5259V52.0507H679.935V98.9338H672.489V92.1312H672.121C670.834 94.46 668.781 96.4211 665.962 98.0146C663.143 99.608 660.14 100.405 656.953 100.405ZM709.046 100.405C704.878 100.405 701.078 99.3322 697.646 97.1872C694.276 95.0422 691.61 92.1005 689.649 88.3621C687.688 84.5625 686.707 80.2725 686.707 75.4922C686.707 70.7733 687.688 66.514 689.649 62.7143C691.61 58.9146 694.276 55.9423 697.646 53.7973C701.078 51.6523 704.878 50.5798 709.046 50.5798C712.661 50.5798 715.879 51.4072 718.698 53.0619C721.517 54.6553 723.662 56.647 725.133 59.0372H725.501L725.133 52.5103V33.1135H732.947V98.9338H725.501V92.0393H725.133C723.662 94.3681 721.517 96.3599 718.698 98.0146C715.879 99.608 712.661 100.405 709.046 100.405ZM709.965 93.3262C712.723 93.3262 715.266 92.5908 717.595 91.12C719.985 89.6491 721.885 87.5654 723.294 84.8689C724.765 82.1723 725.501 79.0468 725.501 75.4922C725.501 71.9377 724.765 68.8122 723.294 66.1156C721.885 63.4191 719.985 61.3354 717.595 59.8645C715.266 58.3937 712.723 57.6583 709.965 57.6583C707.268 57.6583 704.725 58.3937 702.335 59.8645C699.945 61.3354 698.014 63.4497 696.543 66.2075C695.134 68.9041 694.429 71.999 694.429 75.4922C694.429 78.9855 695.134 82.111 696.543 84.8689C698.014 87.5654 699.945 89.6491 702.335 91.12C704.725 92.5908 707.268 93.3262 709.965 93.3262ZM763.741 33.1135H775.048L796.008 87.0752H796.375L817.335 33.1135H828.642V98.9338H820.92V57.1067L821.288 44.6045H820.92L799.409 98.9338H792.974L771.463 44.6045H771.095L771.463 57.1067V98.9338H763.741V33.1135ZM860.836 100.405C856.362 100.405 852.348 99.3322 848.794 97.1872C845.239 95.0422 842.451 92.1005 840.428 88.3621C838.467 84.5625 837.487 80.3031 837.487 75.5842C837.487 71.0491 838.406 66.8817 840.244 63.082C842.144 59.2823 844.81 56.2487 848.242 53.9811C851.674 51.7136 855.658 50.5798 860.193 50.5798C864.789 50.5798 868.773 51.6217 872.143 53.7054C875.514 55.7278 878.088 58.5469 879.865 62.1627C881.704 65.7785 882.623 69.9153 882.623 74.573C882.623 75.4922 882.531 76.289 882.347 76.9631H845.3C845.484 80.5176 846.342 83.5206 847.874 85.972C849.407 88.4234 851.337 90.262 853.666 91.4877C856.056 92.7134 858.538 93.3262 861.112 93.3262C867.118 93.3262 871.745 90.5071 874.993 84.8689L881.612 88.0864C879.59 91.886 876.832 94.889 873.338 97.0953C869.906 99.3015 865.739 100.405 860.836 100.405ZM874.35 70.5281C874.227 68.567 873.676 66.6059 872.695 64.6448C871.714 62.6836 870.152 61.0289 868.007 59.6807C865.923 58.3324 863.288 57.6583 860.101 57.6583C856.424 57.6583 853.298 58.8533 850.724 61.2434C848.212 63.5723 846.557 66.6672 845.76 70.5281H874.35ZM906.741 100.405C901.716 100.405 897.518 99.2403 894.147 96.9114C890.776 94.5213 888.386 91.4877 886.977 87.8106L893.963 84.685C895.128 87.5041 896.844 89.6798 899.111 91.2119C901.44 92.744 903.983 93.5101 906.741 93.5101C909.683 93.5101 912.196 92.9279 914.279 91.7635C916.363 90.5378 917.405 88.8218 917.405 86.6155C917.405 84.6544 916.578 83.0916 914.923 81.9272C913.268 80.7015 910.664 79.6596 907.109 78.8016L901.409 77.3308C897.671 76.4115 894.607 74.8488 892.217 72.6425C889.827 70.4362 888.631 67.5865 888.631 64.0932C888.631 61.3967 889.428 59.0372 891.022 57.0148C892.676 54.9311 894.852 53.3376 897.548 52.2345C900.245 51.1314 903.156 50.5798 906.282 50.5798C910.388 50.5798 914.034 51.4684 917.221 53.2457C920.469 55.023 922.767 57.505 924.116 60.6919L917.313 63.8174C915.229 59.65 911.522 57.5663 906.19 57.5663C903.616 57.5663 901.348 58.1792 899.387 59.4049C897.487 60.5693 896.537 62.0708 896.537 63.9093C896.537 65.6253 897.211 67.0349 898.56 68.138C899.908 69.1799 901.93 70.0379 904.627 70.712L911.43 72.4586C916.026 73.623 919.489 75.3697 921.817 77.6985C924.146 79.9661 925.311 82.7545 925.311 86.0639C925.311 88.9443 924.483 91.4877 922.829 93.694C921.174 95.8389 918.937 97.4936 916.118 98.6581C913.299 99.8225 910.173 100.405 906.741 100.405ZM948.353 100.405C943.328 100.405 939.13 99.2403 935.759 96.9114C932.388 94.5213 929.998 91.4877 928.589 87.8106L935.575 84.685C936.739 87.5041 938.455 89.6798 940.723 91.2119C943.052 92.744 945.595 93.5101 948.353 93.5101C951.295 93.5101 953.807 92.9279 955.891 91.7635C957.975 90.5378 959.017 88.8218 959.017 86.6155C959.017 84.6544 958.189 83.0916 956.535 81.9272C954.88 80.7015 952.275 79.6596 948.721 78.8016L943.021 77.3308C939.283 76.4115 936.219 74.8488 933.828 72.6425C931.438 70.4362 930.243 67.5865 930.243 64.0932C930.243 61.3967 931.04 59.0372 932.633 57.0148C934.288 54.9311 936.464 53.3376 939.16 52.2345C941.857 51.1314 944.768 50.5798 947.893 50.5798C951.999 50.5798 955.646 51.4684 958.833 53.2457C962.081 55.023 964.379 57.505 965.727 60.6919L958.925 63.8174C956.841 59.65 953.133 57.5663 947.801 57.5663C945.227 57.5663 942.96 58.1792 940.999 59.4049C939.099 60.5693 938.149 62.0708 938.149 63.9093C938.149 65.6253 938.823 67.0349 940.171 68.138C941.52 69.1799 943.542 70.0379 946.239 70.712L953.041 72.4586C957.638 73.623 961.1 75.3697 963.429 77.6985C965.758 79.9661 966.922 82.7545 966.922 86.0639C966.922 88.9443 966.095 91.4877 964.44 93.694C962.786 95.8389 960.549 97.4936 957.73 98.6581C954.911 99.8225 951.785 100.405 948.353 100.405ZM989.035 100.405C985.603 100.405 982.538 99.7305 979.842 98.3823C977.145 97.034 975.062 95.1954 973.591 92.8666C972.12 90.4765 971.384 87.7799 971.384 84.777C971.384 79.8129 973.254 75.9519 976.992 73.1941C980.73 70.3749 985.449 68.9654 991.149 68.9654C993.968 68.9654 996.573 69.2718 998.963 69.8847C1001.41 70.4975 1003.28 71.2023 1004.57 71.999V69.1492C1004.57 65.656 1003.34 62.8675 1000.89 60.7838C998.442 58.6388 995.347 57.5663 991.609 57.5663C988.973 57.5663 986.553 58.1485 984.346 59.313C982.14 60.4161 980.393 61.9789 979.106 64.0013L973.223 59.5887C975.062 56.7696 977.574 54.5633 980.761 52.9699C984.009 51.3765 987.594 50.5798 991.517 50.5798C997.89 50.5798 1002.89 52.2652 1006.5 55.6358C1010.18 58.9452 1012.02 63.4803 1012.02 69.2412V98.9338H1004.57V92.2231H1004.2C1002.85 94.4907 1000.83 96.4211 998.135 98.0146C995.439 99.608 992.405 100.405 989.035 100.405ZM989.77 93.5101C992.405 93.5101 994.857 92.836 997.124 91.4877C999.392 90.1394 1001.2 88.3315 1002.55 86.0639C1003.9 83.7964 1004.57 81.3143 1004.57 78.6178C1003.1 77.6372 1001.29 76.8405 999.147 76.2277C997.002 75.6148 994.734 75.3084 992.344 75.3084C988.054 75.3084 984.806 76.197 982.6 77.9743C980.455 79.7516 979.382 82.0498 979.382 84.8689C979.382 87.4429 980.363 89.5266 982.324 91.12C984.285 92.7134 986.767 93.5101 989.77 93.5101ZM1041.19 120.261C1035.68 120.261 1031.11 118.974 1027.49 116.4C1023.94 113.826 1021.55 110.731 1020.32 107.115L1027.4 104.082C1028.44 106.778 1030.16 108.954 1032.55 110.609C1035 112.325 1037.88 113.183 1041.19 113.183C1046.03 113.183 1049.77 111.773 1052.41 108.954C1055.1 106.135 1056.45 102.151 1056.45 97.0034V91.7635H1056.08C1054.55 94.1536 1052.38 96.1147 1049.56 97.6468C1046.8 99.1177 1043.64 99.8531 1040.09 99.8531C1036.04 99.8531 1032.34 98.8113 1028.97 96.7276C1025.66 94.6439 1023.02 91.7328 1021.06 87.9944C1019.1 84.256 1018.12 79.9967 1018.12 75.2165C1018.12 70.4975 1019.1 66.2688 1021.06 62.5304C1023.02 58.7307 1025.66 55.7891 1028.97 53.7054C1032.34 51.6217 1036.04 50.5798 1040.09 50.5798C1043.64 50.5798 1046.8 51.3459 1049.56 52.878C1052.38 54.3489 1054.55 56.31 1056.08 58.7614H1056.45V52.0507H1063.9V97.0953C1063.9 104.633 1061.81 110.364 1057.65 114.286C1053.48 118.269 1047.99 120.261 1041.19 120.261ZM1041.19 92.7747C1044.01 92.7747 1046.55 92.0699 1048.82 90.6603C1051.15 89.2508 1052.99 87.2284 1054.34 84.5931C1055.75 81.9578 1056.45 78.8323 1056.45 75.2165C1056.45 71.5394 1055.75 68.3832 1054.34 65.7479C1052.99 63.1126 1051.15 61.1209 1048.82 59.7726C1046.55 58.363 1044.01 57.6583 1041.19 57.6583C1038.37 57.6583 1035.8 58.363 1033.47 59.7726C1031.14 61.1822 1029.27 63.2046 1027.86 65.8398C1026.51 68.4751 1025.84 71.6006 1025.84 75.2165C1025.84 78.8323 1026.51 81.9885 1027.86 84.685C1029.27 87.3203 1031.14 89.3427 1033.47 90.7523C1035.8 92.1005 1038.37 92.7747 1041.19 92.7747ZM1078.21 43.4094C1076.68 43.4094 1075.36 42.8579 1074.26 41.7547C1073.15 40.6516 1072.6 39.334 1072.6 37.8018C1072.6 36.2697 1073.15 34.9827 1074.26 33.9409C1075.36 32.8377 1076.68 32.2862 1078.21 32.2862C1079.74 32.2862 1081.06 32.8377 1082.16 33.9409C1083.26 34.9827 1083.82 36.2697 1083.82 37.8018C1083.82 39.334 1083.26 40.6516 1082.16 41.7547C1081.12 42.8579 1079.8 43.4094 1078.21 43.4094ZM1074.35 52.0507H1082.07V98.9338H1074.35V52.0507ZM1092.51 52.0507H1099.96V58.9452H1100.33C1101.61 56.6164 1103.67 54.6553 1106.48 53.0619C1109.3 51.4072 1112.31 50.5798 1115.49 50.5798C1121.13 50.5798 1125.42 52.2345 1128.36 55.5439C1131.37 58.792 1132.87 63.2352 1132.87 68.8734V98.9338H1125.05V70.0685C1125.05 65.7173 1124.01 62.5611 1121.93 60.5999C1119.84 58.6388 1116.99 57.6583 1113.38 57.6583C1110.87 57.6583 1108.6 58.363 1106.58 59.7726C1104.62 61.1822 1103.08 63.0514 1101.98 65.3802C1100.88 67.6477 1100.33 70.0379 1100.33 72.5506V98.9338H1092.51V52.0507ZM1162.35 120.261C1156.83 120.261 1152.26 118.974 1148.65 116.4C1145.09 113.826 1142.7 110.731 1141.48 107.115L1148.56 104.082C1149.6 106.778 1151.31 108.954 1153.7 110.609C1156.16 112.325 1159.04 113.183 1162.35 113.183C1167.19 113.183 1170.93 111.773 1173.56 108.954C1176.26 106.135 1177.61 102.151 1177.61 97.0034V91.7635H1177.24C1175.71 94.1536 1173.53 96.1147 1170.71 97.6468C1167.95 99.1177 1164.8 99.8531 1161.24 99.8531C1157.2 99.8531 1153.49 98.8113 1150.12 96.7276C1146.81 94.6439 1144.17 91.7328 1142.21 87.9944C1140.25 84.256 1139.27 79.9967 1139.27 75.2165C1139.27 70.4975 1140.25 66.2688 1142.21 62.5304C1144.17 58.7307 1146.81 55.7891 1150.12 53.7054C1153.49 51.6217 1157.2 50.5798 1161.24 50.5798C1164.8 50.5798 1167.95 51.3459 1170.71 52.878C1173.53 54.3489 1175.71 56.31 1177.24 58.7614H1177.61V52.0507H1185.05V97.0953C1185.05 104.633 1182.97 110.364 1178.8 114.286C1174.63 118.269 1169.15 120.261 1162.35 120.261ZM1162.35 92.7747C1165.16 92.7747 1167.71 92.0699 1169.98 90.6603C1172.3 89.2508 1174.14 87.2284 1175.49 84.5931C1176.9 81.9578 1177.61 78.8323 1177.61 75.2165C1177.61 71.5394 1176.9 68.3832 1175.49 65.7479C1174.14 63.1126 1172.3 61.1209 1169.98 59.7726C1167.71 58.363 1165.16 57.6583 1162.35 57.6583C1159.53 57.6583 1156.95 58.363 1154.62 59.7726C1152.3 61.1822 1150.43 63.2046 1149.02 65.8398C1147.67 68.4751 1146.99 71.6006 1146.99 75.2165C1146.99 78.8323 1147.67 81.9885 1149.02 84.685C1150.43 87.3203 1152.3 89.3427 1154.62 90.7523C1156.95 92.1005 1159.53 92.7747 1162.35 92.7747Z" fill="#5A5A5A"/>
<path d="M461.612 99.3987C457.157 99.3987 453.13 98.3615 449.531 96.2869C445.992 94.2124 443.215 91.3447 441.202 87.6838C439.188 83.9618 438.182 79.8128 438.182 75.2366C438.182 70.8435 439.127 66.8165 441.019 63.1555C442.971 59.4336 445.687 56.5048 449.164 54.3693C452.642 52.1727 456.608 51.0745 461.062 51.0745C465.639 51.0745 469.605 52.0812 472.96 54.0947C476.377 56.1082 478.97 58.915 480.74 62.5149C482.509 66.0538 483.394 70.1418 483.394 74.779C483.394 75.3281 483.364 75.8773 483.303 76.4264C483.242 76.9755 483.211 77.2806 483.211 77.3416H448.249C448.554 81.4907 450.049 84.694 452.734 86.9516C455.419 89.2091 458.469 90.3379 461.886 90.3379C467.133 90.3379 471.161 87.8973 473.967 83.0161L482.57 87.1346C480.557 90.8566 477.75 93.8463 474.15 96.1039C470.611 98.3004 466.432 99.3987 461.612 99.3987ZM473.144 69.6537C473.021 68.1893 472.533 66.6944 471.679 65.169C470.825 63.6437 469.483 62.3623 467.652 61.3251C465.883 60.2268 463.656 59.6776 460.971 59.6776C457.981 59.6776 455.388 60.5929 453.191 62.4233C451.056 64.2538 449.592 66.6639 448.798 69.6537H473.144Z" fill="#5A5A5A"/>
<path d="M416.087 99.3987C410.9 99.3987 406.599 98.2089 403.182 95.8293C399.826 93.3887 397.446 90.3379 396.043 86.677L405.012 82.833C406.05 85.3347 407.544 87.2261 409.497 88.5075C411.51 89.7888 413.707 90.4294 416.087 90.4294C418.588 90.4294 420.632 89.9718 422.219 89.0566C423.805 88.0804 424.598 86.8295 424.598 85.3041C424.598 83.8398 423.958 82.65 422.676 81.7347C421.395 80.7585 419.29 79.9043 416.361 79.1721L410.138 77.7077C406.721 76.9145 403.761 75.4501 401.26 73.3146C398.819 71.118 397.599 68.2808 397.599 64.8029C397.599 60.5929 399.338 57.2675 402.816 54.8269C406.294 52.3253 410.565 51.0745 415.629 51.0745C419.839 51.0745 423.561 51.9592 426.795 53.7286C430.09 55.4981 432.469 58.0607 433.934 61.4166L425.056 65.169C424.202 63.2776 422.89 61.8742 421.12 60.959C419.351 60.0437 417.429 59.5861 415.354 59.5861C413.341 59.5861 411.571 60.0437 410.046 60.959C408.521 61.8132 407.758 62.9725 407.758 64.4369C407.758 65.7182 408.277 66.7554 409.314 67.5486C410.412 68.3418 412.121 69.013 414.439 69.5622L421.212 71.2096C425.788 72.3689 429.205 74.1383 431.462 76.5179C433.72 78.8365 434.849 81.6432 434.849 84.9381C434.849 87.6227 434.025 90.0634 432.378 92.2599C430.791 94.4565 428.564 96.1954 425.696 97.4767C422.89 98.7581 419.686 99.3987 416.087 99.3987Z" fill="#5A5A5A"/>
<path d="M367.921 99.3987C364.688 99.3987 361.759 98.7581 359.135 97.4767C356.573 96.1344 354.529 94.3039 353.003 91.9853C351.539 89.6057 350.807 86.9211 350.807 83.9313C350.807 79.1721 352.576 75.4196 356.115 72.6739C359.715 69.9282 364.261 68.5554 369.752 68.5554C374.572 68.5554 378.691 69.3791 382.108 71.0265V69.1045C382.108 66.3588 381.009 64.1013 378.813 62.3318C376.677 60.5014 374.084 59.5861 371.033 59.5861C366.396 59.5861 362.674 61.4776 359.867 65.2606L352.18 59.9522C354.315 57.0845 356.969 54.8879 360.142 53.3625C363.376 51.8372 367.006 51.0745 371.033 51.0745C377.684 51.0745 382.809 52.7524 386.409 56.1082C390.07 59.4031 391.901 64.0708 391.901 70.1113V97.9344H382.108V92.3514H381.558C380.094 94.426 378.233 96.1344 375.976 97.4767C373.718 98.7581 371.033 99.3987 367.921 99.3987ZM369.569 91.0701C371.826 91.0701 373.901 90.521 375.792 89.4227C377.745 88.2634 379.27 86.7685 380.369 84.9381C381.528 83.0466 382.108 81.0331 382.108 78.8975C378.874 77.1281 375.426 76.2433 371.765 76.2433C368.41 76.2433 365.786 76.9755 363.894 78.4399C362.003 79.9043 361.057 81.7652 361.057 84.0228C361.057 86.0973 361.881 87.8058 363.528 89.1481C365.237 90.4295 367.25 91.0701 369.569 91.0701Z" fill="#5A5A5A"/>
<path d="M325.684 99.3983C322.389 99.3983 319.43 98.6966 316.806 97.2933C314.244 95.8899 312.322 94.1205 311.04 91.9849H310.491V97.9339H300.973V32.4033H311.04V52.0808L310.491 58.3959H311.04C312.322 56.3214 314.244 54.5824 316.806 53.1791C319.43 51.7757 322.389 51.0741 325.684 51.0741C329.589 51.0741 333.189 52.1113 336.484 54.1858C339.84 56.2604 342.494 59.1586 344.446 62.8805C346.46 66.5415 347.466 70.66 347.466 75.2362C347.466 79.8123 346.46 83.9309 344.446 87.5918C342.494 91.2527 339.84 94.151 336.484 96.2865C333.189 98.361 329.589 99.3983 325.684 99.3983ZM323.945 90.1545C326.325 90.1545 328.521 89.5443 330.535 88.324C332.609 87.1037 334.257 85.3648 335.477 83.1072C336.758 80.7886 337.399 78.1649 337.399 75.2362C337.399 72.3074 336.758 69.7143 335.477 67.4567C334.257 65.1381 332.609 63.3687 330.535 62.1484C328.521 60.9281 326.325 60.3179 323.945 60.3179C321.565 60.3179 319.338 60.9281 317.264 62.1484C315.25 63.3687 313.603 65.1076 312.322 67.3652C311.101 69.6228 310.491 72.2464 310.491 75.2362C310.491 78.2259 311.101 80.8496 312.322 83.1072C313.603 85.3648 315.25 87.1037 317.264 88.324C319.338 89.5443 321.565 90.1545 323.945 90.1545Z" fill="#5A5A5A"/>
<path d="M273.192 99.3988C268.738 99.3988 264.711 98.3616 261.111 96.2871C257.572 94.2125 254.795 91.3448 252.782 87.6839C250.768 83.9619 249.762 79.8129 249.762 75.2367C249.762 70.8436 250.707 66.8166 252.599 63.1556C254.551 59.4337 257.267 56.505 260.745 54.3694C264.222 52.1729 268.188 51.0746 272.643 51.0746C277.219 51.0746 281.185 52.0813 284.541 54.0949C287.957 56.1084 290.551 58.9151 292.32 62.515C294.089 66.0539 294.974 70.1419 294.974 74.7791C294.974 75.3282 294.944 75.8774 294.883 76.4265C294.822 76.9757 294.791 77.2807 294.791 77.3418H259.829C260.134 81.4908 261.629 84.6941 264.314 86.9517C266.999 89.2093 270.049 90.338 273.466 90.338C278.714 90.338 282.741 87.8974 285.547 83.0162L294.15 87.1347C292.137 90.8567 289.33 93.8464 285.73 96.104C282.191 98.3006 278.012 99.3988 273.192 99.3988ZM284.724 69.6538C284.602 68.1894 284.113 66.6945 283.259 65.1692C282.405 63.6438 281.063 62.3624 279.232 61.3252C277.463 60.2269 275.236 59.6778 272.551 59.6778C269.561 59.6778 266.968 60.593 264.772 62.4235C262.636 64.2539 261.172 66.664 260.378 69.6538H284.724Z" fill="#5A5A5A"/>
<path d="M221.822 52.5389H231.341V59.3116H231.89C232.866 56.9931 234.636 55.0711 237.198 53.5457C239.761 51.9593 242.384 51.1661 245.069 51.1661C247.266 51.1661 249.066 51.4712 250.469 52.0813V62.6065C248.395 61.5692 246.076 61.0506 243.513 61.0506C240.218 61.0506 237.442 62.3319 235.185 64.8946C232.988 67.3962 231.89 70.4775 231.89 74.1384V97.9344H221.822V52.5389Z" fill="#5A5A5A"/>
<path d="M207.452 44.8506C205.561 44.8506 203.944 44.2099 202.602 42.9286C201.32 41.5863 200.68 39.9694 200.68 38.0779C200.68 36.1864 201.32 34.6 202.602 33.3187C203.944 31.9763 205.561 31.3052 207.452 31.3052C209.344 31.3052 210.93 31.9763 212.212 33.3187C213.554 34.6 214.225 36.1864 214.225 38.0779C214.225 39.9694 213.554 41.5863 212.212 42.9286C210.93 44.2099 209.344 44.8506 207.452 44.8506ZM202.419 52.5386H212.486V97.9341H202.419V52.5386Z" fill="#5A5A5A"/>
<path d="M156.562 32.4034H196.375V42.1964H166.813V61.0502H193.446V70.7517H166.813V97.9341H156.562V32.4034Z" fill="#5A5A5A"/>
<path d="M31.6562 118.1C36.7084 120.133 42.1896 121.34 47.9447 121.541C55.7335 121.813 63.1403 120.202 69.7616 117.143C61.8214 114.024 54.6303 109.461 48.4929 103.79C44.5147 110.159 38.6305 115.19 31.6562 118.1Z" fill="#FF9100"/>
<path d="M48.4923 103.791C34.4827 90.8342 25.9838 72.0806 26.7021 51.5112C26.7254 50.8433 26.7607 50.1757 26.8019 49.5084C24.2928 48.8595 21.6734 48.4635 18.9777 48.3694C15.1191 48.2346 11.3823 48.7132 7.85452 49.7066C4.11472 56.2577 1.85787 63.7742 1.57672 71.8254C0.851127 92.6036 13.4253 110.759 31.6556 118.101C38.63 115.192 44.5139 110.167 48.4923 103.791Z" fill="#FFC400"/>
<path d="M48.4937 103.791C51.7509 98.5782 53.7258 92.4671 53.9557 85.8829C54.5605 68.5638 42.9175 53.6653 26.8033 49.5079C26.762 50.1753 26.7268 50.8428 26.7035 51.5108C25.9852 72.0802 34.484 90.8338 48.4937 103.791Z" fill="#FF9100"/>
<path d="M52.1543 0.825138C42.9766 8.17757 35.7294 17.8724 31.3447 29.0406C28.8344 35.4376 27.2569 42.309 26.7964 49.5121C42.9106 53.6694 54.5536 68.568 53.9488 85.8871C53.7189 92.4712 51.7382 98.5762 48.4868 103.795C54.6239 109.473 61.8153 114.029 69.7555 117.149C85.693 109.781 97.0006 93.9289 97.6554 75.1785C98.0796 63.0301 93.4121 52.2026 86.8167 43.0633C79.8515 33.3976 52.1543 0.825138 52.1543 0.825138Z" fill="#DD2C00"/>
<g filter="url(#filter0_d_47_1010)">
<circle cx="100" cy="90" r="30" fill="white"/>
<path fill-rule="evenodd" clip-rule="evenodd" d="M91.75 100.5C89.475 100.5 87.5312 99.7126 85.9188 98.1376C84.3063 96.5626 83.5 94.6376 83.5 92.3626C83.5 90.4126 84.0875 88.6751 85.2625 87.1501C86.4375 85.6251 87.975 84.6501 89.875 84.2251C90.5 81.9251 91.75 80.0626 93.625 78.6376C95.5 77.2126 97.625 76.5001 100 76.5001C102.925 76.5001 105.406 77.5188 107.444 79.5563C109.481 81.5938 110.5 84.0751 110.5 87.0001C112.225 87.2001 113.656 87.9438 114.794 89.2313C115.931 90.5188 116.5 92.0251 116.5 93.7501C116.5 93.8037 116.499 93.857 116.498 93.9101L113.358 92.6765C113.191 92.0805 112.876 91.5509 112.412 91.0876C111.688 90.3626 110.8 90.0001 109.75 90.0001H107.5V87.0001C107.5 84.9251 106.769 83.1563 105.306 81.6938C103.844 80.2313 102.075 79.5001 100 79.5001C97.925 79.5001 96.1562 80.2313 94.6938 81.6938C93.2313 83.1563 92.5 84.9251 92.5 87.0001H91.75C90.3 87.0001 89.0625 87.5126 88.0375 88.5376C87.0125 89.5626 86.5 90.8001 86.5 92.2501C86.5 93.7001 87.0125 94.9376 88.0375 95.9626C89.0625 96.9876 90.3 97.5001 91.75 97.5001H97V100.5H91.75ZM100 99.3751V105L118 97.5001L100 90.0001V95.6251L107.579 97.5001L100 99.3751Z" fill="#1F1F1F"/>
</g>
<defs>
<filter id="filter0_d_47_1010" x="68" y="58.6704" width="64" height="64" filterUnits="userSpaceOnUse" color-interpolation-filters="sRGB">
<feFlood flood-opacity="0" result="BackgroundImageFix"/>
<feColorMatrix in="SourceAlpha" type="matrix" values="0 0 0 0 0 0 0 0 0 0 0 0 0 0 0 0 0 0 127 0" result="hardAlpha"/>
<feOffset dy="0.670408"/>
<feGaussianBlur stdDeviation="1"/>
<feComposite in2="hardAlpha" operator="out"/>
<feColorMatrix type="matrix" values="0 0 0 0 0 0 0 0 0 0 0 0 0 0 0 0 0 0 0.3 0"/>
<feBlend mode="normal" in2="BackgroundImageFix" result="effect1_dropShadow_47_1010"/>
<feBlend mode="normal" in="SourceGraphic" in2="effect1_dropShadow_47_1010" result="shape"/>
</filter>
</defs>
</svg>
