<svg width="1551" height="128" viewBox="0 0 1551 128" fill="none" xmlns="http://www.w3.org/2000/svg">
<path d="M537.418 100.872C531.044 100.872 525.253 99.371 520.043 96.368C514.834 93.365 510.728 89.2589 507.725 84.0497C504.783 78.7791 503.313 72.9264 503.313 66.4915C503.313 60.0565 504.783 54.2344 507.725 49.0252C510.728 43.7546 514.834 39.6179 520.043 36.6149C525.253 33.6119 531.044 32.1105 537.418 32.1105C542.321 32.1105 546.794 33.0604 550.839 34.9602C554.945 36.7988 558.5 39.434 561.503 42.866L555.895 48.2897C553.383 45.2868 550.625 43.0805 547.622 41.6709C544.68 40.2614 541.279 39.5566 537.418 39.5566C532.638 39.5566 528.256 40.6904 524.272 42.9579C520.289 45.1642 517.102 48.3204 514.712 52.4265C512.383 56.4713 511.218 61.1596 511.218 66.4915C511.218 71.8233 512.383 76.5422 514.712 80.6483C517.102 84.6932 520.289 87.8493 524.272 90.1169C528.256 92.3232 532.638 93.4263 537.418 93.4263C545.385 93.4263 552.157 90.1475 557.734 83.59L563.433 89.1057C560.369 92.7215 556.6 95.6019 552.126 97.7469C547.652 99.8306 542.75 100.872 537.418 100.872ZM570.369 33.5813H578.183V99.4016H570.369V33.5813ZM609.075 100.872C604.479 100.872 600.342 99.7693 596.665 97.5631C592.988 95.3568 590.108 92.3538 588.024 88.5541C586.002 84.7544 584.99 80.5564 584.99 75.96C584.99 71.3636 586.002 67.1656 588.024 63.3659C590.108 59.5662 592.988 56.5633 596.665 54.357C600.342 52.1507 604.479 51.0476 609.075 51.0476C613.672 51.0476 617.809 52.1507 621.486 54.357C625.163 56.5633 628.013 59.5662 630.035 63.3659C632.119 67.1656 633.161 71.3636 633.161 75.96C633.161 80.5564 632.119 84.7544 630.035 88.5541C628.013 92.3538 625.163 95.3568 621.486 97.5631C617.809 99.7693 613.672 100.872 609.075 100.872ZM609.075 93.794C611.956 93.794 614.622 93.0892 617.073 91.6797C619.586 90.2088 621.578 88.1251 623.048 85.4286C624.581 82.732 625.347 79.5758 625.347 75.96C625.347 72.3442 624.581 69.188 623.048 66.4915C621.578 63.7949 619.586 61.7419 617.073 60.3323C614.622 58.8614 611.956 58.126 609.075 58.126C606.195 58.126 603.499 58.8614 600.986 60.3323C598.473 61.7419 596.451 63.7949 594.919 66.4915C593.448 69.188 592.712 72.3442 592.712 75.96C592.712 79.5758 593.448 82.732 594.919 85.4286C596.451 88.1251 598.473 90.2088 600.986 91.6797C603.499 93.0892 606.195 93.794 609.075 93.794ZM656.953 100.872C651.315 100.872 646.994 99.2178 643.992 95.9084C641.05 92.599 639.579 87.9719 639.579 82.0273V52.5184H647.393V80.8322C647.393 85.306 648.404 88.5848 650.426 90.6685C652.449 92.7522 655.176 93.794 658.608 93.794C661.243 93.794 663.572 93.0892 665.595 91.6797C667.678 90.2701 669.272 88.4316 670.375 86.164C671.539 83.8965 672.121 81.5063 672.121 78.9936V52.5184H679.935V99.4016H672.489V92.599H672.121C670.834 94.9278 668.781 96.8889 665.962 98.4823C663.143 100.076 660.14 100.872 656.953 100.872ZM709.046 100.872C704.878 100.872 701.078 99.8 697.646 97.655C694.276 95.51 691.61 92.5683 689.649 88.8299C687.688 85.0302 686.707 80.7403 686.707 75.96C686.707 71.2411 687.688 66.9817 689.649 63.1821C691.61 59.3824 694.276 56.41 697.646 54.2651C701.078 52.1201 704.878 51.0476 709.046 51.0476C712.661 51.0476 715.879 51.8749 718.698 53.5296C721.517 55.1231 723.662 57.1148 725.133 59.5049H725.501L725.133 52.9781V33.5813H732.947V99.4016H725.501V92.507H725.133C723.662 94.8359 721.517 96.8276 718.698 98.4823C715.879 100.076 712.661 100.872 709.046 100.872ZM709.965 93.794C712.723 93.794 715.266 93.0586 717.595 91.5877C719.985 90.1169 721.885 88.0332 723.294 85.3367C724.765 82.6401 725.501 79.5146 725.501 75.96C725.501 72.4055 724.765 69.2799 723.294 66.5834C721.885 63.8868 719.985 61.8031 717.595 60.3323C715.266 58.8614 712.723 58.126 709.965 58.126C707.268 58.126 704.725 58.8614 702.335 60.3323C699.945 61.8031 698.014 63.9175 696.543 66.6753C695.134 69.3719 694.429 72.4668 694.429 75.96C694.429 79.4533 695.134 82.5788 696.543 85.3367C698.014 88.0332 699.945 90.1169 702.335 91.5877C704.725 93.0586 707.268 93.794 709.965 93.794ZM779.344 100.872C774.196 100.872 769.477 99.3097 765.187 96.1841C760.897 93.0586 757.955 88.6767 756.362 83.0385L763.808 80.0048C764.85 83.9271 766.78 87.1446 769.599 89.6573C772.418 92.17 775.728 93.4263 779.528 93.4263C783.327 93.4263 786.545 92.4151 789.18 90.3927C791.815 88.309 793.133 85.4899 793.133 81.9353C793.133 78.8711 791.999 76.3584 789.732 74.3972C787.525 72.3748 783.879 70.5056 778.792 68.7897L774.655 67.3188C769.998 65.6641 766.198 63.4885 763.256 60.7919C760.315 58.0954 758.844 54.357 758.844 49.5767C758.844 46.4512 759.702 43.5708 761.418 40.9355C763.134 38.239 765.524 36.094 768.588 34.5006C771.652 32.9072 775.084 32.1105 778.884 32.1105C782.684 32.1105 785.993 32.8152 788.812 34.2248C791.631 35.6344 793.868 37.3503 795.523 39.3728C797.239 41.3952 798.434 43.3869 799.108 45.3481L791.754 48.4736C791.141 46.2061 789.732 44.153 787.525 42.3144C785.38 40.4759 782.531 39.5566 778.976 39.5566C775.605 39.5566 772.725 40.5065 770.335 42.4064C767.945 44.3062 766.75 46.6963 766.75 49.5767C766.75 52.1507 767.761 54.2651 769.783 55.9198C771.806 57.5132 774.87 59.0147 778.976 60.4242L783.297 61.8951C788.874 63.9175 793.225 66.4608 796.35 69.5251C799.476 72.528 801.039 76.6342 801.039 81.8434C801.039 86.0721 799.936 89.6266 797.729 92.507C795.584 95.3874 792.857 97.5018 789.548 98.85C786.238 100.198 782.837 100.872 779.344 100.872ZM824.77 100.137C822.871 100.137 821.093 99.8306 819.439 99.2178C817.845 98.6049 816.497 97.7776 815.394 96.7357C814.168 95.5713 813.249 94.223 812.636 92.6909C812.023 91.1588 811.717 89.2896 811.717 87.0833V59.5969H803.535V52.5184H811.717V39.2808H819.531V52.5184H830.93V59.5969H819.531V85.1528C819.531 87.7268 820.021 89.6266 821.001 90.8523C822.166 92.2006 823.851 92.8747 826.057 92.8747C827.835 92.8747 829.551 92.3538 831.205 91.312V98.942C830.286 99.371 829.336 99.6774 828.356 99.8613C827.436 100.045 826.241 100.137 824.77 100.137ZM858.117 100.872C853.521 100.872 849.384 99.7693 845.707 97.5631C842.03 95.3568 839.149 92.3538 837.066 88.5541C835.043 84.7544 834.032 80.5564 834.032 75.96C834.032 71.3636 835.043 67.1656 837.066 63.3659C839.149 59.5662 842.03 56.5633 845.707 54.357C849.384 52.1507 853.521 51.0476 858.117 51.0476C862.714 51.0476 866.85 52.1507 870.527 54.357C874.205 56.5633 877.054 59.5662 879.077 63.3659C881.16 67.1656 882.202 71.3636 882.202 75.96C882.202 80.5564 881.16 84.7544 879.077 88.5541C877.054 92.3538 874.205 95.3568 870.527 97.5631C866.85 99.7693 862.714 100.872 858.117 100.872ZM858.117 93.794C860.998 93.794 863.664 93.0892 866.115 91.6797C868.628 90.2088 870.619 88.1251 872.09 85.4286C873.622 82.732 874.388 79.5758 874.388 75.96C874.388 72.3442 873.622 69.188 872.09 66.4915C870.619 63.7949 868.628 61.7419 866.115 60.3323C863.664 58.8614 860.998 58.126 858.117 58.126C855.237 58.126 852.54 58.8614 850.028 60.3323C847.515 61.7419 845.492 63.7949 843.96 66.4915C842.49 69.188 841.754 72.3442 841.754 75.96C841.754 79.5758 842.49 82.732 843.96 85.4286C845.492 88.1251 847.515 90.2088 850.028 91.6797C852.54 93.0892 855.237 93.794 858.117 93.794ZM888.54 52.5184H895.986V60.0565H896.353C897.273 57.4825 899.05 55.3682 901.685 53.7135C904.321 51.9975 907.078 51.1395 909.959 51.1395C912.104 51.1395 913.942 51.4459 915.474 52.0588V60.5161C913.513 59.5356 911.307 59.0453 908.856 59.0453C906.588 59.0453 904.504 59.6888 902.605 60.9758C900.705 62.2628 899.173 64.0094 898.008 66.2157C896.905 68.3607 896.353 70.6895 896.353 73.2022V99.4016H888.54V52.5184ZM934.363 100.872C930.931 100.872 927.866 100.198 925.17 98.85C922.473 97.5018 920.39 95.6632 918.919 93.3344C917.448 90.9443 916.713 88.2477 916.713 85.2447C916.713 80.2806 918.582 76.4197 922.32 73.6618C926.059 70.8427 930.778 69.4331 936.477 69.4331C939.296 69.4331 941.901 69.7396 944.291 70.3524C946.742 70.9653 948.612 71.6701 949.899 72.4668V69.617C949.899 66.1237 948.673 63.3353 946.221 61.2516C943.77 59.1066 940.675 58.0341 936.937 58.0341C934.301 58.0341 931.881 58.6163 929.674 59.7807C927.468 60.8839 925.722 62.4466 924.435 64.469L918.551 60.0565C920.39 57.2374 922.902 55.0311 926.089 53.4377C929.337 51.8443 932.923 51.0476 936.845 51.0476C943.218 51.0476 948.213 52.7329 951.829 56.1036C955.506 59.413 957.345 63.9481 957.345 69.7089V99.4016H949.899V92.6909H949.531C948.183 94.9584 946.16 96.8889 943.464 98.4823C940.767 100.076 937.733 100.872 934.363 100.872ZM935.098 93.9779C937.733 93.9779 940.185 93.3037 942.452 91.9555C944.72 90.6072 946.528 88.7993 947.876 86.5317C949.224 84.2642 949.899 81.7821 949.899 79.0856C948.428 78.105 946.62 77.3083 944.475 76.6954C942.33 76.0826 940.062 75.7762 937.672 75.7762C933.382 75.7762 930.134 76.6648 927.928 78.4421C925.783 80.2193 924.71 82.5175 924.71 85.3367C924.71 87.9106 925.691 89.9943 927.652 91.5877C929.613 93.1812 932.095 93.9779 935.098 93.9779ZM986.52 120.729C981.004 120.729 976.438 119.442 972.822 116.868C969.268 114.294 966.878 111.199 965.652 107.583L972.73 104.55C973.772 107.246 975.488 109.422 977.878 111.076C980.33 112.792 983.21 113.65 986.52 113.65C991.361 113.65 995.099 112.241 997.735 109.422C1000.43 106.603 1001.78 102.619 1001.78 97.4711V92.2312H1001.41C999.88 94.6214 997.704 96.5825 994.885 98.1146C992.127 99.5855 988.971 100.321 985.416 100.321C981.372 100.321 977.664 99.279 974.293 97.1953C970.984 95.1116 968.348 92.2006 966.387 88.4622C964.426 84.7238 963.446 80.4645 963.446 75.6842C963.446 70.9653 964.426 66.7366 966.387 62.9982C968.348 59.1985 970.984 56.2568 974.293 54.1731C977.664 52.0894 981.372 51.0476 985.416 51.0476C988.971 51.0476 992.127 51.8136 994.885 53.3458C997.704 54.8166 999.88 56.7778 1001.41 59.2292H1001.78V52.5184H1009.23V97.5631C1009.23 105.101 1007.14 110.831 1002.97 114.754C998.807 118.737 993.322 120.729 986.52 120.729ZM986.52 93.2424C989.339 93.2424 991.882 92.5377 994.15 91.1281C996.478 89.7185 998.317 87.6961 999.665 85.0609C1001.07 82.4256 1001.78 79.3001 1001.78 75.6842C1001.78 72.0071 1001.07 68.8509 999.665 66.2157C998.317 63.5804 996.478 61.5886 994.15 60.2404C991.882 58.8308 989.339 58.126 986.52 58.126C983.7 58.126 981.126 58.8308 978.798 60.2404C976.469 61.6499 974.6 63.6723 973.19 66.3076C971.842 68.9429 971.168 72.0684 971.168 75.6842C971.168 79.3001 971.842 82.4563 973.19 85.1528C974.6 87.7881 976.469 89.8105 978.798 91.22C981.126 92.5683 983.7 93.2424 986.52 93.2424ZM1039.36 100.872C1034.89 100.872 1030.87 99.8 1027.32 97.655C1023.76 95.51 1020.97 92.5683 1018.95 88.8299C1016.99 85.0302 1016.01 80.7709 1016.01 76.0519C1016.01 71.5168 1016.93 67.3494 1018.77 63.5498C1020.67 59.7501 1023.33 56.7165 1026.77 54.4489C1030.2 52.1814 1034.18 51.0476 1038.72 51.0476C1043.31 51.0476 1047.3 52.0894 1050.67 54.1731C1054.04 56.1955 1056.61 59.0147 1058.39 62.6305C1060.23 66.2463 1061.15 70.3831 1061.15 75.0407C1061.15 75.96 1061.05 76.7567 1060.87 77.4309H1023.82C1024.01 80.9854 1024.87 83.9884 1026.4 86.4398C1027.93 88.8912 1029.86 90.7298 1032.19 91.9555C1034.58 93.1812 1037.06 93.794 1039.64 93.794C1045.64 93.794 1050.27 90.9749 1053.52 85.3367L1060.14 88.5541C1058.11 92.3538 1055.35 95.3568 1051.86 97.5631C1048.43 99.7693 1044.26 100.872 1039.36 100.872ZM1052.87 70.9959C1052.75 69.0348 1052.2 67.0737 1051.22 65.1125C1050.24 63.1514 1048.67 61.4967 1046.53 60.1484C1044.45 58.8002 1041.81 58.126 1038.62 58.126C1034.95 58.126 1031.82 59.3211 1029.25 61.7112C1026.73 64.04 1025.08 67.135 1024.28 70.9959H1052.87ZM1091.61 59.5969H1082.97V52.5184H1091.61V47.4624C1091.61 44.5207 1092.28 41.9467 1093.63 39.7405C1094.98 37.5342 1096.79 35.8489 1099.05 34.6844C1101.32 33.4587 1103.83 32.8459 1106.59 32.8459C1109.23 32.8459 1111.53 33.2136 1113.49 33.949V41.579C1112.38 41.15 1111.34 40.813 1110.36 40.5678C1109.38 40.2614 1108.22 40.1082 1106.87 40.1082C1104.85 40.1082 1103.1 40.8436 1101.63 42.3144C1100.16 43.724 1099.42 45.7158 1099.42 48.2897V52.5184H1111.46V59.5969H1099.42V99.4016H1091.61V59.5969ZM1137.91 100.872C1133.31 100.872 1129.17 99.7693 1125.5 97.5631C1121.82 95.3568 1118.94 92.3538 1116.86 88.5541C1114.83 84.7544 1113.82 80.5564 1113.82 75.96C1113.82 71.3636 1114.83 67.1656 1116.86 63.3659C1118.94 59.5662 1121.82 56.5633 1125.5 54.357C1129.17 52.1507 1133.31 51.0476 1137.91 51.0476C1142.5 51.0476 1146.64 52.1507 1150.32 54.357C1154 56.5633 1156.85 59.5662 1158.87 63.3659C1160.95 67.1656 1161.99 71.3636 1161.99 75.96C1161.99 80.5564 1160.95 84.7544 1158.87 88.5541C1156.85 92.3538 1154 95.3568 1150.32 97.5631C1146.64 99.7693 1142.5 100.872 1137.91 100.872ZM1137.91 93.794C1140.79 93.794 1143.45 93.0892 1145.91 91.6797C1148.42 90.2088 1150.41 88.1251 1151.88 85.4286C1153.41 82.732 1154.18 79.5758 1154.18 75.96C1154.18 72.3442 1153.41 69.188 1151.88 66.4915C1150.41 63.7949 1148.42 61.7419 1145.91 60.3323C1143.45 58.8614 1140.79 58.126 1137.91 58.126C1135.03 58.126 1132.33 58.8614 1129.82 60.3323C1127.31 61.7419 1125.28 63.7949 1123.75 66.4915C1122.28 69.188 1121.54 72.3442 1121.54 75.96C1121.54 79.5758 1122.28 82.732 1123.75 85.4286C1125.28 88.1251 1127.31 90.2088 1129.82 91.6797C1132.33 93.0892 1135.03 93.794 1137.91 93.794ZM1168.33 52.5184H1175.78V60.0565H1176.14C1177.06 57.4825 1178.84 55.3682 1181.48 53.7135C1184.11 51.9975 1186.87 51.1395 1189.75 51.1395C1191.89 51.1395 1193.73 51.4459 1195.27 52.0588V60.5161C1193.3 59.5356 1191.1 59.0453 1188.65 59.0453C1186.38 59.0453 1184.3 59.6888 1182.4 60.9758C1180.5 62.2628 1178.96 64.0094 1177.8 66.2157C1176.7 68.3607 1176.14 70.6895 1176.14 73.2022V99.4016H1168.33V52.5184ZM1222.06 33.5813H1260.11V41.0275H1229.78V63.5498H1257.17V70.904H1229.78V99.4016H1222.06V33.5813ZM1271.19 43.8772C1269.66 43.8772 1268.34 43.3256 1267.24 42.2225C1266.13 41.1194 1265.58 39.8017 1265.58 38.2696C1265.58 36.7375 1266.13 35.4505 1267.24 34.4087C1268.34 33.3055 1269.66 32.754 1271.19 32.754C1272.72 32.754 1274.04 33.3055 1275.14 34.4087C1276.25 35.4505 1276.8 36.7375 1276.8 38.2696C1276.8 39.8017 1276.25 41.1194 1275.14 42.2225C1274.1 43.3256 1272.78 43.8772 1271.19 43.8772ZM1267.33 52.5184H1275.05V99.4016H1267.33V52.5184ZM1285.49 52.5184H1292.94V60.0565H1293.31C1294.22 57.4825 1296 55.3682 1298.64 53.7135C1301.27 51.9975 1304.03 51.1395 1306.91 51.1395C1309.06 51.1395 1310.89 51.4459 1312.43 52.0588V60.5161C1310.47 59.5356 1308.26 59.0453 1305.81 59.0453C1303.54 59.0453 1301.46 59.6888 1299.56 60.9758C1297.66 62.2628 1296.12 64.0094 1294.96 66.2157C1293.86 68.3607 1293.31 70.6895 1293.31 73.2022V99.4016H1285.49V52.5184ZM1336.21 100.872C1331.74 100.872 1327.72 99.8 1324.17 97.655C1320.61 95.51 1317.83 92.5683 1315.8 88.8299C1313.84 85.0302 1312.86 80.7709 1312.86 76.0519C1312.86 71.5168 1313.78 67.3494 1315.62 63.5498C1317.52 59.7501 1320.18 56.7165 1323.62 54.4489C1327.05 52.1814 1331.03 51.0476 1335.57 51.0476C1340.16 51.0476 1344.15 52.0894 1347.52 54.1731C1350.89 56.1955 1353.46 59.0147 1355.24 62.6305C1357.08 66.2463 1358 70.3831 1358 75.0407C1358 75.96 1357.91 76.7567 1357.72 77.4309H1320.67C1320.86 80.9854 1321.72 83.9884 1323.25 86.4398C1324.78 88.8912 1326.71 90.7298 1329.04 91.9555C1331.43 93.1812 1333.91 93.794 1336.49 93.794C1342.49 93.794 1347.12 90.9749 1350.37 85.3367L1356.99 88.5541C1354.96 92.3538 1352.21 95.3568 1348.71 97.5631C1345.28 99.7693 1341.11 100.872 1336.21 100.872ZM1349.72 70.9959C1349.6 69.0348 1349.05 67.0737 1348.07 65.1125C1347.09 63.1514 1345.53 61.4967 1343.38 60.1484C1341.3 58.8002 1338.66 58.126 1335.48 58.126C1331.8 58.126 1328.67 59.3211 1326.1 61.7112C1323.59 64.04 1321.93 67.135 1321.13 70.9959H1349.72ZM1389.11 100.872C1385.56 100.872 1382.34 100.076 1379.46 98.4823C1376.64 96.8276 1374.53 94.8359 1373.12 92.507H1372.75V99.4016H1365.3V33.5813H1373.12V52.9781L1372.75 59.5049H1373.12C1374.53 57.1148 1376.64 55.1231 1379.46 53.5296C1382.34 51.8749 1385.56 51.0476 1389.11 51.0476C1393.28 51.0476 1397.08 52.1201 1400.51 54.2651C1403.94 56.41 1406.64 59.3824 1408.6 63.1821C1410.56 66.9817 1411.54 71.2411 1411.54 75.96C1411.54 80.7403 1410.56 85.0302 1408.6 88.8299C1406.64 92.5683 1403.94 95.51 1400.51 97.655C1397.08 99.8 1393.28 100.872 1389.11 100.872ZM1388.19 93.794C1390.89 93.794 1393.43 93.0586 1395.82 91.5877C1398.21 90.1169 1400.11 88.0332 1401.52 85.3367C1402.99 82.5788 1403.73 79.4533 1403.73 75.96C1403.73 72.4668 1402.99 69.3719 1401.52 66.6753C1400.11 63.9175 1398.21 61.8031 1395.82 60.3323C1393.43 58.8614 1390.89 58.126 1388.19 58.126C1385.5 58.126 1382.95 58.8614 1380.56 60.3323C1378.17 61.8031 1376.27 63.8868 1374.86 66.5834C1373.45 69.2799 1372.75 72.4055 1372.75 75.96C1372.75 79.5146 1373.45 82.6401 1374.86 85.3367C1376.27 88.0332 1378.17 90.1169 1380.56 91.5877C1382.95 93.0586 1385.5 93.794 1388.19 93.794ZM1433.75 100.872C1430.32 100.872 1427.25 100.198 1424.56 98.85C1421.86 97.5018 1419.78 95.6632 1418.31 93.3344C1416.84 90.9443 1416.1 88.2477 1416.1 85.2447C1416.1 80.2806 1417.97 76.4197 1421.71 73.6618C1425.45 70.8427 1430.16 69.4331 1435.86 69.4331C1438.68 69.4331 1441.29 69.7396 1443.68 70.3524C1446.13 70.9653 1448 71.6701 1449.29 72.4668V69.617C1449.29 66.1237 1448.06 63.3353 1445.61 61.2516C1443.16 59.1066 1440.06 58.0341 1436.32 58.0341C1433.69 58.0341 1431.27 58.6163 1429.06 59.7807C1426.86 60.8839 1425.11 62.4466 1423.82 64.469L1417.94 60.0565C1419.78 57.2374 1422.29 55.0311 1425.48 53.4377C1428.72 51.8443 1432.31 51.0476 1436.23 51.0476C1442.61 51.0476 1447.6 52.7329 1451.22 56.1036C1454.89 59.413 1456.73 63.9481 1456.73 69.7089V99.4016H1449.29V92.6909H1448.92C1447.57 94.9584 1445.55 96.8889 1442.85 98.4823C1440.15 100.076 1437.12 100.872 1433.75 100.872ZM1434.49 93.9779C1437.12 93.9779 1439.57 93.3037 1441.84 91.9555C1444.11 90.6072 1445.91 88.7993 1447.26 86.5317C1448.61 84.2642 1449.29 81.7821 1449.29 79.0856C1447.81 78.105 1446.01 77.3083 1443.86 76.6954C1441.72 76.0826 1439.45 75.7762 1437.06 75.7762C1432.77 75.7762 1429.52 76.6648 1427.31 78.4421C1425.17 80.2193 1424.1 82.5175 1424.1 85.3367C1424.1 87.9106 1425.08 89.9943 1427.04 91.5877C1429 93.1812 1431.48 93.9779 1434.49 93.9779ZM1481.68 100.872C1476.65 100.872 1472.45 99.708 1469.08 97.3792C1465.71 94.9891 1463.32 91.9555 1461.91 88.2783L1468.9 85.1528C1470.06 87.9719 1471.78 90.1475 1474.05 91.6797C1476.38 93.2118 1478.92 93.9779 1481.68 93.9779C1484.62 93.9779 1487.13 93.3957 1489.22 92.2312C1491.3 91.0055 1492.34 89.2896 1492.34 87.0833C1492.34 85.1222 1491.51 83.5594 1489.86 82.395C1488.2 81.1693 1485.6 80.1274 1482.05 79.2694L1476.35 77.7986C1472.61 76.8793 1469.54 75.3165 1467.15 73.1103C1464.76 70.904 1463.57 68.0542 1463.57 64.561C1463.57 61.8644 1464.36 59.5049 1465.96 57.4825C1467.61 55.3988 1469.79 53.8054 1472.49 52.7023C1475.18 51.5992 1478.09 51.0476 1481.22 51.0476C1485.32 51.0476 1488.97 51.9362 1492.16 53.7135C1495.41 55.4908 1497.7 57.9728 1499.05 61.1596L1492.25 64.2852C1490.17 60.1178 1486.46 58.0341 1481.13 58.0341C1478.55 58.0341 1476.28 58.647 1474.32 59.8727C1472.42 61.0371 1471.47 62.5386 1471.47 64.3771C1471.47 66.0931 1472.15 67.5027 1473.5 68.6058C1474.84 69.6476 1476.87 70.5056 1479.56 71.1798L1486.37 72.9264C1490.96 74.0908 1494.43 75.8374 1496.75 78.1663C1499.08 80.4338 1500.25 83.2223 1500.25 86.5317C1500.25 89.4121 1499.42 91.9555 1497.77 94.1617C1496.11 96.3067 1493.87 97.9614 1491.05 99.1258C1488.24 100.29 1485.11 100.872 1481.68 100.872ZM1528.24 100.872C1523.77 100.872 1519.75 99.8 1516.2 97.655C1512.65 95.51 1509.86 92.5683 1507.83 88.8299C1505.87 85.0302 1504.89 80.7709 1504.89 76.0519C1504.89 71.5168 1505.81 67.3494 1507.65 63.5498C1509.55 59.7501 1512.22 56.7165 1515.65 54.4489C1519.08 52.1814 1523.06 51.0476 1527.6 51.0476C1532.2 51.0476 1536.18 52.0894 1539.55 54.1731C1542.92 56.1955 1545.49 59.0147 1547.27 62.6305C1549.11 66.2463 1550.03 70.3831 1550.03 75.0407C1550.03 75.96 1549.94 76.7567 1549.75 77.4309H1512.71C1512.89 80.9854 1513.75 83.9884 1515.28 86.4398C1516.81 88.8912 1518.74 90.7298 1521.07 91.9555C1523.46 93.1812 1525.94 93.794 1528.52 93.794C1534.52 93.794 1539.15 90.9749 1542.4 85.3367L1549.02 88.5541C1547 92.3538 1544.24 95.3568 1540.75 97.5631C1537.31 99.7693 1533.15 100.872 1528.24 100.872ZM1541.76 70.9959C1541.63 69.0348 1541.08 67.0737 1540.1 65.1125C1539.12 63.1514 1537.56 61.4967 1535.41 60.1484C1533.33 58.8002 1530.69 58.126 1527.51 58.126C1523.83 58.126 1520.7 59.3211 1518.13 61.7112C1515.62 64.04 1513.96 67.135 1513.17 70.9959H1541.76Z" fill="#5A5A5A"/>
<path d="M461.612 99.8665C457.157 99.8665 453.13 98.8292 449.531 96.7547C445.992 94.6802 443.215 91.8125 441.202 88.1515C439.188 84.4296 438.182 80.2805 438.182 75.7044C438.182 71.3113 439.127 67.2842 441.019 63.6233C442.971 59.9014 445.687 56.9726 449.164 54.8371C452.642 52.6405 456.608 51.5422 461.062 51.5422C465.639 51.5422 469.605 52.549 472.96 54.5625C476.377 56.576 478.97 59.3827 480.74 62.9826C482.509 66.5215 483.394 70.6096 483.394 75.2467C483.394 75.7959 483.364 76.345 483.303 76.8942C483.242 77.4433 483.211 77.7484 483.211 77.8094H448.249C448.554 81.9585 450.049 85.1618 452.734 87.4193C455.419 89.6769 458.469 90.8057 461.886 90.8057C467.133 90.8057 471.161 88.3651 473.967 83.4838L482.57 87.6024C480.557 91.3243 477.75 94.3141 474.15 96.5717C470.611 98.7682 466.432 99.8665 461.612 99.8665ZM473.144 70.1215C473.021 68.6571 472.533 67.1622 471.679 65.6368C470.825 64.1114 469.483 62.8301 467.652 61.7928C465.883 60.6946 463.656 60.1454 460.971 60.1454C457.981 60.1454 455.388 61.0607 453.191 62.8911C451.056 64.7216 449.592 67.1317 448.798 70.1215H473.144Z" fill="#5A5A5A"/>
<path d="M416.087 99.8665C410.9 99.8665 406.599 98.6767 403.182 96.2971C399.826 93.8565 397.446 90.8057 396.043 87.1448L405.012 83.3008C406.05 85.8024 407.544 87.6939 409.497 88.9752C411.51 90.2566 413.707 90.8972 416.087 90.8972C418.588 90.8972 420.632 90.4396 422.219 89.5244C423.805 88.5481 424.598 87.2973 424.598 85.7719C424.598 84.3076 423.958 83.1177 422.676 82.2025C421.395 81.2263 419.29 80.3721 416.361 79.6399L410.138 78.1755C406.721 77.3823 403.761 75.9179 401.26 73.7824C398.819 71.5858 397.599 68.7486 397.599 65.2707C397.599 61.0607 399.338 57.7353 402.816 55.2947C406.294 52.7931 410.565 51.5422 415.629 51.5422C419.839 51.5422 423.561 52.427 426.795 54.1964C430.09 55.9659 432.469 58.5285 433.934 61.8844L425.056 65.6368C424.202 63.7453 422.89 62.342 421.12 61.4267C419.351 60.5115 417.429 60.0539 415.354 60.0539C413.341 60.0539 411.571 60.5115 410.046 61.4267C408.521 62.281 407.758 63.4403 407.758 64.9046C407.758 66.186 408.277 67.2232 409.314 68.0164C410.412 68.8096 412.121 69.4808 414.439 70.0299L421.212 71.6773C425.788 72.8366 429.205 74.6061 431.462 76.9857C433.72 79.3043 434.849 82.111 434.849 85.4058C434.849 88.0905 434.025 90.5311 432.378 92.7277C430.791 94.9242 428.564 96.6632 425.696 97.9445C422.89 99.2258 419.686 99.8665 416.087 99.8665Z" fill="#5A5A5A"/>
<path d="M367.921 99.8665C364.688 99.8665 361.759 99.2258 359.135 97.9445C356.573 96.6022 354.529 94.7717 353.003 92.4531C351.539 90.0735 350.807 87.3888 350.807 84.3991C350.807 79.6399 352.576 75.8874 356.115 73.1417C359.715 70.396 364.261 69.0232 369.752 69.0232C374.572 69.0232 378.691 69.8469 382.108 71.4943V69.5723C382.108 66.8266 381.009 64.569 378.813 62.7996C376.677 60.9691 374.084 60.0539 371.033 60.0539C366.396 60.0539 362.674 61.9454 359.867 65.7283L352.18 60.42C354.315 57.5523 356.969 55.3557 360.142 53.8303C363.376 52.3049 367.006 51.5422 371.033 51.5422C377.684 51.5422 382.809 53.2202 386.409 56.576C390.07 59.8708 391.901 64.5385 391.901 70.5791V98.4021H382.108V92.8192H381.558C380.094 94.8937 378.233 96.6022 375.976 97.9445C373.718 99.2258 371.033 99.8665 367.921 99.8665ZM369.569 91.5379C371.826 91.5379 373.901 90.9887 375.792 89.8905C377.745 88.7312 379.27 87.2363 380.369 85.4058C381.528 83.5143 382.108 81.5008 382.108 79.3653C378.874 77.5958 375.426 76.7111 371.765 76.7111C368.41 76.7111 365.786 77.4433 363.894 78.9077C362.003 80.372 361.057 82.233 361.057 84.4906C361.057 86.5651 361.881 88.2736 363.528 89.6159C365.237 90.8972 367.25 91.5379 369.569 91.5379Z" fill="#5A5A5A"/>
<path d="M325.684 99.8661C322.389 99.8661 319.43 99.1644 316.806 97.7611C314.244 96.3577 312.322 94.5882 311.04 92.4527H310.491V98.4017H300.973V32.8711H311.04V52.5486L310.491 58.8637H311.04C312.322 56.7892 314.244 55.0502 316.806 53.6469C319.43 52.2435 322.389 51.5418 325.684 51.5418C329.589 51.5418 333.189 52.5791 336.484 54.6536C339.84 56.7281 342.494 59.6264 344.446 63.3483C346.46 67.0093 347.466 71.1278 347.466 75.704C347.466 80.2801 346.46 84.3987 344.446 88.0596C342.494 91.7205 339.84 94.6188 336.484 96.7543C333.189 98.8288 329.589 99.8661 325.684 99.8661ZM323.945 90.6222C326.325 90.6222 328.521 90.0121 330.535 88.7918C332.609 87.5715 334.257 85.8325 335.477 83.575C336.758 81.2564 337.399 78.6327 337.399 75.704C337.399 72.7752 336.758 70.1821 335.477 67.9245C334.257 65.6059 332.609 63.8364 330.535 62.6161C328.521 61.3958 326.325 60.7857 323.945 60.7857C321.565 60.7857 319.338 61.3958 317.264 62.6161C315.25 63.8364 313.603 65.5754 312.322 67.833C311.101 70.0905 310.491 72.7142 310.491 75.704C310.491 78.6937 311.101 81.3174 312.322 83.575C313.603 85.8325 315.25 87.5715 317.264 88.7918C319.338 90.0121 321.565 90.6222 323.945 90.6222Z" fill="#5A5A5A"/>
<path d="M273.192 99.8666C268.738 99.8666 264.711 98.8294 261.111 96.7548C257.572 94.6803 254.795 91.8126 252.782 88.1516C250.768 84.4297 249.762 80.2807 249.762 75.7045C249.762 71.3114 250.707 67.2844 252.599 63.6234C254.551 59.9015 257.267 56.9727 260.745 54.8372C264.222 52.6406 268.188 51.5424 272.643 51.5424C277.219 51.5424 281.185 52.5491 284.541 54.5626C287.957 56.5761 290.551 59.3828 292.32 62.9828C294.089 66.5217 294.974 70.6097 294.974 75.2469C294.974 75.796 294.944 76.3452 294.883 76.8943C294.822 77.4434 294.791 77.7485 294.791 77.8095H259.829C260.134 81.9586 261.629 85.1619 264.314 87.4195C266.999 89.677 270.049 90.8058 273.466 90.8058C278.714 90.8058 282.741 88.3652 285.547 83.484L294.15 87.6025C292.137 91.3245 289.33 94.3142 285.73 96.5718C282.191 98.7683 278.012 99.8666 273.192 99.8666ZM284.724 70.1216C284.602 68.6572 284.113 67.1623 283.259 65.6369C282.405 64.1115 281.063 62.8302 279.232 61.793C277.463 60.6947 275.236 60.1455 272.551 60.1455C269.561 60.1455 266.968 61.0608 264.772 62.8912C262.636 64.7217 261.172 67.1318 260.378 70.1216H284.724Z" fill="#5A5A5A"/>
<path d="M221.822 53.0066H231.341V59.7794H231.89C232.866 57.4608 234.636 55.5388 237.198 54.0134C239.761 52.427 242.384 51.6338 245.069 51.6338C247.266 51.6338 249.066 51.9389 250.469 52.549V63.0742C248.395 62.0369 246.076 61.5183 243.513 61.5183C240.218 61.5183 237.442 62.7996 235.185 65.3623C232.988 67.8639 231.89 70.9452 231.89 74.6061V98.4021H221.822V53.0066Z" fill="#5A5A5A"/>
<path d="M207.452 45.3184C205.561 45.3184 203.944 44.6777 202.602 43.3964C201.32 42.0541 200.68 40.4371 200.68 38.5457C200.68 36.6542 201.32 35.0678 202.602 33.7865C203.944 32.4441 205.561 31.7729 207.452 31.7729C209.344 31.7729 210.93 32.4441 212.212 33.7865C213.554 35.0678 214.225 36.6542 214.225 38.5457C214.225 40.4371 213.554 42.0541 212.212 43.3964C210.93 44.6777 209.344 45.3184 207.452 45.3184ZM202.419 53.0063H212.486V98.4018H202.419V53.0063Z" fill="#5A5A5A"/>
<path d="M156.562 32.8712H196.375V42.6642H166.813V61.518H193.446V71.2194H166.813V98.4018H156.562V32.8712Z" fill="#5A5A5A"/>
<path d="M31.6562 118.567C36.7084 120.601 42.1896 121.807 47.9447 122.008C55.7335 122.28 63.1403 120.67 69.7616 117.611C61.8214 114.492 54.6303 109.929 48.4929 104.257C44.5147 110.627 38.6305 115.658 31.6562 118.567Z" fill="#FF9100"/>
<path d="M48.4923 104.259C34.4827 91.302 25.9838 72.5484 26.7021 51.979C26.7254 51.311 26.7607 50.6435 26.8019 49.9762C24.2928 49.3273 21.6734 48.9313 18.9777 48.8371C15.1191 48.7024 11.3823 49.181 7.85452 50.1744C4.11472 56.7255 1.85787 64.242 1.57672 72.2932C0.851127 93.0713 13.4253 111.227 31.6556 118.569C38.63 115.66 44.5139 110.635 48.4923 104.259Z" fill="#FFC400"/>
<path d="M48.4937 104.258C51.7509 99.0459 53.7258 92.9348 53.9557 86.3506C54.5605 69.0316 42.9175 54.133 26.8033 49.9757C26.762 50.643 26.7268 51.3105 26.7035 51.9785C25.9852 72.5479 34.484 91.3015 48.4937 104.258Z" fill="#FF9100"/>
<path d="M52.1543 1.29291C42.9766 8.64534 35.7294 18.3402 31.3447 29.5084C28.8344 35.9054 27.2569 42.7768 26.7964 49.9798C42.9106 54.1372 54.5536 69.0358 53.9488 86.3548C53.7189 92.939 51.7382 99.044 48.4868 104.263C54.6239 109.941 61.8153 114.497 69.7555 117.616C85.693 110.249 97.0006 94.3967 97.6554 75.6462C98.0796 63.4978 93.4121 52.6704 86.8167 43.5311C79.8515 33.8654 52.1543 1.29291 52.1543 1.29291Z" fill="#DD2C00"/>
<g filter="url(#filter0_d_47_1004)">
<circle cx="100" cy="90" r="30" fill="white"/>
<path d="M97 78H88C86.35 78 85.015 79.35 85.015 81L85 99C85 100.65 86.35 102 88 102H112C113.65 102 115 100.65 115 99V84C115 82.35 113.65 81 112 81H100L97 78ZM99.175 95.565L103.999 90L110.5 97.5H91L95.875 91.5L99.175 95.565Z" fill="#1F1F1F"/>
</g>
<defs>
<filter id="filter0_d_47_1004" x="68" y="58.6704" width="64" height="64" filterUnits="userSpaceOnUse" color-interpolation-filters="sRGB">
<feFlood flood-opacity="0" result="BackgroundImageFix"/>
<feColorMatrix in="SourceAlpha" type="matrix" values="0 0 0 0 0 0 0 0 0 0 0 0 0 0 0 0 0 0 127 0" result="hardAlpha"/>
<feOffset dy="0.670408"/>
<feGaussianBlur stdDeviation="1"/>
<feComposite in2="hardAlpha" operator="out"/>
<feColorMatrix type="matrix" values="0 0 0 0 0 0 0 0 0 0 0 0 0 0 0 0 0 0 0.3 0"/>
<feBlend mode="normal" in2="BackgroundImageFix" result="effect1_dropShadow_47_1004"/>
<feBlend mode="normal" in="SourceGraphic" in2="effect1_dropShadow_47_1004" result="shape"/>
</filter>
</defs>
</svg>
