<svg width="1143" height="128" viewBox="0 0 1143 128" fill="none" xmlns="http://www.w3.org/2000/svg">
<path d="M525.467 33.5811H534.292L559.297 99.4014H550.747L544.128 81.2916H515.723L509.104 99.4014H500.555L525.467 33.5811ZM541.463 73.9374L532.729 50.22L530.064 43.1415H529.696L527.122 50.22L518.389 73.9374H541.463ZM564.705 52.5182H572.151V59.5047H572.518C573.928 57.1146 576.042 55.1228 578.861 53.5294C581.742 51.8747 584.959 51.0473 588.514 51.0473C592.681 51.0473 596.481 52.1198 599.913 54.2648C603.345 56.4098 606.041 59.3821 608.003 63.1818C609.964 66.9815 610.944 71.2408 610.944 75.9598C610.944 80.74 609.964 85.03 608.003 88.8297C606.041 92.5681 603.345 95.5098 599.913 97.6547C596.481 99.7997 592.681 100.872 588.514 100.872C584.959 100.872 581.742 100.076 578.861 98.4821C576.042 96.8274 573.928 94.8356 572.518 92.5068H572.151L572.518 98.9417V119.258H564.705V52.5182ZM587.595 93.7938C590.291 93.7938 592.834 93.0583 595.225 91.5875C597.615 90.1167 599.515 88.033 600.924 85.3364C602.395 82.5786 603.13 79.453 603.13 75.9598C603.13 72.4665 602.395 69.3716 600.924 66.6751C599.515 63.9172 597.615 61.8029 595.225 60.332C592.834 58.8612 590.291 58.1258 587.595 58.1258C584.898 58.1258 582.355 58.8612 579.965 60.332C577.574 61.8029 575.675 63.8866 574.265 66.5831C572.855 69.2797 572.151 72.4052 572.151 75.9598C572.151 79.5143 572.855 82.6399 574.265 85.3364C575.675 88.033 577.574 90.1167 579.965 91.5875C582.355 93.0583 584.898 93.7938 587.595 93.7938ZM616.909 52.5182H624.356V59.5047H624.723C626.133 57.1146 628.247 55.1228 631.066 53.5294C633.947 51.8747 637.164 51.0473 640.719 51.0473C644.886 51.0473 648.686 52.1198 652.118 54.2648C655.55 56.4098 658.246 59.3821 660.207 63.1818C662.169 66.9815 663.149 71.2408 663.149 75.9598C663.149 80.74 662.169 85.03 660.207 88.8297C658.246 92.5681 655.55 95.5098 652.118 97.6547C648.686 99.7997 644.886 100.872 640.719 100.872C637.164 100.872 633.947 100.076 631.066 98.4821C628.247 96.8274 626.133 94.8356 624.723 92.5068H624.356L624.723 98.9417V119.258H616.909V52.5182ZM639.799 93.7938C642.496 93.7938 645.039 93.0583 647.429 91.5875C649.82 90.1167 651.719 88.033 653.129 85.3364C654.6 82.5786 655.335 79.453 655.335 75.9598C655.335 72.4665 654.6 69.3716 653.129 66.6751C651.719 63.9172 649.82 61.8029 647.429 60.332C645.039 58.8612 642.496 58.1258 639.799 58.1258C637.103 58.1258 634.56 58.8612 632.169 60.332C629.779 61.8029 627.879 63.8866 626.47 66.5831C625.06 69.2797 624.356 72.4052 624.356 75.9598C624.356 79.5143 625.06 82.6399 626.47 85.3364C627.879 88.033 629.779 90.1167 632.169 91.5875C634.56 93.0583 637.103 93.7938 639.799 93.7938ZM691.47 33.5811H711.326C718.068 33.5811 723.951 34.9906 728.977 37.8097C734.002 40.5676 737.863 44.4285 740.56 49.3926C743.256 54.3567 744.604 60.0563 744.604 66.4912C744.604 72.9262 743.256 78.6257 740.56 83.5898C737.863 88.5539 734.002 92.4455 728.977 95.2646C723.951 98.0225 718.068 99.4014 711.326 99.4014H691.47V33.5811ZM711.326 91.9552C719.11 91.9552 725.269 89.7183 729.804 85.2445C734.4 80.7707 736.699 74.5196 736.699 66.4912C736.699 58.4629 734.4 52.2118 729.804 47.7379C725.269 43.2641 719.11 41.0272 711.326 41.0272H699.192V91.9552H711.326ZM757.302 43.877C755.77 43.877 754.452 43.3254 753.349 42.2223C752.246 41.1191 751.694 39.8015 751.694 38.2694C751.694 36.7372 752.246 35.4503 753.349 34.4084C754.452 33.3053 755.77 32.7537 757.302 32.7537C758.834 32.7537 760.152 33.3053 761.255 34.4084C762.358 35.4503 762.909 36.7372 762.909 38.2694C762.909 39.8015 762.358 41.1191 761.255 42.2223C760.213 43.3254 758.895 43.877 757.302 43.877ZM753.441 52.5182H761.163V99.4014H753.441V52.5182ZM787.968 100.872C782.942 100.872 778.744 99.7078 775.374 97.379C772.003 94.9888 769.613 91.9552 768.203 88.2781L775.19 85.1526C776.354 87.9717 778.07 90.1473 780.338 91.6794C782.667 93.2116 785.21 93.9776 787.968 93.9776C790.909 93.9776 793.422 93.3954 795.506 92.231C797.589 91.0053 798.631 89.2893 798.631 87.083C798.631 85.1219 797.804 83.5591 796.149 82.3947C794.495 81.169 791.89 80.1272 788.335 79.2692L782.636 77.7983C778.897 76.8791 775.833 75.3163 773.443 73.11C771.053 70.9037 769.858 68.054 769.858 64.5607C769.858 61.8642 770.655 59.5047 772.248 57.4823C773.903 55.3986 776.078 53.8052 778.775 52.702C781.471 51.5989 784.382 51.0473 787.508 51.0473C791.614 51.0473 795.261 51.936 798.447 53.7132C801.696 55.4905 803.994 57.9726 805.342 61.1594L798.539 64.2849C796.456 60.1176 792.748 58.0339 787.416 58.0339C784.842 58.0339 782.575 58.6467 780.613 59.8724C778.714 61.0368 777.764 62.5383 777.764 64.3769C777.764 66.0929 778.438 67.5024 779.786 68.6056C781.134 69.6474 783.157 70.5054 785.853 71.1795L792.656 72.9262C797.252 74.0906 800.715 75.8372 803.044 78.166C805.373 80.4336 806.537 83.2221 806.537 86.5315C806.537 89.4119 805.71 91.9552 804.055 94.1615C802.4 96.3065 800.163 97.9612 797.344 99.1256C794.525 100.29 791.4 100.872 787.968 100.872ZM830.785 100.137C828.885 100.137 827.108 99.8304 825.453 99.2175C823.86 98.6047 822.512 97.7773 821.409 96.7355C820.183 95.571 819.264 94.2228 818.651 92.6906C818.038 91.1585 817.731 89.2893 817.731 87.083V59.5966H809.55V52.5182H817.731V39.2806H825.545V52.5182H836.944V59.5966H825.545V85.1526C825.545 87.7265 826.036 89.6264 827.016 90.8521C828.181 92.2004 829.866 92.8745 832.072 92.8745C833.849 92.8745 835.565 92.3536 837.22 91.3117V98.9417C836.301 99.3707 835.351 99.6772 834.37 99.861C833.451 100.045 832.256 100.137 830.785 100.137ZM844.594 52.5182H852.04V60.0563H852.408C853.327 57.4823 855.104 55.3679 857.739 53.7132C860.375 51.9973 863.133 51.1393 866.013 51.1393C868.158 51.1393 869.997 51.4457 871.529 52.0585V60.5159C869.568 59.5353 867.361 59.0451 864.91 59.0451C862.642 59.0451 860.559 59.6886 858.659 60.9755C856.759 62.2625 855.227 64.0092 854.062 66.2154C852.959 68.3604 852.408 70.6892 852.408 73.2019V99.4014H844.594V52.5182ZM881.825 43.877C880.292 43.877 878.975 43.3254 877.872 42.2223C876.769 41.1191 876.217 39.8015 876.217 38.2694C876.217 36.7372 876.769 35.4503 877.872 34.4084C878.975 33.3053 880.292 32.7537 881.825 32.7537C883.357 32.7537 884.674 33.3053 885.777 34.4084C886.881 35.4503 887.432 36.7372 887.432 38.2694C887.432 39.8015 886.881 41.1191 885.777 42.2223C884.736 43.3254 883.418 43.877 881.825 43.877ZM877.964 52.5182H885.686V99.4014H877.964V52.5182ZM919.937 100.872C916.382 100.872 913.164 100.076 910.284 98.4821C907.465 96.8274 905.351 94.8356 903.941 92.5068H903.573V99.4014H896.127V33.5811H903.941V52.9778L903.573 59.5047H903.941C905.351 57.1146 907.465 55.1228 910.284 53.5294C913.164 51.8747 916.382 51.0473 919.937 51.0473C924.104 51.0473 927.904 52.1198 931.336 54.2648C934.768 56.4098 937.464 59.3821 939.425 63.1818C941.386 66.9815 942.367 71.2408 942.367 75.9598C942.367 80.74 941.386 85.03 939.425 88.8297C937.464 92.5681 934.768 95.5098 931.336 97.6547C927.904 99.7997 924.104 100.872 919.937 100.872ZM919.017 93.7938C921.714 93.7938 924.257 93.0583 926.647 91.5875C929.037 90.1167 930.937 88.033 932.347 85.3364C933.818 82.5786 934.553 79.453 934.553 75.9598C934.553 72.4665 933.818 69.3716 932.347 66.6751C930.937 63.9172 929.037 61.8029 926.647 60.332C924.257 58.8612 921.714 58.1258 919.017 58.1258C916.321 58.1258 913.777 58.8612 911.387 60.332C908.997 61.8029 907.097 63.8866 905.688 66.5831C904.278 69.2797 903.573 72.4052 903.573 75.9598C903.573 79.5143 904.278 82.6399 905.688 85.3364C907.097 88.033 908.997 90.1167 911.387 91.5875C913.777 93.0583 916.321 93.7938 919.017 93.7938ZM966.147 100.872C960.509 100.872 956.188 99.2175 953.185 95.9081C950.243 92.5987 948.772 87.9717 948.772 82.027V52.5182H956.586V80.832C956.586 85.3058 957.597 88.5845 959.62 90.6682C961.642 92.7519 964.369 93.7938 967.801 93.7938C970.437 93.7938 972.766 93.089 974.788 91.6794C976.872 90.2699 978.465 88.4313 979.568 86.1638C980.733 83.8962 981.315 81.5061 981.315 78.9934V52.5182H989.129V99.4014H981.683V92.5987H981.315C980.028 94.9275 977.975 96.8887 975.156 98.4821C972.337 100.076 969.334 100.872 966.147 100.872ZM1017.3 100.137C1015.4 100.137 1013.62 99.8304 1011.97 99.2175C1010.37 98.6047 1009.02 97.7773 1007.92 96.7355C1006.7 95.571 1005.78 94.2228 1005.16 92.6906C1004.55 91.1585 1004.24 89.2893 1004.24 87.083V59.5966H996.063V52.5182H1004.24V39.2806H1012.06V52.5182H1023.46V59.5966H1012.06V85.1526C1012.06 87.7265 1012.55 89.6264 1013.53 90.8521C1014.69 92.2004 1016.38 92.8745 1018.59 92.8745C1020.36 92.8745 1022.08 92.3536 1023.73 91.3117V98.9417C1022.81 99.3707 1021.86 99.6772 1020.88 99.861C1019.96 100.045 1018.77 100.137 1017.3 100.137ZM1036.15 43.877C1034.62 43.877 1033.3 43.3254 1032.2 42.2223C1031.1 41.1191 1030.54 39.8015 1030.54 38.2694C1030.54 36.7372 1031.1 35.4503 1032.2 34.4084C1033.3 33.3053 1034.62 32.7537 1036.15 32.7537C1037.68 32.7537 1039 33.3053 1040.1 34.4084C1041.21 35.4503 1041.76 36.7372 1041.76 38.2694C1041.76 39.8015 1041.21 41.1191 1040.1 42.2223C1039.06 43.3254 1037.75 43.877 1036.15 43.877ZM1032.29 52.5182H1040.01V99.4014H1032.29V52.5182ZM1071.61 100.872C1067.01 100.872 1062.88 99.7691 1059.2 97.5628C1055.52 95.3565 1052.64 92.3536 1050.56 88.5539C1048.53 84.7542 1047.52 80.5562 1047.52 75.9598C1047.52 71.3634 1048.53 67.1653 1050.56 63.3657C1052.64 59.566 1055.52 56.563 1059.2 54.3567C1062.88 52.1505 1067.01 51.0473 1071.61 51.0473C1076.21 51.0473 1080.34 52.1505 1084.02 54.3567C1087.7 56.563 1090.55 59.566 1092.57 63.3657C1094.65 67.1653 1095.69 71.3634 1095.69 75.9598C1095.69 80.5562 1094.65 84.7542 1092.57 88.5539C1090.55 92.3536 1087.7 95.3565 1084.02 97.5628C1080.34 99.7691 1076.21 100.872 1071.61 100.872ZM1071.61 93.7938C1074.49 93.7938 1077.16 93.089 1079.61 91.6794C1082.12 90.2086 1084.11 88.1249 1085.58 85.4283C1087.11 82.7318 1087.88 79.5756 1087.88 75.9598C1087.88 72.3439 1087.11 69.1878 1085.58 66.4912C1084.11 63.7947 1082.12 61.7416 1079.61 60.332C1077.16 58.8612 1074.49 58.1258 1071.61 58.1258C1068.73 58.1258 1066.03 58.8612 1063.52 60.332C1061.01 61.7416 1058.98 63.7947 1057.45 66.4912C1055.98 69.1878 1055.25 72.3439 1055.25 75.9598C1055.25 79.5756 1055.98 82.7318 1057.45 85.4283C1058.98 88.1249 1061.01 90.2086 1063.52 91.6794C1066.03 93.089 1068.73 93.7938 1071.61 93.7938ZM1102.03 52.5182H1109.48V59.4128H1109.85C1111.13 57.0839 1113.19 55.1228 1116 53.5294C1118.82 51.8747 1121.83 51.0473 1125.01 51.0473C1130.65 51.0473 1134.94 52.702 1137.88 56.0114C1140.89 59.2596 1142.39 63.7027 1142.39 69.341V99.4014H1134.57V70.536C1134.57 66.1848 1133.53 63.0286 1131.45 61.0675C1129.36 59.1063 1126.51 58.1258 1122.9 58.1258C1120.39 58.1258 1118.12 58.8306 1116.1 60.2401C1114.13 61.6497 1112.6 63.5189 1111.5 65.8477C1110.4 68.1153 1109.85 70.5054 1109.85 73.0181V99.4014H1102.03V52.5182Z" fill="white"/>
<path d="M461.612 99.8672C457.157 99.8672 453.13 98.83 449.531 96.7554C445.992 94.6809 443.215 91.8132 441.202 88.1523C439.188 84.4303 438.182 80.2813 438.182 75.7051C438.182 71.312 439.127 67.285 441.019 63.624C442.971 59.9021 445.687 56.9733 449.164 54.8378C452.642 52.6412 456.608 51.543 461.062 51.543C465.639 51.543 469.605 52.5497 472.96 54.5632C476.377 56.5767 478.97 59.3835 480.74 62.9834C482.509 66.5223 483.394 70.6103 483.394 75.2475C483.394 75.7966 483.364 76.3458 483.303 76.8949C483.242 77.444 483.211 77.7491 483.211 77.8101H448.249C448.554 81.9592 450.049 85.1625 452.734 87.4201C455.419 89.6776 458.469 90.8064 461.886 90.8064C467.133 90.8064 471.161 88.3658 473.967 83.4846L482.57 87.6031C480.557 91.3251 477.75 94.3148 474.15 96.5724C470.611 98.769 466.432 99.8672 461.612 99.8672ZM473.144 70.1222C473.021 68.6578 472.533 67.1629 471.679 65.6375C470.825 64.1122 469.483 62.8308 467.652 61.7936C465.883 60.6953 463.656 60.1461 460.971 60.1461C457.981 60.1461 455.388 61.0614 453.191 62.8919C451.056 64.7223 449.592 67.1324 448.798 70.1222H473.144Z" fill="white"/>
<path d="M416.087 99.8672C410.9 99.8672 406.599 98.6774 403.182 96.2978C399.826 93.8572 397.446 90.8064 396.043 87.1455L405.012 83.3015C406.05 85.8032 407.544 87.6946 409.497 88.976C411.51 90.2573 413.707 90.898 416.087 90.898C418.588 90.898 420.632 90.4403 422.219 89.5251C423.805 88.5489 424.598 87.298 424.598 85.7727C424.598 84.3083 423.958 83.1185 422.676 82.2032C421.395 81.227 419.29 80.3728 416.361 79.6406L410.138 78.1762C406.721 77.383 403.761 75.9187 401.26 73.7831C398.819 71.5866 397.599 68.7493 397.599 65.2715C397.599 61.0614 399.338 57.736 402.816 55.2954C406.294 52.7938 410.565 51.543 415.629 51.543C419.839 51.543 423.561 52.4277 426.795 54.1971C430.09 55.9666 432.469 58.5292 433.934 61.8851L425.056 65.6375C424.202 63.7461 422.89 62.3427 421.12 61.4275C419.351 60.5122 417.429 60.0546 415.354 60.0546C413.341 60.0546 411.571 60.5122 410.046 61.4275C408.521 62.2817 407.758 63.441 407.758 64.9054C407.758 66.1867 408.277 67.2239 409.314 68.0171C410.412 68.8104 412.121 69.4815 414.439 70.0307L421.212 71.6781C425.788 72.8374 429.205 74.6068 431.462 76.9864C433.72 79.305 434.849 82.1117 434.849 85.4066C434.849 88.0912 434.025 90.5319 432.378 92.7284C430.791 94.925 428.564 96.6639 425.696 97.9452C422.89 99.2266 419.686 99.8672 416.087 99.8672Z" fill="white"/>
<path d="M367.921 99.8672C364.688 99.8672 361.759 99.2266 359.135 97.9452C356.573 96.6029 354.529 94.7724 353.003 92.4538C351.539 90.0742 350.807 87.3896 350.807 84.3998C350.807 79.6406 352.576 75.8881 356.115 73.1424C359.715 70.3968 364.261 69.0239 369.752 69.0239C374.572 69.0239 378.691 69.8476 382.108 71.495V69.573C382.108 66.8273 381.009 64.5698 378.813 62.8003C376.677 60.9699 374.084 60.0546 371.033 60.0546C366.396 60.0546 362.674 61.9461 359.867 65.7291L352.18 60.4207C354.315 57.553 356.969 55.3564 360.142 53.8311C363.376 52.3057 367.006 51.543 371.033 51.543C377.684 51.543 382.809 53.2209 386.409 56.5767C390.07 59.8716 391.901 64.5393 391.901 70.5798V98.4029H382.108V92.8199H381.558C380.094 94.8945 378.233 96.6029 375.976 97.9452C373.718 99.2266 371.033 99.8672 367.921 99.8672ZM369.569 91.5386C371.826 91.5386 373.901 90.9895 375.792 89.8912C377.745 88.7319 379.27 87.237 380.369 85.4066C381.528 83.5151 382.108 81.5016 382.108 79.366C378.874 77.5966 375.426 76.7119 371.765 76.7119C368.41 76.7119 365.786 77.444 363.894 78.9084C362.003 80.3728 361.057 82.2338 361.057 84.4913C361.057 86.5659 361.881 88.2743 363.528 89.6166C365.237 90.898 367.25 91.5386 369.569 91.5386Z" fill="white"/>
<path d="M325.684 99.8661C322.389 99.8661 319.43 99.1644 316.806 97.7611C314.244 96.3577 312.322 94.5882 311.04 92.4527H310.491V98.4017H300.973V32.8711H311.04V52.5486L310.491 58.8637H311.04C312.322 56.7892 314.244 55.0502 316.806 53.6469C319.43 52.2435 322.389 51.5418 325.684 51.5418C329.589 51.5418 333.189 52.5791 336.484 54.6536C339.84 56.7281 342.494 59.6264 344.446 63.3483C346.46 67.0093 347.466 71.1278 347.466 75.704C347.466 80.2801 346.46 84.3987 344.446 88.0596C342.494 91.7205 339.84 94.6188 336.484 96.7543C333.189 98.8288 329.589 99.8661 325.684 99.8661ZM323.945 90.6222C326.325 90.6222 328.521 90.0121 330.535 88.7918C332.609 87.5715 334.257 85.8325 335.477 83.575C336.758 81.2564 337.399 78.6327 337.399 75.704C337.399 72.7752 336.758 70.1821 335.477 67.9245C334.257 65.6059 332.609 63.8364 330.535 62.6161C328.521 61.3958 326.325 60.7857 323.945 60.7857C321.565 60.7857 319.338 61.3958 317.264 62.6161C315.25 63.8364 313.603 65.5754 312.322 67.833C311.101 70.0905 310.491 72.7142 310.491 75.704C310.491 78.6937 311.101 81.3174 312.322 83.575C313.603 85.8325 315.25 87.5715 317.264 88.7918C319.338 90.0121 321.565 90.6222 323.945 90.6222Z" fill="white"/>
<path d="M273.192 99.8672C268.738 99.8672 264.711 98.83 261.111 96.7554C257.572 94.6809 254.795 91.8132 252.782 88.1523C250.768 84.4303 249.762 80.2813 249.762 75.7051C249.762 71.312 250.707 67.285 252.599 63.624C254.551 59.9021 257.267 56.9733 260.745 54.8378C264.222 52.6412 268.188 51.543 272.643 51.543C277.219 51.543 281.185 52.5497 284.541 54.5632C287.957 56.5767 290.551 59.3835 292.32 62.9834C294.089 66.5223 294.974 70.6103 294.974 75.2475C294.974 75.7966 294.944 76.3458 294.883 76.8949C294.822 77.444 294.791 77.7491 294.791 77.8101H259.829C260.134 81.9592 261.629 85.1625 264.314 87.4201C266.999 89.6776 270.049 90.8064 273.466 90.8064C278.714 90.8064 282.741 88.3658 285.547 83.4846L294.15 87.6031C292.137 91.3251 289.33 94.3148 285.73 96.5724C282.191 98.769 278.012 99.8672 273.192 99.8672ZM284.724 70.1222C284.602 68.6578 284.113 67.1629 283.259 65.6375C282.405 64.1122 281.063 62.8308 279.232 61.7936C277.463 60.6953 275.236 60.1461 272.551 60.1461C269.561 60.1461 266.968 61.0614 264.772 62.8919C262.636 64.7223 261.172 67.1324 260.378 70.1222H284.724Z" fill="white"/>
<path d="M221.822 53.0076H231.341V59.7803H231.89C232.866 57.4617 234.636 55.5398 237.198 54.0144C239.761 52.428 242.384 51.6348 245.069 51.6348C247.266 51.6348 249.066 51.9398 250.469 52.55V63.0752C248.395 62.0379 246.076 61.5193 243.513 61.5193C240.218 61.5193 237.442 62.8006 235.185 65.3632C232.988 67.8649 231.89 70.9462 231.89 74.6071V98.4031H221.822V53.0076Z" fill="white"/>
<path d="M207.452 45.3189C205.561 45.3189 203.944 44.6782 202.602 43.3969C201.32 42.0545 200.68 40.4376 200.68 38.5462C200.68 36.6547 201.32 35.0683 202.602 33.787C203.944 32.4446 205.561 31.7734 207.452 31.7734C209.344 31.7734 210.93 32.4446 212.212 33.787C213.554 35.0683 214.225 36.6547 214.225 38.5462C214.225 40.4376 213.554 42.0545 212.212 43.3969C210.93 44.6782 209.344 45.3189 207.452 45.3189ZM202.419 53.0068H212.486V98.4023H202.419V53.0068Z" fill="white"/>
<path d="M156.562 32.8721H196.375V42.6651H166.813V61.5188H193.446V71.2203H166.813V98.4027H156.562V32.8721Z" fill="white"/>
<g clip-path="url(#clip0_47_2191)">
<path d="M86.8743 43.1134C84.1283 39.3031 77.814 31.4684 68.1144 19.8296C63.9039 14.7813 60.2921 10.4962 58.5142 8.39247C57.5337 7.232 56.6928 6.23909 56.0288 5.45406L54.9707 4.20672L54.3967 3.53029L54.285 3.36584L54.2354 3.34412L51.7872 0.467773L48.6844 2.95626C40.7628 9.30161 34.2747 17.4807 29.9276 26.5969C27.2622 32.0207 25.5215 37.3235 24.6093 42.7845C24.3704 44.0133 24.1656 45.2761 23.9949 46.5421C22.9306 46.4552 21.8477 46.3994 20.7742 46.3745C20.6842 46.3683 20.5942 46.3652 20.4732 46.3621C16.5419 46.2256 12.6323 46.6941 8.85608 47.7584L7.23949 48.2114L6.40793 49.6698C2.51074 56.5054 0.304608 64.2873 0.0284535 72.1717C-0.328375 82.4111 2.46109 92.3216 8.09588 100.833C13.6097 109.158 21.3978 115.522 30.6195 119.236L31.8203 119.72L32.1834 119.847L32.1989 119.841C37.0021 121.585 42.0442 122.559 47.1857 122.736C47.769 122.758 48.3492 122.767 48.9295 122.767C55.4176 122.767 61.735 121.498 67.7297 118.988L67.7731 119.006L69.368 118.268C77.454 114.529 84.3734 108.652 89.3783 101.27C94.526 93.6776 97.4178 84.7941 97.7405 75.5817C98.1253 64.5697 94.467 53.6476 86.8712 43.1165L86.8743 43.1134ZM50.7788 77.2325C52.4512 83.5716 52.1223 89.6625 49.8076 95.3624C44.0239 89.6532 39.7823 83.3761 37.1945 76.6863C34.4236 69.5312 32.7574 62.7235 32.2299 56.4278C34.6781 57.2314 36.9276 58.2926 38.9321 59.5989C44.6972 63.3565 48.6844 69.2891 50.7788 77.2356V77.2325ZM51.8338 107.92C54.2912 109.791 56.8759 111.544 59.5412 113.157C55.6161 114.225 51.5669 114.693 47.4711 114.547C46.8382 114.526 46.2052 114.488 45.5691 114.436C47.9024 112.425 50 110.244 51.8307 107.92H51.8338ZM58.6973 75.1442C56.066 65.1716 50.9184 57.6317 43.4002 52.7354C40.1019 50.5882 36.3443 48.9592 32.2175 47.8949C32.2764 47.2092 32.3509 46.5266 32.4378 45.8564C32.5123 45.2823 32.5898 44.7548 32.6736 44.2615C33.3531 40.7522 34.3647 37.2801 35.6741 33.9445C36.1767 32.6661 36.7259 31.3971 37.3093 30.1714L37.331 30.128C38.2308 28.3066 39.2455 26.4666 40.4401 24.4994L40.9086 23.7268L40.8931 23.7175C43.667 19.3828 46.9902 15.4297 50.7912 11.9452L52.2588 13.6797C55.6813 17.7352 58.899 21.5703 61.825 25.0796C68.4061 32.9733 76.939 43.3399 80.2311 47.9105C86.7409 56.9336 89.8779 66.1459 89.5583 75.2994C89.3101 82.408 87.2063 89.3398 83.4705 95.3407C79.9332 101.028 75.0059 105.788 69.2004 109.139C65.9611 107.523 61.2571 104.863 56.2615 100.994C60.289 92.967 61.1113 84.2759 58.7004 75.1442H58.6973ZM45.5753 102.648C41.8829 107.433 37.4892 110.545 34.9263 112.109C34.5105 111.957 34.0947 111.798 33.6851 111.631L33.3562 111.5C25.7635 108.363 19.3593 103.061 14.8353 96.1599C10.212 89.1071 7.92212 80.9093 8.21689 72.451C8.42789 66.388 9.93898 60.5949 12.7129 55.2301C14.3233 54.8733 15.9647 54.6499 17.6061 54.5661L18.0312 54.5568C18.8597 54.5382 19.6851 54.5382 20.4701 54.5568C21.6243 54.6095 22.7817 54.7305 23.9205 54.9136C24.2928 62.6211 26.1855 70.9368 29.5521 79.6372C32.7946 88.0118 38.1812 95.7472 45.5722 102.645L45.5753 102.648Z" fill="white"/>
</g>
<g filter="url(#filter0_d_47_2191)">
<circle cx="100" cy="90" r="30" fill="white"/>
<path fill-rule="evenodd" clip-rule="evenodd" d="M90.2496 100.5C89.007 100.5 87.9996 99.4927 87.9996 98.25C87.9996 97.0074 89.007 96 90.2496 96H91.7496C92.9923 96 93.9996 94.9927 93.9996 93.75C93.9996 92.5074 92.9923 91.5 91.7496 91.5H88.7496C87.507 91.5 86.4996 90.4927 86.4996 89.25C86.4996 88.0074 87.507 87 88.7496 87H93.9996C94.8281 87 95.4996 86.3285 95.4996 85.5C95.4996 84.6716 94.8281 84 93.9996 84C92.757 84 91.7496 82.9927 91.7496 81.75C91.7496 80.5074 92.757 79.5 93.9996 79.5H116.455C117.395 79.5 118.108 80.382 117.946 81.3465L114.946 99.1965C114.834 99.9372 114.204 100.489 113.455 100.5H90.2496ZM96.7673 97.5H112.198L114.712 82.5H99.2498L96.7673 97.5ZM110.292 95.2499H99.4205L101.157 84.7499H112.053L110.292 95.2499ZM84.2498 100.5C83.0072 100.5 81.9998 99.4925 81.9998 98.2499C81.9998 97.0073 83.0072 95.9999 84.2498 95.9999C85.4925 95.9999 86.4998 97.0073 86.4998 98.2499C86.4998 99.4925 85.4925 100.5 84.2498 100.5Z" fill="#1F1F1F"/>
</g>
<defs>
<filter id="filter0_d_47_2191" x="68" y="58.6704" width="64" height="64" filterUnits="userSpaceOnUse" color-interpolation-filters="sRGB">
<feFlood flood-opacity="0" result="BackgroundImageFix"/>
<feColorMatrix in="SourceAlpha" type="matrix" values="0 0 0 0 0 0 0 0 0 0 0 0 0 0 0 0 0 0 127 0" result="hardAlpha"/>
<feOffset dy="0.670408"/>
<feGaussianBlur stdDeviation="1"/>
<feComposite in2="hardAlpha" operator="out"/>
<feColorMatrix type="matrix" values="0 0 0 0 0 0 0 0 0 0 0 0 0 0 0 0 0 0 0.3 0"/>
<feBlend mode="normal" in2="BackgroundImageFix" result="effect1_dropShadow_47_2191"/>
<feBlend mode="normal" in="SourceGraphic" in2="effect1_dropShadow_47_2191" result="shape"/>
</filter>
<clipPath id="clip0_47_2191">
<rect width="97.7741" height="122.296" fill="white" transform="translate(-0.00195312 0.467773)"/>
</clipPath>
</defs>
</svg>
