<svg width="1222" height="128" viewBox="0 0 1222 128" fill="none" xmlns="http://www.w3.org/2000/svg">
<path d="M506.53 33.5813H514.252V99.4016H506.53V33.5813ZM525.572 52.5184H533.018V59.413H533.386C534.673 57.0842 536.726 55.1231 539.545 53.5296C542.364 51.8749 545.367 51.0476 548.554 51.0476C554.192 51.0476 558.482 52.7023 561.424 56.0117C564.427 59.2598 565.928 63.703 565.928 69.3412V99.4016H558.114V70.5363C558.114 66.185 557.073 63.0288 554.989 61.0677C552.905 59.1066 550.055 58.126 546.44 58.126C543.927 58.126 541.659 58.8308 539.637 60.2404C537.676 61.6499 536.144 63.5191 535.041 65.848C533.937 68.1155 533.386 70.5056 533.386 73.0183V99.4016H525.572V52.5184ZM575.171 67.6865H604.312V74.1215H575.171V67.6865ZM634.502 33.5813H643.327L668.332 99.4016H659.782L653.163 81.2918H624.758L618.139 99.4016H609.59L634.502 33.5813ZM650.498 73.9376L641.764 50.2202L639.099 43.1418H638.731L636.157 50.2202L627.424 73.9376H650.498ZM673.739 52.5184H681.186V59.5049H681.553C682.963 57.1148 685.077 55.1231 687.896 53.5296C690.777 51.8749 693.994 51.0476 697.549 51.0476C701.716 51.0476 705.516 52.1201 708.948 54.2651C712.38 56.41 715.076 59.3824 717.037 63.1821C718.999 66.9817 719.979 71.2411 719.979 75.96C719.979 80.7403 718.999 85.0302 717.037 88.8299C715.076 92.5683 712.38 95.51 708.948 97.655C705.516 99.8 701.716 100.872 697.549 100.872C693.994 100.872 690.777 100.076 687.896 98.4823C685.077 96.8276 682.963 94.8359 681.553 92.507H681.186L681.553 98.942V119.258H673.739V52.5184ZM696.63 93.794C699.326 93.794 701.869 93.0586 704.26 91.5877C706.65 90.1169 708.549 88.0332 709.959 85.3367C711.43 82.5788 712.165 79.4533 712.165 75.96C712.165 72.4668 711.43 69.3719 709.959 66.6753C708.549 63.9175 706.65 61.8031 704.26 60.3323C701.869 58.8614 699.326 58.126 696.63 58.126C693.933 58.126 691.39 58.8614 689 60.3323C686.609 61.8031 684.71 63.8868 683.3 66.5834C681.89 69.2799 681.186 72.4055 681.186 75.96C681.186 79.5146 681.89 82.6401 683.3 85.3367C684.71 88.0332 686.609 90.1169 689 91.5877C691.39 93.0586 693.933 93.794 696.63 93.794ZM725.944 52.5184H733.391V59.5049H733.758C735.168 57.1148 737.282 55.1231 740.101 53.5296C742.982 51.8749 746.199 51.0476 749.754 51.0476C753.921 51.0476 757.721 52.1201 761.153 54.2651C764.585 56.41 767.281 59.3824 769.242 63.1821C771.204 66.9817 772.184 71.2411 772.184 75.96C772.184 80.7403 771.204 85.0302 769.242 88.8299C767.281 92.5683 764.585 95.51 761.153 97.655C757.721 99.8 753.921 100.872 749.754 100.872C746.199 100.872 742.982 100.076 740.101 98.4823C737.282 96.8276 735.168 94.8359 733.758 92.507H733.391L733.758 98.942V119.258H725.944V52.5184ZM748.834 93.794C751.531 93.794 754.074 93.0586 756.464 91.5877C758.855 90.1169 760.754 88.0332 762.164 85.3367C763.635 82.5788 764.37 79.4533 764.37 75.96C764.37 72.4668 763.635 69.3719 762.164 66.6753C760.754 63.9175 758.855 61.8031 756.464 60.3323C754.074 58.8614 751.531 58.126 748.834 58.126C746.138 58.126 743.595 58.8614 741.204 60.3323C738.814 61.8031 736.914 63.8868 735.505 66.5834C734.095 69.2799 733.391 72.4055 733.391 75.96C733.391 79.5146 734.095 82.6401 735.505 85.3367C736.914 88.0332 738.814 90.1169 741.204 91.5877C743.595 93.0586 746.138 93.794 748.834 93.794ZM800.505 33.5813H811.812L832.772 87.5429H833.139L854.099 33.5813H865.406V99.4016H857.684V57.5745L858.052 45.0723H857.684L836.173 99.4016H829.738L808.227 45.0723H807.859L808.227 57.5745V99.4016H800.505V33.5813ZM897.6 100.872C893.126 100.872 889.112 99.8 885.558 97.655C882.003 95.51 879.215 92.5683 877.192 88.8299C875.231 85.0302 874.251 80.7709 874.251 76.0519C874.251 71.5168 875.17 67.3494 877.008 63.5498C878.908 59.7501 881.574 56.7165 885.006 54.4489C888.438 52.1814 892.422 51.0476 896.957 51.0476C901.553 51.0476 905.537 52.0894 908.907 54.1731C912.278 56.1955 914.852 59.0147 916.629 62.6305C918.468 66.2463 919.387 70.3831 919.387 75.0407C919.387 75.96 919.295 76.7567 919.111 77.4309H882.064C882.248 80.9854 883.106 83.9884 884.638 86.4398C886.171 88.8912 888.101 90.7298 890.43 91.9555C892.82 93.1812 895.302 93.794 897.876 93.794C903.882 93.794 908.509 90.9749 911.757 85.3367L918.376 88.5541C916.353 92.3538 913.596 95.3568 910.102 97.5631C906.67 99.7693 902.503 100.872 897.6 100.872ZM911.114 70.9959C910.991 69.0348 910.439 67.0737 909.459 65.1125C908.478 63.1514 906.916 61.4967 904.771 60.1484C902.687 58.8002 900.052 58.126 896.865 58.126C893.188 58.126 890.062 59.3211 887.488 61.7112C884.975 64.04 883.321 67.135 882.524 70.9959H911.114ZM943.505 100.872C938.48 100.872 934.282 99.708 930.911 97.3792C927.54 94.9891 925.15 91.9555 923.741 88.2783L930.727 85.1528C931.892 87.9719 933.608 90.1475 935.875 91.6797C938.204 93.2118 940.747 93.9779 943.505 93.9779C946.447 93.9779 948.96 93.3957 951.043 92.2312C953.127 91.0055 954.169 89.2896 954.169 87.0833C954.169 85.1222 953.341 83.5594 951.687 82.395C950.032 81.1693 947.427 80.1274 943.873 79.2694L938.173 77.7986C934.435 76.8793 931.371 75.3165 928.981 73.1103C926.591 70.904 925.395 68.0542 925.395 64.561C925.395 61.8644 926.192 59.5049 927.786 57.4825C929.44 55.3988 931.616 53.8054 934.312 52.7023C937.009 51.5992 939.92 51.0476 943.046 51.0476C947.152 51.0476 950.798 51.9362 953.985 53.7135C957.233 55.4908 959.531 57.9728 960.88 61.1596L954.077 64.2852C951.993 60.1178 948.285 58.0341 942.954 58.0341C940.38 58.0341 938.112 58.647 936.151 59.8727C934.251 61.0371 933.301 62.5386 933.301 64.3771C933.301 66.0931 933.975 67.5027 935.324 68.6058C936.672 69.6476 938.694 70.5056 941.391 71.1798L948.194 72.9264C952.79 74.0908 956.253 75.8374 958.581 78.1663C960.91 80.4338 962.075 83.2223 962.075 86.5317C962.075 89.4121 961.247 91.9555 959.593 94.1617C957.938 96.3067 955.701 97.9614 952.882 99.1258C950.063 100.29 946.937 100.872 943.505 100.872ZM985.117 100.872C980.092 100.872 975.893 99.708 972.523 97.3792C969.152 94.9891 966.762 91.9555 965.352 88.2783L972.339 85.1528C973.503 87.9719 975.219 90.1475 977.487 91.6797C979.816 93.2118 982.359 93.9779 985.117 93.9779C988.059 93.9779 990.571 93.3957 992.655 92.2312C994.739 91.0055 995.781 89.2896 995.781 87.0833C995.781 85.1222 994.953 83.5594 993.298 82.395C991.644 81.1693 989.039 80.1274 985.485 79.2694L979.785 77.7986C976.047 76.8793 972.982 75.3165 970.592 73.1103C968.202 70.904 967.007 68.0542 967.007 64.561C967.007 61.8644 967.804 59.5049 969.397 57.4825C971.052 55.3988 973.228 53.8054 975.924 52.7023C978.621 51.5992 981.532 51.0476 984.657 51.0476C988.763 51.0476 992.41 51.9362 995.597 53.7135C998.845 55.4908 1001.14 57.9728 1002.49 61.1596L995.689 64.2852C993.605 60.1178 989.897 58.0341 984.565 58.0341C981.991 58.0341 979.724 58.647 977.763 59.8727C975.863 61.0371 974.913 62.5386 974.913 64.3771C974.913 66.0931 975.587 67.5027 976.935 68.6058C978.284 69.6476 980.306 70.5056 983.003 71.1798L989.805 72.9264C994.402 74.0908 997.864 75.8374 1000.19 78.1663C1002.52 80.4338 1003.69 83.2223 1003.69 86.5317C1003.69 89.4121 1002.86 91.9555 1001.2 94.1617C999.55 96.3067 997.313 97.9614 994.494 99.1258C991.674 100.29 988.549 100.872 985.117 100.872ZM1025.8 100.872C1022.37 100.872 1019.3 100.198 1016.61 98.85C1013.91 97.5018 1011.83 95.6632 1010.35 93.3344C1008.88 90.9443 1008.15 88.2477 1008.15 85.2447C1008.15 80.2806 1010.02 76.4197 1013.76 73.6618C1017.49 70.8427 1022.21 69.4331 1027.91 69.4331C1030.73 69.4331 1033.34 69.7396 1035.73 70.3524C1038.18 70.9653 1040.05 71.6701 1041.33 72.4668V69.617C1041.33 66.1237 1040.11 63.3353 1037.66 61.2516C1035.21 59.1066 1032.11 58.0341 1028.37 58.0341C1025.74 58.0341 1023.32 58.6163 1021.11 59.7807C1018.9 60.8839 1017.16 62.4466 1015.87 64.469L1009.99 60.0565C1011.83 57.2374 1014.34 55.0311 1017.53 53.4377C1020.77 51.8443 1024.36 51.0476 1028.28 51.0476C1034.65 51.0476 1039.65 52.7329 1043.26 56.1036C1046.94 59.413 1048.78 63.9481 1048.78 69.7089V99.4016H1041.33V92.6909H1040.97C1039.62 94.9584 1037.6 96.8889 1034.9 98.4823C1032.2 100.076 1029.17 100.872 1025.8 100.872ZM1026.53 93.9779C1029.17 93.9779 1031.62 93.3037 1033.89 91.9555C1036.16 90.6072 1037.96 88.7993 1039.31 86.5317C1040.66 84.2642 1041.33 81.7821 1041.33 79.0856C1039.86 78.105 1038.06 77.3083 1035.91 76.6954C1033.77 76.0826 1031.5 75.7762 1029.11 75.7762C1024.82 75.7762 1021.57 76.6648 1019.36 78.4421C1017.22 80.2193 1016.15 82.5175 1016.15 85.3367C1016.15 87.9106 1017.13 89.9943 1019.09 91.5877C1021.05 93.1812 1023.53 93.9779 1026.53 93.9779ZM1077.96 120.729C1072.44 120.729 1067.87 119.442 1064.26 116.868C1060.7 114.294 1058.31 111.199 1057.09 107.583L1064.17 104.55C1065.21 107.246 1066.92 109.422 1069.31 111.076C1071.77 112.792 1074.65 113.65 1077.96 113.65C1082.8 113.65 1086.54 112.241 1089.17 109.422C1091.87 106.603 1093.22 102.619 1093.22 97.4711V92.2312H1092.85C1091.32 94.6214 1089.14 96.5825 1086.32 98.1146C1083.56 99.5855 1080.41 100.321 1076.85 100.321C1072.81 100.321 1069.1 99.279 1065.73 97.1953C1062.42 95.1116 1059.78 92.2006 1057.82 88.4622C1055.86 84.7238 1054.88 80.4645 1054.88 75.6842C1054.88 70.9653 1055.86 66.7366 1057.82 62.9982C1059.78 59.1985 1062.42 56.2568 1065.73 54.1731C1069.1 52.0894 1072.81 51.0476 1076.85 51.0476C1080.41 51.0476 1083.56 51.8136 1086.32 53.3458C1089.14 54.8166 1091.32 56.7778 1092.85 59.2292H1093.22V52.5184H1100.66V97.5631C1100.66 105.101 1098.58 110.831 1094.41 114.754C1090.24 118.737 1084.76 120.729 1077.96 120.729ZM1077.96 93.2424C1080.77 93.2424 1083.32 92.5377 1085.59 91.1281C1087.91 89.7185 1089.75 87.6961 1091.1 85.0609C1092.51 82.4256 1093.22 79.3001 1093.22 75.6842C1093.22 72.0071 1092.51 68.8509 1091.1 66.2157C1089.75 63.5804 1087.91 61.5886 1085.59 60.2404C1083.32 58.8308 1080.77 58.126 1077.96 58.126C1075.14 58.126 1072.56 58.8308 1070.23 60.2404C1067.9 61.6499 1066.04 63.6723 1064.63 66.3076C1063.28 68.9429 1062.6 72.0684 1062.6 75.6842C1062.6 79.3001 1063.28 82.4563 1064.63 85.1528C1066.04 87.7881 1067.9 89.8105 1070.23 91.22C1072.56 92.5683 1075.14 93.2424 1077.96 93.2424ZM1114.97 43.8772C1113.44 43.8772 1112.12 43.3256 1111.02 42.2225C1109.92 41.1194 1109.37 39.8017 1109.37 38.2696C1109.37 36.7375 1109.92 35.4505 1111.02 34.4087C1112.12 33.3055 1113.44 32.754 1114.97 32.754C1116.5 32.754 1117.82 33.3055 1118.93 34.4087C1120.03 35.4505 1120.58 36.7375 1120.58 38.2696C1120.58 39.8017 1120.03 41.1194 1118.93 42.2225C1117.88 43.3256 1116.57 43.8772 1114.97 43.8772ZM1111.11 52.5184H1118.83V99.4016H1111.11V52.5184ZM1129.28 52.5184H1136.72V59.413H1137.09C1138.38 57.0842 1140.43 55.1231 1143.25 53.5296C1146.07 51.8749 1149.07 51.0476 1152.26 51.0476C1157.9 51.0476 1162.19 52.7023 1165.13 56.0117C1168.13 59.2598 1169.63 63.703 1169.63 69.3412V99.4016H1161.82V70.5363C1161.82 66.185 1160.78 63.0288 1158.69 61.0677C1156.61 59.1066 1153.76 58.126 1150.14 58.126C1147.63 58.126 1145.36 58.8308 1143.34 60.2404C1141.38 61.6499 1139.85 63.5191 1138.74 65.848C1137.64 68.1155 1137.09 70.5056 1137.09 73.0183V99.4016H1129.28V52.5184ZM1199.11 120.729C1193.59 120.729 1189.03 119.442 1185.41 116.868C1181.86 114.294 1179.47 111.199 1178.24 107.583L1185.32 104.55C1186.36 107.246 1188.08 109.422 1190.47 111.076C1192.92 112.792 1195.8 113.65 1199.11 113.65C1203.95 113.65 1207.69 112.241 1210.32 109.422C1213.02 106.603 1214.37 102.619 1214.37 97.4711V92.2312H1214C1212.47 94.6214 1210.29 96.5825 1207.48 98.1146C1204.72 99.5855 1201.56 100.321 1198.01 100.321C1193.96 100.321 1190.25 99.279 1186.88 97.1953C1183.57 95.1116 1180.94 92.2006 1178.98 88.4622C1177.02 84.7238 1176.04 80.4645 1176.04 75.6842C1176.04 70.9653 1177.02 66.7366 1178.98 62.9982C1180.94 59.1985 1183.57 56.2568 1186.88 54.1731C1190.25 52.0894 1193.96 51.0476 1198.01 51.0476C1201.56 51.0476 1204.72 51.8136 1207.48 53.3458C1210.29 54.8166 1212.47 56.7778 1214 59.2292H1214.37V52.5184H1221.82V97.5631C1221.82 105.101 1219.73 110.831 1215.56 114.754C1211.4 118.737 1205.91 120.729 1199.11 120.729ZM1199.11 93.2424C1201.93 93.2424 1204.47 92.5377 1206.74 91.1281C1209.07 89.7185 1210.91 87.6961 1212.26 85.0609C1213.67 82.4256 1214.37 79.3001 1214.37 75.6842C1214.37 72.0071 1213.67 68.8509 1212.26 66.2157C1210.91 63.5804 1209.07 61.5886 1206.74 60.2404C1204.47 58.8308 1201.93 58.126 1199.11 58.126C1196.29 58.126 1193.72 58.8308 1191.39 60.2404C1189.06 61.6499 1187.19 63.6723 1185.78 66.3076C1184.43 68.9429 1183.76 72.0684 1183.76 75.6842C1183.76 79.3001 1184.43 82.4563 1185.78 85.1528C1187.19 87.7881 1189.06 89.8105 1191.39 91.22C1193.72 92.5683 1196.29 93.2424 1199.11 93.2424Z" fill="#5A5A5A"/>
<path d="M461.612 99.8665C457.157 99.8665 453.13 98.8292 449.531 96.7547C445.992 94.6802 443.215 91.8125 441.202 88.1515C439.188 84.4296 438.182 80.2805 438.182 75.7044C438.182 71.3113 439.127 67.2842 441.019 63.6233C442.971 59.9014 445.687 56.9726 449.164 54.8371C452.642 52.6405 456.608 51.5422 461.062 51.5422C465.639 51.5422 469.605 52.549 472.96 54.5625C476.377 56.576 478.97 59.3827 480.74 62.9826C482.509 66.5215 483.394 70.6096 483.394 75.2467C483.394 75.7959 483.364 76.345 483.303 76.8942C483.242 77.4433 483.211 77.7484 483.211 77.8094H448.249C448.554 81.9585 450.049 85.1618 452.734 87.4193C455.419 89.6769 458.469 90.8057 461.886 90.8057C467.133 90.8057 471.161 88.3651 473.967 83.4838L482.57 87.6024C480.557 91.3243 477.75 94.3141 474.15 96.5717C470.611 98.7682 466.432 99.8665 461.612 99.8665ZM473.144 70.1215C473.021 68.6571 472.533 67.1622 471.679 65.6368C470.825 64.1114 469.483 62.8301 467.652 61.7928C465.883 60.6946 463.656 60.1454 460.971 60.1454C457.981 60.1454 455.388 61.0607 453.191 62.8911C451.056 64.7216 449.592 67.1317 448.798 70.1215H473.144Z" fill="#5A5A5A"/>
<path d="M416.087 99.8665C410.9 99.8665 406.599 98.6767 403.182 96.2971C399.826 93.8565 397.446 90.8057 396.043 87.1448L405.012 83.3008C406.05 85.8024 407.544 87.6939 409.497 88.9752C411.51 90.2566 413.707 90.8972 416.087 90.8972C418.588 90.8972 420.632 90.4396 422.219 89.5244C423.805 88.5481 424.598 87.2973 424.598 85.7719C424.598 84.3076 423.958 83.1177 422.676 82.2025C421.395 81.2263 419.29 80.3721 416.361 79.6399L410.138 78.1755C406.721 77.3823 403.761 75.9179 401.26 73.7824C398.819 71.5858 397.599 68.7486 397.599 65.2707C397.599 61.0607 399.338 57.7353 402.816 55.2947C406.294 52.7931 410.565 51.5422 415.629 51.5422C419.839 51.5422 423.561 52.427 426.795 54.1964C430.09 55.9659 432.469 58.5285 433.934 61.8844L425.056 65.6368C424.202 63.7453 422.89 62.342 421.12 61.4267C419.351 60.5115 417.429 60.0539 415.354 60.0539C413.341 60.0539 411.571 60.5115 410.046 61.4267C408.521 62.281 407.758 63.4403 407.758 64.9046C407.758 66.186 408.277 67.2232 409.314 68.0164C410.412 68.8096 412.121 69.4808 414.439 70.0299L421.212 71.6773C425.788 72.8366 429.205 74.6061 431.462 76.9857C433.72 79.3043 434.849 82.111 434.849 85.4058C434.849 88.0905 434.025 90.5311 432.378 92.7277C430.791 94.9242 428.564 96.6632 425.696 97.9445C422.89 99.2258 419.686 99.8665 416.087 99.8665Z" fill="#5A5A5A"/>
<path d="M367.921 99.8665C364.688 99.8665 361.759 99.2258 359.135 97.9445C356.573 96.6022 354.529 94.7717 353.003 92.4531C351.539 90.0735 350.807 87.3888 350.807 84.3991C350.807 79.6399 352.576 75.8874 356.115 73.1417C359.715 70.396 364.261 69.0232 369.752 69.0232C374.572 69.0232 378.691 69.8469 382.108 71.4943V69.5723C382.108 66.8266 381.009 64.569 378.813 62.7996C376.677 60.9691 374.084 60.0539 371.033 60.0539C366.396 60.0539 362.674 61.9454 359.867 65.7283L352.18 60.42C354.315 57.5523 356.969 55.3557 360.142 53.8303C363.376 52.3049 367.006 51.5422 371.033 51.5422C377.684 51.5422 382.809 53.2202 386.409 56.576C390.07 59.8708 391.901 64.5385 391.901 70.5791V98.4021H382.108V92.8192H381.558C380.094 94.8937 378.233 96.6022 375.976 97.9445C373.718 99.2258 371.033 99.8665 367.921 99.8665ZM369.569 91.5379C371.826 91.5379 373.901 90.9887 375.792 89.8905C377.745 88.7312 379.27 87.2363 380.369 85.4058C381.528 83.5143 382.108 81.5008 382.108 79.3653C378.874 77.5958 375.426 76.7111 371.765 76.7111C368.41 76.7111 365.786 77.4433 363.894 78.9077C362.003 80.372 361.057 82.233 361.057 84.4906C361.057 86.5651 361.881 88.2736 363.528 89.6159C365.237 90.8972 367.25 91.5379 369.569 91.5379Z" fill="#5A5A5A"/>
<path d="M325.684 99.8661C322.389 99.8661 319.43 99.1644 316.806 97.7611C314.244 96.3577 312.322 94.5882 311.04 92.4527H310.491V98.4017H300.973V32.8711H311.04V52.5486L310.491 58.8637H311.04C312.322 56.7892 314.244 55.0502 316.806 53.6469C319.43 52.2435 322.389 51.5418 325.684 51.5418C329.589 51.5418 333.189 52.5791 336.484 54.6536C339.84 56.7281 342.494 59.6264 344.446 63.3483C346.46 67.0093 347.466 71.1278 347.466 75.704C347.466 80.2801 346.46 84.3987 344.446 88.0596C342.494 91.7205 339.84 94.6188 336.484 96.7543C333.189 98.8288 329.589 99.8661 325.684 99.8661ZM323.945 90.6222C326.325 90.6222 328.521 90.0121 330.535 88.7918C332.609 87.5715 334.257 85.8325 335.477 83.575C336.758 81.2564 337.399 78.6327 337.399 75.704C337.399 72.7752 336.758 70.1821 335.477 67.9245C334.257 65.6059 332.609 63.8364 330.535 62.6161C328.521 61.3958 326.325 60.7857 323.945 60.7857C321.565 60.7857 319.338 61.3958 317.264 62.6161C315.25 63.8364 313.603 65.5754 312.322 67.833C311.101 70.0905 310.491 72.7142 310.491 75.704C310.491 78.6937 311.101 81.3174 312.322 83.575C313.603 85.8325 315.25 87.5715 317.264 88.7918C319.338 90.0121 321.565 90.6222 323.945 90.6222Z" fill="#5A5A5A"/>
<path d="M273.192 99.8666C268.738 99.8666 264.711 98.8294 261.111 96.7548C257.572 94.6803 254.795 91.8126 252.782 88.1516C250.768 84.4297 249.762 80.2807 249.762 75.7045C249.762 71.3114 250.707 67.2844 252.599 63.6234C254.551 59.9015 257.267 56.9727 260.745 54.8372C264.222 52.6406 268.188 51.5424 272.643 51.5424C277.219 51.5424 281.185 52.5491 284.541 54.5626C287.957 56.5761 290.551 59.3828 292.32 62.9828C294.089 66.5217 294.974 70.6097 294.974 75.2469C294.974 75.796 294.944 76.3452 294.883 76.8943C294.822 77.4434 294.791 77.7485 294.791 77.8095H259.829C260.134 81.9586 261.629 85.1619 264.314 87.4195C266.999 89.677 270.049 90.8058 273.466 90.8058C278.714 90.8058 282.741 88.3652 285.547 83.484L294.15 87.6025C292.137 91.3245 289.33 94.3142 285.73 96.5718C282.191 98.7683 278.012 99.8666 273.192 99.8666ZM284.724 70.1216C284.602 68.6572 284.113 67.1623 283.259 65.6369C282.405 64.1115 281.063 62.8302 279.232 61.793C277.463 60.6947 275.236 60.1455 272.551 60.1455C269.561 60.1455 266.968 61.0608 264.772 62.8912C262.636 64.7217 261.172 67.1318 260.378 70.1216H284.724Z" fill="#5A5A5A"/>
<path d="M221.822 53.0066H231.341V59.7794H231.89C232.866 57.4608 234.636 55.5388 237.198 54.0134C239.761 52.427 242.384 51.6338 245.069 51.6338C247.266 51.6338 249.066 51.9389 250.469 52.549V63.0742C248.395 62.0369 246.076 61.5183 243.513 61.5183C240.218 61.5183 237.442 62.7996 235.185 65.3623C232.988 67.8639 231.89 70.9452 231.89 74.6061V98.4021H221.822V53.0066Z" fill="#5A5A5A"/>
<path d="M207.452 45.3184C205.561 45.3184 203.944 44.6777 202.602 43.3964C201.32 42.0541 200.68 40.4371 200.68 38.5457C200.68 36.6542 201.32 35.0678 202.602 33.7865C203.944 32.4441 205.561 31.7729 207.452 31.7729C209.344 31.7729 210.93 32.4441 212.212 33.7865C213.554 35.0678 214.225 36.6542 214.225 38.5457C214.225 40.4371 213.554 42.0541 212.212 43.3964C210.93 44.6777 209.344 45.3184 207.452 45.3184ZM202.419 53.0063H212.486V98.4018H202.419V53.0063Z" fill="#5A5A5A"/>
<path d="M156.562 32.8712H196.375V42.6642H166.813V61.518H193.446V71.2194H166.813V98.4018H156.562V32.8712Z" fill="#5A5A5A"/>
<path d="M31.6562 118.567C36.7084 120.601 42.1896 121.807 47.9447 122.008C55.7335 122.28 63.1403 120.67 69.7616 117.611C61.8214 114.492 54.6303 109.929 48.4929 104.257C44.5147 110.627 38.6305 115.658 31.6562 118.567Z" fill="#FF9100"/>
<path d="M48.4923 104.259C34.4827 91.302 25.9838 72.5484 26.7021 51.979C26.7254 51.311 26.7607 50.6435 26.8019 49.9762C24.2928 49.3273 21.6734 48.9313 18.9777 48.8371C15.1191 48.7024 11.3823 49.181 7.85452 50.1744C4.11472 56.7255 1.85787 64.242 1.57672 72.2932C0.851127 93.0713 13.4253 111.227 31.6556 118.569C38.63 115.66 44.5139 110.635 48.4923 104.259Z" fill="#FFC400"/>
<path d="M48.4937 104.258C51.7509 99.0459 53.7258 92.9348 53.9557 86.3506C54.5605 69.0316 42.9175 54.133 26.8033 49.9757C26.762 50.643 26.7268 51.3105 26.7035 51.9785C25.9852 72.5479 34.484 91.3015 48.4937 104.258Z" fill="#FF9100"/>
<path d="M52.1543 1.29291C42.9766 8.64534 35.7294 18.3402 31.3447 29.5084C28.8344 35.9054 27.2569 42.7768 26.7964 49.9798C42.9106 54.1372 54.5536 69.0358 53.9488 86.3548C53.7189 92.939 51.7382 99.044 48.4868 104.263C54.6239 109.941 61.8153 114.497 69.7555 117.616C85.693 110.249 97.0006 94.3967 97.6554 75.6462C98.0796 63.4978 93.4121 52.6704 86.8167 43.5311C79.8515 33.8654 52.1543 1.29291 52.1543 1.29291Z" fill="#DD2C00"/>
<g filter="url(#filter0_d_47_1011)">
<circle cx="100" cy="90" r="30" fill="white"/>
<path fill-rule="evenodd" clip-rule="evenodd" d="M109.619 105.619C109.031 106.206 108.325 106.5 107.5 106.5H92.5C91.675 106.5 90.9687 106.206 90.3812 105.619C89.7937 105.031 89.5 104.325 89.5 103.5V98.9999L92.5 97.4999V98.9999H107.5V80.9999H92.5V82.4999L89.5 80.9999V76.4999C89.5 75.6749 89.7937 74.9686 90.3812 74.3811C90.9687 73.7936 91.675 73.4999 92.5 73.4999H107.5C108.325 73.4999 109.031 73.7936 109.619 74.3811C110.206 74.9686 110.5 75.6749 110.5 76.4999V103.5C110.5 104.325 110.206 105.031 109.619 105.619ZM83.5 97.4999V91.8749L91.0789 89.9999L83.5 88.1249V82.4999L101.5 89.9999L83.5 97.4999Z" fill="#1F1F1F"/>
</g>
<defs>
<filter id="filter0_d_47_1011" x="68" y="58.6704" width="64" height="64" filterUnits="userSpaceOnUse" color-interpolation-filters="sRGB">
<feFlood flood-opacity="0" result="BackgroundImageFix"/>
<feColorMatrix in="SourceAlpha" type="matrix" values="0 0 0 0 0 0 0 0 0 0 0 0 0 0 0 0 0 0 127 0" result="hardAlpha"/>
<feOffset dy="0.670408"/>
<feGaussianBlur stdDeviation="1"/>
<feComposite in2="hardAlpha" operator="out"/>
<feColorMatrix type="matrix" values="0 0 0 0 0 0 0 0 0 0 0 0 0 0 0 0 0 0 0.3 0"/>
<feBlend mode="normal" in2="BackgroundImageFix" result="effect1_dropShadow_47_1011"/>
<feBlend mode="normal" in="SourceGraphic" in2="effect1_dropShadow_47_1011" result="shape"/>
</filter>
</defs>
</svg>
