<svg width="990" height="128" viewBox="0 0 990 128" fill="none" xmlns="http://www.w3.org/2000/svg">
<path d="M525.467 33.5811H534.292L559.297 99.4014H550.747L544.128 81.2916H515.723L509.104 99.4014H500.555L525.467 33.5811ZM541.463 73.9374L532.729 50.22L530.064 43.1415H529.696L527.122 50.22L518.389 73.9374H541.463ZM564.705 52.5182H572.151V59.5047H572.518C573.928 57.1146 576.042 55.1228 578.861 53.5294C581.742 51.8747 584.959 51.0473 588.514 51.0473C592.681 51.0473 596.481 52.1198 599.913 54.2648C603.345 56.4098 606.041 59.3821 608.003 63.1818C609.964 66.9815 610.944 71.2408 610.944 75.9598C610.944 80.74 609.964 85.03 608.003 88.8297C606.041 92.5681 603.345 95.5098 599.913 97.6547C596.481 99.7997 592.681 100.872 588.514 100.872C584.959 100.872 581.742 100.076 578.861 98.4821C576.042 96.8274 573.928 94.8356 572.518 92.5068H572.151L572.518 98.9417V119.258H564.705V52.5182ZM587.595 93.7938C590.291 93.7938 592.834 93.0583 595.225 91.5875C597.615 90.1167 599.515 88.033 600.924 85.3364C602.395 82.5786 603.13 79.453 603.13 75.9598C603.13 72.4665 602.395 69.3716 600.924 66.6751C599.515 63.9172 597.615 61.8029 595.225 60.332C592.834 58.8612 590.291 58.1258 587.595 58.1258C584.898 58.1258 582.355 58.8612 579.965 60.332C577.574 61.8029 575.675 63.8866 574.265 66.5831C572.855 69.2797 572.151 72.4052 572.151 75.9598C572.151 79.5143 572.855 82.6399 574.265 85.3364C575.675 88.033 577.574 90.1167 579.965 91.5875C582.355 93.0583 584.898 93.7938 587.595 93.7938ZM616.909 52.5182H624.356V59.5047H624.723C626.133 57.1146 628.247 55.1228 631.066 53.5294C633.947 51.8747 637.164 51.0473 640.719 51.0473C644.886 51.0473 648.686 52.1198 652.118 54.2648C655.55 56.4098 658.246 59.3821 660.207 63.1818C662.169 66.9815 663.149 71.2408 663.149 75.9598C663.149 80.74 662.169 85.03 660.207 88.8297C658.246 92.5681 655.55 95.5098 652.118 97.6547C648.686 99.7997 644.886 100.872 640.719 100.872C637.164 100.872 633.947 100.076 631.066 98.4821C628.247 96.8274 626.133 94.8356 624.723 92.5068H624.356L624.723 98.9417V119.258H616.909V52.5182ZM639.799 93.7938C642.496 93.7938 645.039 93.0583 647.429 91.5875C649.82 90.1167 651.719 88.033 653.129 85.3364C654.6 82.5786 655.335 79.453 655.335 75.9598C655.335 72.4665 654.6 69.3716 653.129 66.6751C651.719 63.9172 649.82 61.8029 647.429 60.332C645.039 58.8612 642.496 58.1258 639.799 58.1258C637.103 58.1258 634.56 58.8612 632.169 60.332C629.779 61.8029 627.879 63.8866 626.47 66.5831C625.06 69.2797 624.356 72.4052 624.356 75.9598C624.356 79.5143 625.06 82.6399 626.47 85.3364C627.879 88.033 629.779 90.1167 632.169 91.5875C634.56 93.0583 637.103 93.7938 639.799 93.7938ZM691.47 33.5811H699.192V62.0787H733.205V33.5811H740.927V99.4014H733.205V69.4329H699.192V99.4014H691.47V33.5811ZM773.86 100.872C769.263 100.872 765.127 99.7691 761.449 97.5628C757.772 95.3565 754.892 92.3536 752.808 88.5539C750.786 84.7542 749.775 80.5562 749.775 75.9598C749.775 71.3634 750.786 67.1653 752.808 63.3657C754.892 59.566 757.772 56.563 761.449 54.3567C765.127 52.1505 769.263 51.0473 773.86 51.0473C778.456 51.0473 782.593 52.1505 786.27 54.3567C789.947 56.563 792.797 59.566 794.819 63.3657C796.903 67.1653 797.945 71.3634 797.945 75.9598C797.945 80.5562 796.903 84.7542 794.819 88.5539C792.797 92.3536 789.947 95.3565 786.27 97.5628C782.593 99.7691 778.456 100.872 773.86 100.872ZM773.86 93.7938C776.74 93.7938 779.406 93.089 781.857 91.6794C784.37 90.2086 786.362 88.1249 787.833 85.4283C789.365 82.7318 790.131 79.5756 790.131 75.9598C790.131 72.3439 789.365 69.1878 787.833 66.4912C786.362 63.7947 784.37 61.7416 781.857 60.332C779.406 58.8612 776.74 58.1258 773.86 58.1258C770.979 58.1258 768.283 58.8612 765.77 60.332C763.257 61.7416 761.235 63.7947 759.703 66.4912C758.232 69.1878 757.497 72.3439 757.497 75.9598C757.497 79.5756 758.232 82.7318 759.703 85.4283C761.235 88.1249 763.257 90.2086 765.77 91.6794C768.283 93.089 770.979 93.7938 773.86 93.7938ZM821.094 100.872C816.069 100.872 811.871 99.7078 808.5 97.379C805.129 94.9888 802.739 91.9552 801.33 88.2781L808.316 85.1526C809.48 87.9717 811.196 90.1473 813.464 91.6794C815.793 93.2116 818.336 93.9776 821.094 93.9776C824.036 93.9776 826.548 93.3954 828.632 92.231C830.716 91.0053 831.758 89.2893 831.758 87.083C831.758 85.1219 830.93 83.5591 829.276 82.3947C827.621 81.169 825.016 80.1272 821.462 79.2692L815.762 77.7983C812.024 76.8791 808.96 75.3163 806.569 73.11C804.179 70.9037 802.984 68.054 802.984 64.5607C802.984 61.8642 803.781 59.5047 805.374 57.4823C807.029 55.3986 809.205 53.8052 811.901 52.702C814.598 51.5989 817.509 51.0473 820.634 51.0473C824.74 51.0473 828.387 51.936 831.574 53.7132C834.822 55.4905 837.12 57.9726 838.468 61.1594L831.666 64.2849C829.582 60.1176 825.874 58.0339 820.542 58.0339C817.968 58.0339 815.701 58.6467 813.74 59.8724C811.84 61.0368 810.89 62.5383 810.89 64.3769C810.89 66.0929 811.564 67.5024 812.912 68.6056C814.261 69.6474 816.283 70.5054 818.98 71.1795L825.782 72.9262C830.379 74.0906 833.841 75.8372 836.17 78.166C838.499 80.4336 839.663 83.2221 839.663 86.5315C839.663 89.4119 838.836 91.9552 837.181 94.1615C835.527 96.3065 833.29 97.9612 830.471 99.1256C827.652 100.29 824.526 100.872 821.094 100.872ZM863.912 100.137C862.012 100.137 860.234 99.8304 858.58 99.2175C856.986 98.6047 855.638 97.7773 854.535 96.7355C853.309 95.571 852.39 94.2228 851.777 92.6906C851.164 91.1585 850.858 89.2893 850.858 87.083V59.5966H842.676V52.5182H850.858V39.2806H858.672V52.5182H870.071V59.5966H858.672V85.1526C858.672 87.7265 859.162 89.6264 860.143 90.8521C861.307 92.2004 862.992 92.8745 865.199 92.8745C866.976 92.8745 868.692 92.3536 870.347 91.3117V98.9417C869.427 99.3707 868.477 99.6772 867.497 99.861C866.577 100.045 865.382 100.137 863.912 100.137ZM882.765 43.877C881.233 43.877 879.916 43.3254 878.812 42.2223C877.709 41.1191 877.158 39.8015 877.158 38.2694C877.158 36.7372 877.709 35.4503 878.812 34.4084C879.916 33.3053 881.233 32.7537 882.765 32.7537C884.298 32.7537 885.615 33.3053 886.718 34.4084C887.821 35.4503 888.373 36.7372 888.373 38.2694C888.373 39.8015 887.821 41.1191 886.718 42.2223C885.676 43.3254 884.359 43.877 882.765 43.877ZM878.904 52.5182H886.626V99.4014H878.904V52.5182ZM897.068 52.5182H904.514V59.4128H904.882C906.169 57.0839 908.222 55.1228 911.041 53.5294C913.86 51.8747 916.863 51.0473 920.05 51.0473C925.688 51.0473 929.978 52.702 932.92 56.0114C935.923 59.2596 937.424 63.7027 937.424 69.341V99.4014H929.61V70.536C929.61 66.1848 928.569 63.0286 926.485 61.0675C924.401 59.1063 921.551 58.1258 917.936 58.1258C915.423 58.1258 913.155 58.8306 911.133 60.2401C909.172 61.6497 907.64 63.5189 906.537 65.8477C905.433 68.1153 904.882 70.5054 904.882 73.0181V99.4014H897.068V52.5182ZM966.902 120.729C961.387 120.729 956.821 119.442 953.205 116.868C949.651 114.294 947.26 111.199 946.035 107.583L953.113 104.549C954.155 107.246 955.871 109.421 958.261 111.076C960.712 112.792 963.593 113.65 966.902 113.65C971.744 113.65 975.482 112.241 978.117 109.421C980.814 106.602 982.162 102.619 982.162 97.4709V92.231H981.795C980.262 94.6211 978.087 96.5822 975.268 98.1144C972.51 99.5852 969.354 100.321 965.799 100.321C961.754 100.321 958.047 99.2788 954.676 97.1951C951.366 95.1114 948.731 92.2004 946.77 88.462C944.809 84.7236 943.828 80.4642 943.828 75.684C943.828 70.965 944.809 66.7364 946.77 62.998C948.731 59.1983 951.366 56.2566 954.676 54.1729C958.047 52.0892 961.754 51.0473 965.799 51.0473C969.354 51.0473 972.51 51.8134 975.268 53.3455C978.087 54.8164 980.262 56.7775 981.795 59.2289H982.162V52.5182H989.608V97.5628C989.608 105.101 987.525 110.831 983.357 114.753C979.19 118.737 973.705 120.729 966.902 120.729ZM966.902 93.2422C969.721 93.2422 972.265 92.5374 974.532 91.1279C976.861 89.7183 978.7 87.6959 980.048 85.0606C981.458 82.4254 982.162 79.2998 982.162 75.684C982.162 72.0069 981.458 68.8507 980.048 66.2154C978.7 63.5802 976.861 61.5884 974.532 60.2401C972.265 58.8306 969.721 58.1258 966.902 58.1258C964.083 58.1258 961.509 58.8306 959.18 60.2401C956.852 61.6497 954.982 63.6721 953.573 66.3074C952.224 68.9426 951.55 72.0682 951.55 75.684C951.55 79.2998 952.224 82.456 953.573 85.1526C954.982 87.7878 956.852 89.8102 959.18 91.2198C961.509 92.5681 964.083 93.2422 966.902 93.2422Z" fill="white"/>
<path d="M461.612 99.8672C457.157 99.8672 453.13 98.83 449.531 96.7554C445.992 94.6809 443.215 91.8132 441.202 88.1523C439.188 84.4303 438.182 80.2813 438.182 75.7051C438.182 71.312 439.127 67.285 441.019 63.624C442.971 59.9021 445.687 56.9733 449.164 54.8378C452.642 52.6412 456.608 51.543 461.062 51.543C465.639 51.543 469.605 52.5497 472.96 54.5632C476.377 56.5767 478.97 59.3835 480.74 62.9834C482.509 66.5223 483.394 70.6103 483.394 75.2475C483.394 75.7966 483.364 76.3458 483.303 76.8949C483.242 77.444 483.211 77.7491 483.211 77.8101H448.249C448.554 81.9592 450.049 85.1625 452.734 87.4201C455.419 89.6776 458.469 90.8064 461.886 90.8064C467.133 90.8064 471.161 88.3658 473.967 83.4846L482.57 87.6031C480.557 91.3251 477.75 94.3148 474.15 96.5724C470.611 98.769 466.432 99.8672 461.612 99.8672ZM473.144 70.1222C473.021 68.6578 472.533 67.1629 471.679 65.6375C470.825 64.1122 469.483 62.8308 467.652 61.7936C465.883 60.6953 463.656 60.1461 460.971 60.1461C457.981 60.1461 455.388 61.0614 453.191 62.8919C451.056 64.7223 449.592 67.1324 448.798 70.1222H473.144Z" fill="white"/>
<path d="M416.087 99.8672C410.9 99.8672 406.599 98.6774 403.182 96.2978C399.826 93.8572 397.446 90.8064 396.043 87.1455L405.012 83.3015C406.05 85.8032 407.544 87.6946 409.497 88.976C411.51 90.2573 413.707 90.898 416.087 90.898C418.588 90.898 420.632 90.4403 422.219 89.5251C423.805 88.5489 424.598 87.298 424.598 85.7727C424.598 84.3083 423.958 83.1185 422.676 82.2032C421.395 81.227 419.29 80.3728 416.361 79.6406L410.138 78.1762C406.721 77.383 403.761 75.9187 401.26 73.7831C398.819 71.5866 397.599 68.7493 397.599 65.2715C397.599 61.0614 399.338 57.736 402.816 55.2954C406.294 52.7938 410.565 51.543 415.629 51.543C419.839 51.543 423.561 52.4277 426.795 54.1971C430.09 55.9666 432.469 58.5292 433.934 61.8851L425.056 65.6375C424.202 63.7461 422.89 62.3427 421.12 61.4275C419.351 60.5122 417.429 60.0546 415.354 60.0546C413.341 60.0546 411.571 60.5122 410.046 61.4275C408.521 62.2817 407.758 63.441 407.758 64.9054C407.758 66.1867 408.277 67.2239 409.314 68.0171C410.412 68.8104 412.121 69.4815 414.439 70.0307L421.212 71.6781C425.788 72.8374 429.205 74.6068 431.462 76.9864C433.72 79.305 434.849 82.1117 434.849 85.4066C434.849 88.0912 434.025 90.5319 432.378 92.7284C430.791 94.925 428.564 96.6639 425.696 97.9452C422.89 99.2266 419.686 99.8672 416.087 99.8672Z" fill="white"/>
<path d="M367.921 99.8672C364.688 99.8672 361.759 99.2266 359.135 97.9452C356.573 96.6029 354.529 94.7724 353.003 92.4538C351.539 90.0742 350.807 87.3896 350.807 84.3998C350.807 79.6406 352.576 75.8881 356.115 73.1424C359.715 70.3968 364.261 69.0239 369.752 69.0239C374.572 69.0239 378.691 69.8476 382.108 71.495V69.573C382.108 66.8273 381.009 64.5698 378.813 62.8003C376.677 60.9699 374.084 60.0546 371.033 60.0546C366.396 60.0546 362.674 61.9461 359.867 65.7291L352.18 60.4207C354.315 57.553 356.969 55.3564 360.142 53.8311C363.376 52.3057 367.006 51.543 371.033 51.543C377.684 51.543 382.809 53.2209 386.409 56.5767C390.07 59.8716 391.901 64.5393 391.901 70.5798V98.4029H382.108V92.8199H381.558C380.094 94.8945 378.233 96.6029 375.976 97.9452C373.718 99.2266 371.033 99.8672 367.921 99.8672ZM369.569 91.5386C371.826 91.5386 373.901 90.9895 375.792 89.8912C377.745 88.7319 379.27 87.237 380.369 85.4066C381.528 83.5151 382.108 81.5016 382.108 79.366C378.874 77.5966 375.426 76.7119 371.765 76.7119C368.41 76.7119 365.786 77.444 363.894 78.9084C362.003 80.3728 361.057 82.2338 361.057 84.4913C361.057 86.5659 361.881 88.2743 363.528 89.6166C365.237 90.898 367.25 91.5386 369.569 91.5386Z" fill="white"/>
<path d="M325.684 99.8661C322.389 99.8661 319.43 99.1644 316.806 97.7611C314.244 96.3577 312.322 94.5882 311.04 92.4527H310.491V98.4017H300.973V32.8711H311.04V52.5486L310.491 58.8637H311.04C312.322 56.7892 314.244 55.0502 316.806 53.6469C319.43 52.2435 322.389 51.5418 325.684 51.5418C329.589 51.5418 333.189 52.5791 336.484 54.6536C339.84 56.7281 342.494 59.6264 344.446 63.3483C346.46 67.0093 347.466 71.1278 347.466 75.704C347.466 80.2801 346.46 84.3987 344.446 88.0596C342.494 91.7205 339.84 94.6188 336.484 96.7543C333.189 98.8288 329.589 99.8661 325.684 99.8661ZM323.945 90.6222C326.325 90.6222 328.521 90.0121 330.535 88.7918C332.609 87.5715 334.257 85.8325 335.477 83.575C336.758 81.2564 337.399 78.6327 337.399 75.704C337.399 72.7752 336.758 70.1821 335.477 67.9245C334.257 65.6059 332.609 63.8364 330.535 62.6161C328.521 61.3958 326.325 60.7857 323.945 60.7857C321.565 60.7857 319.338 61.3958 317.264 62.6161C315.25 63.8364 313.603 65.5754 312.322 67.833C311.101 70.0905 310.491 72.7142 310.491 75.704C310.491 78.6937 311.101 81.3174 312.322 83.575C313.603 85.8325 315.25 87.5715 317.264 88.7918C319.338 90.0121 321.565 90.6222 323.945 90.6222Z" fill="white"/>
<path d="M273.192 99.8672C268.738 99.8672 264.711 98.83 261.111 96.7554C257.572 94.6809 254.795 91.8132 252.782 88.1523C250.768 84.4303 249.762 80.2813 249.762 75.7051C249.762 71.312 250.707 67.285 252.599 63.624C254.551 59.9021 257.267 56.9733 260.745 54.8378C264.222 52.6412 268.188 51.543 272.643 51.543C277.219 51.543 281.185 52.5497 284.541 54.5632C287.957 56.5767 290.551 59.3835 292.32 62.9834C294.089 66.5223 294.974 70.6103 294.974 75.2475C294.974 75.7966 294.944 76.3458 294.883 76.8949C294.822 77.444 294.791 77.7491 294.791 77.8101H259.829C260.134 81.9592 261.629 85.1625 264.314 87.4201C266.999 89.6776 270.049 90.8064 273.466 90.8064C278.714 90.8064 282.741 88.3658 285.547 83.4846L294.15 87.6031C292.137 91.3251 289.33 94.3148 285.73 96.5724C282.191 98.769 278.012 99.8672 273.192 99.8672ZM284.724 70.1222C284.602 68.6578 284.113 67.1629 283.259 65.6375C282.405 64.1122 281.063 62.8308 279.232 61.7936C277.463 60.6953 275.236 60.1461 272.551 60.1461C269.561 60.1461 266.968 61.0614 264.772 62.8919C262.636 64.7223 261.172 67.1324 260.378 70.1222H284.724Z" fill="white"/>
<path d="M221.822 53.0076H231.341V59.7803H231.89C232.866 57.4617 234.636 55.5398 237.198 54.0144C239.761 52.428 242.384 51.6348 245.069 51.6348C247.266 51.6348 249.066 51.9398 250.469 52.55V63.0752C248.395 62.0379 246.076 61.5193 243.513 61.5193C240.218 61.5193 237.442 62.8006 235.185 65.3632C232.988 67.8649 231.89 70.9462 231.89 74.6071V98.4031H221.822V53.0076Z" fill="white"/>
<path d="M207.452 45.3189C205.561 45.3189 203.944 44.6782 202.602 43.3969C201.32 42.0545 200.68 40.4376 200.68 38.5462C200.68 36.6547 201.32 35.0683 202.602 33.787C203.944 32.4446 205.561 31.7734 207.452 31.7734C209.344 31.7734 210.93 32.4446 212.212 33.787C213.554 35.0683 214.225 36.6547 214.225 38.5462C214.225 40.4376 213.554 42.0545 212.212 43.3969C210.93 44.6782 209.344 45.3189 207.452 45.3189ZM202.419 53.0068H212.486V98.4023H202.419V53.0068Z" fill="white"/>
<path d="M156.562 32.8721H196.375V42.6651H166.813V61.5188H193.446V71.2203H166.813V98.4027H156.562V32.8721Z" fill="white"/>
<path d="M96.6179 66.9557V66.9173C96.6171 66.9029 96.6171 66.8885 96.6179 66.874C95.463 59.3471 92.4665 52.4136 88.4918 46.177C87.9918 45.3884 87.4719 44.6132 86.9403 43.843C86.6825 43.4696 86.4209 43.0995 86.1553 42.7328C81.044 35.6376 64.9002 16.3476 56.4192 6.28996C53.2111 2.48397 51.0996 0 51.0996 0C50.143 0.766866 49.208 1.55818 48.2948 2.37395L48.2631 2.40228C41.6491 8.5865 36.1645 15.8777 32.056 23.9479L32.0426 23.9729C31.2516 25.5289 30.5128 27.1126 29.8261 28.7241C28.2377 32.4574 26.9465 36.3104 25.9648 40.2471C25.3692 42.6266 24.8871 45.0478 24.5182 47.5107C22.4884 47.1785 20.4382 46.9858 18.382 46.9338C17.9931 46.9238 17.6043 46.9188 17.2154 46.9188C13.8555 46.9163 10.5059 47.291 7.22949 48.0358C5.2239 51.2756 3.6094 54.7417 2.41983 58.3618C0.811797 63.2612 -0.00504604 68.3857 2.34521e-05 73.5424C2.34521e-05 97.1119 16.7888 116.762 39.0571 121.171C42.1801 121.79 45.3561 122.101 48.5398 122.1C49.168 122.1 49.793 122.087 50.4163 122.065C52.0528 122.001 53.6666 121.858 55.2576 121.638C58.9651 121.124 62.6003 120.181 66.0901 118.828C67.0201 118.467 67.9356 118.078 68.8366 117.661C85.502 109.974 97.0795 93.1092 97.0795 73.5424C97.0732 71.339 96.9189 69.1385 96.6179 66.9557ZM32.8726 110.599C28.0934 108.579 23.7517 105.65 20.0885 101.975C16.4155 98.3105 13.4883 93.968 11.4692 89.1881C9.37475 84.2363 8.30117 78.9125 8.31274 73.5358C8.30099 68.1584 9.37457 62.834 11.4692 57.8817C11.8025 57.0859 12.163 56.3046 12.5508 55.5378C14.0914 55.3445 15.6427 55.2476 17.1954 55.2476C19.3797 55.2475 21.5597 55.4405 23.7099 55.8245C23.6633 56.9098 23.6399 58.0051 23.6399 59.1037C23.6106 79.543 31.667 99.1636 46.05 113.681C41.5137 113.414 37.0568 112.371 32.8726 110.599ZM50.7046 106.499C49.7291 105.462 48.7909 104.399 47.8898 103.308C43.5702 98.1073 40.0404 92.2979 37.4139 86.0673C33.8047 77.535 31.9539 68.3618 31.9727 59.097C31.9727 58.8447 31.9727 58.593 31.9727 58.3418C36.1015 60.1738 39.8555 62.7547 43.0452 65.9538C47.9902 70.8741 51.4142 77.1149 52.9078 83.9301C53.4725 86.5199 53.7563 89.1631 53.7544 91.8138C53.77 96.8667 52.7354 101.868 50.7163 106.499H50.7046ZM88.7701 74.9278C88.5155 82.4895 86.1301 89.8254 81.889 96.09C78.4423 101.178 73.883 105.413 68.5566 108.476L68.5033 108.451C67.1034 109.254 65.6565 109.971 64.1703 110.599C62.3188 111.382 60.4107 112.025 58.4624 112.521C58.1157 112.61 57.768 112.693 57.4191 112.771C57.2308 112.814 57.0441 112.856 56.8558 112.894C56.9291 112.761 57.0008 112.623 57.0708 112.486C57.1791 112.277 57.2858 112.069 57.3891 111.859C58.6614 109.314 59.686 106.652 60.4489 103.91C61.5437 99.975 62.0971 95.9087 62.0938 91.8238C62.0952 88.8521 61.8033 85.8875 61.2222 82.9732C58.1341 67.5258 47.1249 54.9426 32.6126 49.6312C33.2811 44.7179 34.4808 39.8918 36.1907 35.2375C36.574 34.1961 36.9823 33.1619 37.4156 32.135C38.0689 30.5879 38.7755 29.0709 39.5354 27.5838C39.54 27.5764 39.5439 27.5686 39.5471 27.5605C39.8587 26.912 40.1804 26.2735 40.5137 25.6367C43.1296 20.6538 46.4272 16.06 50.3113 11.9881L50.3763 12.0665C53.8194 16.1509 58.4274 21.6456 63.017 27.1821C65.3652 30.0161 67.7084 32.8618 69.8882 35.5375C73.9762 40.5572 77.4893 44.9783 79.3875 47.604C79.6591 47.9808 79.9241 48.3559 80.1841 48.736C82.9106 52.6954 85.0171 56.6981 86.4453 60.6574C87.3533 63.1539 88.0082 65.7353 88.4001 68.3627V68.3961C88.7209 70.5576 88.8459 72.7437 88.7735 74.9278H88.7701Z" fill="white"/>
<g filter="url(#filter0_d_47_2531)">
<circle cx="100" cy="90.4678" r="30" fill="white"/>
<path fill-rule="evenodd" clip-rule="evenodd" d="M118 84.4678C118 77.8438 112.624 72.4678 106 72.4678C99.376 72.4678 94 77.8438 94 84.4678C94 91.0918 99.376 96.4678 106 96.4678C112.624 96.4678 118 91.0918 118 84.4678ZM106 74.8678C100.701 74.8678 96.4 79.1693 96.4 84.4678H101.68C105.768 84.4938 107.586 86.3921 107.132 90.4678H102.985V93.5841C103.934 93.8979 104.947 94.0678 106 94.0678C111.299 94.0678 115.6 89.7663 115.6 84.4678C115.6 84.2721 115.594 84.0779 115.583 83.8851C115.583 83.8851 114.4 85.6678 112 85.6678C109.435 85.6678 108.153 83.6672 108.153 81.4678H103.655C103.655 78.4678 105.25 77.4577 107.099 77.4577C107.099 76.2875 107.492 75.5415 108.073 75.0925C107.405 74.9454 106.712 74.8678 106 74.8678Z" fill="#1F1F1F"/>
<path fill-rule="evenodd" clip-rule="evenodd" d="M97.514 94.9678C94.8212 92.7887 92.9833 89.5948 92.5824 85.9678H86.5C85.6716 85.9678 85 86.6393 85 87.4678V93.4678C85 94.2962 85.6716 94.9678 86.5 94.9678H97.514ZM99.8092 96.4678H86.5C85.6716 96.4678 85 97.1393 85 97.9678V103.968C85 104.796 85.6716 105.468 86.5 105.468H109C109.828 105.468 110.5 104.796 110.5 103.968V97.9678C110.5 97.7121 110.436 97.4714 110.323 97.2607C108.966 97.7192 107.512 97.9678 106 97.9678C103.769 97.9678 101.664 97.4264 99.8092 96.4678ZM88.75 88.9678C88.3358 88.9678 88 89.3036 88 89.7178V91.2178C88 91.632 88.3358 91.9678 88.75 91.9678H90.25C90.6642 91.9678 91 91.632 91 91.2178V89.7178C91 89.3036 90.6642 88.9678 90.25 88.9678H88.75ZM88.75 99.4678C88.3358 99.4678 88 99.8036 88 100.218V101.718C88 102.132 88.3358 102.468 88.75 102.468H90.25C90.6642 102.468 91 102.132 91 101.718V100.218C91 99.8036 90.6642 99.4678 90.25 99.4678H88.75Z" fill="#1F1F1F"/>
</g>
<defs>
<filter id="filter0_d_47_2531" x="68" y="59.1382" width="64" height="64" filterUnits="userSpaceOnUse" color-interpolation-filters="sRGB">
<feFlood flood-opacity="0" result="BackgroundImageFix"/>
<feColorMatrix in="SourceAlpha" type="matrix" values="0 0 0 0 0 0 0 0 0 0 0 0 0 0 0 0 0 0 127 0" result="hardAlpha"/>
<feOffset dy="0.670408"/>
<feGaussianBlur stdDeviation="1"/>
<feComposite in2="hardAlpha" operator="out"/>
<feColorMatrix type="matrix" values="0 0 0 0 0 0 0 0 0 0 0 0 0 0 0 0 0 0 0.3 0"/>
<feBlend mode="normal" in2="BackgroundImageFix" result="effect1_dropShadow_47_2531"/>
<feBlend mode="normal" in="SourceGraphic" in2="effect1_dropShadow_47_2531" result="shape"/>
</filter>
</defs>
</svg>
