<svg width="1186" height="127" viewBox="0 0 1186 127" fill="none" xmlns="http://www.w3.org/2000/svg">
<path d="M537.418 100.404C531.044 100.404 525.253 98.903 520.043 95.9C514.834 92.897 510.728 88.7909 507.725 83.5816C504.783 78.3111 503.313 72.4584 503.313 66.0234C503.313 59.5885 504.783 53.7664 507.725 48.5572C510.728 43.2866 514.834 39.1499 520.043 36.1469C525.253 33.1439 531.044 31.6424 537.418 31.6424C542.321 31.6424 546.794 32.5924 550.839 34.4922C554.945 36.3308 558.5 38.966 561.503 42.398L555.895 47.8217C553.383 44.8188 550.625 42.6125 547.622 41.2029C544.68 39.7934 541.279 39.0886 537.418 39.0886C532.638 39.0886 528.256 40.2224 524.272 42.4899C520.289 44.6962 517.102 47.8524 514.712 51.9585C512.383 56.0033 511.218 60.6916 511.218 66.0234C511.218 71.3553 512.383 76.0742 514.712 80.1803C517.102 84.2251 520.289 87.3813 524.272 89.6489C528.256 91.8552 532.638 92.9583 537.418 92.9583C545.385 92.9583 552.157 89.6795 557.734 83.122L563.433 88.6377C560.369 92.2535 556.6 95.1339 552.126 97.2789C547.652 99.3626 542.75 100.404 537.418 100.404ZM570.369 33.1133H578.183V98.9336H570.369V33.1133ZM609.075 100.404C604.479 100.404 600.342 99.3013 596.665 97.095C592.988 94.8888 590.108 91.8858 588.024 88.0861C586.002 84.2864 584.99 80.0884 584.99 75.492C584.99 70.8956 586.002 66.6976 588.024 62.8979C590.108 59.0982 592.988 56.0952 596.665 53.889C600.342 51.6827 604.479 50.5796 609.075 50.5796C613.672 50.5796 617.809 51.6827 621.486 53.889C625.163 56.0952 628.013 59.0982 630.035 62.8979C632.119 66.6976 633.161 70.8956 633.161 75.492C633.161 80.0884 632.119 84.2864 630.035 88.0861C628.013 91.8858 625.163 94.8888 621.486 97.095C617.809 99.3013 613.672 100.404 609.075 100.404ZM609.075 93.326C611.956 93.326 614.622 92.6212 617.073 91.2117C619.586 89.7408 621.578 87.6571 623.048 84.9606C624.581 82.264 625.347 79.1078 625.347 75.492C625.347 71.8762 624.581 68.72 623.048 66.0234C621.578 63.3269 619.586 61.2738 617.073 59.8643C614.622 58.3934 611.956 57.658 609.075 57.658C606.195 57.658 603.499 58.3934 600.986 59.8643C598.473 61.2738 596.451 63.3269 594.919 66.0234C593.448 68.72 592.712 71.8762 592.712 75.492C592.712 79.1078 593.448 82.264 594.919 84.9606C596.451 87.6571 598.473 89.7408 600.986 91.2117C603.499 92.6212 606.195 93.326 609.075 93.326ZM656.953 100.404C651.315 100.404 646.994 98.7497 643.992 95.4403C641.05 92.1309 639.579 87.5039 639.579 81.5592V52.0504H647.393V80.3642C647.393 84.838 648.404 88.1168 650.426 90.2005C652.449 92.2841 655.176 93.326 658.608 93.326C661.243 93.326 663.572 92.6212 665.595 91.2117C667.678 89.8021 669.272 87.9635 670.375 85.696C671.539 83.4284 672.121 81.0383 672.121 78.5256V52.0504H679.935V98.9336H672.489V92.1309H672.121C670.834 94.4598 668.781 96.4209 665.962 98.0143C663.143 99.6077 660.14 100.404 656.953 100.404ZM709.046 100.404C704.878 100.404 701.078 99.3319 697.646 97.187C694.276 95.042 691.61 92.1003 689.649 88.3619C687.688 84.5622 686.707 80.2722 686.707 75.492C686.707 70.773 687.688 66.5137 689.649 62.714C691.61 58.9144 694.276 55.942 697.646 53.797C701.078 51.6521 704.878 50.5796 709.046 50.5796C712.661 50.5796 715.879 51.4069 718.698 53.0616C721.517 54.655 723.662 56.6468 725.133 59.0369H725.501L725.133 52.5101V33.1133H732.947V98.9336H725.501V92.039H725.133C723.662 94.3678 721.517 96.3596 718.698 98.0143C715.879 99.6077 712.661 100.404 709.046 100.404ZM709.965 93.326C712.723 93.326 715.266 92.5906 717.595 91.1197C719.985 89.6489 721.885 87.5652 723.294 84.8686C724.765 82.1721 725.501 79.0465 725.501 75.492C725.501 71.9375 724.765 68.8119 723.294 66.1154C721.885 63.4188 719.985 61.3351 717.595 59.8643C715.266 58.3934 712.723 57.658 709.965 57.658C707.268 57.658 704.725 58.3934 702.335 59.8643C699.945 61.3351 698.014 63.4495 696.543 66.2073C695.134 68.9038 694.429 71.9987 694.429 75.492C694.429 78.9853 695.134 82.1108 696.543 84.8686C698.014 87.5652 699.945 89.6489 702.335 91.1197C704.725 92.5906 707.268 93.326 709.965 93.326ZM763.741 33.1133H775.048L796.008 87.0749H796.375L817.335 33.1133H828.642V98.9336H820.92V57.1064L821.288 44.6043H820.92L799.409 98.9336H792.974L771.463 44.6043H771.095L771.463 57.1064V98.9336H763.741V33.1133ZM860.836 100.404C856.362 100.404 852.348 99.3319 848.794 97.187C845.239 95.042 842.451 92.1003 840.428 88.3619C838.467 84.5622 837.487 80.3029 837.487 75.5839C837.487 71.0488 838.406 66.8814 840.244 63.0817C842.144 59.2821 844.81 56.2484 848.242 53.9809C851.674 51.7133 855.658 50.5796 860.193 50.5796C864.789 50.5796 868.773 51.6214 872.143 53.7051C875.514 55.7275 878.088 58.5466 879.865 62.1625C881.704 65.7783 882.623 69.915 882.623 74.5727C882.623 75.492 882.531 76.2887 882.347 76.9628H845.3C845.484 80.5174 846.342 83.5204 847.874 85.9718C849.407 88.4232 851.337 90.2617 853.666 91.4874C856.056 92.7131 858.538 93.326 861.112 93.326C867.118 93.326 871.745 90.5069 874.993 84.8686L881.612 88.0861C879.59 91.8858 876.832 94.8888 873.338 97.095C869.906 99.3013 865.739 100.404 860.836 100.404ZM874.35 70.5279C874.227 68.5668 873.676 66.6056 872.695 64.6445C871.714 62.6834 870.152 61.0287 868.007 59.6804C865.923 58.3321 863.288 57.658 860.101 57.658C856.424 57.658 853.298 58.8531 850.724 61.2432C848.212 63.572 846.557 66.6669 845.76 70.5279H874.35ZM906.741 100.404C901.716 100.404 897.518 99.24 894.147 96.9112C890.776 94.5211 888.386 91.4874 886.977 87.8103L893.963 84.6848C895.128 87.5039 896.844 89.6795 899.111 91.2117C901.44 92.7438 903.983 93.5099 906.741 93.5099C909.683 93.5099 912.196 92.9276 914.279 91.7632C916.363 90.5375 917.405 88.8215 917.405 86.6153C917.405 84.6541 916.578 83.0914 914.923 81.9269C913.268 80.7012 910.664 79.6594 907.109 78.8014L901.409 77.3306C897.671 76.4113 894.607 74.8485 892.217 72.6422C889.827 70.436 888.631 67.5862 888.631 64.093C888.631 61.3964 889.428 59.0369 891.022 57.0145C892.676 54.9308 894.852 53.3374 897.548 52.2343C900.245 51.1311 903.156 50.5796 906.282 50.5796C910.388 50.5796 914.034 51.4682 917.221 53.2455C920.469 55.0227 922.767 57.5048 924.116 60.6916L917.313 63.8172C915.229 59.6498 911.522 57.5661 906.19 57.5661C903.616 57.5661 901.348 58.1789 899.387 59.4046C897.487 60.5691 896.537 62.0705 896.537 63.9091C896.537 65.6251 897.211 67.0346 898.56 68.1378C899.908 69.1796 901.93 70.0376 904.627 70.7118L911.43 72.4584C916.026 73.6228 919.489 75.3694 921.817 77.6983C924.146 79.9658 925.311 82.7543 925.311 86.0637C925.311 88.9441 924.483 91.4874 922.829 93.6937C921.174 95.8387 918.937 97.4934 916.118 98.6578C913.299 99.8222 910.173 100.404 906.741 100.404ZM948.353 100.404C943.328 100.404 939.13 99.24 935.759 96.9112C932.388 94.5211 929.998 91.4874 928.589 87.8103L935.575 84.6848C936.739 87.5039 938.455 89.6795 940.723 91.2117C943.052 92.7438 945.595 93.5099 948.353 93.5099C951.295 93.5099 953.807 92.9276 955.891 91.7632C957.975 90.5375 959.017 88.8215 959.017 86.6153C959.017 84.6541 958.189 83.0914 956.535 81.9269C954.88 80.7012 952.275 79.6594 948.721 78.8014L943.021 77.3306C939.283 76.4113 936.219 74.8485 933.828 72.6422C931.438 70.436 930.243 67.5862 930.243 64.093C930.243 61.3964 931.04 59.0369 932.633 57.0145C934.288 54.9308 936.464 53.3374 939.16 52.2343C941.857 51.1311 944.768 50.5796 947.893 50.5796C951.999 50.5796 955.646 51.4682 958.833 53.2455C962.081 55.0227 964.379 57.5048 965.727 60.6916L958.925 63.8172C956.841 59.6498 953.133 57.5661 947.801 57.5661C945.227 57.5661 942.96 58.1789 940.999 59.4046C939.099 60.5691 938.149 62.0705 938.149 63.9091C938.149 65.6251 938.823 67.0346 940.171 68.1378C941.52 69.1796 943.542 70.0376 946.239 70.7118L953.041 72.4584C957.638 73.6228 961.1 75.3694 963.429 77.6983C965.758 79.9658 966.922 82.7543 966.922 86.0637C966.922 88.9441 966.095 91.4874 964.44 93.6937C962.786 95.8387 960.549 97.4934 957.73 98.6578C954.911 99.8222 951.785 100.404 948.353 100.404ZM989.035 100.404C985.603 100.404 982.538 99.7303 979.842 98.382C977.145 97.0338 975.062 95.1952 973.591 92.8664C972.12 90.4762 971.384 87.7797 971.384 84.7767C971.384 79.8126 973.254 75.9516 976.992 73.1938C980.73 70.3747 985.449 68.9651 991.149 68.9651C993.968 68.9651 996.573 69.2716 998.963 69.8844C1001.41 70.4973 1003.28 71.202 1004.57 71.9987V69.149C1004.57 65.6557 1003.34 62.8673 1000.89 60.7836C998.442 58.6386 995.347 57.5661 991.609 57.5661C988.973 57.5661 986.553 58.1483 984.346 59.3127C982.14 60.4158 980.393 61.9786 979.106 64.001L973.223 59.5885C975.062 56.7694 977.574 54.5631 980.761 52.9697C984.009 51.3763 987.594 50.5796 991.517 50.5796C997.89 50.5796 1002.89 52.2649 1006.5 55.6356C1010.18 58.945 1012.02 63.4801 1012.02 69.2409V98.9336H1004.57V92.2229H1004.2C1002.85 94.4904 1000.83 96.4209 998.135 98.0143C995.439 99.6077 992.405 100.404 989.035 100.404ZM989.77 93.5099C992.405 93.5099 994.857 92.8357 997.124 91.4874C999.392 90.1392 1001.2 88.3313 1002.55 86.0637C1003.9 83.7961 1004.57 81.3141 1004.57 78.6175C1003.1 77.637 1001.29 76.8403 999.147 76.2274C997.002 75.6146 994.734 75.3081 992.344 75.3081C988.054 75.3081 984.806 76.1968 982.6 77.9741C980.455 79.7513 979.382 82.0495 979.382 84.8686C979.382 87.4426 980.363 89.5263 982.324 91.1197C984.285 92.7131 986.767 93.5099 989.77 93.5099ZM1041.19 120.261C1035.68 120.261 1031.11 118.974 1027.49 116.4C1023.94 113.826 1021.55 110.731 1020.32 107.115L1027.4 104.082C1028.44 106.778 1030.16 108.954 1032.55 110.608C1035 112.324 1037.88 113.182 1041.19 113.182C1046.03 113.182 1049.77 111.773 1052.41 108.954C1055.1 106.135 1056.45 102.151 1056.45 97.0031V91.7632H1056.08C1054.55 94.1533 1052.38 96.1145 1049.56 97.6466C1046.8 99.1174 1043.64 99.8529 1040.09 99.8529C1036.04 99.8529 1032.34 98.811 1028.97 96.7273C1025.66 94.6436 1023.02 91.7326 1021.06 87.9942C1019.1 84.2558 1018.12 79.9965 1018.12 75.2162C1018.12 70.4973 1019.1 66.2686 1021.06 62.5302C1023.02 58.7305 1025.66 55.7888 1028.97 53.7051C1032.34 51.6214 1036.04 50.5796 1040.09 50.5796C1043.64 50.5796 1046.8 51.3456 1049.56 52.8778C1052.38 54.3486 1054.55 56.3097 1056.08 58.7611H1056.45V52.0504H1063.9V97.095C1063.9 104.633 1061.81 110.363 1057.65 114.286C1053.48 118.269 1047.99 120.261 1041.19 120.261ZM1041.19 92.7744C1044.01 92.7744 1046.55 92.0697 1048.82 90.6601C1051.15 89.2505 1052.99 87.2281 1054.34 84.5929C1055.75 81.9576 1056.45 78.832 1056.45 75.2162C1056.45 71.5391 1055.75 68.3829 1054.34 65.7477C1052.99 63.1124 1051.15 61.1206 1048.82 59.7723C1046.55 58.3628 1044.01 57.658 1041.19 57.658C1038.37 57.658 1035.8 58.3628 1033.47 59.7723C1031.14 61.1819 1029.27 63.2043 1027.86 65.8396C1026.51 68.4748 1025.84 71.6004 1025.84 75.2162C1025.84 78.832 1026.51 81.9882 1027.86 84.6848C1029.27 87.32 1031.14 89.3425 1033.47 90.752C1035.8 92.1003 1038.37 92.7744 1041.19 92.7744ZM1078.21 43.4092C1076.68 43.4092 1075.36 42.8576 1074.26 41.7545C1073.15 40.6514 1072.6 39.3337 1072.6 37.8016C1072.6 36.2695 1073.15 34.9825 1074.26 33.9406C1075.36 32.8375 1076.68 32.2859 1078.21 32.2859C1079.74 32.2859 1081.06 32.8375 1082.16 33.9406C1083.26 34.9825 1083.82 36.2695 1083.82 37.8016C1083.82 39.3337 1083.26 40.6514 1082.16 41.7545C1081.12 42.8576 1079.8 43.4092 1078.21 43.4092ZM1074.35 52.0504H1082.07V98.9336H1074.35V52.0504ZM1092.51 52.0504H1099.96V58.945H1100.33C1101.61 56.6162 1103.67 54.655 1106.48 53.0616C1109.3 51.4069 1112.31 50.5796 1115.49 50.5796C1121.13 50.5796 1125.42 52.2343 1128.36 55.5437C1131.37 58.7918 1132.87 63.235 1132.87 68.8732V98.9336H1125.05V70.0683C1125.05 65.717 1124.01 62.5608 1121.93 60.5997C1119.84 58.6386 1116.99 57.658 1113.38 57.658C1110.87 57.658 1108.6 58.3628 1106.58 59.7723C1104.62 61.1819 1103.08 63.0511 1101.98 65.3799C1100.88 67.6475 1100.33 70.0376 1100.33 72.5503V98.9336H1092.51V52.0504ZM1162.35 120.261C1156.83 120.261 1152.26 118.974 1148.65 116.4C1145.09 113.826 1142.7 110.731 1141.48 107.115L1148.56 104.082C1149.6 106.778 1151.31 108.954 1153.7 110.608C1156.16 112.324 1159.04 113.182 1162.35 113.182C1167.19 113.182 1170.93 111.773 1173.56 108.954C1176.26 106.135 1177.61 102.151 1177.61 97.0031V91.7632H1177.24C1175.71 94.1533 1173.53 96.1145 1170.71 97.6466C1167.95 99.1174 1164.8 99.8529 1161.24 99.8529C1157.2 99.8529 1153.49 98.811 1150.12 96.7273C1146.81 94.6436 1144.17 91.7326 1142.21 87.9942C1140.25 84.2558 1139.27 79.9965 1139.27 75.2162C1139.27 70.4973 1140.25 66.2686 1142.21 62.5302C1144.17 58.7305 1146.81 55.7888 1150.12 53.7051C1153.49 51.6214 1157.2 50.5796 1161.24 50.5796C1164.8 50.5796 1167.95 51.3456 1170.71 52.8778C1173.53 54.3486 1175.71 56.3097 1177.24 58.7611H1177.61V52.0504H1185.05V97.095C1185.05 104.633 1182.97 110.363 1178.8 114.286C1174.63 118.269 1169.15 120.261 1162.35 120.261ZM1162.35 92.7744C1165.16 92.7744 1167.71 92.0697 1169.98 90.6601C1172.3 89.2505 1174.14 87.2281 1175.49 84.5929C1176.9 81.9576 1177.61 78.832 1177.61 75.2162C1177.61 71.5391 1176.9 68.3829 1175.49 65.7477C1174.14 63.1124 1172.3 61.1206 1169.98 59.7723C1167.71 58.3628 1165.16 57.658 1162.35 57.658C1159.53 57.658 1156.95 58.3628 1154.62 59.7723C1152.3 61.1819 1150.43 63.2043 1149.02 65.8396C1147.67 68.4748 1146.99 71.6004 1146.99 75.2162C1146.99 78.832 1147.67 81.9882 1149.02 84.6848C1150.43 87.32 1152.3 89.3425 1154.62 90.752C1156.95 92.1003 1159.53 92.7744 1162.35 92.7744Z" fill="white"/>
<path d="M461.612 99.3985C457.157 99.3985 453.13 98.3612 449.531 96.2867C445.992 94.2122 443.215 91.3444 441.202 87.6835C439.188 83.9616 438.182 79.8125 438.182 75.2364C438.182 70.8432 439.127 66.8162 441.019 63.1553C442.971 59.4333 445.687 56.5046 449.164 54.3691C452.642 52.1725 456.608 51.0742 461.062 51.0742C465.639 51.0742 469.605 52.081 472.96 54.0945C476.377 56.108 478.97 58.9147 480.74 62.5146C482.509 66.0535 483.394 70.1416 483.394 74.7787C483.394 75.3279 483.364 75.877 483.303 76.4262C483.242 76.9753 483.211 77.2804 483.211 77.3414H448.249C448.554 81.4904 450.049 84.6937 452.734 86.9513C455.419 89.2089 458.469 90.3377 461.886 90.3377C467.133 90.3377 471.161 87.8971 473.967 83.0158L482.57 87.1344C480.557 90.8563 477.75 93.8461 474.15 96.1036C470.611 98.3002 466.432 99.3985 461.612 99.3985ZM473.144 69.6534C473.021 68.1891 472.533 66.6942 471.679 65.1688C470.825 63.6434 469.483 62.3621 467.652 61.3248C465.883 60.2265 463.656 59.6774 460.971 59.6774C457.981 59.6774 455.388 60.5926 453.191 62.4231C451.056 64.2536 449.592 66.6637 448.798 69.6534H473.144Z" fill="white"/>
<path d="M416.087 99.3985C410.9 99.3985 406.599 98.2087 403.182 95.8291C399.826 93.3885 397.446 90.3377 396.043 86.6768L405.012 82.8328C406.05 85.3344 407.544 87.2259 409.497 88.5072C411.51 89.7885 413.707 90.4292 416.087 90.4292C418.588 90.4292 420.632 89.9716 422.219 89.0564C423.805 88.0801 424.598 86.8293 424.598 85.3039C424.598 83.8395 423.958 82.6497 422.676 81.7345C421.395 80.7582 419.29 79.904 416.361 79.1718L410.138 77.7075C406.721 76.9143 403.761 75.4499 401.26 73.3144C398.819 71.1178 397.599 68.2806 397.599 64.8027C397.599 60.5926 399.338 57.2673 402.816 54.8267C406.294 52.325 410.565 51.0742 415.629 51.0742C419.839 51.0742 423.561 51.9589 426.795 53.7284C430.09 55.4978 432.469 58.0605 433.934 61.4163L425.056 65.1688C424.202 63.2773 422.89 61.874 421.12 60.9587C419.351 60.0435 417.429 59.5859 415.354 59.5859C413.341 59.5859 411.571 60.0435 410.046 60.9587C408.521 61.8129 407.758 62.9722 407.758 64.4366C407.758 65.7179 408.277 66.7552 409.314 67.5484C410.412 68.3416 412.121 69.0128 414.439 69.5619L421.212 71.2093C425.788 72.3686 429.205 74.1381 431.462 76.5177C433.72 78.8363 434.849 81.643 434.849 84.9378C434.849 87.6225 434.025 90.0631 432.378 92.2597C430.791 94.4562 428.564 96.1952 425.696 97.4765C422.89 98.7578 419.686 99.3985 416.087 99.3985Z" fill="white"/>
<path d="M367.921 99.3985C364.688 99.3985 361.759 98.7578 359.135 97.4765C356.573 96.1342 354.529 94.3037 353.003 91.9851C351.539 89.6055 350.807 86.9208 350.807 83.9311C350.807 79.1719 352.576 75.4194 356.115 72.6737C359.715 69.928 364.261 68.5552 369.752 68.5552C374.572 68.5552 378.691 69.3789 382.108 71.0263V69.1043C382.108 66.3586 381.009 64.101 378.813 62.3316C376.677 60.5011 374.084 59.5859 371.033 59.5859C366.396 59.5859 362.674 61.4774 359.867 65.2603L352.18 59.952C354.315 57.0842 356.969 54.8877 360.142 53.3623C363.376 51.8369 367.006 51.0742 371.033 51.0742C377.684 51.0742 382.809 52.7521 386.409 56.108C390.07 59.4028 391.901 64.0705 391.901 70.111V97.9341H382.108V92.3512H381.558C380.094 94.4257 378.233 96.1342 375.976 97.4765C373.718 98.7578 371.033 99.3985 367.921 99.3985ZM369.569 91.0699C371.826 91.0699 373.901 90.5207 375.792 89.4224C377.745 88.2632 379.27 86.7683 380.369 84.9378C381.528 83.0463 382.108 81.0328 382.108 78.8973C378.874 77.1278 375.426 76.2431 371.765 76.2431C368.41 76.2431 365.786 76.9753 363.894 78.4397C362.003 79.904 361.057 81.765 361.057 84.0226C361.057 86.0971 361.881 87.8055 363.528 89.1479C365.237 90.4292 367.25 91.0699 369.569 91.0699Z" fill="white"/>
<path d="M325.684 99.3973C322.389 99.3973 319.43 98.6957 316.806 97.2923C314.244 95.8889 312.322 94.1195 311.04 91.984H310.491V97.933H300.973V32.4023H311.04V52.0798L310.491 58.3949H311.04C312.322 56.3204 314.244 54.5815 316.806 53.1781C319.43 51.7748 322.389 51.0731 325.684 51.0731C329.589 51.0731 333.189 52.1103 336.484 54.1849C339.84 56.2594 342.494 59.1576 344.446 62.8796C346.46 66.5405 347.466 70.659 347.466 75.2352C347.466 79.8114 346.46 83.9299 344.446 87.5908C342.494 91.2518 339.84 94.15 336.484 96.2855C333.189 98.3601 329.589 99.3973 325.684 99.3973ZM323.945 90.1535C326.325 90.1535 328.521 89.5433 330.535 88.323C332.609 87.1027 334.257 85.3638 335.477 83.1062C336.758 80.7876 337.399 78.164 337.399 75.2352C337.399 72.3065 336.758 69.7133 335.477 67.4557C334.257 65.1371 332.609 63.3677 330.535 62.1474C328.521 60.9271 326.325 60.3169 323.945 60.3169C321.565 60.3169 319.338 60.9271 317.264 62.1474C315.25 63.3677 313.603 65.1066 312.322 67.3642C311.101 69.6218 310.491 72.2454 310.491 75.2352C310.491 78.225 311.101 80.8486 312.322 83.1062C313.603 85.3638 315.25 87.1027 317.264 88.323C319.338 89.5433 321.565 90.1535 323.945 90.1535Z" fill="white"/>
<path d="M273.192 99.3985C268.738 99.3985 264.711 98.3612 261.111 96.2867C257.572 94.2122 254.795 91.3444 252.782 87.6835C250.768 83.9616 249.762 79.8125 249.762 75.2364C249.762 70.8432 250.707 66.8162 252.599 63.1553C254.551 59.4333 257.267 56.5046 260.745 54.3691C264.222 52.1725 268.188 51.0742 272.643 51.0742C277.219 51.0742 281.185 52.081 284.541 54.0945C287.957 56.108 290.551 58.9147 292.32 62.5146C294.089 66.0535 294.974 70.1416 294.974 74.7787C294.974 75.3279 294.944 75.877 294.883 76.4262C294.822 76.9753 294.791 77.2804 294.791 77.3414H259.829C260.134 81.4904 261.629 84.6937 264.314 86.9513C266.999 89.2089 270.049 90.3377 273.466 90.3377C278.714 90.3377 282.741 87.8971 285.547 83.0158L294.15 87.1344C292.137 90.8563 289.33 93.8461 285.73 96.1036C282.191 98.3002 278.012 99.3985 273.192 99.3985ZM284.724 69.6534C284.602 68.1891 284.113 66.6942 283.259 65.1688C282.405 63.6434 281.063 62.3621 279.232 61.3248C277.463 60.2265 275.236 59.6774 272.551 59.6774C269.561 59.6774 266.968 60.5926 264.772 62.4231C262.636 64.2536 261.172 66.6637 260.378 69.6534H284.724Z" fill="white"/>
<path d="M221.822 52.5389H231.341V59.3116H231.89C232.866 56.993 234.636 55.071 237.198 53.5456C239.761 51.9592 242.384 51.166 245.069 51.166C247.266 51.166 249.066 51.4711 250.469 52.0812V62.6064C248.395 61.5692 246.076 61.0505 243.513 61.0505C240.218 61.0505 237.442 62.3318 235.185 64.8945C232.988 67.3961 231.89 70.4774 231.89 74.1383V97.9344H221.822V52.5389Z" fill="white"/>
<path d="M207.452 44.8501C205.561 44.8501 203.944 44.2095 202.602 42.9281C201.32 41.5858 200.68 39.9689 200.68 38.0774C200.68 36.1859 201.32 34.5995 202.602 33.3182C203.944 31.9759 205.561 31.3047 207.452 31.3047C209.344 31.3047 210.93 31.9759 212.212 33.3182C213.554 34.5995 214.225 36.1859 214.225 38.0774C214.225 39.9689 213.554 41.5858 212.212 42.9281C210.93 44.2095 209.344 44.8501 207.452 44.8501ZM202.419 52.5381H212.486V97.9336H202.419V52.5381Z" fill="white"/>
<path d="M156.562 32.4033H196.375V42.1963H166.813V61.0501H193.446V70.7515H166.813V97.9339H156.562V32.4033Z" fill="white"/>
<path d="M96.6179 66.9557V66.9173C96.6171 66.9029 96.6171 66.8885 96.6179 66.874C95.463 59.3471 92.4665 52.4136 88.4918 46.177C87.9918 45.3884 87.4719 44.6132 86.9403 43.843C86.6825 43.4696 86.4209 43.0995 86.1553 42.7328C81.044 35.6376 64.9002 16.3476 56.4192 6.28996C53.2111 2.48397 51.0996 0 51.0996 0C50.143 0.766866 49.208 1.55818 48.2948 2.37395L48.2631 2.40228C41.6491 8.5865 36.1645 15.8777 32.056 23.9479L32.0426 23.9729C31.2516 25.5289 30.5128 27.1126 29.8261 28.7241C28.2377 32.4574 26.9465 36.3104 25.9648 40.2471C25.3692 42.6266 24.8871 45.0478 24.5182 47.5107C22.4884 47.1785 20.4382 46.9858 18.382 46.9338C17.9931 46.9238 17.6043 46.9188 17.2154 46.9188C13.8555 46.9163 10.5059 47.291 7.22949 48.0358C5.2239 51.2756 3.6094 54.7417 2.41983 58.3618C0.811797 63.2612 -0.00504604 68.3857 2.34521e-05 73.5424C2.34521e-05 97.1119 16.7888 116.762 39.0571 121.171C42.1801 121.79 45.3561 122.101 48.5398 122.1C49.168 122.1 49.793 122.087 50.4163 122.065C52.0528 122.001 53.6666 121.858 55.2576 121.638C58.9651 121.124 62.6003 120.181 66.0901 118.828C67.0201 118.467 67.9356 118.078 68.8366 117.661C85.502 109.974 97.0795 93.1092 97.0795 73.5424C97.0732 71.339 96.9189 69.1385 96.6179 66.9557ZM32.8726 110.599C28.0934 108.579 23.7517 105.65 20.0885 101.975C16.4155 98.3105 13.4883 93.968 11.4692 89.1881C9.37475 84.2363 8.30117 78.9125 8.31274 73.5358C8.30099 68.1584 9.37457 62.834 11.4692 57.8817C11.8025 57.0859 12.163 56.3046 12.5508 55.5378C14.0914 55.3445 15.6427 55.2476 17.1954 55.2476C19.3797 55.2475 21.5597 55.4405 23.7099 55.8245C23.6633 56.9098 23.6399 58.0051 23.6399 59.1037C23.6106 79.543 31.667 99.1636 46.05 113.681C41.5137 113.414 37.0568 112.371 32.8726 110.599ZM50.7046 106.499C49.7291 105.462 48.7909 104.399 47.8898 103.308C43.5702 98.1073 40.0404 92.2979 37.4139 86.0673C33.8047 77.535 31.9539 68.3618 31.9727 59.097C31.9727 58.8447 31.9727 58.593 31.9727 58.3418C36.1015 60.1738 39.8555 62.7547 43.0452 65.9538C47.9902 70.8741 51.4142 77.1149 52.9078 83.9301C53.4725 86.5199 53.7563 89.1631 53.7544 91.8138C53.77 96.8667 52.7354 101.868 50.7163 106.499H50.7046ZM88.7701 74.9278C88.5155 82.4895 86.1301 89.8254 81.889 96.09C78.4423 101.178 73.883 105.413 68.5566 108.476L68.5033 108.451C67.1034 109.254 65.6565 109.971 64.1703 110.599C62.3188 111.382 60.4107 112.025 58.4624 112.521C58.1157 112.61 57.768 112.693 57.4191 112.771C57.2308 112.814 57.0441 112.856 56.8558 112.894C56.9291 112.761 57.0008 112.623 57.0708 112.486C57.1791 112.277 57.2858 112.069 57.3891 111.859C58.6614 109.314 59.686 106.652 60.4489 103.91C61.5437 99.975 62.0971 95.9087 62.0938 91.8238C62.0952 88.8521 61.8033 85.8875 61.2222 82.9732C58.1341 67.5258 47.1249 54.9426 32.6126 49.6312C33.2811 44.7179 34.4808 39.8918 36.1907 35.2375C36.574 34.1961 36.9823 33.1619 37.4156 32.135C38.0689 30.5879 38.7755 29.0709 39.5354 27.5838C39.54 27.5764 39.5439 27.5686 39.5471 27.5605C39.8587 26.912 40.1804 26.2735 40.5137 25.6367C43.1296 20.6538 46.4272 16.06 50.3113 11.9881L50.3763 12.0665C53.8194 16.1509 58.4274 21.6456 63.017 27.1821C65.3652 30.0161 67.7084 32.8618 69.8882 35.5375C73.9762 40.5572 77.4893 44.9783 79.3875 47.604C79.6591 47.9808 79.9241 48.3559 80.1841 48.736C82.9106 52.6954 85.0171 56.6981 86.4453 60.6574C87.3533 63.1539 88.0082 65.7353 88.4001 68.3627V68.3961C88.7209 70.5576 88.8459 72.7437 88.7735 74.9278H88.7701Z" fill="white"/>
<g filter="url(#filter0_d_47_2738)">
<circle cx="100" cy="90" r="30" fill="white"/>
<path fill-rule="evenodd" clip-rule="evenodd" d="M91.75 100.5C89.475 100.5 87.5312 99.7125 85.9188 98.1375C84.3063 96.5625 83.5 94.6375 83.5 92.3625C83.5 90.4125 84.0875 88.675 85.2625 87.15C86.4375 85.625 87.975 84.65 89.875 84.225C90.5 81.925 91.75 80.0625 93.625 78.6375C95.5 77.2125 97.625 76.5 100 76.5C102.925 76.5 105.406 77.5188 107.444 79.5563C109.481 81.5938 110.5 84.075 110.5 87C112.225 87.2 113.656 87.9438 114.794 89.2313C115.931 90.5188 116.5 92.025 116.5 93.75C116.5 93.8036 116.499 93.857 116.498 93.9101L113.358 92.6765C113.191 92.0805 112.876 91.5508 112.412 91.0875C111.688 90.3625 110.8 90 109.75 90H107.5V87C107.5 84.925 106.769 83.1562 105.306 81.6938C103.844 80.2312 102.075 79.5 100 79.5C97.925 79.5 96.1562 80.2312 94.6938 81.6938C93.2313 83.1562 92.5 84.925 92.5 87H91.75C90.3 87 89.0625 87.5125 88.0375 88.5375C87.0125 89.5625 86.5 90.8 86.5 92.25C86.5 93.7 87.0125 94.9375 88.0375 95.9625C89.0625 96.9875 90.3 97.5 91.75 97.5H97V100.5H91.75ZM100 99.375V105L118 97.5L100 90V95.625L107.579 97.5L100 99.375Z" fill="#1F1F1F"/>
</g>
<defs>
<filter id="filter0_d_47_2738" x="68" y="58.6704" width="64" height="64" filterUnits="userSpaceOnUse" color-interpolation-filters="sRGB">
<feFlood flood-opacity="0" result="BackgroundImageFix"/>
<feColorMatrix in="SourceAlpha" type="matrix" values="0 0 0 0 0 0 0 0 0 0 0 0 0 0 0 0 0 0 127 0" result="hardAlpha"/>
<feOffset dy="0.670408"/>
<feGaussianBlur stdDeviation="1"/>
<feComposite in2="hardAlpha" operator="out"/>
<feColorMatrix type="matrix" values="0 0 0 0 0 0 0 0 0 0 0 0 0 0 0 0 0 0 0.3 0"/>
<feBlend mode="normal" in2="BackgroundImageFix" result="effect1_dropShadow_47_2738"/>
<feBlend mode="normal" in="SourceGraphic" in2="effect1_dropShadow_47_2738" result="shape"/>
</filter>
</defs>
</svg>
