<svg width="1630" height="128" viewBox="0 0 1630 128" fill="none" xmlns="http://www.w3.org/2000/svg">
<path d="M537.418 100.872C531.044 100.872 525.253 99.3707 520.043 96.3677C514.834 93.3648 510.728 89.2587 507.725 84.0494C504.783 78.7789 503.313 72.9262 503.313 66.4912C503.313 60.0563 504.783 54.2342 507.725 49.0249C510.728 43.7544 514.834 39.6177 520.043 36.6147C525.253 33.6117 531.044 32.1102 537.418 32.1102C542.321 32.1102 546.794 33.0601 550.839 34.96C554.945 36.7985 558.5 39.4338 561.503 42.8658L555.895 48.2895C553.383 45.2865 550.625 43.0803 547.622 41.6707C544.68 40.2611 541.279 39.5564 537.418 39.5564C532.638 39.5564 528.256 40.6901 524.272 42.9577C520.289 45.164 517.102 48.3201 514.712 52.4263C512.383 56.4711 511.218 61.1594 511.218 66.4912C511.218 71.823 512.383 76.542 514.712 80.6481C517.102 84.6929 520.289 87.8491 524.272 90.1167C528.256 92.3229 532.638 93.4261 537.418 93.4261C545.385 93.4261 552.157 90.1473 557.734 83.5898L563.433 89.1055C560.369 92.7213 556.6 95.6017 552.126 97.7467C547.652 99.8304 542.75 100.872 537.418 100.872ZM570.369 33.5811H578.183V99.4014H570.369V33.5811ZM609.075 100.872C604.479 100.872 600.342 99.7691 596.665 97.5628C592.988 95.3565 590.108 92.3536 588.024 88.5539C586.002 84.7542 584.99 80.5562 584.99 75.9598C584.99 71.3634 586.002 67.1653 588.024 63.3657C590.108 59.566 592.988 56.563 596.665 54.3567C600.342 52.1505 604.479 51.0473 609.075 51.0473C613.672 51.0473 617.809 52.1505 621.486 54.3567C625.163 56.563 628.013 59.566 630.035 63.3657C632.119 67.1653 633.161 71.3634 633.161 75.9598C633.161 80.5562 632.119 84.7542 630.035 88.5539C628.013 92.3536 625.163 95.3565 621.486 97.5628C617.809 99.7691 613.672 100.872 609.075 100.872ZM609.075 93.7938C611.956 93.7938 614.622 93.089 617.073 91.6794C619.586 90.2086 621.578 88.1249 623.048 85.4283C624.581 82.7318 625.347 79.5756 625.347 75.9598C625.347 72.3439 624.581 69.1878 623.048 66.4912C621.578 63.7947 619.586 61.7416 617.073 60.332C614.622 58.8612 611.956 58.1258 609.075 58.1258C606.195 58.1258 603.499 58.8612 600.986 60.332C598.473 61.7416 596.451 63.7947 594.919 66.4912C593.448 69.1878 592.712 72.3439 592.712 75.9598C592.712 79.5756 593.448 82.7318 594.919 85.4283C596.451 88.1249 598.473 90.2086 600.986 91.6794C603.499 93.089 606.195 93.7938 609.075 93.7938ZM656.953 100.872C651.315 100.872 646.994 99.2175 643.992 95.9081C641.05 92.5987 639.579 87.9717 639.579 82.027V52.5182H647.393V80.832C647.393 85.3058 648.404 88.5845 650.426 90.6682C652.449 92.7519 655.176 93.7938 658.608 93.7938C661.243 93.7938 663.572 93.089 665.595 91.6794C667.678 90.2699 669.272 88.4313 670.375 86.1638C671.539 83.8962 672.121 81.5061 672.121 78.9934V52.5182H679.935V99.4014H672.489V92.5987H672.121C670.834 94.9275 668.781 96.8887 665.962 98.4821C663.143 100.076 660.14 100.872 656.953 100.872ZM709.046 100.872C704.878 100.872 701.078 99.7997 697.646 97.6547C694.276 95.5098 691.61 92.5681 689.649 88.8297C687.688 85.03 686.707 80.74 686.707 75.9598C686.707 71.2408 687.688 66.9815 689.649 63.1818C691.61 59.3821 694.276 56.4098 697.646 54.2648C701.078 52.1198 704.878 51.0473 709.046 51.0473C712.661 51.0473 715.879 51.8747 718.698 53.5294C721.517 55.1228 723.662 57.1146 725.133 59.5047H725.501L725.133 52.9778V33.5811H732.947V99.4014H725.501V92.5068H725.133C723.662 94.8356 721.517 96.8274 718.698 98.4821C715.879 100.076 712.661 100.872 709.046 100.872ZM709.965 93.7938C712.723 93.7938 715.266 93.0583 717.595 91.5875C719.985 90.1167 721.885 88.033 723.294 85.3364C724.765 82.6399 725.501 79.5143 725.501 75.9598C725.501 72.4052 724.765 69.2797 723.294 66.5831C721.885 63.8866 719.985 61.8029 717.595 60.332C715.266 58.8612 712.723 58.1258 709.965 58.1258C707.268 58.1258 704.725 58.8612 702.335 60.332C699.945 61.8029 698.014 63.9172 696.543 66.6751C695.134 69.3716 694.429 72.4665 694.429 75.9598C694.429 79.453 695.134 82.5786 696.543 85.3364C698.014 88.033 699.945 90.1167 702.335 91.5875C704.725 93.0583 707.268 93.7938 709.965 93.7938ZM763.741 33.5811H801.799V41.0272H771.463V63.5495H798.858V70.9037H771.463V99.4014H763.741V33.5811ZM824.388 100.872C818.749 100.872 814.429 99.2175 811.426 95.9081C808.484 92.5987 807.013 87.9717 807.013 82.027V52.5182H814.827V80.832C814.827 85.3058 815.838 88.5845 817.861 90.6682C819.883 92.7519 822.61 93.7938 826.042 93.7938C828.678 93.7938 831.006 93.089 833.029 91.6794C835.113 90.2699 836.706 88.4313 837.809 86.1638C838.973 83.8962 839.556 81.5061 839.556 78.9934V52.5182H847.37V99.4014H839.923V92.5987H839.556C838.269 94.9275 836.216 96.8887 833.397 98.4821C830.577 100.076 827.574 100.872 824.388 100.872ZM857.072 52.5182H864.518V59.4128H864.886C866.173 57.0839 868.226 55.1228 871.045 53.5294C873.864 51.8747 876.867 51.0473 880.054 51.0473C885.692 51.0473 889.982 52.702 892.924 56.0114C895.927 59.2596 897.429 63.7027 897.429 69.341V99.4014H889.615V70.536C889.615 66.1848 888.573 63.0286 886.489 61.0675C884.405 59.1063 881.556 58.1258 877.94 58.1258C875.427 58.1258 873.16 58.8306 871.137 60.2401C869.176 61.6497 867.644 63.5189 866.541 65.8477C865.438 68.1153 864.886 70.5054 864.886 73.0181V99.4014H857.072V52.5182ZM927.999 100.872C923.464 100.872 919.388 99.7997 915.772 97.6547C912.157 95.4485 909.338 92.4761 907.315 88.7377C905.293 84.9381 904.282 80.6787 904.282 75.9598C904.282 71.2408 905.293 66.9815 907.315 63.1818C909.338 59.3821 912.157 56.4098 915.772 54.2648C919.388 52.1198 923.464 51.0473 927.999 51.0473C933.086 51.0473 937.345 52.2424 940.777 54.6325C944.27 56.9614 946.752 60.0869 948.223 64.0092L941.145 66.9509C939.98 64.0704 938.234 61.8948 935.905 60.424C933.637 58.8918 930.879 58.1258 927.631 58.1258C924.873 58.1258 922.299 58.8918 919.909 60.424C917.519 61.8948 915.589 63.9785 914.118 66.6751C912.708 69.3716 912.003 72.4665 912.003 75.9598C912.003 79.453 912.708 82.5479 914.118 85.2445C915.589 87.941 917.519 90.0554 919.909 91.5875C922.299 93.0583 924.873 93.7938 927.631 93.7938C930.941 93.7938 933.79 93.0277 936.18 91.4956C938.571 89.9634 940.348 87.7878 941.512 84.9687L948.499 87.9104C946.905 91.7714 944.331 94.8969 940.777 97.287C937.284 99.6772 933.024 100.872 927.999 100.872ZM972.677 100.137C970.777 100.137 969 99.8304 967.345 99.2175C965.752 98.6047 964.404 97.7773 963.301 96.7355C962.075 95.571 961.156 94.2228 960.543 92.6906C959.93 91.1585 959.623 89.2893 959.623 87.083V59.5966H951.442V52.5182H959.623V39.2806H967.437V52.5182H978.836V59.5966H967.437V85.1526C967.437 87.7265 967.928 89.6264 968.908 90.8521C970.073 92.2004 971.758 92.8745 973.964 92.8745C975.741 92.8745 977.457 92.3536 979.112 91.3117V98.9417C978.193 99.3707 977.243 99.6772 976.262 99.861C975.343 100.045 974.148 100.137 972.677 100.137ZM991.531 43.877C989.999 43.877 988.681 43.3254 987.578 42.2223C986.475 41.1191 985.923 39.8015 985.923 38.2694C985.923 36.7372 986.475 35.4503 987.578 34.4084C988.681 33.3053 989.999 32.7537 991.531 32.7537C993.063 32.7537 994.381 33.3053 995.484 34.4084C996.587 35.4503 997.139 36.7372 997.139 38.2694C997.139 39.8015 996.587 41.1191 995.484 42.2223C994.442 43.3254 993.124 43.877 991.531 43.877ZM987.67 52.5182H995.392V99.4014H987.67V52.5182ZM1026.99 100.872C1022.39 100.872 1018.25 99.7691 1014.58 97.5628C1010.9 95.3565 1008.02 92.3536 1005.94 88.5539C1003.91 84.7542 1002.9 80.5562 1002.9 75.9598C1002.9 71.3634 1003.91 67.1653 1005.94 63.3657C1008.02 59.566 1010.9 56.563 1014.58 54.3567C1018.25 52.1505 1022.39 51.0473 1026.99 51.0473C1031.58 51.0473 1035.72 52.1505 1039.4 54.3567C1043.08 56.563 1045.92 59.566 1047.95 63.3657C1050.03 67.1653 1051.07 71.3634 1051.07 75.9598C1051.07 80.5562 1050.03 84.7542 1047.95 88.5539C1045.92 92.3536 1043.08 95.3565 1039.4 97.5628C1035.72 99.7691 1031.58 100.872 1026.99 100.872ZM1026.99 93.7938C1029.87 93.7938 1032.53 93.089 1034.99 91.6794C1037.5 90.2086 1039.49 88.1249 1040.96 85.4283C1042.49 82.7318 1043.26 79.5756 1043.26 75.9598C1043.26 72.3439 1042.49 69.1878 1040.96 66.4912C1039.49 63.7947 1037.5 61.7416 1034.99 60.332C1032.53 58.8612 1029.87 58.1258 1026.99 58.1258C1024.11 58.1258 1021.41 58.8612 1018.9 60.332C1016.39 61.7416 1014.36 63.7947 1012.83 66.4912C1011.36 69.1878 1010.62 72.3439 1010.62 75.9598C1010.62 79.5756 1011.36 82.7318 1012.83 85.4283C1014.36 88.1249 1016.39 90.2086 1018.9 91.6794C1021.41 93.089 1024.11 93.7938 1026.99 93.7938ZM1057.41 52.5182H1064.86V59.4128H1065.22C1066.51 57.0839 1068.56 55.1228 1071.38 53.5294C1074.2 51.8747 1077.21 51.0473 1080.39 51.0473C1086.03 51.0473 1090.32 52.702 1093.26 56.0114C1096.27 59.2596 1097.77 63.7027 1097.77 69.341V99.4014H1089.95V70.536C1089.95 66.1848 1088.91 63.0286 1086.83 61.0675C1084.74 59.1063 1081.89 58.1258 1078.28 58.1258C1075.77 58.1258 1073.5 58.8306 1071.48 60.2401C1069.51 61.6497 1067.98 63.5189 1066.88 65.8477C1065.78 68.1153 1065.22 70.5054 1065.22 73.0181V99.4014H1057.41V52.5182ZM1123.02 100.872C1117.99 100.872 1113.79 99.7078 1110.42 97.379C1107.05 94.9888 1104.66 91.9552 1103.25 88.2781L1110.24 85.1526C1111.4 87.9717 1113.12 90.1473 1115.39 91.6794C1117.71 93.2116 1120.26 93.9776 1123.02 93.9776C1125.96 93.9776 1128.47 93.3954 1130.55 92.231C1132.64 91.0053 1133.68 89.2893 1133.68 87.083C1133.68 85.1219 1132.85 83.5591 1131.2 82.3947C1129.54 81.169 1126.94 80.1272 1123.38 79.2692L1117.68 77.7983C1113.95 76.8791 1110.88 75.3163 1108.49 73.11C1106.1 70.9037 1104.91 68.054 1104.91 64.5607C1104.91 61.8642 1105.7 59.5047 1107.3 57.4823C1108.95 55.3986 1111.13 53.8052 1113.82 52.702C1116.52 51.5989 1119.43 51.0473 1122.56 51.0473C1126.66 51.0473 1130.31 51.936 1133.5 53.7132C1136.74 55.4905 1139.04 57.9726 1140.39 61.1594L1133.59 64.2849C1131.5 60.1176 1127.8 58.0339 1122.46 58.0339C1119.89 58.0339 1117.62 58.6467 1115.66 59.8724C1113.76 61.0368 1112.81 62.5383 1112.81 64.3769C1112.81 66.0929 1113.49 67.5024 1114.83 68.6056C1116.18 69.6474 1118.2 70.5054 1120.9 71.1795L1127.7 72.9262C1132.3 74.0906 1135.76 75.8372 1138.09 78.166C1140.42 80.4336 1141.59 83.2221 1141.59 86.5315C1141.59 89.4119 1140.76 91.9552 1139.1 94.1615C1137.45 96.3065 1135.21 97.9612 1132.39 99.1256C1129.57 100.29 1126.45 100.872 1123.02 100.872ZM1171.42 59.5966H1162.78V52.5182H1171.42V47.4622C1171.42 44.5205 1172.09 41.9465 1173.44 39.7402C1174.79 37.534 1176.6 35.8486 1178.87 34.6842C1181.13 33.4585 1183.65 32.8456 1186.4 32.8456C1189.04 32.8456 1191.34 33.2133 1193.3 33.9488V41.5788C1192.2 41.1498 1191.15 40.8127 1190.17 40.5676C1189.19 40.2611 1188.03 40.1079 1186.68 40.1079C1184.66 40.1079 1182.91 40.8434 1181.44 42.3142C1179.97 43.7238 1179.23 45.7155 1179.23 48.2895V52.5182H1191.28V59.5966H1179.23V99.4014H1171.42V59.5966ZM1217.72 100.872C1213.12 100.872 1208.99 99.7691 1205.31 97.5628C1201.63 95.3565 1198.75 92.3536 1196.67 88.5539C1194.65 84.7542 1193.64 80.5562 1193.64 75.9598C1193.64 71.3634 1194.65 67.1653 1196.67 63.3657C1198.75 59.566 1201.63 56.563 1205.31 54.3567C1208.99 52.1505 1213.12 51.0473 1217.72 51.0473C1222.32 51.0473 1226.45 52.1505 1230.13 54.3567C1233.81 56.563 1236.66 59.566 1238.68 63.3657C1240.76 67.1653 1241.81 71.3634 1241.81 75.9598C1241.81 80.5562 1240.76 84.7542 1238.68 88.5539C1236.66 92.3536 1233.81 95.3565 1230.13 97.5628C1226.45 99.7691 1222.32 100.872 1217.72 100.872ZM1217.72 93.7938C1220.6 93.7938 1223.27 93.089 1225.72 91.6794C1228.23 90.2086 1230.22 88.1249 1231.69 85.4283C1233.23 82.7318 1233.99 79.5756 1233.99 75.9598C1233.99 72.3439 1233.23 69.1878 1231.69 66.4912C1230.22 63.7947 1228.23 61.7416 1225.72 60.332C1223.27 58.8612 1220.6 58.1258 1217.72 58.1258C1214.84 58.1258 1212.14 58.8612 1209.63 60.332C1207.12 61.7416 1205.1 63.7947 1203.56 66.4912C1202.09 69.1878 1201.36 72.3439 1201.36 75.9598C1201.36 79.5756 1202.09 82.7318 1203.56 85.4283C1205.1 88.1249 1207.12 90.2086 1209.63 91.6794C1212.14 93.089 1214.84 93.7938 1217.72 93.7938ZM1248.14 52.5182H1255.59V60.0563H1255.96C1256.88 57.4823 1258.65 55.3679 1261.29 53.7132C1263.92 51.9973 1266.68 51.1393 1269.56 51.1393C1271.71 51.1393 1273.55 51.4457 1275.08 52.0585V60.5159C1273.12 59.5353 1270.91 59.0451 1268.46 59.0451C1266.19 59.0451 1264.11 59.6886 1262.21 60.9755C1260.31 62.2625 1258.78 64.0092 1257.61 66.2154C1256.51 68.3604 1255.96 70.6892 1255.96 73.2019V99.4014H1248.14V52.5182ZM1301.87 33.5811H1339.93V41.0272H1309.59V63.5495H1336.98V70.9037H1309.59V99.4014H1301.87V33.5811ZM1351 43.877C1349.47 43.877 1348.15 43.3254 1347.05 42.2223C1345.95 41.1191 1345.39 39.8015 1345.39 38.2694C1345.39 36.7372 1345.95 35.4503 1347.05 34.4084C1348.15 33.3053 1349.47 32.7537 1351 32.7537C1352.53 32.7537 1353.85 33.3053 1354.95 34.4084C1356.06 35.4503 1356.61 36.7372 1356.61 38.2694C1356.61 39.8015 1356.06 41.1191 1354.95 42.2223C1353.91 43.3254 1352.59 43.877 1351 43.877ZM1347.14 52.5182H1354.86V99.4014H1347.14V52.5182ZM1365.3 52.5182H1372.75V60.0563H1373.12C1374.04 57.4823 1375.81 55.3679 1378.45 53.7132C1381.08 51.9973 1383.84 51.1393 1386.72 51.1393C1388.87 51.1393 1390.71 51.4457 1392.24 52.0585V60.5159C1390.28 59.5353 1388.07 59.0451 1385.62 59.0451C1383.35 59.0451 1381.27 59.6886 1379.37 60.9755C1377.47 62.2625 1375.94 64.0092 1374.77 66.2154C1373.67 68.3604 1373.12 70.6892 1373.12 73.2019V99.4014H1365.3V52.5182ZM1416.02 100.872C1411.55 100.872 1407.53 99.7997 1403.98 97.6547C1400.43 95.5098 1397.64 92.5681 1395.61 88.8297C1393.65 85.03 1392.67 80.7707 1392.67 76.0517C1392.67 71.5166 1393.59 67.3492 1395.43 63.5495C1397.33 59.7498 1400 56.7162 1403.43 54.4487C1406.86 52.1811 1410.84 51.0473 1415.38 51.0473C1419.98 51.0473 1423.96 52.0892 1427.33 54.1729C1430.7 56.1953 1433.27 59.0144 1435.05 62.6302C1436.89 66.2461 1437.81 70.3828 1437.81 75.0405C1437.81 75.9598 1437.72 76.7565 1437.53 77.4306H1400.49C1400.67 80.9852 1401.53 83.9881 1403.06 86.4395C1404.59 88.891 1406.52 90.7295 1408.85 91.9552C1411.24 93.1809 1413.72 93.7938 1416.3 93.7938C1422.3 93.7938 1426.93 90.9747 1430.18 85.3364L1436.8 88.5539C1434.78 92.3536 1432.02 95.3565 1428.52 97.5628C1425.09 99.7691 1420.93 100.872 1416.02 100.872ZM1429.54 70.9957C1429.41 69.0345 1428.86 67.0734 1427.88 65.1123C1426.9 63.1512 1425.34 61.4965 1423.19 60.1482C1421.11 58.7999 1418.47 58.1258 1415.29 58.1258C1411.61 58.1258 1408.48 59.3208 1405.91 61.711C1403.4 64.0398 1401.74 67.1347 1400.95 70.9957H1429.54ZM1468.93 100.872C1465.37 100.872 1462.15 100.076 1459.27 98.4821C1456.45 96.8274 1454.34 94.8356 1452.93 92.5068H1452.56V99.4014H1445.12V33.5811H1452.93V52.9778L1452.56 59.5047H1452.93C1454.34 57.1146 1456.45 55.1228 1459.27 53.5294C1462.15 51.8747 1465.37 51.0473 1468.93 51.0473C1473.09 51.0473 1476.89 52.1198 1480.32 54.2648C1483.76 56.4098 1486.45 59.3821 1488.41 63.1818C1490.37 66.9815 1491.36 71.2408 1491.36 75.9598C1491.36 80.74 1490.37 85.03 1488.41 88.8297C1486.45 92.5681 1483.76 95.5098 1480.32 97.6547C1476.89 99.7997 1473.09 100.872 1468.93 100.872ZM1468.01 93.7938C1470.7 93.7938 1473.25 93.0583 1475.64 91.5875C1478.03 90.1167 1479.93 88.033 1481.34 85.3364C1482.81 82.5786 1483.54 79.453 1483.54 75.9598C1483.54 72.4665 1482.81 69.3716 1481.34 66.6751C1479.93 63.9172 1478.03 61.8029 1475.64 60.332C1473.25 58.8612 1470.7 58.1258 1468.01 58.1258C1465.31 58.1258 1462.77 58.8612 1460.38 60.332C1457.99 61.8029 1456.09 63.8866 1454.68 66.5831C1453.27 69.2797 1452.56 72.4052 1452.56 75.9598C1452.56 79.5143 1453.27 82.6399 1454.68 85.3364C1456.09 88.033 1457.99 90.1167 1460.38 91.5875C1462.77 93.0583 1465.31 93.7938 1468.01 93.7938ZM1513.56 100.872C1510.13 100.872 1507.07 100.198 1504.37 98.8498C1501.67 97.5015 1499.59 95.663 1498.12 93.3341C1496.65 90.944 1495.91 88.2475 1495.91 85.2445C1495.91 80.2804 1497.78 76.4194 1501.52 73.6616C1505.26 70.8425 1509.98 69.4329 1515.68 69.4329C1518.5 69.4329 1521.1 69.7393 1523.49 70.3522C1525.94 70.965 1527.81 71.6698 1529.1 72.4665V69.6168C1529.1 66.1235 1527.87 63.335 1525.42 61.2513C1522.97 59.1063 1519.87 58.0339 1516.14 58.0339C1513.5 58.0339 1511.08 58.6161 1508.87 59.7805C1506.67 60.8836 1504.92 62.4464 1503.63 64.4688L1497.75 60.0563C1499.59 57.2371 1502.1 55.0309 1505.29 53.4375C1508.54 51.844 1512.12 51.0473 1516.04 51.0473C1522.42 51.0473 1527.41 52.7327 1531.03 56.1034C1534.71 59.4128 1536.54 63.9479 1536.54 69.7087V99.4014H1529.1V92.6906H1528.73C1527.38 94.9582 1525.36 96.8887 1522.66 98.4821C1519.97 100.076 1516.93 100.872 1513.56 100.872ZM1514.3 93.9776C1516.93 93.9776 1519.38 93.3035 1521.65 91.9552C1523.92 90.6069 1525.73 88.799 1527.08 86.5315C1528.42 84.2639 1529.1 81.7819 1529.1 79.0853C1527.63 78.1048 1525.82 77.3081 1523.67 76.6952C1521.53 76.0823 1519.26 75.7759 1516.87 75.7759C1512.58 75.7759 1509.33 76.6646 1507.13 78.4418C1504.98 80.2191 1503.91 82.5173 1503.91 85.3364C1503.91 87.9104 1504.89 89.9941 1506.85 91.5875C1508.81 93.1809 1511.29 93.9776 1514.3 93.9776ZM1561.49 100.872C1556.46 100.872 1552.27 99.7078 1548.9 97.379C1545.53 94.9888 1543.14 91.9552 1541.73 88.2781L1548.71 85.1526C1549.88 87.9717 1551.59 90.1473 1553.86 91.6794C1556.19 93.2116 1558.73 93.9776 1561.49 93.9776C1564.43 93.9776 1566.94 93.3954 1569.03 92.231C1571.11 91.0053 1572.15 89.2893 1572.15 87.083C1572.15 85.1219 1571.33 83.5591 1569.67 82.3947C1568.02 81.169 1565.41 80.1272 1561.86 79.2692L1556.16 77.7983C1552.42 76.8791 1549.36 75.3163 1546.97 73.11C1544.58 70.9037 1543.38 68.054 1543.38 64.5607C1543.38 61.8642 1544.18 59.5047 1545.77 57.4823C1547.42 55.3986 1549.6 53.8052 1552.3 52.702C1554.99 51.5989 1557.9 51.0473 1561.03 51.0473C1565.14 51.0473 1568.78 51.936 1571.97 53.7132C1575.22 55.4905 1577.52 57.9726 1578.86 61.1594L1572.06 64.2849C1569.98 60.1176 1566.27 58.0339 1560.94 58.0339C1558.36 58.0339 1556.1 58.6467 1554.14 59.8724C1552.24 61.0368 1551.29 62.5383 1551.29 64.3769C1551.29 66.0929 1551.96 67.5024 1553.31 68.6056C1554.66 69.6474 1556.68 70.5054 1559.38 71.1795L1566.18 72.9262C1570.77 74.0906 1574.24 75.8372 1576.57 78.166C1578.89 80.4336 1580.06 83.2221 1580.06 86.5315C1580.06 89.4119 1579.23 91.9552 1577.58 94.1615C1575.92 96.3065 1573.69 97.9612 1570.87 99.1256C1568.05 100.29 1564.92 100.872 1561.49 100.872ZM1608.05 100.872C1603.58 100.872 1599.57 99.7997 1596.01 97.6547C1592.46 95.5098 1589.67 92.5681 1587.65 88.8297C1585.69 85.03 1584.71 80.7707 1584.71 76.0517C1584.71 71.5166 1585.62 67.3492 1587.46 63.5495C1589.36 59.7498 1592.03 56.7162 1595.46 54.4487C1598.89 52.1811 1602.88 51.0473 1607.41 51.0473C1612.01 51.0473 1615.99 52.0892 1619.36 54.1729C1622.73 56.1953 1625.31 59.0144 1627.08 62.6302C1628.92 66.2461 1629.84 70.3828 1629.84 75.0405C1629.84 75.9598 1629.75 76.7565 1629.57 77.4306H1592.52C1592.7 80.9852 1593.56 83.9881 1595.09 86.4395C1596.63 88.891 1598.56 90.7295 1600.88 91.9552C1603.27 93.1809 1605.76 93.7938 1608.33 93.7938C1614.34 93.7938 1618.96 90.9747 1622.21 85.3364L1628.83 88.5539C1626.81 92.3536 1624.05 95.3565 1620.56 97.5628C1617.13 99.7691 1612.96 100.872 1608.05 100.872ZM1621.57 70.9957C1621.45 69.0345 1620.89 67.0734 1619.91 65.1123C1618.93 63.1512 1617.37 61.4965 1615.23 60.1482C1613.14 58.7999 1610.51 58.1258 1607.32 58.1258C1603.64 58.1258 1600.52 59.3208 1597.94 61.711C1595.43 64.0398 1593.78 67.1347 1592.98 70.9957H1621.57Z" fill="white"/>
<path d="M461.612 99.8672C457.157 99.8672 453.13 98.83 449.531 96.7554C445.992 94.6809 443.215 91.8132 441.202 88.1523C439.188 84.4303 438.182 80.2813 438.182 75.7051C438.182 71.312 439.127 67.285 441.019 63.624C442.971 59.9021 445.687 56.9733 449.164 54.8378C452.642 52.6412 456.608 51.543 461.062 51.543C465.639 51.543 469.605 52.5497 472.96 54.5632C476.377 56.5767 478.97 59.3835 480.74 62.9834C482.509 66.5223 483.394 70.6103 483.394 75.2475C483.394 75.7966 483.364 76.3458 483.303 76.8949C483.242 77.444 483.211 77.7491 483.211 77.8101H448.249C448.554 81.9592 450.049 85.1625 452.734 87.4201C455.419 89.6776 458.469 90.8064 461.886 90.8064C467.133 90.8064 471.161 88.3658 473.967 83.4846L482.57 87.6031C480.557 91.3251 477.75 94.3148 474.15 96.5724C470.611 98.769 466.432 99.8672 461.612 99.8672ZM473.144 70.1222C473.021 68.6578 472.533 67.1629 471.679 65.6375C470.825 64.1122 469.483 62.8308 467.652 61.7936C465.883 60.6953 463.656 60.1461 460.971 60.1461C457.981 60.1461 455.388 61.0614 453.191 62.8919C451.056 64.7223 449.592 67.1324 448.798 70.1222H473.144Z" fill="white"/>
<path d="M416.087 99.8672C410.9 99.8672 406.599 98.6774 403.182 96.2978C399.826 93.8572 397.446 90.8064 396.043 87.1455L405.012 83.3015C406.05 85.8032 407.544 87.6946 409.497 88.976C411.51 90.2573 413.707 90.898 416.087 90.898C418.588 90.898 420.632 90.4403 422.219 89.5251C423.805 88.5489 424.598 87.298 424.598 85.7727C424.598 84.3083 423.958 83.1185 422.676 82.2032C421.395 81.227 419.29 80.3728 416.361 79.6406L410.138 78.1762C406.721 77.383 403.761 75.9187 401.26 73.7831C398.819 71.5866 397.599 68.7493 397.599 65.2715C397.599 61.0614 399.338 57.736 402.816 55.2954C406.294 52.7938 410.565 51.543 415.629 51.543C419.839 51.543 423.561 52.4277 426.795 54.1971C430.09 55.9666 432.469 58.5292 433.934 61.8851L425.056 65.6375C424.202 63.7461 422.89 62.3427 421.12 61.4275C419.351 60.5122 417.429 60.0546 415.354 60.0546C413.341 60.0546 411.571 60.5122 410.046 61.4275C408.521 62.2817 407.758 63.441 407.758 64.9054C407.758 66.1867 408.277 67.2239 409.314 68.0171C410.412 68.8104 412.121 69.4815 414.439 70.0307L421.212 71.6781C425.788 72.8374 429.205 74.6068 431.462 76.9864C433.72 79.305 434.849 82.1117 434.849 85.4066C434.849 88.0912 434.025 90.5319 432.378 92.7284C430.791 94.925 428.564 96.6639 425.696 97.9452C422.89 99.2266 419.686 99.8672 416.087 99.8672Z" fill="white"/>
<path d="M367.921 99.8672C364.688 99.8672 361.759 99.2266 359.135 97.9452C356.573 96.6029 354.529 94.7724 353.003 92.4538C351.539 90.0742 350.807 87.3896 350.807 84.3998C350.807 79.6406 352.576 75.8881 356.115 73.1424C359.715 70.3968 364.261 69.0239 369.752 69.0239C374.572 69.0239 378.691 69.8476 382.108 71.495V69.573C382.108 66.8273 381.009 64.5698 378.813 62.8003C376.677 60.9699 374.084 60.0546 371.033 60.0546C366.396 60.0546 362.674 61.9461 359.867 65.7291L352.18 60.4207C354.315 57.553 356.969 55.3564 360.142 53.8311C363.376 52.3057 367.006 51.543 371.033 51.543C377.684 51.543 382.809 53.2209 386.409 56.5767C390.07 59.8716 391.901 64.5393 391.901 70.5798V98.4029H382.108V92.8199H381.558C380.094 94.8945 378.233 96.6029 375.976 97.9452C373.718 99.2266 371.033 99.8672 367.921 99.8672ZM369.569 91.5386C371.826 91.5386 373.901 90.9895 375.792 89.8912C377.745 88.7319 379.27 87.237 380.369 85.4066C381.528 83.5151 382.108 81.5016 382.108 79.366C378.874 77.5966 375.426 76.7119 371.765 76.7119C368.41 76.7119 365.786 77.444 363.894 78.9084C362.003 80.3728 361.057 82.2338 361.057 84.4913C361.057 86.5659 361.881 88.2743 363.528 89.6166C365.237 90.898 367.25 91.5386 369.569 91.5386Z" fill="white"/>
<path d="M325.684 99.8661C322.389 99.8661 319.43 99.1644 316.806 97.7611C314.244 96.3577 312.322 94.5882 311.04 92.4527H310.491V98.4017H300.973V32.8711H311.04V52.5486L310.491 58.8637H311.04C312.322 56.7892 314.244 55.0502 316.806 53.6469C319.43 52.2435 322.389 51.5418 325.684 51.5418C329.589 51.5418 333.189 52.5791 336.484 54.6536C339.84 56.7281 342.494 59.6264 344.446 63.3483C346.46 67.0093 347.466 71.1278 347.466 75.704C347.466 80.2801 346.46 84.3987 344.446 88.0596C342.494 91.7205 339.84 94.6188 336.484 96.7543C333.189 98.8288 329.589 99.8661 325.684 99.8661ZM323.945 90.6222C326.325 90.6222 328.521 90.0121 330.535 88.7918C332.609 87.5715 334.257 85.8325 335.477 83.575C336.758 81.2564 337.399 78.6327 337.399 75.704C337.399 72.7752 336.758 70.1821 335.477 67.9245C334.257 65.6059 332.609 63.8364 330.535 62.6161C328.521 61.3958 326.325 60.7857 323.945 60.7857C321.565 60.7857 319.338 61.3958 317.264 62.6161C315.25 63.8364 313.603 65.5754 312.322 67.833C311.101 70.0905 310.491 72.7142 310.491 75.704C310.491 78.6937 311.101 81.3174 312.322 83.575C313.603 85.8325 315.25 87.5715 317.264 88.7918C319.338 90.0121 321.565 90.6222 323.945 90.6222Z" fill="white"/>
<path d="M273.192 99.8672C268.738 99.8672 264.711 98.83 261.111 96.7554C257.572 94.6809 254.795 91.8132 252.782 88.1523C250.768 84.4303 249.762 80.2813 249.762 75.7051C249.762 71.312 250.707 67.285 252.599 63.624C254.551 59.9021 257.267 56.9733 260.745 54.8378C264.222 52.6412 268.188 51.543 272.643 51.543C277.219 51.543 281.185 52.5497 284.541 54.5632C287.957 56.5767 290.551 59.3835 292.32 62.9834C294.089 66.5223 294.974 70.6103 294.974 75.2475C294.974 75.7966 294.944 76.3458 294.883 76.8949C294.822 77.444 294.791 77.7491 294.791 77.8101H259.829C260.134 81.9592 261.629 85.1625 264.314 87.4201C266.999 89.6776 270.049 90.8064 273.466 90.8064C278.714 90.8064 282.741 88.3658 285.547 83.4846L294.15 87.6031C292.137 91.3251 289.33 94.3148 285.73 96.5724C282.191 98.769 278.012 99.8672 273.192 99.8672ZM284.724 70.1222C284.602 68.6578 284.113 67.1629 283.259 65.6375C282.405 64.1122 281.063 62.8308 279.232 61.7936C277.463 60.6953 275.236 60.1461 272.551 60.1461C269.561 60.1461 266.968 61.0614 264.772 62.8919C262.636 64.7223 261.172 67.1324 260.378 70.1222H284.724Z" fill="white"/>
<path d="M221.822 53.0076H231.341V59.7803H231.89C232.866 57.4617 234.636 55.5398 237.198 54.0144C239.761 52.428 242.384 51.6348 245.069 51.6348C247.266 51.6348 249.066 51.9398 250.469 52.55V63.0752C248.395 62.0379 246.076 61.5193 243.513 61.5193C240.218 61.5193 237.442 62.8006 235.185 65.3632C232.988 67.8649 231.89 70.9462 231.89 74.6071V98.4031H221.822V53.0076Z" fill="white"/>
<path d="M207.452 45.3189C205.561 45.3189 203.944 44.6782 202.602 43.3969C201.32 42.0545 200.68 40.4376 200.68 38.5462C200.68 36.6547 201.32 35.0683 202.602 33.787C203.944 32.4446 205.561 31.7734 207.452 31.7734C209.344 31.7734 210.93 32.4446 212.212 33.787C213.554 35.0683 214.225 36.6547 214.225 38.5462C214.225 40.4376 213.554 42.0545 212.212 43.3969C210.93 44.6782 209.344 45.3189 207.452 45.3189ZM202.419 53.0068H212.486V98.4023H202.419V53.0068Z" fill="white"/>
<path d="M156.562 32.8721H196.375V42.6651H166.813V61.5188H193.446V71.2203H166.813V98.4027H156.562V32.8721Z" fill="white"/>
<path d="M96.6179 66.9557V66.9173C96.6171 66.9029 96.6171 66.8885 96.6179 66.874C95.463 59.3471 92.4665 52.4136 88.4918 46.177C87.9918 45.3884 87.4719 44.6132 86.9403 43.843C86.6825 43.4696 86.4209 43.0995 86.1553 42.7328C81.044 35.6376 64.9002 16.3476 56.4192 6.28996C53.2111 2.48397 51.0996 0 51.0996 0C50.143 0.766866 49.208 1.55818 48.2948 2.37395L48.2631 2.40228C41.6491 8.5865 36.1645 15.8777 32.056 23.9479L32.0426 23.9729C31.2516 25.5289 30.5128 27.1126 29.8261 28.7241C28.2377 32.4574 26.9465 36.3104 25.9648 40.2471C25.3692 42.6266 24.8871 45.0478 24.5182 47.5107C22.4884 47.1785 20.4382 46.9858 18.382 46.9338C17.9931 46.9238 17.6043 46.9188 17.2154 46.9188C13.8555 46.9163 10.5059 47.291 7.22949 48.0358C5.2239 51.2756 3.6094 54.7417 2.41983 58.3618C0.811797 63.2612 -0.00504604 68.3857 2.34521e-05 73.5424C2.34521e-05 97.1119 16.7888 116.762 39.0571 121.171C42.1801 121.79 45.3561 122.101 48.5398 122.1C49.168 122.1 49.793 122.087 50.4163 122.065C52.0528 122.001 53.6666 121.858 55.2576 121.638C58.9651 121.124 62.6003 120.181 66.0901 118.828C67.0201 118.467 67.9356 118.078 68.8366 117.661C85.502 109.974 97.0795 93.1092 97.0795 73.5424C97.0732 71.339 96.9189 69.1385 96.6179 66.9557ZM32.8726 110.599C28.0934 108.579 23.7517 105.65 20.0885 101.975C16.4155 98.3105 13.4883 93.968 11.4692 89.1881C9.37475 84.2363 8.30117 78.9125 8.31274 73.5358C8.30099 68.1584 9.37457 62.834 11.4692 57.8817C11.8025 57.0859 12.163 56.3046 12.5508 55.5378C14.0914 55.3445 15.6427 55.2476 17.1954 55.2476C19.3797 55.2475 21.5597 55.4405 23.7099 55.8245C23.6633 56.9098 23.6399 58.0051 23.6399 59.1037C23.6106 79.543 31.667 99.1636 46.05 113.681C41.5137 113.414 37.0568 112.371 32.8726 110.599ZM50.7046 106.499C49.7291 105.462 48.7909 104.399 47.8898 103.308C43.5702 98.1073 40.0404 92.2979 37.4139 86.0673C33.8047 77.535 31.9539 68.3618 31.9727 59.097C31.9727 58.8447 31.9727 58.593 31.9727 58.3418C36.1015 60.1738 39.8555 62.7547 43.0452 65.9538C47.9902 70.8741 51.4142 77.1149 52.9078 83.9301C53.4725 86.5199 53.7563 89.1631 53.7544 91.8138C53.77 96.8667 52.7354 101.868 50.7163 106.499H50.7046ZM88.7701 74.9278C88.5155 82.4895 86.1301 89.8254 81.889 96.09C78.4423 101.178 73.883 105.413 68.5566 108.476L68.5033 108.451C67.1034 109.254 65.6565 109.971 64.1703 110.599C62.3188 111.382 60.4107 112.025 58.4624 112.521C58.1157 112.61 57.768 112.693 57.4191 112.771C57.2308 112.814 57.0441 112.856 56.8558 112.894C56.9291 112.761 57.0008 112.623 57.0708 112.486C57.1791 112.277 57.2858 112.069 57.3891 111.859C58.6614 109.314 59.686 106.652 60.4489 103.91C61.5437 99.975 62.0971 95.9087 62.0938 91.8238C62.0952 88.8521 61.8033 85.8875 61.2222 82.9732C58.1341 67.5258 47.1249 54.9426 32.6126 49.6312C33.2811 44.7179 34.4808 39.8918 36.1907 35.2375C36.574 34.1961 36.9823 33.1619 37.4156 32.135C38.0689 30.5879 38.7755 29.0709 39.5354 27.5838C39.54 27.5764 39.5439 27.5686 39.5471 27.5605C39.8587 26.912 40.1804 26.2735 40.5137 25.6367C43.1296 20.6538 46.4272 16.06 50.3113 11.9881L50.3763 12.0665C53.8194 16.1509 58.4274 21.6456 63.017 27.1821C65.3652 30.0161 67.7084 32.8618 69.8882 35.5375C73.9762 40.5572 77.4893 44.9783 79.3875 47.604C79.6591 47.9808 79.9241 48.3559 80.1841 48.736C82.9106 52.6954 85.0171 56.6981 86.4453 60.6574C87.3533 63.1539 88.0082 65.7353 88.4001 68.3627V68.3961C88.7209 70.5576 88.8459 72.7437 88.7735 74.9278H88.7701Z" fill="white"/>
<g filter="url(#filter0_d_47_2508)">
<circle cx="100" cy="90" r="30" fill="white"/>
<path d="M112.01 97.1337V82.8687L106.958 77.8167L110.137 74.6367L116.5 80.9997V97.1547L116.49 97.1607V99.0042L110.132 105.363L106.958 102.187L112.01 97.1337ZM87.9895 97.1292L93.0415 102.183L89.863 105.363L83.5 98.9997V82.8447L83.5105 82.8387V80.9952L89.8675 74.6367L93.0415 77.8122L87.9895 82.8657V97.1307V97.1292ZM93.2515 92.2542C92.653 92.2542 92.079 92.0165 91.6557 91.5932C91.2325 91.17 90.9948 90.596 90.9948 89.9975C90.9948 89.3989 91.2325 88.8249 91.6557 88.4017C92.079 87.9785 92.653 87.7407 93.2515 87.7407C93.8498 87.7407 94.4237 87.9784 94.8467 88.4015C95.2698 88.8246 95.5075 89.3984 95.5075 89.9967C95.5075 90.595 95.2698 91.1689 94.8467 91.5919C94.4237 92.015 93.8498 92.2527 93.2515 92.2527V92.2542ZM99.9985 92.2542C99.4 92.2542 98.826 92.0165 98.4027 91.5932C97.9795 91.17 97.7418 90.596 97.7418 89.9975C97.7418 89.3989 97.9795 88.8249 98.4027 88.4017C98.826 87.9785 99.4 87.7407 99.9985 87.7407C100.597 87.7407 101.171 87.9784 101.594 88.4015C102.017 88.8246 102.255 89.3984 102.255 89.9967C102.255 90.595 102.017 91.1689 101.594 91.5919C101.171 92.015 100.597 92.2527 99.9985 92.2527V92.2542ZM106.745 92.2542C106.147 92.2542 105.573 92.0165 105.15 91.5932C104.727 91.17 104.489 90.596 104.489 89.9975C104.489 89.3989 104.727 88.8249 105.15 88.4017C105.573 87.9785 106.147 87.7407 106.745 87.7407C107.344 87.7407 107.918 87.9784 108.341 88.4015C108.764 88.8246 109.001 89.3984 109.001 89.9967C109.001 90.595 108.764 91.1689 108.341 91.5919C107.918 92.015 107.344 92.2527 106.745 92.2527V92.2542Z" fill="#1F1F1F"/>
</g>
<defs>
<filter id="filter0_d_47_2508" x="68" y="58.6704" width="64" height="64" filterUnits="userSpaceOnUse" color-interpolation-filters="sRGB">
<feFlood flood-opacity="0" result="BackgroundImageFix"/>
<feColorMatrix in="SourceAlpha" type="matrix" values="0 0 0 0 0 0 0 0 0 0 0 0 0 0 0 0 0 0 127 0" result="hardAlpha"/>
<feOffset dy="0.670408"/>
<feGaussianBlur stdDeviation="1"/>
<feComposite in2="hardAlpha" operator="out"/>
<feColorMatrix type="matrix" values="0 0 0 0 0 0 0 0 0 0 0 0 0 0 0 0 0 0 0.3 0"/>
<feBlend mode="normal" in2="BackgroundImageFix" result="effect1_dropShadow_47_2508"/>
<feBlend mode="normal" in="SourceGraphic" in2="effect1_dropShadow_47_2508" result="shape"/>
</filter>
</defs>
</svg>
