<svg width="1095" height="128" viewBox="0 0 1095 128" fill="none" xmlns="http://www.w3.org/2000/svg">
<path d="M506.53 33.5811H528.777C532.392 33.5811 535.763 34.4084 538.889 36.0631C542.014 37.7178 544.496 40.0466 546.335 43.0496C548.235 45.9913 549.185 49.3314 549.185 53.0698C549.185 56.134 548.48 58.9838 547.07 61.619C545.722 64.2543 543.822 66.4606 541.371 68.2378C538.981 70.0151 536.315 71.2102 533.373 71.823L533.189 72.0988L551.758 99.0337V99.4014H542.566L524.64 72.5584H514.252V99.4014H506.53V33.5811ZM528.317 65.2962C530.584 65.2962 532.699 64.7752 534.66 63.7334C536.682 62.6915 538.276 61.2513 539.44 59.4128C540.666 57.5129 541.279 55.3986 541.279 53.0698C541.279 51.0473 540.758 49.1169 539.716 47.2783C538.674 45.4397 537.203 43.9383 535.303 42.7738C533.465 41.6094 531.32 41.0272 528.868 41.0272H514.252V65.2962H528.317ZM576.963 100.872C572.489 100.872 568.475 99.7997 564.92 97.6547C561.365 95.5098 558.577 92.5681 556.555 88.8297C554.593 85.03 553.613 80.7707 553.613 76.0517C553.613 71.5166 554.532 67.3492 556.371 63.5495C558.271 59.7498 560.936 56.7162 564.368 54.4487C567.8 52.1811 571.784 51.0473 576.319 51.0473C580.915 51.0473 584.899 52.0892 588.27 54.1729C591.64 56.1953 594.214 59.0144 595.992 62.6302C597.83 66.2461 598.749 70.3828 598.749 75.0405C598.749 75.9598 598.657 76.7565 598.474 77.4306H561.427C561.611 80.9852 562.469 83.9881 564.001 86.4395C565.533 88.891 567.463 90.7295 569.792 91.9552C572.182 93.1809 574.664 93.7938 577.238 93.7938C583.244 93.7938 587.871 90.9747 591.119 85.3364L597.738 88.5539C595.716 92.3536 592.958 95.3565 589.465 97.5628C586.033 99.7691 581.865 100.872 576.963 100.872ZM590.476 70.9957C590.353 69.0345 589.802 67.0734 588.821 65.1123C587.841 63.1512 586.278 61.4965 584.133 60.1482C582.049 58.7999 579.414 58.1258 576.227 58.1258C572.55 58.1258 569.424 59.3208 566.85 61.711C564.338 64.0398 562.683 67.1347 561.886 70.9957H590.476ZM606.055 52.5182H613.502V59.4128H613.869C615.218 57.0226 617.24 55.0309 619.937 53.4375C622.633 51.844 625.483 51.0473 628.486 51.0473C631.918 51.0473 634.89 51.8747 637.403 53.5294C639.977 55.1841 641.815 57.3904 642.919 60.1482C644.573 57.3904 646.749 55.1841 649.445 53.5294C652.203 51.8747 655.39 51.0473 659.006 51.0473C664.399 51.0473 668.444 52.702 671.14 56.0114C673.898 59.2596 675.277 63.7027 675.277 69.341V99.4014H667.555V70.536C667.555 66.1848 666.667 63.0286 664.889 61.0675C663.112 59.1063 660.477 58.1258 656.984 58.1258C654.655 58.1258 652.54 58.7999 650.64 60.1482C648.741 61.4965 647.239 63.3044 646.136 65.5719C645.094 67.8395 644.573 70.2909 644.573 72.9262V99.4014H636.759V70.628C636.759 66.2154 635.871 63.0286 634.093 61.0675C632.316 59.1063 629.712 58.1258 626.28 58.1258C623.951 58.1258 621.836 58.8306 619.937 60.2401C618.037 61.5884 616.535 63.427 615.432 65.7558C614.39 68.0233 613.869 70.4747 613.869 73.11V99.4014H606.055V52.5182ZM706.257 100.872C701.66 100.872 697.524 99.7691 693.847 97.5628C690.169 95.3565 687.289 92.3536 685.205 88.5539C683.183 84.7542 682.172 80.5562 682.172 75.9598C682.172 71.3634 683.183 67.1653 685.205 63.3657C687.289 59.566 690.169 56.563 693.847 54.3567C697.524 52.1505 701.66 51.0473 706.257 51.0473C710.853 51.0473 714.99 52.1505 718.667 54.3567C722.344 56.563 725.194 59.566 727.216 63.3657C729.3 67.1653 730.342 71.3634 730.342 75.9598C730.342 80.5562 729.3 84.7542 727.216 88.5539C725.194 92.3536 722.344 95.3565 718.667 97.5628C714.99 99.7691 710.853 100.872 706.257 100.872ZM706.257 93.7938C709.137 93.7938 711.803 93.089 714.255 91.6794C716.767 90.2086 718.759 88.1249 720.23 85.4283C721.762 82.7318 722.528 79.5756 722.528 75.9598C722.528 72.3439 721.762 69.1878 720.23 66.4912C718.759 63.7947 716.767 61.7416 714.255 60.332C711.803 58.8612 709.137 58.1258 706.257 58.1258C703.376 58.1258 700.68 58.8612 698.167 60.332C695.654 61.7416 693.632 63.7947 692.1 66.4912C690.629 69.1878 689.894 72.3439 689.894 75.9598C689.894 79.5756 690.629 82.7318 692.1 85.4283C693.632 88.1249 695.654 90.2086 698.167 91.6794C700.68 93.089 703.376 93.7938 706.257 93.7938ZM754.248 100.137C752.348 100.137 750.571 99.8304 748.916 99.2175C747.323 98.6047 745.975 97.7773 744.872 96.7355C743.646 95.571 742.727 94.2228 742.114 92.6906C741.501 91.1585 741.194 89.2893 741.194 87.083V59.5966H733.013V52.5182H741.194V39.2806H749.008V52.5182H760.407V59.5966H749.008V85.1526C749.008 87.7265 749.499 89.6264 750.479 90.8521C751.644 92.2004 753.329 92.8745 755.535 92.8745C757.312 92.8745 759.028 92.3536 760.683 91.3117V98.9417C759.764 99.3707 758.814 99.6772 757.833 99.861C756.914 100.045 755.719 100.137 754.248 100.137ZM786.86 100.872C782.386 100.872 778.372 99.7997 774.817 97.6547C771.262 95.5098 768.474 92.5681 766.452 88.8297C764.49 85.03 763.51 80.7707 763.51 76.0517C763.51 71.5166 764.429 67.3492 766.268 63.5495C768.168 59.7498 770.833 56.7162 774.265 54.4487C777.697 52.1811 781.681 51.0473 786.216 51.0473C790.812 51.0473 794.796 52.0892 798.167 54.1729C801.537 56.1953 804.111 59.0144 805.889 62.6302C807.727 66.2461 808.646 70.3828 808.646 75.0405C808.646 75.9598 808.554 76.7565 808.371 77.4306H771.324C771.508 80.9852 772.366 83.9881 773.898 86.4395C775.43 88.891 777.36 90.7295 779.689 91.9552C782.079 93.1809 784.561 93.7938 787.135 93.7938C793.141 93.7938 797.768 90.9747 801.016 85.3364L807.635 88.5539C805.613 92.3536 802.855 95.3565 799.362 97.5628C795.93 99.7691 791.762 100.872 786.86 100.872ZM800.373 70.9957C800.25 69.0345 799.699 67.0734 798.718 65.1123C797.738 63.1512 796.175 61.4965 794.03 60.1482C791.946 58.7999 789.311 58.1258 786.124 58.1258C782.447 58.1258 779.321 59.3208 776.747 61.711C774.235 64.0398 772.58 67.1347 771.783 70.9957H800.373ZM866.135 100.872C859.761 100.872 853.97 99.3707 848.761 96.3677C843.551 93.3648 839.445 89.2587 836.442 84.0494C833.501 78.7789 832.03 72.9262 832.03 66.4912C832.03 60.0563 833.501 54.2342 836.442 49.0249C839.445 43.7544 843.551 39.6177 848.761 36.6147C853.97 33.6117 859.761 32.1102 866.135 32.1102C871.038 32.1102 875.512 33.0601 879.557 34.96C883.663 36.7985 887.217 39.4338 890.22 42.8658L884.613 48.2895C882.1 45.2865 879.342 43.0803 876.339 41.6707C873.397 40.2611 869.996 39.5564 866.135 39.5564C861.355 39.5564 856.973 40.6901 852.989 42.9577C849.006 45.164 845.819 48.3201 843.429 52.4263C841.1 56.4711 839.936 61.1594 839.936 66.4912C839.936 71.823 841.1 76.542 843.429 80.6481C845.819 84.6929 849.006 87.8491 852.989 90.1167C856.973 92.3229 861.355 93.4261 866.135 93.4261C874.102 93.4261 880.874 90.1473 886.451 83.5898L892.151 89.1055C889.086 92.7213 885.317 95.6017 880.844 97.7467C876.37 99.8304 871.467 100.872 866.135 100.872ZM919.791 100.872C915.195 100.872 911.058 99.7691 907.381 97.5628C903.704 95.3565 900.824 92.3536 898.74 88.5539C896.718 84.7542 895.706 80.5562 895.706 75.9598C895.706 71.3634 896.718 67.1653 898.74 63.3657C900.824 59.566 903.704 56.563 907.381 54.3567C911.058 52.1505 915.195 51.0473 919.791 51.0473C924.388 51.0473 928.525 52.1505 932.202 54.3567C935.879 56.563 938.729 59.566 940.751 63.3657C942.835 67.1653 943.877 71.3634 943.877 75.9598C943.877 80.5562 942.835 84.7542 940.751 88.5539C938.729 92.3536 935.879 95.3565 932.202 97.5628C928.525 99.7691 924.388 100.872 919.791 100.872ZM919.791 93.7938C922.672 93.7938 925.338 93.089 927.789 91.6794C930.302 90.2086 932.294 88.1249 933.764 85.4283C935.297 82.7318 936.063 79.5756 936.063 75.9598C936.063 72.3439 935.297 69.1878 933.764 66.4912C932.294 63.7947 930.302 61.7416 927.789 60.332C925.338 58.8612 922.672 58.1258 919.791 58.1258C916.911 58.1258 914.215 58.8612 911.702 60.332C909.189 61.7416 907.167 63.7947 905.635 66.4912C904.164 69.1878 903.428 72.3439 903.428 75.9598C903.428 79.5756 904.164 82.7318 905.635 85.4283C907.167 88.1249 909.189 90.2086 911.702 91.6794C914.215 93.089 916.911 93.7938 919.791 93.7938ZM950.214 52.5182H957.66V59.4128H958.028C959.315 57.0839 961.368 55.1228 964.187 53.5294C967.006 51.8747 970.009 51.0473 973.196 51.0473C978.834 51.0473 983.124 52.702 986.066 56.0114C989.069 59.2596 990.57 63.7027 990.57 69.341V99.4014H982.756V70.536C982.756 66.1848 981.714 63.0286 979.631 61.0675C977.547 59.1063 974.697 58.1258 971.081 58.1258C968.569 58.1258 966.301 58.8306 964.279 60.2401C962.318 61.6497 960.786 63.5189 959.682 65.8477C958.579 68.1153 958.028 70.5054 958.028 73.0181V99.4014H950.214V52.5182ZM1004.43 59.5966H995.79V52.5182H1004.43V47.4622C1004.43 44.5205 1005.11 41.9465 1006.45 39.7402C1007.8 37.534 1009.61 35.8486 1011.88 34.6842C1014.14 33.4585 1016.66 32.8456 1019.42 32.8456C1022.05 32.8456 1024.35 33.2133 1026.31 33.9488V41.5788C1025.21 41.1498 1024.16 40.8127 1023.18 40.5676C1022.2 40.2611 1021.04 40.1079 1019.69 40.1079C1017.67 40.1079 1015.92 40.8434 1014.45 42.3142C1012.98 43.7238 1012.24 45.7155 1012.24 48.2895V52.5182H1041.29V99.4014H1033.57V59.5966H1012.24V99.4014H1004.43V59.5966ZM1037.43 44.3366C1035.9 44.3366 1034.58 43.785 1033.48 42.6819C1032.38 41.5788 1031.83 40.2611 1031.83 38.729C1031.83 37.1969 1032.38 35.8793 1033.48 34.7761C1034.58 33.673 1035.9 33.1214 1037.43 33.1214C1038.97 33.1214 1040.28 33.673 1041.39 34.7761C1042.49 35.8793 1043.04 37.1969 1043.04 38.729C1043.04 40.2611 1042.49 41.5788 1041.39 42.6819C1040.34 43.785 1039.03 44.3366 1037.43 44.3366ZM1071.89 120.729C1066.38 120.729 1061.81 119.442 1058.2 116.868C1054.64 114.294 1052.25 111.199 1051.03 107.583L1058.1 104.549C1059.15 107.246 1060.86 109.421 1063.25 111.076C1065.7 112.792 1068.58 113.65 1071.89 113.65C1076.74 113.65 1080.47 112.241 1083.11 109.421C1085.81 106.602 1087.15 102.619 1087.15 97.4709V92.231H1086.79C1085.25 94.6211 1083.08 96.5822 1080.26 98.1144C1077.5 99.5852 1074.35 100.321 1070.79 100.321C1066.75 100.321 1063.04 99.2788 1059.67 97.1951C1056.36 95.1114 1053.72 92.2004 1051.76 88.462C1049.8 84.7236 1048.82 80.4642 1048.82 75.684C1048.82 70.965 1049.8 66.7364 1051.76 62.998C1053.72 59.1983 1056.36 56.2566 1059.67 54.1729C1063.04 52.0892 1066.75 51.0473 1070.79 51.0473C1074.35 51.0473 1077.5 51.8134 1080.26 53.3455C1083.08 54.8164 1085.25 56.7775 1086.79 59.2289H1087.15V52.5182H1094.6V97.5628C1094.6 105.101 1092.52 110.831 1088.35 114.753C1084.18 118.737 1078.7 120.729 1071.89 120.729ZM1071.89 93.2422C1074.71 93.2422 1077.26 92.5374 1079.52 91.1279C1081.85 89.7183 1083.69 87.6959 1085.04 85.0606C1086.45 82.4254 1087.15 79.2998 1087.15 75.684C1087.15 72.0069 1086.45 68.8507 1085.04 66.2154C1083.69 63.5802 1081.85 61.5884 1079.52 60.2401C1077.26 58.8306 1074.71 58.1258 1071.89 58.1258C1069.07 58.1258 1066.5 58.8306 1064.17 60.2401C1061.84 61.6497 1059.97 63.6721 1058.56 66.3074C1057.22 68.9426 1056.54 72.0682 1056.54 75.684C1056.54 79.2998 1057.22 82.456 1058.56 85.1526C1059.97 87.7878 1061.84 89.8102 1064.17 91.2198C1066.5 92.5681 1069.07 93.2422 1071.89 93.2422Z" fill="white"/>
<path d="M461.612 99.8672C457.157 99.8672 453.13 98.83 449.531 96.7554C445.992 94.6809 443.215 91.8132 441.202 88.1523C439.188 84.4303 438.182 80.2813 438.182 75.7051C438.182 71.312 439.127 67.285 441.019 63.624C442.971 59.9021 445.687 56.9733 449.164 54.8378C452.642 52.6412 456.608 51.543 461.062 51.543C465.639 51.543 469.605 52.5497 472.96 54.5632C476.377 56.5767 478.97 59.3835 480.74 62.9834C482.509 66.5223 483.394 70.6103 483.394 75.2475C483.394 75.7966 483.364 76.3458 483.303 76.8949C483.242 77.444 483.211 77.7491 483.211 77.8101H448.249C448.554 81.9592 450.049 85.1625 452.734 87.4201C455.419 89.6776 458.469 90.8064 461.886 90.8064C467.133 90.8064 471.161 88.3658 473.967 83.4846L482.57 87.6031C480.557 91.3251 477.75 94.3148 474.15 96.5724C470.611 98.769 466.432 99.8672 461.612 99.8672ZM473.144 70.1222C473.021 68.6578 472.533 67.1629 471.679 65.6375C470.825 64.1122 469.483 62.8308 467.652 61.7936C465.883 60.6953 463.656 60.1461 460.971 60.1461C457.981 60.1461 455.388 61.0614 453.191 62.8919C451.056 64.7223 449.592 67.1324 448.798 70.1222H473.144Z" fill="white"/>
<path d="M416.087 99.8672C410.9 99.8672 406.599 98.6774 403.182 96.2978C399.826 93.8572 397.446 90.8064 396.043 87.1455L405.012 83.3015C406.05 85.8032 407.544 87.6946 409.497 88.976C411.51 90.2573 413.707 90.898 416.087 90.898C418.588 90.898 420.632 90.4403 422.219 89.5251C423.805 88.5489 424.598 87.298 424.598 85.7727C424.598 84.3083 423.958 83.1185 422.676 82.2032C421.395 81.227 419.29 80.3728 416.361 79.6406L410.138 78.1762C406.721 77.383 403.761 75.9187 401.26 73.7831C398.819 71.5866 397.599 68.7493 397.599 65.2715C397.599 61.0614 399.338 57.736 402.816 55.2954C406.294 52.7938 410.565 51.543 415.629 51.543C419.839 51.543 423.561 52.4277 426.795 54.1971C430.09 55.9666 432.469 58.5292 433.934 61.8851L425.056 65.6375C424.202 63.7461 422.89 62.3427 421.12 61.4275C419.351 60.5122 417.429 60.0546 415.354 60.0546C413.341 60.0546 411.571 60.5122 410.046 61.4275C408.521 62.2817 407.758 63.441 407.758 64.9054C407.758 66.1867 408.277 67.2239 409.314 68.0171C410.412 68.8104 412.121 69.4815 414.439 70.0307L421.212 71.6781C425.788 72.8374 429.205 74.6068 431.462 76.9864C433.72 79.305 434.849 82.1117 434.849 85.4066C434.849 88.0912 434.025 90.5319 432.378 92.7284C430.791 94.925 428.564 96.6639 425.696 97.9452C422.89 99.2266 419.686 99.8672 416.087 99.8672Z" fill="white"/>
<path d="M367.921 99.8672C364.688 99.8672 361.759 99.2266 359.135 97.9452C356.573 96.6029 354.529 94.7724 353.003 92.4538C351.539 90.0742 350.807 87.3896 350.807 84.3998C350.807 79.6406 352.576 75.8881 356.115 73.1424C359.715 70.3968 364.261 69.0239 369.752 69.0239C374.572 69.0239 378.691 69.8476 382.108 71.495V69.573C382.108 66.8273 381.009 64.5698 378.813 62.8003C376.677 60.9699 374.084 60.0546 371.033 60.0546C366.396 60.0546 362.674 61.9461 359.867 65.7291L352.18 60.4207C354.315 57.553 356.969 55.3564 360.142 53.8311C363.376 52.3057 367.006 51.543 371.033 51.543C377.684 51.543 382.809 53.2209 386.409 56.5767C390.07 59.8716 391.901 64.5393 391.901 70.5798V98.4029H382.108V92.8199H381.558C380.094 94.8945 378.233 96.6029 375.976 97.9452C373.718 99.2266 371.033 99.8672 367.921 99.8672ZM369.569 91.5386C371.826 91.5386 373.901 90.9895 375.792 89.8912C377.745 88.7319 379.27 87.237 380.369 85.4066C381.528 83.5151 382.108 81.5016 382.108 79.366C378.874 77.5966 375.426 76.7119 371.765 76.7119C368.41 76.7119 365.786 77.444 363.894 78.9084C362.003 80.3728 361.057 82.2338 361.057 84.4913C361.057 86.5659 361.881 88.2743 363.528 89.6166C365.237 90.898 367.25 91.5386 369.569 91.5386Z" fill="white"/>
<path d="M325.684 99.8671C322.389 99.8671 319.43 99.1654 316.806 97.762C314.244 96.3587 312.322 94.5892 311.04 92.4537H310.491V98.4027H300.973V32.8721H311.04V52.5496L310.491 58.8647H311.04C312.322 56.7901 314.244 55.0512 316.806 53.6478C319.43 52.2445 322.389 51.5428 325.684 51.5428C329.589 51.5428 333.189 52.5801 336.484 54.6546C339.84 56.7291 342.494 59.6274 344.446 63.3493C346.46 67.0102 347.466 71.1288 347.466 75.7049C347.466 80.2811 346.46 84.3996 344.446 88.0606C342.494 91.7215 339.84 94.6197 336.484 96.7553C333.189 98.8298 329.589 99.8671 325.684 99.8671ZM323.945 90.6232C326.325 90.6232 328.521 90.0131 330.535 88.7928C332.609 87.5724 334.257 85.8335 335.477 83.5759C336.758 81.2573 337.399 78.6337 337.399 75.7049C337.399 72.7762 336.758 70.183 335.477 67.9255C334.257 65.6069 332.609 63.8374 330.535 62.6171C328.521 61.3968 326.325 60.7866 323.945 60.7866C321.565 60.7866 319.338 61.3968 317.264 62.6171C315.25 63.8374 313.603 65.5764 312.322 67.8339C311.101 70.0915 310.491 72.7152 310.491 75.7049C310.491 78.6947 311.101 81.3184 312.322 83.5759C313.603 85.8335 315.25 87.5724 317.264 88.7928C319.338 90.0131 321.565 90.6232 323.945 90.6232Z" fill="white"/>
<path d="M273.192 99.8672C268.738 99.8672 264.711 98.83 261.111 96.7554C257.572 94.6809 254.795 91.8132 252.782 88.1523C250.768 84.4303 249.762 80.2813 249.762 75.7051C249.762 71.312 250.707 67.285 252.599 63.624C254.551 59.9021 257.267 56.9733 260.745 54.8378C264.222 52.6412 268.188 51.543 272.643 51.543C277.219 51.543 281.185 52.5497 284.541 54.5632C287.957 56.5767 290.551 59.3835 292.32 62.9834C294.089 66.5223 294.974 70.6103 294.974 75.2475C294.974 75.7966 294.944 76.3458 294.883 76.8949C294.822 77.444 294.791 77.7491 294.791 77.8101H259.829C260.134 81.9592 261.629 85.1625 264.314 87.4201C266.999 89.6776 270.049 90.8064 273.466 90.8064C278.714 90.8064 282.741 88.3658 285.547 83.4846L294.15 87.6031C292.137 91.3251 289.33 94.3148 285.73 96.5724C282.191 98.769 278.012 99.8672 273.192 99.8672ZM284.724 70.1222C284.602 68.6578 284.113 67.1629 283.259 65.6375C282.405 64.1122 281.063 62.8308 279.232 61.7936C277.463 60.6953 275.236 60.1461 272.551 60.1461C269.561 60.1461 266.968 61.0614 264.772 62.8919C262.636 64.7223 261.172 67.1324 260.378 70.1222H284.724Z" fill="white"/>
<path d="M221.822 53.0076H231.341V59.7803H231.89C232.866 57.4617 234.636 55.5398 237.198 54.0144C239.761 52.428 242.384 51.6348 245.069 51.6348C247.266 51.6348 249.066 51.9398 250.469 52.55V63.0752C248.395 62.0379 246.076 61.5193 243.513 61.5193C240.218 61.5193 237.442 62.8006 235.185 65.3632C232.988 67.8649 231.89 70.9462 231.89 74.6071V98.4031H221.822V53.0076Z" fill="white"/>
<path d="M207.452 45.3189C205.561 45.3189 203.944 44.6782 202.602 43.3969C201.32 42.0545 200.68 40.4376 200.68 38.5462C200.68 36.6547 201.32 35.0683 202.602 33.787C203.944 32.4446 205.561 31.7734 207.452 31.7734C209.344 31.7734 210.93 32.4446 212.212 33.787C213.554 35.0683 214.225 36.6547 214.225 38.5462C214.225 40.4376 213.554 42.0545 212.212 43.3969C210.93 44.6782 209.344 45.3189 207.452 45.3189ZM202.419 53.0068H212.486V98.4023H202.419V53.0068Z" fill="white"/>
<path d="M156.562 32.8721H196.375V42.6651H166.813V61.5188H193.446V71.2203H166.813V98.4027H156.562V32.8721Z" fill="white"/>
<g clip-path="url(#clip0_47_2305)">
<path d="M86.8743 43.1134C84.1283 39.3031 77.814 31.4684 68.1144 19.8296C63.9039 14.7813 60.2921 10.4962 58.5142 8.39247C57.5337 7.232 56.6928 6.23909 56.0288 5.45406L54.9707 4.20672L54.3967 3.53029L54.285 3.36584L54.2354 3.34412L51.7872 0.467773L48.6844 2.95626C40.7628 9.30161 34.2747 17.4807 29.9276 26.5969C27.2622 32.0207 25.5215 37.3235 24.6093 42.7845C24.3704 44.0133 24.1656 45.2761 23.9949 46.5421C22.9306 46.4552 21.8477 46.3994 20.7742 46.3745C20.6842 46.3683 20.5942 46.3652 20.4732 46.3621C16.5419 46.2256 12.6323 46.6941 8.85608 47.7584L7.23949 48.2114L6.40793 49.6698C2.51074 56.5054 0.304608 64.2873 0.0284535 72.1717C-0.328375 82.4111 2.46109 92.3216 8.09588 100.833C13.6097 109.158 21.3978 115.522 30.6195 119.236L31.8203 119.72L32.1834 119.847L32.1989 119.841C37.0021 121.585 42.0442 122.559 47.1857 122.736C47.769 122.758 48.3492 122.767 48.9295 122.767C55.4176 122.767 61.735 121.498 67.7297 118.988L67.7731 119.006L69.368 118.268C77.454 114.529 84.3734 108.652 89.3783 101.27C94.526 93.6776 97.4178 84.7941 97.7405 75.5817C98.1253 64.5697 94.467 53.6476 86.8712 43.1165L86.8743 43.1134ZM50.7788 77.2325C52.4512 83.5716 52.1223 89.6625 49.8076 95.3624C44.0239 89.6532 39.7823 83.3761 37.1945 76.6863C34.4236 69.5312 32.7574 62.7235 32.2299 56.4278C34.6781 57.2314 36.9276 58.2926 38.9321 59.5989C44.6972 63.3565 48.6844 69.2891 50.7788 77.2356V77.2325ZM51.8338 107.92C54.2912 109.791 56.8759 111.544 59.5412 113.157C55.6161 114.225 51.5669 114.693 47.4711 114.547C46.8382 114.526 46.2052 114.488 45.5691 114.436C47.9024 112.425 50 110.244 51.8307 107.92H51.8338ZM58.6973 75.1442C56.066 65.1716 50.9184 57.6317 43.4002 52.7354C40.1019 50.5882 36.3443 48.9592 32.2175 47.8949C32.2764 47.2092 32.3509 46.5266 32.4378 45.8564C32.5123 45.2823 32.5898 44.7548 32.6736 44.2615C33.3531 40.7522 34.3647 37.2801 35.6741 33.9445C36.1767 32.6661 36.7259 31.3971 37.3093 30.1714L37.331 30.128C38.2308 28.3066 39.2455 26.4666 40.4401 24.4994L40.9086 23.7268L40.8931 23.7175C43.667 19.3828 46.9902 15.4297 50.7912 11.9452L52.2588 13.6797C55.6813 17.7352 58.899 21.5703 61.825 25.0796C68.4061 32.9733 76.939 43.3399 80.2311 47.9105C86.7409 56.9336 89.8779 66.1459 89.5583 75.2994C89.3101 82.408 87.2063 89.3398 83.4705 95.3407C79.9332 101.028 75.0059 105.788 69.2004 109.139C65.9611 107.523 61.2571 104.863 56.2615 100.994C60.289 92.967 61.1113 84.2759 58.7004 75.1442H58.6973ZM45.5753 102.648C41.8829 107.433 37.4892 110.545 34.9263 112.109C34.5105 111.957 34.0947 111.798 33.6851 111.631L33.3562 111.5C25.7635 108.363 19.3593 103.061 14.8353 96.1599C10.212 89.1071 7.92212 80.9093 8.21689 72.451C8.42789 66.388 9.93898 60.5949 12.7129 55.2301C14.3233 54.8733 15.9647 54.6499 17.6061 54.5661L18.0312 54.5568C18.8597 54.5382 19.6851 54.5382 20.4701 54.5568C21.6243 54.6095 22.7817 54.7305 23.9205 54.9136C24.2928 62.6211 26.1855 70.9368 29.5521 79.6372C32.7946 88.0118 38.1812 95.7472 45.5722 102.645L45.5753 102.648Z" fill="white"/>
</g>
<g filter="url(#filter0_d_47_2305)">
<circle cx="100" cy="90" r="30" fill="white"/>
<path fill-rule="evenodd" clip-rule="evenodd" d="M91 97.5H83.5V100.5H91C91.825 100.5 92.5312 100.206 93.1187 99.6188C93.7062 99.0312 94 98.325 94 97.5L94 82.5L106.3 82.5L103.9 84.9L106 87L112 81L106 75L103.9 77.1L106.3 79.5L94 79.5C93.175 79.5 92.4687 79.7937 91.8812 80.3812C91.2937 80.9687 91 81.675 91 82.5L91 97.5ZM97 97.5H106.3L103.9 95.1L106 93L112 99L106 105L103.9 102.9L106.3 100.5H97V97.5Z" fill="#1F1F1F"/>
</g>
<defs>
<filter id="filter0_d_47_2305" x="68" y="58.6704" width="64" height="64" filterUnits="userSpaceOnUse" color-interpolation-filters="sRGB">
<feFlood flood-opacity="0" result="BackgroundImageFix"/>
<feColorMatrix in="SourceAlpha" type="matrix" values="0 0 0 0 0 0 0 0 0 0 0 0 0 0 0 0 0 0 127 0" result="hardAlpha"/>
<feOffset dy="0.670408"/>
<feGaussianBlur stdDeviation="1"/>
<feComposite in2="hardAlpha" operator="out"/>
<feColorMatrix type="matrix" values="0 0 0 0 0 0 0 0 0 0 0 0 0 0 0 0 0 0 0.3 0"/>
<feBlend mode="normal" in2="BackgroundImageFix" result="effect1_dropShadow_47_2305"/>
<feBlend mode="normal" in="SourceGraphic" in2="effect1_dropShadow_47_2305" result="shape"/>
</filter>
<clipPath id="clip0_47_2305">
<rect width="97.7741" height="122.296" fill="white" transform="translate(-0.00195312 0.467773)"/>
</clipPath>
</defs>
</svg>
