<svg width="990" height="128" viewBox="0 0 990 128" fill="none" xmlns="http://www.w3.org/2000/svg">
<path d="M525.467 33.5813H534.292L559.297 99.4016H550.747L544.128 81.2918H515.723L509.104 99.4016H500.555L525.467 33.5813ZM541.463 73.9376L532.729 50.2202L530.064 43.1418H529.696L527.122 50.2202L518.389 73.9376H541.463ZM564.705 52.5184H572.151V59.5049H572.518C573.928 57.1148 576.042 55.1231 578.861 53.5296C581.742 51.8749 584.959 51.0476 588.514 51.0476C592.681 51.0476 596.481 52.1201 599.913 54.2651C603.345 56.41 606.041 59.3824 608.003 63.1821C609.964 66.9817 610.944 71.2411 610.944 75.96C610.944 80.7403 609.964 85.0302 608.003 88.8299C606.041 92.5683 603.345 95.51 599.913 97.655C596.481 99.8 592.681 100.872 588.514 100.872C584.959 100.872 581.742 100.076 578.861 98.4823C576.042 96.8276 573.928 94.8359 572.518 92.507H572.151L572.518 98.942V119.258H564.705V52.5184ZM587.595 93.794C590.291 93.794 592.834 93.0586 595.225 91.5877C597.615 90.1169 599.515 88.0332 600.924 85.3367C602.395 82.5788 603.13 79.4533 603.13 75.96C603.13 72.4668 602.395 69.3719 600.924 66.6753C599.515 63.9175 597.615 61.8031 595.225 60.3323C592.834 58.8614 590.291 58.126 587.595 58.126C584.898 58.126 582.355 58.8614 579.965 60.3323C577.574 61.8031 575.675 63.8868 574.265 66.5834C572.855 69.2799 572.151 72.4055 572.151 75.96C572.151 79.5146 572.855 82.6401 574.265 85.3367C575.675 88.0332 577.574 90.1169 579.965 91.5877C582.355 93.0586 584.898 93.794 587.595 93.794ZM616.909 52.5184H624.356V59.5049H624.723C626.133 57.1148 628.247 55.1231 631.066 53.5296C633.947 51.8749 637.164 51.0476 640.719 51.0476C644.886 51.0476 648.686 52.1201 652.118 54.2651C655.55 56.41 658.246 59.3824 660.207 63.1821C662.169 66.9817 663.149 71.2411 663.149 75.96C663.149 80.7403 662.169 85.0302 660.207 88.8299C658.246 92.5683 655.55 95.51 652.118 97.655C648.686 99.8 644.886 100.872 640.719 100.872C637.164 100.872 633.947 100.076 631.066 98.4823C628.247 96.8276 626.133 94.8359 624.723 92.507H624.356L624.723 98.942V119.258H616.909V52.5184ZM639.799 93.794C642.496 93.794 645.039 93.0586 647.429 91.5877C649.82 90.1169 651.719 88.0332 653.129 85.3367C654.6 82.5788 655.335 79.4533 655.335 75.96C655.335 72.4668 654.6 69.3719 653.129 66.6753C651.719 63.9175 649.82 61.8031 647.429 60.3323C645.039 58.8614 642.496 58.126 639.799 58.126C637.103 58.126 634.56 58.8614 632.169 60.3323C629.779 61.8031 627.879 63.8868 626.47 66.5834C625.06 69.2799 624.356 72.4055 624.356 75.96C624.356 79.5146 625.06 82.6401 626.47 85.3367C627.879 88.0332 629.779 90.1169 632.169 91.5877C634.56 93.0586 637.103 93.794 639.799 93.794ZM691.47 33.5813H699.192V62.0789H733.205V33.5813H740.927V99.4016H733.205V69.4331H699.192V99.4016H691.47V33.5813ZM773.86 100.872C769.263 100.872 765.127 99.7693 761.449 97.5631C757.772 95.3568 754.892 92.3538 752.808 88.5541C750.786 84.7544 749.775 80.5564 749.775 75.96C749.775 71.3636 750.786 67.1656 752.808 63.3659C754.892 59.5662 757.772 56.5633 761.449 54.357C765.127 52.1507 769.263 51.0476 773.86 51.0476C778.456 51.0476 782.593 52.1507 786.27 54.357C789.947 56.5633 792.797 59.5662 794.819 63.3659C796.903 67.1656 797.945 71.3636 797.945 75.96C797.945 80.5564 796.903 84.7544 794.819 88.5541C792.797 92.3538 789.947 95.3568 786.27 97.5631C782.593 99.7693 778.456 100.872 773.86 100.872ZM773.86 93.794C776.74 93.794 779.406 93.0892 781.857 91.6797C784.37 90.2088 786.362 88.1251 787.833 85.4286C789.365 82.732 790.131 79.5758 790.131 75.96C790.131 72.3442 789.365 69.188 787.833 66.4915C786.362 63.7949 784.37 61.7419 781.857 60.3323C779.406 58.8614 776.74 58.126 773.86 58.126C770.979 58.126 768.283 58.8614 765.77 60.3323C763.257 61.7419 761.235 63.7949 759.703 66.4915C758.232 69.188 757.497 72.3442 757.497 75.96C757.497 79.5758 758.232 82.732 759.703 85.4286C761.235 88.1251 763.257 90.2088 765.77 91.6797C768.283 93.0892 770.979 93.794 773.86 93.794ZM821.094 100.872C816.069 100.872 811.871 99.708 808.5 97.3792C805.129 94.9891 802.739 91.9555 801.33 88.2783L808.316 85.1528C809.48 87.9719 811.196 90.1475 813.464 91.6797C815.793 93.2118 818.336 93.9779 821.094 93.9779C824.036 93.9779 826.548 93.3957 828.632 92.2312C830.716 91.0055 831.758 89.2896 831.758 87.0833C831.758 85.1222 830.93 83.5594 829.276 82.395C827.621 81.1693 825.016 80.1274 821.462 79.2694L815.762 77.7986C812.024 76.8793 808.96 75.3165 806.569 73.1103C804.179 70.904 802.984 68.0542 802.984 64.561C802.984 61.8644 803.781 59.5049 805.374 57.4825C807.029 55.3988 809.205 53.8054 811.901 52.7023C814.598 51.5992 817.509 51.0476 820.634 51.0476C824.74 51.0476 828.387 51.9362 831.574 53.7135C834.822 55.4908 837.12 57.9728 838.468 61.1596L831.666 64.2852C829.582 60.1178 825.874 58.0341 820.542 58.0341C817.968 58.0341 815.701 58.647 813.74 59.8727C811.84 61.0371 810.89 62.5386 810.89 64.3771C810.89 66.0931 811.564 67.5027 812.912 68.6058C814.261 69.6476 816.283 70.5056 818.98 71.1798L825.782 72.9264C830.379 74.0908 833.841 75.8374 836.17 78.1663C838.499 80.4338 839.663 83.2223 839.663 86.5317C839.663 89.4121 838.836 91.9555 837.181 94.1617C835.527 96.3067 833.29 97.9614 830.471 99.1258C827.652 100.29 824.526 100.872 821.094 100.872ZM863.912 100.137C862.012 100.137 860.234 99.8306 858.58 99.2178C856.986 98.6049 855.638 97.7776 854.535 96.7357C853.309 95.5713 852.39 94.223 851.777 92.6909C851.164 91.1588 850.858 89.2896 850.858 87.0833V59.5969H842.676V52.5184H850.858V39.2808H858.672V52.5184H870.071V59.5969H858.672V85.1528C858.672 87.7268 859.162 89.6266 860.143 90.8523C861.307 92.2006 862.992 92.8747 865.199 92.8747C866.976 92.8747 868.692 92.3538 870.347 91.312V98.942C869.427 99.371 868.477 99.6774 867.497 99.8613C866.577 100.045 865.382 100.137 863.912 100.137ZM882.765 43.8772C881.233 43.8772 879.916 43.3256 878.812 42.2225C877.709 41.1194 877.158 39.8017 877.158 38.2696C877.158 36.7375 877.709 35.4505 878.812 34.4087C879.916 33.3055 881.233 32.754 882.765 32.754C884.298 32.754 885.615 33.3055 886.718 34.4087C887.821 35.4505 888.373 36.7375 888.373 38.2696C888.373 39.8017 887.821 41.1194 886.718 42.2225C885.676 43.3256 884.359 43.8772 882.765 43.8772ZM878.904 52.5184H886.626V99.4016H878.904V52.5184ZM897.068 52.5184H904.514V59.413H904.882C906.169 57.0842 908.222 55.1231 911.041 53.5296C913.86 51.8749 916.863 51.0476 920.05 51.0476C925.688 51.0476 929.978 52.7023 932.92 56.0117C935.923 59.2598 937.424 63.703 937.424 69.3412V99.4016H929.61V70.5363C929.61 66.185 928.569 63.0288 926.485 61.0677C924.401 59.1066 921.551 58.126 917.936 58.126C915.423 58.126 913.155 58.8308 911.133 60.2404C909.172 61.6499 907.64 63.5191 906.537 65.848C905.433 68.1155 904.882 70.5056 904.882 73.0183V99.4016H897.068V52.5184ZM966.902 120.729C961.387 120.729 956.821 119.442 953.205 116.868C949.651 114.294 947.26 111.199 946.035 107.583L953.113 104.55C954.155 107.246 955.871 109.422 958.261 111.076C960.712 112.792 963.593 113.65 966.902 113.65C971.744 113.65 975.482 112.241 978.117 109.422C980.814 106.603 982.162 102.619 982.162 97.4711V92.2312H981.795C980.262 94.6214 978.087 96.5825 975.268 98.1146C972.51 99.5855 969.354 100.321 965.799 100.321C961.754 100.321 958.047 99.279 954.676 97.1953C951.366 95.1116 948.731 92.2006 946.77 88.4622C944.809 84.7238 943.828 80.4645 943.828 75.6842C943.828 70.9653 944.809 66.7366 946.77 62.9982C948.731 59.1985 951.366 56.2568 954.676 54.1731C958.047 52.0894 961.754 51.0476 965.799 51.0476C969.354 51.0476 972.51 51.8136 975.268 53.3458C978.087 54.8166 980.262 56.7778 981.795 59.2292H982.162V52.5184H989.608V97.5631C989.608 105.101 987.525 110.831 983.357 114.754C979.19 118.737 973.705 120.729 966.902 120.729ZM966.902 93.2424C969.721 93.2424 972.265 92.5377 974.532 91.1281C976.861 89.7185 978.7 87.6961 980.048 85.0609C981.458 82.4256 982.162 79.3001 982.162 75.6842C982.162 72.0071 981.458 68.8509 980.048 66.2157C978.7 63.5804 976.861 61.5886 974.532 60.2404C972.265 58.8308 969.721 58.126 966.902 58.126C964.083 58.126 961.509 58.8308 959.18 60.2404C956.852 61.6499 954.982 63.6723 953.573 66.3076C952.224 68.9429 951.55 72.0684 951.55 75.6842C951.55 79.3001 952.224 82.4563 953.573 85.1528C954.982 87.7881 956.852 89.8105 959.18 91.22C961.509 92.5683 964.083 93.2424 966.902 93.2424Z" fill="#5A5A5A"/>
<path d="M461.612 99.8665C457.157 99.8665 453.13 98.8292 449.531 96.7547C445.992 94.6802 443.215 91.8125 441.202 88.1515C439.188 84.4296 438.182 80.2805 438.182 75.7044C438.182 71.3113 439.127 67.2842 441.019 63.6233C442.971 59.9014 445.687 56.9726 449.164 54.8371C452.642 52.6405 456.608 51.5422 461.062 51.5422C465.639 51.5422 469.605 52.549 472.96 54.5625C476.377 56.576 478.97 59.3827 480.74 62.9826C482.509 66.5215 483.394 70.6096 483.394 75.2467C483.394 75.7959 483.364 76.345 483.303 76.8942C483.242 77.4433 483.211 77.7484 483.211 77.8094H448.249C448.554 81.9585 450.049 85.1618 452.734 87.4193C455.419 89.6769 458.469 90.8057 461.886 90.8057C467.133 90.8057 471.161 88.3651 473.967 83.4838L482.57 87.6024C480.557 91.3243 477.75 94.3141 474.15 96.5717C470.611 98.7682 466.432 99.8665 461.612 99.8665ZM473.144 70.1215C473.021 68.6571 472.533 67.1622 471.679 65.6368C470.825 64.1114 469.483 62.8301 467.652 61.7928C465.883 60.6946 463.656 60.1454 460.971 60.1454C457.981 60.1454 455.388 61.0607 453.191 62.8911C451.056 64.7216 449.592 67.1317 448.798 70.1215H473.144Z" fill="#5A5A5A"/>
<path d="M416.087 99.8665C410.9 99.8665 406.599 98.6767 403.182 96.2971C399.826 93.8565 397.446 90.8057 396.043 87.1448L405.012 83.3008C406.05 85.8024 407.544 87.6939 409.497 88.9752C411.51 90.2566 413.707 90.8972 416.087 90.8972C418.588 90.8972 420.632 90.4396 422.219 89.5244C423.805 88.5481 424.598 87.2973 424.598 85.7719C424.598 84.3076 423.958 83.1177 422.676 82.2025C421.395 81.2263 419.29 80.3721 416.361 79.6399L410.138 78.1755C406.721 77.3823 403.761 75.9179 401.26 73.7824C398.819 71.5858 397.599 68.7486 397.599 65.2707C397.599 61.0607 399.338 57.7353 402.816 55.2947C406.294 52.7931 410.565 51.5422 415.629 51.5422C419.839 51.5422 423.561 52.427 426.795 54.1964C430.09 55.9659 432.469 58.5285 433.934 61.8844L425.056 65.6368C424.202 63.7453 422.89 62.342 421.12 61.4267C419.351 60.5115 417.429 60.0539 415.354 60.0539C413.341 60.0539 411.571 60.5115 410.046 61.4267C408.521 62.281 407.758 63.4403 407.758 64.9046C407.758 66.186 408.277 67.2232 409.314 68.0164C410.412 68.8096 412.121 69.4808 414.439 70.0299L421.212 71.6773C425.788 72.8366 429.205 74.6061 431.462 76.9857C433.72 79.3043 434.849 82.111 434.849 85.4058C434.849 88.0905 434.025 90.5311 432.378 92.7277C430.791 94.9242 428.564 96.6632 425.696 97.9445C422.89 99.2258 419.686 99.8665 416.087 99.8665Z" fill="#5A5A5A"/>
<path d="M367.921 99.8665C364.688 99.8665 361.759 99.2258 359.135 97.9445C356.573 96.6022 354.529 94.7717 353.003 92.4531C351.539 90.0735 350.807 87.3888 350.807 84.3991C350.807 79.6399 352.576 75.8874 356.115 73.1417C359.715 70.396 364.261 69.0232 369.752 69.0232C374.572 69.0232 378.691 69.8469 382.108 71.4943V69.5723C382.108 66.8266 381.009 64.569 378.813 62.7996C376.677 60.9691 374.084 60.0539 371.033 60.0539C366.396 60.0539 362.674 61.9454 359.867 65.7283L352.18 60.42C354.315 57.5523 356.969 55.3557 360.142 53.8303C363.376 52.3049 367.006 51.5422 371.033 51.5422C377.684 51.5422 382.809 53.2202 386.409 56.576C390.07 59.8708 391.901 64.5385 391.901 70.5791V98.4021H382.108V92.8192H381.558C380.094 94.8937 378.233 96.6022 375.976 97.9445C373.718 99.2258 371.033 99.8665 367.921 99.8665ZM369.569 91.5379C371.826 91.5379 373.901 90.9887 375.792 89.8905C377.745 88.7312 379.27 87.2363 380.369 85.4058C381.528 83.5143 382.108 81.5008 382.108 79.3653C378.874 77.5958 375.426 76.7111 371.765 76.7111C368.41 76.7111 365.786 77.4433 363.894 78.9077C362.003 80.372 361.057 82.233 361.057 84.4906C361.057 86.5651 361.881 88.2736 363.528 89.6159C365.237 90.8972 367.25 91.5379 369.569 91.5379Z" fill="#5A5A5A"/>
<path d="M325.684 99.8661C322.389 99.8661 319.43 99.1644 316.806 97.7611C314.244 96.3577 312.322 94.5882 311.04 92.4527H310.491V98.4017H300.973V32.8711H311.04V52.5486L310.491 58.8637H311.04C312.322 56.7892 314.244 55.0502 316.806 53.6469C319.43 52.2435 322.389 51.5418 325.684 51.5418C329.589 51.5418 333.189 52.5791 336.484 54.6536C339.84 56.7281 342.494 59.6264 344.446 63.3483C346.46 67.0093 347.466 71.1278 347.466 75.704C347.466 80.2801 346.46 84.3987 344.446 88.0596C342.494 91.7205 339.84 94.6188 336.484 96.7543C333.189 98.8288 329.589 99.8661 325.684 99.8661ZM323.945 90.6222C326.325 90.6222 328.521 90.0121 330.535 88.7918C332.609 87.5715 334.257 85.8325 335.477 83.575C336.758 81.2564 337.399 78.6327 337.399 75.704C337.399 72.7752 336.758 70.1821 335.477 67.9245C334.257 65.6059 332.609 63.8364 330.535 62.6161C328.521 61.3958 326.325 60.7857 323.945 60.7857C321.565 60.7857 319.338 61.3958 317.264 62.6161C315.25 63.8364 313.603 65.5754 312.322 67.833C311.101 70.0905 310.491 72.7142 310.491 75.704C310.491 78.6937 311.101 81.3174 312.322 83.575C313.603 85.8325 315.25 87.5715 317.264 88.7918C319.338 90.0121 321.565 90.6222 323.945 90.6222Z" fill="#5A5A5A"/>
<path d="M273.192 99.8666C268.738 99.8666 264.711 98.8294 261.111 96.7548C257.572 94.6803 254.795 91.8126 252.782 88.1516C250.768 84.4297 249.762 80.2807 249.762 75.7045C249.762 71.3114 250.707 67.2844 252.599 63.6234C254.551 59.9015 257.267 56.9727 260.745 54.8372C264.222 52.6406 268.188 51.5424 272.643 51.5424C277.219 51.5424 281.185 52.5491 284.541 54.5626C287.957 56.5761 290.551 59.3828 292.32 62.9828C294.089 66.5217 294.974 70.6097 294.974 75.2469C294.974 75.796 294.944 76.3452 294.883 76.8943C294.822 77.4434 294.791 77.7485 294.791 77.8095H259.829C260.134 81.9586 261.629 85.1619 264.314 87.4195C266.999 89.677 270.049 90.8058 273.466 90.8058C278.714 90.8058 282.741 88.3652 285.547 83.484L294.15 87.6025C292.137 91.3245 289.33 94.3142 285.73 96.5718C282.191 98.7683 278.012 99.8666 273.192 99.8666ZM284.724 70.1216C284.602 68.6572 284.113 67.1623 283.259 65.6369C282.405 64.1115 281.063 62.8302 279.232 61.793C277.463 60.6947 275.236 60.1455 272.551 60.1455C269.561 60.1455 266.968 61.0608 264.772 62.8912C262.636 64.7217 261.172 67.1318 260.378 70.1216H284.724Z" fill="#5A5A5A"/>
<path d="M221.822 53.0066H231.341V59.7794H231.89C232.866 57.4608 234.636 55.5388 237.198 54.0134C239.761 52.427 242.384 51.6338 245.069 51.6338C247.266 51.6338 249.066 51.9389 250.469 52.549V63.0742C248.395 62.0369 246.076 61.5183 243.513 61.5183C240.218 61.5183 237.442 62.7996 235.185 65.3623C232.988 67.8639 231.89 70.9452 231.89 74.6061V98.4021H221.822V53.0066Z" fill="#5A5A5A"/>
<path d="M207.452 45.3184C205.561 45.3184 203.944 44.6777 202.602 43.3964C201.32 42.0541 200.68 40.4371 200.68 38.5457C200.68 36.6542 201.32 35.0678 202.602 33.7865C203.944 32.4441 205.561 31.7729 207.452 31.7729C209.344 31.7729 210.93 32.4441 212.212 33.7865C213.554 35.0678 214.225 36.6542 214.225 38.5457C214.225 40.4371 213.554 42.0541 212.212 43.3964C210.93 44.6777 209.344 45.3184 207.452 45.3184ZM202.419 53.0063H212.486V98.4018H202.419V53.0063Z" fill="#5A5A5A"/>
<path d="M156.562 32.8712H196.375V42.6642H166.813V61.518H193.446V71.2194H166.813V98.4018H156.562V32.8712Z" fill="#5A5A5A"/>
<path d="M31.6581 118.567C36.7104 120.601 42.1915 121.807 47.9467 122.008C55.7355 122.28 63.1422 120.67 69.7635 117.611C61.8234 114.492 54.6322 109.929 48.4949 104.257C44.5166 110.627 38.6325 115.658 31.6581 118.567Z" fill="#FF9100"/>
<path d="M48.4923 104.259C34.4827 91.302 25.9838 72.5484 26.7021 51.979C26.7254 51.311 26.7607 50.6435 26.8019 49.9762C24.2928 49.3273 21.6734 48.9313 18.9777 48.8371C15.1191 48.7024 11.3823 49.181 7.85452 50.1744C4.11472 56.7255 1.85787 64.242 1.57672 72.2932C0.851127 93.0713 13.4253 111.227 31.6556 118.569C38.63 115.66 44.5139 110.635 48.4923 104.259Z" fill="#FFC400"/>
<path d="M48.4937 104.258C51.7509 99.0459 53.7258 92.9348 53.9557 86.3506C54.5605 69.0316 42.9175 54.133 26.8033 49.9757C26.762 50.643 26.7268 51.3105 26.7035 51.9785C25.9852 72.5479 34.484 91.3015 48.4937 104.258Z" fill="#FF9100"/>
<path d="M52.1543 1.29291C42.9766 8.64534 35.7294 18.3402 31.3447 29.5084C28.8344 35.9054 27.2569 42.7768 26.7964 49.9798C42.9106 54.1372 54.5536 69.0358 53.9488 86.3548C53.7189 92.939 51.7382 99.044 48.4868 104.263C54.6239 109.941 61.8153 114.497 69.7555 117.616C85.693 110.249 97.0006 94.3967 97.6554 75.6462C98.0796 63.4978 93.4121 52.6704 86.8167 43.5311C79.8515 33.8654 52.1543 1.29291 52.1543 1.29291Z" fill="#DD2C00"/>
<g filter="url(#filter0_d_47_994)">
<circle cx="100" cy="90.4678" r="30" fill="white"/>
<path fill-rule="evenodd" clip-rule="evenodd" d="M118 84.4678C118 77.8438 112.624 72.4678 106 72.4678C99.376 72.4678 94 77.8438 94 84.4678C94 91.0918 99.376 96.4678 106 96.4678C112.624 96.4678 118 91.0918 118 84.4678ZM106 74.8678C100.701 74.8678 96.4 79.1693 96.4 84.4678H101.68C105.768 84.4938 107.586 86.3921 107.132 90.4678H102.985V93.5841C103.934 93.8979 104.947 94.0678 106 94.0678C111.299 94.0678 115.6 89.7663 115.6 84.4678C115.6 84.2721 115.594 84.0779 115.583 83.8851C115.583 83.8851 114.4 85.6678 112 85.6678C109.435 85.6678 108.153 83.6672 108.153 81.4678H103.655C103.655 78.4678 105.25 77.4577 107.099 77.4577C107.099 76.2875 107.492 75.5415 108.073 75.0925C107.405 74.9454 106.712 74.8678 106 74.8678Z" fill="#1F1F1F"/>
<path fill-rule="evenodd" clip-rule="evenodd" d="M97.514 94.9678C94.8212 92.7887 92.9833 89.5948 92.5824 85.9678H86.5C85.6716 85.9678 85 86.6393 85 87.4678V93.4678C85 94.2962 85.6716 94.9678 86.5 94.9678H97.514ZM99.8092 96.4678H86.5C85.6716 96.4678 85 97.1393 85 97.9678V103.968C85 104.796 85.6716 105.468 86.5 105.468H109C109.828 105.468 110.5 104.796 110.5 103.968V97.9678C110.5 97.7121 110.436 97.4714 110.323 97.2607C108.966 97.7192 107.512 97.9678 106 97.9678C103.769 97.9678 101.664 97.4264 99.8092 96.4678ZM88.75 88.9678C88.3358 88.9678 88 89.3036 88 89.7178V91.2178C88 91.632 88.3358 91.9678 88.75 91.9678H90.25C90.6642 91.9678 91 91.632 91 91.2178V89.7178C91 89.3036 90.6642 88.9678 90.25 88.9678H88.75ZM88.75 99.4678C88.3358 99.4678 88 99.8036 88 100.218V101.718C88 102.132 88.3358 102.468 88.75 102.468H90.25C90.6642 102.468 91 102.132 91 101.718V100.218C91 99.8036 90.6642 99.4678 90.25 99.4678H88.75Z" fill="#1F1F1F"/>
</g>
<defs>
<filter id="filter0_d_47_994" x="68" y="59.1382" width="64" height="64" filterUnits="userSpaceOnUse" color-interpolation-filters="sRGB">
<feFlood flood-opacity="0" result="BackgroundImageFix"/>
<feColorMatrix in="SourceAlpha" type="matrix" values="0 0 0 0 0 0 0 0 0 0 0 0 0 0 0 0 0 0 127 0" result="hardAlpha"/>
<feOffset dy="0.670408"/>
<feGaussianBlur stdDeviation="1"/>
<feComposite in2="hardAlpha" operator="out"/>
<feColorMatrix type="matrix" values="0 0 0 0 0 0 0 0 0 0 0 0 0 0 0 0 0 0 0.3 0"/>
<feBlend mode="normal" in2="BackgroundImageFix" result="effect1_dropShadow_47_994"/>
<feBlend mode="normal" in="SourceGraphic" in2="effect1_dropShadow_47_994" result="shape"/>
</filter>
</defs>
</svg>
