<svg width="1080" height="127" viewBox="0 0 1080 127" fill="none" xmlns="http://www.w3.org/2000/svg">
<path d="M525.467 33.1133H534.292L559.297 98.9336H550.747L544.128 80.8238H515.723L509.104 98.9336H500.555L525.467 33.1133ZM541.463 73.4696L532.729 49.7522L530.064 42.6738H529.696L527.122 49.7522L518.389 73.4696H541.463ZM579.296 100.404C573.658 100.404 569.337 98.7497 566.334 95.4403C563.392 92.1309 561.922 87.5039 561.922 81.5592V52.0504H569.735V80.3642C569.735 84.838 570.747 88.1168 572.769 90.2005C574.791 92.2841 577.519 93.326 580.951 93.326C583.586 93.326 585.915 92.6212 587.937 91.2117C590.021 89.8021 591.614 87.9635 592.717 85.696C593.882 83.4284 594.464 81.0383 594.464 78.5256V52.0504H602.278V98.9336H594.832V92.1309H594.464C593.177 94.4598 591.124 96.4209 588.305 98.0143C585.486 99.6077 582.483 100.404 579.296 100.404ZM630.447 99.669C628.547 99.669 626.77 99.3626 625.115 98.7497C623.522 98.1369 622.174 97.3095 621.071 96.2677C619.845 95.1033 618.926 93.755 618.313 92.2229C617.7 90.6907 617.394 88.8215 617.394 86.6153V59.1289H609.212V52.0504H617.394V38.8128H625.207V52.0504H636.606V59.1289H625.207V84.6848C625.207 87.2588 625.698 89.1586 626.678 90.3843C627.843 91.7326 629.528 92.4067 631.734 92.4067C633.512 92.4067 635.227 91.8858 636.882 90.8439V98.474C635.963 98.903 635.013 99.2094 634.032 99.3932C633.113 99.5771 631.918 99.669 630.447 99.669ZM644.705 33.1133H652.519V52.5101L652.151 58.945H652.519C653.806 56.5549 655.828 54.5631 658.586 52.9697C661.405 51.3763 664.469 50.5796 667.779 50.5796C673.478 50.5796 677.829 52.2649 680.832 55.6356C683.835 58.945 685.337 63.3575 685.337 68.8732V98.9336H677.523V70.0683C677.523 65.8396 676.45 62.714 674.305 60.6916C672.16 58.6692 669.372 57.658 665.94 57.658C663.489 57.658 661.221 58.3934 659.137 59.8643C657.115 61.3351 655.491 63.235 654.265 65.5638C653.101 67.8926 652.519 70.3134 652.519 72.8261V98.9336H644.705V33.1133ZM715.623 100.404C711.149 100.404 707.135 99.3319 703.58 97.187C700.026 95.042 697.237 92.1003 695.215 88.3619C693.254 84.5622 692.273 80.3029 692.273 75.5839C692.273 71.0488 693.192 66.8814 695.031 63.0817C696.931 59.2821 699.597 56.2484 703.029 53.9809C706.461 51.7133 710.444 50.5796 714.979 50.5796C719.576 50.5796 723.559 51.6214 726.93 53.7051C730.3 55.7275 732.874 58.5466 734.652 62.1625C736.49 65.7783 737.41 69.915 737.41 74.5727C737.41 75.492 737.318 76.2887 737.134 76.9628H700.087C700.271 80.5174 701.129 83.5204 702.661 85.9718C704.193 88.4232 706.123 90.2617 708.452 91.4874C710.842 92.7131 713.324 93.326 715.898 93.326C721.904 93.326 726.531 90.5069 729.78 84.8686L736.398 88.0861C734.376 91.8858 731.618 94.8888 728.125 97.095C724.693 99.3013 720.525 100.404 715.623 100.404ZM729.136 70.5279C729.013 68.5668 728.462 66.6056 727.481 64.6445C726.501 62.6834 724.938 61.0287 722.793 59.6804C720.709 58.3321 718.074 57.658 714.887 57.658C711.21 57.658 708.085 58.8531 705.511 61.2432C702.998 63.572 701.343 66.6669 700.547 70.5279H729.136ZM744.716 52.0504H752.162V58.945H752.53C753.817 56.6162 755.87 54.655 758.689 53.0616C761.508 51.4069 764.511 50.5796 767.698 50.5796C773.336 50.5796 777.626 52.2343 780.568 55.5437C783.57 58.7918 785.072 63.235 785.072 68.8732V98.9336H777.258V70.0683C777.258 65.717 776.216 62.5608 774.133 60.5997C772.049 58.6386 769.199 57.658 765.583 57.658C763.071 57.658 760.803 58.3628 758.781 59.7723C756.819 61.1819 755.287 63.0511 754.184 65.3799C753.081 67.6475 752.53 70.0376 752.53 72.5503V98.9336H744.716V52.0504ZM810.091 99.669C808.191 99.669 806.414 99.3626 804.759 98.7497C803.165 98.1369 801.817 97.3095 800.714 96.2677C799.488 95.1033 798.569 93.755 797.956 92.2229C797.343 90.6907 797.037 88.8215 797.037 86.6153V59.1289H788.855V52.0504H797.037V38.8128H804.851V52.0504H816.25V59.1289H804.851V84.6848C804.851 87.2588 805.341 89.1586 806.322 90.3843C807.486 91.7326 809.171 92.4067 811.378 92.4067C813.155 92.4067 814.871 91.8858 816.526 90.8439V98.474C815.606 98.903 814.656 99.2094 813.676 99.3932C812.757 99.5771 811.562 99.669 810.091 99.669ZM828.945 43.4092C827.412 43.4092 826.095 42.8576 824.992 41.7545C823.888 40.6514 823.337 39.3337 823.337 37.8016C823.337 36.2695 823.888 34.9825 824.992 33.9406C826.095 32.8375 827.412 32.2859 828.945 32.2859C830.477 32.2859 831.794 32.8375 832.897 33.9406C834.001 34.9825 834.552 36.2695 834.552 37.8016C834.552 39.3337 834.001 40.6514 832.897 41.7545C831.856 42.8576 830.538 43.4092 828.945 43.4092ZM825.084 52.0504H832.805V98.9336H825.084V52.0504ZM864.034 100.404C859.499 100.404 855.423 99.3319 851.807 97.187C848.191 94.9807 845.372 92.0084 843.35 88.27C841.327 84.4703 840.316 80.211 840.316 75.492C840.316 70.773 841.327 66.5137 843.35 62.714C845.372 58.9144 848.191 55.942 851.807 53.797C855.423 51.6521 859.499 50.5796 864.034 50.5796C869.12 50.5796 873.38 51.7746 876.812 54.1648C880.305 56.4936 882.787 59.6191 884.258 63.5414L877.179 66.4831C876.015 63.6027 874.268 61.427 871.939 59.9562C869.672 58.4241 866.914 57.658 863.666 57.658C860.908 57.658 858.334 58.4241 855.944 59.9562C853.554 61.427 851.623 63.5107 850.153 66.2073C848.743 68.9038 848.038 71.9987 848.038 75.492C848.038 78.9853 848.743 82.0802 850.153 84.7767C851.623 87.4733 853.554 89.5876 855.944 91.1197C858.334 92.5906 860.908 93.326 863.666 93.326C866.975 93.326 869.825 92.5599 872.215 91.0278C874.605 89.4957 876.383 87.32 877.547 84.5009L884.534 87.4426C882.94 91.3036 880.366 94.4291 876.812 96.8193C873.318 99.2094 869.059 100.404 864.034 100.404ZM905.678 100.404C902.246 100.404 899.182 99.7303 896.486 98.382C893.789 97.0338 891.705 95.1952 890.235 92.8664C888.764 90.4762 888.028 87.7797 888.028 84.7767C888.028 79.8126 889.897 75.9516 893.636 73.1938C897.374 70.3747 902.093 68.9651 907.793 68.9651C910.612 68.9651 913.216 69.2716 915.607 69.8844C918.058 70.4973 919.927 71.202 921.214 71.9987V69.149C921.214 65.6557 919.988 62.8673 917.537 60.7836C915.086 58.6386 911.991 57.5661 908.252 57.5661C905.617 57.5661 903.196 58.1483 900.99 59.3127C898.784 60.4158 897.037 61.9786 895.75 64.001L889.867 59.5885C891.705 56.7694 894.218 54.5631 897.405 52.9697C900.653 51.3763 904.238 50.5796 908.16 50.5796C914.534 50.5796 919.529 52.2649 923.145 55.6356C926.822 58.945 928.66 63.4801 928.66 69.2409V98.9336H921.214V92.2229H920.846C919.498 94.4904 917.476 96.4209 914.779 98.0143C912.083 99.6077 909.049 100.404 905.678 100.404ZM906.414 93.5099C909.049 93.5099 911.5 92.8357 913.768 91.4874C916.036 90.1392 917.844 88.3313 919.192 86.0637C920.54 83.7961 921.214 81.3141 921.214 78.6175C919.743 77.637 917.935 76.8403 915.79 76.2274C913.645 75.6146 911.378 75.3081 908.988 75.3081C904.698 75.3081 901.45 76.1968 899.243 77.9741C897.098 79.7513 896.026 82.0495 896.026 84.8686C896.026 87.4426 897.007 89.5263 898.968 91.1197C900.929 92.7131 903.411 93.5099 906.414 93.5099ZM954.812 99.669C952.913 99.669 951.135 99.3626 949.481 98.7497C947.887 98.1369 946.539 97.3095 945.436 96.2677C944.21 95.1033 943.291 93.755 942.678 92.2229C942.065 90.6907 941.759 88.8215 941.759 86.6153V59.1289H933.577V52.0504H941.759V38.8128H949.572V52.0504H960.972V59.1289H949.572V84.6848C949.572 87.2588 950.063 89.1586 951.043 90.3843C952.208 91.7326 953.893 92.4067 956.099 92.4067C957.877 92.4067 959.593 91.8858 961.247 90.8439V98.474C960.328 98.903 959.378 99.2094 958.398 99.3932C957.478 99.5771 956.283 99.669 954.812 99.669ZM973.666 43.4092C972.134 43.4092 970.816 42.8576 969.713 41.7545C968.61 40.6514 968.059 39.3337 968.059 37.8016C968.059 36.2695 968.61 34.9825 969.713 33.9406C970.816 32.8375 972.134 32.2859 973.666 32.2859C975.198 32.2859 976.516 32.8375 977.619 33.9406C978.722 34.9825 979.274 36.2695 979.274 37.8016C979.274 39.3337 978.722 40.6514 977.619 41.7545C976.577 42.8576 975.26 43.4092 973.666 43.4092ZM969.805 52.0504H977.527V98.9336H969.805V52.0504ZM1009.12 100.404C1004.53 100.404 1000.39 99.3013 996.713 97.095C993.036 94.8888 990.155 91.8858 988.072 88.0861C986.049 84.2864 985.038 80.0884 985.038 75.492C985.038 70.8956 986.049 66.6976 988.072 62.8979C990.155 59.0982 993.036 56.0952 996.713 53.889C1000.39 51.6827 1004.53 50.5796 1009.12 50.5796C1013.72 50.5796 1017.86 51.6827 1021.53 53.889C1025.21 56.0952 1028.06 59.0982 1030.08 62.8979C1032.17 66.6976 1033.21 70.8956 1033.21 75.492C1033.21 80.0884 1032.17 84.2864 1030.08 88.0861C1028.06 91.8858 1025.21 94.8888 1021.53 97.095C1017.86 99.3013 1013.72 100.404 1009.12 100.404ZM1009.12 93.326C1012 93.326 1014.67 92.6212 1017.12 91.2117C1019.63 89.7408 1021.63 87.6571 1023.1 84.9606C1024.63 82.264 1025.39 79.1078 1025.39 75.492C1025.39 71.8762 1024.63 68.72 1023.1 66.0234C1021.63 63.3269 1019.63 61.2738 1017.12 59.8643C1014.67 58.3934 1012 57.658 1009.12 57.658C1006.24 57.658 1003.55 58.3934 1001.03 59.8643C998.521 61.2738 996.498 63.3269 994.966 66.0234C993.495 68.72 992.76 71.8762 992.76 75.492C992.76 79.1078 993.495 82.264 994.966 84.9606C996.498 87.6571 998.521 89.7408 1001.03 91.2117C1003.55 92.6212 1006.24 93.326 1009.12 93.326ZM1039.55 52.0504H1046.99V58.945H1047.36C1048.65 56.6162 1050.7 54.655 1053.52 53.0616C1056.34 51.4069 1059.34 50.5796 1062.53 50.5796C1068.17 50.5796 1072.46 52.2343 1075.4 55.5437C1078.4 58.7918 1079.9 63.235 1079.9 68.8732V98.9336H1072.09V70.0683C1072.09 65.717 1071.05 62.5608 1068.96 60.5997C1066.88 58.6386 1064.03 57.658 1060.41 57.658C1057.9 57.658 1055.63 58.3628 1053.61 59.7723C1051.65 61.1819 1050.12 63.0511 1049.01 65.3799C1047.91 67.6475 1047.36 70.0376 1047.36 72.5503V98.9336H1039.55V52.0504Z" fill="white"/>
<path d="M461.612 99.3985C457.157 99.3985 453.13 98.3612 449.531 96.2867C445.992 94.2122 443.215 91.3444 441.202 87.6835C439.188 83.9616 438.182 79.8125 438.182 75.2364C438.182 70.8432 439.127 66.8162 441.019 63.1553C442.971 59.4333 445.687 56.5046 449.164 54.3691C452.642 52.1725 456.608 51.0742 461.062 51.0742C465.639 51.0742 469.605 52.081 472.96 54.0945C476.377 56.108 478.97 58.9147 480.74 62.5146C482.509 66.0535 483.394 70.1416 483.394 74.7787C483.394 75.3279 483.364 75.877 483.303 76.4262C483.242 76.9753 483.211 77.2804 483.211 77.3414H448.249C448.554 81.4904 450.049 84.6937 452.734 86.9513C455.419 89.2089 458.469 90.3377 461.886 90.3377C467.133 90.3377 471.161 87.8971 473.967 83.0158L482.57 87.1344C480.557 90.8563 477.75 93.8461 474.15 96.1036C470.611 98.3002 466.432 99.3985 461.612 99.3985ZM473.144 69.6534C473.021 68.1891 472.533 66.6942 471.679 65.1688C470.825 63.6434 469.483 62.3621 467.652 61.3248C465.883 60.2265 463.656 59.6774 460.971 59.6774C457.981 59.6774 455.388 60.5926 453.191 62.4231C451.056 64.2536 449.592 66.6637 448.798 69.6534H473.144Z" fill="white"/>
<path d="M416.087 99.3985C410.9 99.3985 406.599 98.2087 403.182 95.8291C399.826 93.3885 397.446 90.3377 396.043 86.6768L405.012 82.8328C406.05 85.3344 407.544 87.2259 409.497 88.5072C411.51 89.7885 413.707 90.4292 416.087 90.4292C418.588 90.4292 420.632 89.9716 422.219 89.0564C423.805 88.0801 424.598 86.8293 424.598 85.3039C424.598 83.8395 423.958 82.6497 422.676 81.7345C421.395 80.7582 419.29 79.904 416.361 79.1718L410.138 77.7075C406.721 76.9143 403.761 75.4499 401.26 73.3144C398.819 71.1178 397.599 68.2806 397.599 64.8027C397.599 60.5926 399.338 57.2673 402.816 54.8267C406.294 52.325 410.565 51.0742 415.629 51.0742C419.839 51.0742 423.561 51.9589 426.795 53.7284C430.09 55.4978 432.469 58.0605 433.934 61.4163L425.056 65.1688C424.202 63.2773 422.89 61.874 421.12 60.9587C419.351 60.0435 417.429 59.5859 415.354 59.5859C413.341 59.5859 411.571 60.0435 410.046 60.9587C408.521 61.8129 407.758 62.9722 407.758 64.4366C407.758 65.7179 408.277 66.7552 409.314 67.5484C410.412 68.3416 412.121 69.0128 414.439 69.5619L421.212 71.2093C425.788 72.3686 429.205 74.1381 431.462 76.5177C433.72 78.8363 434.849 81.643 434.849 84.9378C434.849 87.6225 434.025 90.0631 432.378 92.2597C430.791 94.4562 428.564 96.1952 425.696 97.4765C422.89 98.7578 419.686 99.3985 416.087 99.3985Z" fill="white"/>
<path d="M367.921 99.3985C364.688 99.3985 361.759 98.7578 359.135 97.4765C356.573 96.1342 354.529 94.3037 353.003 91.9851C351.539 89.6055 350.807 86.9208 350.807 83.9311C350.807 79.1719 352.576 75.4194 356.115 72.6737C359.715 69.928 364.261 68.5552 369.752 68.5552C374.572 68.5552 378.691 69.3789 382.108 71.0263V69.1043C382.108 66.3586 381.009 64.101 378.813 62.3316C376.677 60.5011 374.084 59.5859 371.033 59.5859C366.396 59.5859 362.674 61.4774 359.867 65.2603L352.18 59.952C354.315 57.0842 356.969 54.8877 360.142 53.3623C363.376 51.8369 367.006 51.0742 371.033 51.0742C377.684 51.0742 382.809 52.7521 386.409 56.108C390.07 59.4028 391.901 64.0705 391.901 70.111V97.9341H382.108V92.3512H381.558C380.094 94.4257 378.233 96.1342 375.976 97.4765C373.718 98.7578 371.033 99.3985 367.921 99.3985ZM369.569 91.0699C371.826 91.0699 373.901 90.5207 375.792 89.4224C377.745 88.2632 379.27 86.7683 380.369 84.9378C381.528 83.0463 382.108 81.0328 382.108 78.8973C378.874 77.1278 375.426 76.2431 371.765 76.2431C368.41 76.2431 365.786 76.9753 363.894 78.4397C362.003 79.904 361.057 81.765 361.057 84.0226C361.057 86.0971 361.881 87.8055 363.528 89.1479C365.237 90.4292 367.25 91.0699 369.569 91.0699Z" fill="white"/>
<path d="M325.684 99.3973C322.389 99.3973 319.43 98.6957 316.806 97.2923C314.244 95.8889 312.322 94.1195 311.04 91.984H310.491V97.933H300.973V32.4023H311.04V52.0798L310.491 58.3949H311.04C312.322 56.3204 314.244 54.5815 316.806 53.1781C319.43 51.7748 322.389 51.0731 325.684 51.0731C329.589 51.0731 333.189 52.1103 336.484 54.1849C339.84 56.2594 342.494 59.1576 344.446 62.8796C346.46 66.5405 347.466 70.659 347.466 75.2352C347.466 79.8114 346.46 83.9299 344.446 87.5908C342.494 91.2518 339.84 94.15 336.484 96.2855C333.189 98.3601 329.589 99.3973 325.684 99.3973ZM323.945 90.1535C326.325 90.1535 328.521 89.5433 330.535 88.323C332.609 87.1027 334.257 85.3638 335.477 83.1062C336.758 80.7876 337.399 78.164 337.399 75.2352C337.399 72.3065 336.758 69.7133 335.477 67.4557C334.257 65.1371 332.609 63.3677 330.535 62.1474C328.521 60.9271 326.325 60.3169 323.945 60.3169C321.565 60.3169 319.338 60.9271 317.264 62.1474C315.25 63.3677 313.603 65.1066 312.322 67.3642C311.101 69.6218 310.491 72.2454 310.491 75.2352C310.491 78.225 311.101 80.8486 312.322 83.1062C313.603 85.3638 315.25 87.1027 317.264 88.323C319.338 89.5433 321.565 90.1535 323.945 90.1535Z" fill="white"/>
<path d="M273.192 99.3985C268.738 99.3985 264.711 98.3612 261.111 96.2867C257.572 94.2122 254.795 91.3444 252.782 87.6835C250.768 83.9616 249.762 79.8125 249.762 75.2364C249.762 70.8432 250.707 66.8162 252.599 63.1553C254.551 59.4333 257.267 56.5046 260.745 54.3691C264.222 52.1725 268.188 51.0742 272.643 51.0742C277.219 51.0742 281.185 52.081 284.541 54.0945C287.957 56.108 290.551 58.9147 292.32 62.5146C294.089 66.0535 294.974 70.1416 294.974 74.7787C294.974 75.3279 294.944 75.877 294.883 76.4262C294.822 76.9753 294.791 77.2804 294.791 77.3414H259.829C260.134 81.4904 261.629 84.6937 264.314 86.9513C266.999 89.2089 270.049 90.3377 273.466 90.3377C278.714 90.3377 282.741 87.8971 285.547 83.0158L294.15 87.1344C292.137 90.8563 289.33 93.8461 285.73 96.1036C282.191 98.3002 278.012 99.3985 273.192 99.3985ZM284.724 69.6534C284.602 68.1891 284.113 66.6942 283.259 65.1688C282.405 63.6434 281.063 62.3621 279.232 61.3248C277.463 60.2265 275.236 59.6774 272.551 59.6774C269.561 59.6774 266.968 60.5926 264.772 62.4231C262.636 64.2536 261.172 66.6637 260.378 69.6534H284.724Z" fill="white"/>
<path d="M221.822 52.5389H231.341V59.3116H231.89C232.866 56.993 234.636 55.071 237.198 53.5456C239.761 51.9592 242.384 51.166 245.069 51.166C247.266 51.166 249.066 51.4711 250.469 52.0812V62.6064C248.395 61.5692 246.076 61.0505 243.513 61.0505C240.218 61.0505 237.442 62.3318 235.185 64.8945C232.988 67.3961 231.89 70.4774 231.89 74.1383V97.9344H221.822V52.5389Z" fill="white"/>
<path d="M207.452 44.8501C205.561 44.8501 203.944 44.2095 202.602 42.9281C201.32 41.5858 200.68 39.9689 200.68 38.0774C200.68 36.1859 201.32 34.5995 202.602 33.3182C203.944 31.9759 205.561 31.3047 207.452 31.3047C209.344 31.3047 210.93 31.9759 212.212 33.3182C213.554 34.5995 214.225 36.1859 214.225 38.0774C214.225 39.9689 213.554 41.5858 212.212 42.9281C210.93 44.2095 209.344 44.8501 207.452 44.8501ZM202.419 52.5381H212.486V97.9336H202.419V52.5381Z" fill="white"/>
<path d="M156.562 32.4033H196.375V42.1963H166.813V61.0501H193.446V70.7515H166.813V97.9339H156.562V32.4033Z" fill="white"/>
<path d="M96.6179 66.9557V66.9173C96.6171 66.9029 96.6171 66.8885 96.6179 66.874C95.463 59.3471 92.4665 52.4136 88.4918 46.177C87.9918 45.3884 87.4719 44.6132 86.9403 43.843C86.6825 43.4696 86.4209 43.0995 86.1553 42.7328C81.044 35.6376 64.9002 16.3476 56.4192 6.28996C53.2111 2.48397 51.0996 0 51.0996 0C50.143 0.766866 49.208 1.55818 48.2948 2.37395L48.2631 2.40228C41.6491 8.5865 36.1645 15.8777 32.056 23.9479L32.0426 23.9729C31.2516 25.5289 30.5128 27.1126 29.8261 28.7241C28.2377 32.4574 26.9465 36.3104 25.9648 40.2471C25.3692 42.6266 24.8871 45.0478 24.5182 47.5107C22.4884 47.1785 20.4382 46.9858 18.382 46.9338C17.9931 46.9238 17.6043 46.9188 17.2154 46.9188C13.8555 46.9163 10.5059 47.291 7.22949 48.0358C5.2239 51.2756 3.6094 54.7417 2.41983 58.3618C0.811797 63.2612 -0.00504604 68.3857 2.34521e-05 73.5424C2.34521e-05 97.1119 16.7888 116.762 39.0571 121.171C42.1801 121.79 45.3561 122.101 48.5398 122.1C49.168 122.1 49.793 122.087 50.4163 122.065C52.0528 122.001 53.6666 121.858 55.2576 121.638C58.9651 121.124 62.6003 120.181 66.0901 118.828C67.0201 118.467 67.9356 118.078 68.8366 117.661C85.502 109.974 97.0795 93.1092 97.0795 73.5424C97.0732 71.339 96.9189 69.1385 96.6179 66.9557ZM32.8726 110.599C28.0934 108.579 23.7517 105.65 20.0885 101.975C16.4155 98.3105 13.4883 93.968 11.4692 89.1881C9.37475 84.2363 8.30117 78.9125 8.31274 73.5358C8.30099 68.1584 9.37457 62.834 11.4692 57.8817C11.8025 57.0859 12.163 56.3046 12.5508 55.5378C14.0914 55.3445 15.6427 55.2476 17.1954 55.2476C19.3797 55.2475 21.5597 55.4405 23.7099 55.8245C23.6633 56.9098 23.6399 58.0051 23.6399 59.1037C23.6106 79.543 31.667 99.1636 46.05 113.681C41.5137 113.414 37.0568 112.371 32.8726 110.599ZM50.7046 106.499C49.7291 105.462 48.7909 104.399 47.8898 103.308C43.5702 98.1073 40.0404 92.2979 37.4139 86.0673C33.8047 77.535 31.9539 68.3618 31.9727 59.097C31.9727 58.8447 31.9727 58.593 31.9727 58.3418C36.1015 60.1738 39.8555 62.7547 43.0452 65.9538C47.9902 70.8741 51.4142 77.1149 52.9078 83.9301C53.4725 86.5199 53.7563 89.1631 53.7544 91.8138C53.77 96.8667 52.7354 101.868 50.7163 106.499H50.7046ZM88.7701 74.9278C88.5155 82.4895 86.1301 89.8254 81.889 96.09C78.4423 101.178 73.883 105.413 68.5566 108.476L68.5033 108.451C67.1034 109.254 65.6565 109.971 64.1703 110.599C62.3188 111.382 60.4107 112.025 58.4624 112.521C58.1157 112.61 57.768 112.693 57.4191 112.771C57.2308 112.814 57.0441 112.856 56.8558 112.894C56.9291 112.761 57.0008 112.623 57.0708 112.486C57.1791 112.277 57.2858 112.069 57.3891 111.859C58.6614 109.314 59.686 106.652 60.4489 103.91C61.5437 99.975 62.0971 95.9087 62.0938 91.8238C62.0952 88.8521 61.8033 85.8875 61.2222 82.9732C58.1341 67.5258 47.1249 54.9426 32.6126 49.6312C33.2811 44.7179 34.4808 39.8918 36.1907 35.2375C36.574 34.1961 36.9823 33.1619 37.4156 32.135C38.0689 30.5879 38.7755 29.0709 39.5354 27.5838C39.54 27.5764 39.5439 27.5686 39.5471 27.5605C39.8587 26.912 40.1804 26.2735 40.5137 25.6367C43.1296 20.6538 46.4272 16.06 50.3113 11.9881L50.3763 12.0665C53.8194 16.1509 58.4274 21.6456 63.017 27.1821C65.3652 30.0161 67.7084 32.8618 69.8882 35.5375C73.9762 40.5572 77.4893 44.9783 79.3875 47.604C79.6591 47.9808 79.9241 48.3559 80.1841 48.736C82.9106 52.6954 85.0171 56.6981 86.4453 60.6574C87.3533 63.1539 88.0082 65.7353 88.4001 68.3627V68.3961C88.7209 70.5576 88.8459 72.7437 88.7735 74.9278H88.7701Z" fill="white"/>
<g filter="url(#filter0_d_47_2398)">
<circle cx="100" cy="90.4678" r="30" fill="white"/>
<path d="M83.5 102.468V98.2678C83.5 97.4178 83.7188 96.6365 84.1562 95.924C84.5938 95.2115 85.175 94.6678 85.9 94.2928C87.45 93.5178 89.025 92.9365 90.625 92.549C92.225 92.1615 93.85 91.9678 95.5 91.9678C97.15 91.9678 98.775 92.1615 100.375 92.549C101.975 92.9365 103.55 93.5178 105.1 94.2928C105.825 94.6678 106.406 95.2115 106.844 95.924C107.281 96.6365 107.5 97.4178 107.5 98.2678V102.468H83.5ZM110.5 102.468V97.9678C110.5 96.8678 110.194 95.8115 109.581 94.799C108.969 93.7865 108.1 92.9178 106.975 92.1928C108.25 92.3428 109.45 92.599 110.575 92.9615C111.7 93.324 112.75 93.7678 113.725 94.2928C114.625 94.7928 115.313 95.349 115.788 95.9615C116.263 96.574 116.5 97.2428 116.5 97.9678V102.468H110.5ZM95.5 90.4678C93.85 90.4678 92.4375 89.8803 91.2625 88.7053C90.0875 87.5303 89.5 86.1178 89.5 84.4678C89.5 82.8178 90.0875 81.4053 91.2625 80.2303C92.4375 79.0553 93.85 78.4678 95.5 78.4678C97.15 78.4678 98.5625 79.0553 99.7375 80.2303C100.913 81.4053 101.5 82.8178 101.5 84.4678C101.5 86.1178 100.913 87.5303 99.7375 88.7053C98.5625 89.8803 97.15 90.4678 95.5 90.4678ZM110.5 84.4678C110.5 86.1178 109.913 87.5303 108.738 88.7053C107.562 89.8803 106.15 90.4678 104.5 90.4678C104.225 90.4678 103.875 90.4365 103.45 90.374C103.025 90.3115 102.675 90.2428 102.4 90.1678C103.075 89.3678 103.594 88.4803 103.956 87.5053C104.319 86.5303 104.5 85.5178 104.5 84.4678C104.5 83.4178 104.319 82.4053 103.956 81.4303C103.594 80.4553 103.075 79.5678 102.4 78.7678C102.75 78.6428 103.1 78.5615 103.45 78.524C103.8 78.4865 104.15 78.4678 104.5 78.4678C106.15 78.4678 107.562 79.0553 108.738 80.2303C109.913 81.4053 110.5 82.8178 110.5 84.4678Z" fill="#1F1F1F"/>
</g>
<defs>
<filter id="filter0_d_47_2398" x="68" y="59.1382" width="64" height="64" filterUnits="userSpaceOnUse" color-interpolation-filters="sRGB">
<feFlood flood-opacity="0" result="BackgroundImageFix"/>
<feColorMatrix in="SourceAlpha" type="matrix" values="0 0 0 0 0 0 0 0 0 0 0 0 0 0 0 0 0 0 127 0" result="hardAlpha"/>
<feOffset dy="0.670408"/>
<feGaussianBlur stdDeviation="1"/>
<feComposite in2="hardAlpha" operator="out"/>
<feColorMatrix type="matrix" values="0 0 0 0 0 0 0 0 0 0 0 0 0 0 0 0 0 0 0.3 0"/>
<feBlend mode="normal" in2="BackgroundImageFix" result="effect1_dropShadow_47_2398"/>
<feBlend mode="normal" in="SourceGraphic" in2="effect1_dropShadow_47_2398" result="shape"/>
</filter>
</defs>
</svg>
