<svg width="1551" height="128" viewBox="0 0 1551 128" fill="none" xmlns="http://www.w3.org/2000/svg">
<path d="M537.418 100.872C531.044 100.872 525.253 99.3707 520.043 96.3677C514.834 93.3648 510.728 89.2587 507.725 84.0494C504.783 78.7789 503.313 72.9262 503.313 66.4912C503.313 60.0563 504.783 54.2342 507.725 49.0249C510.728 43.7544 514.834 39.6177 520.043 36.6147C525.253 33.6117 531.044 32.1102 537.418 32.1102C542.321 32.1102 546.794 33.0601 550.839 34.96C554.945 36.7985 558.5 39.4338 561.503 42.8658L555.895 48.2895C553.383 45.2865 550.625 43.0803 547.622 41.6707C544.68 40.2611 541.279 39.5564 537.418 39.5564C532.638 39.5564 528.256 40.6901 524.272 42.9577C520.289 45.164 517.102 48.3201 514.712 52.4263C512.383 56.4711 511.218 61.1594 511.218 66.4912C511.218 71.823 512.383 76.542 514.712 80.6481C517.102 84.6929 520.289 87.8491 524.272 90.1167C528.256 92.3229 532.638 93.4261 537.418 93.4261C545.385 93.4261 552.157 90.1473 557.734 83.5898L563.433 89.1055C560.369 92.7213 556.6 95.6017 552.126 97.7467C547.652 99.8304 542.75 100.872 537.418 100.872ZM570.369 33.5811H578.183V99.4014H570.369V33.5811ZM609.075 100.872C604.479 100.872 600.342 99.7691 596.665 97.5628C592.988 95.3565 590.108 92.3536 588.024 88.5539C586.002 84.7542 584.99 80.5562 584.99 75.9598C584.99 71.3634 586.002 67.1653 588.024 63.3657C590.108 59.566 592.988 56.563 596.665 54.3567C600.342 52.1505 604.479 51.0473 609.075 51.0473C613.672 51.0473 617.809 52.1505 621.486 54.3567C625.163 56.563 628.013 59.566 630.035 63.3657C632.119 67.1653 633.161 71.3634 633.161 75.9598C633.161 80.5562 632.119 84.7542 630.035 88.5539C628.013 92.3536 625.163 95.3565 621.486 97.5628C617.809 99.7691 613.672 100.872 609.075 100.872ZM609.075 93.7938C611.956 93.7938 614.622 93.089 617.073 91.6794C619.586 90.2086 621.578 88.1249 623.048 85.4283C624.581 82.7318 625.347 79.5756 625.347 75.9598C625.347 72.3439 624.581 69.1878 623.048 66.4912C621.578 63.7947 619.586 61.7416 617.073 60.332C614.622 58.8612 611.956 58.1258 609.075 58.1258C606.195 58.1258 603.499 58.8612 600.986 60.332C598.473 61.7416 596.451 63.7947 594.919 66.4912C593.448 69.1878 592.712 72.3439 592.712 75.9598C592.712 79.5756 593.448 82.7318 594.919 85.4283C596.451 88.1249 598.473 90.2086 600.986 91.6794C603.499 93.089 606.195 93.7938 609.075 93.7938ZM656.953 100.872C651.315 100.872 646.994 99.2175 643.992 95.9081C641.05 92.5987 639.579 87.9717 639.579 82.027V52.5182H647.393V80.832C647.393 85.3058 648.404 88.5845 650.426 90.6682C652.449 92.7519 655.176 93.7938 658.608 93.7938C661.243 93.7938 663.572 93.089 665.595 91.6794C667.678 90.2699 669.272 88.4313 670.375 86.1638C671.539 83.8962 672.121 81.5061 672.121 78.9934V52.5182H679.935V99.4014H672.489V92.5987H672.121C670.834 94.9275 668.781 96.8887 665.962 98.4821C663.143 100.076 660.14 100.872 656.953 100.872ZM709.046 100.872C704.878 100.872 701.078 99.7997 697.646 97.6547C694.276 95.5098 691.61 92.5681 689.649 88.8297C687.688 85.03 686.707 80.74 686.707 75.9598C686.707 71.2408 687.688 66.9815 689.649 63.1818C691.61 59.3821 694.276 56.4098 697.646 54.2648C701.078 52.1198 704.878 51.0473 709.046 51.0473C712.661 51.0473 715.879 51.8747 718.698 53.5294C721.517 55.1228 723.662 57.1146 725.133 59.5047H725.501L725.133 52.9778V33.5811H732.947V99.4014H725.501V92.5068H725.133C723.662 94.8356 721.517 96.8274 718.698 98.4821C715.879 100.076 712.661 100.872 709.046 100.872ZM709.965 93.7938C712.723 93.7938 715.266 93.0583 717.595 91.5875C719.985 90.1167 721.885 88.033 723.294 85.3364C724.765 82.6399 725.501 79.5143 725.501 75.9598C725.501 72.4052 724.765 69.2797 723.294 66.5831C721.885 63.8866 719.985 61.8029 717.595 60.332C715.266 58.8612 712.723 58.1258 709.965 58.1258C707.268 58.1258 704.725 58.8612 702.335 60.332C699.945 61.8029 698.014 63.9172 696.543 66.6751C695.134 69.3716 694.429 72.4665 694.429 75.9598C694.429 79.453 695.134 82.5786 696.543 85.3364C698.014 88.033 699.945 90.1167 702.335 91.5875C704.725 93.0583 707.268 93.7938 709.965 93.7938ZM779.344 100.872C774.196 100.872 769.477 99.3094 765.187 96.1839C760.897 93.0583 757.955 88.6765 756.362 83.0382L763.808 80.0046C764.85 83.9269 766.78 87.1443 769.599 89.657C772.418 92.1697 775.728 93.4261 779.528 93.4261C783.327 93.4261 786.545 92.4149 789.18 90.3924C791.815 88.3087 793.133 85.4896 793.133 81.9351C793.133 78.8708 791.999 76.3581 789.732 74.397C787.525 72.3746 783.879 70.5054 778.792 68.7894L774.655 67.3186C769.998 65.6639 766.198 63.4882 763.256 60.7917C760.315 58.0951 758.844 54.3567 758.844 49.5765C758.844 46.4509 759.702 43.5705 761.418 40.9353C763.134 38.2387 765.524 36.0938 768.588 34.5003C771.652 32.9069 775.084 32.1102 778.884 32.1102C782.684 32.1102 785.993 32.815 788.812 34.2246C791.631 35.6341 793.868 37.3501 795.523 39.3725C797.239 41.3949 798.434 43.3867 799.108 45.3478L791.754 48.4734C791.141 46.2058 789.732 44.1528 787.525 42.3142C785.38 40.4756 782.531 39.5564 778.976 39.5564C775.605 39.5564 772.725 40.5063 770.335 42.4061C767.945 44.306 766.75 46.6961 766.75 49.5765C766.75 52.1505 767.761 54.2648 769.783 55.9195C771.806 57.5129 774.87 59.0144 778.976 60.424L783.297 61.8948C788.874 63.9172 793.225 66.4606 796.35 69.5248C799.476 72.5278 801.039 76.6339 801.039 81.8432C801.039 86.0718 799.936 89.6264 797.729 92.5068C795.584 95.3872 792.857 97.5015 789.548 98.8498C786.238 100.198 782.837 100.872 779.344 100.872ZM824.77 100.137C822.871 100.137 821.093 99.8304 819.439 99.2175C817.845 98.6047 816.497 97.7773 815.394 96.7355C814.168 95.571 813.249 94.2228 812.636 92.6906C812.023 91.1585 811.717 89.2893 811.717 87.083V59.5966H803.535V52.5182H811.717V39.2806H819.531V52.5182H830.93V59.5966H819.531V85.1526C819.531 87.7265 820.021 89.6264 821.001 90.8521C822.166 92.2004 823.851 92.8745 826.057 92.8745C827.835 92.8745 829.551 92.3536 831.205 91.3117V98.9417C830.286 99.3707 829.336 99.6772 828.356 99.861C827.436 100.045 826.241 100.137 824.77 100.137ZM858.117 100.872C853.521 100.872 849.384 99.7691 845.707 97.5628C842.03 95.3565 839.149 92.3536 837.066 88.5539C835.043 84.7542 834.032 80.5562 834.032 75.9598C834.032 71.3634 835.043 67.1653 837.066 63.3657C839.149 59.566 842.03 56.563 845.707 54.3567C849.384 52.1505 853.521 51.0473 858.117 51.0473C862.714 51.0473 866.85 52.1505 870.527 54.3567C874.205 56.563 877.054 59.566 879.077 63.3657C881.16 67.1653 882.202 71.3634 882.202 75.9598C882.202 80.5562 881.16 84.7542 879.077 88.5539C877.054 92.3536 874.205 95.3565 870.527 97.5628C866.85 99.7691 862.714 100.872 858.117 100.872ZM858.117 93.7938C860.998 93.7938 863.664 93.089 866.115 91.6794C868.628 90.2086 870.619 88.1249 872.09 85.4283C873.622 82.7318 874.388 79.5756 874.388 75.9598C874.388 72.3439 873.622 69.1878 872.09 66.4912C870.619 63.7947 868.628 61.7416 866.115 60.332C863.664 58.8612 860.998 58.1258 858.117 58.1258C855.237 58.1258 852.54 58.8612 850.028 60.332C847.515 61.7416 845.492 63.7947 843.96 66.4912C842.49 69.1878 841.754 72.3439 841.754 75.9598C841.754 79.5756 842.49 82.7318 843.96 85.4283C845.492 88.1249 847.515 90.2086 850.028 91.6794C852.54 93.089 855.237 93.7938 858.117 93.7938ZM888.54 52.5182H895.986V60.0563H896.353C897.273 57.4823 899.05 55.3679 901.685 53.7132C904.321 51.9973 907.078 51.1393 909.959 51.1393C912.104 51.1393 913.942 51.4457 915.474 52.0585V60.5159C913.513 59.5353 911.307 59.0451 908.856 59.0451C906.588 59.0451 904.504 59.6886 902.605 60.9755C900.705 62.2625 899.173 64.0092 898.008 66.2154C896.905 68.3604 896.353 70.6892 896.353 73.2019V99.4014H888.54V52.5182ZM934.363 100.872C930.931 100.872 927.866 100.198 925.17 98.8498C922.473 97.5015 920.39 95.663 918.919 93.3341C917.448 90.944 916.713 88.2475 916.713 85.2445C916.713 80.2804 918.582 76.4194 922.32 73.6616C926.059 70.8425 930.778 69.4329 936.477 69.4329C939.296 69.4329 941.901 69.7393 944.291 70.3522C946.742 70.965 948.612 71.6698 949.899 72.4665V69.6168C949.899 66.1235 948.673 63.335 946.221 61.2513C943.77 59.1063 940.675 58.0339 936.937 58.0339C934.301 58.0339 931.881 58.6161 929.674 59.7805C927.468 60.8836 925.722 62.4464 924.435 64.4688L918.551 60.0563C920.39 57.2371 922.902 55.0309 926.089 53.4375C929.337 51.844 932.923 51.0473 936.845 51.0473C943.218 51.0473 948.213 52.7327 951.829 56.1034C955.506 59.4128 957.345 63.9479 957.345 69.7087V99.4014H949.899V92.6906H949.531C948.183 94.9582 946.16 96.8887 943.464 98.4821C940.767 100.076 937.733 100.872 934.363 100.872ZM935.098 93.9776C937.733 93.9776 940.185 93.3035 942.452 91.9552C944.72 90.6069 946.528 88.799 947.876 86.5315C949.224 84.2639 949.899 81.7819 949.899 79.0853C948.428 78.1048 946.62 77.3081 944.475 76.6952C942.33 76.0823 940.062 75.7759 937.672 75.7759C933.382 75.7759 930.134 76.6646 927.928 78.4418C925.783 80.2191 924.71 82.5173 924.71 85.3364C924.71 87.9104 925.691 89.9941 927.652 91.5875C929.613 93.1809 932.095 93.9776 935.098 93.9776ZM986.52 120.729C981.004 120.729 976.438 119.442 972.822 116.868C969.268 114.294 966.878 111.199 965.652 107.583L972.73 104.549C973.772 107.246 975.488 109.421 977.878 111.076C980.33 112.792 983.21 113.65 986.52 113.65C991.361 113.65 995.099 112.241 997.735 109.421C1000.43 106.602 1001.78 102.619 1001.78 97.4709V92.231H1001.41C999.88 94.6211 997.704 96.5822 994.885 98.1144C992.127 99.5852 988.971 100.321 985.416 100.321C981.372 100.321 977.664 99.2788 974.293 97.1951C970.984 95.1114 968.348 92.2004 966.387 88.462C964.426 84.7236 963.446 80.4642 963.446 75.684C963.446 70.965 964.426 66.7364 966.387 62.998C968.348 59.1983 970.984 56.2566 974.293 54.1729C977.664 52.0892 981.372 51.0473 985.416 51.0473C988.971 51.0473 992.127 51.8134 994.885 53.3455C997.704 54.8164 999.88 56.7775 1001.41 59.2289H1001.78V52.5182H1009.23V97.5628C1009.23 105.101 1007.14 110.831 1002.97 114.753C998.807 118.737 993.322 120.729 986.52 120.729ZM986.52 93.2422C989.339 93.2422 991.882 92.5374 994.15 91.1279C996.478 89.7183 998.317 87.6959 999.665 85.0606C1001.07 82.4254 1001.78 79.2998 1001.78 75.684C1001.78 72.0069 1001.07 68.8507 999.665 66.2154C998.317 63.5802 996.478 61.5884 994.15 60.2401C991.882 58.8306 989.339 58.1258 986.52 58.1258C983.7 58.1258 981.126 58.8306 978.798 60.2401C976.469 61.6497 974.6 63.6721 973.19 66.3074C971.842 68.9426 971.168 72.0682 971.168 75.684C971.168 79.2998 971.842 82.456 973.19 85.1526C974.6 87.7878 976.469 89.8102 978.798 91.2198C981.126 92.5681 983.7 93.2422 986.52 93.2422ZM1039.36 100.872C1034.89 100.872 1030.87 99.7997 1027.32 97.6547C1023.76 95.5098 1020.97 92.5681 1018.95 88.8297C1016.99 85.03 1016.01 80.7707 1016.01 76.0517C1016.01 71.5166 1016.93 67.3492 1018.77 63.5495C1020.67 59.7498 1023.33 56.7162 1026.77 54.4487C1030.2 52.1811 1034.18 51.0473 1038.72 51.0473C1043.31 51.0473 1047.3 52.0892 1050.67 54.1729C1054.04 56.1953 1056.61 59.0144 1058.39 62.6302C1060.23 66.2461 1061.15 70.3828 1061.15 75.0405C1061.15 75.9598 1061.05 76.7565 1060.87 77.4306H1023.82C1024.01 80.9852 1024.87 83.9881 1026.4 86.4395C1027.93 88.891 1029.86 90.7295 1032.19 91.9552C1034.58 93.1809 1037.06 93.7938 1039.64 93.7938C1045.64 93.7938 1050.27 90.9747 1053.52 85.3364L1060.14 88.5539C1058.11 92.3536 1055.35 95.3565 1051.86 97.5628C1048.43 99.7691 1044.26 100.872 1039.36 100.872ZM1052.87 70.9957C1052.75 69.0345 1052.2 67.0734 1051.22 65.1123C1050.24 63.1512 1048.67 61.4965 1046.53 60.1482C1044.45 58.7999 1041.81 58.1258 1038.62 58.1258C1034.95 58.1258 1031.82 59.3208 1029.25 61.711C1026.73 64.0398 1025.08 67.1347 1024.28 70.9957H1052.87ZM1091.61 59.5966H1082.97V52.5182H1091.61V47.4622C1091.61 44.5205 1092.28 41.9465 1093.63 39.7402C1094.98 37.534 1096.79 35.8486 1099.05 34.6842C1101.32 33.4585 1103.83 32.8456 1106.59 32.8456C1109.23 32.8456 1111.53 33.2133 1113.49 33.9488V41.5788C1112.38 41.1498 1111.34 40.8127 1110.36 40.5676C1109.38 40.2611 1108.22 40.1079 1106.87 40.1079C1104.85 40.1079 1103.1 40.8434 1101.63 42.3142C1100.16 43.7238 1099.42 45.7155 1099.42 48.2895V52.5182H1111.46V59.5966H1099.42V99.4014H1091.61V59.5966ZM1137.91 100.872C1133.31 100.872 1129.17 99.7691 1125.5 97.5628C1121.82 95.3565 1118.94 92.3536 1116.86 88.5539C1114.83 84.7542 1113.82 80.5562 1113.82 75.9598C1113.82 71.3634 1114.83 67.1653 1116.86 63.3657C1118.94 59.566 1121.82 56.563 1125.5 54.3567C1129.17 52.1505 1133.31 51.0473 1137.91 51.0473C1142.5 51.0473 1146.64 52.1505 1150.32 54.3567C1154 56.563 1156.85 59.566 1158.87 63.3657C1160.95 67.1653 1161.99 71.3634 1161.99 75.9598C1161.99 80.5562 1160.95 84.7542 1158.87 88.5539C1156.85 92.3536 1154 95.3565 1150.32 97.5628C1146.64 99.7691 1142.5 100.872 1137.91 100.872ZM1137.91 93.7938C1140.79 93.7938 1143.45 93.089 1145.91 91.6794C1148.42 90.2086 1150.41 88.1249 1151.88 85.4283C1153.41 82.7318 1154.18 79.5756 1154.18 75.9598C1154.18 72.3439 1153.41 69.1878 1151.88 66.4912C1150.41 63.7947 1148.42 61.7416 1145.91 60.332C1143.45 58.8612 1140.79 58.1258 1137.91 58.1258C1135.03 58.1258 1132.33 58.8612 1129.82 60.332C1127.31 61.7416 1125.28 63.7947 1123.75 66.4912C1122.28 69.1878 1121.54 72.3439 1121.54 75.9598C1121.54 79.5756 1122.28 82.7318 1123.75 85.4283C1125.28 88.1249 1127.31 90.2086 1129.82 91.6794C1132.33 93.089 1135.03 93.7938 1137.91 93.7938ZM1168.33 52.5182H1175.78V60.0563H1176.14C1177.06 57.4823 1178.84 55.3679 1181.48 53.7132C1184.11 51.9973 1186.87 51.1393 1189.75 51.1393C1191.89 51.1393 1193.73 51.4457 1195.27 52.0585V60.5159C1193.3 59.5353 1191.1 59.0451 1188.65 59.0451C1186.38 59.0451 1184.3 59.6886 1182.4 60.9755C1180.5 62.2625 1178.96 64.0092 1177.8 66.2154C1176.7 68.3604 1176.14 70.6892 1176.14 73.2019V99.4014H1168.33V52.5182ZM1222.06 33.5811H1260.11V41.0272H1229.78V63.5495H1257.17V70.9037H1229.78V99.4014H1222.06V33.5811ZM1271.19 43.877C1269.66 43.877 1268.34 43.3254 1267.24 42.2223C1266.13 41.1191 1265.58 39.8015 1265.58 38.2694C1265.58 36.7372 1266.13 35.4503 1267.24 34.4084C1268.34 33.3053 1269.66 32.7537 1271.19 32.7537C1272.72 32.7537 1274.04 33.3053 1275.14 34.4084C1276.25 35.4503 1276.8 36.7372 1276.8 38.2694C1276.8 39.8015 1276.25 41.1191 1275.14 42.2223C1274.1 43.3254 1272.78 43.877 1271.19 43.877ZM1267.33 52.5182H1275.05V99.4014H1267.33V52.5182ZM1285.49 52.5182H1292.94V60.0563H1293.31C1294.22 57.4823 1296 55.3679 1298.64 53.7132C1301.27 51.9973 1304.03 51.1393 1306.91 51.1393C1309.06 51.1393 1310.89 51.4457 1312.43 52.0585V60.5159C1310.47 59.5353 1308.26 59.0451 1305.81 59.0451C1303.54 59.0451 1301.46 59.6886 1299.56 60.9755C1297.66 62.2625 1296.12 64.0092 1294.96 66.2154C1293.86 68.3604 1293.31 70.6892 1293.31 73.2019V99.4014H1285.49V52.5182ZM1336.21 100.872C1331.74 100.872 1327.72 99.7997 1324.17 97.6547C1320.61 95.5098 1317.83 92.5681 1315.8 88.8297C1313.84 85.03 1312.86 80.7707 1312.86 76.0517C1312.86 71.5166 1313.78 67.3492 1315.62 63.5495C1317.52 59.7498 1320.18 56.7162 1323.62 54.4487C1327.05 52.1811 1331.03 51.0473 1335.57 51.0473C1340.16 51.0473 1344.15 52.0892 1347.52 54.1729C1350.89 56.1953 1353.46 59.0144 1355.24 62.6302C1357.08 66.2461 1358 70.3828 1358 75.0405C1358 75.9598 1357.91 76.7565 1357.72 77.4306H1320.67C1320.86 80.9852 1321.72 83.9881 1323.25 86.4395C1324.78 88.891 1326.71 90.7295 1329.04 91.9552C1331.43 93.1809 1333.91 93.7938 1336.49 93.7938C1342.49 93.7938 1347.12 90.9747 1350.37 85.3364L1356.99 88.5539C1354.96 92.3536 1352.21 95.3565 1348.71 97.5628C1345.28 99.7691 1341.11 100.872 1336.21 100.872ZM1349.72 70.9957C1349.6 69.0345 1349.05 67.0734 1348.07 65.1123C1347.09 63.1512 1345.53 61.4965 1343.38 60.1482C1341.3 58.7999 1338.66 58.1258 1335.48 58.1258C1331.8 58.1258 1328.67 59.3208 1326.1 61.711C1323.59 64.0398 1321.93 67.1347 1321.13 70.9957H1349.72ZM1389.11 100.872C1385.56 100.872 1382.34 100.076 1379.46 98.4821C1376.64 96.8274 1374.53 94.8356 1373.12 92.5068H1372.75V99.4014H1365.3V33.5811H1373.12V52.9778L1372.75 59.5047H1373.12C1374.53 57.1146 1376.64 55.1228 1379.46 53.5294C1382.34 51.8747 1385.56 51.0473 1389.11 51.0473C1393.28 51.0473 1397.08 52.1198 1400.51 54.2648C1403.94 56.4098 1406.64 59.3821 1408.6 63.1818C1410.56 66.9815 1411.54 71.2408 1411.54 75.9598C1411.54 80.74 1410.56 85.03 1408.6 88.8297C1406.64 92.5681 1403.94 95.5098 1400.51 97.6547C1397.08 99.7997 1393.28 100.872 1389.11 100.872ZM1388.19 93.7938C1390.89 93.7938 1393.43 93.0583 1395.82 91.5875C1398.21 90.1167 1400.11 88.033 1401.52 85.3364C1402.99 82.5786 1403.73 79.453 1403.73 75.9598C1403.73 72.4665 1402.99 69.3716 1401.52 66.6751C1400.11 63.9172 1398.21 61.8029 1395.82 60.332C1393.43 58.8612 1390.89 58.1258 1388.19 58.1258C1385.5 58.1258 1382.95 58.8612 1380.56 60.332C1378.17 61.8029 1376.27 63.8866 1374.86 66.5831C1373.45 69.2797 1372.75 72.4052 1372.75 75.9598C1372.75 79.5143 1373.45 82.6399 1374.86 85.3364C1376.27 88.033 1378.17 90.1167 1380.56 91.5875C1382.95 93.0583 1385.5 93.7938 1388.19 93.7938ZM1433.75 100.872C1430.32 100.872 1427.25 100.198 1424.56 98.8498C1421.86 97.5015 1419.78 95.663 1418.31 93.3341C1416.84 90.944 1416.1 88.2475 1416.1 85.2445C1416.1 80.2804 1417.97 76.4194 1421.71 73.6616C1425.45 70.8425 1430.16 69.4329 1435.86 69.4329C1438.68 69.4329 1441.29 69.7393 1443.68 70.3522C1446.13 70.965 1448 71.6698 1449.29 72.4665V69.6168C1449.29 66.1235 1448.06 63.335 1445.61 61.2513C1443.16 59.1063 1440.06 58.0339 1436.32 58.0339C1433.69 58.0339 1431.27 58.6161 1429.06 59.7805C1426.86 60.8836 1425.11 62.4464 1423.82 64.4688L1417.94 60.0563C1419.78 57.2371 1422.29 55.0309 1425.48 53.4375C1428.72 51.844 1432.31 51.0473 1436.23 51.0473C1442.61 51.0473 1447.6 52.7327 1451.22 56.1034C1454.89 59.4128 1456.73 63.9479 1456.73 69.7087V99.4014H1449.29V92.6906H1448.92C1447.57 94.9582 1445.55 96.8887 1442.85 98.4821C1440.15 100.076 1437.12 100.872 1433.75 100.872ZM1434.49 93.9776C1437.12 93.9776 1439.57 93.3035 1441.84 91.9552C1444.11 90.6069 1445.91 88.799 1447.26 86.5315C1448.61 84.2639 1449.29 81.7819 1449.29 79.0853C1447.81 78.1048 1446.01 77.3081 1443.86 76.6952C1441.72 76.0823 1439.45 75.7759 1437.06 75.7759C1432.77 75.7759 1429.52 76.6646 1427.31 78.4418C1425.17 80.2191 1424.1 82.5173 1424.1 85.3364C1424.1 87.9104 1425.08 89.9941 1427.04 91.5875C1429 93.1809 1431.48 93.9776 1434.49 93.9776ZM1481.68 100.872C1476.65 100.872 1472.45 99.7078 1469.08 97.379C1465.71 94.9888 1463.32 91.9552 1461.91 88.2781L1468.9 85.1526C1470.06 87.9717 1471.78 90.1473 1474.05 91.6794C1476.38 93.2116 1478.92 93.9776 1481.68 93.9776C1484.62 93.9776 1487.13 93.3954 1489.22 92.231C1491.3 91.0053 1492.34 89.2893 1492.34 87.083C1492.34 85.1219 1491.51 83.5591 1489.86 82.3947C1488.2 81.169 1485.6 80.1272 1482.05 79.2692L1476.35 77.7983C1472.61 76.8791 1469.54 75.3163 1467.15 73.11C1464.76 70.9037 1463.57 68.054 1463.57 64.5607C1463.57 61.8642 1464.36 59.5047 1465.96 57.4823C1467.61 55.3986 1469.79 53.8052 1472.49 52.702C1475.18 51.5989 1478.09 51.0473 1481.22 51.0473C1485.32 51.0473 1488.97 51.936 1492.16 53.7132C1495.41 55.4905 1497.7 57.9726 1499.05 61.1594L1492.25 64.2849C1490.17 60.1176 1486.46 58.0339 1481.13 58.0339C1478.55 58.0339 1476.28 58.6467 1474.32 59.8724C1472.42 61.0368 1471.47 62.5383 1471.47 64.3769C1471.47 66.0929 1472.15 67.5024 1473.5 68.6056C1474.84 69.6474 1476.87 70.5054 1479.56 71.1795L1486.37 72.9262C1490.96 74.0906 1494.43 75.8372 1496.75 78.166C1499.08 80.4336 1500.25 83.2221 1500.25 86.5315C1500.25 89.4119 1499.42 91.9552 1497.77 94.1615C1496.11 96.3065 1493.87 97.9612 1491.05 99.1256C1488.24 100.29 1485.11 100.872 1481.68 100.872ZM1528.24 100.872C1523.77 100.872 1519.75 99.7997 1516.2 97.6547C1512.65 95.5098 1509.86 92.5681 1507.83 88.8297C1505.87 85.03 1504.89 80.7707 1504.89 76.0517C1504.89 71.5166 1505.81 67.3492 1507.65 63.5495C1509.55 59.7498 1512.22 56.7162 1515.65 54.4487C1519.08 52.1811 1523.06 51.0473 1527.6 51.0473C1532.2 51.0473 1536.18 52.0892 1539.55 54.1729C1542.92 56.1953 1545.49 59.0144 1547.27 62.6302C1549.11 66.2461 1550.03 70.3828 1550.03 75.0405C1550.03 75.9598 1549.94 76.7565 1549.75 77.4306H1512.71C1512.89 80.9852 1513.75 83.9881 1515.28 86.4395C1516.81 88.891 1518.74 90.7295 1521.07 91.9552C1523.46 93.1809 1525.94 93.7938 1528.52 93.7938C1534.52 93.7938 1539.15 90.9747 1542.4 85.3364L1549.02 88.5539C1547 92.3536 1544.24 95.3565 1540.75 97.5628C1537.31 99.7691 1533.15 100.872 1528.24 100.872ZM1541.76 70.9957C1541.63 69.0345 1541.08 67.0734 1540.1 65.1123C1539.12 63.1512 1537.56 61.4965 1535.41 60.1482C1533.33 58.7999 1530.69 58.1258 1527.51 58.1258C1523.83 58.1258 1520.7 59.3208 1518.13 61.711C1515.62 64.0398 1513.96 67.1347 1513.17 70.9957H1541.76Z" fill="white"/>
<path d="M461.612 99.8663C457.157 99.8663 453.13 98.829 449.531 96.7545C445.992 94.6799 443.215 91.8122 441.202 88.1513C439.188 84.4293 438.182 80.2803 438.182 75.7041C438.182 71.311 439.127 67.284 441.019 63.6231C442.971 59.9011 445.687 56.9724 449.164 54.8368C452.642 52.6403 456.608 51.542 461.062 51.542C465.639 51.542 469.605 52.5487 472.96 54.5623C476.377 56.5758 478.97 59.3825 480.74 62.9824C482.509 66.5213 483.394 70.6093 483.394 75.2465C483.394 75.7956 483.364 76.3448 483.303 76.8939C483.242 77.4431 483.211 77.7481 483.211 77.8092H448.249C448.554 81.9582 450.049 85.1615 452.734 87.4191C455.419 89.6767 458.469 90.8055 461.886 90.8055C467.133 90.8055 471.161 88.3648 473.967 83.4836L482.57 87.6021C480.557 91.3241 477.75 94.3138 474.15 96.5714C470.611 98.768 466.432 99.8663 461.612 99.8663ZM473.144 70.1212C473.021 68.6568 472.533 67.162 471.679 65.6366C470.825 64.1112 469.483 62.8299 467.652 61.7926C465.883 60.6943 463.656 60.1452 460.971 60.1452C457.981 60.1452 455.388 61.0604 453.191 62.8909C451.056 64.7213 449.592 67.1314 448.798 70.1212H473.144Z" fill="white"/>
<path d="M416.087 99.8663C410.9 99.8663 406.599 98.6765 403.182 96.2968C399.826 93.8562 397.446 90.8055 396.043 87.1445L405.012 83.3006C406.05 85.8022 407.544 87.6937 409.497 88.975C411.51 90.2563 413.707 90.897 416.087 90.897C418.588 90.897 420.632 90.4394 422.219 89.5241C423.805 88.5479 424.598 87.2971 424.598 85.7717C424.598 84.3073 423.958 83.1175 422.676 82.2023C421.395 81.226 419.29 80.3718 416.361 79.6396L410.138 78.1752C406.721 77.382 403.761 75.9177 401.26 73.7821C398.819 71.5856 397.599 68.7484 397.599 65.2705C397.599 61.0604 399.338 57.7351 402.816 55.2944C406.294 52.7928 410.565 51.542 415.629 51.542C419.839 51.542 423.561 52.4267 426.795 54.1962C430.09 55.9656 432.469 58.5283 433.934 61.8841L425.056 65.6366C424.202 63.7451 422.89 62.3417 421.12 61.4265C419.351 60.5113 417.429 60.0537 415.354 60.0537C413.341 60.0537 411.571 60.5113 410.046 61.4265C408.521 62.2807 407.758 63.44 407.758 64.9044C407.758 66.1857 408.277 67.223 409.314 68.0162C410.412 68.8094 412.121 69.4805 414.439 70.0297L421.212 71.6771C425.788 72.8364 429.205 74.6058 431.462 76.9854C433.72 79.304 434.849 82.1107 434.849 85.4056C434.849 88.0903 434.025 90.5309 432.378 92.7274C430.791 94.924 428.564 96.6629 425.696 97.9443C422.89 99.2256 419.686 99.8663 416.087 99.8663Z" fill="white"/>
<path d="M367.921 99.8663C364.688 99.8663 361.759 99.2256 359.135 97.9443C356.573 96.6019 354.529 94.7715 353.003 92.4529C351.539 90.0733 350.807 87.3886 350.807 84.3988C350.807 79.6396 352.576 75.8872 356.115 73.1415C359.715 70.3958 364.261 69.0229 369.752 69.0229C374.572 69.0229 378.691 69.8466 382.108 71.4941V69.5721C382.108 66.8264 381.009 64.5688 378.813 62.7993C376.677 60.9689 374.084 60.0537 371.033 60.0537C366.396 60.0537 362.674 61.9451 359.867 65.7281L352.18 60.4197C354.315 57.552 356.969 55.3555 360.142 53.8301C363.376 52.3047 367.006 51.542 371.033 51.542C377.684 51.542 382.809 53.2199 386.409 56.5758C390.07 59.8706 391.901 64.5383 391.901 70.5788V98.4019H382.108V92.819H381.558C380.094 94.8935 378.233 96.6019 375.976 97.9443C373.718 99.2256 371.033 99.8663 367.921 99.8663ZM369.569 91.5376C371.826 91.5376 373.901 90.9885 375.792 89.8902C377.745 88.7309 379.27 87.236 380.369 85.4056C381.528 83.5141 382.108 81.5006 382.108 79.3651C378.874 77.5956 375.426 76.7109 371.765 76.7109C368.41 76.7109 365.786 77.4431 363.894 78.9074C362.003 80.3718 361.057 82.2328 361.057 84.4904C361.057 86.5649 361.881 88.2733 363.528 89.6157C365.237 90.897 367.25 91.5376 369.569 91.5376Z" fill="white"/>
<path d="M325.684 99.8661C322.389 99.8661 319.43 99.1644 316.806 97.7611C314.244 96.3577 312.322 94.5882 311.04 92.4527H310.491V98.4017H300.973V32.8711H311.04V52.5486L310.491 58.8637H311.04C312.322 56.7892 314.244 55.0502 316.806 53.6469C319.43 52.2435 322.389 51.5418 325.684 51.5418C329.589 51.5418 333.189 52.5791 336.484 54.6536C339.84 56.7281 342.494 59.6264 344.446 63.3483C346.46 67.0093 347.466 71.1278 347.466 75.704C347.466 80.2801 346.46 84.3987 344.446 88.0596C342.494 91.7205 339.84 94.6188 336.484 96.7543C333.189 98.8288 329.589 99.8661 325.684 99.8661ZM323.945 90.6222C326.325 90.6222 328.521 90.0121 330.535 88.7918C332.609 87.5715 334.257 85.8325 335.477 83.575C336.758 81.2564 337.399 78.6327 337.399 75.704C337.399 72.7752 336.758 70.1821 335.477 67.9245C334.257 65.6059 332.609 63.8364 330.535 62.6161C328.521 61.3958 326.325 60.7857 323.945 60.7857C321.565 60.7857 319.338 61.3958 317.264 62.6161C315.25 63.8364 313.603 65.5754 312.322 67.833C311.101 70.0905 310.491 72.7142 310.491 75.704C310.491 78.6937 311.101 81.3174 312.322 83.575C313.603 85.8325 315.25 87.5715 317.264 88.7918C319.338 90.0121 321.565 90.6222 323.945 90.6222Z" fill="white"/>
<path d="M273.192 99.8667C268.738 99.8667 264.711 98.8295 261.111 96.7549C257.572 94.6804 254.795 91.8127 252.782 88.1518C250.768 84.4298 249.762 80.2808 249.762 75.7046C249.762 71.3115 250.707 67.2845 252.599 63.6235C254.551 59.9016 257.267 56.9729 260.745 54.8373C264.222 52.6408 268.188 51.5425 272.643 51.5425C277.219 51.5425 281.185 52.5492 284.541 54.5627C287.957 56.5763 290.551 59.383 292.32 62.9829C294.089 66.5218 294.974 70.6098 294.974 75.247C294.974 75.7961 294.944 76.3453 294.883 76.8944C294.822 77.4436 294.791 77.7486 294.791 77.8096H259.829C260.134 81.9587 261.629 85.162 264.314 87.4196C266.999 89.6772 270.049 90.8059 273.466 90.8059C278.714 90.8059 282.741 88.3653 285.547 83.4841L294.15 87.6026C292.137 91.3246 289.33 94.3143 285.73 96.5719C282.191 98.7685 278.012 99.8667 273.192 99.8667ZM284.724 70.1217C284.602 68.6573 284.113 67.1624 283.259 65.6371C282.405 64.1117 281.063 62.8303 279.232 61.7931C277.463 60.6948 275.236 60.1457 272.551 60.1457C269.561 60.1457 266.968 61.0609 264.772 62.8914C262.636 64.7218 261.172 67.1319 260.378 70.1217H284.724Z" fill="white"/>
<path d="M221.822 53.0066H231.341V59.7794H231.89C232.866 57.4608 234.636 55.5388 237.198 54.0134C239.761 52.427 242.384 51.6338 245.069 51.6338C247.266 51.6338 249.066 51.9389 250.469 52.549V63.0742C248.395 62.0369 246.076 61.5183 243.513 61.5183C240.218 61.5183 237.442 62.7996 235.185 65.3623C232.988 67.8639 231.89 70.9452 231.89 74.6061V98.4022H221.822V53.0066Z" fill="white"/>
<path d="M207.452 45.3184C205.561 45.3184 203.944 44.6777 202.602 43.3964C201.32 42.0541 200.68 40.4371 200.68 38.5457C200.68 36.6542 201.32 35.0678 202.602 33.7865C203.944 32.4441 205.561 31.7729 207.452 31.7729C209.344 31.7729 210.93 32.4441 212.212 33.7865C213.554 35.0678 214.225 36.6542 214.225 38.5457C214.225 40.4371 213.554 42.0541 212.212 43.3964C210.93 44.6777 209.344 45.3184 207.452 45.3184ZM202.419 53.0063H212.486V98.4018H202.419V53.0063Z" fill="white"/>
<path d="M156.562 32.8711H196.375V42.6641H166.813V61.5179H193.446V71.2193H166.813V98.4017H156.562V32.8711Z" fill="white"/>
<path d="M31.6562 118.567C36.7084 120.601 42.1896 121.807 47.9447 122.008C55.7335 122.28 63.1403 120.67 69.7616 117.611C61.8214 114.492 54.6303 109.929 48.4929 104.257C44.5147 110.627 38.6305 115.658 31.6562 118.567Z" fill="#FF9100"/>
<path d="M48.4923 104.259C34.4827 91.302 25.9838 72.5484 26.7021 51.979C26.7254 51.311 26.7607 50.6435 26.8019 49.9762C24.2928 49.3273 21.6734 48.9313 18.9777 48.8371C15.1191 48.7024 11.3823 49.181 7.85452 50.1744C4.11472 56.7255 1.85787 64.242 1.57672 72.2932C0.851127 93.0713 13.4253 111.227 31.6556 118.569C38.63 115.66 44.5139 110.635 48.4923 104.259Z" fill="#FFC400"/>
<path d="M48.4937 104.258C51.7509 99.0459 53.7258 92.9348 53.9557 86.3506C54.5605 69.0316 42.9175 54.133 26.8033 49.9757C26.762 50.643 26.7268 51.3105 26.7035 51.9785C25.9852 72.5479 34.484 91.3015 48.4937 104.258Z" fill="#FF9100"/>
<path d="M52.1543 1.29291C42.9766 8.64534 35.7294 18.3402 31.3447 29.5084C28.8344 35.9054 27.2569 42.7768 26.7964 49.9798C42.9106 54.1372 54.5536 69.0358 53.9488 86.3548C53.7189 92.939 51.7382 99.044 48.4868 104.263C54.6239 109.941 61.8153 114.497 69.7555 117.616C85.693 110.249 97.0006 94.3967 97.6554 75.6462C98.0796 63.4978 93.4121 52.6704 86.8167 43.5311C79.8515 33.8654 52.1543 1.29291 52.1543 1.29291Z" fill="#DD2C00"/>
<g filter="url(#filter0_d_47_1194)">
<circle cx="100" cy="90" r="30" fill="white"/>
<path d="M97 78H88C86.35 78 85.015 79.35 85.015 81L85 99C85 100.65 86.35 102 88 102H112C113.65 102 115 100.65 115 99V84C115 82.35 113.65 81 112 81H100L97 78ZM99.175 95.565L103.999 90L110.5 97.5H91L95.875 91.5L99.175 95.565Z" fill="#1F1F1F"/>
</g>
<defs>
<filter id="filter0_d_47_1194" x="68" y="58.6704" width="64" height="64" filterUnits="userSpaceOnUse" color-interpolation-filters="sRGB">
<feFlood flood-opacity="0" result="BackgroundImageFix"/>
<feColorMatrix in="SourceAlpha" type="matrix" values="0 0 0 0 0 0 0 0 0 0 0 0 0 0 0 0 0 0 127 0" result="hardAlpha"/>
<feOffset dy="0.670408"/>
<feGaussianBlur stdDeviation="1"/>
<feComposite in2="hardAlpha" operator="out"/>
<feColorMatrix type="matrix" values="0 0 0 0 0 0 0 0 0 0 0 0 0 0 0 0 0 0 0.3 0"/>
<feBlend mode="normal" in2="BackgroundImageFix" result="effect1_dropShadow_47_1194"/>
<feBlend mode="normal" in="SourceGraphic" in2="effect1_dropShadow_47_1194" result="shape"/>
</filter>
</defs>
</svg>
