<svg width="765" height="128" viewBox="0 0 765 128" fill="none" xmlns="http://www.w3.org/2000/svg">
<path d="M537.418 100.872C531.228 100.872 525.528 99.3707 520.319 96.3677C515.11 93.3648 510.973 89.228 507.909 83.9575C504.845 78.687 503.313 72.8649 503.313 66.4912C503.313 60.1176 504.845 54.2955 507.909 49.0249C510.973 43.7544 515.11 39.6177 520.319 36.6147C525.528 33.6117 531.228 32.1102 537.418 32.1102C542.259 32.1102 546.794 32.9682 551.023 34.6842C555.313 36.4002 558.837 38.8209 561.595 41.9465L555.987 47.5541C553.903 44.9801 551.238 43.019 547.989 41.6707C544.741 40.2611 541.248 39.5564 537.51 39.5564C532.852 39.5564 528.501 40.6901 524.456 42.9577C520.472 45.164 517.255 48.3201 514.804 52.4263C512.413 56.4711 511.218 61.1594 511.218 66.4912C511.218 71.823 512.413 76.542 514.804 80.6481C517.255 84.6929 520.503 87.8491 524.548 90.1167C528.593 92.3229 532.913 93.4261 537.51 93.4261C541.922 93.4261 545.599 92.7519 548.541 91.4036C551.544 89.9941 554.118 88.1555 556.263 85.888C557.856 84.172 559.143 82.1189 560.124 79.7288C561.104 77.2774 561.717 74.5809 561.962 71.6392H537.602V64.3769H569.225C569.531 66.0929 569.684 67.6863 569.684 69.1571C569.684 73.2019 569.041 77.1548 567.754 81.0158C566.467 84.8155 564.414 88.1555 561.595 91.0359C555.528 97.5935 547.469 100.872 537.418 100.872ZM598.329 100.872C593.855 100.872 589.841 99.7997 586.286 97.6547C582.731 95.5098 579.943 92.5681 577.921 88.8297C575.959 85.03 574.979 80.7707 574.979 76.0517C574.979 71.5166 575.898 67.3492 577.737 63.5495C579.637 59.7498 582.302 56.7162 585.734 54.4487C589.166 52.1811 593.15 51.0473 597.685 51.0473C602.281 51.0473 606.265 52.0892 609.636 54.1729C613.006 56.1953 615.58 59.0144 617.358 62.6302C619.196 66.2461 620.115 70.3828 620.115 75.0405C620.115 75.9598 620.023 76.7565 619.84 77.4306H582.793C582.977 80.9852 583.835 83.9881 585.367 86.4395C586.899 88.891 588.829 90.7295 591.158 91.9552C593.548 93.1809 596.03 93.7938 598.604 93.7938C604.61 93.7938 609.237 90.9747 612.485 85.3364L619.104 88.5539C617.082 92.3536 614.324 95.3565 610.831 97.5628C607.399 99.7691 603.231 100.872 598.329 100.872ZM611.842 70.9957C611.719 69.0345 611.168 67.0734 610.187 65.1123C609.207 63.1512 607.644 61.4965 605.499 60.1482C603.415 58.7999 600.78 58.1258 597.593 58.1258C593.916 58.1258 590.79 59.3208 588.216 61.711C585.704 64.0398 584.049 67.1347 583.252 70.9957H611.842ZM627.422 52.5182H634.868V59.4128H635.235C636.522 57.0839 638.575 55.1228 641.395 53.5294C644.214 51.8747 647.217 51.0473 650.403 51.0473C656.042 51.0473 660.332 52.702 663.273 56.0114C666.276 59.2596 667.778 63.7027 667.778 69.341V99.4014H659.964V70.536C659.964 66.1848 658.922 63.0286 656.838 61.0675C654.755 59.1063 651.905 58.1258 648.289 58.1258C645.776 58.1258 643.509 58.8306 641.486 60.2401C639.525 61.6497 637.993 63.5189 636.89 65.8477C635.787 68.1153 635.235 70.5054 635.235 73.0181V99.4014H627.422V52.5182ZM677.113 33.5811H684.927V74.9486L706.989 52.5182H716.918V52.8859L698.532 71.4553L717.377 99.0337V99.4014H708.092L693.016 76.8791L684.927 84.9687V99.4014H677.113V33.5811ZM726.283 43.877C724.751 43.877 723.434 43.3254 722.331 42.2223C721.227 41.1191 720.676 39.8015 720.676 38.2694C720.676 36.7372 721.227 35.4503 722.331 34.4084C723.434 33.3053 724.751 32.7537 726.283 32.7537C727.816 32.7537 729.133 33.3053 730.236 34.4084C731.339 35.4503 731.891 36.7372 731.891 38.2694C731.891 39.8015 731.339 41.1191 730.236 42.2223C729.194 43.3254 727.877 43.877 726.283 43.877ZM722.422 52.5182H730.144V99.4014H722.422V52.5182ZM758.155 100.137C756.255 100.137 754.478 99.8304 752.823 99.2175C751.23 98.6047 749.882 97.7773 748.778 96.7355C747.553 95.571 746.633 94.2228 746.021 92.6906C745.408 91.1585 745.101 89.2893 745.101 87.083V59.5966H736.92V52.5182H745.101V39.2806H752.915V52.5182H764.314V59.5966H752.915V85.1526C752.915 87.7265 753.405 89.6264 754.386 90.8521C755.55 92.2004 757.236 92.8745 759.442 92.8745C761.219 92.8745 762.935 92.3536 764.59 91.3117V98.9417C763.671 99.3707 762.721 99.6772 761.74 99.861C760.821 100.045 759.626 100.137 758.155 100.137Z" fill="white"/>
<path d="M461.612 99.8663C457.157 99.8663 453.13 98.829 449.531 96.7545C445.992 94.6799 443.215 91.8122 441.202 88.1513C439.188 84.4293 438.182 80.2803 438.182 75.7041C438.182 71.311 439.127 67.284 441.019 63.6231C442.971 59.9011 445.687 56.9724 449.164 54.8368C452.642 52.6403 456.608 51.542 461.062 51.542C465.639 51.542 469.605 52.5487 472.96 54.5623C476.377 56.5758 478.97 59.3825 480.74 62.9824C482.509 66.5213 483.394 70.6093 483.394 75.2465C483.394 75.7956 483.364 76.3448 483.303 76.8939C483.242 77.4431 483.211 77.7481 483.211 77.8092H448.249C448.554 81.9582 450.049 85.1615 452.734 87.4191C455.419 89.6767 458.469 90.8055 461.886 90.8055C467.133 90.8055 471.161 88.3648 473.967 83.4836L482.57 87.6021C480.557 91.3241 477.75 94.3138 474.15 96.5714C470.611 98.768 466.432 99.8663 461.612 99.8663ZM473.144 70.1212C473.021 68.6568 472.533 67.162 471.679 65.6366C470.825 64.1112 469.483 62.8299 467.652 61.7926C465.883 60.6943 463.656 60.1452 460.971 60.1452C457.981 60.1452 455.388 61.0604 453.191 62.8909C451.056 64.7213 449.592 67.1314 448.798 70.1212H473.144Z" fill="white"/>
<path d="M416.087 99.8663C410.9 99.8663 406.599 98.6765 403.182 96.2968C399.826 93.8562 397.446 90.8055 396.043 87.1445L405.012 83.3006C406.05 85.8022 407.544 87.6937 409.497 88.975C411.51 90.2563 413.707 90.897 416.087 90.897C418.588 90.897 420.632 90.4394 422.219 89.5241C423.805 88.5479 424.598 87.2971 424.598 85.7717C424.598 84.3073 423.958 83.1175 422.676 82.2023C421.395 81.226 419.29 80.3718 416.361 79.6396L410.138 78.1752C406.721 77.382 403.761 75.9177 401.26 73.7821C398.819 71.5856 397.599 68.7484 397.599 65.2705C397.599 61.0604 399.338 57.7351 402.816 55.2944C406.294 52.7928 410.565 51.542 415.629 51.542C419.839 51.542 423.561 52.4267 426.795 54.1962C430.09 55.9656 432.469 58.5283 433.934 61.8841L425.056 65.6366C424.202 63.7451 422.89 62.3417 421.12 61.4265C419.351 60.5113 417.429 60.0537 415.354 60.0537C413.341 60.0537 411.571 60.5113 410.046 61.4265C408.521 62.2807 407.758 63.44 407.758 64.9044C407.758 66.1857 408.277 67.223 409.314 68.0162C410.412 68.8094 412.121 69.4805 414.439 70.0297L421.212 71.6771C425.788 72.8364 429.205 74.6058 431.462 76.9854C433.72 79.304 434.849 82.1107 434.849 85.4056C434.849 88.0903 434.025 90.5309 432.378 92.7274C430.791 94.924 428.564 96.6629 425.696 97.9443C422.89 99.2256 419.686 99.8663 416.087 99.8663Z" fill="white"/>
<path d="M367.921 99.8663C364.688 99.8663 361.759 99.2256 359.135 97.9443C356.573 96.6019 354.529 94.7715 353.003 92.4529C351.539 90.0733 350.807 87.3886 350.807 84.3988C350.807 79.6396 352.576 75.8872 356.115 73.1415C359.715 70.3958 364.261 69.0229 369.752 69.0229C374.572 69.0229 378.691 69.8466 382.108 71.4941V69.5721C382.108 66.8264 381.009 64.5688 378.813 62.7993C376.677 60.9689 374.084 60.0537 371.033 60.0537C366.396 60.0537 362.674 61.9451 359.867 65.7281L352.18 60.4197C354.315 57.552 356.969 55.3555 360.142 53.8301C363.376 52.3047 367.006 51.542 371.033 51.542C377.684 51.542 382.809 53.2199 386.409 56.5758C390.07 59.8706 391.901 64.5383 391.901 70.5788V98.4019H382.108V92.819H381.558C380.094 94.8935 378.233 96.6019 375.976 97.9443C373.718 99.2256 371.033 99.8663 367.921 99.8663ZM369.569 91.5376C371.826 91.5376 373.901 90.9885 375.792 89.8902C377.745 88.7309 379.27 87.236 380.369 85.4056C381.528 83.5141 382.108 81.5006 382.108 79.3651C378.874 77.5956 375.426 76.7109 371.765 76.7109C368.41 76.7109 365.786 77.4431 363.894 78.9074C362.003 80.3718 361.057 82.2328 361.057 84.4904C361.057 86.5649 361.881 88.2733 363.528 89.6157C365.237 90.897 367.25 91.5376 369.569 91.5376Z" fill="white"/>
<path d="M325.684 99.8661C322.389 99.8661 319.43 99.1644 316.806 97.7611C314.244 96.3577 312.322 94.5882 311.04 92.4527H310.491V98.4017H300.973V32.8711H311.04V52.5486L310.491 58.8637H311.04C312.322 56.7892 314.244 55.0502 316.806 53.6469C319.43 52.2435 322.389 51.5418 325.684 51.5418C329.589 51.5418 333.189 52.5791 336.484 54.6536C339.84 56.7281 342.494 59.6264 344.446 63.3483C346.46 67.0093 347.466 71.1278 347.466 75.704C347.466 80.2801 346.46 84.3987 344.446 88.0596C342.494 91.7205 339.84 94.6188 336.484 96.7543C333.189 98.8288 329.589 99.8661 325.684 99.8661ZM323.945 90.6222C326.325 90.6222 328.521 90.0121 330.535 88.7918C332.609 87.5715 334.257 85.8325 335.477 83.575C336.758 81.2564 337.399 78.6327 337.399 75.704C337.399 72.7752 336.758 70.1821 335.477 67.9245C334.257 65.6059 332.609 63.8364 330.535 62.6161C328.521 61.3958 326.325 60.7857 323.945 60.7857C321.565 60.7857 319.338 61.3958 317.264 62.6161C315.25 63.8364 313.603 65.5754 312.322 67.833C311.101 70.0905 310.491 72.7142 310.491 75.704C310.491 78.6937 311.101 81.3174 312.322 83.575C313.603 85.8325 315.25 87.5715 317.264 88.7918C319.338 90.0121 321.565 90.6222 323.945 90.6222Z" fill="white"/>
<path d="M273.192 99.8667C268.738 99.8667 264.711 98.8295 261.111 96.7549C257.572 94.6804 254.795 91.8127 252.782 88.1518C250.768 84.4298 249.762 80.2808 249.762 75.7046C249.762 71.3115 250.707 67.2845 252.599 63.6235C254.551 59.9016 257.267 56.9729 260.745 54.8373C264.222 52.6408 268.188 51.5425 272.643 51.5425C277.219 51.5425 281.185 52.5492 284.541 54.5627C287.957 56.5763 290.551 59.383 292.32 62.9829C294.089 66.5218 294.974 70.6098 294.974 75.247C294.974 75.7961 294.944 76.3453 294.883 76.8944C294.822 77.4436 294.791 77.7486 294.791 77.8096H259.829C260.134 81.9587 261.629 85.162 264.314 87.4196C266.999 89.6772 270.049 90.8059 273.466 90.8059C278.714 90.8059 282.741 88.3653 285.547 83.4841L294.15 87.6026C292.137 91.3246 289.33 94.3143 285.73 96.5719C282.191 98.7685 278.012 99.8667 273.192 99.8667ZM284.724 70.1217C284.602 68.6573 284.113 67.1624 283.259 65.6371C282.405 64.1117 281.063 62.8303 279.232 61.7931C277.463 60.6948 275.236 60.1457 272.551 60.1457C269.561 60.1457 266.968 61.0609 264.772 62.8914C262.636 64.7218 261.172 67.1319 260.378 70.1217H284.724Z" fill="white"/>
<path d="M221.822 53.0066H231.341V59.7794H231.89C232.866 57.4608 234.636 55.5388 237.198 54.0134C239.761 52.427 242.384 51.6338 245.069 51.6338C247.266 51.6338 249.066 51.9389 250.469 52.549V63.0742C248.395 62.0369 246.076 61.5183 243.513 61.5183C240.218 61.5183 237.442 62.7996 235.185 65.3623C232.988 67.8639 231.89 70.9452 231.89 74.6061V98.4022H221.822V53.0066Z" fill="white"/>
<path d="M207.452 45.3184C205.561 45.3184 203.944 44.6777 202.602 43.3964C201.32 42.0541 200.68 40.4371 200.68 38.5457C200.68 36.6542 201.32 35.0678 202.602 33.7865C203.944 32.4441 205.561 31.7729 207.452 31.7729C209.344 31.7729 210.93 32.4441 212.212 33.7865C213.554 35.0678 214.225 36.6542 214.225 38.5457C214.225 40.4371 213.554 42.0541 212.212 43.3964C210.93 44.6777 209.344 45.3184 207.452 45.3184ZM202.419 53.0063H212.486V98.4018H202.419V53.0063Z" fill="white"/>
<path d="M156.562 32.8711H196.375V42.6641H166.813V61.5179H193.446V71.2193H166.813V98.4017H156.562V32.8711Z" fill="white"/>
<path d="M31.6562 118.567C36.7084 120.601 42.1896 121.807 47.9447 122.008C55.7335 122.28 63.1403 120.67 69.7616 117.611C61.8214 114.492 54.6303 109.929 48.4929 104.257C44.5147 110.627 38.6305 115.658 31.6562 118.567Z" fill="#FF9100"/>
<path d="M48.4923 104.259C34.4827 91.302 25.9838 72.5484 26.7021 51.979C26.7254 51.311 26.7607 50.6435 26.8019 49.9762C24.2928 49.3273 21.6734 48.9313 18.9777 48.8371C15.1191 48.7024 11.3823 49.181 7.85452 50.1744C4.11472 56.7255 1.85787 64.242 1.57672 72.2932C0.851127 93.0713 13.4253 111.227 31.6556 118.569C38.63 115.66 44.5139 110.635 48.4923 104.259Z" fill="#FFC400"/>
<path d="M48.4937 104.258C51.7509 99.0459 53.7258 92.9348 53.9557 86.3506C54.5605 69.0316 42.9175 54.133 26.8033 49.9757C26.762 50.643 26.7268 51.3105 26.7035 51.9785C25.9852 72.5479 34.484 91.3015 48.4937 104.258Z" fill="#FF9100"/>
<path d="M52.1543 1.29291C42.9766 8.64534 35.7294 18.3402 31.3447 29.5084C28.8344 35.9054 27.2569 42.7768 26.7964 49.9798C42.9106 54.1372 54.5536 69.0358 53.9488 86.3548C53.7189 92.939 51.7382 99.044 48.4868 104.263C54.6239 109.941 61.8153 114.497 69.7555 117.616C85.693 110.249 97.0006 94.3967 97.6554 75.6462C98.0796 63.4978 93.4121 52.6704 86.8167 43.5311C79.8515 33.8654 52.1543 1.29291 52.1543 1.29291Z" fill="#DD2C00"/>
<g filter="url(#filter0_d_47_1171)">
<circle cx="100" cy="90" r="30" fill="white"/>
<path fill-rule="evenodd" clip-rule="evenodd" d="M86.6667 99.5002C86.1389 99.1946 85.7292 98.7918 85.4375 98.2918C85.1458 97.7918 85 97.2363 85 96.6252V83.3752C85 82.7641 85.1458 82.2085 85.4375 81.7085C85.7292 81.2085 86.1389 80.8057 86.6667 80.5002L98.3333 73.7918C98.8611 73.4863 99.4167 73.3335 100 73.3335C100.583 73.3335 101.139 73.4863 101.667 73.7918L113.333 80.5002C113.861 80.8057 114.271 81.2085 114.563 81.7085C114.854 82.2085 115 82.7641 115 83.3752V96.6252C115 97.2363 114.854 97.7918 114.563 98.2918C114.271 98.7918 113.861 99.1946 113.333 99.5002L101.667 106.208C101.139 106.514 100.583 106.667 100 106.667C99.4167 106.667 98.8611 106.514 98.3333 106.208L86.6667 99.5002ZM88 96.6658V83.2924L100 76.5002L112 83.2502V96.6658L100 103.5L88 96.6658ZM97.3818 92.6183C99.1273 94.3638 100 96.4911 100 99.0002C100 96.4911 100.873 94.3638 102.618 92.6183C104.364 90.8729 106.491 90.0002 109 90.0002C106.491 90.0002 104.364 89.1274 102.618 87.382C100.873 85.6365 100 83.5093 100 81.0002C100 83.5093 99.1273 85.6365 97.3818 87.382C95.6364 89.1274 93.5091 90.0002 91 90.0002C93.5091 90.0002 95.6364 90.8729 97.3818 92.6183Z" fill="#1F1F1F"/>
</g>
<defs>
<filter id="filter0_d_47_1171" x="68" y="58.6704" width="64" height="64" filterUnits="userSpaceOnUse" color-interpolation-filters="sRGB">
<feFlood flood-opacity="0" result="BackgroundImageFix"/>
<feColorMatrix in="SourceAlpha" type="matrix" values="0 0 0 0 0 0 0 0 0 0 0 0 0 0 0 0 0 0 127 0" result="hardAlpha"/>
<feOffset dy="0.670408"/>
<feGaussianBlur stdDeviation="1"/>
<feComposite in2="hardAlpha" operator="out"/>
<feColorMatrix type="matrix" values="0 0 0 0 0 0 0 0 0 0 0 0 0 0 0 0 0 0 0.3 0"/>
<feBlend mode="normal" in2="BackgroundImageFix" result="effect1_dropShadow_47_1171"/>
<feBlend mode="normal" in="SourceGraphic" in2="effect1_dropShadow_47_1171" result="shape"/>
</filter>
</defs>
</svg>
