<svg width="1143" height="128" viewBox="0 0 1143 128" fill="none" xmlns="http://www.w3.org/2000/svg">
<path d="M525.467 33.5813H534.292L559.297 99.4016H550.747L544.128 81.2918H515.723L509.104 99.4016H500.555L525.467 33.5813ZM541.463 73.9376L532.729 50.2202L530.064 43.1418H529.696L527.122 50.2202L518.389 73.9376H541.463ZM564.705 52.5184H572.151V59.5049H572.518C573.928 57.1148 576.042 55.1231 578.861 53.5296C581.742 51.8749 584.959 51.0476 588.514 51.0476C592.681 51.0476 596.481 52.1201 599.913 54.2651C603.345 56.41 606.041 59.3824 608.003 63.1821C609.964 66.9817 610.944 71.2411 610.944 75.96C610.944 80.7403 609.964 85.0302 608.003 88.8299C606.041 92.5683 603.345 95.51 599.913 97.655C596.481 99.8 592.681 100.872 588.514 100.872C584.959 100.872 581.742 100.076 578.861 98.4823C576.042 96.8276 573.928 94.8359 572.518 92.507H572.151L572.518 98.942V119.258H564.705V52.5184ZM587.595 93.794C590.291 93.794 592.834 93.0586 595.225 91.5877C597.615 90.1169 599.515 88.0332 600.924 85.3367C602.395 82.5788 603.13 79.4533 603.13 75.96C603.13 72.4668 602.395 69.3719 600.924 66.6753C599.515 63.9175 597.615 61.8031 595.225 60.3323C592.834 58.8614 590.291 58.126 587.595 58.126C584.898 58.126 582.355 58.8614 579.965 60.3323C577.574 61.8031 575.675 63.8868 574.265 66.5834C572.855 69.2799 572.151 72.4055 572.151 75.96C572.151 79.5146 572.855 82.6401 574.265 85.3367C575.675 88.0332 577.574 90.1169 579.965 91.5877C582.355 93.0586 584.898 93.794 587.595 93.794ZM616.909 52.5184H624.356V59.5049H624.723C626.133 57.1148 628.247 55.1231 631.066 53.5296C633.947 51.8749 637.164 51.0476 640.719 51.0476C644.886 51.0476 648.686 52.1201 652.118 54.2651C655.55 56.41 658.246 59.3824 660.207 63.1821C662.169 66.9817 663.149 71.2411 663.149 75.96C663.149 80.7403 662.169 85.0302 660.207 88.8299C658.246 92.5683 655.55 95.51 652.118 97.655C648.686 99.8 644.886 100.872 640.719 100.872C637.164 100.872 633.947 100.076 631.066 98.4823C628.247 96.8276 626.133 94.8359 624.723 92.507H624.356L624.723 98.942V119.258H616.909V52.5184ZM639.799 93.794C642.496 93.794 645.039 93.0586 647.429 91.5877C649.82 90.1169 651.719 88.0332 653.129 85.3367C654.6 82.5788 655.335 79.4533 655.335 75.96C655.335 72.4668 654.6 69.3719 653.129 66.6753C651.719 63.9175 649.82 61.8031 647.429 60.3323C645.039 58.8614 642.496 58.126 639.799 58.126C637.103 58.126 634.56 58.8614 632.169 60.3323C629.779 61.8031 627.879 63.8868 626.47 66.5834C625.06 69.2799 624.356 72.4055 624.356 75.96C624.356 79.5146 625.06 82.6401 626.47 85.3367C627.879 88.0332 629.779 90.1169 632.169 91.5877C634.56 93.0586 637.103 93.794 639.799 93.794ZM691.47 33.5813H711.326C718.068 33.5813 723.951 34.9909 728.977 37.81C734.002 40.5678 737.863 44.4288 740.56 49.3929C743.256 54.357 744.604 60.0565 744.604 66.4915C744.604 72.9264 743.256 78.6259 740.56 83.59C737.863 88.5541 734.002 92.4457 728.977 95.2649C723.951 98.0227 718.068 99.4016 711.326 99.4016H691.47V33.5813ZM711.326 91.9555C719.11 91.9555 725.269 89.7185 729.804 85.2447C734.4 80.7709 736.699 74.5198 736.699 66.4915C736.699 58.4631 734.4 52.212 729.804 47.7382C725.269 43.2644 719.11 41.0275 711.326 41.0275H699.192V91.9555H711.326ZM757.302 43.8772C755.77 43.8772 754.452 43.3256 753.349 42.2225C752.246 41.1194 751.694 39.8017 751.694 38.2696C751.694 36.7375 752.246 35.4505 753.349 34.4087C754.452 33.3055 755.77 32.754 757.302 32.754C758.834 32.754 760.152 33.3055 761.255 34.4087C762.358 35.4505 762.909 36.7375 762.909 38.2696C762.909 39.8017 762.358 41.1194 761.255 42.2225C760.213 43.3256 758.895 43.8772 757.302 43.8772ZM753.441 52.5184H761.163V99.4016H753.441V52.5184ZM787.968 100.872C782.942 100.872 778.744 99.708 775.374 97.3792C772.003 94.9891 769.613 91.9555 768.203 88.2783L775.19 85.1528C776.354 87.9719 778.07 90.1475 780.338 91.6797C782.667 93.2118 785.21 93.9779 787.968 93.9779C790.909 93.9779 793.422 93.3957 795.506 92.2312C797.589 91.0055 798.631 89.2896 798.631 87.0833C798.631 85.1222 797.804 83.5594 796.149 82.395C794.495 81.1693 791.89 80.1274 788.335 79.2694L782.636 77.7986C778.897 76.8793 775.833 75.3165 773.443 73.1103C771.053 70.904 769.858 68.0542 769.858 64.561C769.858 61.8644 770.655 59.5049 772.248 57.4825C773.903 55.3988 776.078 53.8054 778.775 52.7023C781.471 51.5992 784.382 51.0476 787.508 51.0476C791.614 51.0476 795.261 51.9362 798.447 53.7135C801.696 55.4908 803.994 57.9728 805.342 61.1596L798.539 64.2852C796.456 60.1178 792.748 58.0341 787.416 58.0341C784.842 58.0341 782.575 58.647 780.613 59.8727C778.714 61.0371 777.764 62.5386 777.764 64.3771C777.764 66.0931 778.438 67.5027 779.786 68.6058C781.134 69.6476 783.157 70.5056 785.853 71.1798L792.656 72.9264C797.252 74.0908 800.715 75.8374 803.044 78.1663C805.373 80.4338 806.537 83.2223 806.537 86.5317C806.537 89.4121 805.71 91.9555 804.055 94.1617C802.4 96.3067 800.163 97.9614 797.344 99.1258C794.525 100.29 791.4 100.872 787.968 100.872ZM830.785 100.137C828.885 100.137 827.108 99.8306 825.453 99.2178C823.86 98.6049 822.512 97.7776 821.409 96.7357C820.183 95.5713 819.264 94.223 818.651 92.6909C818.038 91.1588 817.731 89.2896 817.731 87.0833V59.5969H809.55V52.5184H817.731V39.2808H825.545V52.5184H836.944V59.5969H825.545V85.1528C825.545 87.7268 826.036 89.6266 827.016 90.8523C828.181 92.2006 829.866 92.8747 832.072 92.8747C833.849 92.8747 835.565 92.3538 837.22 91.312V98.942C836.301 99.371 835.351 99.6774 834.37 99.8613C833.451 100.045 832.256 100.137 830.785 100.137ZM844.594 52.5184H852.04V60.0565H852.408C853.327 57.4825 855.104 55.3682 857.739 53.7135C860.375 51.9975 863.133 51.1395 866.013 51.1395C868.158 51.1395 869.997 51.4459 871.529 52.0588V60.5161C869.568 59.5356 867.361 59.0453 864.91 59.0453C862.642 59.0453 860.559 59.6888 858.659 60.9758C856.759 62.2628 855.227 64.0094 854.062 66.2157C852.959 68.3607 852.408 70.6895 852.408 73.2022V99.4016H844.594V52.5184ZM881.825 43.8772C880.292 43.8772 878.975 43.3256 877.872 42.2225C876.769 41.1194 876.217 39.8017 876.217 38.2696C876.217 36.7375 876.769 35.4505 877.872 34.4087C878.975 33.3055 880.292 32.754 881.825 32.754C883.357 32.754 884.674 33.3055 885.777 34.4087C886.881 35.4505 887.432 36.7375 887.432 38.2696C887.432 39.8017 886.881 41.1194 885.777 42.2225C884.736 43.3256 883.418 43.8772 881.825 43.8772ZM877.964 52.5184H885.686V99.4016H877.964V52.5184ZM919.937 100.872C916.382 100.872 913.164 100.076 910.284 98.4823C907.465 96.8276 905.351 94.8359 903.941 92.507H903.573V99.4016H896.127V33.5813H903.941V52.9781L903.573 59.5049H903.941C905.351 57.1148 907.465 55.1231 910.284 53.5296C913.164 51.8749 916.382 51.0476 919.937 51.0476C924.104 51.0476 927.904 52.1201 931.336 54.2651C934.768 56.41 937.464 59.3824 939.425 63.1821C941.386 66.9817 942.367 71.2411 942.367 75.96C942.367 80.7403 941.386 85.0302 939.425 88.8299C937.464 92.5683 934.768 95.51 931.336 97.655C927.904 99.8 924.104 100.872 919.937 100.872ZM919.017 93.794C921.714 93.794 924.257 93.0586 926.647 91.5877C929.037 90.1169 930.937 88.0332 932.347 85.3367C933.818 82.5788 934.553 79.4533 934.553 75.96C934.553 72.4668 933.818 69.3719 932.347 66.6753C930.937 63.9175 929.037 61.8031 926.647 60.3323C924.257 58.8614 921.714 58.126 919.017 58.126C916.321 58.126 913.777 58.8614 911.387 60.3323C908.997 61.8031 907.097 63.8868 905.688 66.5834C904.278 69.2799 903.573 72.4055 903.573 75.96C903.573 79.5146 904.278 82.6401 905.688 85.3367C907.097 88.0332 908.997 90.1169 911.387 91.5877C913.777 93.0586 916.321 93.794 919.017 93.794ZM966.147 100.872C960.509 100.872 956.188 99.2178 953.185 95.9084C950.243 92.599 948.772 87.9719 948.772 82.0273V52.5184H956.586V80.8322C956.586 85.306 957.597 88.5848 959.62 90.6685C961.642 92.7522 964.369 93.794 967.801 93.794C970.437 93.794 972.766 93.0892 974.788 91.6797C976.872 90.2701 978.465 88.4316 979.568 86.164C980.733 83.8965 981.315 81.5063 981.315 78.9936V52.5184H989.129V99.4016H981.683V92.599H981.315C980.028 94.9278 977.975 96.8889 975.156 98.4823C972.337 100.076 969.334 100.872 966.147 100.872ZM1017.3 100.137C1015.4 100.137 1013.62 99.8306 1011.97 99.2178C1010.37 98.6049 1009.02 97.7776 1007.92 96.7357C1006.7 95.5713 1005.78 94.223 1005.16 92.6909C1004.55 91.1588 1004.24 89.2896 1004.24 87.0833V59.5969H996.063V52.5184H1004.24V39.2808H1012.06V52.5184H1023.46V59.5969H1012.06V85.1528C1012.06 87.7268 1012.55 89.6266 1013.53 90.8523C1014.69 92.2006 1016.38 92.8747 1018.59 92.8747C1020.36 92.8747 1022.08 92.3538 1023.73 91.312V98.942C1022.81 99.371 1021.86 99.6774 1020.88 99.8613C1019.96 100.045 1018.77 100.137 1017.3 100.137ZM1036.15 43.8772C1034.62 43.8772 1033.3 43.3256 1032.2 42.2225C1031.1 41.1194 1030.54 39.8017 1030.54 38.2696C1030.54 36.7375 1031.1 35.4505 1032.2 34.4087C1033.3 33.3055 1034.62 32.754 1036.15 32.754C1037.68 32.754 1039 33.3055 1040.1 34.4087C1041.21 35.4505 1041.76 36.7375 1041.76 38.2696C1041.76 39.8017 1041.21 41.1194 1040.1 42.2225C1039.06 43.3256 1037.75 43.8772 1036.15 43.8772ZM1032.29 52.5184H1040.01V99.4016H1032.29V52.5184ZM1071.61 100.872C1067.01 100.872 1062.88 99.7693 1059.2 97.5631C1055.52 95.3568 1052.64 92.3538 1050.56 88.5541C1048.53 84.7544 1047.52 80.5564 1047.52 75.96C1047.52 71.3636 1048.53 67.1656 1050.56 63.3659C1052.64 59.5662 1055.52 56.5633 1059.2 54.357C1062.88 52.1507 1067.01 51.0476 1071.61 51.0476C1076.21 51.0476 1080.34 52.1507 1084.02 54.357C1087.7 56.5633 1090.55 59.5662 1092.57 63.3659C1094.65 67.1656 1095.69 71.3636 1095.69 75.96C1095.69 80.5564 1094.65 84.7544 1092.57 88.5541C1090.55 92.3538 1087.7 95.3568 1084.02 97.5631C1080.34 99.7693 1076.21 100.872 1071.61 100.872ZM1071.61 93.794C1074.49 93.794 1077.16 93.0892 1079.61 91.6797C1082.12 90.2088 1084.11 88.1251 1085.58 85.4286C1087.11 82.732 1087.88 79.5758 1087.88 75.96C1087.88 72.3442 1087.11 69.188 1085.58 66.4915C1084.11 63.7949 1082.12 61.7419 1079.61 60.3323C1077.16 58.8614 1074.49 58.126 1071.61 58.126C1068.73 58.126 1066.03 58.8614 1063.52 60.3323C1061.01 61.7419 1058.98 63.7949 1057.45 66.4915C1055.98 69.188 1055.25 72.3442 1055.25 75.96C1055.25 79.5758 1055.98 82.732 1057.45 85.4286C1058.98 88.1251 1061.01 90.2088 1063.52 91.6797C1066.03 93.0892 1068.73 93.794 1071.61 93.794ZM1102.03 52.5184H1109.48V59.413H1109.85C1111.13 57.0842 1113.19 55.1231 1116 53.5296C1118.82 51.8749 1121.83 51.0476 1125.01 51.0476C1130.65 51.0476 1134.94 52.7023 1137.88 56.0117C1140.89 59.2598 1142.39 63.703 1142.39 69.3412V99.4016H1134.57V70.5363C1134.57 66.185 1133.53 63.0288 1131.45 61.0677C1129.36 59.1066 1126.51 58.126 1122.9 58.126C1120.39 58.126 1118.12 58.8308 1116.1 60.2404C1114.13 61.6499 1112.6 63.5191 1111.5 65.848C1110.4 68.1155 1109.85 70.5056 1109.85 73.0183V99.4016H1102.03V52.5184Z" fill="#5A5A5A"/>
<path d="M461.612 99.8665C457.157 99.8665 453.13 98.8292 449.531 96.7547C445.992 94.6802 443.215 91.8125 441.202 88.1515C439.188 84.4296 438.182 80.2805 438.182 75.7044C438.182 71.3113 439.127 67.2842 441.019 63.6233C442.971 59.9014 445.687 56.9726 449.164 54.8371C452.642 52.6405 456.608 51.5422 461.062 51.5422C465.639 51.5422 469.605 52.549 472.96 54.5625C476.377 56.576 478.97 59.3827 480.74 62.9826C482.509 66.5215 483.394 70.6096 483.394 75.2467C483.394 75.7959 483.364 76.345 483.303 76.8942C483.242 77.4433 483.211 77.7484 483.211 77.8094H448.249C448.554 81.9585 450.049 85.1618 452.734 87.4193C455.419 89.6769 458.469 90.8057 461.886 90.8057C467.133 90.8057 471.161 88.3651 473.967 83.4838L482.57 87.6024C480.557 91.3243 477.75 94.3141 474.15 96.5717C470.611 98.7682 466.432 99.8665 461.612 99.8665ZM473.144 70.1215C473.021 68.6571 472.533 67.1622 471.679 65.6368C470.825 64.1114 469.483 62.8301 467.652 61.7928C465.883 60.6946 463.656 60.1454 460.971 60.1454C457.981 60.1454 455.388 61.0607 453.191 62.8911C451.056 64.7216 449.592 67.1317 448.798 70.1215H473.144Z" fill="#5A5A5A"/>
<path d="M416.087 99.8665C410.9 99.8665 406.599 98.6767 403.182 96.2971C399.826 93.8565 397.446 90.8057 396.043 87.1448L405.012 83.3008C406.05 85.8024 407.544 87.6939 409.497 88.9752C411.51 90.2566 413.707 90.8972 416.087 90.8972C418.588 90.8972 420.632 90.4396 422.219 89.5244C423.805 88.5481 424.598 87.2973 424.598 85.7719C424.598 84.3076 423.958 83.1177 422.676 82.2025C421.395 81.2263 419.29 80.3721 416.361 79.6399L410.138 78.1755C406.721 77.3823 403.761 75.9179 401.26 73.7824C398.819 71.5858 397.599 68.7486 397.599 65.2707C397.599 61.0607 399.338 57.7353 402.816 55.2947C406.294 52.7931 410.565 51.5422 415.629 51.5422C419.839 51.5422 423.561 52.427 426.795 54.1964C430.09 55.9659 432.469 58.5285 433.934 61.8844L425.056 65.6368C424.202 63.7453 422.89 62.342 421.12 61.4267C419.351 60.5115 417.429 60.0539 415.354 60.0539C413.341 60.0539 411.571 60.5115 410.046 61.4267C408.521 62.281 407.758 63.4403 407.758 64.9046C407.758 66.186 408.277 67.2232 409.314 68.0164C410.412 68.8096 412.121 69.4808 414.439 70.0299L421.212 71.6773C425.788 72.8366 429.205 74.6061 431.462 76.9857C433.72 79.3043 434.849 82.111 434.849 85.4058C434.849 88.0905 434.025 90.5311 432.378 92.7277C430.791 94.9242 428.564 96.6632 425.696 97.9445C422.89 99.2258 419.686 99.8665 416.087 99.8665Z" fill="#5A5A5A"/>
<path d="M367.921 99.8665C364.688 99.8665 361.759 99.2258 359.135 97.9445C356.573 96.6022 354.529 94.7717 353.003 92.4531C351.539 90.0735 350.807 87.3888 350.807 84.3991C350.807 79.6399 352.576 75.8874 356.115 73.1417C359.715 70.396 364.261 69.0232 369.752 69.0232C374.572 69.0232 378.691 69.8469 382.108 71.4943V69.5723C382.108 66.8266 381.009 64.569 378.813 62.7996C376.677 60.9691 374.084 60.0539 371.033 60.0539C366.396 60.0539 362.674 61.9454 359.867 65.7283L352.18 60.42C354.315 57.5523 356.969 55.3557 360.142 53.8303C363.376 52.3049 367.006 51.5422 371.033 51.5422C377.684 51.5422 382.809 53.2202 386.409 56.576C390.07 59.8708 391.901 64.5385 391.901 70.5791V98.4021H382.108V92.8192H381.558C380.094 94.8937 378.233 96.6022 375.976 97.9445C373.718 99.2258 371.033 99.8665 367.921 99.8665ZM369.569 91.5379C371.826 91.5379 373.901 90.9887 375.792 89.8905C377.745 88.7312 379.27 87.2363 380.369 85.4058C381.528 83.5143 382.108 81.5008 382.108 79.3653C378.874 77.5958 375.426 76.7111 371.765 76.7111C368.41 76.7111 365.786 77.4433 363.894 78.9077C362.003 80.372 361.057 82.233 361.057 84.4906C361.057 86.5651 361.881 88.2736 363.528 89.6159C365.237 90.8972 367.25 91.5379 369.569 91.5379Z" fill="#5A5A5A"/>
<path d="M325.684 99.8661C322.389 99.8661 319.43 99.1644 316.806 97.7611C314.244 96.3577 312.322 94.5882 311.04 92.4527H310.491V98.4017H300.973V32.8711H311.04V52.5486L310.491 58.8637H311.04C312.322 56.7892 314.244 55.0502 316.806 53.6469C319.43 52.2435 322.389 51.5418 325.684 51.5418C329.589 51.5418 333.189 52.5791 336.484 54.6536C339.84 56.7281 342.494 59.6264 344.446 63.3483C346.46 67.0093 347.466 71.1278 347.466 75.704C347.466 80.2801 346.46 84.3987 344.446 88.0596C342.494 91.7205 339.84 94.6188 336.484 96.7543C333.189 98.8288 329.589 99.8661 325.684 99.8661ZM323.945 90.6222C326.325 90.6222 328.521 90.0121 330.535 88.7918C332.609 87.5715 334.257 85.8325 335.477 83.575C336.758 81.2564 337.399 78.6327 337.399 75.704C337.399 72.7752 336.758 70.1821 335.477 67.9245C334.257 65.6059 332.609 63.8364 330.535 62.6161C328.521 61.3958 326.325 60.7857 323.945 60.7857C321.565 60.7857 319.338 61.3958 317.264 62.6161C315.25 63.8364 313.603 65.5754 312.322 67.833C311.101 70.0905 310.491 72.7142 310.491 75.704C310.491 78.6937 311.101 81.3174 312.322 83.575C313.603 85.8325 315.25 87.5715 317.264 88.7918C319.338 90.0121 321.565 90.6222 323.945 90.6222Z" fill="#5A5A5A"/>
<path d="M273.192 99.8666C268.738 99.8666 264.711 98.8294 261.111 96.7548C257.572 94.6803 254.795 91.8126 252.782 88.1516C250.768 84.4297 249.762 80.2807 249.762 75.7045C249.762 71.3114 250.707 67.2844 252.599 63.6234C254.551 59.9015 257.267 56.9727 260.745 54.8372C264.222 52.6406 268.188 51.5424 272.643 51.5424C277.219 51.5424 281.185 52.5491 284.541 54.5626C287.957 56.5761 290.551 59.3828 292.32 62.9828C294.089 66.5217 294.974 70.6097 294.974 75.2469C294.974 75.796 294.944 76.3452 294.883 76.8943C294.822 77.4434 294.791 77.7485 294.791 77.8095H259.829C260.134 81.9586 261.629 85.1619 264.314 87.4195C266.999 89.677 270.049 90.8058 273.466 90.8058C278.714 90.8058 282.741 88.3652 285.547 83.484L294.15 87.6025C292.137 91.3245 289.33 94.3142 285.73 96.5718C282.191 98.7683 278.012 99.8666 273.192 99.8666ZM284.724 70.1216C284.602 68.6572 284.113 67.1623 283.259 65.6369C282.405 64.1115 281.063 62.8302 279.232 61.793C277.463 60.6947 275.236 60.1455 272.551 60.1455C269.561 60.1455 266.968 61.0608 264.772 62.8912C262.636 64.7217 261.172 67.1318 260.378 70.1216H284.724Z" fill="#5A5A5A"/>
<path d="M221.822 53.0066H231.341V59.7794H231.89C232.866 57.4608 234.636 55.5388 237.198 54.0134C239.761 52.427 242.384 51.6338 245.069 51.6338C247.266 51.6338 249.066 51.9389 250.469 52.549V63.0742C248.395 62.0369 246.076 61.5183 243.513 61.5183C240.218 61.5183 237.442 62.7996 235.185 65.3623C232.988 67.8639 231.89 70.9452 231.89 74.6061V98.4021H221.822V53.0066Z" fill="#5A5A5A"/>
<path d="M207.452 45.3184C205.561 45.3184 203.944 44.6777 202.602 43.3964C201.32 42.0541 200.68 40.4371 200.68 38.5457C200.68 36.6542 201.32 35.0678 202.602 33.7865C203.944 32.4441 205.561 31.7729 207.452 31.7729C209.344 31.7729 210.93 32.4441 212.212 33.7865C213.554 35.0678 214.225 36.6542 214.225 38.5457C214.225 40.4371 213.554 42.0541 212.212 43.3964C210.93 44.6777 209.344 45.3184 207.452 45.3184ZM202.419 53.0063H212.486V98.4018H202.419V53.0063Z" fill="#5A5A5A"/>
<path d="M156.562 32.8712H196.375V42.6642H166.813V61.518H193.446V71.2194H166.813V98.4018H156.562V32.8712Z" fill="#5A5A5A"/>
<path d="M31.6562 118.567C36.7084 120.601 42.1896 121.807 47.9447 122.008C55.7335 122.28 63.1403 120.67 69.7616 117.611C61.8214 114.492 54.6303 109.929 48.4929 104.257C44.5147 110.627 38.6305 115.658 31.6562 118.567Z" fill="#FF9100"/>
<path d="M48.4923 104.259C34.4827 91.302 25.9838 72.5484 26.7021 51.979C26.7254 51.311 26.7607 50.6435 26.8019 49.9762C24.2928 49.3273 21.6734 48.9313 18.9777 48.8371C15.1191 48.7024 11.3823 49.181 7.85452 50.1744C4.11472 56.7255 1.85787 64.242 1.57672 72.2932C0.851127 93.0713 13.4253 111.227 31.6556 118.569C38.63 115.66 44.5139 110.635 48.4923 104.259Z" fill="#FFC400"/>
<path d="M48.4937 104.258C51.7509 99.0459 53.7258 92.9348 53.9557 86.3506C54.5605 69.0316 42.9175 54.133 26.8033 49.9757C26.762 50.643 26.7268 51.3105 26.7035 51.9785C25.9852 72.5479 34.484 91.3015 48.4937 104.258Z" fill="#FF9100"/>
<path d="M52.1543 1.29291C42.9766 8.64534 35.7294 18.3402 31.3447 29.5084C28.8344 35.9054 27.2569 42.7768 26.7964 49.9798C42.9106 54.1372 54.5536 69.0358 53.9488 86.3548C53.7189 92.939 51.7382 99.044 48.4868 104.263C54.6239 109.941 61.8153 114.497 69.7555 117.616C85.693 110.249 97.0006 94.3967 97.6554 75.6462C98.0796 63.4978 93.4121 52.6704 86.8167 43.5311C79.8515 33.8654 52.1543 1.29291 52.1543 1.29291Z" fill="#DD2C00"/>
<g filter="url(#filter0_d_47_1007)">
<circle cx="100" cy="90" r="30" fill="white"/>
<path fill-rule="evenodd" clip-rule="evenodd" d="M90.2496 100.5C89.007 100.5 87.9996 99.4927 87.9996 98.25C87.9996 97.0074 89.007 96 90.2496 96H91.7496C92.9923 96 93.9996 94.9927 93.9996 93.75C93.9996 92.5074 92.9923 91.5 91.7496 91.5H88.7496C87.507 91.5 86.4996 90.4927 86.4996 89.25C86.4996 88.0074 87.507 87 88.7496 87H93.9996C94.8281 87 95.4996 86.3285 95.4996 85.5C95.4996 84.6716 94.8281 84 93.9996 84C92.757 84 91.7496 82.9927 91.7496 81.75C91.7496 80.5074 92.757 79.5 93.9996 79.5H116.455C117.395 79.5 118.108 80.382 117.946 81.3465L114.946 99.1965C114.834 99.9372 114.204 100.489 113.455 100.5H90.2496ZM96.7673 97.5H112.198L114.712 82.5H99.2498L96.7673 97.5ZM110.292 95.2499H99.4205L101.157 84.7499H112.053L110.292 95.2499ZM84.2498 100.5C83.0072 100.5 81.9998 99.4925 81.9998 98.2499C81.9998 97.0073 83.0072 95.9999 84.2498 95.9999C85.4925 95.9999 86.4998 97.0073 86.4998 98.2499C86.4998 99.4925 85.4925 100.5 84.2498 100.5Z" fill="#1F1F1F"/>
</g>
<defs>
<filter id="filter0_d_47_1007" x="68" y="58.6704" width="64" height="64" filterUnits="userSpaceOnUse" color-interpolation-filters="sRGB">
<feFlood flood-opacity="0" result="BackgroundImageFix"/>
<feColorMatrix in="SourceAlpha" type="matrix" values="0 0 0 0 0 0 0 0 0 0 0 0 0 0 0 0 0 0 127 0" result="hardAlpha"/>
<feOffset dy="0.670408"/>
<feGaussianBlur stdDeviation="1"/>
<feComposite in2="hardAlpha" operator="out"/>
<feColorMatrix type="matrix" values="0 0 0 0 0 0 0 0 0 0 0 0 0 0 0 0 0 0 0.3 0"/>
<feBlend mode="normal" in2="BackgroundImageFix" result="effect1_dropShadow_47_1007"/>
<feBlend mode="normal" in="SourceGraphic" in2="effect1_dropShadow_47_1007" result="shape"/>
</filter>
</defs>
</svg>
