<svg width="765" height="128" viewBox="0 0 765 128" fill="none" xmlns="http://www.w3.org/2000/svg">
<path d="M537.418 100.872C531.228 100.872 525.528 99.371 520.319 96.368C515.11 93.365 510.973 89.2283 507.909 83.9577C504.845 78.6872 503.313 72.8651 503.313 66.4915C503.313 60.1178 504.845 54.2957 507.909 49.0252C510.973 43.7546 515.11 39.6179 520.319 36.6149C525.528 33.6119 531.228 32.1105 537.418 32.1105C542.259 32.1105 546.794 32.9684 551.023 34.6844C555.313 36.4004 558.837 38.8212 561.595 41.9467L555.987 47.5543C553.903 44.9804 551.238 43.0192 547.989 41.6709C544.741 40.2614 541.248 39.5566 537.51 39.5566C532.852 39.5566 528.501 40.6904 524.456 42.9579C520.472 45.1642 517.255 48.3204 514.804 52.4265C512.413 56.4713 511.218 61.1596 511.218 66.4915C511.218 71.8233 512.413 76.5422 514.804 80.6483C517.255 84.6932 520.503 87.8493 524.548 90.1169C528.593 92.3232 532.913 93.4263 537.51 93.4263C541.922 93.4263 545.599 92.7522 548.541 91.4039C551.544 89.9943 554.118 88.1558 556.263 85.8882C557.856 84.1722 559.143 82.1192 560.124 79.7291C561.104 77.2777 561.717 74.5811 561.962 71.6394H537.602V64.3771H569.225C569.531 66.0931 569.684 67.6865 569.684 69.1574C569.684 73.2022 569.041 77.1551 567.754 81.0161C566.467 84.8157 564.414 88.1558 561.595 91.0362C555.528 97.5937 547.469 100.872 537.418 100.872ZM598.329 100.872C593.855 100.872 589.841 99.8 586.286 97.655C582.731 95.51 579.943 92.5683 577.921 88.8299C575.959 85.0302 574.979 80.7709 574.979 76.0519C574.979 71.5168 575.898 67.3494 577.737 63.5498C579.637 59.7501 582.302 56.7165 585.734 54.4489C589.166 52.1814 593.15 51.0476 597.685 51.0476C602.281 51.0476 606.265 52.0894 609.636 54.1731C613.006 56.1955 615.58 59.0147 617.358 62.6305C619.196 66.2463 620.115 70.3831 620.115 75.0407C620.115 75.96 620.023 76.7567 619.84 77.4309H582.793C582.977 80.9854 583.835 83.9884 585.367 86.4398C586.899 88.8912 588.829 90.7298 591.158 91.9555C593.548 93.1812 596.03 93.794 598.604 93.794C604.61 93.794 609.237 90.9749 612.485 85.3367L619.104 88.5541C617.082 92.3538 614.324 95.3568 610.831 97.5631C607.399 99.7693 603.231 100.872 598.329 100.872ZM611.842 70.9959C611.719 69.0348 611.168 67.0737 610.187 65.1125C609.207 63.1514 607.644 61.4967 605.499 60.1484C603.415 58.8002 600.78 58.126 597.593 58.126C593.916 58.126 590.79 59.3211 588.216 61.7112C585.704 64.04 584.049 67.135 583.252 70.9959H611.842ZM627.422 52.5184H634.868V59.413H635.235C636.522 57.0842 638.575 55.1231 641.395 53.5296C644.214 51.8749 647.217 51.0476 650.403 51.0476C656.042 51.0476 660.332 52.7023 663.273 56.0117C666.276 59.2598 667.778 63.703 667.778 69.3412V99.4016H659.964V70.5363C659.964 66.185 658.922 63.0288 656.838 61.0677C654.755 59.1066 651.905 58.126 648.289 58.126C645.776 58.126 643.509 58.8308 641.486 60.2404C639.525 61.6499 637.993 63.5191 636.89 65.848C635.787 68.1155 635.235 70.5056 635.235 73.0183V99.4016H627.422V52.5184ZM677.113 33.5813H684.927V74.9488L706.989 52.5184H716.918V52.8861L698.532 71.4556L717.377 99.0339V99.4016H708.092L693.016 76.8793L684.927 84.9689V99.4016H677.113V33.5813ZM726.283 43.8772C724.751 43.8772 723.434 43.3256 722.331 42.2225C721.227 41.1194 720.676 39.8017 720.676 38.2696C720.676 36.7375 721.227 35.4505 722.331 34.4087C723.434 33.3055 724.751 32.754 726.283 32.754C727.816 32.754 729.133 33.3055 730.236 34.4087C731.339 35.4505 731.891 36.7375 731.891 38.2696C731.891 39.8017 731.339 41.1194 730.236 42.2225C729.194 43.3256 727.877 43.8772 726.283 43.8772ZM722.422 52.5184H730.144V99.4016H722.422V52.5184ZM758.155 100.137C756.255 100.137 754.478 99.8306 752.823 99.2178C751.23 98.6049 749.882 97.7776 748.778 96.7357C747.553 95.5713 746.633 94.223 746.021 92.6909C745.408 91.1588 745.101 89.2896 745.101 87.0833V59.5969H736.92V52.5184H745.101V39.2808H752.915V52.5184H764.314V59.5969H752.915V85.1528C752.915 87.7268 753.405 89.6266 754.386 90.8523C755.55 92.2006 757.236 92.8747 759.442 92.8747C761.219 92.8747 762.935 92.3538 764.59 91.312V98.942C763.671 99.371 762.721 99.6774 761.74 99.8613C760.821 100.045 759.626 100.137 758.155 100.137Z" fill="#5A5A5A"/>
<path d="M461.612 99.8665C457.157 99.8665 453.13 98.8292 449.531 96.7547C445.992 94.6802 443.215 91.8125 441.202 88.1515C439.188 84.4296 438.182 80.2805 438.182 75.7044C438.182 71.3113 439.127 67.2842 441.019 63.6233C442.971 59.9014 445.687 56.9726 449.164 54.8371C452.642 52.6405 456.608 51.5422 461.062 51.5422C465.639 51.5422 469.605 52.549 472.96 54.5625C476.377 56.576 478.97 59.3827 480.74 62.9826C482.509 66.5215 483.394 70.6096 483.394 75.2467C483.394 75.7959 483.364 76.345 483.303 76.8942C483.242 77.4433 483.211 77.7484 483.211 77.8094H448.249C448.554 81.9585 450.049 85.1618 452.734 87.4193C455.419 89.6769 458.469 90.8057 461.886 90.8057C467.133 90.8057 471.161 88.3651 473.967 83.4838L482.57 87.6024C480.557 91.3243 477.75 94.3141 474.15 96.5717C470.611 98.7682 466.432 99.8665 461.612 99.8665ZM473.144 70.1215C473.021 68.6571 472.533 67.1622 471.679 65.6368C470.825 64.1114 469.483 62.8301 467.652 61.7928C465.883 60.6946 463.656 60.1454 460.971 60.1454C457.981 60.1454 455.388 61.0607 453.191 62.8911C451.056 64.7216 449.592 67.1317 448.798 70.1215H473.144Z" fill="#5A5A5A"/>
<path d="M416.087 99.8665C410.9 99.8665 406.599 98.6767 403.182 96.2971C399.826 93.8565 397.446 90.8057 396.043 87.1448L405.012 83.3008C406.05 85.8024 407.544 87.6939 409.497 88.9752C411.51 90.2566 413.707 90.8972 416.087 90.8972C418.588 90.8972 420.632 90.4396 422.219 89.5244C423.805 88.5481 424.598 87.2973 424.598 85.7719C424.598 84.3076 423.958 83.1177 422.676 82.2025C421.395 81.2263 419.29 80.3721 416.361 79.6399L410.138 78.1755C406.721 77.3823 403.761 75.9179 401.26 73.7824C398.819 71.5858 397.599 68.7486 397.599 65.2707C397.599 61.0607 399.338 57.7353 402.816 55.2947C406.294 52.7931 410.565 51.5422 415.629 51.5422C419.839 51.5422 423.561 52.427 426.795 54.1964C430.09 55.9659 432.469 58.5285 433.934 61.8844L425.056 65.6368C424.202 63.7453 422.89 62.342 421.12 61.4267C419.351 60.5115 417.429 60.0539 415.354 60.0539C413.341 60.0539 411.571 60.5115 410.046 61.4267C408.521 62.281 407.758 63.4403 407.758 64.9046C407.758 66.186 408.277 67.2232 409.314 68.0164C410.412 68.8096 412.121 69.4808 414.439 70.0299L421.212 71.6773C425.788 72.8366 429.205 74.6061 431.462 76.9857C433.72 79.3043 434.849 82.111 434.849 85.4058C434.849 88.0905 434.025 90.5311 432.378 92.7277C430.791 94.9242 428.564 96.6632 425.696 97.9445C422.89 99.2258 419.686 99.8665 416.087 99.8665Z" fill="#5A5A5A"/>
<path d="M367.921 99.8665C364.688 99.8665 361.759 99.2258 359.135 97.9445C356.573 96.6022 354.529 94.7717 353.003 92.4531C351.539 90.0735 350.807 87.3888 350.807 84.3991C350.807 79.6399 352.576 75.8874 356.115 73.1417C359.715 70.396 364.261 69.0232 369.752 69.0232C374.572 69.0232 378.691 69.8469 382.108 71.4943V69.5723C382.108 66.8266 381.009 64.569 378.813 62.7996C376.677 60.9691 374.084 60.0539 371.033 60.0539C366.396 60.0539 362.674 61.9454 359.867 65.7283L352.18 60.42C354.315 57.5523 356.969 55.3557 360.142 53.8303C363.376 52.3049 367.006 51.5422 371.033 51.5422C377.684 51.5422 382.809 53.2202 386.409 56.576C390.07 59.8708 391.901 64.5385 391.901 70.5791V98.4021H382.108V92.8192H381.558C380.094 94.8937 378.233 96.6022 375.976 97.9445C373.718 99.2258 371.033 99.8665 367.921 99.8665ZM369.569 91.5379C371.826 91.5379 373.901 90.9887 375.792 89.8905C377.745 88.7312 379.27 87.2363 380.369 85.4058C381.528 83.5143 382.108 81.5008 382.108 79.3653C378.874 77.5958 375.426 76.7111 371.765 76.7111C368.41 76.7111 365.786 77.4433 363.894 78.9077C362.003 80.372 361.057 82.233 361.057 84.4906C361.057 86.5651 361.881 88.2736 363.528 89.6159C365.237 90.8972 367.25 91.5379 369.569 91.5379Z" fill="#5A5A5A"/>
<path d="M325.684 99.8661C322.389 99.8661 319.43 99.1644 316.806 97.7611C314.244 96.3577 312.322 94.5882 311.04 92.4527H310.491V98.4017H300.973V32.8711H311.04V52.5486L310.491 58.8637H311.04C312.322 56.7892 314.244 55.0502 316.806 53.6469C319.43 52.2435 322.389 51.5418 325.684 51.5418C329.589 51.5418 333.189 52.5791 336.484 54.6536C339.84 56.7281 342.494 59.6264 344.446 63.3483C346.46 67.0093 347.466 71.1278 347.466 75.704C347.466 80.2801 346.46 84.3987 344.446 88.0596C342.494 91.7205 339.84 94.6188 336.484 96.7543C333.189 98.8288 329.589 99.8661 325.684 99.8661ZM323.945 90.6222C326.325 90.6222 328.521 90.0121 330.535 88.7918C332.609 87.5715 334.257 85.8325 335.477 83.575C336.758 81.2564 337.399 78.6327 337.399 75.704C337.399 72.7752 336.758 70.1821 335.477 67.9245C334.257 65.6059 332.609 63.8364 330.535 62.6161C328.521 61.3958 326.325 60.7857 323.945 60.7857C321.565 60.7857 319.338 61.3958 317.264 62.6161C315.25 63.8364 313.603 65.5754 312.322 67.833C311.101 70.0905 310.491 72.7142 310.491 75.704C310.491 78.6937 311.101 81.3174 312.322 83.575C313.603 85.8325 315.25 87.5715 317.264 88.7918C319.338 90.0121 321.565 90.6222 323.945 90.6222Z" fill="#5A5A5A"/>
<path d="M273.192 99.8666C268.738 99.8666 264.711 98.8294 261.111 96.7548C257.572 94.6803 254.795 91.8126 252.782 88.1516C250.768 84.4297 249.762 80.2807 249.762 75.7045C249.762 71.3114 250.707 67.2844 252.599 63.6234C254.551 59.9015 257.267 56.9727 260.745 54.8372C264.222 52.6406 268.188 51.5424 272.643 51.5424C277.219 51.5424 281.185 52.5491 284.541 54.5626C287.957 56.5761 290.551 59.3828 292.32 62.9828C294.089 66.5217 294.974 70.6097 294.974 75.2469C294.974 75.796 294.944 76.3452 294.883 76.8943C294.822 77.4434 294.791 77.7485 294.791 77.8095H259.829C260.134 81.9586 261.629 85.1619 264.314 87.4195C266.999 89.677 270.049 90.8058 273.466 90.8058C278.714 90.8058 282.741 88.3652 285.547 83.484L294.15 87.6025C292.137 91.3245 289.33 94.3142 285.73 96.5718C282.191 98.7683 278.012 99.8666 273.192 99.8666ZM284.724 70.1216C284.602 68.6572 284.113 67.1623 283.259 65.6369C282.405 64.1115 281.063 62.8302 279.232 61.793C277.463 60.6947 275.236 60.1455 272.551 60.1455C269.561 60.1455 266.968 61.0608 264.772 62.8912C262.636 64.7217 261.172 67.1318 260.378 70.1216H284.724Z" fill="#5A5A5A"/>
<path d="M221.822 53.0066H231.341V59.7794H231.89C232.866 57.4608 234.636 55.5388 237.198 54.0134C239.761 52.427 242.384 51.6338 245.069 51.6338C247.266 51.6338 249.066 51.9389 250.469 52.549V63.0742C248.395 62.0369 246.076 61.5183 243.513 61.5183C240.218 61.5183 237.442 62.7996 235.185 65.3623C232.988 67.8639 231.89 70.9452 231.89 74.6061V98.4021H221.822V53.0066Z" fill="#5A5A5A"/>
<path d="M207.452 45.3184C205.561 45.3184 203.944 44.6777 202.602 43.3964C201.32 42.0541 200.68 40.4371 200.68 38.5457C200.68 36.6542 201.32 35.0678 202.602 33.7865C203.944 32.4441 205.561 31.7729 207.452 31.7729C209.344 31.7729 210.93 32.4441 212.212 33.7865C213.554 35.0678 214.225 36.6542 214.225 38.5457C214.225 40.4371 213.554 42.0541 212.212 43.3964C210.93 44.6777 209.344 45.3184 207.452 45.3184ZM202.419 53.0063H212.486V98.4018H202.419V53.0063Z" fill="#5A5A5A"/>
<path d="M156.562 32.8712H196.375V42.6642H166.813V61.518H193.446V71.2194H166.813V98.4018H156.562V32.8712Z" fill="#5A5A5A"/>
<path d="M31.6581 118.567C36.7104 120.601 42.1915 121.807 47.9467 122.008C55.7355 122.28 63.1422 120.67 69.7635 117.611C61.8234 114.492 54.6322 109.929 48.4949 104.257C44.5166 110.627 38.6325 115.658 31.6581 118.567Z" fill="#FF9100"/>
<path d="M48.4923 104.259C34.4827 91.302 25.9838 72.5484 26.7021 51.979C26.7254 51.311 26.7607 50.6435 26.8019 49.9762C24.2928 49.3273 21.6734 48.9313 18.9777 48.8371C15.1191 48.7024 11.3823 49.181 7.85452 50.1744C4.11472 56.7255 1.85787 64.242 1.57672 72.2932C0.851127 93.0713 13.4253 111.227 31.6556 118.569C38.63 115.66 44.5139 110.635 48.4923 104.259Z" fill="#FFC400"/>
<path d="M48.4937 104.258C51.7509 99.0459 53.7258 92.9348 53.9557 86.3506C54.5605 69.0316 42.9175 54.133 26.8033 49.9757C26.762 50.643 26.7268 51.3105 26.7035 51.9785C25.9852 72.5479 34.484 91.3015 48.4937 104.258Z" fill="#FF9100"/>
<path d="M52.1543 1.29291C42.9766 8.64534 35.7294 18.3402 31.3447 29.5084C28.8344 35.9054 27.2569 42.7768 26.7964 49.9798C42.9106 54.1372 54.5536 69.0358 53.9488 86.3548C53.7189 92.939 51.7382 99.044 48.4868 104.263C54.6239 109.941 61.8153 114.497 69.7555 117.616C85.693 110.249 97.0006 94.3967 97.6554 75.6462C98.0796 63.4978 93.4121 52.6704 86.8167 43.5311C79.8515 33.8654 52.1543 1.29291 52.1543 1.29291Z" fill="#DD2C00"/>
<g filter="url(#filter0_d_47_999)">
<circle cx="100" cy="90" r="30" fill="white"/>
<path fill-rule="evenodd" clip-rule="evenodd" d="M86.6667 99.5C86.1389 99.1945 85.7292 98.7917 85.4375 98.2917C85.1458 97.7917 85 97.2362 85 96.625V83.375C85 82.7639 85.1458 82.2084 85.4375 81.7084C85.7292 81.2084 86.1389 80.8056 86.6667 80.5L98.3333 73.7917C98.8611 73.4862 99.4167 73.3334 100 73.3334C100.583 73.3334 101.139 73.4862 101.667 73.7917L113.333 80.5C113.861 80.8056 114.271 81.2084 114.563 81.7084C114.854 82.2084 115 82.7639 115 83.375V96.625C115 97.2362 114.854 97.7917 114.563 98.2917C114.271 98.7917 113.861 99.1945 113.333 99.5L101.667 106.208C101.139 106.514 100.583 106.667 100 106.667C99.4167 106.667 98.8611 106.514 98.3333 106.208L86.6667 99.5ZM88 96.6657V83.2922L100 76.5L112 83.25V96.6657L100 103.5L88 96.6657ZM97.3818 92.6182C99.1273 94.3637 100 96.4909 100 99C100 96.4909 100.873 94.3637 102.618 92.6182C104.364 90.8728 106.491 90 109 90C106.491 90 104.364 89.1273 102.618 87.3819C100.873 85.6364 100 83.5091 100 81C100 83.5091 99.1273 85.6364 97.3818 87.3819C95.6364 89.1273 93.5091 90 91 90C93.5091 90 95.6364 90.8728 97.3818 92.6182Z" fill="#1F1F1F"/>
</g>
<defs>
<filter id="filter0_d_47_999" x="68" y="58.6704" width="64" height="64" filterUnits="userSpaceOnUse" color-interpolation-filters="sRGB">
<feFlood flood-opacity="0" result="BackgroundImageFix"/>
<feColorMatrix in="SourceAlpha" type="matrix" values="0 0 0 0 0 0 0 0 0 0 0 0 0 0 0 0 0 0 127 0" result="hardAlpha"/>
<feOffset dy="0.670408"/>
<feGaussianBlur stdDeviation="1"/>
<feComposite in2="hardAlpha" operator="out"/>
<feColorMatrix type="matrix" values="0 0 0 0 0 0 0 0 0 0 0 0 0 0 0 0 0 0 0.3 0"/>
<feBlend mode="normal" in2="BackgroundImageFix" result="effect1_dropShadow_47_999"/>
<feBlend mode="normal" in="SourceGraphic" in2="effect1_dropShadow_47_999" result="shape"/>
</filter>
</defs>
</svg>
