<svg width="943" height="128" viewBox="0 0 943 128" fill="none" xmlns="http://www.w3.org/2000/svg">
<path d="M525.467 33.5811H534.292L559.297 99.4014H550.747L544.128 81.2916H515.723L509.104 99.4014H500.555L525.467 33.5811ZM541.463 73.9374L532.729 50.22L530.064 43.1415H529.696L527.122 50.22L518.389 73.9374H541.463ZM564.705 52.5182H572.151V59.5047H572.518C573.928 57.1146 576.042 55.1228 578.861 53.5294C581.742 51.8747 584.959 51.0473 588.514 51.0473C592.681 51.0473 596.481 52.1198 599.913 54.2648C603.345 56.4098 606.041 59.3821 608.003 63.1818C609.964 66.9815 610.944 71.2408 610.944 75.9598C610.944 80.74 609.964 85.03 608.003 88.8297C606.041 92.5681 603.345 95.5098 599.913 97.6547C596.481 99.7997 592.681 100.872 588.514 100.872C584.959 100.872 581.742 100.076 578.861 98.4821C576.042 96.8274 573.928 94.8356 572.518 92.5068H572.151L572.518 98.9417V119.258H564.705V52.5182ZM587.595 93.7938C590.291 93.7938 592.834 93.0583 595.225 91.5875C597.615 90.1167 599.515 88.033 600.924 85.3364C602.395 82.5786 603.13 79.453 603.13 75.9598C603.13 72.4665 602.395 69.3716 600.924 66.6751C599.515 63.9172 597.615 61.8029 595.225 60.332C592.834 58.8612 590.291 58.1258 587.595 58.1258C584.898 58.1258 582.355 58.8612 579.965 60.332C577.574 61.8029 575.675 63.8866 574.265 66.5831C572.855 69.2797 572.151 72.4052 572.151 75.9598C572.151 79.5143 572.855 82.6399 574.265 85.3364C575.675 88.033 577.574 90.1167 579.965 91.5875C582.355 93.0583 584.898 93.7938 587.595 93.7938ZM616.909 52.5182H624.356V59.5047H624.723C626.133 57.1146 628.247 55.1228 631.066 53.5294C633.947 51.8747 637.164 51.0473 640.719 51.0473C644.886 51.0473 648.686 52.1198 652.118 54.2648C655.55 56.4098 658.246 59.3821 660.207 63.1818C662.169 66.9815 663.149 71.2408 663.149 75.9598C663.149 80.74 662.169 85.03 660.207 88.8297C658.246 92.5681 655.55 95.5098 652.118 97.6547C648.686 99.7997 644.886 100.872 640.719 100.872C637.164 100.872 633.947 100.076 631.066 98.4821C628.247 96.8274 626.133 94.8356 624.723 92.5068H624.356L624.723 98.9417V119.258H616.909V52.5182ZM639.799 93.7938C642.496 93.7938 645.039 93.0583 647.429 91.5875C649.82 90.1167 651.719 88.033 653.129 85.3364C654.6 82.5786 655.335 79.453 655.335 75.9598C655.335 72.4665 654.6 69.3716 653.129 66.6751C651.719 63.9172 649.82 61.8029 647.429 60.332C645.039 58.8612 642.496 58.1258 639.799 58.1258C637.103 58.1258 634.56 58.8612 632.169 60.332C629.779 61.8029 627.879 63.8866 626.47 66.5831C625.06 69.2797 624.356 72.4052 624.356 75.9598C624.356 79.5143 625.06 82.6399 626.47 85.3364C627.879 88.033 629.779 90.1167 632.169 91.5875C634.56 93.0583 637.103 93.7938 639.799 93.7938ZM720.562 100.872C714.189 100.872 708.397 99.3707 703.188 96.3677C697.979 93.3648 693.873 89.2587 690.87 84.0494C687.928 78.7789 686.457 72.9262 686.457 66.4912C686.457 60.0563 687.928 54.2342 690.87 49.0249C693.873 43.7544 697.979 39.6177 703.188 36.6147C708.397 33.6117 714.189 32.1102 720.562 32.1102C725.465 32.1102 729.939 33.0601 733.984 34.96C738.09 36.7985 741.644 39.4338 744.647 42.8658L739.04 48.2895C736.527 45.2865 733.769 43.0803 730.766 41.6707C727.825 40.2611 724.423 39.5564 720.562 39.5564C715.782 39.5564 711.4 40.6901 707.417 42.9577C703.433 45.164 700.246 48.3201 697.856 52.4263C695.527 56.4711 694.363 61.1594 694.363 66.4912C694.363 71.823 695.527 76.542 697.856 80.6481C700.246 84.6929 703.433 87.8491 707.417 90.1167C711.4 92.3229 715.782 93.4261 720.562 93.4261C728.529 93.4261 735.301 90.1473 740.878 83.5898L746.578 89.1055C743.514 92.7213 739.745 95.6017 735.271 97.7467C730.797 99.8304 725.894 100.872 720.562 100.872ZM753.513 33.5811H761.327V52.9778L760.96 59.4128H761.327C762.614 57.0226 764.637 55.0309 767.395 53.4375C770.214 51.844 773.278 51.0473 776.587 51.0473C782.287 51.0473 786.638 52.7327 789.641 56.1034C792.644 59.4128 794.146 63.8253 794.146 69.341V99.4014H786.332V70.536C786.332 66.3074 785.259 63.1818 783.114 61.1594C780.969 59.137 778.181 58.1258 774.749 58.1258C772.297 58.1258 770.03 58.8612 767.946 60.332C765.924 61.8029 764.3 63.7027 763.074 66.0316C761.91 68.3604 761.327 70.7812 761.327 73.2939V99.4014H753.513V33.5811ZM824.431 100.872C819.958 100.872 815.943 99.7997 812.389 97.6547C808.834 95.5098 806.046 92.5681 804.023 88.8297C802.062 85.03 801.082 80.7707 801.082 76.0517C801.082 71.5166 802.001 67.3492 803.84 63.5495C805.739 59.7498 808.405 56.7162 811.837 54.4487C815.269 52.1811 819.253 51.0473 823.788 51.0473C828.384 51.0473 832.368 52.0892 835.739 54.1729C839.109 56.1953 841.683 59.0144 843.46 62.6302C845.299 66.2461 846.218 70.3828 846.218 75.0405C846.218 75.9598 846.126 76.7565 845.943 77.4306H808.896C809.079 80.9852 809.937 83.9881 811.47 86.4395C813.002 88.891 814.932 90.7295 817.261 91.9552C819.651 93.1809 822.133 93.7938 824.707 93.7938C830.713 93.7938 835.34 90.9747 838.588 85.3364L845.207 88.5539C843.185 92.3536 840.427 95.3565 836.934 97.5628C833.502 99.7691 829.334 100.872 824.431 100.872ZM837.945 70.9957C837.822 69.0345 837.271 67.0734 836.29 65.1123C835.31 63.1512 833.747 61.4965 831.602 60.1482C829.518 58.7999 826.883 58.1258 823.696 58.1258C820.019 58.1258 816.893 59.3208 814.319 61.711C811.807 64.0398 810.152 67.1347 809.355 70.9957H837.945ZM875.209 100.872C870.673 100.872 866.598 99.7997 862.982 97.6547C859.366 95.4485 856.547 92.4761 854.525 88.7377C852.502 84.9381 851.491 80.6787 851.491 75.9598C851.491 71.2408 852.502 66.9815 854.525 63.1818C856.547 59.3821 859.366 56.4098 862.982 54.2648C866.598 52.1198 870.673 51.0473 875.209 51.0473C880.295 51.0473 884.555 52.2424 887.987 54.6325C891.48 56.9614 893.962 60.0869 895.433 64.0092L888.354 66.9509C887.19 64.0704 885.443 61.8948 883.114 60.424C880.847 58.8918 878.089 58.1258 874.841 58.1258C872.083 58.1258 869.509 58.8918 867.119 60.424C864.729 61.8948 862.798 63.9785 861.328 66.6751C859.918 69.3716 859.213 72.4665 859.213 75.9598C859.213 79.453 859.918 82.5479 861.328 85.2445C862.798 87.941 864.729 90.0554 867.119 91.5875C869.509 93.0583 872.083 93.7938 874.841 93.7938C878.15 93.7938 881 93.0277 883.39 91.4956C885.78 89.9634 887.558 87.7878 888.722 84.9687L895.708 87.9104C894.115 91.7714 891.541 94.8969 887.987 97.287C884.493 99.6772 880.234 100.872 875.209 100.872ZM902.318 33.5811H910.132V74.9486L932.195 52.5182H942.123V52.8859L923.737 71.4553L942.582 99.0337V99.4014H933.298L918.221 76.8791L910.132 84.9687V99.4014H902.318V33.5811Z" fill="white"/>
<path d="M461.612 99.8672C457.157 99.8672 453.13 98.83 449.531 96.7554C445.992 94.6809 443.215 91.8132 441.202 88.1523C439.188 84.4303 438.182 80.2813 438.182 75.7051C438.182 71.312 439.127 67.285 441.019 63.624C442.971 59.9021 445.687 56.9733 449.164 54.8378C452.642 52.6412 456.608 51.543 461.062 51.543C465.639 51.543 469.605 52.5497 472.96 54.5632C476.377 56.5767 478.97 59.3835 480.74 62.9834C482.509 66.5223 483.394 70.6103 483.394 75.2475C483.394 75.7966 483.364 76.3458 483.303 76.8949C483.242 77.444 483.211 77.7491 483.211 77.8101H448.249C448.554 81.9592 450.049 85.1625 452.734 87.4201C455.419 89.6776 458.469 90.8064 461.886 90.8064C467.133 90.8064 471.161 88.3658 473.967 83.4846L482.57 87.6031C480.557 91.3251 477.75 94.3148 474.15 96.5724C470.611 98.769 466.432 99.8672 461.612 99.8672ZM473.144 70.1222C473.021 68.6578 472.533 67.1629 471.679 65.6375C470.825 64.1122 469.483 62.8308 467.652 61.7936C465.883 60.6953 463.656 60.1461 460.971 60.1461C457.981 60.1461 455.388 61.0614 453.191 62.8919C451.056 64.7223 449.592 67.1324 448.798 70.1222H473.144Z" fill="white"/>
<path d="M416.087 99.8672C410.9 99.8672 406.599 98.6774 403.182 96.2978C399.826 93.8572 397.446 90.8064 396.043 87.1455L405.012 83.3015C406.05 85.8032 407.544 87.6946 409.497 88.976C411.51 90.2573 413.707 90.898 416.087 90.898C418.588 90.898 420.632 90.4403 422.219 89.5251C423.805 88.5489 424.598 87.298 424.598 85.7727C424.598 84.3083 423.958 83.1185 422.676 82.2032C421.395 81.227 419.29 80.3728 416.361 79.6406L410.138 78.1762C406.721 77.383 403.761 75.9187 401.26 73.7831C398.819 71.5866 397.599 68.7493 397.599 65.2715C397.599 61.0614 399.338 57.736 402.816 55.2954C406.294 52.7938 410.565 51.543 415.629 51.543C419.839 51.543 423.561 52.4277 426.795 54.1971C430.09 55.9666 432.469 58.5292 433.934 61.8851L425.056 65.6375C424.202 63.7461 422.89 62.3427 421.12 61.4275C419.351 60.5122 417.429 60.0546 415.354 60.0546C413.341 60.0546 411.571 60.5122 410.046 61.4275C408.521 62.2817 407.758 63.441 407.758 64.9054C407.758 66.1867 408.277 67.2239 409.314 68.0171C410.412 68.8104 412.121 69.4815 414.439 70.0307L421.212 71.6781C425.788 72.8374 429.205 74.6068 431.462 76.9864C433.72 79.305 434.849 82.1117 434.849 85.4066C434.849 88.0912 434.025 90.5319 432.378 92.7284C430.791 94.925 428.564 96.6639 425.696 97.9452C422.89 99.2266 419.686 99.8672 416.087 99.8672Z" fill="white"/>
<path d="M367.921 99.8672C364.688 99.8672 361.759 99.2266 359.135 97.9452C356.573 96.6029 354.529 94.7724 353.003 92.4538C351.539 90.0742 350.807 87.3896 350.807 84.3998C350.807 79.6406 352.576 75.8881 356.115 73.1424C359.715 70.3968 364.261 69.0239 369.752 69.0239C374.572 69.0239 378.691 69.8476 382.108 71.495V69.573C382.108 66.8273 381.009 64.5698 378.813 62.8003C376.677 60.9699 374.084 60.0546 371.033 60.0546C366.396 60.0546 362.674 61.9461 359.867 65.7291L352.18 60.4207C354.315 57.553 356.969 55.3564 360.142 53.8311C363.376 52.3057 367.006 51.543 371.033 51.543C377.684 51.543 382.809 53.2209 386.409 56.5767C390.07 59.8716 391.901 64.5393 391.901 70.5798V98.4029H382.108V92.8199H381.558C380.094 94.8945 378.233 96.6029 375.976 97.9452C373.718 99.2266 371.033 99.8672 367.921 99.8672ZM369.569 91.5386C371.826 91.5386 373.901 90.9895 375.792 89.8912C377.745 88.7319 379.27 87.237 380.369 85.4066C381.528 83.5151 382.108 81.5016 382.108 79.366C378.874 77.5966 375.426 76.7119 371.765 76.7119C368.41 76.7119 365.786 77.444 363.894 78.9084C362.003 80.3728 361.057 82.2338 361.057 84.4913C361.057 86.5659 361.881 88.2743 363.528 89.6166C365.237 90.898 367.25 91.5386 369.569 91.5386Z" fill="white"/>
<path d="M325.684 99.8661C322.389 99.8661 319.43 99.1644 316.806 97.7611C314.244 96.3577 312.322 94.5882 311.04 92.4527H310.491V98.4017H300.973V32.8711H311.04V52.5486L310.491 58.8637H311.04C312.322 56.7892 314.244 55.0502 316.806 53.6469C319.43 52.2435 322.389 51.5418 325.684 51.5418C329.589 51.5418 333.189 52.5791 336.484 54.6536C339.84 56.7281 342.494 59.6264 344.446 63.3483C346.46 67.0093 347.466 71.1278 347.466 75.704C347.466 80.2801 346.46 84.3987 344.446 88.0596C342.494 91.7205 339.84 94.6188 336.484 96.7543C333.189 98.8288 329.589 99.8661 325.684 99.8661ZM323.945 90.6222C326.325 90.6222 328.521 90.0121 330.535 88.7918C332.609 87.5715 334.257 85.8325 335.477 83.575C336.758 81.2564 337.399 78.6327 337.399 75.704C337.399 72.7752 336.758 70.1821 335.477 67.9245C334.257 65.6059 332.609 63.8364 330.535 62.6161C328.521 61.3958 326.325 60.7857 323.945 60.7857C321.565 60.7857 319.338 61.3958 317.264 62.6161C315.25 63.8364 313.603 65.5754 312.322 67.833C311.101 70.0905 310.491 72.7142 310.491 75.704C310.491 78.6937 311.101 81.3174 312.322 83.575C313.603 85.8325 315.25 87.5715 317.264 88.7918C319.338 90.0121 321.565 90.6222 323.945 90.6222Z" fill="white"/>
<path d="M273.192 99.8672C268.738 99.8672 264.711 98.83 261.111 96.7554C257.572 94.6809 254.795 91.8132 252.782 88.1523C250.768 84.4303 249.762 80.2813 249.762 75.7051C249.762 71.312 250.707 67.285 252.599 63.624C254.551 59.9021 257.267 56.9733 260.745 54.8378C264.222 52.6412 268.188 51.543 272.643 51.543C277.219 51.543 281.185 52.5497 284.541 54.5632C287.957 56.5767 290.551 59.3835 292.32 62.9834C294.089 66.5223 294.974 70.6103 294.974 75.2475C294.974 75.7966 294.944 76.3458 294.883 76.8949C294.822 77.444 294.791 77.7491 294.791 77.8101H259.829C260.134 81.9592 261.629 85.1625 264.314 87.4201C266.999 89.6776 270.049 90.8064 273.466 90.8064C278.714 90.8064 282.741 88.3658 285.547 83.4846L294.15 87.6031C292.137 91.3251 289.33 94.3148 285.73 96.5724C282.191 98.769 278.012 99.8672 273.192 99.8672ZM284.724 70.1222C284.602 68.6578 284.113 67.1629 283.259 65.6375C282.405 64.1122 281.063 62.8308 279.232 61.7936C277.463 60.6953 275.236 60.1461 272.551 60.1461C269.561 60.1461 266.968 61.0614 264.772 62.8919C262.636 64.7223 261.172 67.1324 260.378 70.1222H284.724Z" fill="white"/>
<path d="M221.822 53.0076H231.341V59.7803H231.89C232.866 57.4617 234.636 55.5398 237.198 54.0144C239.761 52.428 242.384 51.6348 245.069 51.6348C247.266 51.6348 249.066 51.9398 250.469 52.55V63.0752C248.395 62.0379 246.076 61.5193 243.513 61.5193C240.218 61.5193 237.442 62.8006 235.185 65.3632C232.988 67.8649 231.89 70.9462 231.89 74.6071V98.4031H221.822V53.0076Z" fill="white"/>
<path d="M207.452 45.3189C205.561 45.3189 203.944 44.6782 202.602 43.3969C201.32 42.0545 200.68 40.4376 200.68 38.5462C200.68 36.6547 201.32 35.0683 202.602 33.787C203.944 32.4446 205.561 31.7734 207.452 31.7734C209.344 31.7734 210.93 32.4446 212.212 33.787C213.554 35.0683 214.225 36.6547 214.225 38.5462C214.225 40.4376 213.554 42.0545 212.212 43.3969C210.93 44.6782 209.344 45.3189 207.452 45.3189ZM202.419 53.0068H212.486V98.4023H202.419V53.0068Z" fill="white"/>
<path d="M156.562 32.8721H196.375V42.6651H166.813V61.5188H193.446V71.2203H166.813V98.4027H156.562V32.8721Z" fill="white"/>
<g clip-path="url(#clip0_47_1718)">
<path d="M86.8743 43.1134C84.1283 39.3031 77.814 31.4684 68.1144 19.8296C63.9039 14.7813 60.2921 10.4962 58.5142 8.39247C57.5337 7.232 56.6928 6.23909 56.0288 5.45406L54.9707 4.20672L54.3967 3.53029L54.285 3.36584L54.2354 3.34412L51.7872 0.467773L48.6844 2.95626C40.7628 9.30161 34.2747 17.4807 29.9276 26.5969C27.2622 32.0207 25.5215 37.3235 24.6093 42.7845C24.3704 44.0133 24.1656 45.2761 23.9949 46.5421C22.9306 46.4552 21.8477 46.3994 20.7742 46.3745C20.6842 46.3683 20.5942 46.3652 20.4732 46.3621C16.5419 46.2256 12.6323 46.6941 8.85608 47.7584L7.23949 48.2114L6.40793 49.6698C2.51074 56.5054 0.304608 64.2873 0.0284535 72.1717C-0.328375 82.4111 2.46109 92.3216 8.09588 100.833C13.6097 109.158 21.3978 115.522 30.6195 119.236L31.8203 119.72L32.1834 119.847L32.1989 119.841C37.0021 121.585 42.0442 122.559 47.1857 122.736C47.769 122.758 48.3492 122.767 48.9295 122.767C55.4176 122.767 61.735 121.498 67.7297 118.988L67.7731 119.006L69.368 118.268C77.454 114.529 84.3734 108.652 89.3783 101.27C94.526 93.6776 97.4178 84.7941 97.7405 75.5817C98.1253 64.5697 94.467 53.6476 86.8712 43.1165L86.8743 43.1134ZM50.7788 77.2325C52.4512 83.5716 52.1223 89.6625 49.8076 95.3624C44.0239 89.6532 39.7823 83.3761 37.1945 76.6863C34.4236 69.5312 32.7574 62.7235 32.2299 56.4278C34.6781 57.2314 36.9276 58.2926 38.9321 59.5989C44.6972 63.3565 48.6844 69.2891 50.7788 77.2356V77.2325ZM51.8338 107.92C54.2912 109.791 56.8759 111.544 59.5412 113.157C55.6161 114.225 51.5669 114.693 47.4711 114.547C46.8382 114.526 46.2052 114.488 45.5691 114.436C47.9024 112.425 50 110.244 51.8307 107.92H51.8338ZM58.6973 75.1442C56.066 65.1716 50.9184 57.6317 43.4002 52.7354C40.1019 50.5882 36.3443 48.9592 32.2175 47.8949C32.2764 47.2092 32.3509 46.5266 32.4378 45.8564C32.5123 45.2823 32.5898 44.7548 32.6736 44.2615C33.3531 40.7522 34.3647 37.2801 35.6741 33.9445C36.1767 32.6661 36.7259 31.3971 37.3093 30.1714L37.331 30.128C38.2308 28.3066 39.2455 26.4666 40.4401 24.4994L40.9086 23.7268L40.8931 23.7175C43.667 19.3828 46.9902 15.4297 50.7912 11.9452L52.2588 13.6797C55.6813 17.7352 58.899 21.5703 61.825 25.0796C68.4061 32.9733 76.939 43.3399 80.2311 47.9105C86.7409 56.9336 89.8779 66.1459 89.5583 75.2994C89.3101 82.408 87.2063 89.3398 83.4705 95.3407C79.9332 101.028 75.0059 105.788 69.2004 109.139C65.9611 107.523 61.2571 104.863 56.2615 100.994C60.289 92.967 61.1113 84.2759 58.7004 75.1442H58.6973ZM45.5753 102.648C41.8829 107.433 37.4892 110.545 34.9263 112.109C34.5105 111.957 34.0947 111.798 33.6851 111.631L33.3562 111.5C25.7635 108.363 19.3593 103.061 14.8353 96.1599C10.212 89.1071 7.92212 80.9093 8.21689 72.451C8.42789 66.388 9.93898 60.5949 12.7129 55.2301C14.3233 54.8733 15.9647 54.6499 17.6061 54.5661L18.0312 54.5568C18.8597 54.5382 19.6851 54.5382 20.4701 54.5568C21.6243 54.6095 22.7817 54.7305 23.9205 54.9136C24.2928 62.6211 26.1855 70.9368 29.5521 79.6372C32.7946 88.0118 38.1812 95.7472 45.5722 102.645L45.5753 102.648Z" fill="white"/>
</g>
<g filter="url(#filter0_d_47_1718)">
<circle cx="100" cy="90.4678" r="30" fill="white"/>
<path d="M98.2285 96.8083L107.762 87.9103L105.358 85.6663L98.2285 92.3203L94.684 89.0128L92.2795 91.2568L98.2285 96.8083ZM100 106.968C96.091 106.048 92.863 103.956 90.319 100.687C87.7735 97.4188 86.5 93.7903 86.5 89.8003V80.1928L100 75.4678L113.5 80.1928V89.8003C113.5 93.7903 112.228 97.4203 109.682 100.687C107.137 103.956 103.909 106.05 100 106.968ZM100 103.66C102.925 102.793 105.344 101.061 107.256 98.4628C109.17 95.8648 110.125 92.9773 110.125 89.8003V82.3588L100 78.8128L89.875 82.3588V89.8003C89.875 92.9758 90.832 95.8648 92.743 98.4628C94.657 101.062 97.075 102.795 100 103.66Z" fill="#1F1F1F"/>
</g>
<defs>
<filter id="filter0_d_47_1718" x="68" y="59.1382" width="64" height="64" filterUnits="userSpaceOnUse" color-interpolation-filters="sRGB">
<feFlood flood-opacity="0" result="BackgroundImageFix"/>
<feColorMatrix in="SourceAlpha" type="matrix" values="0 0 0 0 0 0 0 0 0 0 0 0 0 0 0 0 0 0 127 0" result="hardAlpha"/>
<feOffset dy="0.670408"/>
<feGaussianBlur stdDeviation="1"/>
<feComposite in2="hardAlpha" operator="out"/>
<feColorMatrix type="matrix" values="0 0 0 0 0 0 0 0 0 0 0 0 0 0 0 0 0 0 0.3 0"/>
<feBlend mode="normal" in2="BackgroundImageFix" result="effect1_dropShadow_47_1718"/>
<feBlend mode="normal" in="SourceGraphic" in2="effect1_dropShadow_47_1718" result="shape"/>
</filter>
<clipPath id="clip0_47_1718">
<rect width="97.7741" height="122.296" fill="white" transform="translate(-0.00195312 0.467773)"/>
</clipPath>
</defs>
</svg>
