<svg width="1630" height="128" viewBox="0 0 1630 128" fill="none" xmlns="http://www.w3.org/2000/svg">
<path d="M537.418 100.872C531.044 100.872 525.253 99.371 520.043 96.368C514.834 93.365 510.728 89.2589 507.725 84.0497C504.783 78.7791 503.313 72.9264 503.313 66.4915C503.313 60.0565 504.783 54.2344 507.725 49.0252C510.728 43.7546 514.834 39.6179 520.043 36.6149C525.253 33.6119 531.044 32.1105 537.418 32.1105C542.321 32.1105 546.794 33.0604 550.839 34.9602C554.945 36.7988 558.5 39.434 561.503 42.866L555.895 48.2897C553.383 45.2868 550.625 43.0805 547.622 41.6709C544.68 40.2614 541.279 39.5566 537.418 39.5566C532.638 39.5566 528.256 40.6904 524.272 42.9579C520.289 45.1642 517.102 48.3204 514.712 52.4265C512.383 56.4713 511.218 61.1596 511.218 66.4915C511.218 71.8233 512.383 76.5422 514.712 80.6483C517.102 84.6932 520.289 87.8493 524.272 90.1169C528.256 92.3232 532.638 93.4263 537.418 93.4263C545.385 93.4263 552.157 90.1475 557.734 83.59L563.433 89.1057C560.369 92.7215 556.6 95.6019 552.126 97.7469C547.652 99.8306 542.75 100.872 537.418 100.872ZM570.369 33.5813H578.183V99.4016H570.369V33.5813ZM609.075 100.872C604.479 100.872 600.342 99.7693 596.665 97.5631C592.988 95.3568 590.108 92.3538 588.024 88.5541C586.002 84.7544 584.99 80.5564 584.99 75.96C584.99 71.3636 586.002 67.1656 588.024 63.3659C590.108 59.5662 592.988 56.5633 596.665 54.357C600.342 52.1507 604.479 51.0476 609.075 51.0476C613.672 51.0476 617.809 52.1507 621.486 54.357C625.163 56.5633 628.013 59.5662 630.035 63.3659C632.119 67.1656 633.161 71.3636 633.161 75.96C633.161 80.5564 632.119 84.7544 630.035 88.5541C628.013 92.3538 625.163 95.3568 621.486 97.5631C617.809 99.7693 613.672 100.872 609.075 100.872ZM609.075 93.794C611.956 93.794 614.622 93.0892 617.073 91.6797C619.586 90.2088 621.578 88.1251 623.048 85.4286C624.581 82.732 625.347 79.5758 625.347 75.96C625.347 72.3442 624.581 69.188 623.048 66.4915C621.578 63.7949 619.586 61.7419 617.073 60.3323C614.622 58.8614 611.956 58.126 609.075 58.126C606.195 58.126 603.499 58.8614 600.986 60.3323C598.473 61.7419 596.451 63.7949 594.919 66.4915C593.448 69.188 592.712 72.3442 592.712 75.96C592.712 79.5758 593.448 82.732 594.919 85.4286C596.451 88.1251 598.473 90.2088 600.986 91.6797C603.499 93.0892 606.195 93.794 609.075 93.794ZM656.953 100.872C651.315 100.872 646.994 99.2178 643.992 95.9084C641.05 92.599 639.579 87.9719 639.579 82.0273V52.5184H647.393V80.8322C647.393 85.306 648.404 88.5848 650.426 90.6685C652.449 92.7522 655.176 93.794 658.608 93.794C661.243 93.794 663.572 93.0892 665.595 91.6797C667.678 90.2701 669.272 88.4316 670.375 86.164C671.539 83.8965 672.121 81.5063 672.121 78.9936V52.5184H679.935V99.4016H672.489V92.599H672.121C670.834 94.9278 668.781 96.8889 665.962 98.4823C663.143 100.076 660.14 100.872 656.953 100.872ZM709.046 100.872C704.878 100.872 701.078 99.8 697.646 97.655C694.276 95.51 691.61 92.5683 689.649 88.8299C687.688 85.0302 686.707 80.7403 686.707 75.96C686.707 71.2411 687.688 66.9817 689.649 63.1821C691.61 59.3824 694.276 56.41 697.646 54.2651C701.078 52.1201 704.878 51.0476 709.046 51.0476C712.661 51.0476 715.879 51.8749 718.698 53.5296C721.517 55.1231 723.662 57.1148 725.133 59.5049H725.501L725.133 52.9781V33.5813H732.947V99.4016H725.501V92.507H725.133C723.662 94.8359 721.517 96.8276 718.698 98.4823C715.879 100.076 712.661 100.872 709.046 100.872ZM709.965 93.794C712.723 93.794 715.266 93.0586 717.595 91.5877C719.985 90.1169 721.885 88.0332 723.294 85.3367C724.765 82.6401 725.501 79.5146 725.501 75.96C725.501 72.4055 724.765 69.2799 723.294 66.5834C721.885 63.8868 719.985 61.8031 717.595 60.3323C715.266 58.8614 712.723 58.126 709.965 58.126C707.268 58.126 704.725 58.8614 702.335 60.3323C699.945 61.8031 698.014 63.9175 696.543 66.6753C695.134 69.3719 694.429 72.4668 694.429 75.96C694.429 79.4533 695.134 82.5788 696.543 85.3367C698.014 88.0332 699.945 90.1169 702.335 91.5877C704.725 93.0586 707.268 93.794 709.965 93.794ZM763.741 33.5813H801.799V41.0275H771.463V63.5498H798.858V70.904H771.463V99.4016H763.741V33.5813ZM824.388 100.872C818.749 100.872 814.429 99.2178 811.426 95.9084C808.484 92.599 807.013 87.9719 807.013 82.0273V52.5184H814.827V80.8322C814.827 85.306 815.838 88.5848 817.861 90.6685C819.883 92.7522 822.61 93.794 826.042 93.794C828.678 93.794 831.006 93.0892 833.029 91.6797C835.113 90.2701 836.706 88.4316 837.809 86.164C838.973 83.8965 839.556 81.5063 839.556 78.9936V52.5184H847.37V99.4016H839.923V92.599H839.556C838.269 94.9278 836.216 96.8889 833.397 98.4823C830.577 100.076 827.574 100.872 824.388 100.872ZM857.072 52.5184H864.518V59.413H864.886C866.173 57.0842 868.226 55.1231 871.045 53.5296C873.864 51.8749 876.867 51.0476 880.054 51.0476C885.692 51.0476 889.982 52.7023 892.924 56.0117C895.927 59.2598 897.429 63.703 897.429 69.3412V99.4016H889.615V70.5363C889.615 66.185 888.573 63.0288 886.489 61.0677C884.405 59.1066 881.556 58.126 877.94 58.126C875.427 58.126 873.16 58.8308 871.137 60.2404C869.176 61.6499 867.644 63.5191 866.541 65.848C865.438 68.1155 864.886 70.5056 864.886 73.0183V99.4016H857.072V52.5184ZM927.999 100.872C923.464 100.872 919.388 99.8 915.772 97.655C912.157 95.4487 909.338 92.4764 907.315 88.738C905.293 84.9383 904.282 80.679 904.282 75.96C904.282 71.2411 905.293 66.9817 907.315 63.1821C909.338 59.3824 912.157 56.41 915.772 54.2651C919.388 52.1201 923.464 51.0476 927.999 51.0476C933.086 51.0476 937.345 52.2426 940.777 54.6328C944.27 56.9616 946.752 60.0872 948.223 64.0094L941.145 66.9511C939.98 64.0707 938.234 61.8951 935.905 60.4242C933.637 58.8921 930.879 58.126 927.631 58.126C924.873 58.126 922.299 58.8921 919.909 60.4242C917.519 61.8951 915.589 63.9788 914.118 66.6753C912.708 69.3719 912.003 72.4668 912.003 75.96C912.003 79.4533 912.708 82.5482 914.118 85.2447C915.589 87.9413 917.519 90.0556 919.909 91.5877C922.299 93.0586 924.873 93.794 927.631 93.794C930.941 93.794 933.79 93.0279 936.18 91.4958C938.571 89.9637 940.348 87.7881 941.512 84.9689L948.499 87.9106C946.905 91.7716 944.331 94.8971 940.777 97.2873C937.284 99.6774 933.024 100.872 927.999 100.872ZM972.677 100.137C970.777 100.137 969 99.8306 967.345 99.2178C965.752 98.6049 964.404 97.7776 963.301 96.7357C962.075 95.5713 961.156 94.223 960.543 92.6909C959.93 91.1588 959.623 89.2896 959.623 87.0833V59.5969H951.442V52.5184H959.623V39.2808H967.437V52.5184H978.836V59.5969H967.437V85.1528C967.437 87.7268 967.928 89.6266 968.908 90.8523C970.073 92.2006 971.758 92.8747 973.964 92.8747C975.741 92.8747 977.457 92.3538 979.112 91.312V98.942C978.193 99.371 977.243 99.6774 976.262 99.8613C975.343 100.045 974.148 100.137 972.677 100.137ZM991.531 43.8772C989.999 43.8772 988.681 43.3256 987.578 42.2225C986.475 41.1194 985.923 39.8017 985.923 38.2696C985.923 36.7375 986.475 35.4505 987.578 34.4087C988.681 33.3055 989.999 32.754 991.531 32.754C993.063 32.754 994.381 33.3055 995.484 34.4087C996.587 35.4505 997.139 36.7375 997.139 38.2696C997.139 39.8017 996.587 41.1194 995.484 42.2225C994.442 43.3256 993.124 43.8772 991.531 43.8772ZM987.67 52.5184H995.392V99.4016H987.67V52.5184ZM1026.99 100.872C1022.39 100.872 1018.25 99.7693 1014.58 97.5631C1010.9 95.3568 1008.02 92.3538 1005.94 88.5541C1003.91 84.7544 1002.9 80.5564 1002.9 75.96C1002.9 71.3636 1003.91 67.1656 1005.94 63.3659C1008.02 59.5662 1010.9 56.5633 1014.58 54.357C1018.25 52.1507 1022.39 51.0476 1026.99 51.0476C1031.58 51.0476 1035.72 52.1507 1039.4 54.357C1043.08 56.5633 1045.92 59.5662 1047.95 63.3659C1050.03 67.1656 1051.07 71.3636 1051.07 75.96C1051.07 80.5564 1050.03 84.7544 1047.95 88.5541C1045.92 92.3538 1043.08 95.3568 1039.4 97.5631C1035.72 99.7693 1031.58 100.872 1026.99 100.872ZM1026.99 93.794C1029.87 93.794 1032.53 93.0892 1034.99 91.6797C1037.5 90.2088 1039.49 88.1251 1040.96 85.4286C1042.49 82.732 1043.26 79.5758 1043.26 75.96C1043.26 72.3442 1042.49 69.188 1040.96 66.4915C1039.49 63.7949 1037.5 61.7419 1034.99 60.3323C1032.53 58.8614 1029.87 58.126 1026.99 58.126C1024.11 58.126 1021.41 58.8614 1018.9 60.3323C1016.39 61.7419 1014.36 63.7949 1012.83 66.4915C1011.36 69.188 1010.62 72.3442 1010.62 75.96C1010.62 79.5758 1011.36 82.732 1012.83 85.4286C1014.36 88.1251 1016.39 90.2088 1018.9 91.6797C1021.41 93.0892 1024.11 93.794 1026.99 93.794ZM1057.41 52.5184H1064.86V59.413H1065.22C1066.51 57.0842 1068.56 55.1231 1071.38 53.5296C1074.2 51.8749 1077.21 51.0476 1080.39 51.0476C1086.03 51.0476 1090.32 52.7023 1093.26 56.0117C1096.27 59.2598 1097.77 63.703 1097.77 69.3412V99.4016H1089.95V70.5363C1089.95 66.185 1088.91 63.0288 1086.83 61.0677C1084.74 59.1066 1081.89 58.126 1078.28 58.126C1075.77 58.126 1073.5 58.8308 1071.48 60.2404C1069.51 61.6499 1067.98 63.5191 1066.88 65.848C1065.78 68.1155 1065.22 70.5056 1065.22 73.0183V99.4016H1057.41V52.5184ZM1123.02 100.872C1117.99 100.872 1113.79 99.708 1110.42 97.3792C1107.05 94.9891 1104.66 91.9555 1103.25 88.2783L1110.24 85.1528C1111.4 87.9719 1113.12 90.1475 1115.39 91.6797C1117.71 93.2118 1120.26 93.9779 1123.02 93.9779C1125.96 93.9779 1128.47 93.3957 1130.55 92.2312C1132.64 91.0055 1133.68 89.2896 1133.68 87.0833C1133.68 85.1222 1132.85 83.5594 1131.2 82.395C1129.54 81.1693 1126.94 80.1274 1123.38 79.2694L1117.68 77.7986C1113.95 76.8793 1110.88 75.3165 1108.49 73.1103C1106.1 70.904 1104.91 68.0542 1104.91 64.561C1104.91 61.8644 1105.7 59.5049 1107.3 57.4825C1108.95 55.3988 1111.13 53.8054 1113.82 52.7023C1116.52 51.5992 1119.43 51.0476 1122.56 51.0476C1126.66 51.0476 1130.31 51.9362 1133.5 53.7135C1136.74 55.4908 1139.04 57.9728 1140.39 61.1596L1133.59 64.2852C1131.5 60.1178 1127.8 58.0341 1122.46 58.0341C1119.89 58.0341 1117.62 58.647 1115.66 59.8727C1113.76 61.0371 1112.81 62.5386 1112.81 64.3771C1112.81 66.0931 1113.49 67.5027 1114.83 68.6058C1116.18 69.6476 1118.2 70.5056 1120.9 71.1798L1127.7 72.9264C1132.3 74.0908 1135.76 75.8374 1138.09 78.1663C1140.42 80.4338 1141.59 83.2223 1141.59 86.5317C1141.59 89.4121 1140.76 91.9555 1139.1 94.1617C1137.45 96.3067 1135.21 97.9614 1132.39 99.1258C1129.57 100.29 1126.45 100.872 1123.02 100.872ZM1171.42 59.5969H1162.78V52.5184H1171.42V47.4624C1171.42 44.5207 1172.09 41.9467 1173.44 39.7405C1174.79 37.5342 1176.6 35.8489 1178.87 34.6844C1181.13 33.4587 1183.65 32.8459 1186.4 32.8459C1189.04 32.8459 1191.34 33.2136 1193.3 33.949V41.579C1192.2 41.15 1191.15 40.813 1190.17 40.5678C1189.19 40.2614 1188.03 40.1082 1186.68 40.1082C1184.66 40.1082 1182.91 40.8436 1181.44 42.3144C1179.97 43.724 1179.23 45.7158 1179.23 48.2897V52.5184H1191.28V59.5969H1179.23V99.4016H1171.42V59.5969ZM1217.72 100.872C1213.12 100.872 1208.99 99.7693 1205.31 97.5631C1201.63 95.3568 1198.75 92.3538 1196.67 88.5541C1194.65 84.7544 1193.64 80.5564 1193.64 75.96C1193.64 71.3636 1194.65 67.1656 1196.67 63.3659C1198.75 59.5662 1201.63 56.5633 1205.31 54.357C1208.99 52.1507 1213.12 51.0476 1217.72 51.0476C1222.32 51.0476 1226.45 52.1507 1230.13 54.357C1233.81 56.5633 1236.66 59.5662 1238.68 63.3659C1240.76 67.1656 1241.81 71.3636 1241.81 75.96C1241.81 80.5564 1240.76 84.7544 1238.68 88.5541C1236.66 92.3538 1233.81 95.3568 1230.13 97.5631C1226.45 99.7693 1222.32 100.872 1217.72 100.872ZM1217.72 93.794C1220.6 93.794 1223.27 93.0892 1225.72 91.6797C1228.23 90.2088 1230.22 88.1251 1231.69 85.4286C1233.23 82.732 1233.99 79.5758 1233.99 75.96C1233.99 72.3442 1233.23 69.188 1231.69 66.4915C1230.22 63.7949 1228.23 61.7419 1225.72 60.3323C1223.27 58.8614 1220.6 58.126 1217.72 58.126C1214.84 58.126 1212.14 58.8614 1209.63 60.3323C1207.12 61.7419 1205.1 63.7949 1203.56 66.4915C1202.09 69.188 1201.36 72.3442 1201.36 75.96C1201.36 79.5758 1202.09 82.732 1203.56 85.4286C1205.1 88.1251 1207.12 90.2088 1209.63 91.6797C1212.14 93.0892 1214.84 93.794 1217.72 93.794ZM1248.14 52.5184H1255.59V60.0565H1255.96C1256.88 57.4825 1258.65 55.3682 1261.29 53.7135C1263.92 51.9975 1266.68 51.1395 1269.56 51.1395C1271.71 51.1395 1273.55 51.4459 1275.08 52.0588V60.5161C1273.12 59.5356 1270.91 59.0453 1268.46 59.0453C1266.19 59.0453 1264.11 59.6888 1262.21 60.9758C1260.31 62.2628 1258.78 64.0094 1257.61 66.2157C1256.51 68.3607 1255.96 70.6895 1255.96 73.2022V99.4016H1248.14V52.5184ZM1301.87 33.5813H1339.93V41.0275H1309.59V63.5498H1336.98V70.904H1309.59V99.4016H1301.87V33.5813ZM1351 43.8772C1349.47 43.8772 1348.15 43.3256 1347.05 42.2225C1345.95 41.1194 1345.39 39.8017 1345.39 38.2696C1345.39 36.7375 1345.95 35.4505 1347.05 34.4087C1348.15 33.3055 1349.47 32.754 1351 32.754C1352.53 32.754 1353.85 33.3055 1354.95 34.4087C1356.06 35.4505 1356.61 36.7375 1356.61 38.2696C1356.61 39.8017 1356.06 41.1194 1354.95 42.2225C1353.91 43.3256 1352.59 43.8772 1351 43.8772ZM1347.14 52.5184H1354.86V99.4016H1347.14V52.5184ZM1365.3 52.5184H1372.75V60.0565H1373.12C1374.04 57.4825 1375.81 55.3682 1378.45 53.7135C1381.08 51.9975 1383.84 51.1395 1386.72 51.1395C1388.87 51.1395 1390.71 51.4459 1392.24 52.0588V60.5161C1390.28 59.5356 1388.07 59.0453 1385.62 59.0453C1383.35 59.0453 1381.27 59.6888 1379.37 60.9758C1377.47 62.2628 1375.94 64.0094 1374.77 66.2157C1373.67 68.3607 1373.12 70.6895 1373.12 73.2022V99.4016H1365.3V52.5184ZM1416.02 100.872C1411.55 100.872 1407.53 99.8 1403.98 97.655C1400.43 95.51 1397.64 92.5683 1395.61 88.8299C1393.65 85.0302 1392.67 80.7709 1392.67 76.0519C1392.67 71.5168 1393.59 67.3494 1395.43 63.5498C1397.33 59.7501 1400 56.7165 1403.43 54.4489C1406.86 52.1814 1410.84 51.0476 1415.38 51.0476C1419.98 51.0476 1423.96 52.0894 1427.33 54.1731C1430.7 56.1955 1433.27 59.0147 1435.05 62.6305C1436.89 66.2463 1437.81 70.3831 1437.81 75.0407C1437.81 75.96 1437.72 76.7567 1437.53 77.4309H1400.49C1400.67 80.9854 1401.53 83.9884 1403.06 86.4398C1404.59 88.8912 1406.52 90.7298 1408.85 91.9555C1411.24 93.1812 1413.72 93.794 1416.3 93.794C1422.3 93.794 1426.93 90.9749 1430.18 85.3367L1436.8 88.5541C1434.78 92.3538 1432.02 95.3568 1428.52 97.5631C1425.09 99.7693 1420.93 100.872 1416.02 100.872ZM1429.54 70.9959C1429.41 69.0348 1428.86 67.0737 1427.88 65.1125C1426.9 63.1514 1425.34 61.4967 1423.19 60.1484C1421.11 58.8002 1418.47 58.126 1415.29 58.126C1411.61 58.126 1408.48 59.3211 1405.91 61.7112C1403.4 64.04 1401.74 67.135 1400.95 70.9959H1429.54ZM1468.93 100.872C1465.37 100.872 1462.15 100.076 1459.27 98.4823C1456.45 96.8276 1454.34 94.8359 1452.93 92.507H1452.56V99.4016H1445.12V33.5813H1452.93V52.9781L1452.56 59.5049H1452.93C1454.34 57.1148 1456.45 55.1231 1459.27 53.5296C1462.15 51.8749 1465.37 51.0476 1468.93 51.0476C1473.09 51.0476 1476.89 52.1201 1480.32 54.2651C1483.76 56.41 1486.45 59.3824 1488.41 63.1821C1490.37 66.9817 1491.36 71.2411 1491.36 75.96C1491.36 80.7403 1490.37 85.0302 1488.41 88.8299C1486.45 92.5683 1483.76 95.51 1480.32 97.655C1476.89 99.8 1473.09 100.872 1468.93 100.872ZM1468.01 93.794C1470.7 93.794 1473.25 93.0586 1475.64 91.5877C1478.03 90.1169 1479.93 88.0332 1481.34 85.3367C1482.81 82.5788 1483.54 79.4533 1483.54 75.96C1483.54 72.4668 1482.81 69.3719 1481.34 66.6753C1479.93 63.9175 1478.03 61.8031 1475.64 60.3323C1473.25 58.8614 1470.7 58.126 1468.01 58.126C1465.31 58.126 1462.77 58.8614 1460.38 60.3323C1457.99 61.8031 1456.09 63.8868 1454.68 66.5834C1453.27 69.2799 1452.56 72.4055 1452.56 75.96C1452.56 79.5146 1453.27 82.6401 1454.68 85.3367C1456.09 88.0332 1457.99 90.1169 1460.38 91.5877C1462.77 93.0586 1465.31 93.794 1468.01 93.794ZM1513.56 100.872C1510.13 100.872 1507.07 100.198 1504.37 98.85C1501.67 97.5018 1499.59 95.6632 1498.12 93.3344C1496.65 90.9443 1495.91 88.2477 1495.91 85.2447C1495.91 80.2806 1497.78 76.4197 1501.52 73.6618C1505.26 70.8427 1509.98 69.4331 1515.68 69.4331C1518.5 69.4331 1521.1 69.7396 1523.49 70.3524C1525.94 70.9653 1527.81 71.6701 1529.1 72.4668V69.617C1529.1 66.1237 1527.87 63.3353 1525.42 61.2516C1522.97 59.1066 1519.87 58.0341 1516.14 58.0341C1513.5 58.0341 1511.08 58.6163 1508.87 59.7807C1506.67 60.8839 1504.92 62.4466 1503.63 64.469L1497.75 60.0565C1499.59 57.2374 1502.1 55.0311 1505.29 53.4377C1508.54 51.8443 1512.12 51.0476 1516.04 51.0476C1522.42 51.0476 1527.41 52.7329 1531.03 56.1036C1534.71 59.413 1536.54 63.9481 1536.54 69.7089V99.4016H1529.1V92.6909H1528.73C1527.38 94.9584 1525.36 96.8889 1522.66 98.4823C1519.97 100.076 1516.93 100.872 1513.56 100.872ZM1514.3 93.9779C1516.93 93.9779 1519.38 93.3037 1521.65 91.9555C1523.92 90.6072 1525.73 88.7993 1527.08 86.5317C1528.42 84.2642 1529.1 81.7821 1529.1 79.0856C1527.63 78.105 1525.82 77.3083 1523.67 76.6954C1521.53 76.0826 1519.26 75.7762 1516.87 75.7762C1512.58 75.7762 1509.33 76.6648 1507.13 78.4421C1504.98 80.2193 1503.91 82.5175 1503.91 85.3367C1503.91 87.9106 1504.89 89.9943 1506.85 91.5877C1508.81 93.1812 1511.29 93.9779 1514.3 93.9779ZM1561.49 100.872C1556.46 100.872 1552.27 99.708 1548.9 97.3792C1545.53 94.9891 1543.14 91.9555 1541.73 88.2783L1548.71 85.1528C1549.88 87.9719 1551.59 90.1475 1553.86 91.6797C1556.19 93.2118 1558.73 93.9779 1561.49 93.9779C1564.43 93.9779 1566.94 93.3957 1569.03 92.2312C1571.11 91.0055 1572.15 89.2896 1572.15 87.0833C1572.15 85.1222 1571.33 83.5594 1569.67 82.395C1568.02 81.1693 1565.41 80.1274 1561.86 79.2694L1556.16 77.7986C1552.42 76.8793 1549.36 75.3165 1546.97 73.1103C1544.58 70.904 1543.38 68.0542 1543.38 64.561C1543.38 61.8644 1544.18 59.5049 1545.77 57.4825C1547.42 55.3988 1549.6 53.8054 1552.3 52.7023C1554.99 51.5992 1557.9 51.0476 1561.03 51.0476C1565.14 51.0476 1568.78 51.9362 1571.97 53.7135C1575.22 55.4908 1577.52 57.9728 1578.86 61.1596L1572.06 64.2852C1569.98 60.1178 1566.27 58.0341 1560.94 58.0341C1558.36 58.0341 1556.1 58.647 1554.14 59.8727C1552.24 61.0371 1551.29 62.5386 1551.29 64.3771C1551.29 66.0931 1551.96 67.5027 1553.31 68.6058C1554.66 69.6476 1556.68 70.5056 1559.38 71.1798L1566.18 72.9264C1570.77 74.0908 1574.24 75.8374 1576.57 78.1663C1578.89 80.4338 1580.06 83.2223 1580.06 86.5317C1580.06 89.4121 1579.23 91.9555 1577.58 94.1617C1575.92 96.3067 1573.69 97.9614 1570.87 99.1258C1568.05 100.29 1564.92 100.872 1561.49 100.872ZM1608.05 100.872C1603.58 100.872 1599.57 99.8 1596.01 97.655C1592.46 95.51 1589.67 92.5683 1587.65 88.8299C1585.69 85.0302 1584.71 80.7709 1584.71 76.0519C1584.71 71.5168 1585.62 67.3494 1587.46 63.5498C1589.36 59.7501 1592.03 56.7165 1595.46 54.4489C1598.89 52.1814 1602.88 51.0476 1607.41 51.0476C1612.01 51.0476 1615.99 52.0894 1619.36 54.1731C1622.73 56.1955 1625.31 59.0147 1627.08 62.6305C1628.92 66.2463 1629.84 70.3831 1629.84 75.0407C1629.84 75.96 1629.75 76.7567 1629.57 77.4309H1592.52C1592.7 80.9854 1593.56 83.9884 1595.09 86.4398C1596.63 88.8912 1598.56 90.7298 1600.88 91.9555C1603.27 93.1812 1605.76 93.794 1608.33 93.794C1614.34 93.794 1618.96 90.9749 1622.21 85.3367L1628.83 88.5541C1626.81 92.3538 1624.05 95.3568 1620.56 97.5631C1617.13 99.7693 1612.96 100.872 1608.05 100.872ZM1621.57 70.9959C1621.45 69.0348 1620.89 67.0737 1619.91 65.1125C1618.93 63.1514 1617.37 61.4967 1615.23 60.1484C1613.14 58.8002 1610.51 58.126 1607.32 58.126C1603.64 58.126 1600.52 59.3211 1597.94 61.7112C1595.43 64.04 1593.78 67.135 1592.98 70.9959H1621.57Z" fill="#5A5A5A"/>
<path d="M461.612 99.8665C457.157 99.8665 453.13 98.8292 449.531 96.7547C445.992 94.6802 443.215 91.8125 441.202 88.1515C439.188 84.4296 438.182 80.2805 438.182 75.7044C438.182 71.3113 439.127 67.2842 441.019 63.6233C442.971 59.9014 445.687 56.9726 449.164 54.8371C452.642 52.6405 456.608 51.5422 461.062 51.5422C465.639 51.5422 469.605 52.549 472.96 54.5625C476.377 56.576 478.97 59.3827 480.74 62.9826C482.509 66.5215 483.394 70.6096 483.394 75.2467C483.394 75.7959 483.364 76.345 483.303 76.8942C483.242 77.4433 483.211 77.7484 483.211 77.8094H448.249C448.554 81.9585 450.049 85.1618 452.734 87.4193C455.419 89.6769 458.469 90.8057 461.886 90.8057C467.133 90.8057 471.161 88.3651 473.967 83.4838L482.57 87.6024C480.557 91.3243 477.75 94.3141 474.15 96.5717C470.611 98.7682 466.432 99.8665 461.612 99.8665ZM473.144 70.1215C473.021 68.6571 472.533 67.1622 471.679 65.6368C470.825 64.1114 469.483 62.8301 467.652 61.7928C465.883 60.6946 463.656 60.1454 460.971 60.1454C457.981 60.1454 455.388 61.0607 453.191 62.8911C451.056 64.7216 449.592 67.1317 448.798 70.1215H473.144Z" fill="#5A5A5A"/>
<path d="M416.087 99.8665C410.9 99.8665 406.599 98.6767 403.182 96.2971C399.826 93.8565 397.446 90.8057 396.043 87.1448L405.012 83.3008C406.05 85.8024 407.544 87.6939 409.497 88.9752C411.51 90.2566 413.707 90.8972 416.087 90.8972C418.588 90.8972 420.632 90.4396 422.219 89.5244C423.805 88.5481 424.598 87.2973 424.598 85.7719C424.598 84.3076 423.958 83.1177 422.676 82.2025C421.395 81.2263 419.29 80.3721 416.361 79.6399L410.138 78.1755C406.721 77.3823 403.761 75.9179 401.26 73.7824C398.819 71.5858 397.599 68.7486 397.599 65.2707C397.599 61.0607 399.338 57.7353 402.816 55.2947C406.294 52.7931 410.565 51.5422 415.629 51.5422C419.839 51.5422 423.561 52.427 426.795 54.1964C430.09 55.9659 432.469 58.5285 433.934 61.8844L425.056 65.6368C424.202 63.7453 422.89 62.342 421.12 61.4267C419.351 60.5115 417.429 60.0539 415.354 60.0539C413.341 60.0539 411.571 60.5115 410.046 61.4267C408.521 62.281 407.758 63.4403 407.758 64.9046C407.758 66.186 408.277 67.2232 409.314 68.0164C410.412 68.8096 412.121 69.4808 414.439 70.0299L421.212 71.6773C425.788 72.8366 429.205 74.6061 431.462 76.9857C433.72 79.3043 434.849 82.111 434.849 85.4058C434.849 88.0905 434.025 90.5311 432.378 92.7277C430.791 94.9242 428.564 96.6632 425.696 97.9445C422.89 99.2258 419.686 99.8665 416.087 99.8665Z" fill="#5A5A5A"/>
<path d="M367.921 99.8665C364.688 99.8665 361.759 99.2258 359.135 97.9445C356.573 96.6022 354.529 94.7717 353.003 92.4531C351.539 90.0735 350.807 87.3888 350.807 84.3991C350.807 79.6399 352.576 75.8874 356.115 73.1417C359.715 70.396 364.261 69.0232 369.752 69.0232C374.572 69.0232 378.691 69.8469 382.108 71.4943V69.5723C382.108 66.8266 381.009 64.569 378.813 62.7996C376.677 60.9691 374.084 60.0539 371.033 60.0539C366.396 60.0539 362.674 61.9454 359.867 65.7283L352.18 60.42C354.315 57.5523 356.969 55.3557 360.142 53.8303C363.376 52.3049 367.006 51.5422 371.033 51.5422C377.684 51.5422 382.809 53.2202 386.409 56.576C390.07 59.8708 391.901 64.5385 391.901 70.5791V98.4021H382.108V92.8192H381.558C380.094 94.8937 378.233 96.6022 375.976 97.9445C373.718 99.2258 371.033 99.8665 367.921 99.8665ZM369.569 91.5379C371.826 91.5379 373.901 90.9887 375.792 89.8905C377.745 88.7312 379.27 87.2363 380.369 85.4058C381.528 83.5143 382.108 81.5008 382.108 79.3653C378.874 77.5958 375.426 76.7111 371.765 76.7111C368.41 76.7111 365.786 77.4433 363.894 78.9077C362.003 80.372 361.057 82.233 361.057 84.4906C361.057 86.5651 361.881 88.2736 363.528 89.6159C365.237 90.8972 367.25 91.5379 369.569 91.5379Z" fill="#5A5A5A"/>
<path d="M325.684 99.8661C322.389 99.8661 319.43 99.1644 316.806 97.7611C314.244 96.3577 312.322 94.5882 311.04 92.4527H310.491V98.4017H300.973V32.8711H311.04V52.5486L310.491 58.8637H311.04C312.322 56.7892 314.244 55.0502 316.806 53.6469C319.43 52.2435 322.389 51.5418 325.684 51.5418C329.589 51.5418 333.189 52.5791 336.484 54.6536C339.84 56.7281 342.494 59.6264 344.446 63.3483C346.46 67.0093 347.466 71.1278 347.466 75.704C347.466 80.2801 346.46 84.3987 344.446 88.0596C342.494 91.7205 339.84 94.6188 336.484 96.7543C333.189 98.8288 329.589 99.8661 325.684 99.8661ZM323.945 90.6222C326.325 90.6222 328.521 90.0121 330.535 88.7918C332.609 87.5715 334.257 85.8325 335.477 83.575C336.758 81.2564 337.399 78.6327 337.399 75.704C337.399 72.7752 336.758 70.1821 335.477 67.9245C334.257 65.6059 332.609 63.8364 330.535 62.6161C328.521 61.3958 326.325 60.7857 323.945 60.7857C321.565 60.7857 319.338 61.3958 317.264 62.6161C315.25 63.8364 313.603 65.5754 312.322 67.833C311.101 70.0905 310.491 72.7142 310.491 75.704C310.491 78.6937 311.101 81.3174 312.322 83.575C313.603 85.8325 315.25 87.5715 317.264 88.7918C319.338 90.0121 321.565 90.6222 323.945 90.6222Z" fill="#5A5A5A"/>
<path d="M273.192 99.8666C268.738 99.8666 264.711 98.8294 261.111 96.7548C257.572 94.6803 254.795 91.8126 252.782 88.1516C250.768 84.4297 249.762 80.2807 249.762 75.7045C249.762 71.3114 250.707 67.2844 252.599 63.6234C254.551 59.9015 257.267 56.9727 260.745 54.8372C264.222 52.6406 268.188 51.5424 272.643 51.5424C277.219 51.5424 281.185 52.5491 284.541 54.5626C287.957 56.5761 290.551 59.3828 292.32 62.9828C294.089 66.5217 294.974 70.6097 294.974 75.2469C294.974 75.796 294.944 76.3452 294.883 76.8943C294.822 77.4434 294.791 77.7485 294.791 77.8095H259.829C260.134 81.9586 261.629 85.1619 264.314 87.4195C266.999 89.677 270.049 90.8058 273.466 90.8058C278.714 90.8058 282.741 88.3652 285.547 83.484L294.15 87.6025C292.137 91.3245 289.33 94.3142 285.73 96.5718C282.191 98.7683 278.012 99.8666 273.192 99.8666ZM284.724 70.1216C284.602 68.6572 284.113 67.1623 283.259 65.6369C282.405 64.1115 281.063 62.8302 279.232 61.793C277.463 60.6947 275.236 60.1455 272.551 60.1455C269.561 60.1455 266.968 61.0608 264.772 62.8912C262.636 64.7217 261.172 67.1318 260.378 70.1216H284.724Z" fill="#5A5A5A"/>
<path d="M221.822 53.0066H231.341V59.7794H231.89C232.866 57.4608 234.636 55.5388 237.198 54.0134C239.761 52.427 242.384 51.6338 245.069 51.6338C247.266 51.6338 249.066 51.9389 250.469 52.549V63.0742C248.395 62.0369 246.076 61.5183 243.513 61.5183C240.218 61.5183 237.442 62.7996 235.185 65.3623C232.988 67.8639 231.89 70.9452 231.89 74.6061V98.4021H221.822V53.0066Z" fill="#5A5A5A"/>
<path d="M207.452 45.3184C205.561 45.3184 203.944 44.6777 202.602 43.3964C201.32 42.0541 200.68 40.4371 200.68 38.5457C200.68 36.6542 201.32 35.0678 202.602 33.7865C203.944 32.4441 205.561 31.7729 207.452 31.7729C209.344 31.7729 210.93 32.4441 212.212 33.7865C213.554 35.0678 214.225 36.6542 214.225 38.5457C214.225 40.4371 213.554 42.0541 212.212 43.3964C210.93 44.6777 209.344 45.3184 207.452 45.3184ZM202.419 53.0063H212.486V98.4018H202.419V53.0063Z" fill="#5A5A5A"/>
<path d="M156.562 32.8712H196.375V42.6642H166.813V61.518H193.446V71.2194H166.813V98.4018H156.562V32.8712Z" fill="#5A5A5A"/>
<path d="M31.6581 118.567C36.7104 120.601 42.1915 121.807 47.9467 122.008C55.7355 122.28 63.1422 120.67 69.7635 117.611C61.8234 114.492 54.6322 109.929 48.4949 104.257C44.5166 110.627 38.6325 115.658 31.6581 118.567Z" fill="#FF9100"/>
<path d="M48.4923 104.259C34.4827 91.302 25.9838 72.5484 26.7021 51.979C26.7254 51.311 26.7607 50.6435 26.8019 49.9762C24.2928 49.3273 21.6734 48.9313 18.9777 48.8371C15.1191 48.7024 11.3823 49.181 7.85452 50.1744C4.11472 56.7255 1.85787 64.242 1.57672 72.2932C0.851127 93.0713 13.4253 111.227 31.6556 118.569C38.63 115.66 44.5139 110.635 48.4923 104.259Z" fill="#FFC400"/>
<path d="M48.4937 104.258C51.7509 99.0459 53.7258 92.9348 53.9557 86.3506C54.5605 69.0316 42.9175 54.133 26.8033 49.9757C26.762 50.643 26.7268 51.3105 26.7035 51.9785C25.9852 72.5479 34.484 91.3015 48.4937 104.258Z" fill="#FF9100"/>
<path d="M52.1543 1.29291C42.9766 8.64534 35.7294 18.3402 31.3447 29.5084C28.8344 35.9054 27.2569 42.7768 26.7964 49.9798C42.9106 54.1372 54.5536 69.0358 53.9488 86.3548C53.7189 92.939 51.7382 99.044 48.4868 104.263C54.6239 109.941 61.8153 114.497 69.7555 117.616C85.693 110.249 97.0006 94.3967 97.6554 75.6462C98.0796 63.4978 93.4121 52.6704 86.8167 43.5311C79.8515 33.8654 52.1543 1.29291 52.1543 1.29291Z" fill="#DD2C00"/>
<g filter="url(#filter0_d_47_998)">
<circle cx="100" cy="90" r="30" fill="white"/>
<path d="M112.01 97.134V82.869L106.958 77.817L110.137 74.637L116.5 81V97.155L116.49 97.161V99.0045L110.132 105.363L106.958 102.187L112.01 97.134ZM87.9895 97.1295L93.0415 102.183L89.863 105.363L83.5 99V82.845L83.5105 82.839V80.9955L89.8675 74.637L93.0415 77.8125L87.9895 82.866V97.131V97.1295ZM93.2515 92.2545C92.653 92.2545 92.079 92.0167 91.6557 91.5935C91.2325 91.1703 90.9948 90.5962 90.9948 89.9977C90.9948 89.3992 91.2325 88.8252 91.6557 88.4019C92.079 87.9787 92.653 87.741 93.2515 87.741C93.8498 87.741 94.4237 87.9786 94.8467 88.4017C95.2698 88.8248 95.5075 89.3986 95.5075 89.997C95.5075 90.5953 95.2698 91.1691 94.8467 91.5922C94.4237 92.0153 93.8498 92.253 93.2515 92.253V92.2545ZM99.9985 92.2545C99.4 92.2545 98.826 92.0167 98.4027 91.5935C97.9795 91.1703 97.7418 90.5962 97.7418 89.9977C97.7418 89.3992 97.9795 88.8252 98.4027 88.4019C98.826 87.9787 99.4 87.741 99.9985 87.741C100.597 87.741 101.171 87.9786 101.594 88.4017C102.017 88.8248 102.255 89.3986 102.255 89.997C102.255 90.5953 102.017 91.1691 101.594 91.5922C101.171 92.0153 100.597 92.253 99.9985 92.253V92.2545ZM106.745 92.2545C106.147 92.2545 105.573 92.0167 105.15 91.5935C104.727 91.1703 104.489 90.5962 104.489 89.9977C104.489 89.3992 104.727 88.8252 105.15 88.4019C105.573 87.9787 106.147 87.741 106.745 87.741C107.344 87.741 107.918 87.9786 108.341 88.4017C108.764 88.8248 109.001 89.3986 109.001 89.997C109.001 90.5953 108.764 91.1691 108.341 91.5922C107.918 92.0153 107.344 92.253 106.745 92.253V92.2545Z" fill="#1F1F1F"/>
</g>
<defs>
<filter id="filter0_d_47_998" x="68" y="58.6704" width="64" height="64" filterUnits="userSpaceOnUse" color-interpolation-filters="sRGB">
<feFlood flood-opacity="0" result="BackgroundImageFix"/>
<feColorMatrix in="SourceAlpha" type="matrix" values="0 0 0 0 0 0 0 0 0 0 0 0 0 0 0 0 0 0 127 0" result="hardAlpha"/>
<feOffset dy="0.670408"/>
<feGaussianBlur stdDeviation="1"/>
<feComposite in2="hardAlpha" operator="out"/>
<feColorMatrix type="matrix" values="0 0 0 0 0 0 0 0 0 0 0 0 0 0 0 0 0 0 0.3 0"/>
<feBlend mode="normal" in2="BackgroundImageFix" result="effect1_dropShadow_47_998"/>
<feBlend mode="normal" in="SourceGraphic" in2="effect1_dropShadow_47_998" result="shape"/>
</filter>
</defs>
</svg>
