<svg width="1243" height="128" viewBox="0 0 1243 128" fill="none" xmlns="http://www.w3.org/2000/svg">
<path d="M506.53 33.5813H528.777C532.392 33.5813 535.763 34.4087 538.889 36.0634C542.014 37.7181 544.496 40.0469 546.335 43.0499C548.235 45.9916 549.185 49.3316 549.185 53.07C549.185 56.1343 548.48 58.984 547.07 61.6193C545.722 64.2545 543.822 66.4608 541.371 68.2381C538.981 70.0154 536.315 71.2104 533.373 71.8233L533.189 72.0991L551.758 99.0339V99.4016H542.566L524.64 72.5587H514.252V99.4016H506.53V33.5813ZM528.317 65.2964C530.584 65.2964 532.699 64.7755 534.66 63.7336C536.682 62.6918 538.276 61.2516 539.44 59.413C540.666 57.5132 541.279 55.3988 541.279 53.07C541.279 51.0476 540.758 49.1171 539.716 47.2785C538.674 45.44 537.203 43.9385 535.303 42.7741C533.465 41.6097 531.32 41.0275 528.868 41.0275H514.252V65.2964H528.317ZM576.963 100.872C572.489 100.872 568.475 99.8 564.92 97.655C561.365 95.51 558.577 92.5683 556.555 88.8299C554.593 85.0302 553.613 80.7709 553.613 76.0519C553.613 71.5168 554.532 67.3494 556.371 63.5498C558.271 59.7501 560.936 56.7165 564.368 54.4489C567.8 52.1814 571.784 51.0476 576.319 51.0476C580.915 51.0476 584.899 52.0894 588.27 54.1731C591.64 56.1955 594.214 59.0147 595.992 62.6305C597.83 66.2463 598.749 70.3831 598.749 75.0407C598.749 75.96 598.657 76.7567 598.474 77.4309H561.427C561.611 80.9854 562.469 83.9884 564.001 86.4398C565.533 88.8912 567.463 90.7298 569.792 91.9555C572.182 93.1812 574.664 93.794 577.238 93.794C583.244 93.794 587.871 90.9749 591.119 85.3367L597.738 88.5541C595.716 92.3538 592.958 95.3568 589.465 97.5631C586.033 99.7693 581.865 100.872 576.963 100.872ZM590.476 70.9959C590.353 69.0348 589.802 67.0737 588.821 65.1125C587.841 63.1514 586.278 61.4967 584.133 60.1484C582.049 58.8002 579.414 58.126 576.227 58.126C572.55 58.126 569.424 59.3211 566.85 61.7112C564.338 64.04 562.683 67.135 561.886 70.9959H590.476ZM621.489 100.872C618.057 100.872 614.992 100.198 612.296 98.85C609.599 97.5018 607.516 95.6632 606.045 93.3344C604.574 90.9443 603.838 88.2477 603.838 85.2447C603.838 80.2806 605.708 76.4197 609.446 73.6618C613.184 70.8427 617.903 69.4331 623.603 69.4331C626.422 69.4331 629.027 69.7396 631.417 70.3524C633.868 70.9653 635.737 71.6701 637.024 72.4668V69.617C637.024 66.1237 635.799 63.3353 633.347 61.2516C630.896 59.1066 627.801 58.0341 624.063 58.0341C621.427 58.0341 619.007 58.6163 616.8 59.7807C614.594 60.8839 612.847 62.4466 611.56 64.469L605.677 60.0565C607.516 57.2374 610.028 55.0311 613.215 53.4377C616.463 51.8443 620.048 51.0476 623.971 51.0476C630.344 51.0476 635.339 52.7329 638.955 56.1036C642.632 59.413 644.471 63.9481 644.471 69.7089V99.4016H637.024V92.6909H636.657C635.308 94.9584 633.286 96.8889 630.589 98.4823C627.893 100.076 624.859 100.872 621.489 100.872ZM622.224 93.9779C624.859 93.9779 627.311 93.3037 629.578 91.9555C631.846 90.6072 633.654 88.7993 635.002 86.5317C636.35 84.2642 637.024 81.7821 637.024 79.0856C635.554 78.105 633.746 77.3083 631.601 76.6954C629.456 76.0826 627.188 75.7762 624.798 75.7762C620.508 75.7762 617.26 76.6648 615.054 78.4421C612.909 80.2193 611.836 82.5175 611.836 85.3367C611.836 87.9106 612.817 89.9943 614.778 91.5877C616.739 93.1812 619.221 93.9779 622.224 93.9779ZM653.502 33.5813H661.316V99.4016H653.502V33.5813ZM689.522 100.137C687.622 100.137 685.845 99.8306 684.19 99.2178C682.596 98.6049 681.248 97.7776 680.145 96.7357C678.919 95.5713 678 94.223 677.387 92.6909C676.774 91.1588 676.468 89.2896 676.468 87.0833V59.5969H668.286V52.5184H676.468V39.2808H684.282V52.5184H695.681V59.5969H684.282V85.1528C684.282 87.7268 684.772 89.6266 685.753 90.8523C686.917 92.2006 688.602 92.8747 690.809 92.8747C692.586 92.8747 694.302 92.3538 695.957 91.312V98.942C695.037 99.371 694.087 99.6774 693.107 99.8613C692.188 100.045 690.992 100.137 689.522 100.137ZM708.375 43.8772C706.843 43.8772 705.526 43.3256 704.423 42.2225C703.319 41.1194 702.768 39.8017 702.768 38.2696C702.768 36.7375 703.319 35.4505 704.423 34.4087C705.526 33.3055 706.843 32.754 708.375 32.754C709.908 32.754 711.225 33.3055 712.328 34.4087C713.431 35.4505 713.983 36.7375 713.983 38.2696C713.983 39.8017 713.431 41.1194 712.328 42.2225C711.286 43.3256 709.969 43.8772 708.375 43.8772ZM704.514 52.5184H712.236V99.4016H704.514V52.5184ZM722.678 52.5184H730.124V59.413H730.492C731.84 57.0229 733.863 55.0311 736.559 53.4377C739.256 51.8443 742.106 51.0476 745.109 51.0476C748.54 51.0476 751.513 51.8749 754.026 53.5296C756.599 55.1843 758.438 57.3906 759.541 60.1484C761.196 57.3906 763.372 55.1843 766.068 53.5296C768.826 51.8749 772.013 51.0476 775.629 51.0476C781.022 51.0476 785.066 52.7023 787.763 56.0117C790.521 59.2598 791.9 63.703 791.9 69.3412V99.4016H784.178V70.5363C784.178 66.185 783.289 63.0288 781.512 61.0677C779.735 59.1066 777.099 58.126 773.606 58.126C771.277 58.126 769.163 58.8002 767.263 60.1484C765.363 61.4967 763.862 63.3046 762.759 65.5722C761.717 67.8397 761.196 70.2911 761.196 72.9264V99.4016H753.382V70.6282C753.382 66.2157 752.493 63.0288 750.716 61.0677C748.939 59.1066 746.334 58.126 742.902 58.126C740.573 58.126 738.459 58.8308 736.559 60.2404C734.659 61.5886 733.158 63.4272 732.055 65.756C731.013 68.0236 730.492 70.475 730.492 73.1103V99.4016H722.678V52.5184ZM822.144 100.872C817.67 100.872 813.656 99.8 810.101 97.655C806.547 95.51 803.758 92.5683 801.736 88.8299C799.775 85.0302 798.794 80.7709 798.794 76.0519C798.794 71.5168 799.714 67.3494 801.552 63.5498C803.452 59.7501 806.118 56.7165 809.55 54.4489C812.982 52.1814 816.965 51.0476 821.501 51.0476C826.097 51.0476 830.08 52.0894 833.451 54.1731C836.822 56.1955 839.396 59.0147 841.173 62.6305C843.012 66.2463 843.931 70.3831 843.931 75.0407C843.931 75.96 843.839 76.7567 843.655 77.4309H806.608C806.792 80.9854 807.65 83.9884 809.182 86.4398C810.714 88.8912 812.645 90.7298 814.974 91.9555C817.364 93.1812 819.846 93.794 822.42 93.794C828.426 93.794 833.053 90.9749 836.301 85.3367L842.92 88.5541C840.897 92.3538 838.139 95.3568 834.646 97.5631C831.214 99.7693 827.047 100.872 822.144 100.872ZM835.657 70.9959C835.535 69.0348 834.983 67.0737 834.003 65.1125C833.022 63.1514 831.459 61.4967 829.314 60.1484C827.231 58.8002 824.595 58.126 821.409 58.126C817.731 58.126 814.606 59.3211 812.032 61.7112C809.519 64.04 807.865 67.135 807.068 70.9959H835.657ZM872.327 33.5813H892.184C898.925 33.5813 904.808 34.9909 909.834 37.81C914.859 40.5678 918.72 44.4288 921.417 49.3929C924.113 54.357 925.462 60.0565 925.462 66.4915C925.462 72.9264 924.113 78.6259 921.417 83.59C918.72 88.5541 914.859 92.4457 909.834 95.2649C904.808 98.0227 898.925 99.4016 892.184 99.4016H872.327V33.5813ZM892.184 91.9555C899.967 91.9555 906.126 89.7185 910.661 85.2447C915.258 80.7709 917.556 74.5198 917.556 66.4915C917.556 58.4631 915.258 52.212 910.661 47.7382C906.126 43.2644 899.967 41.0275 892.184 41.0275H880.049V91.9555H892.184ZM948.547 100.872C945.115 100.872 942.051 100.198 939.354 98.85C936.658 97.5018 934.574 95.6632 933.103 93.3344C931.632 90.9443 930.897 88.2477 930.897 85.2447C930.897 80.2806 932.766 76.4197 936.504 73.6618C940.243 70.8427 944.962 69.4331 950.661 69.4331C953.48 69.4331 956.085 69.7396 958.475 70.3524C960.927 70.9653 962.796 71.6701 964.083 72.4668V69.617C964.083 66.1237 962.857 63.3353 960.406 61.2516C957.954 59.1066 954.859 58.0341 951.121 58.0341C948.486 58.0341 946.065 58.6163 943.859 59.7807C941.652 60.8839 939.906 62.4466 938.619 64.469L932.735 60.0565C934.574 57.2374 937.087 55.0311 940.273 53.4377C943.522 51.8443 947.107 51.0476 951.029 51.0476C957.403 51.0476 962.397 52.7329 966.013 56.1036C969.69 59.413 971.529 63.9481 971.529 69.7089V99.4016H964.083V92.6909H963.715C962.367 94.9584 960.344 96.8889 957.648 98.4823C954.951 100.076 951.918 100.872 948.547 100.872ZM949.282 93.9779C951.918 93.9779 954.369 93.3037 956.637 91.9555C958.904 90.6072 960.712 88.7993 962.06 86.5317C963.409 84.2642 964.083 81.7821 964.083 79.0856C962.612 78.105 960.804 77.3083 958.659 76.6954C956.514 76.0826 954.246 75.7762 951.856 75.7762C947.566 75.7762 944.318 76.6648 942.112 78.4421C939.967 80.2193 938.894 82.5175 938.894 85.3367C938.894 87.9106 939.875 89.9943 941.836 91.5877C943.797 93.1812 946.279 93.9779 949.282 93.9779ZM997.681 100.137C995.781 100.137 994.004 99.8306 992.349 99.2178C990.756 98.6049 989.407 97.7776 988.304 96.7357C987.079 95.5713 986.159 94.223 985.546 92.6909C984.934 91.1588 984.627 89.2896 984.627 87.0833V59.5969H976.446V52.5184H984.627V39.2808H992.441V52.5184H1003.84V59.5969H992.441V85.1528C992.441 87.7268 992.931 89.6266 993.912 90.8523C995.076 92.2006 996.762 92.8747 998.968 92.8747C1000.75 92.8747 1002.46 92.3538 1004.12 91.312V98.942C1003.2 99.371 1002.25 99.6774 1001.27 99.8613C1000.35 100.045 999.152 100.137 997.681 100.137ZM1025.58 100.872C1022.14 100.872 1019.08 100.198 1016.38 98.85C1013.69 97.5018 1011.6 95.6632 1010.13 93.3344C1008.66 90.9443 1007.93 88.2477 1007.93 85.2447C1007.93 80.2806 1009.79 76.4197 1013.53 73.6618C1017.27 70.8427 1021.99 69.4331 1027.69 69.4331C1030.51 69.4331 1033.11 69.7396 1035.5 70.3524C1037.96 70.9653 1039.82 71.6701 1041.11 72.4668V69.617C1041.11 66.1237 1039.89 63.3353 1037.43 61.2516C1034.98 59.1066 1031.89 58.0341 1028.15 58.0341C1025.51 58.0341 1023.09 58.6163 1020.89 59.7807C1018.68 60.8839 1016.93 62.4466 1015.65 64.469L1009.76 60.0565C1011.6 57.2374 1014.12 55.0311 1017.3 53.4377C1020.55 51.8443 1024.14 51.0476 1028.06 51.0476C1034.43 51.0476 1039.43 52.7329 1043.04 56.1036C1046.72 59.413 1048.56 63.9481 1048.56 69.7089V99.4016H1041.11V92.6909H1040.74C1039.4 94.9584 1037.37 96.8889 1034.68 98.4823C1031.98 100.076 1028.95 100.872 1025.58 100.872ZM1026.31 93.9779C1028.95 93.9779 1031.4 93.3037 1033.67 91.9555C1035.93 90.6072 1037.74 88.7993 1039.09 86.5317C1040.44 84.2642 1041.11 81.7821 1041.11 79.0856C1039.64 78.105 1037.83 77.3083 1035.69 76.6954C1033.54 76.0826 1031.28 75.7762 1028.89 75.7762C1024.6 75.7762 1021.35 76.6648 1019.14 78.4421C1017 80.2193 1015.92 82.5175 1015.92 85.3367C1015.92 87.9106 1016.9 89.9943 1018.87 91.5877C1020.83 93.1812 1023.31 93.9779 1026.31 93.9779ZM1081.4 100.872C1077.84 100.872 1074.63 100.076 1071.75 98.4823C1068.93 96.8276 1066.81 94.8359 1065.4 92.507H1065.04V99.4016H1057.59V33.5813H1065.4V52.9781L1065.04 59.5049H1065.4C1066.81 57.1148 1068.93 55.1231 1071.75 53.5296C1074.63 51.8749 1077.84 51.0476 1081.4 51.0476C1085.57 51.0476 1089.37 52.1201 1092.8 54.2651C1096.23 56.41 1098.93 59.3824 1100.89 63.1821C1102.85 66.9817 1103.83 71.2411 1103.83 75.96C1103.83 80.7403 1102.85 85.0302 1100.89 88.8299C1098.93 92.5683 1096.23 95.51 1092.8 97.655C1089.37 99.8 1085.57 100.872 1081.4 100.872ZM1080.48 93.794C1083.18 93.794 1085.72 93.0586 1088.11 91.5877C1090.5 90.1169 1092.4 88.0332 1093.81 85.3367C1095.28 82.5788 1096.02 79.4533 1096.02 75.96C1096.02 72.4668 1095.28 69.3719 1093.81 66.6753C1092.4 63.9175 1090.5 61.8031 1088.11 60.3323C1085.72 58.8614 1083.18 58.126 1080.48 58.126C1077.78 58.126 1075.24 58.8614 1072.85 60.3323C1070.46 61.8031 1068.56 63.8868 1067.15 66.5834C1065.74 69.2799 1065.04 72.4055 1065.04 75.96C1065.04 79.5146 1065.74 82.6401 1067.15 85.3367C1068.56 88.0332 1070.46 90.1169 1072.85 91.5877C1075.24 93.0586 1077.78 93.794 1080.48 93.794ZM1126.04 100.872C1122.6 100.872 1119.54 100.198 1116.84 98.85C1114.15 97.5018 1112.06 95.6632 1110.59 93.3344C1109.12 90.9443 1108.39 88.2477 1108.39 85.2447C1108.39 80.2806 1110.25 76.4197 1113.99 73.6618C1117.73 70.8427 1122.45 69.4331 1128.15 69.4331C1130.97 69.4331 1133.57 69.7396 1135.96 70.3524C1138.42 70.9653 1140.28 71.6701 1141.57 72.4668V69.617C1141.57 66.1237 1140.35 63.3353 1137.89 61.2516C1135.44 59.1066 1132.35 58.0341 1128.61 58.0341C1125.97 58.0341 1123.55 58.6163 1121.35 59.7807C1119.14 60.8839 1117.39 62.4466 1116.11 64.469L1110.22 60.0565C1112.06 57.2374 1114.58 55.0311 1117.76 53.4377C1121.01 51.8443 1124.6 51.0476 1128.52 51.0476C1134.89 51.0476 1139.89 52.7329 1143.5 56.1036C1147.18 59.413 1149.02 63.9481 1149.02 69.7089V99.4016H1141.57V92.6909H1141.2C1139.86 94.9584 1137.83 96.8889 1135.14 98.4823C1132.44 100.076 1129.41 100.872 1126.04 100.872ZM1126.77 93.9779C1129.41 93.9779 1131.86 93.3037 1134.13 91.9555C1136.39 90.6072 1138.2 88.7993 1139.55 86.5317C1140.9 84.2642 1141.57 81.7821 1141.57 79.0856C1140.1 78.105 1138.29 77.3083 1136.15 76.6954C1134 76.0826 1131.74 75.7762 1129.35 75.7762C1125.06 75.7762 1121.81 76.6648 1119.6 78.4421C1117.46 80.2193 1116.38 82.5175 1116.38 85.3367C1116.38 87.9106 1117.36 89.9943 1119.33 91.5877C1121.29 93.1812 1123.77 93.9779 1126.77 93.9779ZM1173.96 100.872C1168.94 100.872 1164.74 99.708 1161.37 97.3792C1158 94.9891 1155.61 91.9555 1154.2 88.2783L1161.19 85.1528C1162.35 87.9719 1164.07 90.1475 1166.33 91.6797C1168.66 93.2118 1171.21 93.9779 1173.96 93.9779C1176.91 93.9779 1179.42 93.3957 1181.5 92.2312C1183.59 91.0055 1184.63 89.2896 1184.63 87.0833C1184.63 85.1222 1183.8 83.5594 1182.15 82.395C1180.49 81.1693 1177.89 80.1274 1174.33 79.2694L1168.63 77.7986C1164.89 76.8793 1161.83 75.3165 1159.44 73.1103C1157.05 70.904 1155.85 68.0542 1155.85 64.561C1155.85 61.8644 1156.65 59.5049 1158.24 57.4825C1159.9 55.3988 1162.07 53.8054 1164.77 52.7023C1167.47 51.5992 1170.38 51.0476 1173.5 51.0476C1177.61 51.0476 1181.26 51.9362 1184.44 53.7135C1187.69 55.4908 1189.99 57.9728 1191.34 61.1596L1184.54 64.2852C1182.45 60.1178 1178.74 58.0341 1173.41 58.0341C1170.84 58.0341 1168.57 58.647 1166.61 59.8727C1164.71 61.0371 1163.76 62.5386 1163.76 64.3771C1163.76 66.0931 1164.43 67.5027 1165.78 68.6058C1167.13 69.6476 1169.15 70.5056 1171.85 71.1798L1178.65 72.9264C1183.25 74.0908 1186.71 75.8374 1189.04 78.1663C1191.37 80.4338 1192.53 83.2223 1192.53 86.5317C1192.53 89.4121 1191.71 91.9555 1190.05 94.1617C1188.4 96.3067 1186.16 97.9614 1183.34 99.1258C1180.52 100.29 1177.4 100.872 1173.96 100.872ZM1220.53 100.872C1216.06 100.872 1212.04 99.8 1208.49 97.655C1204.93 95.51 1202.14 92.5683 1200.12 88.8299C1198.16 85.0302 1197.18 80.7709 1197.18 76.0519C1197.18 71.5168 1198.1 67.3494 1199.94 63.5498C1201.84 59.7501 1204.5 56.7165 1207.93 54.4489C1211.37 52.1814 1215.35 51.0476 1219.89 51.0476C1224.48 51.0476 1228.47 52.0894 1231.84 54.1731C1235.21 56.1955 1237.78 59.0147 1239.56 62.6305C1241.4 66.2463 1242.32 70.3831 1242.32 75.0407C1242.32 75.96 1242.22 76.7567 1242.04 77.4309H1204.99C1205.18 80.9854 1206.03 83.9884 1207.57 86.4398C1209.1 88.8912 1211.03 90.7298 1213.36 91.9555C1215.75 93.1812 1218.23 93.794 1220.8 93.794C1226.81 93.794 1231.44 90.9749 1234.69 85.3367L1241.3 88.5541C1239.28 92.3538 1236.52 95.3568 1233.03 97.5631C1229.6 99.7693 1225.43 100.872 1220.53 100.872ZM1234.04 70.9959C1233.92 69.0348 1233.37 67.0737 1232.39 65.1125C1231.41 63.1514 1229.84 61.4967 1227.7 60.1484C1225.62 58.8002 1222.98 58.126 1219.79 58.126C1216.12 58.126 1212.99 59.3211 1210.42 61.7112C1207.9 64.04 1206.25 67.135 1205.45 70.9959H1234.04Z" fill="#5A5A5A"/>
<path d="M461.612 99.8665C457.157 99.8665 453.13 98.8292 449.531 96.7547C445.992 94.6802 443.215 91.8125 441.202 88.1515C439.188 84.4296 438.182 80.2805 438.182 75.7044C438.182 71.3113 439.127 67.2842 441.019 63.6233C442.971 59.9014 445.687 56.9726 449.164 54.8371C452.642 52.6405 456.608 51.5422 461.062 51.5422C465.639 51.5422 469.605 52.549 472.96 54.5625C476.377 56.576 478.97 59.3827 480.74 62.9826C482.509 66.5215 483.394 70.6096 483.394 75.2467C483.394 75.7959 483.364 76.345 483.303 76.8942C483.242 77.4433 483.211 77.7484 483.211 77.8094H448.249C448.554 81.9585 450.049 85.1618 452.734 87.4193C455.419 89.6769 458.469 90.8057 461.886 90.8057C467.133 90.8057 471.161 88.3651 473.967 83.4838L482.57 87.6024C480.557 91.3243 477.75 94.3141 474.15 96.5717C470.611 98.7682 466.432 99.8665 461.612 99.8665ZM473.144 70.1215C473.021 68.6571 472.533 67.1622 471.679 65.6368C470.825 64.1114 469.483 62.8301 467.652 61.7928C465.883 60.6946 463.656 60.1454 460.971 60.1454C457.981 60.1454 455.388 61.0607 453.191 62.8911C451.056 64.7216 449.592 67.1317 448.798 70.1215H473.144Z" fill="#5A5A5A"/>
<path d="M416.087 99.8665C410.9 99.8665 406.599 98.6767 403.182 96.2971C399.826 93.8565 397.446 90.8057 396.043 87.1448L405.012 83.3008C406.05 85.8024 407.544 87.6939 409.497 88.9752C411.51 90.2566 413.707 90.8972 416.087 90.8972C418.588 90.8972 420.632 90.4396 422.219 89.5244C423.805 88.5481 424.598 87.2973 424.598 85.7719C424.598 84.3076 423.958 83.1177 422.676 82.2025C421.395 81.2263 419.29 80.3721 416.361 79.6399L410.138 78.1755C406.721 77.3823 403.761 75.9179 401.26 73.7824C398.819 71.5858 397.599 68.7486 397.599 65.2707C397.599 61.0607 399.338 57.7353 402.816 55.2947C406.294 52.7931 410.565 51.5422 415.629 51.5422C419.839 51.5422 423.561 52.427 426.795 54.1964C430.09 55.9659 432.469 58.5285 433.934 61.8844L425.056 65.6368C424.202 63.7453 422.89 62.342 421.12 61.4267C419.351 60.5115 417.429 60.0539 415.354 60.0539C413.341 60.0539 411.571 60.5115 410.046 61.4267C408.521 62.281 407.758 63.4403 407.758 64.9046C407.758 66.186 408.277 67.2232 409.314 68.0164C410.412 68.8096 412.121 69.4808 414.439 70.0299L421.212 71.6773C425.788 72.8366 429.205 74.6061 431.462 76.9857C433.72 79.3043 434.849 82.111 434.849 85.4058C434.849 88.0905 434.025 90.5311 432.378 92.7277C430.791 94.9242 428.564 96.6632 425.696 97.9445C422.89 99.2258 419.686 99.8665 416.087 99.8665Z" fill="#5A5A5A"/>
<path d="M367.921 99.8665C364.688 99.8665 361.759 99.2258 359.135 97.9445C356.573 96.6022 354.529 94.7717 353.003 92.4531C351.539 90.0735 350.807 87.3888 350.807 84.3991C350.807 79.6399 352.576 75.8874 356.115 73.1417C359.715 70.396 364.261 69.0232 369.752 69.0232C374.572 69.0232 378.691 69.8469 382.108 71.4943V69.5723C382.108 66.8266 381.009 64.569 378.813 62.7996C376.677 60.9691 374.084 60.0539 371.033 60.0539C366.396 60.0539 362.674 61.9454 359.867 65.7283L352.18 60.42C354.315 57.5523 356.969 55.3557 360.142 53.8303C363.376 52.3049 367.006 51.5422 371.033 51.5422C377.684 51.5422 382.809 53.2202 386.409 56.576C390.07 59.8708 391.901 64.5385 391.901 70.5791V98.4021H382.108V92.8192H381.558C380.094 94.8937 378.233 96.6022 375.976 97.9445C373.718 99.2258 371.033 99.8665 367.921 99.8665ZM369.569 91.5379C371.826 91.5379 373.901 90.9887 375.792 89.8905C377.745 88.7312 379.27 87.2363 380.369 85.4058C381.528 83.5143 382.108 81.5008 382.108 79.3653C378.874 77.5958 375.426 76.7111 371.765 76.7111C368.41 76.7111 365.786 77.4433 363.894 78.9077C362.003 80.372 361.057 82.233 361.057 84.4906C361.057 86.5651 361.881 88.2736 363.528 89.6159C365.237 90.8972 367.25 91.5379 369.569 91.5379Z" fill="#5A5A5A"/>
<path d="M325.684 99.8661C322.389 99.8661 319.43 99.1644 316.806 97.7611C314.244 96.3577 312.322 94.5882 311.04 92.4527H310.491V98.4017H300.973V32.8711H311.04V52.5486L310.491 58.8637H311.04C312.322 56.7892 314.244 55.0502 316.806 53.6469C319.43 52.2435 322.389 51.5418 325.684 51.5418C329.589 51.5418 333.189 52.5791 336.484 54.6536C339.84 56.7281 342.494 59.6264 344.446 63.3483C346.46 67.0093 347.466 71.1278 347.466 75.704C347.466 80.2801 346.46 84.3987 344.446 88.0596C342.494 91.7205 339.84 94.6188 336.484 96.7543C333.189 98.8288 329.589 99.8661 325.684 99.8661ZM323.945 90.6222C326.325 90.6222 328.521 90.0121 330.535 88.7918C332.609 87.5715 334.257 85.8325 335.477 83.575C336.758 81.2564 337.399 78.6327 337.399 75.704C337.399 72.7752 336.758 70.1821 335.477 67.9245C334.257 65.6059 332.609 63.8364 330.535 62.6161C328.521 61.3958 326.325 60.7857 323.945 60.7857C321.565 60.7857 319.338 61.3958 317.264 62.6161C315.25 63.8364 313.603 65.5754 312.322 67.833C311.101 70.0905 310.491 72.7142 310.491 75.704C310.491 78.6937 311.101 81.3174 312.322 83.575C313.603 85.8325 315.25 87.5715 317.264 88.7918C319.338 90.0121 321.565 90.6222 323.945 90.6222Z" fill="#5A5A5A"/>
<path d="M273.192 99.8666C268.738 99.8666 264.711 98.8294 261.111 96.7548C257.572 94.6803 254.795 91.8126 252.782 88.1516C250.768 84.4297 249.762 80.2807 249.762 75.7045C249.762 71.3114 250.707 67.2844 252.599 63.6234C254.551 59.9015 257.267 56.9727 260.745 54.8372C264.222 52.6406 268.188 51.5424 272.643 51.5424C277.219 51.5424 281.185 52.5491 284.541 54.5626C287.957 56.5761 290.551 59.3828 292.32 62.9828C294.089 66.5217 294.974 70.6097 294.974 75.2469C294.974 75.796 294.944 76.3452 294.883 76.8943C294.822 77.4434 294.791 77.7485 294.791 77.8095H259.829C260.134 81.9586 261.629 85.1619 264.314 87.4195C266.999 89.677 270.049 90.8058 273.466 90.8058C278.714 90.8058 282.741 88.3652 285.547 83.484L294.15 87.6025C292.137 91.3245 289.33 94.3142 285.73 96.5718C282.191 98.7683 278.012 99.8666 273.192 99.8666ZM284.724 70.1216C284.602 68.6572 284.113 67.1623 283.259 65.6369C282.405 64.1115 281.063 62.8302 279.232 61.793C277.463 60.6947 275.236 60.1455 272.551 60.1455C269.561 60.1455 266.968 61.0608 264.772 62.8912C262.636 64.7217 261.172 67.1318 260.378 70.1216H284.724Z" fill="#5A5A5A"/>
<path d="M221.822 53.0066H231.341V59.7794H231.89C232.866 57.4608 234.636 55.5388 237.198 54.0134C239.761 52.427 242.384 51.6338 245.069 51.6338C247.266 51.6338 249.066 51.9389 250.469 52.549V63.0742C248.395 62.0369 246.076 61.5183 243.513 61.5183C240.218 61.5183 237.442 62.7996 235.185 65.3623C232.988 67.8639 231.89 70.9452 231.89 74.6061V98.4021H221.822V53.0066Z" fill="#5A5A5A"/>
<path d="M207.452 45.3184C205.561 45.3184 203.944 44.6777 202.602 43.3964C201.32 42.0541 200.68 40.4371 200.68 38.5457C200.68 36.6542 201.32 35.0678 202.602 33.7865C203.944 32.4441 205.561 31.7729 207.452 31.7729C209.344 31.7729 210.93 32.4441 212.212 33.7865C213.554 35.0678 214.225 36.6542 214.225 38.5457C214.225 40.4371 213.554 42.0541 212.212 43.3964C210.93 44.6777 209.344 45.3184 207.452 45.3184ZM202.419 53.0063H212.486V98.4018H202.419V53.0063Z" fill="#5A5A5A"/>
<path d="M156.562 32.8712H196.375V42.6642H166.813V61.518H193.446V71.2194H166.813V98.4018H156.562V32.8712Z" fill="#5A5A5A"/>
<path d="M31.6562 118.567C36.7084 120.601 42.1896 121.807 47.9447 122.008C55.7335 122.28 63.1403 120.67 69.7616 117.611C61.8214 114.492 54.6303 109.929 48.4929 104.257C44.5147 110.627 38.6305 115.658 31.6562 118.567Z" fill="#FF9100"/>
<path d="M48.4923 104.259C34.4827 91.302 25.9838 72.5484 26.7021 51.979C26.7254 51.311 26.7607 50.6435 26.8019 49.9762C24.2928 49.3273 21.6734 48.9313 18.9777 48.8371C15.1191 48.7024 11.3823 49.181 7.85452 50.1744C4.11472 56.7255 1.85787 64.242 1.57672 72.2932C0.851127 93.0713 13.4253 111.227 31.6556 118.569C38.63 115.66 44.5139 110.635 48.4923 104.259Z" fill="#FFC400"/>
<path d="M48.4937 104.258C51.7509 99.0459 53.7258 92.9348 53.9557 86.3506C54.5605 69.0316 42.9175 54.133 26.8033 49.9757C26.762 50.643 26.7268 51.3105 26.7035 51.9785C25.9852 72.5479 34.484 91.3015 48.4937 104.258Z" fill="#FF9100"/>
<path d="M52.1543 1.29291C42.9766 8.64534 35.7294 18.3402 31.3447 29.5084C28.8344 35.9054 27.2569 42.7768 26.7964 49.9798C42.9106 54.1372 54.5536 69.0358 53.9488 86.3548C53.7189 92.939 51.7382 99.044 48.4868 104.263C54.6239 109.941 61.8153 114.497 69.7555 117.616C85.693 110.249 97.0006 94.3967 97.6554 75.6462C98.0796 63.4978 93.4121 52.6704 86.8167 43.5311C79.8515 33.8654 52.1543 1.29291 52.1543 1.29291Z" fill="#DD2C00"/>
<g filter="url(#filter0_d_47_1003)">
<circle cx="100" cy="90" r="30" fill="white"/>
<path fill-rule="evenodd" clip-rule="evenodd" d="M86.5 94.5H113.5V100.503C113.5 100.896 113.423 101.286 113.273 101.649C113.123 102.013 112.903 102.343 112.625 102.621C112.347 102.9 112.017 103.121 111.653 103.271C111.29 103.422 110.901 103.5 110.507 103.5H89.4925C88.6985 103.498 87.9376 103.182 87.3766 102.62C86.8157 102.058 86.5004 101.297 86.5 100.503V94.5ZM86.5 79.488C86.5 77.838 87.8395 76.5 89.4925 76.5H110.507C112.16 76.5 113.5 77.85 113.5 79.488V90.012C113.5 91.662 112.16 93 110.507 93H89.4925C87.8395 93 86.5 91.65 86.5 90.012V79.488ZM89.5 79.5H110.5V84H89.5V79.5ZM89.5 87.7575C89.5 87.339 89.821 87 90.2575 87H91.7425C92.161 87 92.5 87.321 92.5 87.7575V89.2425C92.5016 89.3424 92.4831 89.4417 92.4456 89.5343C92.4081 89.6269 92.3524 89.7111 92.2817 89.7817C92.2111 89.8524 92.1269 89.9081 92.0343 89.9456C91.9417 89.9831 91.8424 90.0016 91.7425 90H90.2575C90.1576 90.0016 90.0583 89.9831 89.9657 89.9456C89.8731 89.9081 89.7889 89.8524 89.7183 89.7817C89.6476 89.7111 89.5919 89.6269 89.5544 89.5343C89.5169 89.4417 89.4984 89.3424 89.5 89.2425V87.7575ZM89.5 98.2575C89.5 97.839 89.821 97.5 90.2575 97.5H91.7425C92.161 97.5 92.5 97.821 92.5 98.2575V99.7425C92.5016 99.8424 92.4831 99.9417 92.4456 100.034C92.4081 100.127 92.3524 100.211 92.2817 100.282C92.2111 100.352 92.1269 100.408 92.0343 100.446C91.9417 100.483 91.8424 100.502 91.7425 100.5H90.2575C90.1576 100.502 90.0583 100.483 89.9657 100.446C89.8731 100.408 89.7889 100.352 89.7183 100.282C89.6476 100.211 89.5919 100.127 89.5544 100.034C89.5169 99.9417 89.4984 99.8424 89.5 99.7425V98.2575Z" fill="#1F1F1F"/>
</g>
<defs>
<filter id="filter0_d_47_1003" x="68" y="58.6704" width="64" height="64" filterUnits="userSpaceOnUse" color-interpolation-filters="sRGB">
<feFlood flood-opacity="0" result="BackgroundImageFix"/>
<feColorMatrix in="SourceAlpha" type="matrix" values="0 0 0 0 0 0 0 0 0 0 0 0 0 0 0 0 0 0 127 0" result="hardAlpha"/>
<feOffset dy="0.670408"/>
<feGaussianBlur stdDeviation="1"/>
<feComposite in2="hardAlpha" operator="out"/>
<feColorMatrix type="matrix" values="0 0 0 0 0 0 0 0 0 0 0 0 0 0 0 0 0 0 0.3 0"/>
<feBlend mode="normal" in2="BackgroundImageFix" result="effect1_dropShadow_47_1003"/>
<feBlend mode="normal" in="SourceGraphic" in2="effect1_dropShadow_47_1003" result="shape"/>
</filter>
</defs>
</svg>
