<svg width="625" height="127" viewBox="0 0 625 127" fill="none" xmlns="http://www.w3.org/2000/svg">
<path d="M506.53 33.1133H517.837L538.797 87.0749H539.164L560.124 33.1133H571.431V98.9336H563.709V57.1064L564.077 44.6043H563.709L542.198 98.9336H535.763L514.252 44.6043H513.884L514.252 57.1064V98.9336H506.53V33.1133ZM584.32 33.1133H592.042V91.4874H620.908V98.9336H584.32V33.1133Z" fill="white"/>
<path d="M461.612 99.3985C457.157 99.3985 453.13 98.3612 449.531 96.2867C445.992 94.2122 443.215 91.3444 441.202 87.6835C439.188 83.9616 438.182 79.8125 438.182 75.2364C438.182 70.8432 439.127 66.8162 441.019 63.1553C442.971 59.4333 445.687 56.5046 449.164 54.3691C452.642 52.1725 456.608 51.0742 461.062 51.0742C465.639 51.0742 469.605 52.081 472.96 54.0945C476.377 56.108 478.97 58.9147 480.74 62.5146C482.509 66.0535 483.394 70.1416 483.394 74.7787C483.394 75.3279 483.364 75.877 483.303 76.4262C483.242 76.9753 483.211 77.2804 483.211 77.3414H448.249C448.554 81.4904 450.049 84.6937 452.734 86.9513C455.419 89.2089 458.469 90.3377 461.886 90.3377C467.133 90.3377 471.161 87.8971 473.967 83.0158L482.57 87.1344C480.557 90.8563 477.75 93.8461 474.15 96.1036C470.611 98.3002 466.432 99.3985 461.612 99.3985ZM473.144 69.6534C473.021 68.1891 472.533 66.6942 471.679 65.1688C470.825 63.6434 469.483 62.3621 467.652 61.3248C465.883 60.2265 463.656 59.6774 460.971 59.6774C457.981 59.6774 455.388 60.5926 453.191 62.4231C451.056 64.2536 449.592 66.6637 448.798 69.6534H473.144Z" fill="white"/>
<path d="M416.087 99.3985C410.9 99.3985 406.599 98.2087 403.182 95.8291C399.826 93.3885 397.446 90.3377 396.043 86.6768L405.012 82.8328C406.05 85.3344 407.544 87.2259 409.497 88.5072C411.51 89.7885 413.707 90.4292 416.087 90.4292C418.588 90.4292 420.632 89.9716 422.219 89.0564C423.805 88.0801 424.598 86.8293 424.598 85.3039C424.598 83.8395 423.958 82.6497 422.676 81.7345C421.395 80.7582 419.29 79.904 416.361 79.1718L410.138 77.7075C406.721 76.9143 403.761 75.4499 401.26 73.3144C398.819 71.1178 397.599 68.2806 397.599 64.8027C397.599 60.5926 399.338 57.2673 402.816 54.8267C406.294 52.325 410.565 51.0742 415.629 51.0742C419.839 51.0742 423.561 51.9589 426.795 53.7284C430.09 55.4978 432.469 58.0605 433.934 61.4163L425.056 65.1688C424.202 63.2773 422.89 61.874 421.12 60.9587C419.351 60.0435 417.429 59.5859 415.354 59.5859C413.341 59.5859 411.571 60.0435 410.046 60.9587C408.521 61.8129 407.758 62.9722 407.758 64.4366C407.758 65.7179 408.277 66.7552 409.314 67.5484C410.412 68.3416 412.121 69.0128 414.439 69.5619L421.212 71.2093C425.788 72.3686 429.205 74.1381 431.462 76.5177C433.72 78.8363 434.849 81.643 434.849 84.9378C434.849 87.6225 434.025 90.0631 432.378 92.2597C430.791 94.4562 428.564 96.1952 425.696 97.4765C422.89 98.7578 419.686 99.3985 416.087 99.3985Z" fill="white"/>
<path d="M367.921 99.3985C364.688 99.3985 361.759 98.7578 359.135 97.4765C356.573 96.1342 354.529 94.3037 353.003 91.9851C351.539 89.6055 350.807 86.9208 350.807 83.9311C350.807 79.1719 352.576 75.4194 356.115 72.6737C359.715 69.928 364.261 68.5552 369.752 68.5552C374.572 68.5552 378.691 69.3789 382.108 71.0263V69.1043C382.108 66.3586 381.009 64.101 378.813 62.3316C376.677 60.5011 374.084 59.5859 371.033 59.5859C366.396 59.5859 362.674 61.4774 359.867 65.2603L352.18 59.952C354.315 57.0842 356.969 54.8877 360.142 53.3623C363.376 51.8369 367.006 51.0742 371.033 51.0742C377.684 51.0742 382.809 52.7521 386.409 56.108C390.07 59.4028 391.901 64.0705 391.901 70.111V97.9341H382.108V92.3512H381.558C380.094 94.4257 378.233 96.1342 375.976 97.4765C373.718 98.7578 371.033 99.3985 367.921 99.3985ZM369.569 91.0699C371.826 91.0699 373.901 90.5207 375.792 89.4224C377.745 88.2632 379.27 86.7683 380.369 84.9378C381.528 83.0463 382.108 81.0328 382.108 78.8973C378.874 77.1278 375.426 76.2431 371.765 76.2431C368.41 76.2431 365.786 76.9753 363.894 78.4397C362.003 79.904 361.057 81.765 361.057 84.0226C361.057 86.0971 361.881 87.8055 363.528 89.1479C365.237 90.4292 367.25 91.0699 369.569 91.0699Z" fill="white"/>
<path d="M325.684 99.3983C322.389 99.3983 319.43 98.6966 316.806 97.2933C314.244 95.8899 312.322 94.1205 311.04 91.9849H310.491V97.9339H300.973V32.4033H311.04V52.0808L310.491 58.3959H311.04C312.322 56.3214 314.244 54.5824 316.806 53.1791C319.43 51.7757 322.389 51.0741 325.684 51.0741C329.589 51.0741 333.189 52.1113 336.484 54.1858C339.84 56.2604 342.494 59.1586 344.446 62.8805C346.46 66.5415 347.466 70.66 347.466 75.2362C347.466 79.8123 346.46 83.9309 344.446 87.5918C342.494 91.2527 339.84 94.151 336.484 96.2865C333.189 98.361 329.589 99.3983 325.684 99.3983ZM323.945 90.1545C326.325 90.1545 328.521 89.5443 330.535 88.324C332.609 87.1037 334.257 85.3648 335.477 83.1072C336.758 80.7886 337.399 78.1649 337.399 75.2362C337.399 72.3074 336.758 69.7143 335.477 67.4567C334.257 65.1381 332.609 63.3687 330.535 62.1484C328.521 60.9281 326.325 60.3179 323.945 60.3179C321.565 60.3179 319.338 60.9281 317.264 62.1484C315.25 63.3687 313.603 65.1076 312.322 67.3652C311.101 69.6228 310.491 72.2464 310.491 75.2362C310.491 78.2259 311.101 80.8496 312.322 83.1072C313.603 85.3648 315.25 87.1037 317.264 88.324C319.338 89.5443 321.565 90.1545 323.945 90.1545Z" fill="white"/>
<path d="M273.192 99.399C268.738 99.399 264.711 98.3617 261.111 96.2872C257.572 94.2126 254.795 91.3449 252.782 87.684C250.768 83.9621 249.762 79.813 249.762 75.2368C249.762 70.8437 250.707 66.8167 252.599 63.1558C254.551 59.4338 257.267 56.5051 260.745 54.3695C264.222 52.173 268.188 51.0747 272.643 51.0747C277.219 51.0747 281.185 52.0815 284.541 54.095C287.957 56.1085 290.551 58.9152 292.32 62.5151C294.089 66.054 294.974 70.142 294.974 74.7792C294.974 75.3284 294.944 75.8775 294.883 76.4266C294.822 76.9758 294.791 77.2809 294.791 77.3419H259.829C260.134 81.4909 261.629 84.6942 264.314 86.9518C266.999 89.2094 270.049 90.3382 273.466 90.3382C278.714 90.3382 282.741 87.8975 285.547 83.0163L294.15 87.1349C292.137 90.8568 289.33 93.8466 285.73 96.1041C282.191 98.3007 278.012 99.399 273.192 99.399ZM284.724 69.6539C284.602 68.1896 284.113 66.6947 283.259 65.1693C282.405 63.6439 281.063 62.3626 279.232 61.3253C277.463 60.227 275.236 59.6779 272.551 59.6779C269.561 59.6779 266.968 60.5931 264.772 62.4236C262.636 64.2541 261.172 66.6642 260.378 69.6539H284.724Z" fill="white"/>
<path d="M221.822 52.5389H231.341V59.3116H231.89C232.866 56.993 234.636 55.071 237.198 53.5456C239.761 51.9592 242.384 51.166 245.069 51.166C247.266 51.166 249.066 51.4711 250.469 52.0812V62.6064C248.395 61.5692 246.076 61.0505 243.513 61.0505C240.218 61.0505 237.442 62.3318 235.185 64.8945C232.988 67.3961 231.89 70.4774 231.89 74.1383V97.9344H221.822V52.5389Z" fill="white"/>
<path d="M207.452 44.8506C205.561 44.8506 203.944 44.2099 202.602 42.9286C201.32 41.5863 200.68 39.9694 200.68 38.0779C200.68 36.1864 201.32 34.6 202.602 33.3187C203.944 31.9763 205.561 31.3052 207.452 31.3052C209.344 31.3052 210.93 31.9763 212.212 33.3187C213.554 34.6 214.225 36.1864 214.225 38.0779C214.225 39.9694 213.554 41.5863 212.212 42.9286C210.93 44.2099 209.344 44.8506 207.452 44.8506ZM202.419 52.5386H212.486V97.9341H202.419V52.5386Z" fill="white"/>
<path d="M156.562 32.4033H196.375V42.1963H166.813V61.0501H193.446V70.7515H166.813V97.9339H156.562V32.4033Z" fill="white"/>
<path d="M31.6562 118.1C36.7084 120.133 42.1896 121.34 47.9447 121.541C55.7335 121.813 63.1403 120.202 69.7616 117.143C61.8214 114.024 54.6303 109.461 48.4929 103.79C44.5147 110.159 38.6305 115.19 31.6562 118.1Z" fill="#FF9100"/>
<path d="M48.4923 103.791C34.4827 90.8342 25.9838 72.0806 26.7021 51.5112C26.7254 50.8433 26.7607 50.1757 26.8019 49.5084C24.2928 48.8595 21.6734 48.4635 18.9777 48.3694C15.1191 48.2346 11.3823 48.7132 7.85452 49.7066C4.11472 56.2577 1.85787 63.7742 1.57672 71.8254C0.851127 92.6036 13.4253 110.759 31.6556 118.101C38.63 115.192 44.5139 110.167 48.4923 103.791Z" fill="#FFC400"/>
<path d="M48.4937 103.791C51.7509 98.5782 53.7258 92.467 53.9557 85.8829C54.5605 68.5638 42.9175 53.6652 26.8033 49.5079C26.762 50.1752 26.7268 50.8427 26.7035 51.5107C25.9852 72.0801 34.484 90.8337 48.4937 103.791Z" fill="#FF9100"/>
<path d="M52.1543 0.825138C42.9766 8.17757 35.7294 17.8724 31.3447 29.0406C28.8344 35.4376 27.2569 42.309 26.7964 49.5121C42.9106 53.6694 54.5536 68.568 53.9488 85.8871C53.7189 92.4712 51.7382 98.5762 48.4868 103.795C54.6239 109.473 61.8153 114.029 69.7555 117.149C85.693 109.781 97.0006 93.9289 97.6554 75.1785C98.0796 63.0301 93.4121 52.2026 86.8167 43.0633C79.8515 33.3976 52.1543 0.825138 52.1543 0.825138Z" fill="#DD2C00"/>
<g filter="url(#filter0_d_47_1060)">
<circle cx="100" cy="90" r="30" fill="white"/>
<path fill-rule="evenodd" clip-rule="evenodd" d="M100 72C101.491 72 102.7 73.1985 102.7 74.676C102.7 75.84 101.95 76.83 100.902 77.199L100.9 81H109C110.591 81 112.117 81.6321 113.243 82.7574C114.368 83.8826 115 85.4087 115 87H115.75C116.148 87 116.529 87.158 116.811 87.4393C117.092 87.7206 117.25 88.1022 117.25 88.5V95.919C117.25 96.3168 117.092 96.6984 116.811 96.9797C116.529 97.261 116.148 97.419 115.75 97.419L115 97.4175V99C115 100.591 114.368 102.117 113.243 103.243C112.117 104.368 110.591 105 109 105H91C89.4087 105 87.8826 104.368 86.7574 103.243C85.6321 102.117 85 100.591 85 99V97.4175H84.25C83.8522 97.4175 83.4706 97.2595 83.1893 96.9782C82.908 96.6969 82.75 96.3153 82.75 95.9175V88.5C82.75 88.1022 82.908 87.7206 83.1893 87.4393C83.4706 87.158 83.8522 87 84.25 87H85C85 85.4087 85.6321 83.8826 86.7574 82.7574C87.8826 81.6321 89.4087 81 91 81H99.1V77.199C98.6109 77.0289 98.1815 76.7208 97.8637 76.3119C97.5459 75.9031 97.3532 75.411 97.309 74.895L97.3 74.676C97.3 73.1985 98.509 72 100 72ZM109 84H91C90.2431 83.9998 89.5142 84.2856 88.9592 84.8002C88.4042 85.3149 88.0643 86.0203 88.0075 86.775L88 87V99C87.9998 99.7569 88.2856 100.486 88.8002 101.041C89.3149 101.596 90.0203 101.936 90.775 101.993L91 102H109C109.757 102 110.486 101.714 111.041 101.2C111.596 100.685 111.936 99.9797 111.993 99.225L112 99V87C112 86.2431 111.714 85.5141 111.2 84.9592C110.685 84.4042 109.98 84.0643 109.225 84.0075L109 84ZM103.75 96L102.507 99H97.513L96.25 96H103.75ZM107.5 88.5V94.5H104.5V88.5H107.5ZM95.5 88.5V94.5H92.5V88.5H95.5Z" fill="#1F1F1F"/>
</g>
<defs>
<filter id="filter0_d_47_1060" x="68" y="58.6704" width="64" height="64" filterUnits="userSpaceOnUse" color-interpolation-filters="sRGB">
<feFlood flood-opacity="0" result="BackgroundImageFix"/>
<feColorMatrix in="SourceAlpha" type="matrix" values="0 0 0 0 0 0 0 0 0 0 0 0 0 0 0 0 0 0 127 0" result="hardAlpha"/>
<feOffset dy="0.670408"/>
<feGaussianBlur stdDeviation="1"/>
<feComposite in2="hardAlpha" operator="out"/>
<feColorMatrix type="matrix" values="0 0 0 0 0 0 0 0 0 0 0 0 0 0 0 0 0 0 0.3 0"/>
<feBlend mode="normal" in2="BackgroundImageFix" result="effect1_dropShadow_47_1060"/>
<feBlend mode="normal" in="SourceGraphic" in2="effect1_dropShadow_47_1060" result="shape"/>
</filter>
</defs>
</svg>
