<svg width="1067" height="128" viewBox="0 0 1067 128" fill="none" xmlns="http://www.w3.org/2000/svg">
<path d="M506.53 33.5811H526.386C533.128 33.5811 539.011 34.9906 544.037 37.8097C549.062 40.5676 552.923 44.4285 555.619 49.3926C558.316 54.3567 559.664 60.0563 559.664 66.4912C559.664 72.9262 558.316 78.6257 555.619 83.5898C552.923 88.5539 549.062 92.4455 544.037 95.2646C539.011 98.0225 533.128 99.4014 526.386 99.4014H506.53V33.5811ZM526.386 91.9552C534.17 91.9552 540.329 89.7183 544.864 85.2445C549.46 80.7707 551.758 74.5196 551.758 66.4912C551.758 58.4629 549.46 52.2118 544.864 47.7379C540.329 43.2641 534.17 41.0272 526.386 41.0272H514.252V91.9552H526.386ZM581.657 96.4597L562.261 52.5182H570.718L585.426 87.3588H585.61L599.767 52.5182H608.224L579.267 119.258H571.178L581.657 96.4597ZM612.878 52.5182H620.324V59.4128H620.692C621.979 57.0839 624.032 55.1228 626.851 53.5294C629.67 51.8747 632.673 51.0473 635.86 51.0473C641.498 51.0473 645.788 52.702 648.73 56.0114C651.733 59.2596 653.235 63.7027 653.235 69.341V99.4014H645.421V70.536C645.421 66.1848 644.379 63.0286 642.295 61.0675C640.211 59.1063 637.362 58.1258 633.746 58.1258C631.233 58.1258 628.966 58.8306 626.943 60.2401C624.982 61.6497 623.45 63.5189 622.347 65.8477C621.244 68.1153 620.692 70.5054 620.692 73.0181V99.4014H612.878V52.5182ZM677.105 100.872C673.673 100.872 670.609 100.198 667.912 98.8498C665.216 97.5015 663.132 95.663 661.661 93.3341C660.19 90.944 659.455 88.2475 659.455 85.2445C659.455 80.2804 661.324 76.4194 665.062 73.6616C668.801 70.8425 673.52 69.4329 679.219 69.4329C682.038 69.4329 684.643 69.7393 687.033 70.3522C689.485 70.965 691.354 71.6698 692.641 72.4665V69.6168C692.641 66.1235 691.415 63.335 688.964 61.2513C686.512 59.1063 683.417 58.0339 679.679 58.0339C677.044 58.0339 674.623 58.6161 672.417 59.7805C670.21 60.8836 668.464 62.4464 667.177 64.4688L661.293 60.0563C663.132 57.2371 665.645 55.0309 668.831 53.4375C672.08 51.844 675.665 51.0473 679.587 51.0473C685.961 51.0473 690.955 52.7327 694.571 56.1034C698.248 59.4128 700.087 63.9479 700.087 69.7087V99.4014H692.641V92.6906H692.273C690.925 94.9582 688.902 96.8887 686.206 98.4821C683.509 100.076 680.476 100.872 677.105 100.872ZM677.84 93.9776C680.476 93.9776 682.927 93.3035 685.195 91.9552C687.462 90.6069 689.27 88.799 690.618 86.5315C691.967 84.2639 692.641 81.7819 692.641 79.0853C691.17 78.1048 689.362 77.3081 687.217 76.6952C685.072 76.0823 682.804 75.7759 680.414 75.7759C676.124 75.7759 672.876 76.6646 670.67 78.4418C668.525 80.2191 667.453 82.5173 667.453 85.3364C667.453 87.9104 668.433 89.9941 670.394 91.5875C672.355 93.1809 674.837 93.9776 677.84 93.9776ZM709.119 52.5182H716.565V59.4128H716.933C718.281 57.0226 720.303 55.0309 723 53.4375C725.696 51.844 728.546 51.0473 731.549 51.0473C734.981 51.0473 737.953 51.8747 740.466 53.5294C743.04 55.1841 744.879 57.3904 745.982 60.1482C747.637 57.3904 749.812 55.1841 752.509 53.5294C755.267 51.8747 758.453 51.0473 762.069 51.0473C767.462 51.0473 771.507 52.702 774.204 56.0114C776.962 59.2596 778.34 63.7027 778.34 69.341V99.4014H770.618V70.536C770.618 66.1848 769.73 63.0286 767.953 61.0675C766.175 59.1063 763.54 58.1258 760.047 58.1258C757.718 58.1258 755.604 58.7999 753.704 60.1482C751.804 61.4965 750.302 63.3044 749.199 65.5719C748.157 67.8395 747.637 70.2909 747.637 72.9262V99.4014H739.823V70.628C739.823 66.2154 738.934 63.0286 737.157 61.0675C735.379 59.1063 732.775 58.1258 729.343 58.1258C727.014 58.1258 724.9 58.8306 723 60.2401C721.1 61.5884 719.599 63.427 718.495 65.7558C717.454 68.0233 716.933 70.4747 716.933 73.11V99.4014H709.119V52.5182ZM792.313 43.877C790.781 43.877 789.464 43.3254 788.361 42.2223C787.257 41.1191 786.706 39.8015 786.706 38.2694C786.706 36.7372 787.257 35.4503 788.361 34.4084C789.464 33.3053 790.781 32.7537 792.313 32.7537C793.846 32.7537 795.163 33.3053 796.266 34.4084C797.369 35.4503 797.921 36.7372 797.921 38.2694C797.921 39.8015 797.369 41.1191 796.266 42.2223C795.224 43.3254 793.907 43.877 792.313 43.877ZM788.452 52.5182H796.174V99.4014H788.452V52.5182ZM827.403 100.872C822.867 100.872 818.792 99.7997 815.176 97.6547C811.56 95.4485 808.741 92.4761 806.719 88.7377C804.696 84.9381 803.685 80.6787 803.685 75.9598C803.685 71.2408 804.696 66.9815 806.719 63.1818C808.741 59.3821 811.56 56.4098 815.176 54.2648C818.792 52.1198 822.867 51.0473 827.403 51.0473C832.489 51.0473 836.749 52.2424 840.181 54.6325C843.674 56.9614 846.156 60.0869 847.627 64.0092L840.548 66.9509C839.384 64.0704 837.637 61.8948 835.308 60.424C833.041 58.8918 830.283 58.1258 827.035 58.1258C824.277 58.1258 821.703 58.8918 819.313 60.424C816.923 61.8948 814.992 63.9785 813.521 66.6751C812.112 69.3716 811.407 72.4665 811.407 75.9598C811.407 79.453 812.112 82.5479 813.521 85.2445C814.992 87.941 816.923 90.0554 819.313 91.5875C821.703 93.0583 824.277 93.7938 827.035 93.7938C830.344 93.7938 833.194 93.0277 835.584 91.4956C837.974 89.9634 839.752 87.7878 840.916 84.9687L847.902 87.9104C846.309 91.7714 843.735 94.8969 840.181 97.287C836.687 99.6772 832.428 100.872 827.403 100.872ZM875.602 33.5811H883.324V91.9552H912.189V99.4014H875.602V33.5811ZM923.569 43.877C922.037 43.877 920.719 43.3254 919.616 42.2223C918.513 41.1191 917.962 39.8015 917.962 38.2694C917.962 36.7372 918.513 35.4503 919.616 34.4084C920.719 33.3053 922.037 32.7537 923.569 32.7537C925.101 32.7537 926.419 33.3053 927.522 34.4084C928.625 35.4503 929.177 36.7372 929.177 38.2694C929.177 39.8015 928.625 41.1191 927.522 42.2223C926.48 43.3254 925.163 43.877 923.569 43.877ZM919.708 52.5182H927.43V99.4014H919.708V52.5182ZM937.872 52.5182H945.318V59.4128H945.686C946.973 57.0839 949.026 55.1228 951.845 53.5294C954.664 51.8747 957.667 51.0473 960.854 51.0473C966.492 51.0473 970.782 52.702 973.724 56.0114C976.727 59.2596 978.228 63.7027 978.228 69.341V99.4014H970.414V70.536C970.414 66.1848 969.372 63.0286 967.289 61.0675C965.205 59.1063 962.355 58.1258 958.739 58.1258C956.227 58.1258 953.959 58.8306 951.937 60.2401C949.976 61.6497 948.443 63.5189 947.34 65.8477C946.237 68.1153 945.686 70.5054 945.686 73.0181V99.4014H937.872V52.5182ZM987.563 33.5811H995.377V74.9486L1017.44 52.5182H1027.37V52.8859L1008.98 71.4553L1027.83 99.0337V99.4014H1018.54L1003.47 76.8791L995.377 84.9687V99.4014H987.563V33.5811ZM1047.6 100.872C1042.58 100.872 1038.38 99.7078 1035.01 97.379C1031.64 94.9888 1029.25 91.9552 1027.84 88.2781L1034.82 85.1526C1035.99 87.9717 1037.71 90.1473 1039.97 91.6794C1042.3 93.2116 1044.84 93.9776 1047.6 93.9776C1050.54 93.9776 1053.06 93.3954 1055.14 92.231C1057.22 91.0053 1058.27 89.2893 1058.27 87.083C1058.27 85.1219 1057.44 83.5591 1055.78 82.3947C1054.13 81.169 1051.52 80.1272 1047.97 79.2692L1042.27 77.7983C1038.53 76.8791 1035.47 75.3163 1033.08 73.11C1030.69 70.9037 1029.49 68.054 1029.49 64.5607C1029.49 61.8642 1030.29 59.5047 1031.88 57.4823C1033.54 55.3986 1035.71 53.8052 1038.41 52.702C1041.11 51.5989 1044.02 51.0473 1047.14 51.0473C1051.25 51.0473 1054.9 51.936 1058.08 53.7132C1061.33 55.4905 1063.63 57.9726 1064.98 61.1594L1058.17 64.2849C1056.09 60.1176 1052.38 58.0339 1047.05 58.0339C1044.48 58.0339 1042.21 58.6467 1040.25 59.8724C1038.35 61.0368 1037.4 62.5383 1037.4 64.3769C1037.4 66.0929 1038.07 67.5024 1039.42 68.6056C1040.77 69.6474 1042.79 70.5054 1045.49 71.1795L1052.29 72.9262C1056.89 74.0906 1060.35 75.8372 1062.68 78.166C1065.01 80.4336 1066.17 83.2221 1066.17 86.5315C1066.17 89.4119 1065.34 91.9552 1063.69 94.1615C1062.04 96.3065 1059.8 97.9612 1056.98 99.1256C1054.16 100.29 1051.03 100.872 1047.6 100.872Z" fill="#5A5A5A"/>
<path d="M461.612 99.8665C457.157 99.8665 453.13 98.8292 449.531 96.7547C445.992 94.6802 443.215 91.8125 441.202 88.1515C439.188 84.4296 438.182 80.2805 438.182 75.7044C438.182 71.3113 439.127 67.2842 441.019 63.6233C442.971 59.9014 445.687 56.9726 449.164 54.8371C452.642 52.6405 456.608 51.5422 461.062 51.5422C465.639 51.5422 469.605 52.549 472.96 54.5625C476.377 56.576 478.97 59.3827 480.74 62.9826C482.509 66.5215 483.394 70.6096 483.394 75.2467C483.394 75.7959 483.364 76.345 483.303 76.8942C483.242 77.4433 483.211 77.7484 483.211 77.8094H448.249C448.554 81.9585 450.049 85.1618 452.734 87.4193C455.419 89.6769 458.469 90.8057 461.886 90.8057C467.133 90.8057 471.161 88.3651 473.967 83.4838L482.57 87.6024C480.557 91.3243 477.75 94.3141 474.15 96.5717C470.611 98.7682 466.432 99.8665 461.612 99.8665ZM473.144 70.1215C473.021 68.6571 472.533 67.1622 471.679 65.6368C470.825 64.1114 469.483 62.8301 467.652 61.7928C465.883 60.6946 463.656 60.1454 460.971 60.1454C457.981 60.1454 455.388 61.0607 453.191 62.8911C451.056 64.7216 449.592 67.1317 448.798 70.1215H473.144Z" fill="#5A5A5A"/>
<path d="M416.087 99.8665C410.9 99.8665 406.599 98.6767 403.182 96.2971C399.826 93.8565 397.446 90.8057 396.043 87.1448L405.012 83.3008C406.05 85.8024 407.544 87.6939 409.497 88.9752C411.51 90.2566 413.707 90.8972 416.087 90.8972C418.588 90.8972 420.632 90.4396 422.219 89.5244C423.805 88.5481 424.598 87.2973 424.598 85.7719C424.598 84.3076 423.958 83.1177 422.676 82.2025C421.395 81.2263 419.29 80.3721 416.361 79.6399L410.138 78.1755C406.721 77.3823 403.761 75.9179 401.26 73.7824C398.819 71.5858 397.599 68.7486 397.599 65.2707C397.599 61.0607 399.338 57.7353 402.816 55.2947C406.294 52.7931 410.565 51.5422 415.629 51.5422C419.839 51.5422 423.561 52.427 426.795 54.1964C430.09 55.9659 432.469 58.5285 433.934 61.8844L425.056 65.6368C424.202 63.7453 422.89 62.342 421.12 61.4267C419.351 60.5115 417.429 60.0539 415.354 60.0539C413.341 60.0539 411.571 60.5115 410.046 61.4267C408.521 62.281 407.758 63.4403 407.758 64.9046C407.758 66.186 408.277 67.2232 409.314 68.0164C410.412 68.8096 412.121 69.4808 414.439 70.0299L421.212 71.6773C425.788 72.8366 429.205 74.6061 431.462 76.9857C433.72 79.3043 434.849 82.111 434.849 85.4058C434.849 88.0905 434.025 90.5311 432.378 92.7277C430.791 94.9242 428.564 96.6632 425.696 97.9445C422.89 99.2258 419.686 99.8665 416.087 99.8665Z" fill="#5A5A5A"/>
<path d="M367.921 99.8665C364.688 99.8665 361.759 99.2258 359.135 97.9445C356.573 96.6022 354.529 94.7717 353.003 92.4531C351.539 90.0735 350.807 87.3888 350.807 84.3991C350.807 79.6399 352.576 75.8874 356.115 73.1417C359.715 70.396 364.261 69.0232 369.752 69.0232C374.572 69.0232 378.691 69.8469 382.108 71.4943V69.5723C382.108 66.8266 381.009 64.569 378.813 62.7996C376.677 60.9691 374.084 60.0539 371.033 60.0539C366.396 60.0539 362.674 61.9454 359.867 65.7283L352.18 60.42C354.315 57.5523 356.969 55.3557 360.142 53.8303C363.376 52.3049 367.006 51.5422 371.033 51.5422C377.684 51.5422 382.809 53.2202 386.409 56.576C390.07 59.8708 391.901 64.5385 391.901 70.5791V98.4021H382.108V92.8192H381.558C380.094 94.8937 378.233 96.6022 375.976 97.9445C373.718 99.2258 371.033 99.8665 367.921 99.8665ZM369.569 91.5379C371.826 91.5379 373.901 90.9887 375.792 89.8905C377.745 88.7312 379.27 87.2363 380.369 85.4058C381.528 83.5143 382.108 81.5008 382.108 79.3653C378.874 77.5958 375.426 76.7111 371.765 76.7111C368.41 76.7111 365.786 77.4433 363.894 78.9077C362.003 80.372 361.057 82.233 361.057 84.4906C361.057 86.5651 361.881 88.2736 363.528 89.6159C365.237 90.8972 367.25 91.5379 369.569 91.5379Z" fill="#5A5A5A"/>
<path d="M325.684 99.8661C322.389 99.8661 319.43 99.1644 316.806 97.7611C314.244 96.3577 312.322 94.5882 311.04 92.4527H310.491V98.4017H300.973V32.8711H311.04V52.5486L310.491 58.8637H311.04C312.322 56.7892 314.244 55.0502 316.806 53.6469C319.43 52.2435 322.389 51.5418 325.684 51.5418C329.589 51.5418 333.189 52.5791 336.484 54.6536C339.84 56.7281 342.494 59.6264 344.446 63.3483C346.46 67.0093 347.466 71.1278 347.466 75.704C347.466 80.2801 346.46 84.3987 344.446 88.0596C342.494 91.7205 339.84 94.6188 336.484 96.7543C333.189 98.8288 329.589 99.8661 325.684 99.8661ZM323.945 90.6222C326.325 90.6222 328.521 90.0121 330.535 88.7918C332.609 87.5715 334.257 85.8325 335.477 83.575C336.758 81.2564 337.399 78.6327 337.399 75.704C337.399 72.7752 336.758 70.1821 335.477 67.9245C334.257 65.6059 332.609 63.8364 330.535 62.6161C328.521 61.3958 326.325 60.7857 323.945 60.7857C321.565 60.7857 319.338 61.3958 317.264 62.6161C315.25 63.8364 313.603 65.5754 312.322 67.833C311.101 70.0905 310.491 72.7142 310.491 75.704C310.491 78.6937 311.101 81.3174 312.322 83.575C313.603 85.8325 315.25 87.5715 317.264 88.7918C319.338 90.0121 321.565 90.6222 323.945 90.6222Z" fill="#5A5A5A"/>
<path d="M273.192 99.8667C268.738 99.8667 264.711 98.8295 261.111 96.7549C257.572 94.6804 254.795 91.8127 252.782 88.1518C250.768 84.4298 249.762 80.2808 249.762 75.7046C249.762 71.3115 250.707 67.2845 252.599 63.6235C254.551 59.9016 257.267 56.9729 260.745 54.8373C264.222 52.6408 268.188 51.5425 272.643 51.5425C277.219 51.5425 281.185 52.5492 284.541 54.5627C287.957 56.5763 290.551 59.383 292.32 62.9829C294.089 66.5218 294.974 70.6098 294.974 75.247C294.974 75.7961 294.944 76.3453 294.883 76.8944C294.822 77.4436 294.791 77.7486 294.791 77.8096H259.829C260.134 81.9587 261.629 85.162 264.314 87.4196C266.999 89.6772 270.049 90.8059 273.466 90.8059C278.714 90.8059 282.741 88.3653 285.547 83.4841L294.15 87.6026C292.137 91.3246 289.33 94.3143 285.73 96.5719C282.191 98.7685 278.012 99.8667 273.192 99.8667ZM284.724 70.1217C284.602 68.6573 284.113 67.1624 283.259 65.6371C282.405 64.1117 281.063 62.8303 279.232 61.7931C277.463 60.6948 275.236 60.1457 272.551 60.1457C269.561 60.1457 266.968 61.0609 264.772 62.8914C262.636 64.7218 261.172 67.1319 260.378 70.1217H284.724Z" fill="#5A5A5A"/>
<path d="M221.822 53.0066H231.341V59.7794H231.89C232.866 57.4608 234.636 55.5388 237.198 54.0134C239.761 52.427 242.384 51.6338 245.069 51.6338C247.266 51.6338 249.066 51.9389 250.469 52.549V63.0742C248.395 62.0369 246.076 61.5183 243.513 61.5183C240.218 61.5183 237.442 62.7996 235.185 65.3623C232.988 67.8639 231.89 70.9452 231.89 74.6061V98.4021H221.822V53.0066Z" fill="#5A5A5A"/>
<path d="M207.452 45.3184C205.561 45.3184 203.944 44.6777 202.602 43.3964C201.32 42.0541 200.68 40.4371 200.68 38.5457C200.68 36.6542 201.32 35.0678 202.602 33.7865C203.944 32.4441 205.561 31.7729 207.452 31.7729C209.344 31.7729 210.93 32.4441 212.212 33.7865C213.554 35.0678 214.225 36.6542 214.225 38.5457C214.225 40.4371 213.554 42.0541 212.212 43.3964C210.93 44.6777 209.344 45.3184 207.452 45.3184ZM202.419 53.0063H212.486V98.4018H202.419V53.0063Z" fill="#5A5A5A"/>
<path d="M156.562 32.8713H196.375V42.6643H166.813V61.5181H193.446V71.2196H166.813V98.402H156.562V32.8713Z" fill="#5A5A5A"/>
<path d="M31.6562 118.567C36.7084 120.601 42.1896 121.807 47.9447 122.008C55.7335 122.28 63.1403 120.67 69.7616 117.611C61.8214 114.491 54.6303 109.929 48.4929 104.257C44.5147 110.627 38.6305 115.658 31.6562 118.567Z" fill="#FF9100"/>
<path d="M48.4923 104.259C34.4827 91.302 25.9838 72.5484 26.7021 51.979C26.7254 51.311 26.7607 50.6435 26.8019 49.9762C24.2928 49.3273 21.6734 48.9313 18.9777 48.8371C15.1191 48.7024 11.3823 49.181 7.85452 50.1744C4.11472 56.7255 1.85787 64.242 1.57672 72.2932C0.851127 93.0713 13.4253 111.227 31.6556 118.569C38.63 115.66 44.5139 110.635 48.4923 104.259Z" fill="#FFC400"/>
<path d="M48.4937 104.258C51.7509 99.0459 53.7258 92.9348 53.9557 86.3506C54.5605 69.0316 42.9175 54.133 26.8033 49.9757C26.762 50.643 26.7268 51.3105 26.7035 51.9785C25.9852 72.5479 34.484 91.3015 48.4937 104.258Z" fill="#FF9100"/>
<path d="M52.1543 1.29291C42.9766 8.64534 35.7294 18.3402 31.3447 29.5084C28.8344 35.9054 27.2569 42.7768 26.7964 49.9798C42.9106 54.1372 54.5536 69.0358 53.9488 86.3548C53.7189 92.939 51.7382 99.044 48.4868 104.263C54.6239 109.941 61.8153 114.497 69.7555 117.616C85.693 110.249 97.0006 94.3967 97.6554 75.6462C98.0796 63.4978 93.4121 52.6704 86.8167 43.5311C79.8515 33.8654 52.1543 1.29291 52.1543 1.29291Z" fill="#DD2C00"/>
<g filter="url(#filter0_d_47_1009)">
<circle cx="100" cy="90" r="30" fill="white"/>
<path d="M89.9316 100.067C88.911 99.0448 88.3378 97.6593 88.3378 96.2147C88.3378 94.7701 88.911 93.3846 89.9316 92.3621L94.9043 87.39L92.5418 85.0296L87.5727 90C85.9253 91.6485 85 93.8835 85 96.2138C85 98.5442 85.9253 100.779 87.5727 102.428C89.2213 104.075 91.4566 105 93.7872 105C96.1178 105 98.3531 104.075 100.002 102.428L104.973 97.4573L102.612 95.0951L97.6393 100.067C96.6168 101.088 95.2311 101.661 93.7863 101.661C92.3416 101.661 90.9559 101.088 89.9333 100.067H89.9316ZM96.2718 96.2147L106.215 86.2722L103.728 83.7853L93.7846 93.7278L96.2718 96.2147ZM100 77.5724L95.0291 82.5427L97.3897 84.9049L102.362 79.9327C103.385 78.9123 104.771 78.3392 106.215 78.3392C107.66 78.3392 109.046 78.9123 110.068 79.9327C111.089 80.9552 111.662 82.3407 111.662 83.7853C111.662 85.2299 111.089 86.6154 110.068 87.6379L105.096 92.61L107.458 94.9704L112.427 90C114.075 88.3515 115 86.1165 115 83.7862C115 81.4558 114.075 79.2208 112.427 77.5724C110.779 75.9252 108.543 75 106.213 75C103.882 75 101.647 75.9252 99.9982 77.5724H100Z" fill="#1F1F1F"/>
</g>
<defs>
<filter id="filter0_d_47_1009" x="68" y="58.6704" width="64" height="64" filterUnits="userSpaceOnUse" color-interpolation-filters="sRGB">
<feFlood flood-opacity="0" result="BackgroundImageFix"/>
<feColorMatrix in="SourceAlpha" type="matrix" values="0 0 0 0 0 0 0 0 0 0 0 0 0 0 0 0 0 0 127 0" result="hardAlpha"/>
<feOffset dy="0.670408"/>
<feGaussianBlur stdDeviation="1"/>
<feComposite in2="hardAlpha" operator="out"/>
<feColorMatrix type="matrix" values="0 0 0 0 0 0 0 0 0 0 0 0 0 0 0 0 0 0 0.3 0"/>
<feBlend mode="normal" in2="BackgroundImageFix" result="effect1_dropShadow_47_1009"/>
<feBlend mode="normal" in="SourceGraphic" in2="effect1_dropShadow_47_1009" result="shape"/>
</filter>
</defs>
</svg>
