<svg width="943" height="128" viewBox="0 0 943 128" fill="none" xmlns="http://www.w3.org/2000/svg">
<path d="M525.467 33.5813H534.292L559.297 99.4016H550.747L544.128 81.2918H515.723L509.104 99.4016H500.555L525.467 33.5813ZM541.463 73.9376L532.729 50.2202L530.064 43.1418H529.696L527.122 50.2202L518.389 73.9376H541.463ZM564.705 52.5184H572.151V59.5049H572.518C573.928 57.1148 576.042 55.1231 578.861 53.5296C581.742 51.8749 584.959 51.0476 588.514 51.0476C592.681 51.0476 596.481 52.1201 599.913 54.2651C603.345 56.41 606.041 59.3824 608.003 63.1821C609.964 66.9817 610.944 71.2411 610.944 75.96C610.944 80.7403 609.964 85.0302 608.003 88.8299C606.041 92.5683 603.345 95.51 599.913 97.655C596.481 99.8 592.681 100.872 588.514 100.872C584.959 100.872 581.742 100.076 578.861 98.4823C576.042 96.8276 573.928 94.8359 572.518 92.507H572.151L572.518 98.942V119.258H564.705V52.5184ZM587.595 93.794C590.291 93.794 592.834 93.0586 595.225 91.5877C597.615 90.1169 599.515 88.0332 600.924 85.3367C602.395 82.5788 603.13 79.4533 603.13 75.96C603.13 72.4668 602.395 69.3719 600.924 66.6753C599.515 63.9175 597.615 61.8031 595.225 60.3323C592.834 58.8614 590.291 58.126 587.595 58.126C584.898 58.126 582.355 58.8614 579.965 60.3323C577.574 61.8031 575.675 63.8868 574.265 66.5834C572.855 69.2799 572.151 72.4055 572.151 75.96C572.151 79.5146 572.855 82.6401 574.265 85.3367C575.675 88.0332 577.574 90.1169 579.965 91.5877C582.355 93.0586 584.898 93.794 587.595 93.794ZM616.909 52.5184H624.356V59.5049H624.723C626.133 57.1148 628.247 55.1231 631.066 53.5296C633.947 51.8749 637.164 51.0476 640.719 51.0476C644.886 51.0476 648.686 52.1201 652.118 54.2651C655.55 56.41 658.246 59.3824 660.207 63.1821C662.169 66.9817 663.149 71.2411 663.149 75.96C663.149 80.7403 662.169 85.0302 660.207 88.8299C658.246 92.5683 655.55 95.51 652.118 97.655C648.686 99.8 644.886 100.872 640.719 100.872C637.164 100.872 633.947 100.076 631.066 98.4823C628.247 96.8276 626.133 94.8359 624.723 92.507H624.356L624.723 98.942V119.258H616.909V52.5184ZM639.799 93.794C642.496 93.794 645.039 93.0586 647.429 91.5877C649.82 90.1169 651.719 88.0332 653.129 85.3367C654.6 82.5788 655.335 79.4533 655.335 75.96C655.335 72.4668 654.6 69.3719 653.129 66.6753C651.719 63.9175 649.82 61.8031 647.429 60.3323C645.039 58.8614 642.496 58.126 639.799 58.126C637.103 58.126 634.56 58.8614 632.169 60.3323C629.779 61.8031 627.879 63.8868 626.47 66.5834C625.06 69.2799 624.356 72.4055 624.356 75.96C624.356 79.5146 625.06 82.6401 626.47 85.3367C627.879 88.0332 629.779 90.1169 632.169 91.5877C634.56 93.0586 637.103 93.794 639.799 93.794ZM720.562 100.872C714.189 100.872 708.397 99.371 703.188 96.368C697.979 93.365 693.873 89.2589 690.87 84.0497C687.928 78.7791 686.457 72.9264 686.457 66.4915C686.457 60.0565 687.928 54.2344 690.87 49.0252C693.873 43.7546 697.979 39.6179 703.188 36.6149C708.397 33.6119 714.189 32.1105 720.562 32.1105C725.465 32.1105 729.939 33.0604 733.984 34.9602C738.09 36.7988 741.644 39.434 744.647 42.866L739.04 48.2897C736.527 45.2868 733.769 43.0805 730.766 41.6709C727.825 40.2614 724.423 39.5566 720.562 39.5566C715.782 39.5566 711.4 40.6904 707.417 42.9579C703.433 45.1642 700.246 48.3204 697.856 52.4265C695.527 56.4713 694.363 61.1596 694.363 66.4915C694.363 71.8233 695.527 76.5422 697.856 80.6483C700.246 84.6932 703.433 87.8493 707.417 90.1169C711.4 92.3232 715.782 93.4263 720.562 93.4263C728.529 93.4263 735.301 90.1475 740.878 83.59L746.578 89.1057C743.514 92.7215 739.745 95.6019 735.271 97.7469C730.797 99.8306 725.894 100.872 720.562 100.872ZM753.513 33.5813H761.327V52.9781L760.96 59.413H761.327C762.614 57.0229 764.637 55.0311 767.395 53.4377C770.214 51.8443 773.278 51.0476 776.587 51.0476C782.287 51.0476 786.638 52.7329 789.641 56.1036C792.644 59.413 794.146 63.8255 794.146 69.3412V99.4016H786.332V70.5363C786.332 66.3076 785.259 63.1821 783.114 61.1596C780.969 59.1372 778.181 58.126 774.749 58.126C772.297 58.126 770.03 58.8614 767.946 60.3323C765.924 61.8031 764.3 63.703 763.074 66.0318C761.91 68.3607 761.327 70.7814 761.327 73.2941V99.4016H753.513V33.5813ZM824.431 100.872C819.958 100.872 815.943 99.8 812.389 97.655C808.834 95.51 806.046 92.5683 804.023 88.8299C802.062 85.0302 801.082 80.7709 801.082 76.0519C801.082 71.5168 802.001 67.3494 803.84 63.5498C805.739 59.7501 808.405 56.7165 811.837 54.4489C815.269 52.1814 819.253 51.0476 823.788 51.0476C828.384 51.0476 832.368 52.0894 835.739 54.1731C839.109 56.1955 841.683 59.0147 843.46 62.6305C845.299 66.2463 846.218 70.3831 846.218 75.0407C846.218 75.96 846.126 76.7567 845.943 77.4309H808.896C809.079 80.9854 809.937 83.9884 811.47 86.4398C813.002 88.8912 814.932 90.7298 817.261 91.9555C819.651 93.1812 822.133 93.794 824.707 93.794C830.713 93.794 835.34 90.9749 838.588 85.3367L845.207 88.5541C843.185 92.3538 840.427 95.3568 836.934 97.5631C833.502 99.7693 829.334 100.872 824.431 100.872ZM837.945 70.9959C837.822 69.0348 837.271 67.0737 836.29 65.1125C835.31 63.1514 833.747 61.4967 831.602 60.1484C829.518 58.8002 826.883 58.126 823.696 58.126C820.019 58.126 816.893 59.3211 814.319 61.7112C811.807 64.04 810.152 67.135 809.355 70.9959H837.945ZM875.209 100.872C870.673 100.872 866.598 99.8 862.982 97.655C859.366 95.4487 856.547 92.4764 854.525 88.738C852.502 84.9383 851.491 80.679 851.491 75.96C851.491 71.2411 852.502 66.9817 854.525 63.1821C856.547 59.3824 859.366 56.41 862.982 54.2651C866.598 52.1201 870.673 51.0476 875.209 51.0476C880.295 51.0476 884.555 52.2426 887.987 54.6328C891.48 56.9616 893.962 60.0872 895.433 64.0094L888.354 66.9511C887.19 64.0707 885.443 61.8951 883.114 60.4242C880.847 58.8921 878.089 58.126 874.841 58.126C872.083 58.126 869.509 58.8921 867.119 60.4242C864.729 61.8951 862.798 63.9788 861.328 66.6753C859.918 69.3719 859.213 72.4668 859.213 75.96C859.213 79.4533 859.918 82.5482 861.328 85.2447C862.798 87.9413 864.729 90.0556 867.119 91.5877C869.509 93.0586 872.083 93.794 874.841 93.794C878.15 93.794 881 93.0279 883.39 91.4958C885.78 89.9637 887.558 87.7881 888.722 84.9689L895.708 87.9106C894.115 91.7716 891.541 94.8971 887.987 97.2873C884.493 99.6774 880.234 100.872 875.209 100.872ZM902.318 33.5813H910.132V74.9488L932.195 52.5184H942.123V52.8861L923.737 71.4556L942.582 99.0339V99.4016H933.298L918.221 76.8793L910.132 84.9689V99.4016H902.318V33.5813Z" fill="#5A5A5A"/>
<path d="M461.612 99.8665C457.157 99.8665 453.13 98.8292 449.531 96.7547C445.992 94.6802 443.215 91.8125 441.202 88.1515C439.188 84.4296 438.182 80.2805 438.182 75.7044C438.182 71.3113 439.127 67.2842 441.019 63.6233C442.971 59.9014 445.687 56.9726 449.164 54.8371C452.642 52.6405 456.608 51.5422 461.062 51.5422C465.639 51.5422 469.605 52.549 472.96 54.5625C476.377 56.576 478.97 59.3827 480.74 62.9826C482.509 66.5215 483.394 70.6096 483.394 75.2467C483.394 75.7959 483.364 76.345 483.303 76.8942C483.242 77.4433 483.211 77.7484 483.211 77.8094H448.249C448.554 81.9585 450.049 85.1618 452.734 87.4193C455.419 89.6769 458.469 90.8057 461.886 90.8057C467.133 90.8057 471.161 88.3651 473.967 83.4838L482.57 87.6024C480.557 91.3243 477.75 94.3141 474.15 96.5717C470.611 98.7682 466.432 99.8665 461.612 99.8665ZM473.144 70.1215C473.021 68.6571 472.533 67.1622 471.679 65.6368C470.825 64.1114 469.483 62.8301 467.652 61.7928C465.883 60.6946 463.656 60.1454 460.971 60.1454C457.981 60.1454 455.388 61.0607 453.191 62.8911C451.056 64.7216 449.592 67.1317 448.798 70.1215H473.144Z" fill="#5A5A5A"/>
<path d="M416.087 99.8665C410.9 99.8665 406.599 98.6767 403.182 96.2971C399.826 93.8565 397.446 90.8057 396.043 87.1448L405.012 83.3008C406.05 85.8024 407.544 87.6939 409.497 88.9752C411.51 90.2566 413.707 90.8972 416.087 90.8972C418.588 90.8972 420.632 90.4396 422.219 89.5244C423.805 88.5481 424.598 87.2973 424.598 85.7719C424.598 84.3076 423.958 83.1177 422.676 82.2025C421.395 81.2263 419.29 80.3721 416.361 79.6399L410.138 78.1755C406.721 77.3823 403.761 75.9179 401.26 73.7824C398.819 71.5858 397.599 68.7486 397.599 65.2707C397.599 61.0607 399.338 57.7353 402.816 55.2947C406.294 52.7931 410.565 51.5422 415.629 51.5422C419.839 51.5422 423.561 52.427 426.795 54.1964C430.09 55.9659 432.469 58.5285 433.934 61.8844L425.056 65.6368C424.202 63.7453 422.89 62.342 421.12 61.4267C419.351 60.5115 417.429 60.0539 415.354 60.0539C413.341 60.0539 411.571 60.5115 410.046 61.4267C408.521 62.281 407.758 63.4403 407.758 64.9046C407.758 66.186 408.277 67.2232 409.314 68.0164C410.412 68.8096 412.121 69.4808 414.439 70.0299L421.212 71.6773C425.788 72.8366 429.205 74.6061 431.462 76.9857C433.72 79.3043 434.849 82.111 434.849 85.4058C434.849 88.0905 434.025 90.5311 432.378 92.7277C430.791 94.9242 428.564 96.6632 425.696 97.9445C422.89 99.2258 419.686 99.8665 416.087 99.8665Z" fill="#5A5A5A"/>
<path d="M367.921 99.8665C364.688 99.8665 361.759 99.2258 359.135 97.9445C356.573 96.6022 354.529 94.7717 353.003 92.4531C351.539 90.0735 350.807 87.3888 350.807 84.3991C350.807 79.6399 352.576 75.8874 356.115 73.1417C359.715 70.396 364.261 69.0232 369.752 69.0232C374.572 69.0232 378.691 69.8469 382.108 71.4943V69.5723C382.108 66.8266 381.009 64.569 378.813 62.7996C376.677 60.9691 374.084 60.0539 371.033 60.0539C366.396 60.0539 362.674 61.9454 359.867 65.7283L352.18 60.42C354.315 57.5523 356.969 55.3557 360.142 53.8303C363.376 52.3049 367.006 51.5422 371.033 51.5422C377.684 51.5422 382.809 53.2202 386.409 56.576C390.07 59.8708 391.901 64.5385 391.901 70.5791V98.4021H382.108V92.8192H381.558C380.094 94.8937 378.233 96.6022 375.976 97.9445C373.718 99.2258 371.033 99.8665 367.921 99.8665ZM369.569 91.5379C371.826 91.5379 373.901 90.9887 375.792 89.8905C377.745 88.7312 379.27 87.2363 380.369 85.4058C381.528 83.5143 382.108 81.5008 382.108 79.3653C378.874 77.5958 375.426 76.7111 371.765 76.7111C368.41 76.7111 365.786 77.4433 363.894 78.9077C362.003 80.372 361.057 82.233 361.057 84.4906C361.057 86.5651 361.881 88.2736 363.528 89.6159C365.237 90.8972 367.25 91.5379 369.569 91.5379Z" fill="#5A5A5A"/>
<path d="M325.684 99.8661C322.389 99.8661 319.43 99.1644 316.806 97.7611C314.244 96.3577 312.322 94.5882 311.04 92.4527H310.491V98.4017H300.973V32.8711H311.04V52.5486L310.491 58.8637H311.04C312.322 56.7892 314.244 55.0502 316.806 53.6469C319.43 52.2435 322.389 51.5418 325.684 51.5418C329.589 51.5418 333.189 52.5791 336.484 54.6536C339.84 56.7281 342.494 59.6264 344.446 63.3483C346.46 67.0093 347.466 71.1278 347.466 75.704C347.466 80.2801 346.46 84.3987 344.446 88.0596C342.494 91.7205 339.84 94.6188 336.484 96.7543C333.189 98.8288 329.589 99.8661 325.684 99.8661ZM323.945 90.6222C326.325 90.6222 328.521 90.0121 330.535 88.7918C332.609 87.5715 334.257 85.8325 335.477 83.575C336.758 81.2564 337.399 78.6327 337.399 75.704C337.399 72.7752 336.758 70.1821 335.477 67.9245C334.257 65.6059 332.609 63.8364 330.535 62.6161C328.521 61.3958 326.325 60.7857 323.945 60.7857C321.565 60.7857 319.338 61.3958 317.264 62.6161C315.25 63.8364 313.603 65.5754 312.322 67.833C311.101 70.0905 310.491 72.7142 310.491 75.704C310.491 78.6937 311.101 81.3174 312.322 83.575C313.603 85.8325 315.25 87.5715 317.264 88.7918C319.338 90.0121 321.565 90.6222 323.945 90.6222Z" fill="#5A5A5A"/>
<path d="M273.192 99.8666C268.738 99.8666 264.711 98.8294 261.111 96.7548C257.572 94.6803 254.795 91.8126 252.782 88.1516C250.768 84.4297 249.762 80.2807 249.762 75.7045C249.762 71.3114 250.707 67.2844 252.599 63.6234C254.551 59.9015 257.267 56.9727 260.745 54.8372C264.222 52.6406 268.188 51.5424 272.643 51.5424C277.219 51.5424 281.185 52.5491 284.541 54.5626C287.957 56.5761 290.551 59.3828 292.32 62.9828C294.089 66.5217 294.974 70.6097 294.974 75.2469C294.974 75.796 294.944 76.3452 294.883 76.8943C294.822 77.4434 294.791 77.7485 294.791 77.8095H259.829C260.134 81.9586 261.629 85.1619 264.314 87.4195C266.999 89.677 270.049 90.8058 273.466 90.8058C278.714 90.8058 282.741 88.3652 285.547 83.484L294.15 87.6025C292.137 91.3245 289.33 94.3142 285.73 96.5718C282.191 98.7683 278.012 99.8666 273.192 99.8666ZM284.724 70.1216C284.602 68.6572 284.113 67.1623 283.259 65.6369C282.405 64.1115 281.063 62.8302 279.232 61.793C277.463 60.6947 275.236 60.1455 272.551 60.1455C269.561 60.1455 266.968 61.0608 264.772 62.8912C262.636 64.7217 261.172 67.1318 260.378 70.1216H284.724Z" fill="#5A5A5A"/>
<path d="M221.822 53.0066H231.341V59.7794H231.89C232.866 57.4608 234.636 55.5388 237.198 54.0134C239.761 52.427 242.384 51.6338 245.069 51.6338C247.266 51.6338 249.066 51.9389 250.469 52.549V63.0742C248.395 62.0369 246.076 61.5183 243.513 61.5183C240.218 61.5183 237.442 62.7996 235.185 65.3623C232.988 67.8639 231.89 70.9452 231.89 74.6061V98.4021H221.822V53.0066Z" fill="#5A5A5A"/>
<path d="M207.452 45.3184C205.561 45.3184 203.944 44.6777 202.602 43.3964C201.32 42.0541 200.68 40.4371 200.68 38.5457C200.68 36.6542 201.32 35.0678 202.602 33.7865C203.944 32.4441 205.561 31.7729 207.452 31.7729C209.344 31.7729 210.93 32.4441 212.212 33.7865C213.554 35.0678 214.225 36.6542 214.225 38.5457C214.225 40.4371 213.554 42.0541 212.212 43.3964C210.93 44.6777 209.344 45.3184 207.452 45.3184ZM202.419 53.0063H212.486V98.4018H202.419V53.0063Z" fill="#5A5A5A"/>
<path d="M156.562 32.8712H196.375V42.6642H166.813V61.518H193.446V71.2194H166.813V98.4018H156.562V32.8712Z" fill="#5A5A5A"/>
<path d="M31.6581 118.567C36.7104 120.601 42.1915 121.807 47.9467 122.008C55.7355 122.28 63.1422 120.67 69.7635 117.611C61.8234 114.492 54.6322 109.929 48.4949 104.257C44.5166 110.627 38.6325 115.658 31.6581 118.567Z" fill="#FF9100"/>
<path d="M48.4923 104.259C34.4827 91.302 25.9838 72.5484 26.7021 51.979C26.7254 51.311 26.7607 50.6435 26.8019 49.9762C24.2928 49.3273 21.6734 48.9313 18.9777 48.8371C15.1191 48.7024 11.3823 49.181 7.85452 50.1744C4.11472 56.7255 1.85787 64.242 1.57672 72.2932C0.851127 93.0713 13.4253 111.227 31.6556 118.569C38.63 115.66 44.5139 110.635 48.4923 104.259Z" fill="#FFC400"/>
<path d="M48.4937 104.258C51.7509 99.0459 53.7258 92.9348 53.9557 86.3506C54.5605 69.0316 42.9175 54.133 26.8033 49.9757C26.762 50.643 26.7268 51.3105 26.7035 51.9785C25.9852 72.5479 34.484 91.3015 48.4937 104.258Z" fill="#FF9100"/>
<path d="M52.1543 1.29291C42.9766 8.64534 35.7294 18.3402 31.3447 29.5084C28.8344 35.9054 27.2569 42.7768 26.7964 49.9798C42.9106 54.1372 54.5536 69.0358 53.9488 86.3548C53.7189 92.939 51.7382 99.044 48.4868 104.263C54.6239 109.941 61.8153 114.497 69.7555 117.616C85.693 110.249 97.0006 94.3967 97.6554 75.6462C98.0796 63.4978 93.4121 52.6704 86.8167 43.5311C79.8515 33.8654 52.1543 1.29291 52.1543 1.29291Z" fill="#DD2C00"/>
<g filter="url(#filter0_d_47_993)">
<circle cx="100" cy="90.4678" r="30" fill="white"/>
<path d="M98.2285 96.8083L107.762 87.9103L105.358 85.6663L98.2285 92.3203L94.684 89.0128L92.2795 91.2568L98.2285 96.8083ZM100 106.968C96.091 106.048 92.863 103.956 90.319 100.687C87.7735 97.4188 86.5 93.7903 86.5 89.8003V80.1928L100 75.4678L113.5 80.1928V89.8003C113.5 93.7903 112.228 97.4203 109.682 100.687C107.137 103.956 103.909 106.05 100 106.968ZM100 103.66C102.925 102.793 105.344 101.061 107.256 98.4628C109.17 95.8648 110.125 92.9773 110.125 89.8003V82.3588L100 78.8128L89.875 82.3588V89.8003C89.875 92.9758 90.832 95.8648 92.743 98.4628C94.657 101.062 97.075 102.795 100 103.66Z" fill="#1F1F1F"/>
</g>
<defs>
<filter id="filter0_d_47_993" x="68" y="59.1382" width="64" height="64" filterUnits="userSpaceOnUse" color-interpolation-filters="sRGB">
<feFlood flood-opacity="0" result="BackgroundImageFix"/>
<feColorMatrix in="SourceAlpha" type="matrix" values="0 0 0 0 0 0 0 0 0 0 0 0 0 0 0 0 0 0 127 0" result="hardAlpha"/>
<feOffset dy="0.670408"/>
<feGaussianBlur stdDeviation="1"/>
<feComposite in2="hardAlpha" operator="out"/>
<feColorMatrix type="matrix" values="0 0 0 0 0 0 0 0 0 0 0 0 0 0 0 0 0 0 0.3 0"/>
<feBlend mode="normal" in2="BackgroundImageFix" result="effect1_dropShadow_47_993"/>
<feBlend mode="normal" in="SourceGraphic" in2="effect1_dropShadow_47_993" result="shape"/>
</filter>
</defs>
</svg>
