<svg width="1095" height="128" viewBox="0 0 1095 128" fill="none" xmlns="http://www.w3.org/2000/svg">
<path d="M506.53 33.5811H528.777C532.392 33.5811 535.763 34.4084 538.889 36.0631C542.014 37.7178 544.496 40.0466 546.335 43.0496C548.235 45.9913 549.185 49.3314 549.185 53.0698C549.185 56.134 548.48 58.9838 547.07 61.619C545.722 64.2543 543.822 66.4606 541.371 68.2378C538.981 70.0151 536.315 71.2102 533.373 71.823L533.189 72.0988L551.758 99.0337V99.4014H542.566L524.64 72.5584H514.252V99.4014H506.53V33.5811ZM528.317 65.2962C530.584 65.2962 532.699 64.7752 534.66 63.7334C536.682 62.6915 538.276 61.2513 539.44 59.4128C540.666 57.5129 541.279 55.3986 541.279 53.0698C541.279 51.0473 540.758 49.1169 539.716 47.2783C538.674 45.4397 537.203 43.9383 535.303 42.7738C533.465 41.6094 531.32 41.0272 528.868 41.0272H514.252V65.2962H528.317ZM576.963 100.872C572.489 100.872 568.475 99.7997 564.92 97.6547C561.365 95.5098 558.577 92.5681 556.555 88.8297C554.593 85.03 553.613 80.7707 553.613 76.0517C553.613 71.5166 554.532 67.3492 556.371 63.5495C558.271 59.7498 560.936 56.7162 564.368 54.4487C567.8 52.1811 571.784 51.0473 576.319 51.0473C580.915 51.0473 584.899 52.0892 588.27 54.1729C591.64 56.1953 594.214 59.0144 595.992 62.6302C597.83 66.2461 598.749 70.3828 598.749 75.0405C598.749 75.9598 598.657 76.7565 598.474 77.4306H561.427C561.611 80.9852 562.469 83.9881 564.001 86.4395C565.533 88.891 567.463 90.7295 569.792 91.9552C572.182 93.1809 574.664 93.7938 577.238 93.7938C583.244 93.7938 587.871 90.9747 591.119 85.3364L597.738 88.5539C595.716 92.3536 592.958 95.3565 589.465 97.5628C586.033 99.7691 581.865 100.872 576.963 100.872ZM590.476 70.9957C590.353 69.0345 589.802 67.0734 588.821 65.1123C587.841 63.1512 586.278 61.4965 584.133 60.1482C582.049 58.7999 579.414 58.1258 576.227 58.1258C572.55 58.1258 569.424 59.3208 566.85 61.711C564.338 64.0398 562.683 67.1347 561.886 70.9957H590.476ZM606.055 52.5182H613.502V59.4128H613.869C615.218 57.0226 617.24 55.0309 619.937 53.4375C622.633 51.844 625.483 51.0473 628.486 51.0473C631.918 51.0473 634.89 51.8747 637.403 53.5294C639.977 55.1841 641.815 57.3904 642.919 60.1482C644.573 57.3904 646.749 55.1841 649.445 53.5294C652.203 51.8747 655.39 51.0473 659.006 51.0473C664.399 51.0473 668.444 52.702 671.14 56.0114C673.898 59.2596 675.277 63.7027 675.277 69.341V99.4014H667.555V70.536C667.555 66.1848 666.667 63.0286 664.889 61.0675C663.112 59.1063 660.477 58.1258 656.984 58.1258C654.655 58.1258 652.54 58.7999 650.64 60.1482C648.741 61.4965 647.239 63.3044 646.136 65.5719C645.094 67.8395 644.573 70.2909 644.573 72.9262V99.4014H636.759V70.628C636.759 66.2154 635.871 63.0286 634.093 61.0675C632.316 59.1063 629.712 58.1258 626.28 58.1258C623.951 58.1258 621.836 58.8306 619.937 60.2401C618.037 61.5884 616.535 63.427 615.432 65.7558C614.39 68.0233 613.869 70.4747 613.869 73.11V99.4014H606.055V52.5182ZM706.257 100.872C701.66 100.872 697.524 99.7691 693.847 97.5628C690.169 95.3565 687.289 92.3536 685.205 88.5539C683.183 84.7542 682.172 80.5562 682.172 75.9598C682.172 71.3634 683.183 67.1653 685.205 63.3657C687.289 59.566 690.169 56.563 693.847 54.3567C697.524 52.1505 701.66 51.0473 706.257 51.0473C710.853 51.0473 714.99 52.1505 718.667 54.3567C722.344 56.563 725.194 59.566 727.216 63.3657C729.3 67.1653 730.342 71.3634 730.342 75.9598C730.342 80.5562 729.3 84.7542 727.216 88.5539C725.194 92.3536 722.344 95.3565 718.667 97.5628C714.99 99.7691 710.853 100.872 706.257 100.872ZM706.257 93.7938C709.137 93.7938 711.803 93.089 714.255 91.6794C716.767 90.2086 718.759 88.1249 720.23 85.4283C721.762 82.7318 722.528 79.5756 722.528 75.9598C722.528 72.3439 721.762 69.1878 720.23 66.4912C718.759 63.7947 716.767 61.7416 714.255 60.332C711.803 58.8612 709.137 58.1258 706.257 58.1258C703.376 58.1258 700.68 58.8612 698.167 60.332C695.654 61.7416 693.632 63.7947 692.1 66.4912C690.629 69.1878 689.894 72.3439 689.894 75.9598C689.894 79.5756 690.629 82.7318 692.1 85.4283C693.632 88.1249 695.654 90.2086 698.167 91.6794C700.68 93.089 703.376 93.7938 706.257 93.7938ZM754.248 100.137C752.348 100.137 750.571 99.8304 748.916 99.2175C747.323 98.6047 745.975 97.7773 744.872 96.7355C743.646 95.571 742.727 94.2228 742.114 92.6906C741.501 91.1585 741.194 89.2893 741.194 87.083V59.5966H733.013V52.5182H741.194V39.2806H749.008V52.5182H760.407V59.5966H749.008V85.1526C749.008 87.7265 749.499 89.6264 750.479 90.8521C751.644 92.2004 753.329 92.8745 755.535 92.8745C757.312 92.8745 759.028 92.3536 760.683 91.3117V98.9417C759.764 99.3707 758.814 99.6772 757.833 99.861C756.914 100.045 755.719 100.137 754.248 100.137ZM786.86 100.872C782.386 100.872 778.372 99.7997 774.817 97.6547C771.262 95.5098 768.474 92.5681 766.452 88.8297C764.49 85.03 763.51 80.7707 763.51 76.0517C763.51 71.5166 764.429 67.3492 766.268 63.5495C768.168 59.7498 770.833 56.7162 774.265 54.4487C777.697 52.1811 781.681 51.0473 786.216 51.0473C790.812 51.0473 794.796 52.0892 798.167 54.1729C801.537 56.1953 804.111 59.0144 805.889 62.6302C807.727 66.2461 808.646 70.3828 808.646 75.0405C808.646 75.9598 808.554 76.7565 808.371 77.4306H771.324C771.508 80.9852 772.366 83.9881 773.898 86.4395C775.43 88.891 777.36 90.7295 779.689 91.9552C782.079 93.1809 784.561 93.7938 787.135 93.7938C793.141 93.7938 797.768 90.9747 801.016 85.3364L807.635 88.5539C805.613 92.3536 802.855 95.3565 799.362 97.5628C795.93 99.7691 791.762 100.872 786.86 100.872ZM800.373 70.9957C800.25 69.0345 799.699 67.0734 798.718 65.1123C797.738 63.1512 796.175 61.4965 794.03 60.1482C791.946 58.7999 789.311 58.1258 786.124 58.1258C782.447 58.1258 779.321 59.3208 776.747 61.711C774.235 64.0398 772.58 67.1347 771.783 70.9957H800.373ZM866.135 100.872C859.761 100.872 853.97 99.3707 848.761 96.3677C843.551 93.3648 839.445 89.2587 836.442 84.0494C833.501 78.7789 832.03 72.9262 832.03 66.4912C832.03 60.0563 833.501 54.2342 836.442 49.0249C839.445 43.7544 843.551 39.6177 848.761 36.6147C853.97 33.6117 859.761 32.1102 866.135 32.1102C871.038 32.1102 875.512 33.0601 879.557 34.96C883.663 36.7985 887.217 39.4338 890.22 42.8658L884.613 48.2895C882.1 45.2865 879.342 43.0803 876.339 41.6707C873.397 40.2611 869.996 39.5564 866.135 39.5564C861.355 39.5564 856.973 40.6901 852.989 42.9577C849.006 45.164 845.819 48.3201 843.429 52.4263C841.1 56.4711 839.936 61.1594 839.936 66.4912C839.936 71.823 841.1 76.542 843.429 80.6481C845.819 84.6929 849.006 87.8491 852.989 90.1167C856.973 92.3229 861.355 93.4261 866.135 93.4261C874.102 93.4261 880.874 90.1473 886.451 83.5898L892.151 89.1055C889.086 92.7213 885.317 95.6017 880.844 97.7467C876.37 99.8304 871.467 100.872 866.135 100.872ZM919.791 100.872C915.195 100.872 911.058 99.7691 907.381 97.5628C903.704 95.3565 900.824 92.3536 898.74 88.5539C896.718 84.7542 895.706 80.5562 895.706 75.9598C895.706 71.3634 896.718 67.1653 898.74 63.3657C900.824 59.566 903.704 56.563 907.381 54.3567C911.058 52.1505 915.195 51.0473 919.791 51.0473C924.388 51.0473 928.525 52.1505 932.202 54.3567C935.879 56.563 938.729 59.566 940.751 63.3657C942.835 67.1653 943.877 71.3634 943.877 75.9598C943.877 80.5562 942.835 84.7542 940.751 88.5539C938.729 92.3536 935.879 95.3565 932.202 97.5628C928.525 99.7691 924.388 100.872 919.791 100.872ZM919.791 93.7938C922.672 93.7938 925.338 93.089 927.789 91.6794C930.302 90.2086 932.294 88.1249 933.764 85.4283C935.297 82.7318 936.063 79.5756 936.063 75.9598C936.063 72.3439 935.297 69.1878 933.764 66.4912C932.294 63.7947 930.302 61.7416 927.789 60.332C925.338 58.8612 922.672 58.1258 919.791 58.1258C916.911 58.1258 914.215 58.8612 911.702 60.332C909.189 61.7416 907.167 63.7947 905.635 66.4912C904.164 69.1878 903.428 72.3439 903.428 75.9598C903.428 79.5756 904.164 82.7318 905.635 85.4283C907.167 88.1249 909.189 90.2086 911.702 91.6794C914.215 93.089 916.911 93.7938 919.791 93.7938ZM950.214 52.5182H957.66V59.4128H958.028C959.315 57.0839 961.368 55.1228 964.187 53.5294C967.006 51.8747 970.009 51.0473 973.196 51.0473C978.834 51.0473 983.124 52.702 986.066 56.0114C989.069 59.2596 990.57 63.7027 990.57 69.341V99.4014H982.756V70.536C982.756 66.1848 981.714 63.0286 979.631 61.0675C977.547 59.1063 974.697 58.1258 971.081 58.1258C968.569 58.1258 966.301 58.8306 964.279 60.2401C962.318 61.6497 960.786 63.5189 959.682 65.8477C958.579 68.1153 958.028 70.5054 958.028 73.0181V99.4014H950.214V52.5182ZM1004.43 59.5966H995.79V52.5182H1004.43V47.4622C1004.43 44.5205 1005.11 41.9465 1006.45 39.7402C1007.8 37.534 1009.61 35.8486 1011.88 34.6842C1014.14 33.4585 1016.66 32.8456 1019.42 32.8456C1022.05 32.8456 1024.35 33.2133 1026.31 33.9488V41.5788C1025.21 41.1498 1024.16 40.8127 1023.18 40.5676C1022.2 40.2611 1021.04 40.1079 1019.69 40.1079C1017.67 40.1079 1015.92 40.8434 1014.45 42.3142C1012.98 43.7238 1012.24 45.7155 1012.24 48.2895V52.5182H1041.29V99.4014H1033.57V59.5966H1012.24V99.4014H1004.43V59.5966ZM1037.43 44.3366C1035.9 44.3366 1034.58 43.785 1033.48 42.6819C1032.38 41.5788 1031.83 40.2611 1031.83 38.729C1031.83 37.1969 1032.38 35.8793 1033.48 34.7761C1034.58 33.673 1035.9 33.1214 1037.43 33.1214C1038.97 33.1214 1040.28 33.673 1041.39 34.7761C1042.49 35.8793 1043.04 37.1969 1043.04 38.729C1043.04 40.2611 1042.49 41.5788 1041.39 42.6819C1040.34 43.785 1039.03 44.3366 1037.43 44.3366ZM1071.89 120.729C1066.38 120.729 1061.81 119.442 1058.2 116.868C1054.64 114.294 1052.25 111.199 1051.03 107.583L1058.1 104.549C1059.15 107.246 1060.86 109.421 1063.25 111.076C1065.7 112.792 1068.58 113.65 1071.89 113.65C1076.74 113.65 1080.47 112.241 1083.11 109.421C1085.81 106.602 1087.15 102.619 1087.15 97.4709V92.231H1086.79C1085.25 94.6211 1083.08 96.5822 1080.26 98.1144C1077.5 99.5852 1074.35 100.321 1070.79 100.321C1066.75 100.321 1063.04 99.2788 1059.67 97.1951C1056.36 95.1114 1053.72 92.2004 1051.76 88.462C1049.8 84.7236 1048.82 80.4642 1048.82 75.684C1048.82 70.965 1049.8 66.7364 1051.76 62.998C1053.72 59.1983 1056.36 56.2566 1059.67 54.1729C1063.04 52.0892 1066.75 51.0473 1070.79 51.0473C1074.35 51.0473 1077.5 51.8134 1080.26 53.3455C1083.08 54.8164 1085.25 56.7775 1086.79 59.2289H1087.15V52.5182H1094.6V97.5628C1094.6 105.101 1092.52 110.831 1088.35 114.753C1084.18 118.737 1078.7 120.729 1071.89 120.729ZM1071.89 93.2422C1074.71 93.2422 1077.26 92.5374 1079.52 91.1279C1081.85 89.7183 1083.69 87.6959 1085.04 85.0606C1086.45 82.4254 1087.15 79.2998 1087.15 75.684C1087.15 72.0069 1086.45 68.8507 1085.04 66.2154C1083.69 63.5802 1081.85 61.5884 1079.52 60.2401C1077.26 58.8306 1074.71 58.1258 1071.89 58.1258C1069.07 58.1258 1066.5 58.8306 1064.17 60.2401C1061.84 61.6497 1059.97 63.6721 1058.56 66.3074C1057.22 68.9426 1056.54 72.0682 1056.54 75.684C1056.54 79.2998 1057.22 82.456 1058.56 85.1526C1059.97 87.7878 1061.84 89.8102 1064.17 91.2198C1066.5 92.5681 1069.07 93.2422 1071.89 93.2422Z" fill="#5A5A5A"/>
<path d="M461.612 99.8665C457.157 99.8665 453.13 98.8292 449.531 96.7547C445.992 94.6802 443.215 91.8125 441.202 88.1515C439.188 84.4296 438.182 80.2805 438.182 75.7044C438.182 71.3113 439.127 67.2842 441.019 63.6233C442.971 59.9014 445.687 56.9726 449.164 54.8371C452.642 52.6405 456.608 51.5422 461.062 51.5422C465.639 51.5422 469.605 52.549 472.96 54.5625C476.377 56.576 478.97 59.3827 480.74 62.9826C482.509 66.5215 483.394 70.6096 483.394 75.2467C483.394 75.7959 483.364 76.345 483.303 76.8942C483.242 77.4433 483.211 77.7484 483.211 77.8094H448.249C448.554 81.9585 450.049 85.1618 452.734 87.4193C455.419 89.6769 458.469 90.8057 461.886 90.8057C467.133 90.8057 471.161 88.3651 473.967 83.4838L482.57 87.6024C480.557 91.3243 477.75 94.3141 474.15 96.5717C470.611 98.7682 466.432 99.8665 461.612 99.8665ZM473.144 70.1215C473.021 68.6571 472.533 67.1622 471.679 65.6368C470.825 64.1114 469.483 62.8301 467.652 61.7928C465.883 60.6946 463.656 60.1454 460.971 60.1454C457.981 60.1454 455.388 61.0607 453.191 62.8911C451.056 64.7216 449.592 67.1317 448.798 70.1215H473.144Z" fill="#5A5A5A"/>
<path d="M416.087 99.8665C410.9 99.8665 406.599 98.6767 403.182 96.2971C399.826 93.8565 397.446 90.8057 396.043 87.1448L405.012 83.3008C406.05 85.8024 407.544 87.6939 409.497 88.9752C411.51 90.2566 413.707 90.8972 416.087 90.8972C418.588 90.8972 420.632 90.4396 422.219 89.5244C423.805 88.5481 424.598 87.2973 424.598 85.7719C424.598 84.3076 423.958 83.1177 422.676 82.2025C421.395 81.2263 419.29 80.3721 416.361 79.6399L410.138 78.1755C406.721 77.3823 403.761 75.9179 401.26 73.7824C398.819 71.5858 397.599 68.7486 397.599 65.2707C397.599 61.0607 399.338 57.7353 402.816 55.2947C406.294 52.7931 410.565 51.5422 415.629 51.5422C419.839 51.5422 423.561 52.427 426.795 54.1964C430.09 55.9659 432.469 58.5285 433.934 61.8844L425.056 65.6368C424.202 63.7453 422.89 62.342 421.12 61.4267C419.351 60.5115 417.429 60.0539 415.354 60.0539C413.341 60.0539 411.571 60.5115 410.046 61.4267C408.521 62.281 407.758 63.4403 407.758 64.9046C407.758 66.186 408.277 67.2232 409.314 68.0164C410.412 68.8096 412.121 69.4808 414.439 70.0299L421.212 71.6773C425.788 72.8366 429.205 74.6061 431.462 76.9857C433.72 79.3043 434.849 82.111 434.849 85.4058C434.849 88.0905 434.025 90.5311 432.378 92.7277C430.791 94.9242 428.564 96.6632 425.696 97.9445C422.89 99.2258 419.686 99.8665 416.087 99.8665Z" fill="#5A5A5A"/>
<path d="M367.921 99.8665C364.688 99.8665 361.759 99.2258 359.135 97.9445C356.573 96.6022 354.529 94.7717 353.003 92.4531C351.539 90.0735 350.807 87.3888 350.807 84.3991C350.807 79.6399 352.576 75.8874 356.115 73.1417C359.715 70.396 364.261 69.0232 369.752 69.0232C374.572 69.0232 378.691 69.8469 382.108 71.4943V69.5723C382.108 66.8266 381.009 64.569 378.813 62.7996C376.677 60.9691 374.084 60.0539 371.033 60.0539C366.396 60.0539 362.674 61.9454 359.867 65.7283L352.18 60.42C354.315 57.5523 356.969 55.3557 360.142 53.8303C363.376 52.3049 367.006 51.5422 371.033 51.5422C377.684 51.5422 382.809 53.2202 386.409 56.576C390.07 59.8708 391.901 64.5385 391.901 70.5791V98.4021H382.108V92.8192H381.558C380.094 94.8937 378.233 96.6022 375.976 97.9445C373.718 99.2258 371.033 99.8665 367.921 99.8665ZM369.569 91.5379C371.826 91.5379 373.901 90.9887 375.792 89.8905C377.745 88.7312 379.27 87.2363 380.369 85.4058C381.528 83.5143 382.108 81.5008 382.108 79.3653C378.874 77.5958 375.426 76.7111 371.765 76.7111C368.41 76.7111 365.786 77.4433 363.894 78.9077C362.003 80.372 361.057 82.233 361.057 84.4906C361.057 86.5651 361.881 88.2736 363.528 89.6159C365.237 90.8972 367.25 91.5379 369.569 91.5379Z" fill="#5A5A5A"/>
<path d="M325.684 99.8661C322.389 99.8661 319.43 99.1644 316.806 97.7611C314.244 96.3577 312.322 94.5882 311.04 92.4527H310.491V98.4017H300.973V32.8711H311.04V52.5486L310.491 58.8637H311.04C312.322 56.7892 314.244 55.0502 316.806 53.6469C319.43 52.2435 322.389 51.5418 325.684 51.5418C329.589 51.5418 333.189 52.5791 336.484 54.6536C339.84 56.7281 342.494 59.6264 344.446 63.3483C346.46 67.0093 347.466 71.1278 347.466 75.704C347.466 80.2801 346.46 84.3987 344.446 88.0596C342.494 91.7205 339.84 94.6188 336.484 96.7543C333.189 98.8288 329.589 99.8661 325.684 99.8661ZM323.945 90.6222C326.325 90.6222 328.521 90.0121 330.535 88.7918C332.609 87.5715 334.257 85.8325 335.477 83.575C336.758 81.2564 337.399 78.6327 337.399 75.704C337.399 72.7752 336.758 70.1821 335.477 67.9245C334.257 65.6059 332.609 63.8364 330.535 62.6161C328.521 61.3958 326.325 60.7857 323.945 60.7857C321.565 60.7857 319.338 61.3958 317.264 62.6161C315.25 63.8364 313.603 65.5754 312.322 67.833C311.101 70.0905 310.491 72.7142 310.491 75.704C310.491 78.6937 311.101 81.3174 312.322 83.575C313.603 85.8325 315.25 87.5715 317.264 88.7918C319.338 90.0121 321.565 90.6222 323.945 90.6222Z" fill="#5A5A5A"/>
<path d="M273.192 99.8667C268.738 99.8667 264.711 98.8295 261.111 96.7549C257.572 94.6804 254.795 91.8127 252.782 88.1518C250.768 84.4298 249.762 80.2808 249.762 75.7046C249.762 71.3115 250.707 67.2845 252.599 63.6235C254.551 59.9016 257.267 56.9729 260.745 54.8373C264.222 52.6408 268.188 51.5425 272.643 51.5425C277.219 51.5425 281.185 52.5492 284.541 54.5627C287.957 56.5763 290.551 59.383 292.32 62.9829C294.089 66.5218 294.974 70.6098 294.974 75.247C294.974 75.7961 294.944 76.3453 294.883 76.8944C294.822 77.4436 294.791 77.7486 294.791 77.8096H259.829C260.134 81.9587 261.629 85.162 264.314 87.4196C266.999 89.6772 270.049 90.8059 273.466 90.8059C278.714 90.8059 282.741 88.3653 285.547 83.4841L294.15 87.6026C292.137 91.3246 289.33 94.3143 285.73 96.5719C282.191 98.7685 278.012 99.8667 273.192 99.8667ZM284.724 70.1217C284.602 68.6573 284.113 67.1624 283.259 65.6371C282.405 64.1117 281.063 62.8303 279.232 61.7931C277.463 60.6948 275.236 60.1457 272.551 60.1457C269.561 60.1457 266.968 61.0609 264.772 62.8914C262.636 64.7218 261.172 67.1319 260.378 70.1217H284.724Z" fill="#5A5A5A"/>
<path d="M221.822 53.0066H231.341V59.7794H231.89C232.866 57.4608 234.636 55.5388 237.198 54.0134C239.761 52.427 242.384 51.6338 245.069 51.6338C247.266 51.6338 249.066 51.9389 250.469 52.549V63.0742C248.395 62.0369 246.076 61.5183 243.513 61.5183C240.218 61.5183 237.442 62.7996 235.185 65.3623C232.988 67.8639 231.89 70.9452 231.89 74.6061V98.4021H221.822V53.0066Z" fill="#5A5A5A"/>
<path d="M207.452 45.3184C205.561 45.3184 203.944 44.6777 202.602 43.3964C201.32 42.0541 200.68 40.4371 200.68 38.5457C200.68 36.6542 201.32 35.0678 202.602 33.7865C203.944 32.4441 205.561 31.7729 207.452 31.7729C209.344 31.7729 210.93 32.4441 212.212 33.7865C213.554 35.0678 214.225 36.6542 214.225 38.5457C214.225 40.4371 213.554 42.0541 212.212 43.3964C210.93 44.6777 209.344 45.3184 207.452 45.3184ZM202.419 53.0063H212.486V98.4018H202.419V53.0063Z" fill="#5A5A5A"/>
<path d="M156.562 32.8713H196.375V42.6643H166.813V61.5181H193.446V71.2196H166.813V98.402H156.562V32.8713Z" fill="#5A5A5A"/>
<path d="M31.6562 118.567C36.7084 120.601 42.1896 121.807 47.9447 122.008C55.7335 122.28 63.1403 120.67 69.7616 117.611C61.8214 114.491 54.6303 109.929 48.4929 104.257C44.5147 110.627 38.6305 115.658 31.6562 118.567Z" fill="#FF9100"/>
<path d="M48.4923 104.259C34.4827 91.302 25.9838 72.5484 26.7021 51.979C26.7254 51.311 26.7607 50.6435 26.8019 49.9762C24.2928 49.3273 21.6734 48.9313 18.9777 48.8371C15.1191 48.7024 11.3823 49.181 7.85452 50.1744C4.11472 56.7255 1.85787 64.242 1.57672 72.2932C0.851127 93.0713 13.4253 111.227 31.6556 118.569C38.63 115.66 44.5139 110.635 48.4923 104.259Z" fill="#FFC400"/>
<path d="M48.4937 104.258C51.7509 99.0459 53.7258 92.9348 53.9557 86.3506C54.5605 69.0316 42.9175 54.133 26.8033 49.9757C26.762 50.643 26.7268 51.3105 26.7035 51.9785C25.9852 72.5479 34.484 91.3015 48.4937 104.258Z" fill="#FF9100"/>
<path d="M52.1543 1.29291C42.9766 8.64534 35.7294 18.3402 31.3447 29.5084C28.8344 35.9054 27.2569 42.7768 26.7964 49.9798C42.9106 54.1372 54.5536 69.0358 53.9488 86.3548C53.7189 92.939 51.7382 99.044 48.4868 104.263C54.6239 109.941 61.8153 114.497 69.7555 117.616C85.693 110.249 97.0006 94.3967 97.6554 75.6462C98.0796 63.4978 93.4121 52.6704 86.8167 43.5311C79.8515 33.8654 52.1543 1.29291 52.1543 1.29291Z" fill="#DD2C00"/>
<g filter="url(#filter0_d_47_1014)">
<circle cx="100" cy="90" r="30" fill="white"/>
<path fill-rule="evenodd" clip-rule="evenodd" d="M91 97.5H83.5V100.5H91C91.825 100.5 92.5312 100.206 93.1187 99.6188C93.7062 99.0312 94 98.325 94 97.5L94 82.5L106.3 82.5L103.9 84.9L106 87L112 81L106 75L103.9 77.1L106.3 79.5L94 79.5C93.175 79.5 92.4687 79.7937 91.8812 80.3812C91.2937 80.9687 91 81.675 91 82.5L91 97.5ZM97 97.5H106.3L103.9 95.1L106 93L112 99L106 105L103.9 102.9L106.3 100.5H97V97.5Z" fill="#1F1F1F"/>
</g>
<defs>
<filter id="filter0_d_47_1014" x="68" y="58.6704" width="64" height="64" filterUnits="userSpaceOnUse" color-interpolation-filters="sRGB">
<feFlood flood-opacity="0" result="BackgroundImageFix"/>
<feColorMatrix in="SourceAlpha" type="matrix" values="0 0 0 0 0 0 0 0 0 0 0 0 0 0 0 0 0 0 127 0" result="hardAlpha"/>
<feOffset dy="0.670408"/>
<feGaussianBlur stdDeviation="1"/>
<feComposite in2="hardAlpha" operator="out"/>
<feColorMatrix type="matrix" values="0 0 0 0 0 0 0 0 0 0 0 0 0 0 0 0 0 0 0.3 0"/>
<feBlend mode="normal" in2="BackgroundImageFix" result="effect1_dropShadow_47_1014"/>
<feBlend mode="normal" in="SourceGraphic" in2="effect1_dropShadow_47_1014" result="shape"/>
</filter>
</defs>
</svg>
