<svg width="921" height="128" viewBox="0 0 921 128" fill="none" xmlns="http://www.w3.org/2000/svg">
<path d="M506.53 33.5811H544.588V41.0272H514.252V62.8141H541.646V70.1683H514.252V91.9552H544.588V99.4014H506.53V33.5811ZM564.814 75.5921L548.542 52.5182H557.368L569.502 69.8925L581.177 52.5182H590.278L573.915 75.5921L590.645 99.4014H581.545L569.318 81.3835L557.368 99.4014H548.267L564.814 75.5921ZM613.839 100.137C611.939 100.137 610.162 99.8304 608.507 99.2175C606.914 98.6047 605.566 97.7773 604.463 96.7355C603.237 95.571 602.318 94.2228 601.705 92.6906C601.092 91.1585 600.785 89.2893 600.785 87.083V59.5966H592.604V52.5182H600.785V39.2806H608.599V52.5182H619.998V59.5966H608.599V85.1526C608.599 87.7265 609.09 89.6264 610.07 90.8521C611.235 92.2004 612.92 92.8745 615.126 92.8745C616.903 92.8745 618.619 92.3536 620.274 91.3117V98.9417C619.355 99.3707 618.405 99.6772 617.424 99.861C616.505 100.045 615.31 100.137 613.839 100.137ZM646.451 100.872C641.977 100.872 637.963 99.7997 634.408 97.6547C630.853 95.5098 628.065 92.5681 626.043 88.8297C624.081 85.03 623.101 80.7707 623.101 76.0517C623.101 71.5166 624.02 67.3492 625.859 63.5495C627.759 59.7498 630.425 56.7162 633.856 54.4487C637.288 52.1811 641.272 51.0473 645.807 51.0473C650.403 51.0473 654.387 52.0892 657.758 54.1729C661.128 56.1953 663.702 59.0144 665.48 62.6302C667.318 66.2461 668.237 70.3828 668.237 75.0405C668.237 75.9598 668.146 76.7565 667.962 77.4306H630.915C631.099 80.9852 631.957 83.9881 633.489 86.4395C635.021 88.891 636.951 90.7295 639.28 91.9552C641.67 93.1809 644.152 93.7938 646.726 93.7938C652.732 93.7938 657.359 90.9747 660.607 85.3364L667.226 88.5539C665.204 92.3536 662.446 95.3565 658.953 97.5628C655.521 99.7691 651.353 100.872 646.451 100.872ZM659.964 70.9957C659.841 69.0345 659.29 67.0734 658.309 65.1123C657.329 63.1512 655.766 61.4965 653.621 60.1482C651.537 58.7999 648.902 58.1258 645.715 58.1258C642.038 58.1258 638.913 59.3208 636.339 61.711C633.826 64.0398 632.171 67.1347 631.374 70.9957H659.964ZM675.544 52.5182H682.99V59.4128H683.357C684.644 57.0839 686.697 55.1228 689.517 53.5294C692.336 51.8747 695.339 51.0473 698.526 51.0473C704.164 51.0473 708.454 52.702 711.395 56.0114C714.398 59.2596 715.9 63.7027 715.9 69.341V99.4014H708.086V70.536C708.086 66.1848 707.044 63.0286 704.96 61.0675C702.877 59.1063 700.027 58.1258 696.411 58.1258C693.899 58.1258 691.631 58.8306 689.609 60.2401C687.647 61.6497 686.115 63.5189 685.012 65.8477C683.909 68.1153 683.357 70.5054 683.357 73.0181V99.4014H675.544V52.5182ZM741.149 100.872C736.124 100.872 731.926 99.7078 728.555 97.379C725.184 94.9888 722.794 91.9552 721.385 88.2781L728.371 85.1526C729.536 87.9717 731.252 90.1473 733.519 91.6794C735.848 93.2116 738.391 93.9776 741.149 93.9776C744.091 93.9776 746.604 93.3954 748.687 92.231C750.771 91.0053 751.813 89.2893 751.813 87.083C751.813 85.1219 750.985 83.5591 749.331 82.3947C747.676 81.169 745.071 80.1272 741.517 79.2692L735.817 77.7983C732.079 76.8791 729.015 75.3163 726.625 73.11C724.234 70.9037 723.039 68.054 723.039 64.5607C723.039 61.8642 723.836 59.5047 725.429 57.4823C727.084 55.3986 729.26 53.8052 731.956 52.702C734.653 51.5989 737.564 51.0473 740.69 51.0473C744.796 51.0473 748.442 51.936 751.629 53.7132C754.877 55.4905 757.175 57.9726 758.524 61.1594L751.721 64.2849C749.637 60.1176 745.929 58.0339 740.598 58.0339C738.024 58.0339 735.756 58.6467 733.795 59.8724C731.895 61.0368 730.945 62.5383 730.945 64.3769C730.945 66.0929 731.619 67.5024 732.968 68.6056C734.316 69.6474 736.338 70.5054 739.035 71.1795L745.837 72.9262C750.434 74.0906 753.896 75.8372 756.225 78.166C758.554 80.4336 759.719 83.2221 759.719 86.5315C759.719 89.4119 758.891 91.9552 757.237 94.1615C755.582 96.3065 753.345 97.9612 750.526 99.1256C747.707 100.29 744.581 100.872 741.149 100.872ZM770.545 43.877C769.013 43.877 767.695 43.3254 766.592 42.2223C765.489 41.1191 764.938 39.8015 764.938 38.2694C764.938 36.7372 765.489 35.4503 766.592 34.4084C767.695 33.3053 769.013 32.7537 770.545 32.7537C772.077 32.7537 773.395 33.3053 774.498 34.4084C775.601 35.4503 776.153 36.7372 776.153 38.2694C776.153 39.8015 775.601 41.1191 774.498 42.2223C773.456 43.3254 772.139 43.877 770.545 43.877ZM766.684 52.5182H774.406V99.4014H766.684V52.5182ZM806.002 100.872C801.406 100.872 797.269 99.7691 793.592 97.5628C789.915 95.3565 787.034 92.3536 784.951 88.5539C782.928 84.7542 781.917 80.5562 781.917 75.9598C781.917 71.3634 782.928 67.1653 784.951 63.3657C787.034 59.566 789.915 56.563 793.592 54.3567C797.269 52.1505 801.406 51.0473 806.002 51.0473C810.598 51.0473 814.735 52.1505 818.412 54.3567C822.089 56.563 824.939 59.566 826.962 63.3657C829.045 67.1653 830.087 71.3634 830.087 75.9598C830.087 80.5562 829.045 84.7542 826.962 88.5539C824.939 92.3536 822.089 95.3565 818.412 97.5628C814.735 99.7691 810.598 100.872 806.002 100.872ZM806.002 93.7938C808.882 93.7938 811.548 93.089 814 91.6794C816.512 90.2086 818.504 88.1249 819.975 85.4283C821.507 82.7318 822.273 79.5756 822.273 75.9598C822.273 72.3439 821.507 69.1878 819.975 66.4912C818.504 63.7947 816.512 61.7416 814 60.332C811.548 58.8612 808.882 58.1258 806.002 58.1258C803.122 58.1258 800.425 58.8612 797.912 60.332C795.4 61.7416 793.377 63.7947 791.845 66.4912C790.374 69.1878 789.639 72.3439 789.639 75.9598C789.639 79.5756 790.374 82.7318 791.845 85.4283C793.377 88.1249 795.4 90.2086 797.912 91.6794C800.425 93.089 803.122 93.7938 806.002 93.7938ZM836.424 52.5182H843.871V59.4128H844.238C845.525 57.0839 847.578 55.1228 850.397 53.5294C853.217 51.8747 856.22 51.0473 859.406 51.0473C865.045 51.0473 869.335 52.702 872.276 56.0114C875.279 59.2596 876.781 63.7027 876.781 69.341V99.4014H868.967V70.536C868.967 66.1848 867.925 63.0286 865.841 61.0675C863.758 59.1063 860.908 58.1258 857.292 58.1258C854.779 58.1258 852.512 58.8306 850.489 60.2401C848.528 61.6497 846.996 63.5189 845.893 65.8477C844.79 68.1153 844.238 70.5054 844.238 73.0181V99.4014H836.424V52.5182ZM902.03 100.872C897.005 100.872 892.807 99.7078 889.436 97.379C886.065 94.9888 883.675 91.9552 882.266 88.2781L889.252 85.1526C890.416 87.9717 892.132 90.1473 894.4 91.6794C896.729 93.2116 899.272 93.9776 902.03 93.9776C904.972 93.9776 907.484 93.3954 909.568 92.231C911.652 91.0053 912.694 89.2893 912.694 87.083C912.694 85.1219 911.866 83.5591 910.212 82.3947C908.557 81.169 905.952 80.1272 902.398 79.2692L896.698 77.7983C892.96 76.8791 889.896 75.3163 887.505 73.11C885.115 70.9037 883.92 68.054 883.92 64.5607C883.92 61.8642 884.717 59.5047 886.31 57.4823C887.965 55.3986 890.141 53.8052 892.837 52.702C895.534 51.5989 898.445 51.0473 901.57 51.0473C905.676 51.0473 909.323 51.936 912.51 53.7132C915.758 55.4905 918.056 57.9726 919.404 61.1594L912.602 64.2849C910.518 60.1176 906.81 58.0339 901.478 58.0339C898.904 58.0339 896.637 58.6467 894.676 59.8724C892.776 61.0368 891.826 62.5383 891.826 64.3769C891.826 66.0929 892.5 67.5024 893.848 68.6056C895.197 69.6474 897.219 70.5054 899.916 71.1795L906.718 72.9262C911.315 74.0906 914.777 75.8372 917.106 78.166C919.435 80.4336 920.599 83.2221 920.599 86.5315C920.599 89.4119 919.772 91.9552 918.117 94.1615C916.463 96.3065 914.226 97.9612 911.407 99.1256C908.588 100.29 905.462 100.872 902.03 100.872Z" fill="white"/>
<path d="M461.612 99.8667C457.157 99.8667 453.13 98.8295 449.531 96.7549C445.992 94.6804 443.215 91.8127 441.202 88.1518C439.188 84.4298 438.182 80.2808 438.182 75.7046C438.182 71.3115 439.127 67.2845 441.019 63.6235C442.971 59.9016 445.687 56.9729 449.164 54.8373C452.642 52.6408 456.608 51.5425 461.062 51.5425C465.639 51.5425 469.605 52.5492 472.96 54.5627C476.377 56.5763 478.97 59.383 480.74 62.9829C482.509 66.5218 483.394 70.6098 483.394 75.247C483.394 75.7961 483.364 76.3453 483.303 76.8944C483.242 77.4436 483.211 77.7486 483.211 77.8096H448.249C448.554 81.9587 450.049 85.162 452.734 87.4196C455.419 89.6772 458.469 90.8059 461.886 90.8059C467.133 90.8059 471.161 88.3653 473.967 83.4841L482.57 87.6026C480.557 91.3246 477.75 94.3143 474.15 96.5719C470.611 98.7685 466.432 99.8667 461.612 99.8667ZM473.144 70.1217C473.021 68.6573 472.533 67.1624 471.679 65.6371C470.825 64.1117 469.483 62.8303 467.652 61.7931C465.883 60.6948 463.656 60.1457 460.971 60.1457C457.981 60.1457 455.388 61.0609 453.191 62.8914C451.056 64.7218 449.592 67.1319 448.798 70.1217H473.144Z" fill="white"/>
<path d="M416.087 99.8667C410.9 99.8667 406.599 98.6769 403.182 96.2973C399.826 93.8567 397.446 90.8059 396.043 87.145L405.012 83.301C406.05 85.8027 407.544 87.6942 409.497 88.9755C411.51 90.2568 413.707 90.8975 416.087 90.8975C418.588 90.8975 420.632 90.4398 422.219 89.5246C423.805 88.5484 424.598 87.2976 424.598 85.7722C424.598 84.3078 423.958 83.118 422.676 82.2028C421.395 81.2265 419.29 80.3723 416.361 79.6401L410.138 78.1757C406.721 77.3825 403.761 75.9182 401.26 73.7826C398.819 71.5861 397.599 68.7488 397.599 65.271C397.599 61.0609 399.338 57.7356 402.816 55.2949C406.294 52.7933 410.565 51.5425 415.629 51.5425C419.839 51.5425 423.561 52.4272 426.795 54.1967C430.09 55.9661 432.469 58.5288 433.934 61.8846L425.056 65.6371C424.202 63.7456 422.89 62.3422 421.12 61.427C419.351 60.5118 417.429 60.0541 415.354 60.0541C413.341 60.0541 411.571 60.5118 410.046 61.427C408.521 62.2812 407.758 63.4405 407.758 64.9049C407.758 66.1862 408.277 67.2235 409.314 68.0167C410.412 68.8099 412.121 69.481 414.439 70.0302L421.212 71.6776C425.788 72.8369 429.205 74.6063 431.462 76.9859C433.72 79.3045 434.849 82.1112 434.849 85.4061C434.849 88.0908 434.025 90.5314 432.378 92.7279C430.791 94.9245 428.564 96.6634 425.696 97.9448C422.89 99.2261 419.686 99.8667 416.087 99.8667Z" fill="white"/>
<path d="M367.921 99.8667C364.688 99.8667 361.759 99.2261 359.135 97.9448C356.573 96.6024 354.529 94.7719 353.003 92.4534C351.539 90.0738 350.807 87.3891 350.807 84.3993C350.807 79.6401 352.576 75.8877 356.115 73.142C359.715 70.3963 364.261 69.0234 369.752 69.0234C374.572 69.0234 378.691 69.8471 382.108 71.4945V69.5726C382.108 66.8269 381.009 64.5693 378.813 62.7998C376.677 60.9694 374.084 60.0541 371.033 60.0541C366.396 60.0541 362.674 61.9456 359.867 65.7286L352.18 60.4202C354.315 57.5525 356.969 55.3559 360.142 53.8306C363.376 52.3052 367.006 51.5425 371.033 51.5425C377.684 51.5425 382.809 53.2204 386.409 56.5763C390.07 59.8711 391.901 64.5388 391.901 70.5793V98.4024H382.108V92.8195H381.558C380.094 94.894 378.233 96.6024 375.976 97.9448C373.718 99.2261 371.033 99.8667 367.921 99.8667ZM369.569 91.5381C371.826 91.5381 373.901 90.989 375.792 89.8907C377.745 88.7314 379.27 87.2365 380.369 85.4061C381.528 83.5146 382.108 81.5011 382.108 79.3655C378.874 77.5961 375.426 76.7114 371.765 76.7114C368.41 76.7114 365.786 77.4436 363.894 78.9079C362.003 80.3723 361.057 82.2333 361.057 84.4908C361.057 86.5654 361.881 88.2738 363.528 89.6161C365.237 90.8975 367.25 91.5381 369.569 91.5381Z" fill="white"/>
<path d="M325.684 99.8661C322.389 99.8661 319.43 99.1644 316.806 97.7611C314.244 96.3577 312.322 94.5882 311.04 92.4527H310.491V98.4017H300.973V32.8711H311.04V52.5486L310.491 58.8637H311.04C312.322 56.7892 314.244 55.0502 316.806 53.6469C319.43 52.2435 322.389 51.5418 325.684 51.5418C329.589 51.5418 333.189 52.5791 336.484 54.6536C339.84 56.7281 342.494 59.6264 344.446 63.3483C346.46 67.0093 347.466 71.1278 347.466 75.704C347.466 80.2801 346.46 84.3987 344.446 88.0596C342.494 91.7205 339.84 94.6188 336.484 96.7543C333.189 98.8288 329.589 99.8661 325.684 99.8661ZM323.945 90.6222C326.325 90.6222 328.521 90.0121 330.535 88.7918C332.609 87.5715 334.257 85.8325 335.477 83.575C336.758 81.2564 337.399 78.6327 337.399 75.704C337.399 72.7752 336.758 70.1821 335.477 67.9245C334.257 65.6059 332.609 63.8364 330.535 62.6161C328.521 61.3958 326.325 60.7857 323.945 60.7857C321.565 60.7857 319.338 61.3958 317.264 62.6161C315.25 63.8364 313.603 65.5754 312.322 67.833C311.101 70.0905 310.491 72.7142 310.491 75.704C310.491 78.6937 311.101 81.3174 312.322 83.575C313.603 85.8325 315.25 87.5715 317.264 88.7918C319.338 90.0121 321.565 90.6222 323.945 90.6222Z" fill="white"/>
<path d="M273.192 99.8667C268.738 99.8667 264.711 98.8295 261.111 96.7549C257.572 94.6804 254.795 91.8127 252.782 88.1518C250.768 84.4298 249.762 80.2808 249.762 75.7046C249.762 71.3115 250.707 67.2845 252.599 63.6235C254.551 59.9016 257.267 56.9729 260.745 54.8373C264.222 52.6408 268.188 51.5425 272.643 51.5425C277.219 51.5425 281.185 52.5492 284.541 54.5627C287.957 56.5763 290.551 59.383 292.32 62.9829C294.089 66.5218 294.974 70.6098 294.974 75.247C294.974 75.7961 294.944 76.3453 294.883 76.8944C294.822 77.4436 294.791 77.7486 294.791 77.8096H259.829C260.134 81.9587 261.629 85.162 264.314 87.4196C266.999 89.6772 270.049 90.8059 273.466 90.8059C278.714 90.8059 282.741 88.3653 285.547 83.4841L294.15 87.6026C292.137 91.3246 289.33 94.3143 285.73 96.5719C282.191 98.7685 278.012 99.8667 273.192 99.8667ZM284.724 70.1217C284.602 68.6573 284.113 67.1624 283.259 65.6371C282.405 64.1117 281.063 62.8303 279.232 61.7931C277.463 60.6948 275.236 60.1457 272.551 60.1457C269.561 60.1457 266.968 61.0609 264.772 62.8914C262.636 64.7218 261.172 67.1319 260.378 70.1217H284.724Z" fill="white"/>
<path d="M221.822 53.0066H231.341V59.7794H231.89C232.866 57.4608 234.636 55.5388 237.198 54.0134C239.761 52.427 242.384 51.6338 245.069 51.6338C247.266 51.6338 249.066 51.9389 250.469 52.549V63.0742C248.395 62.0369 246.076 61.5183 243.513 61.5183C240.218 61.5183 237.442 62.7996 235.185 65.3623C232.988 67.8639 231.89 70.9452 231.89 74.6061V98.4022H221.822V53.0066Z" fill="white"/>
<path d="M207.452 45.3184C205.561 45.3184 203.944 44.6777 202.602 43.3964C201.32 42.0541 200.68 40.4371 200.68 38.5457C200.68 36.6542 201.32 35.0678 202.602 33.7865C203.944 32.4441 205.561 31.7729 207.452 31.7729C209.344 31.7729 210.93 32.4441 212.212 33.7865C213.554 35.0678 214.225 36.6542 214.225 38.5457C214.225 40.4371 213.554 42.0541 212.212 43.3964C210.93 44.6777 209.344 45.3184 207.452 45.3184ZM202.419 53.0063H212.486V98.4018H202.419V53.0063Z" fill="white"/>
<path d="M156.562 32.8711H196.375V42.6641H166.813V61.5179H193.446V71.2193H166.813V98.4017H156.562V32.8711Z" fill="white"/>
<path d="M31.6581 118.567C36.7104 120.601 42.1915 121.807 47.9467 122.008C55.7355 122.28 63.1422 120.67 69.7635 117.611C61.8234 114.492 54.6322 109.929 48.4949 104.257C44.5166 110.627 38.6325 115.658 31.6581 118.567Z" fill="#FF9100"/>
<path d="M48.4923 104.259C34.4827 91.302 25.9838 72.5484 26.7021 51.979C26.7254 51.311 26.7607 50.6435 26.8019 49.9762C24.2928 49.3273 21.6734 48.9313 18.9777 48.8371C15.1191 48.7024 11.3823 49.181 7.85452 50.1744C4.11472 56.7255 1.85787 64.242 1.57672 72.2932C0.851127 93.0713 13.4253 111.227 31.6556 118.569C38.63 115.66 44.5139 110.635 48.4923 104.259Z" fill="#FFC400"/>
<path d="M48.4937 104.258C51.7509 99.0459 53.7258 92.9348 53.9557 86.3506C54.5605 69.0316 42.9175 54.133 26.8033 49.9757C26.762 50.643 26.7268 51.3105 26.7035 51.9785C25.9852 72.5479 34.484 91.3015 48.4937 104.258Z" fill="#FF9100"/>
<path d="M52.1543 1.29291C42.9766 8.64534 35.7294 18.3402 31.3447 29.5084C28.8344 35.9054 27.2569 42.7768 26.7964 49.9798C42.9106 54.1372 54.5536 69.0358 53.9488 86.3548C53.7189 92.939 51.7382 99.044 48.4868 104.263C54.6239 109.941 61.8153 114.497 69.7555 117.616C85.693 110.249 97.0006 94.3967 97.6554 75.6462C98.0796 63.4978 93.4121 52.6704 86.8167 43.5311C79.8515 33.8654 52.1543 1.29291 52.1543 1.29291Z" fill="#DD2C00"/>
<g filter="url(#filter0_d_47_1289)">
<circle cx="100" cy="90.4678" r="30" fill="white"/>
<path fill-rule="evenodd" clip-rule="evenodd" d="M101.737 75.6734L105.244 79.2329C106.423 80.4299 105.945 80.8769 105.184 81.6494L101.758 85.1264C100.998 85.8989 101.113 86.8409 101.754 87.4904L104.082 89.8529C104.724 90.5039 105.649 90.6209 106.41 89.8484L109.836 86.3714C110.596 85.5989 111.576 85.6604 112.221 86.3114L115.699 89.8439C116.341 90.4964 116.404 91.4924 115.642 92.2649L104.403 103.672C103.091 105.013 101.294 105.768 99.4184 105.768C97.5427 105.768 95.746 105.013 94.4339 103.672L84.2939 93.3794C83.6489 92.7269 83.5934 91.7249 84.3539 90.9539L87.7544 87.5024C88.5149 86.7299 88.6739 86.0174 88.0319 85.3649L85.4654 82.7594C84.8219 82.1084 84.8144 81.0614 85.5749 80.2889L88.8779 76.9364C89.6384 76.1639 90.6359 76.2074 91.2779 76.8584L93.8459 79.4639C94.4879 80.1164 95.1659 79.9799 95.9264 79.2089L99.3524 75.7304C100.113 74.9579 101.095 75.0209 101.737 75.6734Z" fill="#1F1F1F"/>
</g>
<defs>
<filter id="filter0_d_47_1289" x="68" y="59.1382" width="64" height="64" filterUnits="userSpaceOnUse" color-interpolation-filters="sRGB">
<feFlood flood-opacity="0" result="BackgroundImageFix"/>
<feColorMatrix in="SourceAlpha" type="matrix" values="0 0 0 0 0 0 0 0 0 0 0 0 0 0 0 0 0 0 127 0" result="hardAlpha"/>
<feOffset dy="0.670408"/>
<feGaussianBlur stdDeviation="1"/>
<feComposite in2="hardAlpha" operator="out"/>
<feColorMatrix type="matrix" values="0 0 0 0 0 0 0 0 0 0 0 0 0 0 0 0 0 0 0.3 0"/>
<feBlend mode="normal" in2="BackgroundImageFix" result="effect1_dropShadow_47_1289"/>
<feBlend mode="normal" in="SourceGraphic" in2="effect1_dropShadow_47_1289" result="shape"/>
</filter>
</defs>
</svg>
