<svg width="1174" height="128" viewBox="0 0 1174 128" fill="none" xmlns="http://www.w3.org/2000/svg">
<path d="M537.418 100.872C531.228 100.872 525.528 99.3707 520.319 96.3677C515.11 93.3648 510.973 89.228 507.909 83.9575C504.845 78.687 503.313 72.8649 503.313 66.4912C503.313 60.1176 504.845 54.2955 507.909 49.0249C510.973 43.7544 515.11 39.6177 520.319 36.6147C525.528 33.6117 531.228 32.1102 537.418 32.1102C542.259 32.1102 546.794 32.9682 551.023 34.6842C555.313 36.4002 558.837 38.8209 561.595 41.9465L555.987 47.5541C553.903 44.9801 551.238 43.019 547.989 41.6707C544.741 40.2611 541.248 39.5564 537.51 39.5564C532.852 39.5564 528.501 40.6901 524.456 42.9577C520.472 45.164 517.255 48.3201 514.804 52.4263C512.413 56.4711 511.218 61.1594 511.218 66.4912C511.218 71.823 512.413 76.542 514.804 80.6481C517.255 84.6929 520.503 87.8491 524.548 90.1167C528.593 92.3229 532.913 93.4261 537.51 93.4261C541.922 93.4261 545.599 92.7519 548.541 91.4036C551.544 89.9941 554.118 88.1555 556.263 85.888C557.856 84.172 559.143 82.1189 560.124 79.7288C561.104 77.2774 561.717 74.5809 561.962 71.6392H537.602V64.3769H569.225C569.531 66.0929 569.684 67.6863 569.684 69.1571C569.684 73.2019 569.041 77.1548 567.754 81.0158C566.467 84.8155 564.414 88.1555 561.595 91.0359C555.528 97.5935 547.469 100.872 537.418 100.872ZM599.064 100.872C594.468 100.872 590.331 99.7691 586.654 97.5628C582.977 95.3565 580.096 92.3536 578.012 88.5539C575.99 84.7542 574.979 80.5562 574.979 75.9598C574.979 71.3634 575.99 67.1653 578.012 63.3657C580.096 59.566 582.977 56.563 586.654 54.3567C590.331 52.1505 594.468 51.0473 599.064 51.0473C603.66 51.0473 607.797 52.1505 611.474 54.3567C615.151 56.563 618.001 59.566 620.023 63.3657C622.107 67.1653 623.149 71.3634 623.149 75.9598C623.149 80.5562 622.107 84.7542 620.023 88.5539C618.001 92.3536 615.151 95.3565 611.474 97.5628C607.797 99.7691 603.66 100.872 599.064 100.872ZM599.064 93.7938C601.944 93.7938 604.61 93.089 607.062 91.6794C609.574 90.2086 611.566 88.1249 613.037 85.4283C614.569 82.7318 615.335 79.5756 615.335 75.9598C615.335 72.3439 614.569 69.1878 613.037 66.4912C611.566 63.7947 609.574 61.7416 607.062 60.332C604.61 58.8612 601.944 58.1258 599.064 58.1258C596.184 58.1258 593.487 58.8612 590.974 60.332C588.462 61.7416 586.439 63.7947 584.907 66.4912C583.436 69.1878 582.701 72.3439 582.701 75.9598C582.701 79.5756 583.436 82.7318 584.907 85.4283C586.439 88.1249 588.462 90.2086 590.974 91.6794C593.487 93.089 596.184 93.7938 599.064 93.7938ZM651.987 100.872C647.391 100.872 643.254 99.7691 639.577 97.5628C635.9 95.3565 633.019 92.3536 630.936 88.5539C628.913 84.7542 627.902 80.5562 627.902 75.9598C627.902 71.3634 628.913 67.1653 630.936 63.3657C633.019 59.566 635.9 56.563 639.577 54.3567C643.254 52.1505 647.391 51.0473 651.987 51.0473C656.583 51.0473 660.72 52.1505 664.397 54.3567C668.074 56.563 670.924 59.566 672.947 63.3657C675.03 67.1653 676.072 71.3634 676.072 75.9598C676.072 80.5562 675.03 84.7542 672.947 88.5539C670.924 92.3536 668.074 95.3565 664.397 97.5628C660.72 99.7691 656.583 100.872 651.987 100.872ZM651.987 93.7938C654.867 93.7938 657.533 93.089 659.985 91.6794C662.497 90.2086 664.489 88.1249 665.96 85.4283C667.492 82.7318 668.258 79.5756 668.258 75.9598C668.258 72.3439 667.492 69.1878 665.96 66.4912C664.489 63.7947 662.497 61.7416 659.985 60.332C657.533 58.8612 654.867 58.1258 651.987 58.1258C649.107 58.1258 646.41 58.8612 643.897 60.332C641.385 61.7416 639.362 63.7947 637.83 66.4912C636.359 69.1878 635.624 72.3439 635.624 75.9598C635.624 79.5756 636.359 82.7318 637.83 85.4283C639.362 88.1249 641.385 90.2086 643.897 91.6794C646.41 93.089 649.107 93.7938 651.987 93.7938ZM703.899 120.729C698.383 120.729 693.818 119.442 690.202 116.868C686.647 114.294 684.257 111.199 683.031 107.583L690.11 104.549C691.152 107.246 692.868 109.421 695.258 111.076C697.709 112.792 700.59 113.65 703.899 113.65C708.741 113.65 712.479 112.241 715.114 109.421C717.811 106.602 719.159 102.619 719.159 97.4709V92.231H718.791C717.259 94.6211 715.084 96.5822 712.264 98.1144C709.507 99.5852 706.35 100.321 702.796 100.321C698.751 100.321 695.043 99.2788 691.673 97.1951C688.363 95.1114 685.728 92.2004 683.767 88.462C681.806 84.7236 680.825 80.4642 680.825 75.684C680.825 70.965 681.806 66.7364 683.767 62.998C685.728 59.1983 688.363 56.2566 691.673 54.1729C695.043 52.0892 698.751 51.0473 702.796 51.0473C706.35 51.0473 709.507 51.8134 712.264 53.3455C715.084 54.8164 717.259 56.7775 718.791 59.2289H719.159V52.5182H726.605V97.5628C726.605 105.101 724.521 110.831 720.354 114.753C716.187 118.737 710.702 120.729 703.899 120.729ZM703.899 93.2422C706.718 93.2422 709.261 92.5374 711.529 91.1279C713.858 89.7183 715.696 87.6959 717.045 85.0606C718.454 82.4254 719.159 79.2998 719.159 75.684C719.159 72.0069 718.454 68.8507 717.045 66.2154C715.696 63.5802 713.858 61.5884 711.529 60.2401C709.261 58.8306 706.718 58.1258 703.899 58.1258C701.08 58.1258 698.506 58.8306 696.177 60.2401C693.848 61.6497 691.979 63.6721 690.569 66.3074C689.221 68.9426 688.547 72.0682 688.547 75.684C688.547 79.2998 689.221 82.456 690.569 85.1526C691.979 87.7878 693.848 89.8102 696.177 91.2198C698.506 92.5681 701.08 93.2422 703.899 93.2422ZM736.32 33.5811H744.134V99.4014H736.32V33.5811ZM774.291 100.872C769.817 100.872 765.803 99.7997 762.249 97.6547C758.694 95.5098 755.906 92.5681 753.883 88.8297C751.922 85.03 750.942 80.7707 750.942 76.0517C750.942 71.5166 751.861 67.3492 753.699 63.5495C755.599 59.7498 758.265 56.7162 761.697 54.4487C765.129 52.1811 769.113 51.0473 773.648 51.0473C778.244 51.0473 782.228 52.0892 785.598 54.1729C788.969 56.1953 791.543 59.0144 793.32 62.6302C795.159 66.2461 796.078 70.3828 796.078 75.0405C796.078 75.9598 795.986 76.7565 795.802 77.4306H758.755C758.939 80.9852 759.797 83.9881 761.329 86.4395C762.862 88.891 764.792 90.7295 767.121 91.9552C769.511 93.1809 771.993 93.7938 774.567 93.7938C780.573 93.7938 785.2 90.9747 788.448 85.3364L795.067 88.5539C793.045 92.3536 790.287 95.3565 786.793 97.5628C783.361 99.7691 779.194 100.872 774.291 100.872ZM787.805 70.9957C787.682 69.0345 787.131 67.0734 786.15 65.1123C785.169 63.1512 783.607 61.4965 781.462 60.1482C779.378 58.7999 776.743 58.1258 773.556 58.1258C769.879 58.1258 766.753 59.3208 764.179 61.711C761.667 64.0398 760.012 67.1347 759.215 70.9957H787.805ZM840.629 33.5811H849.454L874.458 99.4014H865.909L859.29 81.2916H830.884L824.266 99.4014H815.716L840.629 33.5811ZM856.624 73.9374L847.891 50.22L845.225 43.1415H844.857L842.283 50.22L833.55 73.9374H856.624ZM879.785 52.5182H887.231V59.4128H887.599C888.886 57.0839 890.939 55.1228 893.758 53.5294C896.577 51.8747 899.58 51.0473 902.767 51.0473C908.405 51.0473 912.695 52.702 915.637 56.0114C918.64 59.2596 920.141 63.7027 920.141 69.341V99.4014H912.327V70.536C912.327 66.1848 911.285 63.0286 909.202 61.0675C907.118 59.1063 904.268 58.1258 900.653 58.1258C898.14 58.1258 895.872 58.8306 893.85 60.2401C891.889 61.6497 890.357 63.5189 889.253 65.8477C888.15 68.1153 887.599 70.5054 887.599 73.0181V99.4014H879.785V52.5182ZM944.012 100.872C940.58 100.872 937.515 100.198 934.819 98.8498C932.122 97.5015 930.039 95.663 928.568 93.3341C927.097 90.944 926.361 88.2475 926.361 85.2445C926.361 80.2804 928.231 76.4194 931.969 73.6616C935.707 70.8425 940.426 69.4329 946.126 69.4329C948.945 69.4329 951.55 69.7393 953.94 70.3522C956.391 70.965 958.26 71.6698 959.547 72.4665V69.6168C959.547 66.1235 958.322 63.335 955.87 61.2513C953.419 59.1063 950.324 58.0339 946.586 58.0339C943.95 58.0339 941.53 58.6161 939.323 59.7805C937.117 60.8836 935.37 62.4464 934.083 64.4688L928.2 60.0563C930.039 57.2371 932.551 55.0309 935.738 53.4375C938.986 51.844 942.571 51.0473 946.494 51.0473C952.867 51.0473 957.862 52.7327 961.478 56.1034C965.155 59.4128 966.994 63.9479 966.994 69.7087V99.4014H959.547V92.6906H959.18C957.831 94.9582 955.809 96.8887 953.112 98.4821C950.416 100.076 947.382 100.872 944.012 100.872ZM944.747 93.9776C947.382 93.9776 949.834 93.3035 952.101 91.9552C954.369 90.6069 956.177 88.799 957.525 86.5315C958.873 84.2639 959.547 81.7819 959.547 79.0853C958.077 78.1048 956.269 77.3081 954.124 76.6952C951.979 76.0823 949.711 75.7759 947.321 75.7759C943.031 75.7759 939.783 76.6646 937.577 78.4418C935.432 80.2191 934.359 82.5173 934.359 85.3364C934.359 87.9104 935.34 89.9941 937.301 91.5875C939.262 93.1809 941.744 93.9776 944.747 93.9776ZM976.025 33.5811H983.839V99.4014H976.025V33.5811ZM1007.92 96.4597L988.522 52.5182H996.979L1011.69 87.3588H1011.87L1026.03 52.5182H1034.49L1005.53 119.258H997.439L1007.92 96.4597ZM1057.16 100.137C1055.26 100.137 1053.48 99.8304 1051.83 99.2175C1050.23 98.6047 1048.88 97.7773 1047.78 96.7355C1046.56 95.571 1045.64 94.2228 1045.02 92.6906C1044.41 91.1585 1044.1 89.2893 1044.1 87.083V59.5966H1035.92V52.5182H1044.1V39.2806H1051.92V52.5182H1063.32V59.5966H1051.92V85.1526C1051.92 87.7265 1052.41 89.6264 1053.39 90.8521C1054.55 92.2004 1056.24 92.8745 1058.44 92.8745C1060.22 92.8745 1061.94 92.3536 1063.59 91.3117V98.9417C1062.67 99.3707 1061.72 99.6772 1060.74 99.861C1059.82 100.045 1058.63 100.137 1057.16 100.137ZM1076.01 43.877C1074.48 43.877 1073.16 43.3254 1072.06 42.2223C1070.96 41.1191 1070.4 39.8015 1070.4 38.2694C1070.4 36.7372 1070.96 35.4503 1072.06 34.4084C1073.16 33.3053 1074.48 32.7537 1076.01 32.7537C1077.54 32.7537 1078.86 33.3053 1079.96 34.4084C1081.07 35.4503 1081.62 36.7372 1081.62 38.2694C1081.62 39.8015 1081.07 41.1191 1079.96 42.2223C1078.92 43.3254 1077.6 43.877 1076.01 43.877ZM1072.15 52.5182H1079.87V99.4014H1072.15V52.5182ZM1111.1 100.872C1106.57 100.872 1102.49 99.7997 1098.87 97.6547C1095.26 95.4485 1092.44 92.4761 1090.42 88.7377C1088.39 84.9381 1087.38 80.6787 1087.38 75.9598C1087.38 71.2408 1088.39 66.9815 1090.42 63.1818C1092.44 59.3821 1095.26 56.4098 1098.87 54.2648C1102.49 52.1198 1106.57 51.0473 1111.1 51.0473C1116.19 51.0473 1120.45 52.2424 1123.88 54.6325C1127.37 56.9614 1129.85 60.0869 1131.32 64.0092L1124.25 66.9509C1123.08 64.0704 1121.34 61.8948 1119.01 60.424C1116.74 58.8918 1113.98 58.1258 1110.73 58.1258C1107.97 58.1258 1105.4 58.8918 1103.01 60.424C1100.62 61.8948 1098.69 63.9785 1097.22 66.6751C1095.81 69.3716 1095.1 72.4665 1095.1 75.9598C1095.1 79.453 1095.81 82.5479 1097.22 85.2445C1098.69 87.941 1100.62 90.0554 1103.01 91.5875C1105.4 93.0583 1107.97 93.7938 1110.73 93.7938C1114.04 93.7938 1116.89 93.0277 1119.28 91.4956C1121.67 89.9634 1123.45 87.7878 1124.61 84.9687L1131.6 87.9104C1130.01 91.7714 1127.43 94.8969 1123.88 97.287C1120.39 99.6772 1116.13 100.872 1111.1 100.872ZM1154.57 100.872C1149.55 100.872 1145.35 99.7078 1141.98 97.379C1138.61 94.9888 1136.22 91.9552 1134.81 88.2781L1141.79 85.1526C1142.96 87.9717 1144.68 90.1473 1146.94 91.6794C1149.27 93.2116 1151.82 93.9776 1154.57 93.9776C1157.51 93.9776 1160.03 93.3954 1162.11 92.231C1164.19 91.0053 1165.24 89.2893 1165.24 87.083C1165.24 85.1219 1164.41 83.5591 1162.75 82.3947C1161.1 81.169 1158.5 80.1272 1154.94 79.2692L1149.24 77.7983C1145.5 76.8791 1142.44 75.3163 1140.05 73.11C1137.66 70.9037 1136.46 68.054 1136.46 64.5607C1136.46 61.8642 1137.26 59.5047 1138.85 57.4823C1140.51 55.3986 1142.68 53.8052 1145.38 52.702C1148.08 51.5989 1150.99 51.0473 1154.11 51.0473C1158.22 51.0473 1161.87 51.936 1165.05 53.7132C1168.3 55.4905 1170.6 57.9726 1171.95 61.1594L1165.14 64.2849C1163.06 60.1176 1159.35 58.0339 1154.02 58.0339C1151.45 58.0339 1149.18 58.6467 1147.22 59.8724C1145.32 61.0368 1144.37 62.5383 1144.37 64.3769C1144.37 66.0929 1145.04 67.5024 1146.39 68.6056C1147.74 69.6474 1149.76 70.5054 1152.46 71.1795L1159.26 72.9262C1163.86 74.0906 1167.32 75.8372 1169.65 78.166C1171.98 80.4336 1173.14 83.2221 1173.14 86.5315C1173.14 89.4119 1172.31 91.9552 1170.66 94.1615C1169.01 96.3065 1166.77 97.9612 1163.95 99.1256C1161.13 100.29 1158 100.872 1154.57 100.872Z" fill="white"/>
<path d="M461.612 99.8672C457.157 99.8672 453.13 98.83 449.531 96.7554C445.992 94.6809 443.215 91.8132 441.202 88.1523C439.188 84.4303 438.182 80.2813 438.182 75.7051C438.182 71.312 439.127 67.285 441.019 63.624C442.971 59.9021 445.687 56.9733 449.164 54.8378C452.642 52.6412 456.608 51.543 461.062 51.543C465.639 51.543 469.605 52.5497 472.96 54.5632C476.377 56.5767 478.97 59.3835 480.74 62.9834C482.509 66.5223 483.394 70.6103 483.394 75.2475C483.394 75.7966 483.364 76.3458 483.303 76.8949C483.242 77.444 483.211 77.7491 483.211 77.8101H448.249C448.554 81.9592 450.049 85.1625 452.734 87.4201C455.419 89.6776 458.469 90.8064 461.886 90.8064C467.133 90.8064 471.161 88.3658 473.967 83.4846L482.57 87.6031C480.557 91.3251 477.75 94.3148 474.15 96.5724C470.611 98.769 466.432 99.8672 461.612 99.8672ZM473.144 70.1222C473.021 68.6578 472.533 67.1629 471.679 65.6375C470.825 64.1122 469.483 62.8308 467.652 61.7936C465.883 60.6953 463.656 60.1461 460.971 60.1461C457.981 60.1461 455.388 61.0614 453.191 62.8919C451.056 64.7223 449.592 67.1324 448.798 70.1222H473.144Z" fill="white"/>
<path d="M416.087 99.8672C410.9 99.8672 406.599 98.6774 403.182 96.2978C399.826 93.8572 397.446 90.8064 396.043 87.1455L405.012 83.3015C406.05 85.8032 407.544 87.6946 409.497 88.976C411.51 90.2573 413.707 90.898 416.087 90.898C418.588 90.898 420.632 90.4403 422.219 89.5251C423.805 88.5489 424.598 87.298 424.598 85.7727C424.598 84.3083 423.958 83.1185 422.676 82.2032C421.395 81.227 419.29 80.3728 416.361 79.6406L410.138 78.1762C406.721 77.383 403.761 75.9187 401.26 73.7831C398.819 71.5866 397.599 68.7493 397.599 65.2715C397.599 61.0614 399.338 57.736 402.816 55.2954C406.294 52.7938 410.565 51.543 415.629 51.543C419.839 51.543 423.561 52.4277 426.795 54.1971C430.09 55.9666 432.469 58.5292 433.934 61.8851L425.056 65.6375C424.202 63.7461 422.89 62.3427 421.12 61.4275C419.351 60.5122 417.429 60.0546 415.354 60.0546C413.341 60.0546 411.571 60.5122 410.046 61.4275C408.521 62.2817 407.758 63.441 407.758 64.9054C407.758 66.1867 408.277 67.2239 409.314 68.0171C410.412 68.8104 412.121 69.4815 414.439 70.0307L421.212 71.6781C425.788 72.8374 429.205 74.6068 431.462 76.9864C433.72 79.305 434.849 82.1117 434.849 85.4066C434.849 88.0912 434.025 90.5319 432.378 92.7284C430.791 94.925 428.564 96.6639 425.696 97.9452C422.89 99.2266 419.686 99.8672 416.087 99.8672Z" fill="white"/>
<path d="M367.921 99.8672C364.688 99.8672 361.759 99.2266 359.135 97.9452C356.573 96.6029 354.529 94.7724 353.003 92.4538C351.539 90.0742 350.807 87.3896 350.807 84.3998C350.807 79.6406 352.576 75.8881 356.115 73.1424C359.715 70.3968 364.261 69.0239 369.752 69.0239C374.572 69.0239 378.691 69.8476 382.108 71.495V69.573C382.108 66.8273 381.009 64.5698 378.813 62.8003C376.677 60.9699 374.084 60.0546 371.033 60.0546C366.396 60.0546 362.674 61.9461 359.867 65.7291L352.18 60.4207C354.315 57.553 356.969 55.3564 360.142 53.8311C363.376 52.3057 367.006 51.543 371.033 51.543C377.684 51.543 382.809 53.2209 386.409 56.5767C390.07 59.8716 391.901 64.5393 391.901 70.5798V98.4029H382.108V92.8199H381.558C380.094 94.8945 378.233 96.6029 375.976 97.9452C373.718 99.2266 371.033 99.8672 367.921 99.8672ZM369.569 91.5386C371.826 91.5386 373.901 90.9895 375.792 89.8912C377.745 88.7319 379.27 87.237 380.369 85.4066C381.528 83.5151 382.108 81.5016 382.108 79.366C378.874 77.5966 375.426 76.7119 371.765 76.7119C368.41 76.7119 365.786 77.444 363.894 78.9084C362.003 80.3728 361.057 82.2338 361.057 84.4913C361.057 86.5659 361.881 88.2743 363.528 89.6166C365.237 90.898 367.25 91.5386 369.569 91.5386Z" fill="white"/>
<path d="M325.684 99.8661C322.389 99.8661 319.43 99.1644 316.806 97.7611C314.244 96.3577 312.322 94.5882 311.04 92.4527H310.491V98.4017H300.973V32.8711H311.04V52.5486L310.491 58.8637H311.04C312.322 56.7892 314.244 55.0502 316.806 53.6469C319.43 52.2435 322.389 51.5418 325.684 51.5418C329.589 51.5418 333.189 52.5791 336.484 54.6536C339.84 56.7281 342.494 59.6264 344.446 63.3483C346.46 67.0093 347.466 71.1278 347.466 75.704C347.466 80.2801 346.46 84.3987 344.446 88.0596C342.494 91.7205 339.84 94.6188 336.484 96.7543C333.189 98.8288 329.589 99.8661 325.684 99.8661ZM323.945 90.6222C326.325 90.6222 328.521 90.0121 330.535 88.7918C332.609 87.5715 334.257 85.8325 335.477 83.575C336.758 81.2564 337.399 78.6327 337.399 75.704C337.399 72.7752 336.758 70.1821 335.477 67.9245C334.257 65.6059 332.609 63.8364 330.535 62.6161C328.521 61.3958 326.325 60.7857 323.945 60.7857C321.565 60.7857 319.338 61.3958 317.264 62.6161C315.25 63.8364 313.603 65.5754 312.322 67.833C311.101 70.0905 310.491 72.7142 310.491 75.704C310.491 78.6937 311.101 81.3174 312.322 83.575C313.603 85.8325 315.25 87.5715 317.264 88.7918C319.338 90.0121 321.565 90.6222 323.945 90.6222Z" fill="white"/>
<path d="M273.192 99.8672C268.738 99.8672 264.711 98.83 261.111 96.7554C257.572 94.6809 254.795 91.8132 252.782 88.1523C250.768 84.4303 249.762 80.2813 249.762 75.7051C249.762 71.312 250.707 67.285 252.599 63.624C254.551 59.9021 257.267 56.9733 260.745 54.8378C264.222 52.6412 268.188 51.543 272.643 51.543C277.219 51.543 281.185 52.5497 284.541 54.5632C287.957 56.5767 290.551 59.3835 292.32 62.9834C294.089 66.5223 294.974 70.6103 294.974 75.2475C294.974 75.7966 294.944 76.3458 294.883 76.8949C294.822 77.444 294.791 77.7491 294.791 77.8101H259.829C260.134 81.9592 261.629 85.1625 264.314 87.4201C266.999 89.6776 270.049 90.8064 273.466 90.8064C278.714 90.8064 282.741 88.3658 285.547 83.4846L294.15 87.6031C292.137 91.3251 289.33 94.3148 285.73 96.5724C282.191 98.769 278.012 99.8672 273.192 99.8672ZM284.724 70.1222C284.602 68.6578 284.113 67.1629 283.259 65.6375C282.405 64.1122 281.063 62.8308 279.232 61.7936C277.463 60.6953 275.236 60.1461 272.551 60.1461C269.561 60.1461 266.968 61.0614 264.772 62.8919C262.636 64.7223 261.172 67.1324 260.378 70.1222H284.724Z" fill="white"/>
<path d="M221.822 53.0076H231.341V59.7803H231.89C232.866 57.4617 234.636 55.5398 237.198 54.0144C239.761 52.428 242.384 51.6348 245.069 51.6348C247.266 51.6348 249.066 51.9398 250.469 52.55V63.0752C248.395 62.0379 246.076 61.5193 243.513 61.5193C240.218 61.5193 237.442 62.8006 235.185 65.3632C232.988 67.8649 231.89 70.9462 231.89 74.6071V98.4031H221.822V53.0076Z" fill="white"/>
<path d="M207.452 45.3189C205.561 45.3189 203.944 44.6782 202.602 43.3969C201.32 42.0545 200.68 40.4376 200.68 38.5462C200.68 36.6547 201.32 35.0683 202.602 33.787C203.944 32.4446 205.561 31.7734 207.452 31.7734C209.344 31.7734 210.93 32.4446 212.212 33.787C213.554 35.0683 214.225 36.6547 214.225 38.5462C214.225 40.4376 213.554 42.0545 212.212 43.3969C210.93 44.6782 209.344 45.3189 207.452 45.3189ZM202.419 53.0068H212.486V98.4023H202.419V53.0068Z" fill="white"/>
<path d="M156.562 32.8721H196.375V42.6651H166.813V61.5188H193.446V71.2203H166.813V98.4027H156.562V32.8721Z" fill="white"/>
<g clip-path="url(#clip0_47_2146)">
<path d="M86.8743 43.1134C84.1283 39.3031 77.814 31.4684 68.1144 19.8296C63.9039 14.7813 60.2921 10.4962 58.5142 8.39247C57.5337 7.232 56.6928 6.23909 56.0288 5.45406L54.9707 4.20672L54.3967 3.53029L54.285 3.36584L54.2354 3.34412L51.7872 0.467773L48.6844 2.95626C40.7628 9.30161 34.2747 17.4807 29.9276 26.5969C27.2622 32.0207 25.5215 37.3235 24.6093 42.7845C24.3704 44.0133 24.1656 45.2761 23.9949 46.5421C22.9306 46.4552 21.8477 46.3994 20.7742 46.3745C20.6842 46.3683 20.5942 46.3652 20.4732 46.3621C16.5419 46.2256 12.6323 46.6941 8.85608 47.7584L7.23949 48.2114L6.40793 49.6698C2.51074 56.5054 0.304608 64.2873 0.0284535 72.1717C-0.328375 82.4111 2.46109 92.3216 8.09588 100.833C13.6097 109.158 21.3978 115.522 30.6195 119.236L31.8203 119.72L32.1834 119.847L32.1989 119.841C37.0021 121.585 42.0442 122.559 47.1857 122.736C47.769 122.758 48.3492 122.767 48.9295 122.767C55.4176 122.767 61.735 121.498 67.7297 118.988L67.7731 119.006L69.368 118.268C77.454 114.529 84.3734 108.652 89.3783 101.27C94.526 93.6776 97.4178 84.7941 97.7405 75.5817C98.1253 64.5697 94.467 53.6476 86.8712 43.1165L86.8743 43.1134ZM50.7788 77.2325C52.4512 83.5716 52.1223 89.6625 49.8076 95.3624C44.0239 89.6532 39.7823 83.3761 37.1945 76.6863C34.4236 69.5312 32.7574 62.7235 32.2299 56.4278C34.6781 57.2314 36.9276 58.2926 38.9321 59.5989C44.6972 63.3565 48.6844 69.2891 50.7788 77.2356V77.2325ZM51.8338 107.92C54.2912 109.791 56.8759 111.544 59.5412 113.157C55.6161 114.225 51.5669 114.693 47.4711 114.547C46.8382 114.526 46.2052 114.488 45.5691 114.436C47.9024 112.425 50 110.244 51.8307 107.92H51.8338ZM58.6973 75.1442C56.066 65.1716 50.9184 57.6317 43.4002 52.7354C40.1019 50.5882 36.3443 48.9592 32.2175 47.8949C32.2764 47.2092 32.3509 46.5266 32.4378 45.8564C32.5123 45.2823 32.5898 44.7548 32.6736 44.2615C33.3531 40.7522 34.3647 37.2801 35.6741 33.9445C36.1767 32.6661 36.7259 31.3971 37.3093 30.1714L37.331 30.128C38.2308 28.3066 39.2455 26.4666 40.4401 24.4994L40.9086 23.7268L40.8931 23.7175C43.667 19.3828 46.9902 15.4297 50.7912 11.9452L52.2588 13.6797C55.6813 17.7352 58.899 21.5703 61.825 25.0796C68.4061 32.9733 76.939 43.3399 80.2311 47.9105C86.7409 56.9336 89.8779 66.1459 89.5583 75.2994C89.3101 82.408 87.2063 89.3398 83.4705 95.3407C79.9332 101.028 75.0059 105.788 69.2004 109.139C65.9611 107.523 61.2571 104.863 56.2615 100.994C60.289 92.967 61.1113 84.2759 58.7004 75.1442H58.6973ZM45.5753 102.648C41.8829 107.433 37.4892 110.545 34.9263 112.109C34.5105 111.957 34.0947 111.798 33.6851 111.631L33.3562 111.5C25.7635 108.363 19.3593 103.061 14.8353 96.1599C10.212 89.1071 7.92212 80.9093 8.21689 72.451C8.42789 66.388 9.93898 60.5949 12.7129 55.2301C14.3233 54.8733 15.9647 54.6499 17.6061 54.5661L18.0312 54.5568C18.8597 54.5382 19.6851 54.5382 20.4701 54.5568C21.6243 54.6095 22.7817 54.7305 23.9205 54.9136C24.2928 62.6211 26.1855 70.9368 29.5521 79.6372C32.7946 88.0118 38.1812 95.7472 45.5722 102.645L45.5753 102.648Z" fill="white"/>
</g>
<g filter="url(#filter0_d_47_2146)">
<circle cx="100" cy="90" r="30" fill="white"/>
<path fill-rule="evenodd" clip-rule="evenodd" d="M90.25 105C89.2554 105 88.3016 104.605 87.5983 103.902C86.8951 103.198 86.5 102.245 86.5 101.25C86.5 100.255 86.8951 99.3016 87.5983 98.5984C88.3016 97.8951 89.2554 97.5 90.25 97.5C91.2446 97.5 92.1984 97.8951 92.9017 98.5984C93.6049 99.3016 94 100.255 94 101.25C94 102.245 93.6049 103.198 92.9017 103.902C92.1984 104.605 91.2446 105 90.25 105ZM100 87C100.995 87 101.948 87.3951 102.652 88.0983C103.355 88.8016 103.75 89.7554 103.75 90.75V101.25C103.75 102.245 103.355 103.198 102.652 103.902C101.948 104.605 100.995 105 100 105C99.0054 105 98.0516 104.605 97.3483 103.902C96.6451 103.198 96.25 102.245 96.25 101.25V90.75C96.25 89.7554 96.6451 88.8016 97.3483 88.0983C98.0516 87.3951 99.0054 87 100 87ZM109.75 75C110.745 75 111.698 75.3951 112.402 76.0983C113.105 76.8016 113.5 77.7554 113.5 78.75V101.25C113.5 102.245 113.105 103.198 112.402 103.902C111.698 104.605 110.745 105 109.75 105C108.755 105 107.802 104.605 107.098 103.902C106.395 103.198 106 102.245 106 101.25V78.75C106 77.7554 106.395 76.8016 107.098 76.0983C107.802 75.3951 108.755 75 109.75 75Z" fill="#1F1F1F"/>
</g>
<defs>
<filter id="filter0_d_47_2146" x="68" y="58.6704" width="64" height="64" filterUnits="userSpaceOnUse" color-interpolation-filters="sRGB">
<feFlood flood-opacity="0" result="BackgroundImageFix"/>
<feColorMatrix in="SourceAlpha" type="matrix" values="0 0 0 0 0 0 0 0 0 0 0 0 0 0 0 0 0 0 127 0" result="hardAlpha"/>
<feOffset dy="0.670408"/>
<feGaussianBlur stdDeviation="1"/>
<feComposite in2="hardAlpha" operator="out"/>
<feColorMatrix type="matrix" values="0 0 0 0 0 0 0 0 0 0 0 0 0 0 0 0 0 0 0.3 0"/>
<feBlend mode="normal" in2="BackgroundImageFix" result="effect1_dropShadow_47_2146"/>
<feBlend mode="normal" in="SourceGraphic" in2="effect1_dropShadow_47_2146" result="shape"/>
</filter>
<clipPath id="clip0_47_2146">
<rect width="97.7741" height="122.296" fill="white" transform="translate(-0.00195312 0.467773)"/>
</clipPath>
</defs>
</svg>
