<svg width="1040" height="128" viewBox="0 0 1040 128" fill="none" xmlns="http://www.w3.org/2000/svg">
<path d="M500.463 33.5811H509.104L525.375 81.2916L527.581 87.8185H527.949L530.247 81.2916L547.254 33.5811H555.895L531.81 99.4014H523.721L500.463 33.5811ZM576.424 100.872C571.95 100.872 567.936 99.7997 564.381 97.6547C560.827 95.5098 558.038 92.5681 556.016 88.8297C554.055 85.03 553.074 80.7707 553.074 76.0517C553.074 71.5166 553.993 67.3492 555.832 63.5495C557.732 59.7498 560.398 56.7162 563.83 54.4487C567.262 52.1811 571.245 51.0473 575.78 51.0473C580.377 51.0473 584.36 52.0892 587.731 54.1729C591.102 56.1953 593.676 59.0144 595.453 62.6302C597.291 66.2461 598.211 70.3828 598.211 75.0405C598.211 75.9598 598.119 76.7565 597.935 77.4306H560.888C561.072 80.9852 561.93 83.9881 563.462 86.4395C564.994 88.891 566.925 90.7295 569.253 91.9552C571.644 93.1809 574.126 93.7938 576.7 93.7938C582.706 93.7938 587.333 90.9747 590.581 85.3364L597.2 88.5539C595.177 92.3536 592.419 95.3565 588.926 97.5628C585.494 99.7691 581.327 100.872 576.424 100.872ZM589.937 70.9957C589.815 69.0345 589.263 67.0734 588.283 65.1123C587.302 63.1512 585.739 61.4965 583.594 60.1482C581.511 58.7999 578.875 58.1258 575.688 58.1258C572.011 58.1258 568.886 59.3208 566.312 61.711C563.799 64.0398 562.144 67.1347 561.348 70.9957H589.937ZM605.517 52.5182H612.963V59.9643H613.331C614.434 57.2065 616.303 55.0615 618.938 53.5294C621.574 51.9973 624.454 51.2312 627.58 51.2312C628.928 51.2312 630.062 51.3231 630.981 51.507V59.5047C629.939 59.2596 628.529 59.137 626.752 59.137C622.769 59.137 619.521 60.4546 617.008 63.0899C614.556 65.7251 613.331 69.1571 613.331 73.3858V99.4014H605.517V52.5182ZM658.375 100.137C656.476 100.137 654.698 99.8304 653.044 99.2175C651.45 98.6047 650.102 97.7773 648.999 96.7355C647.773 95.571 646.854 94.2228 646.241 92.6906C645.628 91.1585 645.322 89.2893 645.322 87.083V59.5966H637.14V52.5182H645.322V39.2806H653.135V52.5182H664.535V59.5966H653.135V85.1526C653.135 87.7265 653.626 89.6264 654.606 90.8521C655.771 92.2004 657.456 92.8745 659.662 92.8745C661.44 92.8745 663.156 92.3536 664.81 91.3117V98.9417C663.891 99.3707 662.941 99.6772 661.961 99.861C661.041 100.045 659.846 100.137 658.375 100.137ZM690.978 100.872C686.504 100.872 682.49 99.7997 678.936 97.6547C675.381 95.5098 672.593 92.5681 670.57 88.8297C668.609 85.03 667.628 80.7707 667.628 76.0517C667.628 71.5166 668.548 67.3492 670.386 63.5495C672.286 59.7498 674.952 56.7162 678.384 54.4487C681.816 52.1811 685.8 51.0473 690.335 51.0473C694.931 51.0473 698.915 52.0892 702.285 54.1729C705.656 56.1953 708.23 59.0144 710.007 62.6302C711.846 66.2461 712.765 70.3828 712.765 75.0405C712.765 75.9598 712.673 76.7565 712.489 77.4306H675.442C675.626 80.9852 676.484 83.9881 678.016 86.4395C679.548 88.891 681.479 90.7295 683.808 91.9552C686.198 93.1809 688.68 93.7938 691.254 93.7938C697.26 93.7938 701.887 90.9747 705.135 85.3364L711.754 88.5539C709.731 92.3536 706.974 95.3565 703.48 97.5628C700.048 99.7691 695.881 100.872 690.978 100.872ZM704.492 70.9957C704.369 69.0345 703.817 67.0734 702.837 65.1123C701.856 63.1512 700.293 61.4965 698.148 60.1482C696.065 58.7999 693.43 58.1258 690.243 58.1258C686.566 58.1258 683.44 59.3208 680.866 61.711C678.353 64.0398 676.699 67.1347 675.902 70.9957H704.492ZM731.124 75.5921L714.853 52.5182H723.678L735.812 69.8925L747.487 52.5182H756.588L740.225 75.5921L756.956 99.4014H747.855L735.628 81.3835L723.678 99.4014H714.577L731.124 75.5921ZM799.376 33.5811H808.201L833.206 99.4014H824.656L818.037 81.2916H789.632L783.013 99.4014H774.464L799.376 33.5811ZM815.372 73.9374L806.638 50.22L803.972 43.1415H803.605L801.031 50.22L792.298 73.9374H815.372ZM840.095 33.5811H847.817V99.4014H840.095V33.5811ZM895.83 100.872C890.682 100.872 885.963 99.3094 881.673 96.1839C877.383 93.0583 874.441 88.6765 872.848 83.0382L880.294 80.0046C881.336 83.9269 883.266 87.1443 886.086 89.657C888.905 92.1697 892.214 93.4261 896.014 93.4261C899.813 93.4261 903.031 92.4149 905.666 90.3924C908.301 88.3087 909.619 85.4896 909.619 81.9351C909.619 78.8708 908.485 76.3581 906.218 74.397C904.011 72.3746 900.365 70.5054 895.278 68.7894L891.142 67.3186C886.484 65.6639 882.684 63.4882 879.743 60.7917C876.801 58.0951 875.33 54.3567 875.33 49.5765C875.33 46.4509 876.188 43.5705 877.904 40.9353C879.62 38.2387 882.01 36.0938 885.074 34.5003C888.139 32.9069 891.571 32.1102 895.37 32.1102C899.17 32.1102 902.479 32.815 905.298 34.2246C908.118 35.6341 910.354 37.3501 912.009 39.3725C913.725 41.3949 914.92 43.3867 915.594 45.3478L908.24 48.4734C907.627 46.2058 906.218 44.1528 904.011 42.3142C901.866 40.4756 899.017 39.5564 895.462 39.5564C892.092 39.5564 889.211 40.5063 886.821 42.4061C884.431 44.306 883.236 46.6961 883.236 49.5765C883.236 52.1505 884.247 54.2648 886.269 55.9195C888.292 57.5129 891.356 59.0144 895.462 60.424L899.783 61.8948C905.36 63.9172 909.711 66.4606 912.837 69.5248C915.962 72.5278 917.525 76.6339 917.525 81.8432C917.525 86.0718 916.422 89.6264 914.215 92.5068C912.07 95.3872 909.343 97.5015 906.034 98.8498C902.724 100.198 899.323 100.872 895.83 100.872ZM927.136 33.5811H946.992C953.733 33.5811 959.617 34.9906 964.642 37.8097C969.668 40.5676 973.529 44.4285 976.225 49.3926C978.922 54.3567 980.27 60.0563 980.27 66.4912C980.27 72.9262 978.922 78.6257 976.225 83.5898C973.529 88.5539 969.668 92.4455 964.642 95.2646C959.617 98.0225 953.733 99.4014 946.992 99.4014H927.136V33.5811ZM946.992 91.9552C954.775 91.9552 960.934 89.7183 965.47 85.2445C970.066 80.7707 972.364 74.5196 972.364 66.4912C972.364 58.4629 970.066 52.2118 965.47 47.7379C960.934 43.2641 954.775 41.0272 946.992 41.0272H934.858V91.9552H946.992ZM989.934 33.5811H997.656V68.2378H998.023L1027.72 33.5811H1037.74V33.9488L1013.38 62.0787L1039.48 99.0337V99.4014H1030.01L1008.14 68.054L997.656 80.0965V99.4014H989.934V33.5811Z" fill="white"/>
<path d="M461.612 99.8663C457.157 99.8663 453.13 98.829 449.531 96.7545C445.992 94.6799 443.215 91.8122 441.202 88.1513C439.188 84.4293 438.182 80.2803 438.182 75.7041C438.182 71.311 439.127 67.284 441.019 63.6231C442.971 59.9011 445.687 56.9724 449.164 54.8368C452.642 52.6403 456.608 51.542 461.062 51.542C465.639 51.542 469.605 52.5487 472.96 54.5623C476.377 56.5758 478.97 59.3825 480.74 62.9824C482.509 66.5213 483.394 70.6093 483.394 75.2465C483.394 75.7956 483.364 76.3448 483.303 76.8939C483.242 77.4431 483.211 77.7481 483.211 77.8092H448.249C448.554 81.9582 450.049 85.1615 452.734 87.4191C455.419 89.6767 458.469 90.8055 461.886 90.8055C467.133 90.8055 471.161 88.3648 473.967 83.4836L482.57 87.6021C480.557 91.3241 477.75 94.3138 474.15 96.5714C470.611 98.768 466.432 99.8663 461.612 99.8663ZM473.144 70.1212C473.021 68.6568 472.533 67.162 471.679 65.6366C470.825 64.1112 469.483 62.8299 467.652 61.7926C465.883 60.6943 463.656 60.1452 460.971 60.1452C457.981 60.1452 455.388 61.0604 453.191 62.8909C451.056 64.7213 449.592 67.1314 448.798 70.1212H473.144Z" fill="white"/>
<path d="M416.087 99.8663C410.9 99.8663 406.599 98.6765 403.182 96.2968C399.826 93.8562 397.446 90.8055 396.043 87.1445L405.012 83.3006C406.05 85.8022 407.544 87.6937 409.497 88.975C411.51 90.2563 413.707 90.897 416.087 90.897C418.588 90.897 420.632 90.4394 422.219 89.5241C423.805 88.5479 424.598 87.2971 424.598 85.7717C424.598 84.3073 423.958 83.1175 422.676 82.2023C421.395 81.226 419.29 80.3718 416.361 79.6396L410.138 78.1752C406.721 77.382 403.761 75.9177 401.26 73.7821C398.819 71.5856 397.599 68.7484 397.599 65.2705C397.599 61.0604 399.338 57.7351 402.816 55.2944C406.294 52.7928 410.565 51.542 415.629 51.542C419.839 51.542 423.561 52.4267 426.795 54.1962C430.09 55.9656 432.469 58.5283 433.934 61.8841L425.056 65.6366C424.202 63.7451 422.89 62.3417 421.12 61.4265C419.351 60.5113 417.429 60.0537 415.354 60.0537C413.341 60.0537 411.571 60.5113 410.046 61.4265C408.521 62.2807 407.758 63.44 407.758 64.9044C407.758 66.1857 408.277 67.223 409.314 68.0162C410.412 68.8094 412.121 69.4805 414.439 70.0297L421.212 71.6771C425.788 72.8364 429.205 74.6058 431.462 76.9854C433.72 79.304 434.849 82.1107 434.849 85.4056C434.849 88.0903 434.025 90.5309 432.378 92.7274C430.791 94.924 428.564 96.6629 425.696 97.9443C422.89 99.2256 419.686 99.8663 416.087 99.8663Z" fill="white"/>
<path d="M367.921 99.8663C364.688 99.8663 361.759 99.2256 359.135 97.9443C356.573 96.6019 354.529 94.7715 353.003 92.4529C351.539 90.0733 350.807 87.3886 350.807 84.3988C350.807 79.6396 352.576 75.8872 356.115 73.1415C359.715 70.3958 364.261 69.0229 369.752 69.0229C374.572 69.0229 378.691 69.8466 382.108 71.4941V69.5721C382.108 66.8264 381.009 64.5688 378.813 62.7993C376.677 60.9689 374.084 60.0537 371.033 60.0537C366.396 60.0537 362.674 61.9451 359.867 65.7281L352.18 60.4197C354.315 57.552 356.969 55.3555 360.142 53.8301C363.376 52.3047 367.006 51.542 371.033 51.542C377.684 51.542 382.809 53.2199 386.409 56.5758C390.07 59.8706 391.901 64.5383 391.901 70.5788V98.4019H382.108V92.819H381.558C380.094 94.8935 378.233 96.6019 375.976 97.9443C373.718 99.2256 371.033 99.8663 367.921 99.8663ZM369.569 91.5376C371.826 91.5376 373.901 90.9885 375.792 89.8902C377.745 88.7309 379.27 87.236 380.369 85.4056C381.528 83.5141 382.108 81.5006 382.108 79.3651C378.874 77.5956 375.426 76.7109 371.765 76.7109C368.41 76.7109 365.786 77.4431 363.894 78.9074C362.003 80.3718 361.057 82.2328 361.057 84.4904C361.057 86.5649 361.881 88.2733 363.528 89.6157C365.237 90.897 367.25 91.5376 369.569 91.5376Z" fill="white"/>
<path d="M325.684 99.8661C322.389 99.8661 319.43 99.1644 316.806 97.7611C314.244 96.3577 312.322 94.5882 311.04 92.4527H310.491V98.4017H300.973V32.8711H311.04V52.5486L310.491 58.8637H311.04C312.322 56.7892 314.244 55.0502 316.806 53.6469C319.43 52.2435 322.389 51.5418 325.684 51.5418C329.589 51.5418 333.189 52.5791 336.484 54.6536C339.84 56.7281 342.494 59.6264 344.446 63.3483C346.46 67.0093 347.466 71.1278 347.466 75.704C347.466 80.2801 346.46 84.3987 344.446 88.0596C342.494 91.7205 339.84 94.6188 336.484 96.7543C333.189 98.8288 329.589 99.8661 325.684 99.8661ZM323.945 90.6222C326.325 90.6222 328.521 90.0121 330.535 88.7918C332.609 87.5715 334.257 85.8325 335.477 83.575C336.758 81.2564 337.399 78.6327 337.399 75.704C337.399 72.7752 336.758 70.1821 335.477 67.9245C334.257 65.6059 332.609 63.8364 330.535 62.6161C328.521 61.3958 326.325 60.7857 323.945 60.7857C321.565 60.7857 319.338 61.3958 317.264 62.6161C315.25 63.8364 313.603 65.5754 312.322 67.833C311.101 70.0905 310.491 72.7142 310.491 75.704C310.491 78.6937 311.101 81.3174 312.322 83.575C313.603 85.8325 315.25 87.5715 317.264 88.7918C319.338 90.0121 321.565 90.6222 323.945 90.6222Z" fill="white"/>
<path d="M273.192 99.8667C268.738 99.8667 264.711 98.8295 261.111 96.7549C257.572 94.6804 254.795 91.8127 252.782 88.1518C250.768 84.4298 249.762 80.2808 249.762 75.7046C249.762 71.3115 250.707 67.2845 252.599 63.6235C254.551 59.9016 257.267 56.9729 260.745 54.8373C264.222 52.6408 268.188 51.5425 272.643 51.5425C277.219 51.5425 281.185 52.5492 284.541 54.5627C287.957 56.5763 290.551 59.383 292.32 62.9829C294.089 66.5218 294.974 70.6098 294.974 75.247C294.974 75.7961 294.944 76.3453 294.883 76.8944C294.822 77.4436 294.791 77.7486 294.791 77.8096H259.829C260.134 81.9587 261.629 85.162 264.314 87.4196C266.999 89.6772 270.049 90.8059 273.466 90.8059C278.714 90.8059 282.741 88.3653 285.547 83.4841L294.15 87.6026C292.137 91.3246 289.33 94.3143 285.73 96.5719C282.191 98.7685 278.012 99.8667 273.192 99.8667ZM284.724 70.1217C284.602 68.6573 284.113 67.1624 283.259 65.6371C282.405 64.1117 281.063 62.8303 279.232 61.7931C277.463 60.6948 275.236 60.1457 272.551 60.1457C269.561 60.1457 266.968 61.0609 264.772 62.8914C262.636 64.7218 261.172 67.1319 260.378 70.1217H284.724Z" fill="white"/>
<path d="M221.822 53.0066H231.341V59.7794H231.89C232.866 57.4608 234.636 55.5388 237.198 54.0134C239.761 52.427 242.384 51.6338 245.069 51.6338C247.266 51.6338 249.066 51.9389 250.469 52.549V63.0742C248.395 62.0369 246.076 61.5183 243.513 61.5183C240.218 61.5183 237.442 62.7996 235.185 65.3623C232.988 67.8639 231.89 70.9452 231.89 74.6061V98.4022H221.822V53.0066Z" fill="white"/>
<path d="M207.452 45.3184C205.561 45.3184 203.944 44.6777 202.602 43.3964C201.32 42.0541 200.68 40.4371 200.68 38.5457C200.68 36.6542 201.32 35.0678 202.602 33.7865C203.944 32.4441 205.561 31.7729 207.452 31.7729C209.344 31.7729 210.93 32.4441 212.212 33.7865C213.554 35.0678 214.225 36.6542 214.225 38.5457C214.225 40.4371 213.554 42.0541 212.212 43.3964C210.93 44.6777 209.344 45.3184 207.452 45.3184ZM202.419 53.0063H212.486V98.4018H202.419V53.0063Z" fill="white"/>
<path d="M156.562 32.8711H196.375V42.6641H166.813V61.5179H193.446V71.2193H166.813V98.4017H156.562V32.8711Z" fill="white"/>
<path d="M31.6562 118.567C36.7084 120.601 42.1896 121.807 47.9447 122.008C55.7335 122.28 63.1403 120.67 69.7616 117.611C61.8214 114.492 54.6303 109.929 48.4929 104.257C44.5147 110.627 38.6305 115.658 31.6562 118.567Z" fill="#FF9100"/>
<path d="M48.4923 104.259C34.4827 91.302 25.9838 72.5484 26.7021 51.979C26.7254 51.311 26.7607 50.6435 26.8019 49.9762C24.2928 49.3273 21.6734 48.9313 18.9777 48.8371C15.1191 48.7024 11.3823 49.181 7.85452 50.1744C4.11472 56.7255 1.85787 64.242 1.57672 72.2932C0.851127 93.0713 13.4253 111.227 31.6556 118.569C38.63 115.66 44.5139 110.635 48.4923 104.259Z" fill="#FFC400"/>
<path d="M48.4937 104.258C51.7509 99.0459 53.7258 92.9348 53.9557 86.3506C54.5605 69.0316 42.9175 54.133 26.8033 49.9757C26.762 50.643 26.7268 51.3105 26.7035 51.9785C25.9852 72.5479 34.484 91.3015 48.4937 104.258Z" fill="#FF9100"/>
<path d="M52.1543 1.29291C42.9766 8.64534 35.7294 18.3402 31.3447 29.5084C28.8344 35.9054 27.2569 42.7768 26.7964 49.9798C42.9106 54.1372 54.5536 69.0358 53.9488 86.3548C53.7189 92.939 51.7382 99.044 48.4868 104.263C54.6239 109.941 61.8153 114.497 69.7555 117.616C85.693 110.249 97.0006 94.3967 97.6554 75.6462C98.0796 63.4978 93.4121 52.6704 86.8167 43.5311C79.8515 33.8654 52.1543 1.29291 52.1543 1.29291Z" fill="#DD2C00"/>
<g filter="url(#filter0_d_47_1238)">
<circle cx="100" cy="90" r="30" fill="white"/>
<g clip-path="url(#clip0_47_1238)">
<path d="M87.8844 79.4967C87.5088 79.4621 87.1606 79.3064 86.9061 79.0593C86.6515 78.8122 86.5084 78.4908 86.5039 78.1563V74.8404C86.5107 74.4868 86.6724 74.1494 86.9547 73.8993C87.237 73.6492 87.618 73.506 88.0172 73.5C88.4139 73.5062 88.792 73.6501 89.0701 73.9008C89.3482 74.1515 89.504 74.489 89.5039 74.8404V78.1563C89.5044 78.3405 89.462 78.5228 89.3794 78.6919C89.2968 78.861 89.1758 79.0132 89.0238 79.139C88.8718 79.2647 88.6922 79.3614 88.4962 79.423C88.3002 79.4845 88.0919 79.5096 87.8844 79.4967Z" fill="#1F1F1F"/>
<path d="M111.879 83.9967C111.503 83.9621 111.155 83.8064 110.9 83.5593C110.646 83.3122 110.503 82.9908 110.498 82.6563V79.3404C110.505 78.9868 110.666 78.6494 110.949 78.3993C111.231 78.1492 111.612 78.006 112.011 78C112.408 78.0062 112.786 78.1501 113.064 78.4008C113.342 78.6515 113.498 78.989 113.498 79.3404V82.6563C113.499 82.8405 113.456 83.0228 113.374 83.1919C113.291 83.361 113.17 83.5132 113.018 83.639C112.866 83.7647 112.686 83.8614 112.49 83.923C112.294 83.9845 112.086 84.0096 111.879 83.9967Z" fill="#1F1F1F"/>
<path d="M88.0039 84C88.8323 84 89.5039 83.3284 89.5039 82.5C89.5039 81.6716 88.8323 81 88.0039 81C87.1755 81 86.5039 81.6716 86.5039 82.5C86.5039 83.3284 87.1755 84 88.0039 84Z" fill="#1F1F1F"/>
<path d="M88.0039 93C88.8323 93 89.5039 92.3284 89.5039 91.5C89.5039 90.6716 88.8323 90 88.0039 90C87.1755 90 86.5039 90.6716 86.5039 91.5C86.5039 92.3284 87.1755 93 88.0039 93Z" fill="#1F1F1F"/>
<path d="M88.0039 88.5C88.8323 88.5 89.5039 87.8284 89.5039 87C89.5039 86.1716 88.8323 85.5 88.0039 85.5C87.1755 85.5 86.5039 86.1716 86.5039 87C86.5039 87.8284 87.1755 88.5 88.0039 88.5Z" fill="#1F1F1F"/>
<path d="M111.998 93C112.826 93 113.498 92.3284 113.498 91.5C113.498 90.6716 112.826 90 111.998 90C111.17 90 110.498 90.6716 110.498 91.5C110.498 92.3284 111.17 93 111.998 93Z" fill="#1F1F1F"/>
<path d="M111.998 88.5C112.826 88.5 113.498 87.8284 113.498 87C113.498 86.1716 112.826 85.5 111.998 85.5C111.17 85.5 110.498 86.1716 110.498 87C110.498 87.8284 111.17 88.5 111.998 88.5Z" fill="#1F1F1F"/>
<path d="M111.998 76.5C112.826 76.5 113.498 75.8284 113.498 75C113.498 74.1716 112.826 73.5 111.998 73.5C111.17 73.5 110.498 74.1716 110.498 75C110.498 75.8284 111.17 76.5 111.998 76.5Z" fill="#1F1F1F"/>
<path d="M105.881 88.4967C105.505 88.4621 105.157 88.3064 104.902 88.0593C104.648 87.8122 104.504 87.4908 104.5 87.1563V83.8404C104.507 83.4868 104.668 83.1494 104.951 82.8993C105.233 82.6492 105.614 82.506 106.013 82.5C106.41 82.5062 106.788 82.6501 107.066 82.9008C107.344 83.1515 107.5 83.489 107.5 83.8404V87.1563C107.501 87.3405 107.458 87.5228 107.376 87.6919C107.293 87.861 107.172 88.0132 107.02 88.139C106.868 88.2647 106.688 88.3614 106.492 88.423C106.296 88.4845 106.088 88.5096 105.881 88.4967Z" fill="#1F1F1F"/>
<path d="M99.8805 97.4967C99.5049 97.4621 99.1567 97.3064 98.9021 97.0593C98.6476 96.8122 98.5045 96.4908 98.5 96.1563V92.8404C98.5068 92.4868 98.6685 92.1494 98.9508 91.8993C99.2331 91.6492 99.6141 91.506 100.013 91.5C100.41 91.5062 100.788 91.6501 101.066 91.9008C101.344 92.1515 101.5 92.489 101.5 92.8404V96.1563C101.501 96.3405 101.458 96.5228 101.376 96.6919C101.293 96.861 101.172 97.0132 101.02 97.139C100.868 97.2647 100.688 97.3614 100.492 97.423C100.296 97.4845 100.088 97.5096 99.8805 97.4967Z" fill="#1F1F1F"/>
<path d="M106 97.5C106.828 97.5 107.5 96.8284 107.5 96C107.5 95.1716 106.828 94.5 106 94.5C105.172 94.5 104.5 95.1716 104.5 96C104.5 96.8284 105.172 97.5 106 97.5Z" fill="#1F1F1F"/>
<path d="M100 102C100.828 102 101.5 101.328 101.5 100.5C101.5 99.6716 100.828 99 100 99C99.1716 99 98.5 99.6716 98.5 100.5C98.5 101.328 99.1716 102 100 102Z" fill="#1F1F1F"/>
<path d="M106 93C106.828 93 107.5 92.3284 107.5 91.5C107.5 90.6716 106.828 90 106 90C105.172 90 104.5 90.6716 104.5 91.5C104.5 92.3284 105.172 93 106 93Z" fill="#1F1F1F"/>
<path d="M100 90C100.828 90 101.5 89.3284 101.5 88.5C101.5 87.6716 100.828 87 100 87C99.1716 87 98.5 87.6716 98.5 88.5C98.5 89.3284 99.1716 90 100 90Z" fill="#1F1F1F"/>
<path d="M100 85.5C100.828 85.5 101.5 84.8284 101.5 84C101.5 83.1716 100.828 82.5 100 82.5C99.1716 82.5 98.5 83.1716 98.5 84C98.5 84.8284 99.1716 85.5 100 85.5Z" fill="#1F1F1F"/>
<path d="M93.8825 92.9967C93.5068 92.9621 93.1586 92.8064 92.9041 92.5593C92.6496 92.3122 92.5064 91.9908 92.502 91.6563V88.3404C92.5088 87.9868 92.6704 87.6494 92.9527 87.3993C93.2351 87.1492 93.616 87.006 94.0152 87C94.4119 87.0062 94.7901 87.1501 95.0681 87.4008C95.3462 87.6515 95.502 87.989 95.5019 88.3404V91.6563C95.5025 91.8405 95.4601 92.0228 95.3775 92.1919C95.2949 92.361 95.1738 92.5132 95.0219 92.639C94.8699 92.7647 94.6903 92.8614 94.4942 92.923C94.2982 92.9845 94.09 93.0096 93.8825 92.9967Z" fill="#1F1F1F"/>
<path d="M94.002 97.5C94.8304 97.5 95.502 96.8284 95.502 96C95.502 95.1716 94.8304 94.5 94.002 94.5C93.1735 94.5 92.502 95.1716 92.502 96C92.502 96.8284 93.1735 97.5 94.002 97.5Z" fill="#1F1F1F"/>
<path d="M94.002 85.5C94.8304 85.5 95.502 84.8284 95.502 84C95.502 83.1716 94.8304 82.5 94.002 82.5C93.1735 82.5 92.502 83.1716 92.502 84C92.502 84.8284 93.1735 85.5 94.002 85.5Z" fill="#1F1F1F"/>
<path d="M94.002 81C94.8304 81 95.502 80.3284 95.502 79.5C95.502 78.6716 94.8304 78 94.002 78C93.1735 78 92.502 78.6716 92.502 79.5C92.502 80.3284 93.1735 81 94.002 81Z" fill="#1F1F1F"/>
<path d="M106 81C106.828 81 107.5 80.3284 107.5 79.5C107.5 78.6716 106.828 78 106 78C105.172 78 104.5 78.6716 104.5 79.5C104.5 80.3284 105.172 81 106 81Z" fill="#1F1F1F"/>
<path fill-rule="evenodd" clip-rule="evenodd" d="M99.5432 104.296L86.1644 94.3582C85.4243 93.8084 84.3788 93.9628 83.8292 94.703C83.2796 95.4432 83.434 96.489 84.1741 97.0388L97.8643 107.208C97.7905 106.986 97.7505 106.747 97.7505 106.5C97.7505 105.414 98.5198 104.508 99.5432 104.296ZM102.137 107.207L115.825 97.0388C116.566 96.489 116.72 95.4432 116.17 94.703C115.621 93.9628 114.575 93.8084 113.835 94.3582L100.457 104.296C101.481 104.507 102.25 105.414 102.25 106.5C102.25 106.747 102.211 106.985 102.137 107.207Z" fill="#1F1F1F"/>
<path fill-rule="evenodd" clip-rule="evenodd" d="M100 109.497C101.657 109.497 103 108.154 103 106.497C103 104.84 101.657 103.497 100 103.497C98.3431 103.497 97 104.84 97 106.497C97 108.154 98.3431 109.497 100 109.497ZM100 107.997C100.828 107.997 101.5 107.325 101.5 106.497C101.5 105.669 100.828 104.997 100 104.997C99.1716 104.997 98.5 105.669 98.5 106.497C98.5 107.325 99.1716 107.997 100 107.997Z" fill="#1F1F1F"/>
</g>
</g>
<defs>
<filter id="filter0_d_47_1238" x="68" y="58.6704" width="64" height="64" filterUnits="userSpaceOnUse" color-interpolation-filters="sRGB">
<feFlood flood-opacity="0" result="BackgroundImageFix"/>
<feColorMatrix in="SourceAlpha" type="matrix" values="0 0 0 0 0 0 0 0 0 0 0 0 0 0 0 0 0 0 127 0" result="hardAlpha"/>
<feOffset dy="0.670408"/>
<feGaussianBlur stdDeviation="1"/>
<feComposite in2="hardAlpha" operator="out"/>
<feColorMatrix type="matrix" values="0 0 0 0 0 0 0 0 0 0 0 0 0 0 0 0 0 0 0.3 0"/>
<feBlend mode="normal" in2="BackgroundImageFix" result="effect1_dropShadow_47_1238"/>
<feBlend mode="normal" in="SourceGraphic" in2="effect1_dropShadow_47_1238" result="shape"/>
</filter>
<clipPath id="clip0_47_1238">
<rect width="36" height="36" fill="white" transform="translate(82 73.5)"/>
</clipPath>
</defs>
</svg>
