<svg width="990" height="128" viewBox="0 0 990 128" fill="none" xmlns="http://www.w3.org/2000/svg">
<path d="M525.467 33.5811H534.292L559.297 99.4014H550.747L544.128 81.2916H515.723L509.104 99.4014H500.555L525.467 33.5811ZM541.463 73.9374L532.729 50.22L530.064 43.1415H529.696L527.122 50.22L518.389 73.9374H541.463ZM564.705 52.5182H572.151V59.5047H572.518C573.928 57.1146 576.042 55.1228 578.861 53.5294C581.742 51.8747 584.959 51.0473 588.514 51.0473C592.681 51.0473 596.481 52.1198 599.913 54.2648C603.345 56.4098 606.041 59.3821 608.003 63.1818C609.964 66.9815 610.944 71.2408 610.944 75.9598C610.944 80.74 609.964 85.03 608.003 88.8297C606.041 92.5681 603.345 95.5098 599.913 97.6547C596.481 99.7997 592.681 100.872 588.514 100.872C584.959 100.872 581.742 100.076 578.861 98.4821C576.042 96.8274 573.928 94.8356 572.518 92.5068H572.151L572.518 98.9417V119.258H564.705V52.5182ZM587.595 93.7938C590.291 93.7938 592.834 93.0583 595.225 91.5875C597.615 90.1167 599.515 88.033 600.924 85.3364C602.395 82.5786 603.13 79.453 603.13 75.9598C603.13 72.4665 602.395 69.3716 600.924 66.6751C599.515 63.9172 597.615 61.8029 595.225 60.332C592.834 58.8612 590.291 58.1258 587.595 58.1258C584.898 58.1258 582.355 58.8612 579.965 60.332C577.574 61.8029 575.675 63.8866 574.265 66.5831C572.855 69.2797 572.151 72.4052 572.151 75.9598C572.151 79.5143 572.855 82.6399 574.265 85.3364C575.675 88.033 577.574 90.1167 579.965 91.5875C582.355 93.0583 584.898 93.7938 587.595 93.7938ZM616.909 52.5182H624.356V59.5047H624.723C626.133 57.1146 628.247 55.1228 631.066 53.5294C633.947 51.8747 637.164 51.0473 640.719 51.0473C644.886 51.0473 648.686 52.1198 652.118 54.2648C655.55 56.4098 658.246 59.3821 660.207 63.1818C662.169 66.9815 663.149 71.2408 663.149 75.9598C663.149 80.74 662.169 85.03 660.207 88.8297C658.246 92.5681 655.55 95.5098 652.118 97.6547C648.686 99.7997 644.886 100.872 640.719 100.872C637.164 100.872 633.947 100.076 631.066 98.4821C628.247 96.8274 626.133 94.8356 624.723 92.5068H624.356L624.723 98.9417V119.258H616.909V52.5182ZM639.799 93.7938C642.496 93.7938 645.039 93.0583 647.429 91.5875C649.82 90.1167 651.719 88.033 653.129 85.3364C654.6 82.5786 655.335 79.453 655.335 75.9598C655.335 72.4665 654.6 69.3716 653.129 66.6751C651.719 63.9172 649.82 61.8029 647.429 60.332C645.039 58.8612 642.496 58.1258 639.799 58.1258C637.103 58.1258 634.56 58.8612 632.169 60.332C629.779 61.8029 627.879 63.8866 626.47 66.5831C625.06 69.2797 624.356 72.4052 624.356 75.9598C624.356 79.5143 625.06 82.6399 626.47 85.3364C627.879 88.033 629.779 90.1167 632.169 91.5875C634.56 93.0583 637.103 93.7938 639.799 93.7938ZM691.47 33.5811H699.192V62.0787H733.205V33.5811H740.927V99.4014H733.205V69.4329H699.192V99.4014H691.47V33.5811ZM773.86 100.872C769.263 100.872 765.127 99.7691 761.449 97.5628C757.772 95.3565 754.892 92.3536 752.808 88.5539C750.786 84.7542 749.775 80.5562 749.775 75.9598C749.775 71.3634 750.786 67.1653 752.808 63.3657C754.892 59.566 757.772 56.563 761.449 54.3567C765.127 52.1505 769.263 51.0473 773.86 51.0473C778.456 51.0473 782.593 52.1505 786.27 54.3567C789.947 56.563 792.797 59.566 794.819 63.3657C796.903 67.1653 797.945 71.3634 797.945 75.9598C797.945 80.5562 796.903 84.7542 794.819 88.5539C792.797 92.3536 789.947 95.3565 786.27 97.5628C782.593 99.7691 778.456 100.872 773.86 100.872ZM773.86 93.7938C776.74 93.7938 779.406 93.089 781.857 91.6794C784.37 90.2086 786.362 88.1249 787.833 85.4283C789.365 82.7318 790.131 79.5756 790.131 75.9598C790.131 72.3439 789.365 69.1878 787.833 66.4912C786.362 63.7947 784.37 61.7416 781.857 60.332C779.406 58.8612 776.74 58.1258 773.86 58.1258C770.979 58.1258 768.283 58.8612 765.77 60.332C763.257 61.7416 761.235 63.7947 759.703 66.4912C758.232 69.1878 757.497 72.3439 757.497 75.9598C757.497 79.5756 758.232 82.7318 759.703 85.4283C761.235 88.1249 763.257 90.2086 765.77 91.6794C768.283 93.089 770.979 93.7938 773.86 93.7938ZM821.094 100.872C816.069 100.872 811.871 99.7078 808.5 97.379C805.129 94.9888 802.739 91.9552 801.33 88.2781L808.316 85.1526C809.48 87.9717 811.196 90.1473 813.464 91.6794C815.793 93.2116 818.336 93.9776 821.094 93.9776C824.036 93.9776 826.548 93.3954 828.632 92.231C830.716 91.0053 831.758 89.2893 831.758 87.083C831.758 85.1219 830.93 83.5591 829.276 82.3947C827.621 81.169 825.016 80.1272 821.462 79.2692L815.762 77.7983C812.024 76.8791 808.96 75.3163 806.569 73.11C804.179 70.9037 802.984 68.054 802.984 64.5607C802.984 61.8642 803.781 59.5047 805.374 57.4823C807.029 55.3986 809.205 53.8052 811.901 52.702C814.598 51.5989 817.509 51.0473 820.634 51.0473C824.74 51.0473 828.387 51.936 831.574 53.7132C834.822 55.4905 837.12 57.9726 838.468 61.1594L831.666 64.2849C829.582 60.1176 825.874 58.0339 820.542 58.0339C817.968 58.0339 815.701 58.6467 813.74 59.8724C811.84 61.0368 810.89 62.5383 810.89 64.3769C810.89 66.0929 811.564 67.5024 812.912 68.6056C814.261 69.6474 816.283 70.5054 818.98 71.1795L825.782 72.9262C830.379 74.0906 833.841 75.8372 836.17 78.166C838.499 80.4336 839.663 83.2221 839.663 86.5315C839.663 89.4119 838.836 91.9552 837.181 94.1615C835.527 96.3065 833.29 97.9612 830.471 99.1256C827.652 100.29 824.526 100.872 821.094 100.872ZM863.912 100.137C862.012 100.137 860.234 99.8304 858.58 99.2175C856.986 98.6047 855.638 97.7773 854.535 96.7355C853.309 95.571 852.39 94.2228 851.777 92.6906C851.164 91.1585 850.858 89.2893 850.858 87.083V59.5966H842.676V52.5182H850.858V39.2806H858.672V52.5182H870.071V59.5966H858.672V85.1526C858.672 87.7265 859.162 89.6264 860.143 90.8521C861.307 92.2004 862.992 92.8745 865.199 92.8745C866.976 92.8745 868.692 92.3536 870.347 91.3117V98.9417C869.427 99.3707 868.477 99.6772 867.497 99.861C866.577 100.045 865.382 100.137 863.912 100.137ZM882.765 43.877C881.233 43.877 879.916 43.3254 878.812 42.2223C877.709 41.1191 877.158 39.8015 877.158 38.2694C877.158 36.7372 877.709 35.4503 878.812 34.4084C879.916 33.3053 881.233 32.7537 882.765 32.7537C884.298 32.7537 885.615 33.3053 886.718 34.4084C887.821 35.4503 888.373 36.7372 888.373 38.2694C888.373 39.8015 887.821 41.1191 886.718 42.2223C885.676 43.3254 884.359 43.877 882.765 43.877ZM878.904 52.5182H886.626V99.4014H878.904V52.5182ZM897.068 52.5182H904.514V59.4128H904.882C906.169 57.0839 908.222 55.1228 911.041 53.5294C913.86 51.8747 916.863 51.0473 920.05 51.0473C925.688 51.0473 929.978 52.702 932.92 56.0114C935.923 59.2596 937.424 63.7027 937.424 69.341V99.4014H929.61V70.536C929.61 66.1848 928.569 63.0286 926.485 61.0675C924.401 59.1063 921.551 58.1258 917.936 58.1258C915.423 58.1258 913.155 58.8306 911.133 60.2401C909.172 61.6497 907.64 63.5189 906.537 65.8477C905.433 68.1153 904.882 70.5054 904.882 73.0181V99.4014H897.068V52.5182ZM966.902 120.729C961.387 120.729 956.821 119.442 953.205 116.868C949.651 114.294 947.26 111.199 946.035 107.583L953.113 104.549C954.155 107.246 955.871 109.421 958.261 111.076C960.712 112.792 963.593 113.65 966.902 113.65C971.744 113.65 975.482 112.241 978.117 109.421C980.814 106.602 982.162 102.619 982.162 97.4709V92.231H981.795C980.262 94.6211 978.087 96.5822 975.268 98.1144C972.51 99.5852 969.354 100.321 965.799 100.321C961.754 100.321 958.047 99.2788 954.676 97.1951C951.366 95.1114 948.731 92.2004 946.77 88.462C944.809 84.7236 943.828 80.4642 943.828 75.684C943.828 70.965 944.809 66.7364 946.77 62.998C948.731 59.1983 951.366 56.2566 954.676 54.1729C958.047 52.0892 961.754 51.0473 965.799 51.0473C969.354 51.0473 972.51 51.8134 975.268 53.3455C978.087 54.8164 980.262 56.7775 981.795 59.2289H982.162V52.5182H989.608V97.5628C989.608 105.101 987.525 110.831 983.357 114.753C979.19 118.737 973.705 120.729 966.902 120.729ZM966.902 93.2422C969.721 93.2422 972.265 92.5374 974.532 91.1279C976.861 89.7183 978.7 87.6959 980.048 85.0606C981.458 82.4254 982.162 79.2998 982.162 75.684C982.162 72.0069 981.458 68.8507 980.048 66.2154C978.7 63.5802 976.861 61.5884 974.532 60.2401C972.265 58.8306 969.721 58.1258 966.902 58.1258C964.083 58.1258 961.509 58.8306 959.18 60.2401C956.852 61.6497 954.982 63.6721 953.573 66.3074C952.224 68.9426 951.55 72.0682 951.55 75.684C951.55 79.2998 952.224 82.456 953.573 85.1526C954.982 87.7878 956.852 89.8102 959.18 91.2198C961.509 92.5681 964.083 93.2422 966.902 93.2422Z" fill="white"/>
<path d="M461.612 99.8663C457.157 99.8663 453.13 98.829 449.531 96.7545C445.992 94.6799 443.215 91.8122 441.202 88.1513C439.188 84.4293 438.182 80.2803 438.182 75.7041C438.182 71.311 439.127 67.284 441.019 63.6231C442.971 59.9011 445.687 56.9724 449.164 54.8368C452.642 52.6403 456.608 51.542 461.062 51.542C465.639 51.542 469.605 52.5487 472.96 54.5623C476.377 56.5758 478.97 59.3825 480.74 62.9824C482.509 66.5213 483.394 70.6093 483.394 75.2465C483.394 75.7956 483.364 76.3448 483.303 76.8939C483.242 77.4431 483.211 77.7481 483.211 77.8092H448.249C448.554 81.9582 450.049 85.1615 452.734 87.4191C455.419 89.6767 458.469 90.8055 461.886 90.8055C467.133 90.8055 471.161 88.3648 473.967 83.4836L482.57 87.6021C480.557 91.3241 477.75 94.3138 474.15 96.5714C470.611 98.768 466.432 99.8663 461.612 99.8663ZM473.144 70.1212C473.021 68.6568 472.533 67.162 471.679 65.6366C470.825 64.1112 469.483 62.8299 467.652 61.7926C465.883 60.6943 463.656 60.1452 460.971 60.1452C457.981 60.1452 455.388 61.0604 453.191 62.8909C451.056 64.7213 449.592 67.1314 448.798 70.1212H473.144Z" fill="white"/>
<path d="M416.087 99.8663C410.9 99.8663 406.599 98.6765 403.182 96.2968C399.826 93.8562 397.446 90.8055 396.043 87.1445L405.012 83.3006C406.05 85.8022 407.544 87.6937 409.497 88.975C411.51 90.2563 413.707 90.897 416.087 90.897C418.588 90.897 420.632 90.4394 422.219 89.5241C423.805 88.5479 424.598 87.2971 424.598 85.7717C424.598 84.3073 423.958 83.1175 422.676 82.2023C421.395 81.226 419.29 80.3718 416.361 79.6396L410.138 78.1752C406.721 77.382 403.761 75.9177 401.26 73.7821C398.819 71.5856 397.599 68.7484 397.599 65.2705C397.599 61.0604 399.338 57.7351 402.816 55.2944C406.294 52.7928 410.565 51.542 415.629 51.542C419.839 51.542 423.561 52.4267 426.795 54.1962C430.09 55.9656 432.469 58.5283 433.934 61.8841L425.056 65.6366C424.202 63.7451 422.89 62.3417 421.12 61.4265C419.351 60.5113 417.429 60.0537 415.354 60.0537C413.341 60.0537 411.571 60.5113 410.046 61.4265C408.521 62.2807 407.758 63.44 407.758 64.9044C407.758 66.1857 408.277 67.223 409.314 68.0162C410.412 68.8094 412.121 69.4805 414.439 70.0297L421.212 71.6771C425.788 72.8364 429.205 74.6058 431.462 76.9854C433.72 79.304 434.849 82.1107 434.849 85.4056C434.849 88.0903 434.025 90.5309 432.378 92.7274C430.791 94.924 428.564 96.6629 425.696 97.9443C422.89 99.2256 419.686 99.8663 416.087 99.8663Z" fill="white"/>
<path d="M367.921 99.8663C364.688 99.8663 361.759 99.2256 359.135 97.9443C356.573 96.6019 354.529 94.7715 353.003 92.4529C351.539 90.0733 350.807 87.3886 350.807 84.3988C350.807 79.6396 352.576 75.8872 356.115 73.1415C359.715 70.3958 364.261 69.0229 369.752 69.0229C374.572 69.0229 378.691 69.8466 382.108 71.4941V69.5721C382.108 66.8264 381.009 64.5688 378.813 62.7993C376.677 60.9689 374.084 60.0537 371.033 60.0537C366.396 60.0537 362.674 61.9451 359.867 65.7281L352.18 60.4197C354.315 57.552 356.969 55.3555 360.142 53.8301C363.376 52.3047 367.006 51.542 371.033 51.542C377.684 51.542 382.809 53.2199 386.409 56.5758C390.07 59.8706 391.901 64.5383 391.901 70.5788V98.4019H382.108V92.819H381.558C380.094 94.8935 378.233 96.6019 375.976 97.9443C373.718 99.2256 371.033 99.8663 367.921 99.8663ZM369.569 91.5376C371.826 91.5376 373.901 90.9885 375.792 89.8902C377.745 88.7309 379.27 87.236 380.369 85.4056C381.528 83.5141 382.108 81.5006 382.108 79.3651C378.874 77.5956 375.426 76.7109 371.765 76.7109C368.41 76.7109 365.786 77.4431 363.894 78.9074C362.003 80.3718 361.057 82.2328 361.057 84.4904C361.057 86.5649 361.881 88.2733 363.528 89.6157C365.237 90.897 367.25 91.5376 369.569 91.5376Z" fill="white"/>
<path d="M325.684 99.8661C322.389 99.8661 319.43 99.1644 316.806 97.7611C314.244 96.3577 312.322 94.5882 311.04 92.4527H310.491V98.4017H300.973V32.8711H311.04V52.5486L310.491 58.8637H311.04C312.322 56.7892 314.244 55.0502 316.806 53.6469C319.43 52.2435 322.389 51.5418 325.684 51.5418C329.589 51.5418 333.189 52.5791 336.484 54.6536C339.84 56.7281 342.494 59.6264 344.446 63.3483C346.46 67.0093 347.466 71.1278 347.466 75.704C347.466 80.2801 346.46 84.3987 344.446 88.0596C342.494 91.7205 339.84 94.6188 336.484 96.7543C333.189 98.8288 329.589 99.8661 325.684 99.8661ZM323.945 90.6222C326.325 90.6222 328.521 90.0121 330.535 88.7918C332.609 87.5715 334.257 85.8325 335.477 83.575C336.758 81.2564 337.399 78.6327 337.399 75.704C337.399 72.7752 336.758 70.1821 335.477 67.9245C334.257 65.6059 332.609 63.8364 330.535 62.6161C328.521 61.3958 326.325 60.7857 323.945 60.7857C321.565 60.7857 319.338 61.3958 317.264 62.6161C315.25 63.8364 313.603 65.5754 312.322 67.833C311.101 70.0905 310.491 72.7142 310.491 75.704C310.491 78.6937 311.101 81.3174 312.322 83.575C313.603 85.8325 315.25 87.5715 317.264 88.7918C319.338 90.0121 321.565 90.6222 323.945 90.6222Z" fill="white"/>
<path d="M273.192 99.8667C268.738 99.8667 264.711 98.8295 261.111 96.7549C257.572 94.6804 254.795 91.8127 252.782 88.1518C250.768 84.4298 249.762 80.2808 249.762 75.7046C249.762 71.3115 250.707 67.2845 252.599 63.6235C254.551 59.9016 257.267 56.9729 260.745 54.8373C264.222 52.6408 268.188 51.5425 272.643 51.5425C277.219 51.5425 281.185 52.5492 284.541 54.5627C287.957 56.5763 290.551 59.383 292.32 62.9829C294.089 66.5218 294.974 70.6098 294.974 75.247C294.974 75.7961 294.944 76.3453 294.883 76.8944C294.822 77.4436 294.791 77.7486 294.791 77.8096H259.829C260.134 81.9587 261.629 85.162 264.314 87.4196C266.999 89.6772 270.049 90.8059 273.466 90.8059C278.714 90.8059 282.741 88.3653 285.547 83.4841L294.15 87.6026C292.137 91.3246 289.33 94.3143 285.73 96.5719C282.191 98.7685 278.012 99.8667 273.192 99.8667ZM284.724 70.1217C284.602 68.6573 284.113 67.1624 283.259 65.6371C282.405 64.1117 281.063 62.8303 279.232 61.7931C277.463 60.6948 275.236 60.1457 272.551 60.1457C269.561 60.1457 266.968 61.0609 264.772 62.8914C262.636 64.7218 261.172 67.1319 260.378 70.1217H284.724Z" fill="white"/>
<path d="M221.822 53.0066H231.341V59.7794H231.89C232.866 57.4608 234.636 55.5388 237.198 54.0134C239.761 52.427 242.384 51.6338 245.069 51.6338C247.266 51.6338 249.066 51.9389 250.469 52.549V63.0742C248.395 62.0369 246.076 61.5183 243.513 61.5183C240.218 61.5183 237.442 62.7996 235.185 65.3623C232.988 67.8639 231.89 70.9452 231.89 74.6061V98.4022H221.822V53.0066Z" fill="white"/>
<path d="M207.452 45.3184C205.561 45.3184 203.944 44.6777 202.602 43.3964C201.32 42.0541 200.68 40.4371 200.68 38.5457C200.68 36.6542 201.32 35.0678 202.602 33.7865C203.944 32.4441 205.561 31.7729 207.452 31.7729C209.344 31.7729 210.93 32.4441 212.212 33.7865C213.554 35.0678 214.225 36.6542 214.225 38.5457C214.225 40.4371 213.554 42.0541 212.212 43.3964C210.93 44.6777 209.344 45.3184 207.452 45.3184ZM202.419 53.0063H212.486V98.4018H202.419V53.0063Z" fill="white"/>
<path d="M156.562 32.8711H196.375V42.6641H166.813V61.5179H193.446V71.2193H166.813V98.4017H156.562V32.8711Z" fill="white"/>
<path d="M31.6581 118.567C36.7104 120.601 42.1915 121.807 47.9467 122.008C55.7355 122.28 63.1422 120.67 69.7635 117.611C61.8234 114.492 54.6322 109.929 48.4949 104.257C44.5166 110.627 38.6325 115.658 31.6581 118.567Z" fill="#FF9100"/>
<path d="M48.4923 104.259C34.4827 91.302 25.9838 72.5484 26.7021 51.979C26.7254 51.311 26.7607 50.6435 26.8019 49.9762C24.2928 49.3273 21.6734 48.9313 18.9777 48.8371C15.1191 48.7024 11.3823 49.181 7.85452 50.1744C4.11472 56.7255 1.85787 64.242 1.57672 72.2932C0.851127 93.0713 13.4253 111.227 31.6556 118.569C38.63 115.66 44.5139 110.635 48.4923 104.259Z" fill="#FFC400"/>
<path d="M48.4937 104.258C51.7509 99.0459 53.7258 92.9348 53.9557 86.3506C54.5605 69.0316 42.9175 54.133 26.8033 49.9757C26.762 50.643 26.7268 51.3105 26.7035 51.9785C25.9852 72.5479 34.484 91.3015 48.4937 104.258Z" fill="#FF9100"/>
<path d="M52.1543 1.29291C42.9766 8.64534 35.7294 18.3402 31.3447 29.5084C28.8344 35.9054 27.2569 42.7768 26.7964 49.9798C42.9106 54.1372 54.5536 69.0358 53.9488 86.3548C53.7189 92.939 51.7382 99.044 48.4868 104.263C54.6239 109.941 61.8153 114.497 69.7555 117.616C85.693 110.249 97.0006 94.3967 97.6554 75.6462C98.0796 63.4978 93.4121 52.6704 86.8167 43.5311C79.8515 33.8654 52.1543 1.29291 52.1543 1.29291Z" fill="#DD2C00"/>
<g filter="url(#filter0_d_47_1149)">
<circle cx="100" cy="90.4678" r="30" fill="white"/>
<path fill-rule="evenodd" clip-rule="evenodd" d="M118 84.4678C118 77.8438 112.624 72.4678 106 72.4678C99.376 72.4678 94 77.8438 94 84.4678C94 91.0918 99.376 96.4678 106 96.4678C112.624 96.4678 118 91.0918 118 84.4678ZM106 74.8678C100.701 74.8678 96.4 79.1693 96.4 84.4678H101.68C105.768 84.4938 107.586 86.3921 107.132 90.4678H102.985V93.5841C103.934 93.8979 104.947 94.0678 106 94.0678C111.299 94.0678 115.6 89.7663 115.6 84.4678C115.6 84.2721 115.594 84.0779 115.583 83.8851C115.583 83.8851 114.4 85.6678 112 85.6678C109.435 85.6678 108.153 83.6672 108.153 81.4678H103.655C103.655 78.4678 105.25 77.4577 107.099 77.4577C107.099 76.2875 107.492 75.5415 108.073 75.0925C107.405 74.9454 106.712 74.8678 106 74.8678Z" fill="#1F1F1F"/>
<path fill-rule="evenodd" clip-rule="evenodd" d="M97.514 94.9678C94.8212 92.7887 92.9833 89.5948 92.5824 85.9678H86.5C85.6716 85.9678 85 86.6393 85 87.4678V93.4678C85 94.2962 85.6716 94.9678 86.5 94.9678H97.514ZM99.8092 96.4678H86.5C85.6716 96.4678 85 97.1393 85 97.9678V103.968C85 104.796 85.6716 105.468 86.5 105.468H109C109.828 105.468 110.5 104.796 110.5 103.968V97.9678C110.5 97.7121 110.436 97.4714 110.323 97.2607C108.966 97.7192 107.512 97.9678 106 97.9678C103.769 97.9678 101.664 97.4264 99.8092 96.4678ZM88.75 88.9678C88.3358 88.9678 88 89.3036 88 89.7178V91.2178C88 91.632 88.3358 91.9678 88.75 91.9678H90.25C90.6642 91.9678 91 91.632 91 91.2178V89.7178C91 89.3036 90.6642 88.9678 90.25 88.9678H88.75ZM88.75 99.4678C88.3358 99.4678 88 99.8036 88 100.218V101.718C88 102.132 88.3358 102.468 88.75 102.468H90.25C90.6642 102.468 91 102.132 91 101.718V100.218C91 99.8036 90.6642 99.4678 90.25 99.4678H88.75Z" fill="#1F1F1F"/>
</g>
<defs>
<filter id="filter0_d_47_1149" x="68" y="59.1382" width="64" height="64" filterUnits="userSpaceOnUse" color-interpolation-filters="sRGB">
<feFlood flood-opacity="0" result="BackgroundImageFix"/>
<feColorMatrix in="SourceAlpha" type="matrix" values="0 0 0 0 0 0 0 0 0 0 0 0 0 0 0 0 0 0 127 0" result="hardAlpha"/>
<feOffset dy="0.670408"/>
<feGaussianBlur stdDeviation="1"/>
<feComposite in2="hardAlpha" operator="out"/>
<feColorMatrix type="matrix" values="0 0 0 0 0 0 0 0 0 0 0 0 0 0 0 0 0 0 0.3 0"/>
<feBlend mode="normal" in2="BackgroundImageFix" result="effect1_dropShadow_47_1149"/>
<feBlend mode="normal" in="SourceGraphic" in2="effect1_dropShadow_47_1149" result="shape"/>
</filter>
</defs>
</svg>
