<svg width="1103" height="127" viewBox="0 0 1103 127" fill="none" xmlns="http://www.w3.org/2000/svg">
<path d="M537.418 100.404C531.044 100.404 525.253 98.903 520.043 95.9C514.834 92.897 510.728 88.7909 507.725 83.5816C504.783 78.3111 503.313 72.4584 503.313 66.0234C503.313 59.5885 504.783 53.7664 507.725 48.5572C510.728 43.2866 514.834 39.1499 520.043 36.1469C525.253 33.1439 531.044 31.6424 537.418 31.6424C542.321 31.6424 546.794 32.5924 550.839 34.4922C554.945 36.3308 558.5 38.966 561.503 42.398L555.895 47.8217C553.383 44.8188 550.625 42.6125 547.622 41.2029C544.68 39.7934 541.279 39.0886 537.418 39.0886C532.638 39.0886 528.256 40.2224 524.272 42.4899C520.289 44.6962 517.102 47.8524 514.712 51.9585C512.383 56.0033 511.218 60.6916 511.218 66.0234C511.218 71.3553 512.383 76.0742 514.712 80.1803C517.102 84.2251 520.289 87.3813 524.272 89.6489C528.256 91.8552 532.638 92.9583 537.418 92.9583C545.385 92.9583 552.157 89.6795 557.734 83.122L563.433 88.6377C560.369 92.2535 556.6 95.1339 552.126 97.2789C547.652 99.3626 542.75 100.404 537.418 100.404ZM570.369 33.1133H578.183V98.9336H570.369V33.1133ZM609.075 100.404C604.479 100.404 600.342 99.3013 596.665 97.095C592.988 94.8888 590.108 91.8858 588.024 88.0861C586.002 84.2864 584.99 80.0884 584.99 75.492C584.99 70.8956 586.002 66.6976 588.024 62.8979C590.108 59.0982 592.988 56.0952 596.665 53.889C600.342 51.6827 604.479 50.5796 609.075 50.5796C613.672 50.5796 617.809 51.6827 621.486 53.889C625.163 56.0952 628.013 59.0982 630.035 62.8979C632.119 66.6976 633.161 70.8956 633.161 75.492C633.161 80.0884 632.119 84.2864 630.035 88.0861C628.013 91.8858 625.163 94.8888 621.486 97.095C617.809 99.3013 613.672 100.404 609.075 100.404ZM609.075 93.326C611.956 93.326 614.622 92.6212 617.073 91.2117C619.586 89.7408 621.578 87.6571 623.048 84.9606C624.581 82.264 625.347 79.1078 625.347 75.492C625.347 71.8762 624.581 68.72 623.048 66.0234C621.578 63.3269 619.586 61.2738 617.073 59.8643C614.622 58.3934 611.956 57.658 609.075 57.658C606.195 57.658 603.499 58.3934 600.986 59.8643C598.473 61.2738 596.451 63.3269 594.919 66.0234C593.448 68.72 592.712 71.8762 592.712 75.492C592.712 79.1078 593.448 82.264 594.919 84.9606C596.451 87.6571 598.473 89.7408 600.986 91.2117C603.499 92.6212 606.195 93.326 609.075 93.326ZM656.953 100.404C651.315 100.404 646.994 98.7497 643.992 95.4403C641.05 92.1309 639.579 87.5039 639.579 81.5592V52.0504H647.393V80.3642C647.393 84.838 648.404 88.1168 650.426 90.2005C652.449 92.2841 655.176 93.326 658.608 93.326C661.243 93.326 663.572 92.6212 665.595 91.2117C667.678 89.8021 669.272 87.9635 670.375 85.696C671.539 83.4284 672.121 81.0383 672.121 78.5256V52.0504H679.935V98.9336H672.489V92.1309H672.121C670.834 94.4598 668.781 96.4209 665.962 98.0143C663.143 99.6077 660.14 100.404 656.953 100.404ZM709.046 100.404C704.878 100.404 701.078 99.3319 697.646 97.187C694.276 95.042 691.61 92.1003 689.649 88.3619C687.688 84.5622 686.707 80.2722 686.707 75.492C686.707 70.773 687.688 66.5137 689.649 62.714C691.61 58.9144 694.276 55.942 697.646 53.797C701.078 51.6521 704.878 50.5796 709.046 50.5796C712.661 50.5796 715.879 51.4069 718.698 53.0616C721.517 54.655 723.662 56.6468 725.133 59.0369H725.501L725.133 52.5101V33.1133H732.947V98.9336H725.501V92.039H725.133C723.662 94.3678 721.517 96.3596 718.698 98.0143C715.879 99.6077 712.661 100.404 709.046 100.404ZM709.965 93.326C712.723 93.326 715.266 92.5906 717.595 91.1197C719.985 89.6489 721.885 87.5652 723.294 84.8686C724.765 82.1721 725.501 79.0465 725.501 75.492C725.501 71.9375 724.765 68.8119 723.294 66.1154C721.885 63.4188 719.985 61.3351 717.595 59.8643C715.266 58.3934 712.723 57.658 709.965 57.658C707.268 57.658 704.725 58.3934 702.335 59.8643C699.945 61.3351 698.014 63.4495 696.543 66.2073C695.134 68.9038 694.429 71.9987 694.429 75.492C694.429 78.9853 695.134 82.1108 696.543 84.8686C698.014 87.5652 699.945 89.6489 702.335 91.1197C704.725 92.5906 707.268 93.326 709.965 93.326ZM763.741 33.1133H801.799V40.5594H771.463V63.0817H798.858V70.436H771.463V98.9336H763.741V33.1133ZM812.875 43.4092C811.343 43.4092 810.025 42.8576 808.922 41.7545C807.819 40.6514 807.267 39.3337 807.267 37.8016C807.267 36.2695 807.819 34.9825 808.922 33.9406C810.025 32.8375 811.343 32.2859 812.875 32.2859C814.407 32.2859 815.725 32.8375 816.828 33.9406C817.931 34.9825 818.483 36.2695 818.483 37.8016C818.483 39.3337 817.931 40.6514 816.828 41.7545C815.786 42.8576 814.469 43.4092 812.875 43.4092ZM809.014 52.0504H816.736V98.9336H809.014V52.0504ZM827.178 52.0504H834.624V59.5885H834.992C835.911 57.0145 837.688 54.9002 840.323 53.2455C842.959 51.5295 845.717 50.6715 848.597 50.6715C850.742 50.6715 852.58 50.9779 854.113 51.5908V60.0481C852.151 59.0676 849.945 58.5773 847.494 58.5773C845.226 58.5773 843.143 59.2208 841.243 60.5078C839.343 61.7948 837.811 63.5414 836.646 65.7477C835.543 67.8926 834.992 70.2215 834.992 72.7342V98.9336H827.178V52.0504ZM877.897 100.404C873.423 100.404 869.409 99.3319 865.854 97.187C862.3 95.042 859.511 92.1003 857.489 88.3619C855.528 84.5622 854.547 80.3029 854.547 75.5839C854.547 71.0488 855.466 66.8814 857.305 63.0817C859.205 59.2821 861.871 56.2484 865.303 53.9809C868.735 51.7133 872.718 50.5796 877.253 50.5796C881.85 50.5796 885.833 51.6214 889.204 53.7051C892.575 55.7275 895.149 58.5466 896.926 62.1625C898.764 65.7783 899.684 69.915 899.684 74.5727C899.684 75.492 899.592 76.2887 899.408 76.9628H862.361C862.545 80.5174 863.403 83.5204 864.935 85.9718C866.467 88.4232 868.398 90.2617 870.726 91.4874C873.117 92.7131 875.599 93.326 878.173 93.326C884.179 93.326 888.806 90.5069 892.054 84.8686L898.672 88.0861C896.65 91.8858 893.892 94.8888 890.399 97.095C886.967 99.3013 882.8 100.404 877.897 100.404ZM891.41 70.5279C891.288 68.5668 890.736 66.6056 889.755 64.6445C888.775 62.6834 887.212 61.0287 885.067 59.6804C882.983 58.3321 880.348 57.658 877.161 57.658C873.484 57.658 870.359 58.8531 867.785 61.2432C865.272 63.572 863.617 66.6669 862.821 70.5279H891.41ZM923.802 100.404C918.776 100.404 914.578 99.24 911.208 96.9112C907.837 94.5211 905.447 91.4874 904.037 87.8103L911.024 84.6848C912.188 87.5039 913.904 89.6795 916.172 91.2117C918.501 92.7438 921.044 93.5099 923.802 93.5099C926.743 93.5099 929.256 92.9276 931.34 91.7632C933.424 90.5375 934.465 88.8215 934.465 86.6153C934.465 84.6541 933.638 83.0914 931.983 81.9269C930.329 80.7012 927.724 79.6594 924.169 78.8014L918.47 77.3306C914.732 76.4113 911.667 74.8485 909.277 72.6422C906.887 70.436 905.692 67.5862 905.692 64.093C905.692 61.3964 906.489 59.0369 908.082 57.0145C909.737 54.9308 911.912 53.3374 914.609 52.2343C917.306 51.1311 920.217 50.5796 923.342 50.5796C927.448 50.5796 931.095 51.4682 934.282 53.2455C937.53 55.0227 939.828 57.5048 941.176 60.6916L934.373 63.8172C932.29 59.6498 928.582 57.5661 923.25 57.5661C920.676 57.5661 918.409 58.1789 916.448 59.4046C914.548 60.5691 913.598 62.0705 913.598 63.9091C913.598 65.6251 914.272 67.0346 915.62 68.1378C916.968 69.1796 918.991 70.0376 921.687 70.7118L928.49 72.4584C933.086 73.6228 936.549 75.3694 938.878 77.6983C941.207 79.9658 942.371 82.7543 942.371 86.0637C942.371 88.9441 941.544 91.4874 939.889 93.6937C938.234 95.8387 935.998 97.4934 933.178 98.6578C930.359 99.8222 927.234 100.404 923.802 100.404ZM966.619 99.669C964.719 99.669 962.942 99.3626 961.288 98.7497C959.694 98.1369 958.346 97.3095 957.243 96.2677C956.017 95.1033 955.098 93.755 954.485 92.2229C953.872 90.6907 953.566 88.8215 953.566 86.6153V59.1289H945.384V52.0504H953.566V38.8128H961.379V52.0504H972.778V59.1289H961.379V84.6848C961.379 87.2588 961.87 89.1586 962.85 90.3843C964.015 91.7326 965.7 92.4067 967.906 92.4067C969.684 92.4067 971.4 91.8858 973.054 90.8439V98.474C972.135 98.903 971.185 99.2094 970.205 99.3932C969.285 99.5771 968.09 99.669 966.619 99.669ZM999.966 100.404C995.37 100.404 991.233 99.3013 987.556 97.095C983.879 94.8888 980.998 91.8858 978.915 88.0861C976.892 84.2864 975.881 80.0884 975.881 75.492C975.881 70.8956 976.892 66.6976 978.915 62.8979C980.998 59.0982 983.879 56.0952 987.556 53.889C991.233 51.6827 995.37 50.5796 999.966 50.5796C1004.56 50.5796 1008.7 51.6827 1012.38 53.889C1016.05 56.0952 1018.9 59.0982 1020.93 62.8979C1023.01 66.6976 1024.05 70.8956 1024.05 75.492C1024.05 80.0884 1023.01 84.2864 1020.93 88.0861C1018.9 91.8858 1016.05 94.8888 1012.38 97.095C1008.7 99.3013 1004.56 100.404 999.966 100.404ZM999.966 93.326C1002.85 93.326 1005.51 92.6212 1007.96 91.2117C1010.48 89.7408 1012.47 87.6571 1013.94 84.9606C1015.47 82.264 1016.24 79.1078 1016.24 75.492C1016.24 71.8762 1015.47 68.72 1013.94 66.0234C1012.47 63.3269 1010.48 61.2738 1007.96 59.8643C1005.51 58.3934 1002.85 57.658 999.966 57.658C997.086 57.658 994.389 58.3934 991.876 59.8643C989.364 61.2738 987.341 63.3269 985.809 66.0234C984.338 68.72 983.603 71.8762 983.603 75.492C983.603 79.1078 984.338 82.264 985.809 84.9606C987.341 87.6571 989.364 89.7408 991.876 91.2117C994.389 92.6212 997.086 93.326 999.966 93.326ZM1030.39 52.0504H1037.83V59.5885H1038.2C1039.12 57.0145 1040.9 54.9002 1043.53 53.2455C1046.17 51.5295 1048.93 50.6715 1051.81 50.6715C1053.95 50.6715 1055.79 50.9779 1057.32 51.5908V60.0481C1055.36 59.0676 1053.16 58.5773 1050.7 58.5773C1048.44 58.5773 1046.35 59.2208 1044.45 60.5078C1042.55 61.7948 1041.02 63.5414 1039.86 65.7477C1038.75 67.8926 1038.2 70.2215 1038.2 72.7342V98.9336H1030.39V52.0504ZM1081.11 100.404C1076.63 100.404 1072.62 99.3319 1069.06 97.187C1065.51 95.042 1062.72 92.1003 1060.7 88.3619C1058.74 84.5622 1057.76 80.3029 1057.76 75.5839C1057.76 71.0488 1058.68 66.8814 1060.52 63.0817C1062.42 59.2821 1065.08 56.2484 1068.51 53.9809C1071.95 51.7133 1075.93 50.5796 1080.46 50.5796C1085.06 50.5796 1089.04 51.6214 1092.41 53.7051C1095.79 55.7275 1098.36 58.5466 1100.14 62.1625C1101.98 65.7783 1102.89 69.915 1102.89 74.5727C1102.89 75.492 1102.8 76.2887 1102.62 76.9628H1065.57C1065.76 80.5174 1066.61 83.5204 1068.15 85.9718C1069.68 88.4232 1071.61 90.2617 1073.94 91.4874C1076.33 92.7131 1078.81 93.326 1081.38 93.326C1087.39 93.326 1092.02 90.5069 1095.26 84.8686L1101.88 88.0861C1099.86 91.8858 1097.1 94.8888 1093.61 97.095C1090.18 99.3013 1086.01 100.404 1081.11 100.404ZM1094.62 70.5279C1094.5 68.5668 1093.95 66.6056 1092.97 64.6445C1091.99 62.6834 1090.42 61.0287 1088.28 59.6804C1086.19 58.3321 1083.56 57.658 1080.37 57.658C1076.69 57.658 1073.57 58.8531 1071 61.2432C1068.48 63.572 1066.83 66.6669 1066.03 70.5279H1094.62Z" fill="white"/>
<path d="M461.612 99.3985C457.157 99.3985 453.13 98.3612 449.531 96.2867C445.992 94.2122 443.215 91.3444 441.202 87.6835C439.188 83.9616 438.182 79.8125 438.182 75.2364C438.182 70.8432 439.127 66.8162 441.019 63.1553C442.971 59.4333 445.687 56.5046 449.164 54.3691C452.642 52.1725 456.608 51.0742 461.062 51.0742C465.639 51.0742 469.605 52.081 472.96 54.0945C476.377 56.108 478.97 58.9147 480.74 62.5146C482.509 66.0535 483.394 70.1416 483.394 74.7787C483.394 75.3279 483.364 75.877 483.303 76.4262C483.242 76.9753 483.211 77.2804 483.211 77.3414H448.249C448.554 81.4904 450.049 84.6937 452.734 86.9513C455.419 89.2089 458.469 90.3377 461.886 90.3377C467.133 90.3377 471.161 87.8971 473.967 83.0158L482.57 87.1344C480.557 90.8563 477.75 93.8461 474.15 96.1036C470.611 98.3002 466.432 99.3985 461.612 99.3985ZM473.144 69.6534C473.021 68.1891 472.533 66.6942 471.679 65.1688C470.825 63.6434 469.483 62.3621 467.652 61.3248C465.883 60.2265 463.656 59.6774 460.971 59.6774C457.981 59.6774 455.388 60.5926 453.191 62.4231C451.056 64.2536 449.592 66.6637 448.798 69.6534H473.144Z" fill="white"/>
<path d="M416.087 99.3985C410.9 99.3985 406.599 98.2087 403.182 95.8291C399.826 93.3885 397.446 90.3377 396.043 86.6768L405.012 82.8328C406.05 85.3344 407.544 87.2259 409.497 88.5072C411.51 89.7885 413.707 90.4292 416.087 90.4292C418.588 90.4292 420.632 89.9716 422.219 89.0564C423.805 88.0801 424.598 86.8293 424.598 85.3039C424.598 83.8395 423.958 82.6497 422.676 81.7345C421.395 80.7582 419.29 79.904 416.361 79.1718L410.138 77.7075C406.721 76.9143 403.761 75.4499 401.26 73.3144C398.819 71.1178 397.599 68.2806 397.599 64.8027C397.599 60.5926 399.338 57.2673 402.816 54.8267C406.294 52.325 410.565 51.0742 415.629 51.0742C419.839 51.0742 423.561 51.9589 426.795 53.7284C430.09 55.4978 432.469 58.0605 433.934 61.4163L425.056 65.1688C424.202 63.2773 422.89 61.874 421.12 60.9587C419.351 60.0435 417.429 59.5859 415.354 59.5859C413.341 59.5859 411.571 60.0435 410.046 60.9587C408.521 61.8129 407.758 62.9722 407.758 64.4366C407.758 65.7179 408.277 66.7552 409.314 67.5484C410.412 68.3416 412.121 69.0128 414.439 69.5619L421.212 71.2093C425.788 72.3686 429.205 74.1381 431.462 76.5177C433.72 78.8363 434.849 81.643 434.849 84.9378C434.849 87.6225 434.025 90.0631 432.378 92.2597C430.791 94.4562 428.564 96.1952 425.696 97.4765C422.89 98.7578 419.686 99.3985 416.087 99.3985Z" fill="white"/>
<path d="M367.921 99.3985C364.688 99.3985 361.759 98.7578 359.135 97.4765C356.573 96.1342 354.529 94.3037 353.003 91.9851C351.539 89.6055 350.807 86.9208 350.807 83.9311C350.807 79.1719 352.576 75.4194 356.115 72.6737C359.715 69.928 364.261 68.5552 369.752 68.5552C374.572 68.5552 378.691 69.3789 382.108 71.0263V69.1043C382.108 66.3586 381.009 64.101 378.813 62.3316C376.677 60.5011 374.084 59.5859 371.033 59.5859C366.396 59.5859 362.674 61.4774 359.867 65.2603L352.18 59.952C354.315 57.0842 356.969 54.8877 360.142 53.3623C363.376 51.8369 367.006 51.0742 371.033 51.0742C377.684 51.0742 382.809 52.7521 386.409 56.108C390.07 59.4028 391.901 64.0705 391.901 70.111V97.9341H382.108V92.3512H381.558C380.094 94.4257 378.233 96.1342 375.976 97.4765C373.718 98.7578 371.033 99.3985 367.921 99.3985ZM369.569 91.0699C371.826 91.0699 373.901 90.5207 375.792 89.4224C377.745 88.2632 379.27 86.7683 380.369 84.9378C381.528 83.0463 382.108 81.0328 382.108 78.8973C378.874 77.1278 375.426 76.2431 371.765 76.2431C368.41 76.2431 365.786 76.9753 363.894 78.4397C362.003 79.904 361.057 81.765 361.057 84.0226C361.057 86.0971 361.881 87.8055 363.528 89.1479C365.237 90.4292 367.25 91.0699 369.569 91.0699Z" fill="white"/>
<path d="M325.684 99.3983C322.389 99.3983 319.43 98.6966 316.806 97.2933C314.244 95.8899 312.322 94.1205 311.04 91.9849H310.491V97.9339H300.973V32.4033H311.04V52.0808L310.491 58.3959H311.04C312.322 56.3214 314.244 54.5824 316.806 53.1791C319.43 51.7757 322.389 51.0741 325.684 51.0741C329.589 51.0741 333.189 52.1113 336.484 54.1858C339.84 56.2604 342.494 59.1586 344.446 62.8805C346.46 66.5415 347.466 70.66 347.466 75.2362C347.466 79.8123 346.46 83.9309 344.446 87.5918C342.494 91.2527 339.84 94.151 336.484 96.2865C333.189 98.361 329.589 99.3983 325.684 99.3983ZM323.945 90.1545C326.325 90.1545 328.521 89.5443 330.535 88.324C332.609 87.1037 334.257 85.3648 335.477 83.1072C336.758 80.7886 337.399 78.1649 337.399 75.2362C337.399 72.3074 336.758 69.7143 335.477 67.4567C334.257 65.1381 332.609 63.3687 330.535 62.1484C328.521 60.9281 326.325 60.3179 323.945 60.3179C321.565 60.3179 319.338 60.9281 317.264 62.1484C315.25 63.3687 313.603 65.1076 312.322 67.3652C311.101 69.6228 310.491 72.2464 310.491 75.2362C310.491 78.2259 311.101 80.8496 312.322 83.1072C313.603 85.3648 315.25 87.1037 317.264 88.324C319.338 89.5443 321.565 90.1545 323.945 90.1545Z" fill="white"/>
<path d="M273.192 99.399C268.738 99.399 264.711 98.3617 261.111 96.2872C257.572 94.2126 254.795 91.3449 252.782 87.684C250.768 83.9621 249.762 79.813 249.762 75.2368C249.762 70.8437 250.707 66.8167 252.599 63.1558C254.551 59.4338 257.267 56.5051 260.745 54.3695C264.222 52.173 268.188 51.0747 272.643 51.0747C277.219 51.0747 281.185 52.0815 284.541 54.095C287.957 56.1085 290.551 58.9152 292.32 62.5151C294.089 66.054 294.974 70.142 294.974 74.7792C294.974 75.3284 294.944 75.8775 294.883 76.4266C294.822 76.9758 294.791 77.2809 294.791 77.3419H259.829C260.134 81.4909 261.629 84.6942 264.314 86.9518C266.999 89.2094 270.049 90.3382 273.466 90.3382C278.714 90.3382 282.741 87.8975 285.547 83.0163L294.15 87.1349C292.137 90.8568 289.33 93.8466 285.73 96.1041C282.191 98.3007 278.012 99.399 273.192 99.399ZM284.724 69.6539C284.602 68.1896 284.113 66.6947 283.259 65.1693C282.405 63.6439 281.063 62.3626 279.232 61.3253C277.463 60.227 275.236 59.6779 272.551 59.6779C269.561 59.6779 266.968 60.5931 264.772 62.4236C262.636 64.2541 261.172 66.6642 260.378 69.6539H284.724Z" fill="white"/>
<path d="M221.822 52.5389H231.341V59.3116H231.89C232.866 56.993 234.636 55.071 237.198 53.5456C239.761 51.9592 242.384 51.166 245.069 51.166C247.266 51.166 249.066 51.4711 250.469 52.0812V62.6064C248.395 61.5692 246.076 61.0505 243.513 61.0505C240.218 61.0505 237.442 62.3318 235.185 64.8945C232.988 67.3961 231.89 70.4774 231.89 74.1383V97.9344H221.822V52.5389Z" fill="white"/>
<path d="M207.452 44.8506C205.561 44.8506 203.944 44.2099 202.602 42.9286C201.32 41.5863 200.68 39.9694 200.68 38.0779C200.68 36.1864 201.32 34.6 202.602 33.3187C203.944 31.9763 205.561 31.3052 207.452 31.3052C209.344 31.3052 210.93 31.9763 212.212 33.3187C213.554 34.6 214.225 36.1864 214.225 38.0779C214.225 39.9694 213.554 41.5863 212.212 42.9286C210.93 44.2099 209.344 44.8506 207.452 44.8506ZM202.419 52.5386H212.486V97.9341H202.419V52.5386Z" fill="white"/>
<path d="M156.562 32.4033H196.375V42.1963H166.813V61.0501H193.446V70.7515H166.813V97.9339H156.562V32.4033Z" fill="white"/>
<path d="M31.6562 118.1C36.7084 120.133 42.1896 121.34 47.9447 121.541C55.7335 121.813 63.1403 120.202 69.7616 117.143C61.8214 114.024 54.6303 109.461 48.4929 103.79C44.5147 110.159 38.6305 115.19 31.6562 118.1Z" fill="#FF9100"/>
<path d="M48.4923 103.791C34.4827 90.8342 25.9838 72.0806 26.7021 51.5112C26.7254 50.8433 26.7607 50.1757 26.8019 49.5084C24.2928 48.8595 21.6734 48.4635 18.9777 48.3694C15.1191 48.2346 11.3823 48.7132 7.85452 49.7066C4.11472 56.2577 1.85787 63.7742 1.57672 71.8254C0.851127 92.6036 13.4253 110.759 31.6556 118.101C38.63 115.192 44.5139 110.167 48.4923 103.791Z" fill="#FFC400"/>
<path d="M48.4937 103.791C51.7509 98.5782 53.7258 92.467 53.9557 85.8829C54.5605 68.5638 42.9175 53.6652 26.8033 49.5079C26.762 50.1752 26.7268 50.8427 26.7035 51.5107C25.9852 72.0801 34.484 90.8337 48.4937 103.791Z" fill="#FF9100"/>
<path d="M52.1543 0.825138C42.9766 8.17757 35.7294 17.8724 31.3447 29.0406C28.8344 35.4376 27.2569 42.309 26.7964 49.5121C42.9106 53.6694 54.5536 68.568 53.9488 85.8871C53.7189 92.4712 51.7382 98.5762 48.4868 103.795C54.6239 109.473 61.8153 114.029 69.7555 117.149C85.693 109.781 97.0006 93.9289 97.6554 75.1785C98.0796 63.0301 93.4121 52.2026 86.8167 43.0633C79.8515 33.3976 52.1543 0.825138 52.1543 0.825138Z" fill="#DD2C00"/>
<g filter="url(#filter0_d_47_1038)">
<circle cx="100" cy="90" r="30" fill="white"/>
<path fill-rule="evenodd" clip-rule="evenodd" d="M100 91.5L86.5 97.5V91.5L100 85.5L113.5 91.5V96.75V95.625V97.5L100 91.5ZM100 75L113.5 81V87L100 81L86.5 87V81L100 75ZM105.062 96.75L111.812 99.75L100 105V99L105.062 96.75Z" fill="#1F1F1F"/>
</g>
<defs>
<filter id="filter0_d_47_1038" x="68" y="58.6704" width="64" height="64" filterUnits="userSpaceOnUse" color-interpolation-filters="sRGB">
<feFlood flood-opacity="0" result="BackgroundImageFix"/>
<feColorMatrix in="SourceAlpha" type="matrix" values="0 0 0 0 0 0 0 0 0 0 0 0 0 0 0 0 0 0 127 0" result="hardAlpha"/>
<feOffset dy="0.670408"/>
<feGaussianBlur stdDeviation="1"/>
<feComposite in2="hardAlpha" operator="out"/>
<feColorMatrix type="matrix" values="0 0 0 0 0 0 0 0 0 0 0 0 0 0 0 0 0 0 0.3 0"/>
<feBlend mode="normal" in2="BackgroundImageFix" result="effect1_dropShadow_47_1038"/>
<feBlend mode="normal" in="SourceGraphic" in2="effect1_dropShadow_47_1038" result="shape"/>
</filter>
</defs>
</svg>
