<svg width="1469" height="128" viewBox="0 0 1469 128" fill="none" xmlns="http://www.w3.org/2000/svg">
<path d="M506.53 33.5811H528.685C532.362 33.5811 535.763 34.4084 538.889 36.0631C542.014 37.7178 544.496 40.0466 546.335 43.0496C548.235 45.9913 549.185 49.3314 549.185 53.0698C549.185 56.8082 548.235 60.1788 546.335 63.1818C544.496 66.1235 542.014 68.4217 538.889 70.0764C535.763 71.7311 532.362 72.5584 528.685 72.5584H514.252V99.4014H506.53V33.5811ZM528.868 65.1123C531.32 65.1123 533.465 64.5301 535.303 63.3657C537.203 62.2012 538.674 60.6998 539.716 58.8612C540.758 57.0226 541.279 55.0922 541.279 53.0698C541.279 51.0473 540.758 49.1169 539.716 47.2783C538.674 45.4397 537.203 43.9383 535.303 42.7738C533.465 41.6094 531.32 41.0272 528.868 41.0272H514.252V65.1123H528.868ZM573.731 100.872C569.257 100.872 565.243 99.7997 561.688 97.6547C558.134 95.5098 555.345 92.5681 553.323 88.8297C551.362 85.03 550.381 80.7707 550.381 76.0517C550.381 71.5166 551.3 67.3492 553.139 63.5495C555.039 59.7498 557.705 56.7162 561.137 54.4487C564.569 52.1811 568.552 51.0473 573.087 51.0473C577.684 51.0473 581.667 52.0892 585.038 54.1729C588.408 56.1953 590.982 59.0144 592.76 62.6302C594.598 66.2461 595.518 70.3828 595.518 75.0405C595.518 75.9598 595.426 76.7565 595.242 77.4306H558.195C558.379 80.9852 559.237 83.9881 560.769 86.4395C562.301 88.891 564.231 90.7295 566.56 91.9552C568.95 93.1809 571.432 93.7938 574.006 93.7938C580.012 93.7938 584.639 90.9747 587.888 85.3364L594.506 88.5539C592.484 92.3536 589.726 95.3565 586.233 97.5628C582.801 99.7691 578.633 100.872 573.731 100.872ZM587.244 70.9957C587.121 69.0345 586.57 67.0734 585.589 65.1123C584.609 63.1512 583.046 61.4965 580.901 60.1482C578.817 58.7999 576.182 58.1258 572.995 58.1258C569.318 58.1258 566.193 59.3208 563.619 61.711C561.106 64.0398 559.451 67.1347 558.655 70.9957H587.244ZM642.904 59.5966H634.171V52.5182H642.904V47.4622C642.904 44.5205 643.578 41.9465 644.927 39.7402C646.275 37.534 648.083 35.8486 650.35 34.6842C652.618 33.4585 655.131 32.8456 657.888 32.8456C660.524 32.8456 662.822 33.2133 664.783 33.9488V41.5788C663.557 41.0885 662.454 40.7208 661.474 40.4756C660.554 40.2305 659.451 40.1079 658.164 40.1079C656.081 40.1079 654.303 40.8434 652.832 42.3142C651.423 43.7238 650.718 45.7155 650.718 48.2895V52.5182H662.669V59.5966H650.718V99.4014H642.904V59.5966ZM602.824 52.5182H610.27V59.9643H610.638C611.741 57.2065 613.61 55.0615 616.245 53.5294C618.88 51.9973 621.761 51.2312 624.886 51.2312C626.235 51.2312 627.368 51.3231 628.288 51.507V59.5047C627.246 59.2596 625.836 59.137 624.059 59.137C620.075 59.137 616.827 60.4546 614.315 63.0899C611.863 65.7251 610.638 69.1571 610.638 73.3858V99.4014H602.824V52.5182ZM689.2 100.872C684.604 100.872 680.467 99.7691 676.79 97.5628C673.113 95.3565 670.232 92.3536 668.148 88.5539C666.126 84.7542 665.115 80.5562 665.115 75.9598C665.115 71.3634 666.126 67.1653 668.148 63.3657C670.232 59.566 673.113 56.563 676.79 54.3567C680.467 52.1505 684.604 51.0473 689.2 51.0473C693.796 51.0473 697.933 52.1505 701.61 54.3567C705.287 56.563 708.137 59.566 710.159 63.3657C712.243 67.1653 713.285 71.3634 713.285 75.9598C713.285 80.5562 712.243 84.7542 710.159 88.5539C708.137 92.3536 705.287 95.3565 701.61 97.5628C697.933 99.7691 693.796 100.872 689.2 100.872ZM689.2 93.7938C692.08 93.7938 694.746 93.089 697.198 91.6794C699.71 90.2086 701.702 88.1249 703.173 85.4283C704.705 82.7318 705.471 79.5756 705.471 75.9598C705.471 72.3439 704.705 69.1878 703.173 66.4912C701.702 63.7947 699.71 61.7416 697.198 60.332C694.746 58.8612 692.08 58.1258 689.2 58.1258C686.319 58.1258 683.623 58.8612 681.11 60.332C678.598 61.7416 676.575 63.7947 675.043 66.4912C673.572 69.1878 672.837 72.3439 672.837 75.9598C672.837 79.5756 673.572 82.7318 675.043 85.4283C676.575 88.1249 678.598 90.2086 681.11 91.6794C683.623 93.089 686.319 93.7938 689.2 93.7938ZM719.622 52.5182H727.068V60.0563H727.436C728.355 57.4823 730.133 55.3679 732.768 53.7132C735.403 51.9973 738.161 51.1393 741.041 51.1393C743.186 51.1393 745.025 51.4457 746.557 52.0585V60.5159C744.596 59.5353 742.39 59.0451 739.938 59.0451C737.671 59.0451 735.587 59.6886 733.687 60.9755C731.787 62.2625 730.255 64.0092 729.091 66.2154C727.988 68.3604 727.436 70.6892 727.436 73.2019V99.4014H719.622V52.5182ZM752.257 52.5182H759.703V59.4128H760.07C761.419 57.0226 763.441 55.0309 766.138 53.4375C768.834 51.844 771.684 51.0473 774.687 51.0473C778.119 51.0473 781.091 51.8747 783.604 53.5294C786.178 55.1841 788.017 57.3904 789.12 60.1482C790.774 57.3904 792.95 55.1841 795.647 53.5294C798.404 51.8747 801.591 51.0473 805.207 51.0473C810.6 51.0473 814.645 52.702 817.342 56.0114C820.099 59.2596 821.478 63.7027 821.478 69.341V99.4014H813.756V70.536C813.756 66.1848 812.868 63.0286 811.09 61.0675C809.313 59.1063 806.678 58.1258 803.185 58.1258C800.856 58.1258 798.741 58.7999 796.842 60.1482C794.942 61.4965 793.44 63.3044 792.337 65.5719C791.295 67.8395 790.774 70.2909 790.774 72.9262V99.4014H782.961V70.628C782.961 66.2154 782.072 63.0286 780.295 61.0675C778.517 59.1063 775.913 58.1258 772.481 58.1258C770.152 58.1258 768.038 58.8306 766.138 60.2401C764.238 61.5884 762.736 63.427 761.633 65.7558C760.591 68.0233 760.07 70.4747 760.07 73.11V99.4014H752.257V52.5182ZM845.39 100.872C841.958 100.872 838.894 100.198 836.197 98.8498C833.501 97.5015 831.417 95.663 829.946 93.3341C828.476 90.944 827.74 88.2475 827.74 85.2445C827.74 80.2804 829.609 76.4194 833.348 73.6616C837.086 70.8425 841.805 69.4329 847.505 69.4329C850.324 69.4329 852.928 69.7393 855.318 70.3522C857.77 70.965 859.639 71.6698 860.926 72.4665V69.6168C860.926 66.1235 859.7 63.335 857.249 61.2513C854.798 59.1063 851.703 58.0339 847.964 58.0339C845.329 58.0339 842.908 58.6161 840.702 59.7805C838.496 60.8836 836.749 62.4464 835.462 64.4688L829.579 60.0563C831.417 57.2371 833.93 55.0309 837.117 53.4375C840.365 51.844 843.95 51.0473 847.872 51.0473C854.246 51.0473 859.241 52.7327 862.857 56.1034C866.534 59.4128 868.372 63.9479 868.372 69.7087V99.4014H860.926V92.6906H860.558C859.21 94.9582 857.188 96.8887 854.491 98.4821C851.795 100.076 848.761 100.872 845.39 100.872ZM846.126 93.9776C848.761 93.9776 851.212 93.3035 853.48 91.9552C855.747 90.6069 857.555 88.799 858.904 86.5315C860.252 84.2639 860.926 81.7819 860.926 79.0853C859.455 78.1048 857.647 77.3081 855.502 76.6952C853.357 76.0823 851.09 75.7759 848.7 75.7759C844.41 75.7759 841.162 76.6646 838.955 78.4418C836.81 80.2191 835.738 82.5173 835.738 85.3364C835.738 87.9104 836.718 89.9941 838.68 91.5875C840.641 93.1809 843.123 93.9776 846.126 93.9776ZM877.404 52.5182H884.85V59.4128H885.218C886.505 57.0839 888.558 55.1228 891.377 53.5294C894.196 51.8747 897.199 51.0473 900.386 51.0473C906.024 51.0473 910.314 52.702 913.256 56.0114C916.259 59.2596 917.76 63.7027 917.76 69.341V99.4014H909.947V70.536C909.947 66.1848 908.905 63.0286 906.821 61.0675C904.737 59.1063 901.888 58.1258 898.272 58.1258C895.759 58.1258 893.491 58.8306 891.469 60.2401C889.508 61.6497 887.976 63.5189 886.873 65.8477C885.77 68.1153 885.218 70.5054 885.218 73.0181V99.4014H877.404V52.5182ZM948.331 100.872C943.796 100.872 939.72 99.7997 936.104 97.6547C932.489 95.4485 929.669 92.4761 927.647 88.7377C925.625 84.9381 924.613 80.6787 924.613 75.9598C924.613 71.2408 925.625 66.9815 927.647 63.1818C929.669 59.3821 932.489 56.4098 936.104 54.2648C939.72 52.1198 943.796 51.0473 948.331 51.0473C953.417 51.0473 957.677 52.2424 961.109 54.6325C964.602 56.9614 967.084 60.0869 968.555 64.0092L961.476 66.9509C960.312 64.0704 958.565 61.8948 956.237 60.424C953.969 58.8918 951.211 58.1258 947.963 58.1258C945.205 58.1258 942.631 58.8918 940.241 60.424C937.851 61.8948 935.92 63.9785 934.45 66.6751C933.04 69.3716 932.335 72.4665 932.335 75.9598C932.335 79.453 933.04 82.5479 934.45 85.2445C935.92 87.941 937.851 90.0554 940.241 91.5875C942.631 93.0583 945.205 93.7938 947.963 93.7938C951.272 93.7938 954.122 93.0277 956.512 91.4956C958.902 89.9634 960.68 87.7878 961.844 84.9687L968.831 87.9104C967.237 91.7714 964.663 94.8969 961.109 97.287C957.615 99.6772 953.356 100.872 948.331 100.872ZM995.859 100.872C991.385 100.872 987.371 99.7997 983.816 97.6547C980.262 95.5098 977.473 92.5681 975.451 88.8297C973.49 85.03 972.509 80.7707 972.509 76.0517C972.509 71.5166 973.428 67.3492 975.267 63.5495C977.167 59.7498 979.833 56.7162 983.265 54.4487C986.697 52.1811 990.68 51.0473 995.215 51.0473C999.812 51.0473 1003.8 52.0892 1007.17 54.1729C1010.54 56.1953 1013.11 59.0144 1014.89 62.6302C1016.73 66.2461 1017.65 70.3828 1017.65 75.0405C1017.65 75.9598 1017.55 76.7565 1017.37 77.4306H980.323C980.507 80.9852 981.365 83.9881 982.897 86.4395C984.429 88.891 986.36 90.7295 988.688 91.9552C991.079 93.1809 993.561 93.7938 996.135 93.7938C1002.14 93.7938 1006.77 90.9747 1010.02 85.3364L1016.63 88.5539C1014.61 92.3536 1011.85 95.3565 1008.36 97.5628C1004.93 99.7691 1000.76 100.872 995.859 100.872ZM1009.37 70.9957C1009.25 69.0345 1008.7 67.0734 1007.72 65.1123C1006.74 63.1512 1005.17 61.4965 1003.03 60.1482C1000.95 58.7999 998.31 58.1258 995.123 58.1258C991.446 58.1258 988.321 59.3208 985.747 61.711C983.234 64.0398 981.579 67.1347 980.783 70.9957H1009.37ZM1046.04 33.5811H1057.35L1078.31 87.5427H1078.68L1099.64 33.5811H1110.94V99.4014H1103.22V57.5742L1103.59 45.072H1103.22L1081.71 99.4014H1075.28L1053.76 45.072H1053.4L1053.76 57.5742V99.4014H1046.04V33.5811ZM1143.87 100.872C1139.28 100.872 1135.14 99.7691 1131.46 97.5628C1127.79 95.3565 1124.9 92.3536 1122.82 88.5539C1120.8 84.7542 1119.79 80.5562 1119.79 75.9598C1119.79 71.3634 1120.8 67.1653 1122.82 63.3657C1124.9 59.566 1127.79 56.563 1131.46 54.3567C1135.14 52.1505 1139.28 51.0473 1143.87 51.0473C1148.47 51.0473 1152.61 52.1505 1156.28 54.3567C1159.96 56.563 1162.81 59.566 1164.83 63.3657C1166.92 67.1653 1167.96 71.3634 1167.96 75.9598C1167.96 80.5562 1166.92 84.7542 1164.83 88.5539C1162.81 92.3536 1159.96 95.3565 1156.28 97.5628C1152.61 99.7691 1148.47 100.872 1143.87 100.872ZM1143.87 93.7938C1146.75 93.7938 1149.42 93.089 1151.87 91.6794C1154.38 90.2086 1156.37 88.1249 1157.85 85.4283C1159.38 82.7318 1160.14 79.5756 1160.14 75.9598C1160.14 72.3439 1159.38 69.1878 1157.85 66.4912C1156.37 63.7947 1154.38 61.7416 1151.87 60.332C1149.42 58.8612 1146.75 58.1258 1143.87 58.1258C1140.99 58.1258 1138.3 58.8612 1135.78 60.332C1133.27 61.7416 1131.25 63.7947 1129.72 66.4912C1128.24 69.1878 1127.51 72.3439 1127.51 75.9598C1127.51 79.5756 1128.24 82.7318 1129.72 85.4283C1131.25 88.1249 1133.27 90.2086 1135.78 91.6794C1138.3 93.089 1140.99 93.7938 1143.87 93.7938ZM1174.29 52.5182H1181.74V59.4128H1182.11C1183.4 57.0839 1185.45 55.1228 1188.27 53.5294C1191.09 51.8747 1194.09 51.0473 1197.28 51.0473C1202.92 51.0473 1207.21 52.702 1210.15 56.0114C1213.15 59.2596 1214.65 63.7027 1214.65 69.341V99.4014H1206.84V70.536C1206.84 66.1848 1205.8 63.0286 1203.71 61.0675C1201.63 59.1063 1198.78 58.1258 1195.16 58.1258C1192.65 58.1258 1190.38 58.8306 1188.36 60.2401C1186.4 61.6497 1184.87 63.5189 1183.76 65.8477C1182.66 68.1153 1182.11 70.5054 1182.11 73.0181V99.4014H1174.29V52.5182ZM1228.58 43.877C1227.05 43.877 1225.73 43.3254 1224.63 42.2223C1223.53 41.1191 1222.98 39.8015 1222.98 38.2694C1222.98 36.7372 1223.53 35.4503 1224.63 34.4084C1225.73 33.3053 1227.05 32.7537 1228.58 32.7537C1230.11 32.7537 1231.43 33.3053 1232.54 34.4084C1233.64 35.4503 1234.19 36.7372 1234.19 38.2694C1234.19 39.8015 1233.64 41.1191 1232.54 42.2223C1231.49 43.3254 1230.18 43.877 1228.58 43.877ZM1224.72 52.5182H1232.44V99.4014H1224.72V52.5182ZM1260.45 100.137C1258.55 100.137 1256.78 99.8304 1255.12 99.2175C1253.53 98.6047 1252.18 97.7773 1251.08 96.7355C1249.85 95.571 1248.93 94.2228 1248.32 92.6906C1247.71 91.1585 1247.4 89.2893 1247.4 87.083V59.5966H1239.22V52.5182H1247.4V39.2806H1255.21V52.5182H1266.61V59.5966H1255.21V85.1526C1255.21 87.7265 1255.7 89.6264 1256.69 90.8521C1257.85 92.2004 1259.54 92.8745 1261.74 92.8745C1263.52 92.8745 1265.23 92.3536 1266.89 91.3117V98.9417C1265.97 99.3707 1265.02 99.6772 1264.04 99.861C1263.12 100.045 1261.93 100.137 1260.45 100.137ZM1293.8 100.872C1289.2 100.872 1285.07 99.7691 1281.39 97.5628C1277.71 95.3565 1274.83 92.3536 1272.75 88.5539C1270.73 84.7542 1269.72 80.5562 1269.72 75.9598C1269.72 71.3634 1270.73 67.1653 1272.75 63.3657C1274.83 59.566 1277.71 56.563 1281.39 54.3567C1285.07 52.1505 1289.2 51.0473 1293.8 51.0473C1298.4 51.0473 1302.53 52.1505 1306.21 54.3567C1309.89 56.563 1312.74 59.566 1314.76 63.3657C1316.84 67.1653 1317.89 71.3634 1317.89 75.9598C1317.89 80.5562 1316.84 84.7542 1314.76 88.5539C1312.74 92.3536 1309.89 95.3565 1306.21 97.5628C1302.53 99.7691 1298.4 100.872 1293.8 100.872ZM1293.8 93.7938C1296.68 93.7938 1299.35 93.089 1301.8 91.6794C1304.31 90.2086 1306.3 88.1249 1307.77 85.4283C1309.31 82.7318 1310.07 79.5756 1310.07 75.9598C1310.07 72.3439 1309.31 69.1878 1307.77 66.4912C1306.3 63.7947 1304.31 61.7416 1301.8 60.332C1299.35 58.8612 1296.68 58.1258 1293.8 58.1258C1290.92 58.1258 1288.22 58.8612 1285.71 60.332C1283.2 61.7416 1281.18 63.7947 1279.64 66.4912C1278.17 69.1878 1277.44 72.3439 1277.44 75.9598C1277.44 79.5756 1278.17 82.7318 1279.64 85.4283C1281.18 88.1249 1283.2 90.2086 1285.71 91.6794C1288.22 93.089 1290.92 93.7938 1293.8 93.7938ZM1324.22 52.5182H1331.67V60.0563H1332.04C1332.96 57.4823 1334.73 55.3679 1337.37 53.7132C1340 51.9973 1342.76 51.1393 1345.64 51.1393C1347.79 51.1393 1349.63 51.4457 1351.16 52.0585V60.5159C1349.2 59.5353 1346.99 59.0451 1344.54 59.0451C1342.27 59.0451 1340.19 59.6886 1338.29 60.9755C1336.39 62.2625 1334.86 64.0092 1333.69 66.2154C1332.59 68.3604 1332.04 70.6892 1332.04 73.2019V99.4014H1324.22V52.5182ZM1361.45 43.877C1359.92 43.877 1358.6 43.3254 1357.5 42.2223C1356.4 41.1191 1355.85 39.8015 1355.85 38.2694C1355.85 36.7372 1356.4 35.4503 1357.5 34.4084C1358.6 33.3053 1359.92 32.7537 1361.45 32.7537C1362.99 32.7537 1364.3 33.3053 1365.41 34.4084C1366.51 35.4503 1367.06 36.7372 1367.06 38.2694C1367.06 39.8015 1366.51 41.1191 1365.41 42.2223C1364.37 43.3254 1363.05 43.877 1361.45 43.877ZM1357.59 52.5182H1365.32V99.4014H1357.59V52.5182ZM1375.76 52.5182H1383.2V59.4128H1383.57C1384.86 57.0839 1386.91 55.1228 1389.73 53.5294C1392.55 51.8747 1395.55 51.0473 1398.74 51.0473C1404.38 51.0473 1408.67 52.702 1411.61 56.0114C1414.61 59.2596 1416.11 63.7027 1416.11 69.341V99.4014H1408.3V70.536C1408.3 66.1848 1407.26 63.0286 1405.17 61.0675C1403.09 59.1063 1400.24 58.1258 1396.62 58.1258C1394.11 58.1258 1391.84 58.8306 1389.82 60.2401C1387.86 61.6497 1386.33 63.5189 1385.23 65.8477C1384.12 68.1153 1383.57 70.5054 1383.57 73.0181V99.4014H1375.76V52.5182ZM1445.59 120.729C1440.08 120.729 1435.51 119.442 1431.89 116.868C1428.34 114.294 1425.95 111.199 1424.72 107.583L1431.8 104.549C1432.84 107.246 1434.56 109.421 1436.95 111.076C1439.4 112.792 1442.28 113.65 1445.59 113.65C1450.43 113.65 1454.17 112.241 1456.81 109.421C1459.5 106.602 1460.85 102.619 1460.85 97.4709V92.231H1460.48C1458.95 94.6211 1456.78 96.5822 1453.96 98.1144C1451.2 99.5852 1448.04 100.321 1444.49 100.321C1440.44 100.321 1436.74 99.2788 1433.36 97.1951C1430.06 95.1114 1427.42 92.2004 1425.46 88.462C1423.5 84.7236 1422.52 80.4642 1422.52 75.684C1422.52 70.965 1423.5 66.7364 1425.46 62.998C1427.42 59.1983 1430.06 56.2566 1433.36 54.1729C1436.74 52.0892 1440.44 51.0473 1444.49 51.0473C1448.04 51.0473 1451.2 51.8134 1453.96 53.3455C1456.78 54.8164 1458.95 56.7775 1460.48 59.2289H1460.85V52.5182H1468.3V97.5628C1468.3 105.101 1466.21 110.831 1462.05 114.753C1457.88 118.737 1452.39 120.729 1445.59 120.729ZM1445.59 93.2422C1448.41 93.2422 1450.95 92.5374 1453.22 91.1279C1455.55 89.7183 1457.39 87.6959 1458.74 85.0606C1460.15 82.4254 1460.85 79.2998 1460.85 75.684C1460.85 72.0069 1460.15 68.8507 1458.74 66.2154C1457.39 63.5802 1455.55 61.5884 1453.22 60.2401C1450.95 58.8306 1448.41 58.1258 1445.59 58.1258C1442.77 58.1258 1440.2 58.8306 1437.87 60.2401C1435.54 61.6497 1433.67 63.6721 1432.26 66.3074C1430.91 68.9426 1430.24 72.0682 1430.24 75.684C1430.24 79.2998 1430.91 82.456 1432.26 85.1526C1433.67 87.7878 1435.54 89.8102 1437.87 91.2198C1440.2 92.5681 1442.77 93.2422 1445.59 93.2422Z" fill="white"/>
<path d="M461.612 99.8663C457.157 99.8663 453.13 98.829 449.531 96.7545C445.992 94.6799 443.215 91.8122 441.202 88.1513C439.188 84.4293 438.182 80.2803 438.182 75.7041C438.182 71.311 439.127 67.284 441.019 63.6231C442.971 59.9011 445.687 56.9724 449.164 54.8368C452.642 52.6403 456.608 51.542 461.062 51.542C465.639 51.542 469.605 52.5487 472.96 54.5623C476.377 56.5758 478.97 59.3825 480.74 62.9824C482.509 66.5213 483.394 70.6093 483.394 75.2465C483.394 75.7956 483.364 76.3448 483.303 76.8939C483.242 77.4431 483.211 77.7481 483.211 77.8092H448.249C448.554 81.9582 450.049 85.1615 452.734 87.4191C455.419 89.6767 458.469 90.8055 461.886 90.8055C467.133 90.8055 471.161 88.3648 473.967 83.4836L482.57 87.6021C480.557 91.3241 477.75 94.3138 474.15 96.5714C470.611 98.768 466.432 99.8663 461.612 99.8663ZM473.144 70.1212C473.021 68.6568 472.533 67.162 471.679 65.6366C470.825 64.1112 469.483 62.8299 467.652 61.7926C465.883 60.6943 463.656 60.1452 460.971 60.1452C457.981 60.1452 455.388 61.0604 453.191 62.8909C451.056 64.7213 449.592 67.1314 448.798 70.1212H473.144Z" fill="white"/>
<path d="M416.087 99.8663C410.9 99.8663 406.599 98.6765 403.182 96.2968C399.826 93.8562 397.446 90.8055 396.043 87.1445L405.012 83.3006C406.05 85.8022 407.544 87.6937 409.497 88.975C411.51 90.2563 413.707 90.897 416.087 90.897C418.588 90.897 420.632 90.4394 422.219 89.5241C423.805 88.5479 424.598 87.2971 424.598 85.7717C424.598 84.3073 423.958 83.1175 422.676 82.2023C421.395 81.226 419.29 80.3718 416.361 79.6396L410.138 78.1752C406.721 77.382 403.761 75.9177 401.26 73.7821C398.819 71.5856 397.599 68.7484 397.599 65.2705C397.599 61.0604 399.338 57.7351 402.816 55.2944C406.294 52.7928 410.565 51.542 415.629 51.542C419.839 51.542 423.561 52.4267 426.795 54.1962C430.09 55.9656 432.469 58.5283 433.934 61.8841L425.056 65.6366C424.202 63.7451 422.89 62.3417 421.12 61.4265C419.351 60.5113 417.429 60.0537 415.354 60.0537C413.341 60.0537 411.571 60.5113 410.046 61.4265C408.521 62.2807 407.758 63.44 407.758 64.9044C407.758 66.1857 408.277 67.223 409.314 68.0162C410.412 68.8094 412.121 69.4805 414.439 70.0297L421.212 71.6771C425.788 72.8364 429.205 74.6058 431.462 76.9854C433.72 79.304 434.849 82.1107 434.849 85.4056C434.849 88.0903 434.025 90.5309 432.378 92.7274C430.791 94.924 428.564 96.6629 425.696 97.9443C422.89 99.2256 419.686 99.8663 416.087 99.8663Z" fill="white"/>
<path d="M367.921 99.8663C364.688 99.8663 361.759 99.2256 359.135 97.9443C356.573 96.6019 354.529 94.7715 353.003 92.4529C351.539 90.0733 350.807 87.3886 350.807 84.3988C350.807 79.6396 352.576 75.8872 356.115 73.1415C359.715 70.3958 364.261 69.0229 369.752 69.0229C374.572 69.0229 378.691 69.8466 382.108 71.4941V69.5721C382.108 66.8264 381.009 64.5688 378.813 62.7993C376.677 60.9689 374.084 60.0537 371.033 60.0537C366.396 60.0537 362.674 61.9451 359.867 65.7281L352.18 60.4197C354.315 57.552 356.969 55.3555 360.142 53.8301C363.376 52.3047 367.006 51.542 371.033 51.542C377.684 51.542 382.809 53.2199 386.409 56.5758C390.07 59.8706 391.901 64.5383 391.901 70.5788V98.4019H382.108V92.819H381.558C380.094 94.8935 378.233 96.6019 375.976 97.9443C373.718 99.2256 371.033 99.8663 367.921 99.8663ZM369.569 91.5376C371.826 91.5376 373.901 90.9885 375.792 89.8902C377.745 88.7309 379.27 87.236 380.369 85.4056C381.528 83.5141 382.108 81.5006 382.108 79.3651C378.874 77.5956 375.426 76.7109 371.765 76.7109C368.41 76.7109 365.786 77.4431 363.894 78.9074C362.003 80.3718 361.057 82.2328 361.057 84.4904C361.057 86.5649 361.881 88.2733 363.528 89.6157C365.237 90.897 367.25 91.5376 369.569 91.5376Z" fill="white"/>
<path d="M325.684 99.8661C322.389 99.8661 319.43 99.1644 316.806 97.7611C314.244 96.3577 312.322 94.5882 311.04 92.4527H310.491V98.4017H300.973V32.8711H311.04V52.5486L310.491 58.8637H311.04C312.322 56.7892 314.244 55.0502 316.806 53.6469C319.43 52.2435 322.389 51.5418 325.684 51.5418C329.589 51.5418 333.189 52.5791 336.484 54.6536C339.84 56.7281 342.494 59.6264 344.446 63.3483C346.46 67.0093 347.466 71.1278 347.466 75.704C347.466 80.2801 346.46 84.3987 344.446 88.0596C342.494 91.7205 339.84 94.6188 336.484 96.7543C333.189 98.8288 329.589 99.8661 325.684 99.8661ZM323.945 90.6222C326.325 90.6222 328.521 90.0121 330.535 88.7918C332.609 87.5715 334.257 85.8325 335.477 83.575C336.758 81.2564 337.399 78.6327 337.399 75.704C337.399 72.7752 336.758 70.1821 335.477 67.9245C334.257 65.6059 332.609 63.8364 330.535 62.6161C328.521 61.3958 326.325 60.7857 323.945 60.7857C321.565 60.7857 319.338 61.3958 317.264 62.6161C315.25 63.8364 313.603 65.5754 312.322 67.833C311.101 70.0905 310.491 72.7142 310.491 75.704C310.491 78.6937 311.101 81.3174 312.322 83.575C313.603 85.8325 315.25 87.5715 317.264 88.7918C319.338 90.0121 321.565 90.6222 323.945 90.6222Z" fill="white"/>
<path d="M273.192 99.8667C268.738 99.8667 264.711 98.8295 261.111 96.7549C257.572 94.6804 254.795 91.8127 252.782 88.1518C250.768 84.4298 249.762 80.2808 249.762 75.7046C249.762 71.3115 250.707 67.2845 252.599 63.6235C254.551 59.9016 257.267 56.9729 260.745 54.8373C264.222 52.6408 268.188 51.5425 272.643 51.5425C277.219 51.5425 281.185 52.5492 284.541 54.5627C287.957 56.5763 290.551 59.383 292.32 62.9829C294.089 66.5218 294.974 70.6098 294.974 75.247C294.974 75.7961 294.944 76.3453 294.883 76.8944C294.822 77.4436 294.791 77.7486 294.791 77.8096H259.829C260.134 81.9587 261.629 85.162 264.314 87.4196C266.999 89.6772 270.049 90.8059 273.466 90.8059C278.714 90.8059 282.741 88.3653 285.547 83.4841L294.15 87.6026C292.137 91.3246 289.33 94.3143 285.73 96.5719C282.191 98.7685 278.012 99.8667 273.192 99.8667ZM284.724 70.1217C284.602 68.6573 284.113 67.1624 283.259 65.6371C282.405 64.1117 281.063 62.8303 279.232 61.7931C277.463 60.6948 275.236 60.1457 272.551 60.1457C269.561 60.1457 266.968 61.0609 264.772 62.8914C262.636 64.7218 261.172 67.1319 260.378 70.1217H284.724Z" fill="white"/>
<path d="M221.822 53.0066H231.341V59.7794H231.89C232.866 57.4608 234.636 55.5388 237.198 54.0134C239.761 52.427 242.384 51.6338 245.069 51.6338C247.266 51.6338 249.066 51.9389 250.469 52.549V63.0742C248.395 62.0369 246.076 61.5183 243.513 61.5183C240.218 61.5183 237.442 62.7996 235.185 65.3623C232.988 67.8639 231.89 70.9452 231.89 74.6061V98.4022H221.822V53.0066Z" fill="white"/>
<path d="M207.452 45.3184C205.561 45.3184 203.944 44.6777 202.602 43.3964C201.32 42.0541 200.68 40.4371 200.68 38.5457C200.68 36.6542 201.32 35.0678 202.602 33.7865C203.944 32.4441 205.561 31.7729 207.452 31.7729C209.344 31.7729 210.93 32.4441 212.212 33.7865C213.554 35.0678 214.225 36.6542 214.225 38.5457C214.225 40.4371 213.554 42.0541 212.212 43.3964C210.93 44.6777 209.344 45.3184 207.452 45.3184ZM202.419 53.0063H212.486V98.4018H202.419V53.0063Z" fill="white"/>
<path d="M156.562 32.8711H196.375V42.6641H166.813V61.5179H193.446V71.2193H166.813V98.4017H156.562V32.8711Z" fill="white"/>
<path d="M31.6562 118.567C36.7084 120.601 42.1896 121.807 47.9447 122.008C55.7335 122.28 63.1403 120.67 69.7616 117.611C61.8214 114.492 54.6303 109.929 48.4929 104.257C44.5147 110.627 38.6305 115.658 31.6562 118.567Z" fill="#FF9100"/>
<path d="M48.4923 104.259C34.4827 91.302 25.9838 72.5484 26.7021 51.979C26.7254 51.311 26.7607 50.6435 26.8019 49.9762C24.2928 49.3273 21.6734 48.9313 18.9777 48.8371C15.1191 48.7024 11.3823 49.181 7.85452 50.1744C4.11472 56.7255 1.85787 64.242 1.57672 72.2932C0.851127 93.0713 13.4253 111.227 31.6556 118.569C38.63 115.66 44.5139 110.635 48.4923 104.259Z" fill="#FFC400"/>
<path d="M48.4937 104.258C51.7509 99.0459 53.7258 92.9348 53.9557 86.3506C54.5605 69.0316 42.9175 54.133 26.8033 49.9757C26.762 50.643 26.7268 51.3105 26.7035 51.9785C25.9852 72.5479 34.484 91.3015 48.4937 104.258Z" fill="#FF9100"/>
<path d="M52.1543 1.29291C42.9766 8.64534 35.7294 18.3402 31.3447 29.5084C28.8344 35.9054 27.2569 42.7768 26.7964 49.9798C42.9106 54.1372 54.5536 69.0358 53.9488 86.3548C53.7189 92.939 51.7382 99.044 48.4868 104.263C54.6239 109.941 61.8153 114.497 69.7555 117.616C85.693 110.249 97.0006 94.3967 97.6554 75.6462C98.0796 63.4978 93.4121 52.6704 86.8167 43.5311C79.8515 33.8654 52.1543 1.29291 52.1543 1.29291Z" fill="#DD2C00"/>
<g filter="url(#filter0_d_47_1449)">
<circle cx="100" cy="90" r="30" fill="white"/>
<path fill-rule="evenodd" clip-rule="evenodd" d="M100 75C108.25 75 115 81.75 115 90C115 98.25 108.25 105 100 105C91.75 105 85 98.25 85 90C85 81.75 91.75 75 100 75ZM107.95 99C110.35 96.75 112 93.6 112 90C112 83.4 106.6 78 100 78C93.4 78 88 83.4 88 90C88 93.6 89.65 96.75 92.05 99C94.15 97.2 96.85 96 100 96C103.15 96 105.85 97.2 107.95 99ZM92.5 85.5C93.4 85.5 94 86.1 94 87C94 87.9 93.4 88.5 92.5 88.5C91.6 88.5 91 87.9 91 87C91 86.1 91.6 85.5 92.5 85.5ZM98.5 82.5C98.5 83.4 97.9 84 97 84C96.1 84 95.5 83.4 95.5 82.5C95.5 81.6 96.1 81 97 81C97.9 81 98.5 81.6 98.5 82.5ZM107.5 85.5C108.4 85.5 109 86.1 109 87C109 87.9 108.4 88.5 107.5 88.5C106.6 88.5 106 87.9 106 87C106 86.1 106.6 85.5 107.5 85.5ZM101.735 81.6933L101.735 81.6934C102.002 81.2765 102.469 81 103 81C103.828 81 104.5 81.672 104.5 82.5C104.5 82.6186 104.486 82.734 104.46 82.8448C103.964 85.3785 103.955 85.421 102.95 90.5395C102.693 91.9354 101.471 92.9922 100 92.9922C98.3425 92.9922 97 91.6497 97 89.9922C97 89.3775 97.1846 88.8062 97.5015 88.3305C100.313 83.9223 100.318 83.9142 101.735 81.6933Z" fill="#1F1F1F"/>
</g>
<defs>
<filter id="filter0_d_47_1449" x="68" y="58.6704" width="64" height="64" filterUnits="userSpaceOnUse" color-interpolation-filters="sRGB">
<feFlood flood-opacity="0" result="BackgroundImageFix"/>
<feColorMatrix in="SourceAlpha" type="matrix" values="0 0 0 0 0 0 0 0 0 0 0 0 0 0 0 0 0 0 127 0" result="hardAlpha"/>
<feOffset dy="0.670408"/>
<feGaussianBlur stdDeviation="1"/>
<feComposite in2="hardAlpha" operator="out"/>
<feColorMatrix type="matrix" values="0 0 0 0 0 0 0 0 0 0 0 0 0 0 0 0 0 0 0.3 0"/>
<feBlend mode="normal" in2="BackgroundImageFix" result="effect1_dropShadow_47_1449"/>
<feBlend mode="normal" in="SourceGraphic" in2="effect1_dropShadow_47_1449" result="shape"/>
</filter>
</defs>
</svg>
