<svg width="765" height="128" viewBox="0 0 765 128" fill="none" xmlns="http://www.w3.org/2000/svg">
<path d="M537.418 100.872C531.228 100.872 525.528 99.3707 520.319 96.3677C515.11 93.3648 510.973 89.228 507.909 83.9575C504.845 78.687 503.313 72.8649 503.313 66.4912C503.313 60.1176 504.845 54.2955 507.909 49.0249C510.973 43.7544 515.11 39.6177 520.319 36.6147C525.528 33.6117 531.228 32.1102 537.418 32.1102C542.259 32.1102 546.794 32.9682 551.023 34.6842C555.313 36.4002 558.837 38.8209 561.595 41.9465L555.987 47.5541C553.903 44.9801 551.238 43.019 547.989 41.6707C544.741 40.2611 541.248 39.5564 537.51 39.5564C532.852 39.5564 528.501 40.6901 524.456 42.9577C520.472 45.164 517.255 48.3201 514.804 52.4263C512.413 56.4711 511.218 61.1594 511.218 66.4912C511.218 71.823 512.413 76.542 514.804 80.6481C517.255 84.6929 520.503 87.8491 524.548 90.1167C528.593 92.3229 532.913 93.4261 537.51 93.4261C541.922 93.4261 545.599 92.7519 548.541 91.4036C551.544 89.9941 554.118 88.1555 556.263 85.888C557.856 84.172 559.143 82.1189 560.124 79.7288C561.104 77.2774 561.717 74.5809 561.962 71.6392H537.602V64.3769H569.225C569.531 66.0929 569.684 67.6863 569.684 69.1571C569.684 73.2019 569.041 77.1548 567.754 81.0158C566.467 84.8155 564.414 88.1555 561.595 91.0359C555.528 97.5935 547.469 100.872 537.418 100.872ZM598.329 100.872C593.855 100.872 589.841 99.7997 586.286 97.6547C582.731 95.5098 579.943 92.5681 577.921 88.8297C575.959 85.03 574.979 80.7707 574.979 76.0517C574.979 71.5166 575.898 67.3492 577.737 63.5495C579.637 59.7498 582.302 56.7162 585.734 54.4487C589.166 52.1811 593.15 51.0473 597.685 51.0473C602.281 51.0473 606.265 52.0892 609.636 54.1729C613.006 56.1953 615.58 59.0144 617.358 62.6302C619.196 66.2461 620.115 70.3828 620.115 75.0405C620.115 75.9598 620.023 76.7565 619.84 77.4306H582.793C582.977 80.9852 583.835 83.9881 585.367 86.4395C586.899 88.891 588.829 90.7295 591.158 91.9552C593.548 93.1809 596.03 93.7938 598.604 93.7938C604.61 93.7938 609.237 90.9747 612.485 85.3364L619.104 88.5539C617.082 92.3536 614.324 95.3565 610.831 97.5628C607.399 99.7691 603.231 100.872 598.329 100.872ZM611.842 70.9957C611.719 69.0345 611.168 67.0734 610.187 65.1123C609.207 63.1512 607.644 61.4965 605.499 60.1482C603.415 58.7999 600.78 58.1258 597.593 58.1258C593.916 58.1258 590.79 59.3208 588.216 61.711C585.704 64.0398 584.049 67.1347 583.252 70.9957H611.842ZM627.422 52.5182H634.868V59.4128H635.235C636.522 57.0839 638.575 55.1228 641.395 53.5294C644.214 51.8747 647.217 51.0473 650.403 51.0473C656.042 51.0473 660.332 52.702 663.273 56.0114C666.276 59.2596 667.778 63.7027 667.778 69.341V99.4014H659.964V70.536C659.964 66.1848 658.922 63.0286 656.838 61.0675C654.755 59.1063 651.905 58.1258 648.289 58.1258C645.776 58.1258 643.509 58.8306 641.486 60.2401C639.525 61.6497 637.993 63.5189 636.89 65.8477C635.787 68.1153 635.235 70.5054 635.235 73.0181V99.4014H627.422V52.5182ZM677.113 33.5811H684.927V74.9486L706.989 52.5182H716.918V52.8859L698.532 71.4553L717.377 99.0337V99.4014H708.092L693.016 76.8791L684.927 84.9687V99.4014H677.113V33.5811ZM726.283 43.877C724.751 43.877 723.434 43.3254 722.331 42.2223C721.227 41.1191 720.676 39.8015 720.676 38.2694C720.676 36.7372 721.227 35.4503 722.331 34.4084C723.434 33.3053 724.751 32.7537 726.283 32.7537C727.816 32.7537 729.133 33.3053 730.236 34.4084C731.339 35.4503 731.891 36.7372 731.891 38.2694C731.891 39.8015 731.339 41.1191 730.236 42.2223C729.194 43.3254 727.877 43.877 726.283 43.877ZM722.422 52.5182H730.144V99.4014H722.422V52.5182ZM758.155 100.137C756.255 100.137 754.478 99.8304 752.823 99.2175C751.23 98.6047 749.882 97.7773 748.778 96.7355C747.553 95.571 746.633 94.2228 746.021 92.6906C745.408 91.1585 745.101 89.2893 745.101 87.083V59.5966H736.92V52.5182H745.101V39.2806H752.915V52.5182H764.314V59.5966H752.915V85.1526C752.915 87.7265 753.405 89.6264 754.386 90.8521C755.55 92.2004 757.236 92.8745 759.442 92.8745C761.219 92.8745 762.935 92.3536 764.59 91.3117V98.9417C763.671 99.3707 762.721 99.6772 761.74 99.861C760.821 100.045 759.626 100.137 758.155 100.137Z" fill="white"/>
<path d="M461.612 99.8672C457.157 99.8672 453.13 98.83 449.531 96.7554C445.992 94.6809 443.215 91.8132 441.202 88.1523C439.188 84.4303 438.182 80.2813 438.182 75.7051C438.182 71.312 439.127 67.285 441.019 63.624C442.971 59.9021 445.687 56.9733 449.164 54.8378C452.642 52.6412 456.608 51.543 461.062 51.543C465.639 51.543 469.605 52.5497 472.96 54.5632C476.377 56.5767 478.97 59.3835 480.74 62.9834C482.509 66.5223 483.394 70.6103 483.394 75.2475C483.394 75.7966 483.364 76.3458 483.303 76.8949C483.242 77.444 483.211 77.7491 483.211 77.8101H448.249C448.554 81.9592 450.049 85.1625 452.734 87.4201C455.419 89.6776 458.469 90.8064 461.886 90.8064C467.133 90.8064 471.161 88.3658 473.967 83.4846L482.57 87.6031C480.557 91.3251 477.75 94.3148 474.15 96.5724C470.611 98.769 466.432 99.8672 461.612 99.8672ZM473.144 70.1222C473.021 68.6578 472.533 67.1629 471.679 65.6375C470.825 64.1122 469.483 62.8308 467.652 61.7936C465.883 60.6953 463.656 60.1461 460.971 60.1461C457.981 60.1461 455.388 61.0614 453.191 62.8919C451.056 64.7223 449.592 67.1324 448.798 70.1222H473.144Z" fill="white"/>
<path d="M416.087 99.8672C410.9 99.8672 406.599 98.6774 403.182 96.2978C399.826 93.8572 397.446 90.8064 396.043 87.1455L405.012 83.3015C406.05 85.8032 407.544 87.6946 409.497 88.976C411.51 90.2573 413.707 90.898 416.087 90.898C418.588 90.898 420.632 90.4403 422.219 89.5251C423.805 88.5489 424.598 87.298 424.598 85.7727C424.598 84.3083 423.958 83.1185 422.676 82.2032C421.395 81.227 419.29 80.3728 416.361 79.6406L410.138 78.1762C406.721 77.383 403.761 75.9187 401.26 73.7831C398.819 71.5866 397.599 68.7493 397.599 65.2715C397.599 61.0614 399.338 57.736 402.816 55.2954C406.294 52.7938 410.565 51.543 415.629 51.543C419.839 51.543 423.561 52.4277 426.795 54.1971C430.09 55.9666 432.469 58.5292 433.934 61.8851L425.056 65.6375C424.202 63.7461 422.89 62.3427 421.12 61.4275C419.351 60.5122 417.429 60.0546 415.354 60.0546C413.341 60.0546 411.571 60.5122 410.046 61.4275C408.521 62.2817 407.758 63.441 407.758 64.9054C407.758 66.1867 408.277 67.2239 409.314 68.0171C410.412 68.8104 412.121 69.4815 414.439 70.0307L421.212 71.6781C425.788 72.8374 429.205 74.6068 431.462 76.9864C433.72 79.305 434.849 82.1117 434.849 85.4066C434.849 88.0912 434.025 90.5319 432.378 92.7284C430.791 94.925 428.564 96.6639 425.696 97.9452C422.89 99.2266 419.686 99.8672 416.087 99.8672Z" fill="white"/>
<path d="M367.921 99.8672C364.688 99.8672 361.759 99.2266 359.135 97.9452C356.573 96.6029 354.529 94.7724 353.003 92.4538C351.539 90.0742 350.807 87.3896 350.807 84.3998C350.807 79.6406 352.576 75.8881 356.115 73.1424C359.715 70.3968 364.261 69.0239 369.752 69.0239C374.572 69.0239 378.691 69.8476 382.108 71.495V69.573C382.108 66.8273 381.009 64.5698 378.813 62.8003C376.677 60.9699 374.084 60.0546 371.033 60.0546C366.396 60.0546 362.674 61.9461 359.867 65.7291L352.18 60.4207C354.315 57.553 356.969 55.3564 360.142 53.8311C363.376 52.3057 367.006 51.543 371.033 51.543C377.684 51.543 382.809 53.2209 386.409 56.5767C390.07 59.8716 391.901 64.5393 391.901 70.5798V98.4029H382.108V92.8199H381.558C380.094 94.8945 378.233 96.6029 375.976 97.9452C373.718 99.2266 371.033 99.8672 367.921 99.8672ZM369.569 91.5386C371.826 91.5386 373.901 90.9895 375.792 89.8912C377.745 88.7319 379.27 87.237 380.369 85.4066C381.528 83.5151 382.108 81.5016 382.108 79.366C378.874 77.5966 375.426 76.7119 371.765 76.7119C368.41 76.7119 365.786 77.444 363.894 78.9084C362.003 80.3728 361.057 82.2338 361.057 84.4913C361.057 86.5659 361.881 88.2743 363.528 89.6166C365.237 90.898 367.25 91.5386 369.569 91.5386Z" fill="white"/>
<path d="M325.684 99.8661C322.389 99.8661 319.43 99.1644 316.806 97.7611C314.244 96.3577 312.322 94.5882 311.04 92.4527H310.491V98.4017H300.973V32.8711H311.04V52.5486L310.491 58.8637H311.04C312.322 56.7892 314.244 55.0502 316.806 53.6469C319.43 52.2435 322.389 51.5418 325.684 51.5418C329.589 51.5418 333.189 52.5791 336.484 54.6536C339.84 56.7281 342.494 59.6264 344.446 63.3483C346.46 67.0093 347.466 71.1278 347.466 75.704C347.466 80.2801 346.46 84.3987 344.446 88.0596C342.494 91.7205 339.84 94.6188 336.484 96.7543C333.189 98.8288 329.589 99.8661 325.684 99.8661ZM323.945 90.6222C326.325 90.6222 328.521 90.0121 330.535 88.7918C332.609 87.5715 334.257 85.8325 335.477 83.575C336.758 81.2564 337.399 78.6327 337.399 75.704C337.399 72.7752 336.758 70.1821 335.477 67.9245C334.257 65.6059 332.609 63.8364 330.535 62.6161C328.521 61.3958 326.325 60.7857 323.945 60.7857C321.565 60.7857 319.338 61.3958 317.264 62.6161C315.25 63.8364 313.603 65.5754 312.322 67.833C311.101 70.0905 310.491 72.7142 310.491 75.704C310.491 78.6937 311.101 81.3174 312.322 83.575C313.603 85.8325 315.25 87.5715 317.264 88.7918C319.338 90.0121 321.565 90.6222 323.945 90.6222Z" fill="white"/>
<path d="M273.192 99.8672C268.738 99.8672 264.711 98.83 261.111 96.7554C257.572 94.6809 254.795 91.8132 252.782 88.1523C250.768 84.4303 249.762 80.2813 249.762 75.7051C249.762 71.312 250.707 67.285 252.599 63.624C254.551 59.9021 257.267 56.9733 260.745 54.8378C264.222 52.6412 268.188 51.543 272.643 51.543C277.219 51.543 281.185 52.5497 284.541 54.5632C287.957 56.5767 290.551 59.3835 292.32 62.9834C294.089 66.5223 294.974 70.6103 294.974 75.2475C294.974 75.7966 294.944 76.3458 294.883 76.8949C294.822 77.444 294.791 77.7491 294.791 77.8101H259.829C260.134 81.9592 261.629 85.1625 264.314 87.4201C266.999 89.6776 270.049 90.8064 273.466 90.8064C278.714 90.8064 282.741 88.3658 285.547 83.4846L294.15 87.6031C292.137 91.3251 289.33 94.3148 285.73 96.5724C282.191 98.769 278.012 99.8672 273.192 99.8672ZM284.724 70.1222C284.602 68.6578 284.113 67.1629 283.259 65.6375C282.405 64.1122 281.063 62.8308 279.232 61.7936C277.463 60.6953 275.236 60.1461 272.551 60.1461C269.561 60.1461 266.968 61.0614 264.772 62.8919C262.636 64.7223 261.172 67.1324 260.378 70.1222H284.724Z" fill="white"/>
<path d="M221.822 53.0076H231.341V59.7803H231.89C232.866 57.4617 234.636 55.5398 237.198 54.0144C239.761 52.428 242.384 51.6348 245.069 51.6348C247.266 51.6348 249.066 51.9398 250.469 52.55V63.0752C248.395 62.0379 246.076 61.5193 243.513 61.5193C240.218 61.5193 237.442 62.8006 235.185 65.3632C232.988 67.8649 231.89 70.9462 231.89 74.6071V98.4031H221.822V53.0076Z" fill="white"/>
<path d="M207.452 45.3189C205.561 45.3189 203.944 44.6782 202.602 43.3969C201.32 42.0545 200.68 40.4376 200.68 38.5462C200.68 36.6547 201.32 35.0683 202.602 33.787C203.944 32.4446 205.561 31.7734 207.452 31.7734C209.344 31.7734 210.93 32.4446 212.212 33.787C213.554 35.0683 214.225 36.6547 214.225 38.5462C214.225 40.4376 213.554 42.0545 212.212 43.3969C210.93 44.6782 209.344 45.3189 207.452 45.3189ZM202.419 53.0068H212.486V98.4023H202.419V53.0068Z" fill="white"/>
<path d="M156.562 32.8721H196.375V42.6651H166.813V61.5188H193.446V71.2203H166.813V98.4027H156.562V32.8721Z" fill="white"/>
<path d="M96.6179 66.9557V66.9173C96.6171 66.9029 96.6171 66.8885 96.6179 66.874C95.463 59.3471 92.4665 52.4136 88.4918 46.177C87.9918 45.3884 87.4719 44.6132 86.9403 43.843C86.6825 43.4696 86.4209 43.0995 86.1553 42.7328C81.044 35.6376 64.9002 16.3476 56.4192 6.28996C53.2111 2.48397 51.0996 0 51.0996 0C50.143 0.766866 49.208 1.55818 48.2948 2.37395L48.2631 2.40228C41.6491 8.5865 36.1645 15.8777 32.056 23.9479L32.0426 23.9729C31.2516 25.5289 30.5128 27.1126 29.8261 28.7241C28.2377 32.4574 26.9465 36.3104 25.9648 40.2471C25.3692 42.6266 24.8871 45.0478 24.5182 47.5107C22.4884 47.1785 20.4382 46.9858 18.382 46.9338C17.9931 46.9238 17.6043 46.9188 17.2154 46.9188C13.8555 46.9163 10.5059 47.291 7.22949 48.0358C5.2239 51.2756 3.6094 54.7417 2.41983 58.3618C0.811797 63.2612 -0.00504604 68.3857 2.34521e-05 73.5424C2.34521e-05 97.1119 16.7888 116.762 39.0571 121.171C42.1801 121.79 45.3561 122.101 48.5398 122.1C49.168 122.1 49.793 122.087 50.4163 122.065C52.0528 122.001 53.6666 121.858 55.2576 121.638C58.9651 121.124 62.6003 120.181 66.0901 118.828C67.0201 118.467 67.9356 118.078 68.8366 117.661C85.502 109.974 97.0795 93.1092 97.0795 73.5424C97.0732 71.339 96.9189 69.1385 96.6179 66.9557ZM32.8726 110.599C28.0934 108.579 23.7517 105.65 20.0885 101.975C16.4155 98.3105 13.4883 93.968 11.4692 89.1881C9.37475 84.2363 8.30117 78.9125 8.31274 73.5358C8.30099 68.1584 9.37457 62.834 11.4692 57.8817C11.8025 57.0859 12.163 56.3046 12.5508 55.5378C14.0914 55.3445 15.6427 55.2476 17.1954 55.2476C19.3797 55.2475 21.5597 55.4405 23.7099 55.8245C23.6633 56.9098 23.6399 58.0051 23.6399 59.1037C23.6106 79.543 31.667 99.1636 46.05 113.681C41.5137 113.414 37.0568 112.371 32.8726 110.599ZM50.7046 106.499C49.7291 105.462 48.7909 104.399 47.8898 103.308C43.5702 98.1073 40.0404 92.2979 37.4139 86.0673C33.8047 77.535 31.9539 68.3618 31.9727 59.097C31.9727 58.8447 31.9727 58.593 31.9727 58.3418C36.1015 60.1738 39.8555 62.7547 43.0452 65.9538C47.9902 70.8741 51.4142 77.1149 52.9078 83.9301C53.4725 86.5199 53.7563 89.1631 53.7544 91.8138C53.77 96.8667 52.7354 101.868 50.7163 106.499H50.7046ZM88.7701 74.9278C88.5155 82.4895 86.1301 89.8254 81.889 96.09C78.4423 101.178 73.883 105.413 68.5566 108.476L68.5033 108.451C67.1034 109.254 65.6565 109.971 64.1703 110.599C62.3188 111.382 60.4107 112.025 58.4624 112.521C58.1157 112.61 57.768 112.693 57.4191 112.771C57.2308 112.814 57.0441 112.856 56.8558 112.894C56.9291 112.761 57.0008 112.623 57.0708 112.486C57.1791 112.277 57.2858 112.069 57.3891 111.859C58.6614 109.314 59.686 106.652 60.4489 103.91C61.5437 99.975 62.0971 95.9087 62.0938 91.8238C62.0952 88.8521 61.8033 85.8875 61.2222 82.9732C58.1341 67.5258 47.1249 54.9426 32.6126 49.6312C33.2811 44.7179 34.4808 39.8918 36.1907 35.2375C36.574 34.1961 36.9823 33.1619 37.4156 32.135C38.0689 30.5879 38.7755 29.0709 39.5354 27.5838C39.54 27.5764 39.5439 27.5686 39.5471 27.5605C39.8587 26.912 40.1804 26.2735 40.5137 25.6367C43.1296 20.6538 46.4272 16.06 50.3113 11.9881L50.3763 12.0665C53.8194 16.1509 58.4274 21.6456 63.017 27.1821C65.3652 30.0161 67.7084 32.8618 69.8882 35.5375C73.9762 40.5572 77.4893 44.9783 79.3875 47.604C79.6591 47.9808 79.9241 48.3559 80.1841 48.736C82.9106 52.6954 85.0171 56.6981 86.4453 60.6574C87.3533 63.1539 88.0082 65.7353 88.4001 68.3627V68.3961C88.7209 70.5576 88.8459 72.7437 88.7735 74.9278H88.7701Z" fill="white"/>
<g filter="url(#filter0_d_47_2553)">
<circle cx="100" cy="90" r="30" fill="white"/>
<path fill-rule="evenodd" clip-rule="evenodd" d="M86.6667 99.4997C86.1389 99.1941 85.7292 98.7913 85.4375 98.2913C85.1458 97.7913 85 97.2358 85 96.6247V83.3747C85 82.7636 85.1458 82.208 85.4375 81.708C85.7292 81.208 86.1389 80.8052 86.6667 80.4997L98.3333 73.7913C98.8611 73.4858 99.4167 73.333 100 73.333C100.583 73.333 101.139 73.4858 101.667 73.7913L113.333 80.4997C113.861 80.8052 114.271 81.208 114.563 81.708C114.854 82.208 115 82.7636 115 83.3747V96.6247C115 97.2358 114.854 97.7913 114.563 98.2913C114.271 98.7913 113.861 99.1941 113.333 99.4997L101.667 106.208C101.139 106.514 100.583 106.666 100 106.666C99.4167 106.666 98.8611 106.514 98.3333 106.208L86.6667 99.4997ZM88 96.6653V83.2919L100 76.4997L112 83.2497V96.6653L100 103.5L88 96.6653ZM97.3818 92.6179C99.1273 94.3633 100 96.4906 100 98.9997C100 96.4906 100.873 94.3633 102.618 92.6179C104.364 90.8724 106.491 89.9997 109 89.9997C106.491 89.9997 104.364 89.1269 102.618 87.3815C100.873 85.636 100 83.5088 100 80.9997C100 83.5088 99.1273 85.636 97.3818 87.3815C95.6364 89.1269 93.5091 89.9997 91 89.9997C93.5091 89.9997 95.6364 90.8724 97.3818 92.6179Z" fill="#1F1F1F"/>
</g>
<defs>
<filter id="filter0_d_47_2553" x="68" y="58.6704" width="64" height="64" filterUnits="userSpaceOnUse" color-interpolation-filters="sRGB">
<feFlood flood-opacity="0" result="BackgroundImageFix"/>
<feColorMatrix in="SourceAlpha" type="matrix" values="0 0 0 0 0 0 0 0 0 0 0 0 0 0 0 0 0 0 127 0" result="hardAlpha"/>
<feOffset dy="0.670408"/>
<feGaussianBlur stdDeviation="1"/>
<feComposite in2="hardAlpha" operator="out"/>
<feColorMatrix type="matrix" values="0 0 0 0 0 0 0 0 0 0 0 0 0 0 0 0 0 0 0.3 0"/>
<feBlend mode="normal" in2="BackgroundImageFix" result="effect1_dropShadow_47_2553"/>
<feBlend mode="normal" in="SourceGraphic" in2="effect1_dropShadow_47_2553" result="shape"/>
</filter>
</defs>
</svg>
