<svg width="1174" height="128" viewBox="0 0 1174 128" fill="none" xmlns="http://www.w3.org/2000/svg">
<path d="M537.418 100.872C531.228 100.872 525.528 99.371 520.319 96.368C515.11 93.365 510.973 89.2283 507.909 83.9577C504.845 78.6872 503.313 72.8651 503.313 66.4915C503.313 60.1178 504.845 54.2957 507.909 49.0252C510.973 43.7546 515.11 39.6179 520.319 36.6149C525.528 33.6119 531.228 32.1105 537.418 32.1105C542.259 32.1105 546.794 32.9684 551.023 34.6844C555.313 36.4004 558.837 38.8212 561.595 41.9467L555.987 47.5543C553.903 44.9804 551.238 43.0192 547.989 41.6709C544.741 40.2614 541.248 39.5566 537.51 39.5566C532.852 39.5566 528.501 40.6904 524.456 42.9579C520.472 45.1642 517.255 48.3204 514.804 52.4265C512.413 56.4713 511.218 61.1596 511.218 66.4915C511.218 71.8233 512.413 76.5422 514.804 80.6483C517.255 84.6932 520.503 87.8493 524.548 90.1169C528.593 92.3232 532.913 93.4263 537.51 93.4263C541.922 93.4263 545.599 92.7522 548.541 91.4039C551.544 89.9943 554.118 88.1558 556.263 85.8882C557.856 84.1722 559.143 82.1192 560.124 79.7291C561.104 77.2777 561.717 74.5811 561.962 71.6394H537.602V64.3771H569.225C569.531 66.0931 569.684 67.6865 569.684 69.1574C569.684 73.2022 569.041 77.1551 567.754 81.0161C566.467 84.8157 564.414 88.1558 561.595 91.0362C555.528 97.5937 547.469 100.872 537.418 100.872ZM599.064 100.872C594.468 100.872 590.331 99.7693 586.654 97.5631C582.977 95.3568 580.096 92.3538 578.012 88.5541C575.99 84.7544 574.979 80.5564 574.979 75.96C574.979 71.3636 575.99 67.1656 578.012 63.3659C580.096 59.5662 582.977 56.5633 586.654 54.357C590.331 52.1507 594.468 51.0476 599.064 51.0476C603.66 51.0476 607.797 52.1507 611.474 54.357C615.151 56.5633 618.001 59.5662 620.023 63.3659C622.107 67.1656 623.149 71.3636 623.149 75.96C623.149 80.5564 622.107 84.7544 620.023 88.5541C618.001 92.3538 615.151 95.3568 611.474 97.5631C607.797 99.7693 603.66 100.872 599.064 100.872ZM599.064 93.794C601.944 93.794 604.61 93.0892 607.062 91.6797C609.574 90.2088 611.566 88.1251 613.037 85.4286C614.569 82.732 615.335 79.5758 615.335 75.96C615.335 72.3442 614.569 69.188 613.037 66.4915C611.566 63.7949 609.574 61.7419 607.062 60.3323C604.61 58.8614 601.944 58.126 599.064 58.126C596.184 58.126 593.487 58.8614 590.974 60.3323C588.462 61.7419 586.439 63.7949 584.907 66.4915C583.436 69.188 582.701 72.3442 582.701 75.96C582.701 79.5758 583.436 82.732 584.907 85.4286C586.439 88.1251 588.462 90.2088 590.974 91.6797C593.487 93.0892 596.184 93.794 599.064 93.794ZM651.987 100.872C647.391 100.872 643.254 99.7693 639.577 97.5631C635.9 95.3568 633.019 92.3538 630.936 88.5541C628.913 84.7544 627.902 80.5564 627.902 75.96C627.902 71.3636 628.913 67.1656 630.936 63.3659C633.019 59.5662 635.9 56.5633 639.577 54.357C643.254 52.1507 647.391 51.0476 651.987 51.0476C656.583 51.0476 660.72 52.1507 664.397 54.357C668.074 56.5633 670.924 59.5662 672.947 63.3659C675.03 67.1656 676.072 71.3636 676.072 75.96C676.072 80.5564 675.03 84.7544 672.947 88.5541C670.924 92.3538 668.074 95.3568 664.397 97.5631C660.72 99.7693 656.583 100.872 651.987 100.872ZM651.987 93.794C654.867 93.794 657.533 93.0892 659.985 91.6797C662.497 90.2088 664.489 88.1251 665.96 85.4286C667.492 82.732 668.258 79.5758 668.258 75.96C668.258 72.3442 667.492 69.188 665.96 66.4915C664.489 63.7949 662.497 61.7419 659.985 60.3323C657.533 58.8614 654.867 58.126 651.987 58.126C649.107 58.126 646.41 58.8614 643.897 60.3323C641.385 61.7419 639.362 63.7949 637.83 66.4915C636.359 69.188 635.624 72.3442 635.624 75.96C635.624 79.5758 636.359 82.732 637.83 85.4286C639.362 88.1251 641.385 90.2088 643.897 91.6797C646.41 93.0892 649.107 93.794 651.987 93.794ZM703.899 120.729C698.383 120.729 693.818 119.442 690.202 116.868C686.647 114.294 684.257 111.199 683.031 107.583L690.11 104.55C691.152 107.246 692.868 109.422 695.258 111.076C697.709 112.792 700.59 113.65 703.899 113.65C708.741 113.65 712.479 112.241 715.114 109.422C717.811 106.603 719.159 102.619 719.159 97.4711V92.2312H718.791C717.259 94.6214 715.084 96.5825 712.264 98.1146C709.507 99.5855 706.35 100.321 702.796 100.321C698.751 100.321 695.043 99.279 691.673 97.1953C688.363 95.1116 685.728 92.2006 683.767 88.4622C681.806 84.7238 680.825 80.4645 680.825 75.6842C680.825 70.9653 681.806 66.7366 683.767 62.9982C685.728 59.1985 688.363 56.2568 691.673 54.1731C695.043 52.0894 698.751 51.0476 702.796 51.0476C706.35 51.0476 709.507 51.8136 712.264 53.3458C715.084 54.8166 717.259 56.7778 718.791 59.2292H719.159V52.5184H726.605V97.5631C726.605 105.101 724.521 110.831 720.354 114.754C716.187 118.737 710.702 120.729 703.899 120.729ZM703.899 93.2424C706.718 93.2424 709.261 92.5377 711.529 91.1281C713.858 89.7185 715.696 87.6961 717.045 85.0609C718.454 82.4256 719.159 79.3001 719.159 75.6842C719.159 72.0071 718.454 68.8509 717.045 66.2157C715.696 63.5804 713.858 61.5886 711.529 60.2404C709.261 58.8308 706.718 58.126 703.899 58.126C701.08 58.126 698.506 58.8308 696.177 60.2404C693.848 61.6499 691.979 63.6723 690.569 66.3076C689.221 68.9429 688.547 72.0684 688.547 75.6842C688.547 79.3001 689.221 82.4563 690.569 85.1528C691.979 87.7881 693.848 89.8105 696.177 91.22C698.506 92.5683 701.08 93.2424 703.899 93.2424ZM736.32 33.5813H744.134V99.4016H736.32V33.5813ZM774.291 100.872C769.817 100.872 765.803 99.8 762.249 97.655C758.694 95.51 755.906 92.5683 753.883 88.8299C751.922 85.0302 750.942 80.7709 750.942 76.0519C750.942 71.5168 751.861 67.3494 753.699 63.5498C755.599 59.7501 758.265 56.7165 761.697 54.4489C765.129 52.1814 769.113 51.0476 773.648 51.0476C778.244 51.0476 782.228 52.0894 785.598 54.1731C788.969 56.1955 791.543 59.0147 793.32 62.6305C795.159 66.2463 796.078 70.3831 796.078 75.0407C796.078 75.96 795.986 76.7567 795.802 77.4309H758.755C758.939 80.9854 759.797 83.9884 761.329 86.4398C762.862 88.8912 764.792 90.7298 767.121 91.9555C769.511 93.1812 771.993 93.794 774.567 93.794C780.573 93.794 785.2 90.9749 788.448 85.3367L795.067 88.5541C793.045 92.3538 790.287 95.3568 786.793 97.5631C783.361 99.7693 779.194 100.872 774.291 100.872ZM787.805 70.9959C787.682 69.0348 787.131 67.0737 786.15 65.1125C785.169 63.1514 783.607 61.4967 781.462 60.1484C779.378 58.8002 776.743 58.126 773.556 58.126C769.879 58.126 766.753 59.3211 764.179 61.7112C761.667 64.04 760.012 67.135 759.215 70.9959H787.805ZM840.629 33.5813H849.454L874.458 99.4016H865.909L859.29 81.2918H830.884L824.266 99.4016H815.716L840.629 33.5813ZM856.624 73.9376L847.891 50.2202L845.225 43.1418H844.857L842.283 50.2202L833.55 73.9376H856.624ZM879.785 52.5184H887.231V59.413H887.599C888.886 57.0842 890.939 55.1231 893.758 53.5296C896.577 51.8749 899.58 51.0476 902.767 51.0476C908.405 51.0476 912.695 52.7023 915.637 56.0117C918.64 59.2598 920.141 63.703 920.141 69.3412V99.4016H912.327V70.5363C912.327 66.185 911.285 63.0288 909.202 61.0677C907.118 59.1066 904.268 58.126 900.653 58.126C898.14 58.126 895.872 58.8308 893.85 60.2404C891.889 61.6499 890.357 63.5191 889.253 65.848C888.15 68.1155 887.599 70.5056 887.599 73.0183V99.4016H879.785V52.5184ZM944.012 100.872C940.58 100.872 937.515 100.198 934.819 98.85C932.122 97.5018 930.039 95.6632 928.568 93.3344C927.097 90.9443 926.361 88.2477 926.361 85.2447C926.361 80.2806 928.231 76.4197 931.969 73.6618C935.707 70.8427 940.426 69.4331 946.126 69.4331C948.945 69.4331 951.55 69.7396 953.94 70.3524C956.391 70.9653 958.26 71.6701 959.547 72.4668V69.617C959.547 66.1237 958.322 63.3353 955.87 61.2516C953.419 59.1066 950.324 58.0341 946.586 58.0341C943.95 58.0341 941.53 58.6163 939.323 59.7807C937.117 60.8839 935.37 62.4466 934.083 64.469L928.2 60.0565C930.039 57.2374 932.551 55.0311 935.738 53.4377C938.986 51.8443 942.571 51.0476 946.494 51.0476C952.867 51.0476 957.862 52.7329 961.478 56.1036C965.155 59.413 966.994 63.9481 966.994 69.7089V99.4016H959.547V92.6909H959.18C957.831 94.9584 955.809 96.8889 953.112 98.4823C950.416 100.076 947.382 100.872 944.012 100.872ZM944.747 93.9779C947.382 93.9779 949.834 93.3037 952.101 91.9555C954.369 90.6072 956.177 88.7993 957.525 86.5317C958.873 84.2642 959.547 81.7821 959.547 79.0856C958.077 78.105 956.269 77.3083 954.124 76.6954C951.979 76.0826 949.711 75.7762 947.321 75.7762C943.031 75.7762 939.783 76.6648 937.577 78.4421C935.432 80.2193 934.359 82.5175 934.359 85.3367C934.359 87.9106 935.34 89.9943 937.301 91.5877C939.262 93.1812 941.744 93.9779 944.747 93.9779ZM976.025 33.5813H983.839V99.4016H976.025V33.5813ZM1007.92 96.4599L988.522 52.5184H996.979L1011.69 87.3591H1011.87L1026.03 52.5184H1034.49L1005.53 119.258H997.439L1007.92 96.4599ZM1057.16 100.137C1055.26 100.137 1053.48 99.8306 1051.83 99.2178C1050.23 98.6049 1048.88 97.7776 1047.78 96.7357C1046.56 95.5713 1045.64 94.223 1045.02 92.6909C1044.41 91.1588 1044.1 89.2896 1044.1 87.0833V59.5969H1035.92V52.5184H1044.1V39.2808H1051.92V52.5184H1063.32V59.5969H1051.92V85.1528C1051.92 87.7268 1052.41 89.6266 1053.39 90.8523C1054.55 92.2006 1056.24 92.8747 1058.44 92.8747C1060.22 92.8747 1061.94 92.3538 1063.59 91.312V98.942C1062.67 99.371 1061.72 99.6774 1060.74 99.8613C1059.82 100.045 1058.63 100.137 1057.16 100.137ZM1076.01 43.8772C1074.48 43.8772 1073.16 43.3256 1072.06 42.2225C1070.96 41.1194 1070.4 39.8017 1070.4 38.2696C1070.4 36.7375 1070.96 35.4505 1072.06 34.4087C1073.16 33.3055 1074.48 32.754 1076.01 32.754C1077.54 32.754 1078.86 33.3055 1079.96 34.4087C1081.07 35.4505 1081.62 36.7375 1081.62 38.2696C1081.62 39.8017 1081.07 41.1194 1079.96 42.2225C1078.92 43.3256 1077.6 43.8772 1076.01 43.8772ZM1072.15 52.5184H1079.87V99.4016H1072.15V52.5184ZM1111.1 100.872C1106.57 100.872 1102.49 99.8 1098.87 97.655C1095.26 95.4487 1092.44 92.4764 1090.42 88.738C1088.39 84.9383 1087.38 80.679 1087.38 75.96C1087.38 71.2411 1088.39 66.9817 1090.42 63.1821C1092.44 59.3824 1095.26 56.41 1098.87 54.2651C1102.49 52.1201 1106.57 51.0476 1111.1 51.0476C1116.19 51.0476 1120.45 52.2426 1123.88 54.6328C1127.37 56.9616 1129.85 60.0872 1131.32 64.0094L1124.25 66.9511C1123.08 64.0707 1121.34 61.8951 1119.01 60.4242C1116.74 58.8921 1113.98 58.126 1110.73 58.126C1107.97 58.126 1105.4 58.8921 1103.01 60.4242C1100.62 61.8951 1098.69 63.9788 1097.22 66.6753C1095.81 69.3719 1095.1 72.4668 1095.1 75.96C1095.1 79.4533 1095.81 82.5482 1097.22 85.2447C1098.69 87.9413 1100.62 90.0556 1103.01 91.5877C1105.4 93.0586 1107.97 93.794 1110.73 93.794C1114.04 93.794 1116.89 93.0279 1119.28 91.4958C1121.67 89.9637 1123.45 87.7881 1124.61 84.9689L1131.6 87.9106C1130.01 91.7716 1127.43 94.8971 1123.88 97.2873C1120.39 99.6774 1116.13 100.872 1111.1 100.872ZM1154.57 100.872C1149.55 100.872 1145.35 99.708 1141.98 97.3792C1138.61 94.9891 1136.22 91.9555 1134.81 88.2783L1141.79 85.1528C1142.96 87.9719 1144.68 90.1475 1146.94 91.6797C1149.27 93.2118 1151.82 93.9779 1154.57 93.9779C1157.51 93.9779 1160.03 93.3957 1162.11 92.2312C1164.19 91.0055 1165.24 89.2896 1165.24 87.0833C1165.24 85.1222 1164.41 83.5594 1162.75 82.395C1161.1 81.1693 1158.5 80.1274 1154.94 79.2694L1149.24 77.7986C1145.5 76.8793 1142.44 75.3165 1140.05 73.1103C1137.66 70.904 1136.46 68.0542 1136.46 64.561C1136.46 61.8644 1137.26 59.5049 1138.85 57.4825C1140.51 55.3988 1142.68 53.8054 1145.38 52.7023C1148.08 51.5992 1150.99 51.0476 1154.11 51.0476C1158.22 51.0476 1161.87 51.9362 1165.05 53.7135C1168.3 55.4908 1170.6 57.9728 1171.95 61.1596L1165.14 64.2852C1163.06 60.1178 1159.35 58.0341 1154.02 58.0341C1151.45 58.0341 1149.18 58.647 1147.22 59.8727C1145.32 61.0371 1144.37 62.5386 1144.37 64.3771C1144.37 66.0931 1145.04 67.5027 1146.39 68.6058C1147.74 69.6476 1149.76 70.5056 1152.46 71.1798L1159.26 72.9264C1163.86 74.0908 1167.32 75.8374 1169.65 78.1663C1171.98 80.4338 1173.14 83.2223 1173.14 86.5317C1173.14 89.4121 1172.31 91.9555 1170.66 94.1617C1169.01 96.3067 1166.77 97.9614 1163.95 99.1258C1161.13 100.29 1158 100.872 1154.57 100.872Z" fill="#5A5A5A"/>
<path d="M461.612 99.8665C457.157 99.8665 453.13 98.8292 449.531 96.7547C445.992 94.6802 443.215 91.8125 441.202 88.1515C439.188 84.4296 438.182 80.2805 438.182 75.7044C438.182 71.3113 439.127 67.2842 441.019 63.6233C442.971 59.9014 445.687 56.9726 449.164 54.8371C452.642 52.6405 456.608 51.5422 461.062 51.5422C465.639 51.5422 469.605 52.549 472.96 54.5625C476.377 56.576 478.97 59.3827 480.74 62.9826C482.509 66.5215 483.394 70.6096 483.394 75.2467C483.394 75.7959 483.364 76.345 483.303 76.8942C483.242 77.4433 483.211 77.7484 483.211 77.8094H448.249C448.554 81.9585 450.049 85.1618 452.734 87.4193C455.419 89.6769 458.469 90.8057 461.886 90.8057C467.133 90.8057 471.161 88.3651 473.967 83.4838L482.57 87.6024C480.557 91.3243 477.75 94.3141 474.15 96.5717C470.611 98.7682 466.432 99.8665 461.612 99.8665ZM473.144 70.1215C473.021 68.6571 472.533 67.1622 471.679 65.6368C470.825 64.1114 469.483 62.8301 467.652 61.7928C465.883 60.6946 463.656 60.1454 460.971 60.1454C457.981 60.1454 455.388 61.0607 453.191 62.8911C451.056 64.7216 449.592 67.1317 448.798 70.1215H473.144Z" fill="#5A5A5A"/>
<path d="M416.087 99.8665C410.9 99.8665 406.599 98.6767 403.182 96.2971C399.826 93.8565 397.446 90.8057 396.043 87.1448L405.012 83.3008C406.05 85.8024 407.544 87.6939 409.497 88.9752C411.51 90.2566 413.707 90.8972 416.087 90.8972C418.588 90.8972 420.632 90.4396 422.219 89.5244C423.805 88.5481 424.598 87.2973 424.598 85.7719C424.598 84.3076 423.958 83.1177 422.676 82.2025C421.395 81.2263 419.29 80.3721 416.361 79.6399L410.138 78.1755C406.721 77.3823 403.761 75.9179 401.26 73.7824C398.819 71.5858 397.599 68.7486 397.599 65.2707C397.599 61.0607 399.338 57.7353 402.816 55.2947C406.294 52.7931 410.565 51.5422 415.629 51.5422C419.839 51.5422 423.561 52.427 426.795 54.1964C430.09 55.9659 432.469 58.5285 433.934 61.8844L425.056 65.6368C424.202 63.7453 422.89 62.342 421.12 61.4267C419.351 60.5115 417.429 60.0539 415.354 60.0539C413.341 60.0539 411.571 60.5115 410.046 61.4267C408.521 62.281 407.758 63.4403 407.758 64.9046C407.758 66.186 408.277 67.2232 409.314 68.0164C410.412 68.8096 412.121 69.4808 414.439 70.0299L421.212 71.6773C425.788 72.8366 429.205 74.6061 431.462 76.9857C433.72 79.3043 434.849 82.111 434.849 85.4058C434.849 88.0905 434.025 90.5311 432.378 92.7277C430.791 94.9242 428.564 96.6632 425.696 97.9445C422.89 99.2258 419.686 99.8665 416.087 99.8665Z" fill="#5A5A5A"/>
<path d="M367.921 99.8665C364.688 99.8665 361.759 99.2258 359.135 97.9445C356.573 96.6022 354.529 94.7717 353.003 92.4531C351.539 90.0735 350.807 87.3888 350.807 84.3991C350.807 79.6399 352.576 75.8874 356.115 73.1417C359.715 70.396 364.261 69.0232 369.752 69.0232C374.572 69.0232 378.691 69.8469 382.108 71.4943V69.5723C382.108 66.8266 381.009 64.569 378.813 62.7996C376.677 60.9691 374.084 60.0539 371.033 60.0539C366.396 60.0539 362.674 61.9454 359.867 65.7283L352.18 60.42C354.315 57.5523 356.969 55.3557 360.142 53.8303C363.376 52.3049 367.006 51.5422 371.033 51.5422C377.684 51.5422 382.809 53.2202 386.409 56.576C390.07 59.8708 391.901 64.5385 391.901 70.5791V98.4021H382.108V92.8192H381.558C380.094 94.8937 378.233 96.6022 375.976 97.9445C373.718 99.2258 371.033 99.8665 367.921 99.8665ZM369.569 91.5379C371.826 91.5379 373.901 90.9887 375.792 89.8905C377.745 88.7312 379.27 87.2363 380.369 85.4058C381.528 83.5143 382.108 81.5008 382.108 79.3653C378.874 77.5958 375.426 76.7111 371.765 76.7111C368.41 76.7111 365.786 77.4433 363.894 78.9077C362.003 80.372 361.057 82.233 361.057 84.4906C361.057 86.5651 361.881 88.2736 363.528 89.6159C365.237 90.8972 367.25 91.5379 369.569 91.5379Z" fill="#5A5A5A"/>
<path d="M325.684 99.8661C322.389 99.8661 319.43 99.1644 316.806 97.7611C314.244 96.3577 312.322 94.5882 311.04 92.4527H310.491V98.4017H300.973V32.8711H311.04V52.5486L310.491 58.8637H311.04C312.322 56.7892 314.244 55.0502 316.806 53.6469C319.43 52.2435 322.389 51.5418 325.684 51.5418C329.589 51.5418 333.189 52.5791 336.484 54.6536C339.84 56.7281 342.494 59.6264 344.446 63.3483C346.46 67.0093 347.466 71.1278 347.466 75.704C347.466 80.2801 346.46 84.3987 344.446 88.0596C342.494 91.7205 339.84 94.6188 336.484 96.7543C333.189 98.8288 329.589 99.8661 325.684 99.8661ZM323.945 90.6222C326.325 90.6222 328.521 90.0121 330.535 88.7918C332.609 87.5715 334.257 85.8325 335.477 83.575C336.758 81.2564 337.399 78.6327 337.399 75.704C337.399 72.7752 336.758 70.1821 335.477 67.9245C334.257 65.6059 332.609 63.8364 330.535 62.6161C328.521 61.3958 326.325 60.7857 323.945 60.7857C321.565 60.7857 319.338 61.3958 317.264 62.6161C315.25 63.8364 313.603 65.5754 312.322 67.833C311.101 70.0905 310.491 72.7142 310.491 75.704C310.491 78.6937 311.101 81.3174 312.322 83.575C313.603 85.8325 315.25 87.5715 317.264 88.7918C319.338 90.0121 321.565 90.6222 323.945 90.6222Z" fill="#5A5A5A"/>
<path d="M273.192 99.8666C268.738 99.8666 264.711 98.8294 261.111 96.7548C257.572 94.6803 254.795 91.8126 252.782 88.1516C250.768 84.4297 249.762 80.2807 249.762 75.7045C249.762 71.3114 250.707 67.2844 252.599 63.6234C254.551 59.9015 257.267 56.9727 260.745 54.8372C264.222 52.6406 268.188 51.5424 272.643 51.5424C277.219 51.5424 281.185 52.5491 284.541 54.5626C287.957 56.5761 290.551 59.3828 292.32 62.9828C294.089 66.5217 294.974 70.6097 294.974 75.2469C294.974 75.796 294.944 76.3452 294.883 76.8943C294.822 77.4434 294.791 77.7485 294.791 77.8095H259.829C260.134 81.9586 261.629 85.1619 264.314 87.4195C266.999 89.677 270.049 90.8058 273.466 90.8058C278.714 90.8058 282.741 88.3652 285.547 83.484L294.15 87.6025C292.137 91.3245 289.33 94.3142 285.73 96.5718C282.191 98.7683 278.012 99.8666 273.192 99.8666ZM284.724 70.1216C284.602 68.6572 284.113 67.1623 283.259 65.6369C282.405 64.1115 281.063 62.8302 279.232 61.793C277.463 60.6947 275.236 60.1455 272.551 60.1455C269.561 60.1455 266.968 61.0608 264.772 62.8912C262.636 64.7217 261.172 67.1318 260.378 70.1216H284.724Z" fill="#5A5A5A"/>
<path d="M221.822 53.0066H231.341V59.7794H231.89C232.866 57.4608 234.636 55.5388 237.198 54.0134C239.761 52.427 242.384 51.6338 245.069 51.6338C247.266 51.6338 249.066 51.9389 250.469 52.549V63.0742C248.395 62.0369 246.076 61.5183 243.513 61.5183C240.218 61.5183 237.442 62.7996 235.185 65.3623C232.988 67.8639 231.89 70.9452 231.89 74.6061V98.4021H221.822V53.0066Z" fill="#5A5A5A"/>
<path d="M207.452 45.3184C205.561 45.3184 203.944 44.6777 202.602 43.3964C201.32 42.0541 200.68 40.4371 200.68 38.5457C200.68 36.6542 201.32 35.0678 202.602 33.7865C203.944 32.4441 205.561 31.7729 207.452 31.7729C209.344 31.7729 210.93 32.4441 212.212 33.7865C213.554 35.0678 214.225 36.6542 214.225 38.5457C214.225 40.4371 213.554 42.0541 212.212 43.3964C210.93 44.6777 209.344 45.3184 207.452 45.3184ZM202.419 53.0063H212.486V98.4018H202.419V53.0063Z" fill="#5A5A5A"/>
<path d="M156.562 32.8712H196.375V42.6642H166.813V61.518H193.446V71.2194H166.813V98.4018H156.562V32.8712Z" fill="#5A5A5A"/>
<path d="M31.6562 118.567C36.7084 120.601 42.1896 121.807 47.9447 122.008C55.7335 122.28 63.1403 120.67 69.7616 117.611C61.8214 114.492 54.6303 109.929 48.4929 104.257C44.5147 110.627 38.6305 115.658 31.6562 118.567Z" fill="#FF9100"/>
<path d="M48.4923 104.259C34.4827 91.302 25.9838 72.5484 26.7021 51.979C26.7254 51.311 26.7607 50.6435 26.8019 49.9762C24.2928 49.3273 21.6734 48.9313 18.9777 48.8371C15.1191 48.7024 11.3823 49.181 7.85452 50.1744C4.11472 56.7255 1.85787 64.242 1.57672 72.2932C0.851127 93.0713 13.4253 111.227 31.6556 118.569C38.63 115.66 44.5139 110.635 48.4923 104.259Z" fill="#FFC400"/>
<path d="M48.4937 104.258C51.7509 99.0459 53.7258 92.9348 53.9557 86.3506C54.5605 69.0316 42.9175 54.133 26.8033 49.9757C26.762 50.643 26.7268 51.3105 26.7035 51.9785C25.9852 72.5479 34.484 91.3015 48.4937 104.258Z" fill="#FF9100"/>
<path d="M52.1543 1.29291C42.9766 8.64534 35.7294 18.3402 31.3447 29.5084C28.8344 35.9054 27.2569 42.7768 26.7964 49.9798C42.9106 54.1372 54.5536 69.0358 53.9488 86.3548C53.7189 92.939 51.7382 99.044 48.4868 104.263C54.6239 109.941 61.8153 114.497 69.7555 117.616C85.693 110.249 97.0006 94.3967 97.6554 75.6462C98.0796 63.4978 93.4121 52.6704 86.8167 43.5311C79.8515 33.8654 52.1543 1.29291 52.1543 1.29291Z" fill="#DD2C00"/>
<g filter="url(#filter0_d_47_1006)">
<circle cx="100" cy="90" r="30" fill="white"/>
<path fill-rule="evenodd" clip-rule="evenodd" d="M90.25 105C89.2554 105 88.3016 104.605 87.5983 103.902C86.8951 103.198 86.5 102.245 86.5 101.25C86.5 100.255 86.8951 99.3016 87.5983 98.5984C88.3016 97.8951 89.2554 97.5 90.25 97.5C91.2446 97.5 92.1984 97.8951 92.9017 98.5984C93.6049 99.3016 94 100.255 94 101.25C94 102.245 93.6049 103.198 92.9017 103.902C92.1984 104.605 91.2446 105 90.25 105ZM100 87C100.995 87 101.948 87.3951 102.652 88.0983C103.355 88.8016 103.75 89.7554 103.75 90.75V101.25C103.75 102.245 103.355 103.198 102.652 103.902C101.948 104.605 100.995 105 100 105C99.0054 105 98.0516 104.605 97.3483 103.902C96.6451 103.198 96.25 102.245 96.25 101.25V90.75C96.25 89.7554 96.6451 88.8016 97.3483 88.0983C98.0516 87.3951 99.0054 87 100 87ZM109.75 75C110.745 75 111.698 75.3951 112.402 76.0983C113.105 76.8016 113.5 77.7554 113.5 78.75V101.25C113.5 102.245 113.105 103.198 112.402 103.902C111.698 104.605 110.745 105 109.75 105C108.755 105 107.802 104.605 107.098 103.902C106.395 103.198 106 102.245 106 101.25V78.75C106 77.7554 106.395 76.8016 107.098 76.0983C107.802 75.3951 108.755 75 109.75 75Z" fill="#1F1F1F"/>
</g>
<defs>
<filter id="filter0_d_47_1006" x="68" y="58.6704" width="64" height="64" filterUnits="userSpaceOnUse" color-interpolation-filters="sRGB">
<feFlood flood-opacity="0" result="BackgroundImageFix"/>
<feColorMatrix in="SourceAlpha" type="matrix" values="0 0 0 0 0 0 0 0 0 0 0 0 0 0 0 0 0 0 127 0" result="hardAlpha"/>
<feOffset dy="0.670408"/>
<feGaussianBlur stdDeviation="1"/>
<feComposite in2="hardAlpha" operator="out"/>
<feColorMatrix type="matrix" values="0 0 0 0 0 0 0 0 0 0 0 0 0 0 0 0 0 0 0.3 0"/>
<feBlend mode="normal" in2="BackgroundImageFix" result="effect1_dropShadow_47_1006"/>
<feBlend mode="normal" in="SourceGraphic" in2="effect1_dropShadow_47_1006" result="shape"/>
</filter>
</defs>
</svg>
