<svg width="1243" height="128" viewBox="0 0 1243 128" fill="none" xmlns="http://www.w3.org/2000/svg">
<path d="M506.53 33.5811H528.777C532.392 33.5811 535.763 34.4084 538.889 36.0631C542.014 37.7178 544.496 40.0466 546.335 43.0496C548.235 45.9913 549.185 49.3314 549.185 53.0698C549.185 56.134 548.48 58.9838 547.07 61.619C545.722 64.2543 543.822 66.4606 541.371 68.2378C538.981 70.0151 536.315 71.2102 533.373 71.823L533.189 72.0988L551.758 99.0337V99.4014H542.566L524.64 72.5584H514.252V99.4014H506.53V33.5811ZM528.317 65.2962C530.584 65.2962 532.699 64.7752 534.66 63.7334C536.682 62.6915 538.276 61.2513 539.44 59.4128C540.666 57.5129 541.279 55.3986 541.279 53.0698C541.279 51.0473 540.758 49.1169 539.716 47.2783C538.674 45.4397 537.203 43.9383 535.303 42.7738C533.465 41.6094 531.32 41.0272 528.868 41.0272H514.252V65.2962H528.317ZM576.963 100.872C572.489 100.872 568.475 99.7997 564.92 97.6547C561.365 95.5098 558.577 92.5681 556.555 88.8297C554.593 85.03 553.613 80.7707 553.613 76.0517C553.613 71.5166 554.532 67.3492 556.371 63.5495C558.271 59.7498 560.936 56.7162 564.368 54.4487C567.8 52.1811 571.784 51.0473 576.319 51.0473C580.915 51.0473 584.899 52.0892 588.27 54.1729C591.64 56.1953 594.214 59.0144 595.992 62.6302C597.83 66.2461 598.749 70.3828 598.749 75.0405C598.749 75.9598 598.657 76.7565 598.474 77.4306H561.427C561.611 80.9852 562.469 83.9881 564.001 86.4395C565.533 88.891 567.463 90.7295 569.792 91.9552C572.182 93.1809 574.664 93.7938 577.238 93.7938C583.244 93.7938 587.871 90.9747 591.119 85.3364L597.738 88.5539C595.716 92.3536 592.958 95.3565 589.465 97.5628C586.033 99.7691 581.865 100.872 576.963 100.872ZM590.476 70.9957C590.353 69.0345 589.802 67.0734 588.821 65.1123C587.841 63.1512 586.278 61.4965 584.133 60.1482C582.049 58.7999 579.414 58.1258 576.227 58.1258C572.55 58.1258 569.424 59.3208 566.85 61.711C564.338 64.0398 562.683 67.1347 561.886 70.9957H590.476ZM621.489 100.872C618.057 100.872 614.992 100.198 612.296 98.8498C609.599 97.5015 607.516 95.663 606.045 93.3341C604.574 90.944 603.838 88.2475 603.838 85.2445C603.838 80.2804 605.708 76.4194 609.446 73.6616C613.184 70.8425 617.903 69.4329 623.603 69.4329C626.422 69.4329 629.027 69.7393 631.417 70.3522C633.868 70.965 635.737 71.6698 637.024 72.4665V69.6168C637.024 66.1235 635.799 63.335 633.347 61.2513C630.896 59.1063 627.801 58.0339 624.063 58.0339C621.427 58.0339 619.007 58.6161 616.8 59.7805C614.594 60.8836 612.847 62.4464 611.56 64.4688L605.677 60.0563C607.516 57.2371 610.028 55.0309 613.215 53.4375C616.463 51.844 620.048 51.0473 623.971 51.0473C630.344 51.0473 635.339 52.7327 638.955 56.1034C642.632 59.4128 644.471 63.9479 644.471 69.7087V99.4014H637.024V92.6906H636.657C635.308 94.9582 633.286 96.8887 630.589 98.4821C627.893 100.076 624.859 100.872 621.489 100.872ZM622.224 93.9776C624.859 93.9776 627.311 93.3035 629.578 91.9552C631.846 90.6069 633.654 88.799 635.002 86.5315C636.35 84.2639 637.024 81.7819 637.024 79.0853C635.554 78.1048 633.746 77.3081 631.601 76.6952C629.456 76.0823 627.188 75.7759 624.798 75.7759C620.508 75.7759 617.26 76.6646 615.054 78.4418C612.909 80.2191 611.836 82.5173 611.836 85.3364C611.836 87.9104 612.817 89.9941 614.778 91.5875C616.739 93.1809 619.221 93.9776 622.224 93.9776ZM653.502 33.5811H661.316V99.4014H653.502V33.5811ZM689.522 100.137C687.622 100.137 685.845 99.8304 684.19 99.2175C682.596 98.6047 681.248 97.7773 680.145 96.7355C678.919 95.571 678 94.2228 677.387 92.6906C676.774 91.1585 676.468 89.2893 676.468 87.083V59.5966H668.286V52.5182H676.468V39.2806H684.282V52.5182H695.681V59.5966H684.282V85.1526C684.282 87.7265 684.772 89.6264 685.753 90.8521C686.917 92.2004 688.602 92.8745 690.809 92.8745C692.586 92.8745 694.302 92.3536 695.957 91.3117V98.9417C695.037 99.3707 694.087 99.6772 693.107 99.861C692.188 100.045 690.992 100.137 689.522 100.137ZM708.375 43.877C706.843 43.877 705.526 43.3254 704.423 42.2223C703.319 41.1191 702.768 39.8015 702.768 38.2694C702.768 36.7372 703.319 35.4503 704.423 34.4084C705.526 33.3053 706.843 32.7537 708.375 32.7537C709.908 32.7537 711.225 33.3053 712.328 34.4084C713.431 35.4503 713.983 36.7372 713.983 38.2694C713.983 39.8015 713.431 41.1191 712.328 42.2223C711.286 43.3254 709.969 43.877 708.375 43.877ZM704.514 52.5182H712.236V99.4014H704.514V52.5182ZM722.678 52.5182H730.124V59.4128H730.492C731.84 57.0226 733.863 55.0309 736.559 53.4375C739.256 51.844 742.106 51.0473 745.109 51.0473C748.54 51.0473 751.513 51.8747 754.026 53.5294C756.599 55.1841 758.438 57.3904 759.541 60.1482C761.196 57.3904 763.372 55.1841 766.068 53.5294C768.826 51.8747 772.013 51.0473 775.629 51.0473C781.022 51.0473 785.066 52.702 787.763 56.0114C790.521 59.2596 791.9 63.7027 791.9 69.341V99.4014H784.178V70.536C784.178 66.1848 783.289 63.0286 781.512 61.0675C779.735 59.1063 777.099 58.1258 773.606 58.1258C771.277 58.1258 769.163 58.7999 767.263 60.1482C765.363 61.4965 763.862 63.3044 762.759 65.5719C761.717 67.8395 761.196 70.2909 761.196 72.9262V99.4014H753.382V70.628C753.382 66.2154 752.493 63.0286 750.716 61.0675C748.939 59.1063 746.334 58.1258 742.902 58.1258C740.573 58.1258 738.459 58.8306 736.559 60.2401C734.659 61.5884 733.158 63.427 732.055 65.7558C731.013 68.0233 730.492 70.4747 730.492 73.11V99.4014H722.678V52.5182ZM822.144 100.872C817.67 100.872 813.656 99.7997 810.101 97.6547C806.547 95.5098 803.758 92.5681 801.736 88.8297C799.775 85.03 798.794 80.7707 798.794 76.0517C798.794 71.5166 799.714 67.3492 801.552 63.5495C803.452 59.7498 806.118 56.7162 809.55 54.4487C812.982 52.1811 816.965 51.0473 821.501 51.0473C826.097 51.0473 830.08 52.0892 833.451 54.1729C836.822 56.1953 839.396 59.0144 841.173 62.6302C843.012 66.2461 843.931 70.3828 843.931 75.0405C843.931 75.9598 843.839 76.7565 843.655 77.4306H806.608C806.792 80.9852 807.65 83.9881 809.182 86.4395C810.714 88.891 812.645 90.7295 814.974 91.9552C817.364 93.1809 819.846 93.7938 822.42 93.7938C828.426 93.7938 833.053 90.9747 836.301 85.3364L842.92 88.5539C840.897 92.3536 838.139 95.3565 834.646 97.5628C831.214 99.7691 827.047 100.872 822.144 100.872ZM835.657 70.9957C835.535 69.0345 834.983 67.0734 834.003 65.1123C833.022 63.1512 831.459 61.4965 829.314 60.1482C827.231 58.7999 824.595 58.1258 821.409 58.1258C817.731 58.1258 814.606 59.3208 812.032 61.711C809.519 64.0398 807.865 67.1347 807.068 70.9957H835.657ZM872.327 33.5811H892.184C898.925 33.5811 904.808 34.9906 909.834 37.8097C914.859 40.5676 918.72 44.4285 921.417 49.3926C924.113 54.3567 925.462 60.0563 925.462 66.4912C925.462 72.9262 924.113 78.6257 921.417 83.5898C918.72 88.5539 914.859 92.4455 909.834 95.2646C904.808 98.0225 898.925 99.4014 892.184 99.4014H872.327V33.5811ZM892.184 91.9552C899.967 91.9552 906.126 89.7183 910.661 85.2445C915.258 80.7707 917.556 74.5196 917.556 66.4912C917.556 58.4629 915.258 52.2118 910.661 47.7379C906.126 43.2641 899.967 41.0272 892.184 41.0272H880.049V91.9552H892.184ZM948.547 100.872C945.115 100.872 942.051 100.198 939.354 98.8498C936.658 97.5015 934.574 95.663 933.103 93.3341C931.632 90.944 930.897 88.2475 930.897 85.2445C930.897 80.2804 932.766 76.4194 936.504 73.6616C940.243 70.8425 944.962 69.4329 950.661 69.4329C953.48 69.4329 956.085 69.7393 958.475 70.3522C960.927 70.965 962.796 71.6698 964.083 72.4665V69.6168C964.083 66.1235 962.857 63.335 960.406 61.2513C957.954 59.1063 954.859 58.0339 951.121 58.0339C948.486 58.0339 946.065 58.6161 943.859 59.7805C941.652 60.8836 939.906 62.4464 938.619 64.4688L932.735 60.0563C934.574 57.2371 937.087 55.0309 940.273 53.4375C943.522 51.844 947.107 51.0473 951.029 51.0473C957.403 51.0473 962.397 52.7327 966.013 56.1034C969.69 59.4128 971.529 63.9479 971.529 69.7087V99.4014H964.083V92.6906H963.715C962.367 94.9582 960.344 96.8887 957.648 98.4821C954.951 100.076 951.918 100.872 948.547 100.872ZM949.282 93.9776C951.918 93.9776 954.369 93.3035 956.637 91.9552C958.904 90.6069 960.712 88.799 962.06 86.5315C963.409 84.2639 964.083 81.7819 964.083 79.0853C962.612 78.1048 960.804 77.3081 958.659 76.6952C956.514 76.0823 954.246 75.7759 951.856 75.7759C947.566 75.7759 944.318 76.6646 942.112 78.4418C939.967 80.2191 938.894 82.5173 938.894 85.3364C938.894 87.9104 939.875 89.9941 941.836 91.5875C943.797 93.1809 946.279 93.9776 949.282 93.9776ZM997.681 100.137C995.781 100.137 994.004 99.8304 992.349 99.2175C990.756 98.6047 989.407 97.7773 988.304 96.7355C987.079 95.571 986.159 94.2228 985.546 92.6906C984.934 91.1585 984.627 89.2893 984.627 87.083V59.5966H976.446V52.5182H984.627V39.2806H992.441V52.5182H1003.84V59.5966H992.441V85.1526C992.441 87.7265 992.931 89.6264 993.912 90.8521C995.076 92.2004 996.762 92.8745 998.968 92.8745C1000.75 92.8745 1002.46 92.3536 1004.12 91.3117V98.9417C1003.2 99.3707 1002.25 99.6772 1001.27 99.861C1000.35 100.045 999.152 100.137 997.681 100.137ZM1025.58 100.872C1022.14 100.872 1019.08 100.198 1016.38 98.8498C1013.69 97.5015 1011.6 95.663 1010.13 93.3341C1008.66 90.944 1007.93 88.2475 1007.93 85.2445C1007.93 80.2804 1009.79 76.4194 1013.53 73.6616C1017.27 70.8425 1021.99 69.4329 1027.69 69.4329C1030.51 69.4329 1033.11 69.7393 1035.5 70.3522C1037.96 70.965 1039.82 71.6698 1041.11 72.4665V69.6168C1041.11 66.1235 1039.89 63.335 1037.43 61.2513C1034.98 59.1063 1031.89 58.0339 1028.15 58.0339C1025.51 58.0339 1023.09 58.6161 1020.89 59.7805C1018.68 60.8836 1016.93 62.4464 1015.65 64.4688L1009.76 60.0563C1011.6 57.2371 1014.12 55.0309 1017.3 53.4375C1020.55 51.844 1024.14 51.0473 1028.06 51.0473C1034.43 51.0473 1039.43 52.7327 1043.04 56.1034C1046.72 59.4128 1048.56 63.9479 1048.56 69.7087V99.4014H1041.11V92.6906H1040.74C1039.4 94.9582 1037.37 96.8887 1034.68 98.4821C1031.98 100.076 1028.95 100.872 1025.58 100.872ZM1026.31 93.9776C1028.95 93.9776 1031.4 93.3035 1033.67 91.9552C1035.93 90.6069 1037.74 88.799 1039.09 86.5315C1040.44 84.2639 1041.11 81.7819 1041.11 79.0853C1039.64 78.1048 1037.83 77.3081 1035.69 76.6952C1033.54 76.0823 1031.28 75.7759 1028.89 75.7759C1024.6 75.7759 1021.35 76.6646 1019.14 78.4418C1017 80.2191 1015.92 82.5173 1015.92 85.3364C1015.92 87.9104 1016.9 89.9941 1018.87 91.5875C1020.83 93.1809 1023.31 93.9776 1026.31 93.9776ZM1081.4 100.872C1077.84 100.872 1074.63 100.076 1071.75 98.4821C1068.93 96.8274 1066.81 94.8356 1065.4 92.5068H1065.04V99.4014H1057.59V33.5811H1065.4V52.9778L1065.04 59.5047H1065.4C1066.81 57.1146 1068.93 55.1228 1071.75 53.5294C1074.63 51.8747 1077.84 51.0473 1081.4 51.0473C1085.57 51.0473 1089.37 52.1198 1092.8 54.2648C1096.23 56.4098 1098.93 59.3821 1100.89 63.1818C1102.85 66.9815 1103.83 71.2408 1103.83 75.9598C1103.83 80.74 1102.85 85.03 1100.89 88.8297C1098.93 92.5681 1096.23 95.5098 1092.8 97.6547C1089.37 99.7997 1085.57 100.872 1081.4 100.872ZM1080.48 93.7938C1083.18 93.7938 1085.72 93.0583 1088.11 91.5875C1090.5 90.1167 1092.4 88.033 1093.81 85.3364C1095.28 82.5786 1096.02 79.453 1096.02 75.9598C1096.02 72.4665 1095.28 69.3716 1093.81 66.6751C1092.4 63.9172 1090.5 61.8029 1088.11 60.332C1085.72 58.8612 1083.18 58.1258 1080.48 58.1258C1077.78 58.1258 1075.24 58.8612 1072.85 60.332C1070.46 61.8029 1068.56 63.8866 1067.15 66.5831C1065.74 69.2797 1065.04 72.4052 1065.04 75.9598C1065.04 79.5143 1065.74 82.6399 1067.15 85.3364C1068.56 88.033 1070.46 90.1167 1072.85 91.5875C1075.24 93.0583 1077.78 93.7938 1080.48 93.7938ZM1126.04 100.872C1122.6 100.872 1119.54 100.198 1116.84 98.8498C1114.15 97.5015 1112.06 95.663 1110.59 93.3341C1109.12 90.944 1108.39 88.2475 1108.39 85.2445C1108.39 80.2804 1110.25 76.4194 1113.99 73.6616C1117.73 70.8425 1122.45 69.4329 1128.15 69.4329C1130.97 69.4329 1133.57 69.7393 1135.96 70.3522C1138.42 70.965 1140.28 71.6698 1141.57 72.4665V69.6168C1141.57 66.1235 1140.35 63.335 1137.89 61.2513C1135.44 59.1063 1132.35 58.0339 1128.61 58.0339C1125.97 58.0339 1123.55 58.6161 1121.35 59.7805C1119.14 60.8836 1117.39 62.4464 1116.11 64.4688L1110.22 60.0563C1112.06 57.2371 1114.58 55.0309 1117.76 53.4375C1121.01 51.844 1124.6 51.0473 1128.52 51.0473C1134.89 51.0473 1139.89 52.7327 1143.5 56.1034C1147.18 59.4128 1149.02 63.9479 1149.02 69.7087V99.4014H1141.57V92.6906H1141.2C1139.86 94.9582 1137.83 96.8887 1135.14 98.4821C1132.44 100.076 1129.41 100.872 1126.04 100.872ZM1126.77 93.9776C1129.41 93.9776 1131.86 93.3035 1134.13 91.9552C1136.39 90.6069 1138.2 88.799 1139.55 86.5315C1140.9 84.2639 1141.57 81.7819 1141.57 79.0853C1140.1 78.1048 1138.29 77.3081 1136.15 76.6952C1134 76.0823 1131.74 75.7759 1129.35 75.7759C1125.06 75.7759 1121.81 76.6646 1119.6 78.4418C1117.46 80.2191 1116.38 82.5173 1116.38 85.3364C1116.38 87.9104 1117.36 89.9941 1119.33 91.5875C1121.29 93.1809 1123.77 93.9776 1126.77 93.9776ZM1173.96 100.872C1168.94 100.872 1164.74 99.7078 1161.37 97.379C1158 94.9888 1155.61 91.9552 1154.2 88.2781L1161.19 85.1526C1162.35 87.9717 1164.07 90.1473 1166.33 91.6794C1168.66 93.2116 1171.21 93.9776 1173.96 93.9776C1176.91 93.9776 1179.42 93.3954 1181.5 92.231C1183.59 91.0053 1184.63 89.2893 1184.63 87.083C1184.63 85.1219 1183.8 83.5591 1182.15 82.3947C1180.49 81.169 1177.89 80.1272 1174.33 79.2692L1168.63 77.7983C1164.89 76.8791 1161.83 75.3163 1159.44 73.11C1157.05 70.9037 1155.85 68.054 1155.85 64.5607C1155.85 61.8642 1156.65 59.5047 1158.24 57.4823C1159.9 55.3986 1162.07 53.8052 1164.77 52.702C1167.47 51.5989 1170.38 51.0473 1173.5 51.0473C1177.61 51.0473 1181.26 51.936 1184.44 53.7132C1187.69 55.4905 1189.99 57.9726 1191.34 61.1594L1184.54 64.2849C1182.45 60.1176 1178.74 58.0339 1173.41 58.0339C1170.84 58.0339 1168.57 58.6467 1166.61 59.8724C1164.71 61.0368 1163.76 62.5383 1163.76 64.3769C1163.76 66.0929 1164.43 67.5024 1165.78 68.6056C1167.13 69.6474 1169.15 70.5054 1171.85 71.1795L1178.65 72.9262C1183.25 74.0906 1186.71 75.8372 1189.04 78.166C1191.37 80.4336 1192.53 83.2221 1192.53 86.5315C1192.53 89.4119 1191.71 91.9552 1190.05 94.1615C1188.4 96.3065 1186.16 97.9612 1183.34 99.1256C1180.52 100.29 1177.4 100.872 1173.96 100.872ZM1220.53 100.872C1216.06 100.872 1212.04 99.7997 1208.49 97.6547C1204.93 95.5098 1202.14 92.5681 1200.12 88.8297C1198.16 85.03 1197.18 80.7707 1197.18 76.0517C1197.18 71.5166 1198.1 67.3492 1199.94 63.5495C1201.84 59.7498 1204.5 56.7162 1207.93 54.4487C1211.37 52.1811 1215.35 51.0473 1219.89 51.0473C1224.48 51.0473 1228.47 52.0892 1231.84 54.1729C1235.21 56.1953 1237.78 59.0144 1239.56 62.6302C1241.4 66.2461 1242.32 70.3828 1242.32 75.0405C1242.32 75.9598 1242.22 76.7565 1242.04 77.4306H1204.99C1205.18 80.9852 1206.03 83.9881 1207.57 86.4395C1209.1 88.891 1211.03 90.7295 1213.36 91.9552C1215.75 93.1809 1218.23 93.7938 1220.8 93.7938C1226.81 93.7938 1231.44 90.9747 1234.69 85.3364L1241.3 88.5539C1239.28 92.3536 1236.52 95.3565 1233.03 97.5628C1229.6 99.7691 1225.43 100.872 1220.53 100.872ZM1234.04 70.9957C1233.92 69.0345 1233.37 67.0734 1232.39 65.1123C1231.41 63.1512 1229.84 61.4965 1227.7 60.1482C1225.62 58.7999 1222.98 58.1258 1219.79 58.1258C1216.12 58.1258 1212.99 59.3208 1210.42 61.711C1207.9 64.0398 1206.25 67.1347 1205.45 70.9957H1234.04Z" fill="white"/>
<path d="M461.612 99.8672C457.157 99.8672 453.13 98.83 449.531 96.7554C445.992 94.6809 443.215 91.8132 441.202 88.1523C439.188 84.4303 438.182 80.2813 438.182 75.7051C438.182 71.312 439.127 67.285 441.019 63.624C442.971 59.9021 445.687 56.9733 449.164 54.8378C452.642 52.6412 456.608 51.543 461.062 51.543C465.639 51.543 469.605 52.5497 472.96 54.5632C476.377 56.5767 478.97 59.3835 480.74 62.9834C482.509 66.5223 483.394 70.6103 483.394 75.2475C483.394 75.7966 483.364 76.3458 483.303 76.8949C483.242 77.444 483.211 77.7491 483.211 77.8101H448.249C448.554 81.9592 450.049 85.1625 452.734 87.4201C455.419 89.6776 458.469 90.8064 461.886 90.8064C467.133 90.8064 471.161 88.3658 473.967 83.4846L482.57 87.6031C480.557 91.3251 477.75 94.3148 474.15 96.5724C470.611 98.769 466.432 99.8672 461.612 99.8672ZM473.144 70.1222C473.021 68.6578 472.533 67.1629 471.679 65.6375C470.825 64.1122 469.483 62.8308 467.652 61.7936C465.883 60.6953 463.656 60.1461 460.971 60.1461C457.981 60.1461 455.388 61.0614 453.191 62.8919C451.056 64.7223 449.592 67.1324 448.798 70.1222H473.144Z" fill="white"/>
<path d="M416.087 99.8672C410.9 99.8672 406.599 98.6774 403.182 96.2978C399.826 93.8572 397.446 90.8064 396.043 87.1455L405.012 83.3015C406.05 85.8032 407.544 87.6946 409.497 88.976C411.51 90.2573 413.707 90.898 416.087 90.898C418.588 90.898 420.632 90.4403 422.219 89.5251C423.805 88.5489 424.598 87.298 424.598 85.7727C424.598 84.3083 423.958 83.1185 422.676 82.2032C421.395 81.227 419.29 80.3728 416.361 79.6406L410.138 78.1762C406.721 77.383 403.761 75.9187 401.26 73.7831C398.819 71.5866 397.599 68.7493 397.599 65.2715C397.599 61.0614 399.338 57.736 402.816 55.2954C406.294 52.7938 410.565 51.543 415.629 51.543C419.839 51.543 423.561 52.4277 426.795 54.1971C430.09 55.9666 432.469 58.5292 433.934 61.8851L425.056 65.6375C424.202 63.7461 422.89 62.3427 421.12 61.4275C419.351 60.5122 417.429 60.0546 415.354 60.0546C413.341 60.0546 411.571 60.5122 410.046 61.4275C408.521 62.2817 407.758 63.441 407.758 64.9054C407.758 66.1867 408.277 67.2239 409.314 68.0171C410.412 68.8104 412.121 69.4815 414.439 70.0307L421.212 71.6781C425.788 72.8374 429.205 74.6068 431.462 76.9864C433.72 79.305 434.849 82.1117 434.849 85.4066C434.849 88.0912 434.025 90.5319 432.378 92.7284C430.791 94.925 428.564 96.6639 425.696 97.9452C422.89 99.2266 419.686 99.8672 416.087 99.8672Z" fill="white"/>
<path d="M367.921 99.8672C364.688 99.8672 361.759 99.2266 359.135 97.9452C356.573 96.6029 354.529 94.7724 353.003 92.4538C351.539 90.0742 350.807 87.3896 350.807 84.3998C350.807 79.6406 352.576 75.8881 356.115 73.1424C359.715 70.3968 364.261 69.0239 369.752 69.0239C374.572 69.0239 378.691 69.8476 382.108 71.495V69.573C382.108 66.8273 381.009 64.5698 378.813 62.8003C376.677 60.9699 374.084 60.0546 371.033 60.0546C366.396 60.0546 362.674 61.9461 359.867 65.7291L352.18 60.4207C354.315 57.553 356.969 55.3564 360.142 53.8311C363.376 52.3057 367.006 51.543 371.033 51.543C377.684 51.543 382.809 53.2209 386.409 56.5767C390.07 59.8716 391.901 64.5393 391.901 70.5798V98.4029H382.108V92.8199H381.558C380.094 94.8945 378.233 96.6029 375.976 97.9452C373.718 99.2266 371.033 99.8672 367.921 99.8672ZM369.569 91.5386C371.826 91.5386 373.901 90.9895 375.792 89.8912C377.745 88.7319 379.27 87.237 380.369 85.4066C381.528 83.5151 382.108 81.5016 382.108 79.366C378.874 77.5966 375.426 76.7119 371.765 76.7119C368.41 76.7119 365.786 77.444 363.894 78.9084C362.003 80.3728 361.057 82.2338 361.057 84.4913C361.057 86.5659 361.881 88.2743 363.528 89.6166C365.237 90.898 367.25 91.5386 369.569 91.5386Z" fill="white"/>
<path d="M325.684 99.8661C322.389 99.8661 319.43 99.1644 316.806 97.7611C314.244 96.3577 312.322 94.5882 311.04 92.4527H310.491V98.4017H300.973V32.8711H311.04V52.5486L310.491 58.8637H311.04C312.322 56.7892 314.244 55.0502 316.806 53.6469C319.43 52.2435 322.389 51.5418 325.684 51.5418C329.589 51.5418 333.189 52.5791 336.484 54.6536C339.84 56.7281 342.494 59.6264 344.446 63.3483C346.46 67.0093 347.466 71.1278 347.466 75.704C347.466 80.2801 346.46 84.3987 344.446 88.0596C342.494 91.7205 339.84 94.6188 336.484 96.7543C333.189 98.8288 329.589 99.8661 325.684 99.8661ZM323.945 90.6222C326.325 90.6222 328.521 90.0121 330.535 88.7918C332.609 87.5715 334.257 85.8325 335.477 83.575C336.758 81.2564 337.399 78.6327 337.399 75.704C337.399 72.7752 336.758 70.1821 335.477 67.9245C334.257 65.6059 332.609 63.8364 330.535 62.6161C328.521 61.3958 326.325 60.7857 323.945 60.7857C321.565 60.7857 319.338 61.3958 317.264 62.6161C315.25 63.8364 313.603 65.5754 312.322 67.833C311.101 70.0905 310.491 72.7142 310.491 75.704C310.491 78.6937 311.101 81.3174 312.322 83.575C313.603 85.8325 315.25 87.5715 317.264 88.7918C319.338 90.0121 321.565 90.6222 323.945 90.6222Z" fill="white"/>
<path d="M273.192 99.8672C268.738 99.8672 264.711 98.83 261.111 96.7554C257.572 94.6809 254.795 91.8132 252.782 88.1523C250.768 84.4303 249.762 80.2813 249.762 75.7051C249.762 71.312 250.707 67.285 252.599 63.624C254.551 59.9021 257.267 56.9733 260.745 54.8378C264.222 52.6412 268.188 51.543 272.643 51.543C277.219 51.543 281.185 52.5497 284.541 54.5632C287.957 56.5767 290.551 59.3835 292.32 62.9834C294.089 66.5223 294.974 70.6103 294.974 75.2475C294.974 75.7966 294.944 76.3458 294.883 76.8949C294.822 77.444 294.791 77.7491 294.791 77.8101H259.829C260.134 81.9592 261.629 85.1625 264.314 87.4201C266.999 89.6776 270.049 90.8064 273.466 90.8064C278.714 90.8064 282.741 88.3658 285.547 83.4846L294.15 87.6031C292.137 91.3251 289.33 94.3148 285.73 96.5724C282.191 98.769 278.012 99.8672 273.192 99.8672ZM284.724 70.1222C284.602 68.6578 284.113 67.1629 283.259 65.6375C282.405 64.1122 281.063 62.8308 279.232 61.7936C277.463 60.6953 275.236 60.1461 272.551 60.1461C269.561 60.1461 266.968 61.0614 264.772 62.8919C262.636 64.7223 261.172 67.1324 260.378 70.1222H284.724Z" fill="white"/>
<path d="M221.822 53.0076H231.341V59.7803H231.89C232.866 57.4617 234.636 55.5398 237.198 54.0144C239.761 52.428 242.384 51.6348 245.069 51.6348C247.266 51.6348 249.066 51.9398 250.469 52.55V63.0752C248.395 62.0379 246.076 61.5193 243.513 61.5193C240.218 61.5193 237.442 62.8006 235.185 65.3632C232.988 67.8649 231.89 70.9462 231.89 74.6071V98.4031H221.822V53.0076Z" fill="white"/>
<path d="M207.452 45.3189C205.561 45.3189 203.944 44.6782 202.602 43.3969C201.32 42.0545 200.68 40.4376 200.68 38.5462C200.68 36.6547 201.32 35.0683 202.602 33.787C203.944 32.4446 205.561 31.7734 207.452 31.7734C209.344 31.7734 210.93 32.4446 212.212 33.787C213.554 35.0683 214.225 36.6547 214.225 38.5462C214.225 40.4376 213.554 42.0545 212.212 43.3969C210.93 44.6782 209.344 45.3189 207.452 45.3189ZM202.419 53.0068H212.486V98.4023H202.419V53.0068Z" fill="white"/>
<path d="M156.562 32.8721H196.375V42.6651H166.813V61.5188H193.446V71.2203H166.813V98.4027H156.562V32.8721Z" fill="white"/>
<path d="M96.6179 66.9557V66.9173C96.6171 66.9029 96.6171 66.8885 96.6179 66.874C95.463 59.3471 92.4665 52.4136 88.4918 46.177C87.9918 45.3884 87.4719 44.6132 86.9403 43.843C86.6825 43.4696 86.4209 43.0995 86.1553 42.7328C81.044 35.6376 64.9002 16.3476 56.4192 6.28996C53.2111 2.48397 51.0996 0 51.0996 0C50.143 0.766866 49.208 1.55818 48.2948 2.37395L48.2631 2.40228C41.6491 8.5865 36.1645 15.8777 32.056 23.9479L32.0426 23.9729C31.2516 25.5289 30.5128 27.1126 29.8261 28.7241C28.2377 32.4574 26.9465 36.3104 25.9648 40.2471C25.3692 42.6266 24.8871 45.0478 24.5182 47.5107C22.4884 47.1785 20.4382 46.9858 18.382 46.9338C17.9931 46.9238 17.6043 46.9188 17.2154 46.9188C13.8555 46.9163 10.5059 47.291 7.22949 48.0358C5.2239 51.2756 3.6094 54.7417 2.41983 58.3618C0.811797 63.2612 -0.00504604 68.3857 2.34521e-05 73.5424C2.34521e-05 97.1119 16.7888 116.762 39.0571 121.171C42.1801 121.79 45.3561 122.101 48.5398 122.1C49.168 122.1 49.793 122.087 50.4163 122.065C52.0528 122.001 53.6666 121.858 55.2576 121.638C58.9651 121.124 62.6003 120.181 66.0901 118.828C67.0201 118.467 67.9356 118.078 68.8366 117.661C85.502 109.974 97.0795 93.1092 97.0795 73.5424C97.0732 71.339 96.9189 69.1385 96.6179 66.9557ZM32.8726 110.599C28.0934 108.579 23.7517 105.65 20.0885 101.975C16.4155 98.3105 13.4883 93.968 11.4692 89.1881C9.37475 84.2363 8.30117 78.9125 8.31274 73.5358C8.30099 68.1584 9.37457 62.834 11.4692 57.8817C11.8025 57.0859 12.163 56.3046 12.5508 55.5378C14.0914 55.3445 15.6427 55.2476 17.1954 55.2476C19.3797 55.2475 21.5597 55.4405 23.7099 55.8245C23.6633 56.9098 23.6399 58.0051 23.6399 59.1037C23.6106 79.543 31.667 99.1636 46.05 113.681C41.5137 113.414 37.0568 112.371 32.8726 110.599ZM50.7046 106.499C49.7291 105.462 48.7909 104.399 47.8898 103.308C43.5702 98.1073 40.0404 92.2979 37.4139 86.0673C33.8047 77.535 31.9539 68.3618 31.9727 59.097C31.9727 58.8447 31.9727 58.593 31.9727 58.3418C36.1015 60.1738 39.8555 62.7547 43.0452 65.9538C47.9902 70.8741 51.4142 77.1149 52.9078 83.9301C53.4725 86.5199 53.7563 89.1631 53.7544 91.8138C53.77 96.8667 52.7354 101.868 50.7163 106.499H50.7046ZM88.7701 74.9278C88.5155 82.4895 86.1301 89.8254 81.889 96.09C78.4423 101.178 73.883 105.413 68.5566 108.476L68.5033 108.451C67.1034 109.254 65.6565 109.971 64.1703 110.599C62.3188 111.382 60.4107 112.025 58.4624 112.521C58.1157 112.61 57.768 112.693 57.4191 112.771C57.2308 112.814 57.0441 112.856 56.8558 112.894C56.9291 112.761 57.0008 112.623 57.0708 112.486C57.1791 112.277 57.2858 112.069 57.3891 111.859C58.6614 109.314 59.686 106.652 60.4489 103.91C61.5437 99.975 62.0971 95.9087 62.0938 91.8238C62.0952 88.8521 61.8033 85.8875 61.2222 82.9732C58.1341 67.5258 47.1249 54.9426 32.6126 49.6312C33.2811 44.7179 34.4808 39.8918 36.1907 35.2375C36.574 34.1961 36.9823 33.1619 37.4156 32.135C38.0689 30.5879 38.7755 29.0709 39.5354 27.5838C39.54 27.5764 39.5439 27.5686 39.5471 27.5605C39.8587 26.912 40.1804 26.2735 40.5137 25.6367C43.1296 20.6538 46.4272 16.06 50.3113 11.9881L50.3763 12.0665C53.8194 16.1509 58.4274 21.6456 63.017 27.1821C65.3652 30.0161 67.7084 32.8618 69.8882 35.5375C73.9762 40.5572 77.4893 44.9783 79.3875 47.604C79.6591 47.9808 79.9241 48.3559 80.1841 48.736C82.9106 52.6954 85.0171 56.6981 86.4453 60.6574C87.3533 63.1539 88.0082 65.7353 88.4001 68.3627V68.3961C88.7209 70.5576 88.8459 72.7437 88.7735 74.9278H88.7701Z" fill="white"/>
<g filter="url(#filter0_d_47_2486)">
<circle cx="100" cy="90" r="30" fill="white"/>
<path fill-rule="evenodd" clip-rule="evenodd" d="M86.5 94.5H113.5V100.503C113.5 100.896 113.423 101.286 113.273 101.649C113.123 102.013 112.903 102.343 112.625 102.621C112.347 102.9 112.017 103.121 111.653 103.271C111.29 103.422 110.901 103.5 110.507 103.5H89.4925C88.6985 103.498 87.9376 103.182 87.3766 102.62C86.8157 102.058 86.5004 101.297 86.5 100.503V94.5ZM86.5 79.488C86.5 77.838 87.8395 76.5 89.4925 76.5H110.507C112.16 76.5 113.5 77.85 113.5 79.488V90.012C113.5 91.662 112.16 93 110.507 93H89.4925C87.8395 93 86.5 91.65 86.5 90.012V79.488ZM89.5 79.5H110.5V84H89.5V79.5ZM89.5 87.7575C89.5 87.339 89.821 87 90.2575 87H91.7425C92.161 87 92.5 87.321 92.5 87.7575V89.2425C92.5016 89.3424 92.4831 89.4417 92.4456 89.5343C92.4081 89.6269 92.3524 89.7111 92.2817 89.7817C92.2111 89.8524 92.1269 89.9081 92.0343 89.9456C91.9417 89.9831 91.8424 90.0016 91.7425 90H90.2575C90.1576 90.0016 90.0583 89.9831 89.9657 89.9456C89.8731 89.9081 89.7889 89.8524 89.7183 89.7817C89.6476 89.7111 89.5919 89.6269 89.5544 89.5343C89.5169 89.4417 89.4984 89.3424 89.5 89.2425V87.7575ZM89.5 98.2575C89.5 97.839 89.821 97.5 90.2575 97.5H91.7425C92.161 97.5 92.5 97.821 92.5 98.2575V99.7425C92.5016 99.8424 92.4831 99.9417 92.4456 100.034C92.4081 100.127 92.3524 100.211 92.2817 100.282C92.2111 100.352 92.1269 100.408 92.0343 100.446C91.9417 100.483 91.8424 100.502 91.7425 100.5H90.2575C90.1576 100.502 90.0583 100.483 89.9657 100.446C89.8731 100.408 89.7889 100.352 89.7183 100.282C89.6476 100.211 89.5919 100.127 89.5544 100.034C89.5169 99.9417 89.4984 99.8424 89.5 99.7425V98.2575Z" fill="#1F1F1F"/>
</g>
<defs>
<filter id="filter0_d_47_2486" x="68" y="58.6704" width="64" height="64" filterUnits="userSpaceOnUse" color-interpolation-filters="sRGB">
<feFlood flood-opacity="0" result="BackgroundImageFix"/>
<feColorMatrix in="SourceAlpha" type="matrix" values="0 0 0 0 0 0 0 0 0 0 0 0 0 0 0 0 0 0 127 0" result="hardAlpha"/>
<feOffset dy="0.670408"/>
<feGaussianBlur stdDeviation="1"/>
<feComposite in2="hardAlpha" operator="out"/>
<feColorMatrix type="matrix" values="0 0 0 0 0 0 0 0 0 0 0 0 0 0 0 0 0 0 0.3 0"/>
<feBlend mode="normal" in2="BackgroundImageFix" result="effect1_dropShadow_47_2486"/>
<feBlend mode="normal" in="SourceGraphic" in2="effect1_dropShadow_47_2486" result="shape"/>
</filter>
</defs>
</svg>
