<svg width="937" height="128" viewBox="0 0 937 128" fill="none" xmlns="http://www.w3.org/2000/svg">
<path d="M537.418 100.872C531.044 100.872 525.253 99.3707 520.043 96.3677C514.834 93.3648 510.728 89.2587 507.725 84.0494C504.783 78.7789 503.313 72.9262 503.313 66.4912C503.313 60.0563 504.783 54.2342 507.725 49.0249C510.728 43.7544 514.834 39.6177 520.043 36.6147C525.253 33.6117 531.044 32.1102 537.418 32.1102C542.321 32.1102 546.794 33.0601 550.839 34.96C554.945 36.7985 558.5 39.4338 561.503 42.8658L555.895 48.2895C553.383 45.2865 550.625 43.0803 547.622 41.6707C544.68 40.2611 541.279 39.5564 537.418 39.5564C532.638 39.5564 528.256 40.6901 524.272 42.9577C520.289 45.164 517.102 48.3201 514.712 52.4263C512.383 56.4711 511.218 61.1594 511.218 66.4912C511.218 71.823 512.383 76.542 514.712 80.6481C517.102 84.6929 520.289 87.8491 524.272 90.1167C528.256 92.3229 532.638 93.4261 537.418 93.4261C545.385 93.4261 552.157 90.1473 557.734 83.5898L563.433 89.1055C560.369 92.7213 556.6 95.6017 552.126 97.7467C547.652 99.8304 542.75 100.872 537.418 100.872ZM570.369 52.5182H577.815V60.0563H578.183C579.102 57.4823 580.879 55.3679 583.515 53.7132C586.15 51.9973 588.908 51.1393 591.788 51.1393C593.933 51.1393 595.772 51.4457 597.304 52.0585V60.5159C595.343 59.5353 593.136 59.0451 590.685 59.0451C588.417 59.0451 586.334 59.6886 584.434 60.9755C582.534 62.2625 581.002 64.0092 579.837 66.2154C578.734 68.3604 578.183 70.6892 578.183 73.2019V99.4014H570.369V52.5182ZM616.192 100.872C612.76 100.872 609.696 100.198 606.999 98.8498C604.303 97.5015 602.219 95.663 600.748 93.3341C599.277 90.944 598.542 88.2475 598.542 85.2445C598.542 80.2804 600.411 76.4194 604.149 73.6616C607.888 70.8425 612.607 69.4329 618.306 69.4329C621.125 69.4329 623.73 69.7393 626.12 70.3522C628.572 70.965 630.441 71.6698 631.728 72.4665V69.6168C631.728 66.1235 630.502 63.335 628.051 61.2513C625.599 59.1063 622.504 58.0339 618.766 58.0339C616.131 58.0339 613.71 58.6161 611.504 59.7805C609.297 60.8836 607.551 62.4464 606.264 64.4688L600.38 60.0563C602.219 57.2371 604.732 55.0309 607.918 53.4375C611.167 51.844 614.752 51.0473 618.674 51.0473C625.048 51.0473 630.042 52.7327 633.658 56.1034C637.335 59.4128 639.174 63.9479 639.174 69.7087V99.4014H631.728V92.6906H631.36C630.012 94.9582 627.989 96.8887 625.293 98.4821C622.596 100.076 619.563 100.872 616.192 100.872ZM616.927 93.9776C619.563 93.9776 622.014 93.3035 624.282 91.9552C626.549 90.6069 628.357 88.799 629.705 86.5315C631.054 84.2639 631.728 81.7819 631.728 79.0853C630.257 78.1048 628.449 77.3081 626.304 76.6952C624.159 76.0823 621.892 75.7759 619.501 75.7759C615.211 75.7759 611.963 76.6646 609.757 78.4418C607.612 80.2191 606.54 82.5173 606.54 85.3364C606.54 87.9104 607.52 89.9941 609.481 91.5875C611.442 93.1809 613.924 93.9776 616.927 93.9776ZM664.12 100.872C659.095 100.872 654.897 99.7078 651.526 97.379C648.155 94.9888 645.765 91.9552 644.356 88.2781L651.342 85.1526C652.507 87.9717 654.223 90.1473 656.49 91.6794C658.819 93.2116 661.362 93.9776 664.12 93.9776C667.062 93.9776 669.574 93.3954 671.658 92.231C673.742 91.0053 674.784 89.2893 674.784 87.083C674.784 85.1219 673.956 83.5591 672.302 82.3947C670.647 81.169 668.042 80.1272 664.488 79.2692L658.788 77.7983C655.05 76.8791 651.986 75.3163 649.596 73.11C647.205 70.9037 646.01 68.054 646.01 64.5607C646.01 61.8642 646.807 59.5047 648.4 57.4823C650.055 55.3986 652.231 53.8052 654.927 52.702C657.624 51.5989 660.535 51.0473 663.66 51.0473C667.767 51.0473 671.413 51.936 674.6 53.7132C677.848 55.4905 680.146 57.9726 681.494 61.1594L674.692 64.2849C672.608 60.1176 668.9 58.0339 663.569 58.0339C660.995 58.0339 658.727 58.6467 656.766 59.8724C654.866 61.0368 653.916 62.5383 653.916 64.3769C653.916 66.0929 654.59 67.5024 655.939 68.6056C657.287 69.6474 659.309 70.5054 662.006 71.1795L668.808 72.9262C673.405 74.0906 676.867 75.8372 679.196 78.166C681.525 80.4336 682.69 83.2221 682.69 86.5315C682.69 89.4119 681.862 91.9552 680.207 94.1615C678.553 96.3065 676.316 97.9612 673.497 99.1256C670.678 100.29 667.552 100.872 664.12 100.872ZM689.369 33.5811H697.183V52.9778L696.815 59.4128H697.183C698.47 57.0226 700.492 55.0309 703.25 53.4375C706.069 51.844 709.133 51.0473 712.443 51.0473C718.142 51.0473 722.493 52.7327 725.496 56.1034C728.499 59.4128 730.001 63.8253 730.001 69.341V99.4014H722.187V70.536C722.187 66.3074 721.114 63.1818 718.969 61.1594C716.824 59.137 714.036 58.1258 710.604 58.1258C708.153 58.1258 705.885 58.8612 703.801 60.332C701.779 61.8029 700.155 63.7027 698.929 66.0316C697.765 68.3604 697.183 70.7812 697.183 73.2939V99.4014H689.369V33.5811ZM739.419 33.5811H747.233V99.4014H739.419V33.5811ZM771.312 96.4597L751.915 52.5182H760.373L775.081 87.3588H775.265L789.422 52.5182H797.879L768.922 119.258H760.832L771.312 96.4597ZM820.551 100.137C818.651 100.137 816.874 99.8304 815.219 99.2175C813.626 98.6047 812.278 97.7773 811.174 96.7355C809.949 95.571 809.029 94.2228 808.417 92.6906C807.804 91.1585 807.497 89.2893 807.497 87.083V59.5966H799.316V52.5182H807.497V39.2806H815.311V52.5182H826.71V59.5966H815.311V85.1526C815.311 87.7265 815.801 89.6264 816.782 90.8521C817.946 92.2004 819.632 92.8745 821.838 92.8745C823.615 92.8745 825.331 92.3536 826.986 91.3117V98.9417C826.067 99.3707 825.117 99.6772 824.136 99.861C823.217 100.045 822.022 100.137 820.551 100.137ZM839.405 43.877C837.873 43.877 836.555 43.3254 835.452 42.2223C834.349 41.1191 833.797 39.8015 833.797 38.2694C833.797 36.7372 834.349 35.4503 835.452 34.4084C836.555 33.3053 837.873 32.7537 839.405 32.7537C840.937 32.7537 842.255 33.3053 843.358 34.4084C844.461 35.4503 845.012 36.7372 845.012 38.2694C845.012 39.8015 844.461 41.1191 843.358 42.2223C842.316 43.3254 840.998 43.877 839.405 43.877ZM835.544 52.5182H843.266V99.4014H835.544V52.5182ZM874.494 100.872C869.959 100.872 865.883 99.7997 862.268 97.6547C858.652 95.4485 855.833 92.4761 853.81 88.7377C851.788 84.9381 850.777 80.6787 850.777 75.9598C850.777 71.2408 851.788 66.9815 853.81 63.1818C855.833 59.3821 858.652 56.4098 862.268 54.2648C865.883 52.1198 869.959 51.0473 874.494 51.0473C879.581 51.0473 883.84 52.2424 887.272 54.6325C890.765 56.9614 893.247 60.0869 894.718 64.0092L887.64 66.9509C886.475 64.0704 884.729 61.8948 882.4 60.424C880.132 58.8918 877.374 58.1258 874.126 58.1258C871.368 58.1258 868.795 58.8918 866.404 60.424C864.014 61.8948 862.084 63.9785 860.613 66.6751C859.203 69.3716 858.499 72.4665 858.499 75.9598C858.499 79.453 859.203 82.5479 860.613 85.2445C862.084 87.941 864.014 90.0554 866.404 91.5875C868.795 93.0583 871.368 93.7938 874.126 93.7938C877.436 93.7938 880.285 93.0277 882.676 91.4956C885.066 89.9634 886.843 87.7878 888.007 84.9687L894.994 87.9104C893.401 91.7714 890.827 94.8969 887.272 97.287C883.779 99.6772 879.519 100.872 874.494 100.872ZM917.967 100.872C912.941 100.872 908.743 99.7078 905.372 97.379C902.002 94.9888 899.612 91.9552 898.202 88.2781L905.189 85.1526C906.353 87.9717 908.069 90.1473 910.337 91.6794C912.665 93.2116 915.209 93.9776 917.967 93.9776C920.908 93.9776 923.421 93.3954 925.505 92.231C927.588 91.0053 928.63 89.2893 928.63 87.083C928.63 85.1219 927.803 83.5591 926.148 82.3947C924.493 81.169 921.889 80.1272 918.334 79.2692L912.635 77.7983C908.896 76.8791 905.832 75.3163 903.442 73.11C901.052 70.9037 899.857 68.054 899.857 64.5607C899.857 61.8642 900.653 59.5047 902.247 57.4823C903.902 55.3986 906.077 53.8052 908.774 52.702C911.47 51.5989 914.381 51.0473 917.507 51.0473C921.613 51.0473 925.259 51.936 928.446 53.7132C931.694 55.4905 933.993 57.9726 935.341 61.1594L928.538 64.2849C926.455 60.1176 922.747 58.0339 917.415 58.0339C914.841 58.0339 912.573 58.6467 910.612 59.8724C908.712 61.0368 907.763 62.5383 907.763 64.3769C907.763 66.0929 908.437 67.5024 909.785 68.6056C911.133 69.6474 913.156 70.5054 915.852 71.1795L922.655 72.9262C927.251 74.0906 930.714 75.8372 933.043 78.166C935.372 80.4336 936.536 83.2221 936.536 86.5315C936.536 89.4119 935.709 91.9552 934.054 94.1615C932.399 96.3065 930.162 97.9612 927.343 99.1256C924.524 100.29 921.398 100.872 917.967 100.872Z" fill="white"/>
<path d="M461.612 99.8672C457.157 99.8672 453.13 98.83 449.531 96.7554C445.992 94.6809 443.215 91.8132 441.202 88.1523C439.188 84.4303 438.182 80.2813 438.182 75.7051C438.182 71.312 439.127 67.285 441.019 63.624C442.971 59.9021 445.687 56.9733 449.164 54.8378C452.642 52.6412 456.608 51.543 461.062 51.543C465.639 51.543 469.605 52.5497 472.96 54.5632C476.377 56.5767 478.97 59.3835 480.74 62.9834C482.509 66.5223 483.394 70.6103 483.394 75.2475C483.394 75.7966 483.364 76.3458 483.303 76.8949C483.242 77.444 483.211 77.7491 483.211 77.8101H448.249C448.554 81.9592 450.049 85.1625 452.734 87.4201C455.419 89.6776 458.469 90.8064 461.886 90.8064C467.133 90.8064 471.161 88.3658 473.967 83.4846L482.57 87.6031C480.557 91.3251 477.75 94.3148 474.15 96.5724C470.611 98.769 466.432 99.8672 461.612 99.8672ZM473.144 70.1222C473.021 68.6578 472.533 67.1629 471.679 65.6375C470.825 64.1122 469.483 62.8308 467.652 61.7936C465.883 60.6953 463.656 60.1461 460.971 60.1461C457.981 60.1461 455.388 61.0614 453.191 62.8919C451.056 64.7223 449.592 67.1324 448.798 70.1222H473.144Z" fill="white"/>
<path d="M416.087 99.8672C410.9 99.8672 406.599 98.6774 403.182 96.2978C399.826 93.8572 397.446 90.8064 396.043 87.1455L405.012 83.3015C406.05 85.8032 407.544 87.6946 409.497 88.976C411.51 90.2573 413.707 90.898 416.087 90.898C418.588 90.898 420.632 90.4403 422.219 89.5251C423.805 88.5489 424.598 87.298 424.598 85.7727C424.598 84.3083 423.958 83.1185 422.676 82.2032C421.395 81.227 419.29 80.3728 416.361 79.6406L410.138 78.1762C406.721 77.383 403.761 75.9187 401.26 73.7831C398.819 71.5866 397.599 68.7493 397.599 65.2715C397.599 61.0614 399.338 57.736 402.816 55.2954C406.294 52.7938 410.565 51.543 415.629 51.543C419.839 51.543 423.561 52.4277 426.795 54.1971C430.09 55.9666 432.469 58.5292 433.934 61.8851L425.056 65.6375C424.202 63.7461 422.89 62.3427 421.12 61.4275C419.351 60.5122 417.429 60.0546 415.354 60.0546C413.341 60.0546 411.571 60.5122 410.046 61.4275C408.521 62.2817 407.758 63.441 407.758 64.9054C407.758 66.1867 408.277 67.2239 409.314 68.0171C410.412 68.8104 412.121 69.4815 414.439 70.0307L421.212 71.6781C425.788 72.8374 429.205 74.6068 431.462 76.9864C433.72 79.305 434.849 82.1117 434.849 85.4066C434.849 88.0912 434.025 90.5319 432.378 92.7284C430.791 94.925 428.564 96.6639 425.696 97.9452C422.89 99.2266 419.686 99.8672 416.087 99.8672Z" fill="white"/>
<path d="M367.921 99.8672C364.688 99.8672 361.759 99.2266 359.135 97.9452C356.573 96.6029 354.529 94.7724 353.003 92.4538C351.539 90.0742 350.807 87.3896 350.807 84.3998C350.807 79.6406 352.576 75.8881 356.115 73.1424C359.715 70.3968 364.261 69.0239 369.752 69.0239C374.572 69.0239 378.691 69.8476 382.108 71.495V69.573C382.108 66.8273 381.009 64.5698 378.813 62.8003C376.677 60.9699 374.084 60.0546 371.033 60.0546C366.396 60.0546 362.674 61.9461 359.867 65.7291L352.18 60.4207C354.315 57.553 356.969 55.3564 360.142 53.8311C363.376 52.3057 367.006 51.543 371.033 51.543C377.684 51.543 382.809 53.2209 386.409 56.5767C390.07 59.8716 391.901 64.5393 391.901 70.5798V98.4029H382.108V92.8199H381.558C380.094 94.8945 378.233 96.6029 375.976 97.9452C373.718 99.2266 371.033 99.8672 367.921 99.8672ZM369.569 91.5386C371.826 91.5386 373.901 90.9895 375.792 89.8912C377.745 88.7319 379.27 87.237 380.369 85.4066C381.528 83.5151 382.108 81.5016 382.108 79.366C378.874 77.5966 375.426 76.7119 371.765 76.7119C368.41 76.7119 365.786 77.444 363.894 78.9084C362.003 80.3728 361.057 82.2338 361.057 84.4913C361.057 86.5659 361.881 88.2743 363.528 89.6166C365.237 90.898 367.25 91.5386 369.569 91.5386Z" fill="white"/>
<path d="M325.684 99.8671C322.389 99.8671 319.43 99.1654 316.806 97.762C314.244 96.3587 312.322 94.5892 311.04 92.4537H310.491V98.4027H300.973V32.8721H311.04V52.5496L310.491 58.8647H311.04C312.322 56.7901 314.244 55.0512 316.806 53.6478C319.43 52.2445 322.389 51.5428 325.684 51.5428C329.589 51.5428 333.189 52.5801 336.484 54.6546C339.84 56.7291 342.494 59.6274 344.446 63.3493C346.46 67.0102 347.466 71.1288 347.466 75.7049C347.466 80.2811 346.46 84.3996 344.446 88.0606C342.494 91.7215 339.84 94.6197 336.484 96.7553C333.189 98.8298 329.589 99.8671 325.684 99.8671ZM323.945 90.6232C326.325 90.6232 328.521 90.0131 330.535 88.7928C332.609 87.5724 334.257 85.8335 335.477 83.5759C336.758 81.2573 337.399 78.6337 337.399 75.7049C337.399 72.7762 336.758 70.183 335.477 67.9255C334.257 65.6069 332.609 63.8374 330.535 62.6171C328.521 61.3968 326.325 60.7866 323.945 60.7866C321.565 60.7866 319.338 61.3968 317.264 62.6171C315.25 63.8374 313.603 65.5764 312.322 67.8339C311.101 70.0915 310.491 72.7152 310.491 75.7049C310.491 78.6947 311.101 81.3184 312.322 83.5759C313.603 85.8335 315.25 87.5724 317.264 88.7928C319.338 90.0131 321.565 90.6232 323.945 90.6232Z" fill="white"/>
<path d="M273.192 99.8672C268.738 99.8672 264.711 98.83 261.111 96.7554C257.572 94.6809 254.795 91.8132 252.782 88.1523C250.768 84.4303 249.762 80.2813 249.762 75.7051C249.762 71.312 250.707 67.285 252.599 63.624C254.551 59.9021 257.267 56.9733 260.745 54.8378C264.222 52.6412 268.188 51.543 272.643 51.543C277.219 51.543 281.185 52.5497 284.541 54.5632C287.957 56.5767 290.551 59.3835 292.32 62.9834C294.089 66.5223 294.974 70.6103 294.974 75.2475C294.974 75.7966 294.944 76.3458 294.883 76.8949C294.822 77.444 294.791 77.7491 294.791 77.8101H259.829C260.134 81.9592 261.629 85.1625 264.314 87.4201C266.999 89.6776 270.049 90.8064 273.466 90.8064C278.714 90.8064 282.741 88.3658 285.547 83.4846L294.15 87.6031C292.137 91.3251 289.33 94.3148 285.73 96.5724C282.191 98.769 278.012 99.8672 273.192 99.8672ZM284.724 70.1222C284.602 68.6578 284.113 67.1629 283.259 65.6375C282.405 64.1122 281.063 62.8308 279.232 61.7936C277.463 60.6953 275.236 60.1461 272.551 60.1461C269.561 60.1461 266.968 61.0614 264.772 62.8919C262.636 64.7223 261.172 67.1324 260.378 70.1222H284.724Z" fill="white"/>
<path d="M221.822 53.0076H231.341V59.7803H231.89C232.866 57.4617 234.636 55.5398 237.198 54.0144C239.761 52.428 242.384 51.6348 245.069 51.6348C247.266 51.6348 249.066 51.9398 250.469 52.55V63.0752C248.395 62.0379 246.076 61.5193 243.513 61.5193C240.218 61.5193 237.442 62.8006 235.185 65.3632C232.988 67.8649 231.89 70.9462 231.89 74.6071V98.4031H221.822V53.0076Z" fill="white"/>
<path d="M207.452 45.3189C205.561 45.3189 203.944 44.6782 202.602 43.3969C201.32 42.0545 200.68 40.4376 200.68 38.5462C200.68 36.6547 201.32 35.0683 202.602 33.787C203.944 32.4446 205.561 31.7734 207.452 31.7734C209.344 31.7734 210.93 32.4446 212.212 33.787C213.554 35.0683 214.225 36.6547 214.225 38.5462C214.225 40.4376 213.554 42.0545 212.212 43.3969C210.93 44.6782 209.344 45.3189 207.452 45.3189ZM202.419 53.0068H212.486V98.4023H202.419V53.0068Z" fill="white"/>
<path d="M156.562 32.8721H196.375V42.6651H166.813V61.5188H193.446V71.2203H166.813V98.4027H156.562V32.8721Z" fill="white"/>
<path d="M96.6179 66.9557V66.9173C96.6171 66.9029 96.6171 66.8885 96.6179 66.874C95.463 59.3471 92.4665 52.4136 88.4918 46.177C87.9918 45.3884 87.4719 44.6132 86.9403 43.843C86.6825 43.4696 86.4209 43.0995 86.1553 42.7328C81.044 35.6376 64.9002 16.3476 56.4192 6.28996C53.2111 2.48397 51.0996 0 51.0996 0C50.143 0.766866 49.208 1.55818 48.2948 2.37395L48.2631 2.40228C41.6491 8.5865 36.1645 15.8777 32.056 23.9479L32.0426 23.9729C31.2516 25.5289 30.5128 27.1126 29.8261 28.7241C28.2377 32.4574 26.9465 36.3104 25.9648 40.2471C25.3692 42.6266 24.8871 45.0478 24.5182 47.5107C22.4884 47.1785 20.4382 46.9858 18.382 46.9338C17.9931 46.9238 17.6043 46.9188 17.2154 46.9188C13.8555 46.9163 10.5059 47.291 7.22949 48.0358C5.2239 51.2756 3.6094 54.7417 2.41983 58.3618C0.811797 63.2612 -0.00504604 68.3857 2.34521e-05 73.5424C2.34521e-05 97.1119 16.7888 116.762 39.0571 121.171C42.1801 121.79 45.3561 122.101 48.5398 122.1C49.168 122.1 49.793 122.087 50.4163 122.065C52.0528 122.001 53.6666 121.858 55.2576 121.638C58.9651 121.124 62.6003 120.181 66.0901 118.828C67.0201 118.467 67.9356 118.078 68.8366 117.661C85.502 109.974 97.0795 93.1092 97.0795 73.5424C97.0732 71.339 96.9189 69.1385 96.6179 66.9557ZM32.8726 110.599C28.0934 108.579 23.7517 105.65 20.0885 101.975C16.4155 98.3105 13.4883 93.968 11.4692 89.1881C9.37475 84.2363 8.30117 78.9125 8.31274 73.5358C8.30099 68.1584 9.37457 62.834 11.4692 57.8817C11.8025 57.0859 12.163 56.3046 12.5508 55.5378C14.0914 55.3445 15.6427 55.2476 17.1954 55.2476C19.3797 55.2475 21.5597 55.4405 23.7099 55.8245C23.6633 56.9098 23.6399 58.0051 23.6399 59.1037C23.6106 79.543 31.667 99.1636 46.05 113.681C41.5137 113.414 37.0568 112.371 32.8726 110.599ZM50.7046 106.499C49.7291 105.462 48.7909 104.399 47.8898 103.308C43.5702 98.1073 40.0404 92.2979 37.4139 86.0673C33.8047 77.535 31.9539 68.3618 31.9727 59.097C31.9727 58.8447 31.9727 58.593 31.9727 58.3418C36.1015 60.1738 39.8555 62.7547 43.0452 65.9538C47.9902 70.8741 51.4142 77.1149 52.9078 83.9301C53.4725 86.5199 53.7563 89.1631 53.7544 91.8138C53.77 96.8667 52.7354 101.868 50.7163 106.499H50.7046ZM88.7701 74.9278C88.5155 82.4895 86.1301 89.8254 81.889 96.09C78.4423 101.178 73.883 105.413 68.5566 108.476L68.5033 108.451C67.1034 109.254 65.6565 109.971 64.1703 110.599C62.3188 111.382 60.4107 112.025 58.4624 112.521C58.1157 112.61 57.768 112.693 57.4191 112.771C57.2308 112.814 57.0441 112.856 56.8558 112.894C56.9291 112.761 57.0008 112.623 57.0708 112.486C57.1791 112.277 57.2858 112.069 57.3891 111.859C58.6614 109.314 59.686 106.652 60.4489 103.91C61.5437 99.975 62.0971 95.9087 62.0938 91.8238C62.0952 88.8521 61.8033 85.8875 61.2222 82.9732C58.1341 67.5258 47.1249 54.9426 32.6126 49.6312C33.2811 44.7179 34.4808 39.8918 36.1907 35.2375C36.574 34.1961 36.9823 33.1619 37.4156 32.135C38.0689 30.5879 38.7755 29.0709 39.5354 27.5838C39.54 27.5764 39.5439 27.5686 39.5471 27.5605C39.8587 26.912 40.1804 26.2735 40.5137 25.6367C43.1296 20.6538 46.4272 16.06 50.3113 11.9881L50.3763 12.0665C53.8194 16.1509 58.4274 21.6456 63.017 27.1821C65.3652 30.0161 67.7084 32.8618 69.8882 35.5375C73.9762 40.5572 77.4893 44.9783 79.3875 47.604C79.6591 47.9808 79.9241 48.3559 80.1841 48.736C82.9106 52.6954 85.0171 56.6981 86.4453 60.6574C87.3533 63.1539 88.0082 65.7353 88.4001 68.3627V68.3961C88.7209 70.5576 88.8459 72.7437 88.7735 74.9278H88.7701Z" fill="white"/>
<g filter="url(#filter0_d_47_2853)">
<circle cx="100" cy="90" r="30" fill="white"/>
<path d="M104.5 84.387C103.296 83.5827 101.865 83.1869 100.419 83.2581C98.9724 83.3294 97.5873 83.8638 96.468 84.7826C95.3488 85.7014 94.5546 86.9557 94.2029 88.3604C93.8512 89.7651 93.9605 91.2457 94.5147 92.5835C95.0689 93.9213 96.0387 95.0454 97.2808 95.7898C98.5228 96.5342 99.9714 96.8594 101.412 96.7175C102.854 96.5755 104.211 95.9739 105.284 95.0014C106.357 94.029 107.088 92.7372 107.371 91.317L112.417 96.3645C112.839 96.7864 113.076 97.3586 113.076 97.9552C113.076 98.5519 112.839 99.1241 112.417 99.546L110.296 101.667C109.874 102.089 109.302 102.326 108.705 102.326C108.109 102.326 107.536 102.089 107.115 101.667L104.5 99.054V102.75C104.5 103.347 104.263 103.919 103.841 104.341C103.419 104.763 102.847 105 102.25 105H99.25C98.6533 105 98.081 104.763 97.659 104.341C97.2371 103.919 97 103.347 97 102.75V99.054L94.3855 101.667C93.9636 102.089 93.3914 102.326 92.7947 102.326C92.1981 102.326 91.6259 102.089 91.204 101.667L89.083 99.546C88.6612 99.1241 88.4242 98.5519 88.4242 97.9552C88.4242 97.3586 88.6612 96.7864 89.083 96.3645L91.696 93.75H88C87.4033 93.75 86.831 93.5129 86.409 93.091C85.9871 92.669 85.75 92.0967 85.75 91.5V88.5C85.75 87.9033 85.9871 87.331 86.409 86.909C86.831 86.4871 87.4033 86.25 88 86.25H91.696L89.083 83.6355C88.6612 83.2136 88.4242 82.6414 88.4242 82.0447C88.4242 81.4481 88.6612 80.8759 89.083 80.454L91.204 78.333C91.6259 77.9112 92.1981 77.6742 92.7947 77.6742C93.3914 77.6742 93.9636 77.9112 94.3855 78.333L97 80.946V77.25C97 76.6533 97.2371 76.081 97.659 75.659C98.081 75.2371 98.6533 75 99.25 75H102.25C102.847 75 103.419 75.2371 103.841 75.659C104.263 76.081 104.5 76.6533 104.5 77.25V84.387ZM100.75 93C99.9544 93 99.1913 92.6839 98.6287 92.1213C98.0661 91.5587 97.75 90.7956 97.75 90C97.75 89.2044 98.0661 88.4413 98.6287 87.8787C99.1913 87.3161 99.9544 87 100.75 87C101.546 87 102.309 87.3161 102.871 87.8787C103.434 88.4413 103.75 89.2044 103.75 90C103.75 90.7956 103.434 91.5587 102.871 92.1213C102.309 92.6839 101.546 93 100.75 93Z" fill="#1F1F1F"/>
</g>
<defs>
<filter id="filter0_d_47_2853" x="68" y="58.6704" width="64" height="64" filterUnits="userSpaceOnUse" color-interpolation-filters="sRGB">
<feFlood flood-opacity="0" result="BackgroundImageFix"/>
<feColorMatrix in="SourceAlpha" type="matrix" values="0 0 0 0 0 0 0 0 0 0 0 0 0 0 0 0 0 0 127 0" result="hardAlpha"/>
<feOffset dy="0.670408"/>
<feGaussianBlur stdDeviation="1"/>
<feComposite in2="hardAlpha" operator="out"/>
<feColorMatrix type="matrix" values="0 0 0 0 0 0 0 0 0 0 0 0 0 0 0 0 0 0 0.3 0"/>
<feBlend mode="normal" in2="BackgroundImageFix" result="effect1_dropShadow_47_2853"/>
<feBlend mode="normal" in="SourceGraphic" in2="effect1_dropShadow_47_2853" result="shape"/>
</filter>
</defs>
</svg>
