<svg width="937" height="128" viewBox="0 0 937 128" fill="none" xmlns="http://www.w3.org/2000/svg">
<path d="M537.418 100.872C531.044 100.872 525.253 99.371 520.043 96.368C514.834 93.365 510.728 89.2589 507.725 84.0497C504.783 78.7791 503.313 72.9264 503.313 66.4915C503.313 60.0565 504.783 54.2344 507.725 49.0252C510.728 43.7546 514.834 39.6179 520.043 36.6149C525.253 33.6119 531.044 32.1105 537.418 32.1105C542.321 32.1105 546.794 33.0604 550.839 34.9602C554.945 36.7988 558.5 39.434 561.503 42.866L555.895 48.2897C553.383 45.2868 550.625 43.0805 547.622 41.6709C544.68 40.2614 541.279 39.5566 537.418 39.5566C532.638 39.5566 528.256 40.6904 524.272 42.9579C520.289 45.1642 517.102 48.3204 514.712 52.4265C512.383 56.4713 511.218 61.1596 511.218 66.4915C511.218 71.8233 512.383 76.5422 514.712 80.6483C517.102 84.6932 520.289 87.8493 524.272 90.1169C528.256 92.3232 532.638 93.4263 537.418 93.4263C545.385 93.4263 552.157 90.1475 557.734 83.59L563.433 89.1057C560.369 92.7215 556.6 95.6019 552.126 97.7469C547.652 99.8306 542.75 100.872 537.418 100.872ZM570.369 52.5184H577.815V60.0565H578.183C579.102 57.4825 580.879 55.3682 583.515 53.7135C586.15 51.9975 588.908 51.1395 591.788 51.1395C593.933 51.1395 595.772 51.4459 597.304 52.0588V60.5161C595.343 59.5356 593.136 59.0453 590.685 59.0453C588.417 59.0453 586.334 59.6888 584.434 60.9758C582.534 62.2628 581.002 64.0094 579.837 66.2157C578.734 68.3607 578.183 70.6895 578.183 73.2022V99.4016H570.369V52.5184ZM616.192 100.872C612.76 100.872 609.696 100.198 606.999 98.85C604.303 97.5018 602.219 95.6632 600.748 93.3344C599.277 90.9443 598.542 88.2477 598.542 85.2447C598.542 80.2806 600.411 76.4197 604.149 73.6618C607.888 70.8427 612.607 69.4331 618.306 69.4331C621.125 69.4331 623.73 69.7396 626.12 70.3524C628.572 70.9653 630.441 71.6701 631.728 72.4668V69.617C631.728 66.1237 630.502 63.3353 628.051 61.2516C625.599 59.1066 622.504 58.0341 618.766 58.0341C616.131 58.0341 613.71 58.6163 611.504 59.7807C609.297 60.8839 607.551 62.4466 606.264 64.469L600.38 60.0565C602.219 57.2374 604.732 55.0311 607.918 53.4377C611.167 51.8443 614.752 51.0476 618.674 51.0476C625.048 51.0476 630.042 52.7329 633.658 56.1036C637.335 59.413 639.174 63.9481 639.174 69.7089V99.4016H631.728V92.6909H631.36C630.012 94.9584 627.989 96.8889 625.293 98.4823C622.596 100.076 619.563 100.872 616.192 100.872ZM616.927 93.9779C619.563 93.9779 622.014 93.3037 624.282 91.9555C626.549 90.6072 628.357 88.7993 629.705 86.5317C631.054 84.2642 631.728 81.7821 631.728 79.0856C630.257 78.105 628.449 77.3083 626.304 76.6954C624.159 76.0826 621.892 75.7762 619.501 75.7762C615.211 75.7762 611.963 76.6648 609.757 78.4421C607.612 80.2193 606.54 82.5175 606.54 85.3367C606.54 87.9106 607.52 89.9943 609.481 91.5877C611.442 93.1812 613.924 93.9779 616.927 93.9779ZM664.12 100.872C659.095 100.872 654.897 99.708 651.526 97.3792C648.155 94.9891 645.765 91.9555 644.356 88.2783L651.342 85.1528C652.507 87.9719 654.223 90.1475 656.49 91.6797C658.819 93.2118 661.362 93.9779 664.12 93.9779C667.062 93.9779 669.574 93.3957 671.658 92.2312C673.742 91.0055 674.784 89.2896 674.784 87.0833C674.784 85.1222 673.956 83.5594 672.302 82.395C670.647 81.1693 668.042 80.1274 664.488 79.2694L658.788 77.7986C655.05 76.8793 651.986 75.3165 649.596 73.1103C647.205 70.904 646.01 68.0542 646.01 64.561C646.01 61.8644 646.807 59.5049 648.4 57.4825C650.055 55.3988 652.231 53.8054 654.927 52.7023C657.624 51.5992 660.535 51.0476 663.66 51.0476C667.767 51.0476 671.413 51.9362 674.6 53.7135C677.848 55.4908 680.146 57.9728 681.494 61.1596L674.692 64.2852C672.608 60.1178 668.9 58.0341 663.569 58.0341C660.995 58.0341 658.727 58.647 656.766 59.8727C654.866 61.0371 653.916 62.5386 653.916 64.3771C653.916 66.0931 654.59 67.5027 655.939 68.6058C657.287 69.6476 659.309 70.5056 662.006 71.1798L668.808 72.9264C673.405 74.0908 676.867 75.8374 679.196 78.1663C681.525 80.4338 682.69 83.2223 682.69 86.5317C682.69 89.4121 681.862 91.9555 680.207 94.1617C678.553 96.3067 676.316 97.9614 673.497 99.1258C670.678 100.29 667.552 100.872 664.12 100.872ZM689.369 33.5813H697.183V52.9781L696.815 59.413H697.183C698.47 57.0229 700.492 55.0311 703.25 53.4377C706.069 51.8443 709.133 51.0476 712.443 51.0476C718.142 51.0476 722.493 52.7329 725.496 56.1036C728.499 59.413 730.001 63.8255 730.001 69.3412V99.4016H722.187V70.5363C722.187 66.3076 721.114 63.1821 718.969 61.1596C716.824 59.1372 714.036 58.126 710.604 58.126C708.153 58.126 705.885 58.8614 703.801 60.3323C701.779 61.8031 700.155 63.703 698.929 66.0318C697.765 68.3607 697.183 70.7814 697.183 73.2941V99.4016H689.369V33.5813ZM739.419 33.5813H747.233V99.4016H739.419V33.5813ZM771.312 96.4599L751.915 52.5184H760.373L775.081 87.3591H775.265L789.422 52.5184H797.879L768.922 119.258H760.832L771.312 96.4599ZM820.551 100.137C818.651 100.137 816.874 99.8306 815.219 99.2178C813.626 98.6049 812.278 97.7776 811.174 96.7357C809.949 95.5713 809.029 94.223 808.417 92.6909C807.804 91.1588 807.497 89.2896 807.497 87.0833V59.5969H799.316V52.5184H807.497V39.2808H815.311V52.5184H826.71V59.5969H815.311V85.1528C815.311 87.7268 815.801 89.6266 816.782 90.8523C817.946 92.2006 819.632 92.8747 821.838 92.8747C823.615 92.8747 825.331 92.3538 826.986 91.312V98.942C826.067 99.371 825.117 99.6774 824.136 99.8613C823.217 100.045 822.022 100.137 820.551 100.137ZM839.405 43.8772C837.873 43.8772 836.555 43.3256 835.452 42.2225C834.349 41.1194 833.797 39.8017 833.797 38.2696C833.797 36.7375 834.349 35.4505 835.452 34.4087C836.555 33.3055 837.873 32.754 839.405 32.754C840.937 32.754 842.255 33.3055 843.358 34.4087C844.461 35.4505 845.012 36.7375 845.012 38.2696C845.012 39.8017 844.461 41.1194 843.358 42.2225C842.316 43.3256 840.998 43.8772 839.405 43.8772ZM835.544 52.5184H843.266V99.4016H835.544V52.5184ZM874.494 100.872C869.959 100.872 865.883 99.8 862.268 97.655C858.652 95.4487 855.833 92.4764 853.81 88.738C851.788 84.9383 850.777 80.679 850.777 75.96C850.777 71.2411 851.788 66.9817 853.81 63.1821C855.833 59.3824 858.652 56.41 862.268 54.2651C865.883 52.1201 869.959 51.0476 874.494 51.0476C879.581 51.0476 883.84 52.2426 887.272 54.6328C890.765 56.9616 893.247 60.0872 894.718 64.0094L887.64 66.9511C886.475 64.0707 884.729 61.8951 882.4 60.4242C880.132 58.8921 877.374 58.126 874.126 58.126C871.368 58.126 868.795 58.8921 866.404 60.4242C864.014 61.8951 862.084 63.9788 860.613 66.6753C859.203 69.3719 858.499 72.4668 858.499 75.96C858.499 79.4533 859.203 82.5482 860.613 85.2447C862.084 87.9413 864.014 90.0556 866.404 91.5877C868.795 93.0586 871.368 93.794 874.126 93.794C877.436 93.794 880.285 93.0279 882.676 91.4958C885.066 89.9637 886.843 87.7881 888.007 84.9689L894.994 87.9106C893.401 91.7716 890.827 94.8971 887.272 97.2873C883.779 99.6774 879.519 100.872 874.494 100.872ZM917.967 100.872C912.941 100.872 908.743 99.708 905.372 97.3792C902.002 94.9891 899.612 91.9555 898.202 88.2783L905.189 85.1528C906.353 87.9719 908.069 90.1475 910.337 91.6797C912.665 93.2118 915.209 93.9779 917.967 93.9779C920.908 93.9779 923.421 93.3957 925.505 92.2312C927.588 91.0055 928.63 89.2896 928.63 87.0833C928.63 85.1222 927.803 83.5594 926.148 82.395C924.493 81.1693 921.889 80.1274 918.334 79.2694L912.635 77.7986C908.896 76.8793 905.832 75.3165 903.442 73.1103C901.052 70.904 899.857 68.0542 899.857 64.561C899.857 61.8644 900.653 59.5049 902.247 57.4825C903.902 55.3988 906.077 53.8054 908.774 52.7023C911.47 51.5992 914.381 51.0476 917.507 51.0476C921.613 51.0476 925.259 51.9362 928.446 53.7135C931.694 55.4908 933.993 57.9728 935.341 61.1596L928.538 64.2852C926.455 60.1178 922.747 58.0341 917.415 58.0341C914.841 58.0341 912.573 58.647 910.612 59.8727C908.712 61.0371 907.763 62.5386 907.763 64.3771C907.763 66.0931 908.437 67.5027 909.785 68.6058C911.133 69.6476 913.156 70.5056 915.852 71.1798L922.655 72.9264C927.251 74.0908 930.714 75.8374 933.043 78.1663C935.372 80.4338 936.536 83.2223 936.536 86.5317C936.536 89.4121 935.709 91.9555 934.054 94.1617C932.399 96.3067 930.162 97.9614 927.343 99.1258C924.524 100.29 921.398 100.872 917.967 100.872Z" fill="#5A5A5A"/>
<path d="M461.612 99.8665C457.157 99.8665 453.13 98.8292 449.531 96.7547C445.992 94.6802 443.215 91.8125 441.202 88.1515C439.188 84.4296 438.182 80.2805 438.182 75.7044C438.182 71.3113 439.127 67.2842 441.019 63.6233C442.971 59.9014 445.687 56.9726 449.164 54.8371C452.642 52.6405 456.608 51.5422 461.062 51.5422C465.639 51.5422 469.605 52.549 472.96 54.5625C476.377 56.576 478.97 59.3827 480.74 62.9826C482.509 66.5215 483.394 70.6096 483.394 75.2467C483.394 75.7959 483.364 76.345 483.303 76.8942C483.242 77.4433 483.211 77.7484 483.211 77.8094H448.249C448.554 81.9585 450.049 85.1618 452.734 87.4193C455.419 89.6769 458.469 90.8057 461.886 90.8057C467.133 90.8057 471.161 88.3651 473.967 83.4838L482.57 87.6024C480.557 91.3243 477.75 94.3141 474.15 96.5717C470.611 98.7682 466.432 99.8665 461.612 99.8665ZM473.144 70.1215C473.021 68.6571 472.533 67.1622 471.679 65.6368C470.825 64.1114 469.483 62.8301 467.652 61.7928C465.883 60.6946 463.656 60.1454 460.971 60.1454C457.981 60.1454 455.388 61.0607 453.191 62.8911C451.056 64.7216 449.592 67.1317 448.798 70.1215H473.144Z" fill="#5A5A5A"/>
<path d="M416.087 99.8665C410.9 99.8665 406.599 98.6767 403.182 96.2971C399.826 93.8565 397.446 90.8057 396.043 87.1448L405.012 83.3008C406.05 85.8024 407.544 87.6939 409.497 88.9752C411.51 90.2566 413.707 90.8972 416.087 90.8972C418.588 90.8972 420.632 90.4396 422.219 89.5244C423.805 88.5481 424.598 87.2973 424.598 85.7719C424.598 84.3076 423.958 83.1177 422.676 82.2025C421.395 81.2263 419.29 80.3721 416.361 79.6399L410.138 78.1755C406.721 77.3823 403.761 75.9179 401.26 73.7824C398.819 71.5858 397.599 68.7486 397.599 65.2707C397.599 61.0607 399.338 57.7353 402.816 55.2947C406.294 52.7931 410.565 51.5422 415.629 51.5422C419.839 51.5422 423.561 52.427 426.795 54.1964C430.09 55.9659 432.469 58.5285 433.934 61.8844L425.056 65.6368C424.202 63.7453 422.89 62.342 421.12 61.4267C419.351 60.5115 417.429 60.0539 415.354 60.0539C413.341 60.0539 411.571 60.5115 410.046 61.4267C408.521 62.281 407.758 63.4403 407.758 64.9046C407.758 66.186 408.277 67.2232 409.314 68.0164C410.412 68.8096 412.121 69.4808 414.439 70.0299L421.212 71.6773C425.788 72.8366 429.205 74.6061 431.462 76.9857C433.72 79.3043 434.849 82.111 434.849 85.4058C434.849 88.0905 434.025 90.5311 432.378 92.7277C430.791 94.9242 428.564 96.6632 425.696 97.9445C422.89 99.2258 419.686 99.8665 416.087 99.8665Z" fill="#5A5A5A"/>
<path d="M367.921 99.8665C364.688 99.8665 361.759 99.2258 359.135 97.9445C356.573 96.6022 354.529 94.7717 353.003 92.4531C351.539 90.0735 350.807 87.3888 350.807 84.3991C350.807 79.6399 352.576 75.8874 356.115 73.1417C359.715 70.396 364.261 69.0232 369.752 69.0232C374.572 69.0232 378.691 69.8469 382.108 71.4943V69.5723C382.108 66.8266 381.009 64.569 378.813 62.7996C376.677 60.9691 374.084 60.0539 371.033 60.0539C366.396 60.0539 362.674 61.9454 359.867 65.7283L352.18 60.42C354.315 57.5523 356.969 55.3557 360.142 53.8303C363.376 52.3049 367.006 51.5422 371.033 51.5422C377.684 51.5422 382.809 53.2202 386.409 56.576C390.07 59.8708 391.901 64.5385 391.901 70.5791V98.4021H382.108V92.8192H381.558C380.094 94.8937 378.233 96.6022 375.976 97.9445C373.718 99.2258 371.033 99.8665 367.921 99.8665ZM369.569 91.5379C371.826 91.5379 373.901 90.9887 375.792 89.8905C377.745 88.7312 379.27 87.2363 380.369 85.4058C381.528 83.5143 382.108 81.5008 382.108 79.3653C378.874 77.5958 375.426 76.7111 371.765 76.7111C368.41 76.7111 365.786 77.4433 363.894 78.9077C362.003 80.372 361.057 82.233 361.057 84.4906C361.057 86.5651 361.881 88.2736 363.528 89.6159C365.237 90.8972 367.25 91.5379 369.569 91.5379Z" fill="#5A5A5A"/>
<path d="M325.684 99.8661C322.389 99.8661 319.43 99.1644 316.806 97.7611C314.244 96.3577 312.322 94.5882 311.04 92.4527H310.491V98.4017H300.973V32.8711H311.04V52.5486L310.491 58.8637H311.04C312.322 56.7892 314.244 55.0502 316.806 53.6469C319.43 52.2435 322.389 51.5418 325.684 51.5418C329.589 51.5418 333.189 52.5791 336.484 54.6536C339.84 56.7281 342.494 59.6264 344.446 63.3483C346.46 67.0093 347.466 71.1278 347.466 75.704C347.466 80.2801 346.46 84.3987 344.446 88.0596C342.494 91.7205 339.84 94.6188 336.484 96.7543C333.189 98.8288 329.589 99.8661 325.684 99.8661ZM323.945 90.6222C326.325 90.6222 328.521 90.0121 330.535 88.7918C332.609 87.5715 334.257 85.8325 335.477 83.575C336.758 81.2564 337.399 78.6327 337.399 75.704C337.399 72.7752 336.758 70.1821 335.477 67.9245C334.257 65.6059 332.609 63.8364 330.535 62.6161C328.521 61.3958 326.325 60.7857 323.945 60.7857C321.565 60.7857 319.338 61.3958 317.264 62.6161C315.25 63.8364 313.603 65.5754 312.322 67.833C311.101 70.0905 310.491 72.7142 310.491 75.704C310.491 78.6937 311.101 81.3174 312.322 83.575C313.603 85.8325 315.25 87.5715 317.264 88.7918C319.338 90.0121 321.565 90.6222 323.945 90.6222Z" fill="#5A5A5A"/>
<path d="M273.192 99.8666C268.738 99.8666 264.711 98.8294 261.111 96.7548C257.572 94.6803 254.795 91.8126 252.782 88.1516C250.768 84.4297 249.762 80.2807 249.762 75.7045C249.762 71.3114 250.707 67.2844 252.599 63.6234C254.551 59.9015 257.267 56.9727 260.745 54.8372C264.222 52.6406 268.188 51.5424 272.643 51.5424C277.219 51.5424 281.185 52.5491 284.541 54.5626C287.957 56.5761 290.551 59.3828 292.32 62.9828C294.089 66.5217 294.974 70.6097 294.974 75.2469C294.974 75.796 294.944 76.3452 294.883 76.8943C294.822 77.4434 294.791 77.7485 294.791 77.8095H259.829C260.134 81.9586 261.629 85.1619 264.314 87.4195C266.999 89.677 270.049 90.8058 273.466 90.8058C278.714 90.8058 282.741 88.3652 285.547 83.484L294.15 87.6025C292.137 91.3245 289.33 94.3142 285.73 96.5718C282.191 98.7683 278.012 99.8666 273.192 99.8666ZM284.724 70.1216C284.602 68.6572 284.113 67.1623 283.259 65.6369C282.405 64.1115 281.063 62.8302 279.232 61.793C277.463 60.6947 275.236 60.1455 272.551 60.1455C269.561 60.1455 266.968 61.0608 264.772 62.8912C262.636 64.7217 261.172 67.1318 260.378 70.1216H284.724Z" fill="#5A5A5A"/>
<path d="M221.822 53.0066H231.341V59.7794H231.89C232.866 57.4608 234.636 55.5388 237.198 54.0134C239.761 52.427 242.384 51.6338 245.069 51.6338C247.266 51.6338 249.066 51.9389 250.469 52.549V63.0742C248.395 62.0369 246.076 61.5183 243.513 61.5183C240.218 61.5183 237.442 62.7996 235.185 65.3623C232.988 67.8639 231.89 70.9452 231.89 74.6061V98.4021H221.822V53.0066Z" fill="#5A5A5A"/>
<path d="M207.452 45.3184C205.561 45.3184 203.944 44.6777 202.602 43.3964C201.32 42.0541 200.68 40.4371 200.68 38.5457C200.68 36.6542 201.32 35.0678 202.602 33.7865C203.944 32.4441 205.561 31.7729 207.452 31.7729C209.344 31.7729 210.93 32.4441 212.212 33.7865C213.554 35.0678 214.225 36.6542 214.225 38.5457C214.225 40.4371 213.554 42.0541 212.212 43.3964C210.93 44.6777 209.344 45.3184 207.452 45.3184ZM202.419 53.0063H212.486V98.4018H202.419V53.0063Z" fill="#5A5A5A"/>
<path d="M156.562 32.8712H196.375V42.6642H166.813V61.518H193.446V71.2194H166.813V98.4018H156.562V32.8712Z" fill="#5A5A5A"/>
<path d="M31.6562 118.567C36.7084 120.601 42.1896 121.807 47.9447 122.008C55.7335 122.28 63.1403 120.67 69.7616 117.611C61.8214 114.491 54.6303 109.929 48.4929 104.257C44.5147 110.627 38.6305 115.658 31.6562 118.567Z" fill="#FF9100"/>
<path d="M48.4923 104.259C34.4827 91.3021 25.9838 72.5485 26.7021 51.9791C26.7254 51.3112 26.7607 50.6436 26.8019 49.9763C24.2928 49.3274 21.6734 48.9314 18.9777 48.8373C15.1191 48.7025 11.3823 49.1811 7.85452 50.1745C4.11472 56.7256 1.85787 64.2421 1.57672 72.2933C0.851127 93.0715 13.4253 111.227 31.6556 118.569C38.63 115.66 44.5139 110.635 48.4923 104.259Z" fill="#FFC400"/>
<path d="M48.4937 104.258C51.7509 99.0459 53.7258 92.9348 53.9557 86.3506C54.5605 69.0316 42.9175 54.133 26.8033 49.9757C26.762 50.643 26.7268 51.3105 26.7035 51.9785C25.9852 72.5479 34.484 91.3015 48.4937 104.258Z" fill="#FF9100"/>
<path d="M52.1543 1.29291C42.9766 8.64534 35.7294 18.3402 31.3447 29.5084C28.8344 35.9054 27.2569 42.7768 26.7964 49.9798C42.9106 54.1372 54.5536 69.0358 53.9488 86.3548C53.7189 92.939 51.7382 99.044 48.4868 104.263C54.6239 109.941 61.8153 114.497 69.7555 117.616C85.693 110.249 97.0006 94.3967 97.6554 75.6462C98.0796 63.4978 93.4121 52.6704 86.8167 43.5311C79.8515 33.8654 52.1543 1.29291 52.1543 1.29291Z" fill="#DD2C00"/>
<g filter="url(#filter0_d_47_1008)">
<circle cx="100" cy="90" r="30" fill="white"/>
<path d="M104.5 84.387C103.296 83.5827 101.865 83.1869 100.419 83.2581C98.9724 83.3294 97.5873 83.8638 96.468 84.7826C95.3488 85.7014 94.5546 86.9557 94.2029 88.3604C93.8512 89.7651 93.9605 91.2457 94.5147 92.5835C95.0689 93.9213 96.0387 95.0454 97.2808 95.7898C98.5228 96.5342 99.9714 96.8594 101.412 96.7175C102.854 96.5755 104.211 95.9739 105.284 95.0014C106.357 94.029 107.088 92.7372 107.371 91.317L112.417 96.3645C112.839 96.7864 113.076 97.3586 113.076 97.9552C113.076 98.5519 112.839 99.1241 112.417 99.546L110.296 101.667C109.874 102.089 109.302 102.326 108.705 102.326C108.109 102.326 107.536 102.089 107.115 101.667L104.5 99.054V102.75C104.5 103.347 104.263 103.919 103.841 104.341C103.419 104.763 102.847 105 102.25 105H99.25C98.6533 105 98.081 104.763 97.659 104.341C97.2371 103.919 97 103.347 97 102.75V99.054L94.3855 101.667C93.9636 102.089 93.3914 102.326 92.7947 102.326C92.1981 102.326 91.6259 102.089 91.204 101.667L89.083 99.546C88.6612 99.1241 88.4242 98.5519 88.4242 97.9552C88.4242 97.3586 88.6612 96.7864 89.083 96.3645L91.696 93.75H88C87.4033 93.75 86.831 93.5129 86.409 93.091C85.9871 92.669 85.75 92.0967 85.75 91.5V88.5C85.75 87.9033 85.9871 87.331 86.409 86.909C86.831 86.4871 87.4033 86.25 88 86.25H91.696L89.083 83.6355C88.6612 83.2136 88.4242 82.6414 88.4242 82.0447C88.4242 81.4481 88.6612 80.8759 89.083 80.454L91.204 78.333C91.6259 77.9112 92.1981 77.6742 92.7947 77.6742C93.3914 77.6742 93.9636 77.9112 94.3855 78.333L97 80.946V77.25C97 76.6533 97.2371 76.081 97.659 75.659C98.081 75.2371 98.6533 75 99.25 75H102.25C102.847 75 103.419 75.2371 103.841 75.659C104.263 76.081 104.5 76.6533 104.5 77.25V84.387ZM100.75 93C99.9544 93 99.1913 92.6839 98.6287 92.1213C98.0661 91.5587 97.75 90.7956 97.75 90C97.75 89.2044 98.0661 88.4413 98.6287 87.8787C99.1913 87.3161 99.9544 87 100.75 87C101.546 87 102.309 87.3161 102.871 87.8787C103.434 88.4413 103.75 89.2044 103.75 90C103.75 90.7956 103.434 91.5587 102.871 92.1213C102.309 92.6839 101.546 93 100.75 93Z" fill="#1F1F1F"/>
</g>
<defs>
<filter id="filter0_d_47_1008" x="68" y="58.6704" width="64" height="64" filterUnits="userSpaceOnUse" color-interpolation-filters="sRGB">
<feFlood flood-opacity="0" result="BackgroundImageFix"/>
<feColorMatrix in="SourceAlpha" type="matrix" values="0 0 0 0 0 0 0 0 0 0 0 0 0 0 0 0 0 0 127 0" result="hardAlpha"/>
<feOffset dy="0.670408"/>
<feGaussianBlur stdDeviation="1"/>
<feComposite in2="hardAlpha" operator="out"/>
<feColorMatrix type="matrix" values="0 0 0 0 0 0 0 0 0 0 0 0 0 0 0 0 0 0 0.3 0"/>
<feBlend mode="normal" in2="BackgroundImageFix" result="effect1_dropShadow_47_1008"/>
<feBlend mode="normal" in="SourceGraphic" in2="effect1_dropShadow_47_1008" result="shape"/>
</filter>
</defs>
</svg>
