<svg width="1049" height="128" viewBox="0 0 1049 128" fill="none" xmlns="http://www.w3.org/2000/svg">
<path d="M506.53 33.5813H526.386C533.128 33.5813 539.011 34.9909 544.037 37.81C549.062 40.5678 552.923 44.4288 555.619 49.3929C558.316 54.357 559.664 60.0565 559.664 66.4915C559.664 72.9264 558.316 78.6259 555.619 83.59C552.923 88.5541 549.062 92.4457 544.037 95.2649C539.011 98.0227 533.128 99.4016 526.386 99.4016H506.53V33.5813ZM526.386 91.9555C534.17 91.9555 540.329 89.7185 544.864 85.2447C549.46 80.7709 551.758 74.5198 551.758 66.4915C551.758 58.4631 549.46 52.212 544.864 47.7382C540.329 43.2644 534.17 41.0275 526.386 41.0275H514.252V91.9555H526.386ZM582.75 100.872C579.318 100.872 576.253 100.198 573.557 98.85C570.86 97.5018 568.777 95.6632 567.306 93.3344C565.835 90.9443 565.1 88.2477 565.1 85.2447C565.1 80.2806 566.969 76.4197 570.707 73.6618C574.445 70.8427 579.164 69.4331 584.864 69.4331C587.683 69.4331 590.288 69.7396 592.678 70.3524C595.129 70.9653 596.998 71.6701 598.285 72.4668V69.617C598.285 66.1237 597.06 63.3353 594.608 61.2516C592.157 59.1066 589.062 58.0341 585.324 58.0341C582.688 58.0341 580.268 58.6163 578.061 59.7807C575.855 60.8839 574.108 62.4466 572.821 64.469L566.938 60.0565C568.777 57.2374 571.289 55.0311 574.476 53.4377C577.724 51.8443 581.309 51.0476 585.232 51.0476C591.605 51.0476 596.6 52.7329 600.216 56.1036C603.893 59.413 605.732 63.9481 605.732 69.7089V99.4016H598.285V92.6909H597.918C596.569 94.9584 594.547 96.8889 591.85 98.4823C589.154 100.076 586.12 100.872 582.75 100.872ZM583.485 93.9779C586.12 93.9779 588.572 93.3037 590.839 91.9555C593.107 90.6072 594.915 88.7993 596.263 86.5317C597.611 84.2642 598.285 81.7821 598.285 79.0856C596.815 78.105 595.007 77.3083 592.862 76.6954C590.717 76.0826 588.449 75.7762 586.059 75.7762C581.769 75.7762 578.521 76.6648 576.315 78.4421C574.17 80.2193 573.097 82.5175 573.097 85.3367C573.097 87.9106 574.078 89.9943 576.039 91.5877C578 93.1812 580.482 93.9779 583.485 93.9779ZM631.884 100.137C629.984 100.137 628.207 99.8306 626.552 99.2178C624.958 98.6049 623.61 97.7776 622.507 96.7357C621.281 95.5713 620.362 94.223 619.749 92.6909C619.136 91.1588 618.83 89.2896 618.83 87.0833V59.5969H610.648V52.5184H618.83V39.2808H626.644V52.5184H638.043V59.5969H626.644V85.1528C626.644 87.7268 627.134 89.6266 628.115 90.8523C629.279 92.2006 630.964 92.8747 633.171 92.8747C634.948 92.8747 636.664 92.3538 638.319 91.312V98.942C637.399 99.371 636.449 99.6774 635.469 99.8613C634.55 100.045 633.354 100.137 631.884 100.137ZM659.779 100.872C656.347 100.872 653.282 100.198 650.586 98.85C647.889 97.5018 645.806 95.6632 644.335 93.3344C642.864 90.9443 642.129 88.2477 642.129 85.2447C642.129 80.2806 643.998 76.4197 647.736 73.6618C651.475 70.8427 656.193 69.4331 661.893 69.4331C664.712 69.4331 667.317 69.7396 669.707 70.3524C672.158 70.9653 674.027 71.6701 675.314 72.4668V69.617C675.314 66.1237 674.089 63.3353 671.637 61.2516C669.186 59.1066 666.091 58.0341 662.353 58.0341C659.717 58.0341 657.297 58.6163 655.09 59.7807C652.884 60.8839 651.137 62.4466 649.85 64.469L643.967 60.0565C645.806 57.2374 648.318 55.0311 651.505 53.4377C654.753 51.8443 658.338 51.0476 662.261 51.0476C668.634 51.0476 673.629 52.7329 677.245 56.1036C680.922 59.413 682.761 63.9481 682.761 69.7089V99.4016H675.314V92.6909H674.947C673.598 94.9584 671.576 96.8889 668.88 98.4823C666.183 100.076 663.149 100.872 659.779 100.872ZM660.514 93.9779C663.149 93.9779 665.601 93.3037 667.868 91.9555C670.136 90.6072 671.944 88.7993 673.292 86.5317C674.64 84.2642 675.314 81.7821 675.314 79.0856C673.844 78.105 672.036 77.3083 669.891 76.6954C667.746 76.0826 665.478 75.7762 663.088 75.7762C658.798 75.7762 655.55 76.6648 653.344 78.4421C651.199 80.2193 650.126 82.5175 650.126 85.3367C650.126 87.9106 651.107 89.9943 653.068 91.5877C655.029 93.1812 657.511 93.9779 660.514 93.9779ZM741.975 100.872C735.601 100.872 729.81 99.371 724.601 96.368C719.391 93.365 715.285 89.2589 712.282 84.0497C709.341 78.7791 707.87 72.9264 707.87 66.4915C707.87 60.0565 709.341 54.2344 712.282 49.0252C715.285 43.7546 719.391 39.6179 724.601 36.6149C729.81 33.6119 735.601 32.1105 741.975 32.1105C746.878 32.1105 751.352 33.0604 755.397 34.9602C759.503 36.7988 763.057 39.434 766.06 42.866L760.453 48.2897C757.94 45.2868 755.182 43.0805 752.179 41.6709C749.237 40.2614 745.836 39.5566 741.975 39.5566C737.195 39.5566 732.813 40.6904 728.829 42.9579C724.846 45.1642 721.659 48.3204 719.269 52.4265C716.94 56.4713 715.776 61.1596 715.776 66.4915C715.776 71.8233 716.94 76.5422 719.269 80.6483C721.659 84.6932 724.846 87.8493 728.829 90.1169C732.813 92.3232 737.195 93.4263 741.975 93.4263C749.942 93.4263 756.714 90.1475 762.291 83.59L767.991 89.1057C764.926 92.7215 761.157 95.6019 756.684 97.7469C752.21 99.8306 747.307 100.872 741.975 100.872ZM795.631 100.872C791.035 100.872 786.898 99.7693 783.221 97.5631C779.544 95.3568 776.664 92.3538 774.58 88.5541C772.558 84.7544 771.546 80.5564 771.546 75.96C771.546 71.3636 772.558 67.1656 774.58 63.3659C776.664 59.5662 779.544 56.5633 783.221 54.357C786.898 52.1507 791.035 51.0476 795.631 51.0476C800.228 51.0476 804.365 52.1507 808.042 54.357C811.719 56.5633 814.569 59.5662 816.591 63.3659C818.675 67.1656 819.717 71.3636 819.717 75.96C819.717 80.5564 818.675 84.7544 816.591 88.5541C814.569 92.3538 811.719 95.3568 808.042 97.5631C804.365 99.7693 800.228 100.872 795.631 100.872ZM795.631 93.794C798.512 93.794 801.178 93.0892 803.629 91.6797C806.142 90.2088 808.134 88.1251 809.604 85.4286C811.137 82.732 811.903 79.5758 811.903 75.96C811.903 72.3442 811.137 69.188 809.604 66.4915C808.134 63.7949 806.142 61.7419 803.629 60.3323C801.178 58.8614 798.512 58.126 795.631 58.126C792.751 58.126 790.055 58.8614 787.542 60.3323C785.029 61.7419 783.007 63.7949 781.475 66.4915C780.004 69.188 779.268 72.3442 779.268 75.96C779.268 79.5758 780.004 82.732 781.475 85.4286C783.007 88.1251 785.029 90.2088 787.542 91.6797C790.055 93.0892 792.751 93.794 795.631 93.794ZM826.054 52.5184H833.5V59.413H833.868C835.155 57.0842 837.208 55.1231 840.027 53.5296C842.846 51.8749 845.849 51.0476 849.036 51.0476C854.674 51.0476 858.964 52.7023 861.906 56.0117C864.909 59.2598 866.41 63.703 866.41 69.3412V99.4016H858.596V70.5363C858.596 66.185 857.554 63.0288 855.471 61.0677C853.387 59.1066 850.537 58.126 846.921 58.126C844.409 58.126 842.141 58.8308 840.119 60.2404C838.158 61.6499 836.626 63.5191 835.522 65.848C834.419 68.1155 833.868 70.5056 833.868 73.0183V99.4016H826.054V52.5184ZM875.745 52.5184H883.191V59.413H883.559C884.846 57.0842 886.899 55.1231 889.718 53.5296C892.537 51.8749 895.54 51.0476 898.727 51.0476C904.365 51.0476 908.655 52.7023 911.597 56.0117C914.6 59.2598 916.101 63.703 916.101 69.3412V99.4016H908.288V70.5363C908.288 66.185 907.246 63.0288 905.162 61.0677C903.078 59.1066 900.229 58.126 896.613 58.126C894.1 58.126 891.832 58.8308 889.81 60.2404C887.849 61.6499 886.317 63.5191 885.214 65.848C884.111 68.1155 883.559 70.5056 883.559 73.0183V99.4016H875.745V52.5184ZM946.304 100.872C941.83 100.872 937.816 99.8 934.261 97.655C930.707 95.51 927.918 92.5683 925.896 88.8299C923.935 85.0302 922.954 80.7709 922.954 76.0519C922.954 71.5168 923.874 67.3494 925.712 63.5498C927.612 59.7501 930.278 56.7165 933.71 54.4489C937.142 52.1814 941.125 51.0476 945.66 51.0476C950.257 51.0476 954.24 52.0894 957.611 54.1731C960.982 56.1955 963.556 59.0147 965.333 62.6305C967.172 66.2463 968.091 70.3831 968.091 75.0407C968.091 75.96 967.999 76.7567 967.815 77.4309H930.768C930.952 80.9854 931.81 83.9884 933.342 86.4398C934.874 88.8912 936.805 90.7298 939.134 91.9555C941.524 93.1812 944.006 93.794 946.58 93.794C952.586 93.794 957.213 90.9749 960.461 85.3367L967.08 88.5541C965.057 92.3538 962.299 95.3568 958.806 97.5631C955.374 99.7693 951.207 100.872 946.304 100.872ZM959.817 70.9959C959.695 69.0348 959.143 67.0737 958.163 65.1125C957.182 63.1514 955.619 61.4967 953.474 60.1484C951.391 58.8002 948.755 58.126 945.569 58.126C941.891 58.126 938.766 59.3211 936.192 61.7112C933.679 64.04 932.025 67.135 931.228 70.9959H959.817ZM997.081 100.872C992.546 100.872 988.471 99.8 984.855 97.655C981.239 95.4487 978.42 92.4764 976.397 88.738C974.375 84.9383 973.364 80.679 973.364 75.96C973.364 71.2411 974.375 66.9817 976.397 63.1821C978.42 59.3824 981.239 56.41 984.855 54.2651C988.471 52.1201 992.546 51.0476 997.081 51.0476C1002.17 51.0476 1006.43 52.2426 1009.86 54.6328C1013.35 56.9616 1015.83 60.0872 1017.31 64.0094L1010.23 66.9511C1009.06 64.0707 1007.32 61.8951 1004.99 60.4242C1002.72 58.8921 999.962 58.126 996.713 58.126C993.956 58.126 991.382 58.8921 988.992 60.4242C986.601 61.8951 984.671 63.9788 983.2 66.6753C981.791 69.3719 981.086 72.4668 981.086 75.96C981.086 79.4533 981.791 82.5482 983.2 85.2447C984.671 87.9413 986.601 90.0556 988.992 91.5877C991.382 93.0586 993.956 93.794 996.713 93.794C1000.02 93.794 1002.87 93.0279 1005.26 91.4958C1007.65 89.9637 1009.43 87.7881 1010.59 84.9689L1017.58 87.9106C1015.99 91.7716 1013.41 94.8971 1009.86 97.2873C1006.37 99.6774 1002.11 100.872 997.081 100.872ZM1041.76 100.137C1039.86 100.137 1038.08 99.8306 1036.43 99.2178C1034.83 98.6049 1033.49 97.7776 1032.38 96.7357C1031.16 95.5713 1030.24 94.223 1029.63 92.6909C1029.01 91.1588 1028.71 89.2896 1028.71 87.0833V59.5969H1020.52V52.5184H1028.71V39.2808H1036.52V52.5184H1047.92V59.5969H1036.52V85.1528C1036.52 87.7268 1037.01 89.6266 1037.99 90.8523C1039.15 92.2006 1040.84 92.8747 1043.05 92.8747C1044.82 92.8747 1046.54 92.3538 1048.19 91.312V98.942C1047.28 99.371 1046.33 99.6774 1045.34 99.8613C1044.43 100.045 1043.23 100.137 1041.76 100.137Z" fill="#5A5A5A"/>
<path d="M461.612 99.8665C457.157 99.8665 453.13 98.8292 449.531 96.7547C445.992 94.6802 443.215 91.8125 441.202 88.1515C439.188 84.4296 438.182 80.2805 438.182 75.7044C438.182 71.3113 439.127 67.2842 441.019 63.6233C442.971 59.9014 445.687 56.9726 449.164 54.8371C452.642 52.6405 456.608 51.5422 461.062 51.5422C465.639 51.5422 469.605 52.549 472.96 54.5625C476.377 56.576 478.97 59.3827 480.74 62.9826C482.509 66.5215 483.394 70.6096 483.394 75.2467C483.394 75.7959 483.364 76.345 483.303 76.8942C483.242 77.4433 483.211 77.7484 483.211 77.8094H448.249C448.554 81.9585 450.049 85.1618 452.734 87.4193C455.419 89.6769 458.469 90.8057 461.886 90.8057C467.133 90.8057 471.161 88.3651 473.967 83.4838L482.57 87.6024C480.557 91.3243 477.75 94.3141 474.15 96.5717C470.611 98.7682 466.432 99.8665 461.612 99.8665ZM473.144 70.1215C473.021 68.6571 472.533 67.1622 471.679 65.6368C470.825 64.1114 469.483 62.8301 467.652 61.7928C465.883 60.6946 463.656 60.1454 460.971 60.1454C457.981 60.1454 455.388 61.0607 453.191 62.8911C451.056 64.7216 449.592 67.1317 448.798 70.1215H473.144Z" fill="#5A5A5A"/>
<path d="M416.087 99.8665C410.9 99.8665 406.599 98.6767 403.182 96.2971C399.826 93.8565 397.446 90.8057 396.043 87.1448L405.012 83.3008C406.05 85.8024 407.544 87.6939 409.497 88.9752C411.51 90.2566 413.707 90.8972 416.087 90.8972C418.588 90.8972 420.632 90.4396 422.219 89.5244C423.805 88.5481 424.598 87.2973 424.598 85.7719C424.598 84.3076 423.958 83.1177 422.676 82.2025C421.395 81.2263 419.29 80.3721 416.361 79.6399L410.138 78.1755C406.721 77.3823 403.761 75.9179 401.26 73.7824C398.819 71.5858 397.599 68.7486 397.599 65.2707C397.599 61.0607 399.338 57.7353 402.816 55.2947C406.294 52.7931 410.565 51.5422 415.629 51.5422C419.839 51.5422 423.561 52.427 426.795 54.1964C430.09 55.9659 432.469 58.5285 433.934 61.8844L425.056 65.6368C424.202 63.7453 422.89 62.342 421.12 61.4267C419.351 60.5115 417.429 60.0539 415.354 60.0539C413.341 60.0539 411.571 60.5115 410.046 61.4267C408.521 62.281 407.758 63.4403 407.758 64.9046C407.758 66.186 408.277 67.2232 409.314 68.0164C410.412 68.8096 412.121 69.4808 414.439 70.0299L421.212 71.6773C425.788 72.8366 429.205 74.6061 431.462 76.9857C433.72 79.3043 434.849 82.111 434.849 85.4058C434.849 88.0905 434.025 90.5311 432.378 92.7277C430.791 94.9242 428.564 96.6632 425.696 97.9445C422.89 99.2258 419.686 99.8665 416.087 99.8665Z" fill="#5A5A5A"/>
<path d="M367.921 99.8665C364.688 99.8665 361.759 99.2258 359.135 97.9445C356.573 96.6022 354.529 94.7717 353.003 92.4531C351.539 90.0735 350.807 87.3888 350.807 84.3991C350.807 79.6399 352.576 75.8874 356.115 73.1417C359.715 70.396 364.261 69.0232 369.752 69.0232C374.572 69.0232 378.691 69.8469 382.108 71.4943V69.5723C382.108 66.8266 381.009 64.569 378.813 62.7996C376.677 60.9691 374.084 60.0539 371.033 60.0539C366.396 60.0539 362.674 61.9454 359.867 65.7283L352.18 60.42C354.315 57.5523 356.969 55.3557 360.142 53.8303C363.376 52.3049 367.006 51.5422 371.033 51.5422C377.684 51.5422 382.809 53.2202 386.409 56.576C390.07 59.8708 391.901 64.5385 391.901 70.5791V98.4021H382.108V92.8192H381.558C380.094 94.8937 378.233 96.6022 375.976 97.9445C373.718 99.2258 371.033 99.8665 367.921 99.8665ZM369.569 91.5379C371.826 91.5379 373.901 90.9887 375.792 89.8905C377.745 88.7312 379.27 87.2363 380.369 85.4058C381.528 83.5143 382.108 81.5008 382.108 79.3653C378.874 77.5958 375.426 76.7111 371.765 76.7111C368.41 76.7111 365.786 77.4433 363.894 78.9077C362.003 80.372 361.057 82.233 361.057 84.4906C361.057 86.5651 361.881 88.2736 363.528 89.6159C365.237 90.8972 367.25 91.5379 369.569 91.5379Z" fill="#5A5A5A"/>
<path d="M325.684 99.8661C322.389 99.8661 319.43 99.1644 316.806 97.7611C314.244 96.3577 312.322 94.5882 311.04 92.4527H310.491V98.4017H300.973V32.8711H311.04V52.5486L310.491 58.8637H311.04C312.322 56.7892 314.244 55.0502 316.806 53.6469C319.43 52.2435 322.389 51.5418 325.684 51.5418C329.589 51.5418 333.189 52.5791 336.484 54.6536C339.84 56.7281 342.494 59.6264 344.446 63.3483C346.46 67.0093 347.466 71.1278 347.466 75.704C347.466 80.2801 346.46 84.3987 344.446 88.0596C342.494 91.7205 339.84 94.6188 336.484 96.7543C333.189 98.8288 329.589 99.8661 325.684 99.8661ZM323.945 90.6222C326.325 90.6222 328.521 90.0121 330.535 88.7918C332.609 87.5715 334.257 85.8325 335.477 83.575C336.758 81.2564 337.399 78.6327 337.399 75.704C337.399 72.7752 336.758 70.1821 335.477 67.9245C334.257 65.6059 332.609 63.8364 330.535 62.6161C328.521 61.3958 326.325 60.7857 323.945 60.7857C321.565 60.7857 319.338 61.3958 317.264 62.6161C315.25 63.8364 313.603 65.5754 312.322 67.833C311.101 70.0905 310.491 72.7142 310.491 75.704C310.491 78.6937 311.101 81.3174 312.322 83.575C313.603 85.8325 315.25 87.5715 317.264 88.7918C319.338 90.0121 321.565 90.6222 323.945 90.6222Z" fill="#5A5A5A"/>
<path d="M273.192 99.8666C268.738 99.8666 264.711 98.8294 261.111 96.7548C257.572 94.6803 254.795 91.8126 252.782 88.1516C250.768 84.4297 249.762 80.2807 249.762 75.7045C249.762 71.3114 250.707 67.2844 252.599 63.6234C254.551 59.9015 257.267 56.9727 260.745 54.8372C264.222 52.6406 268.188 51.5424 272.643 51.5424C277.219 51.5424 281.185 52.5491 284.541 54.5626C287.957 56.5761 290.551 59.3828 292.32 62.9828C294.089 66.5217 294.974 70.6097 294.974 75.2469C294.974 75.796 294.944 76.3452 294.883 76.8943C294.822 77.4434 294.791 77.7485 294.791 77.8095H259.829C260.134 81.9586 261.629 85.1619 264.314 87.4195C266.999 89.677 270.049 90.8058 273.466 90.8058C278.714 90.8058 282.741 88.3652 285.547 83.484L294.15 87.6025C292.137 91.3245 289.33 94.3142 285.73 96.5718C282.191 98.7683 278.012 99.8666 273.192 99.8666ZM284.724 70.1216C284.602 68.6572 284.113 67.1623 283.259 65.6369C282.405 64.1115 281.063 62.8302 279.232 61.793C277.463 60.6947 275.236 60.1455 272.551 60.1455C269.561 60.1455 266.968 61.0608 264.772 62.8912C262.636 64.7217 261.172 67.1318 260.378 70.1216H284.724Z" fill="#5A5A5A"/>
<path d="M221.822 53.0066H231.341V59.7794H231.89C232.866 57.4608 234.636 55.5388 237.198 54.0134C239.761 52.427 242.384 51.6338 245.069 51.6338C247.266 51.6338 249.066 51.9389 250.469 52.549V63.0742C248.395 62.0369 246.076 61.5183 243.513 61.5183C240.218 61.5183 237.442 62.7996 235.185 65.3623C232.988 67.8639 231.89 70.9452 231.89 74.6061V98.4021H221.822V53.0066Z" fill="#5A5A5A"/>
<path d="M207.452 45.3184C205.561 45.3184 203.944 44.6777 202.602 43.3964C201.32 42.0541 200.68 40.4371 200.68 38.5457C200.68 36.6542 201.32 35.0678 202.602 33.7865C203.944 32.4441 205.561 31.7729 207.452 31.7729C209.344 31.7729 210.93 32.4441 212.212 33.7865C213.554 35.0678 214.225 36.6542 214.225 38.5457C214.225 40.4371 213.554 42.0541 212.212 43.3964C210.93 44.6777 209.344 45.3184 207.452 45.3184ZM202.419 53.0063H212.486V98.4018H202.419V53.0063Z" fill="#5A5A5A"/>
<path d="M156.562 32.8712H196.375V42.6642H166.813V61.518H193.446V71.2194H166.813V98.4018H156.562V32.8712Z" fill="#5A5A5A"/>
<path d="M31.6581 118.567C36.7104 120.601 42.1915 121.807 47.9467 122.008C55.7355 122.28 63.1422 120.67 69.7635 117.611C61.8234 114.491 54.6322 109.929 48.4949 104.257C44.5166 110.627 38.6325 115.658 31.6581 118.567Z" fill="#FF9100"/>
<path d="M48.4923 104.259C34.4827 91.3021 25.9838 72.5485 26.7021 51.9791C26.7254 51.3112 26.7607 50.6436 26.8019 49.9763C24.2928 49.3274 21.6734 48.9314 18.9777 48.8373C15.1191 48.7025 11.3823 49.1811 7.85452 50.1745C4.11472 56.7256 1.85787 64.2421 1.57672 72.2933C0.851127 93.0715 13.4253 111.227 31.6556 118.569C38.63 115.66 44.5139 110.635 48.4923 104.259Z" fill="#FFC400"/>
<path d="M48.4937 104.258C51.7509 99.0459 53.7258 92.9348 53.9557 86.3506C54.5605 69.0316 42.9175 54.133 26.8033 49.9757C26.762 50.643 26.7268 51.3105 26.7035 51.9785C25.9852 72.5479 34.484 91.3015 48.4937 104.258Z" fill="#FF9100"/>
<path d="M52.1543 1.29291C42.9766 8.64534 35.7294 18.3402 31.3447 29.5084C28.8344 35.9054 27.2569 42.7768 26.7964 49.9798C42.9106 54.1372 54.5536 69.0358 53.9488 86.3548C53.7189 92.939 51.7382 99.044 48.4868 104.263C54.6239 109.941 61.8153 114.497 69.7555 117.616C85.693 110.249 97.0006 94.3967 97.6554 75.6462C98.0796 63.4978 93.4121 52.6704 86.8167 43.5311C79.8515 33.8654 52.1543 1.29291 52.1543 1.29291Z" fill="#DD2C00"/>
<g filter="url(#filter0_d_47_995)">
<circle cx="100" cy="90.4678" r="30" fill="white"/>
<path fill-rule="evenodd" clip-rule="evenodd" d="M100.346 100.392L93.2043 93.2501C94.4262 91.0994 94.1202 88.3161 92.2863 86.4821C90.0851 84.2809 86.5162 84.2809 84.315 86.4821C82.1138 88.6833 82.1138 92.2522 84.315 94.4534C86.1489 96.2874 88.9322 96.5934 91.083 95.3714L98.2246 102.513C100.364 104.652 103.164 104.668 104.984 103.175C106.814 101.673 107.291 98.9447 105.52 96.5062L96.8401 82.8525L96.8089 82.8102C95.905 81.5866 96.28 80.6186 96.8639 80.1369C97.4644 79.6415 98.5553 79.4437 99.6553 80.5438L104.79 85.6785C105.376 86.2642 106.326 86.2642 106.911 85.6785C107.497 85.0927 107.497 84.1429 106.911 83.5571L101.777 78.4224C99.6119 76.2577 96.7786 76.3182 94.9549 77.8227C93.1256 79.3317 92.5718 82.0809 94.363 84.5478L103.043 98.2015L103.074 98.2438C103.999 99.4959 103.605 100.425 103.081 100.855C102.536 101.302 101.472 101.517 100.346 100.392ZM86.4363 92.3321C87.4659 93.3618 89.1353 93.3618 90.165 92.3321C91.1946 91.3025 91.1946 89.6331 90.165 88.6034C89.1353 87.5738 87.4659 87.5738 86.4363 88.6034C85.4067 89.6331 85.4067 91.3025 86.4363 92.3321Z" fill="#1F1F1F"/>
<path d="M107.801 86.5678C105.647 88.7217 105.647 92.2139 107.801 94.3678C109.955 96.5217 113.447 96.5217 115.601 94.3678C117.755 92.2139 117.755 88.7217 115.601 86.5678C113.447 84.4139 109.955 84.4139 107.801 86.5678Z" fill="#1F1F1F"/>
</g>
<defs>
<filter id="filter0_d_47_995" x="68" y="59.1382" width="64" height="64" filterUnits="userSpaceOnUse" color-interpolation-filters="sRGB">
<feFlood flood-opacity="0" result="BackgroundImageFix"/>
<feColorMatrix in="SourceAlpha" type="matrix" values="0 0 0 0 0 0 0 0 0 0 0 0 0 0 0 0 0 0 127 0" result="hardAlpha"/>
<feOffset dy="0.670408"/>
<feGaussianBlur stdDeviation="1"/>
<feComposite in2="hardAlpha" operator="out"/>
<feColorMatrix type="matrix" values="0 0 0 0 0 0 0 0 0 0 0 0 0 0 0 0 0 0 0.3 0"/>
<feBlend mode="normal" in2="BackgroundImageFix" result="effect1_dropShadow_47_995"/>
<feBlend mode="normal" in="SourceGraphic" in2="effect1_dropShadow_47_995" result="shape"/>
</filter>
</defs>
</svg>
