<svg width="807" height="128" viewBox="0 0 807 128" fill="none" xmlns="http://www.w3.org/2000/svg">
<path d="M506.53 33.5813H514.252V62.0789H548.265V33.5813H555.987V99.4016H548.265V69.4331H514.252V99.4016H506.53V33.5813ZM588.92 100.872C584.323 100.872 580.186 99.7693 576.509 97.5631C572.832 95.3568 569.952 92.3538 567.868 88.5541C565.846 84.7544 564.835 80.5564 564.835 75.96C564.835 71.3636 565.846 67.1656 567.868 63.3659C569.952 59.5662 572.832 56.5633 576.509 54.357C580.186 52.1507 584.323 51.0476 588.92 51.0476C593.516 51.0476 597.653 52.1507 601.33 54.357C605.007 56.5633 607.857 59.5662 609.879 63.3659C611.963 67.1656 613.005 71.3636 613.005 75.96C613.005 80.5564 611.963 84.7544 609.879 88.5541C607.857 92.3538 605.007 95.3568 601.33 97.5631C597.653 99.7693 593.516 100.872 588.92 100.872ZM588.92 93.794C591.8 93.794 594.466 93.0892 596.917 91.6797C599.43 90.2088 601.422 88.1251 602.893 85.4286C604.425 82.732 605.191 79.5758 605.191 75.96C605.191 72.3442 604.425 69.188 602.893 66.4915C601.422 63.7949 599.43 61.7419 596.917 60.3323C594.466 58.8614 591.8 58.126 588.92 58.126C586.039 58.126 583.343 58.8614 580.83 60.3323C578.317 61.7419 576.295 63.7949 574.763 66.4915C573.292 69.188 572.556 72.3442 572.556 75.96C572.556 79.5758 573.292 82.732 574.763 85.4286C576.295 88.1251 578.317 90.2088 580.83 91.6797C583.343 93.0892 586.039 93.794 588.92 93.794ZM636.154 100.872C631.129 100.872 626.931 99.708 623.56 97.3792C620.189 94.9891 617.799 91.9555 616.389 88.2783L623.376 85.1528C624.54 87.9719 626.256 90.1475 628.524 91.6797C630.853 93.2118 633.396 93.9779 636.154 93.9779C639.096 93.9779 641.608 93.3957 643.692 92.2312C645.776 91.0055 646.818 89.2896 646.818 87.0833C646.818 85.1222 645.99 83.5594 644.336 82.395C642.681 81.1693 640.076 80.1274 636.522 79.2694L630.822 77.7986C627.084 76.8793 624.019 75.3165 621.629 73.1103C619.239 70.904 618.044 68.0542 618.044 64.561C618.044 61.8644 618.841 59.5049 620.434 57.4825C622.089 55.3988 624.265 53.8054 626.961 52.7023C629.658 51.5992 632.569 51.0476 635.694 51.0476C639.8 51.0476 643.447 51.9362 646.634 53.7135C649.882 55.4908 652.18 57.9728 653.528 61.1596L646.726 64.2852C644.642 60.1178 640.934 58.0341 635.602 58.0341C633.028 58.0341 630.761 58.647 628.8 59.8727C626.9 61.0371 625.95 62.5386 625.95 64.3771C625.95 66.0931 626.624 67.5027 627.972 68.6058C629.321 69.6476 631.343 70.5056 634.04 71.1798L640.842 72.9264C645.439 74.0908 648.901 75.8374 651.23 78.1663C653.559 80.4338 654.723 83.2223 654.723 86.5317C654.723 89.4121 653.896 91.9555 652.241 94.1617C650.587 96.3067 648.35 97.9614 645.531 99.1258C642.711 100.29 639.586 100.872 636.154 100.872ZM678.971 100.137C677.072 100.137 675.294 99.8306 673.64 99.2178C672.046 98.6049 670.698 97.7776 669.595 96.7357C668.369 95.5713 667.45 94.223 666.837 92.6909C666.224 91.1588 665.918 89.2896 665.918 87.0833V59.5969H657.736V52.5184H665.918V39.2808H673.732V52.5184H685.131V59.5969H673.732V85.1528C673.732 87.7268 674.222 89.6266 675.202 90.8523C676.367 92.2006 678.052 92.8747 680.258 92.8747C682.036 92.8747 683.752 92.3538 685.406 91.312V98.942C684.487 99.371 683.537 99.6774 682.557 99.8613C681.637 100.045 680.442 100.137 678.971 100.137ZM697.825 43.8772C696.293 43.8772 694.976 43.3256 693.872 42.2225C692.769 41.1194 692.218 39.8017 692.218 38.2696C692.218 36.7375 692.769 35.4505 693.872 34.4087C694.976 33.3055 696.293 32.754 697.825 32.754C699.357 32.754 700.675 33.3055 701.778 34.4087C702.881 35.4505 703.433 36.7375 703.433 38.2696C703.433 39.8017 702.881 41.1194 701.778 42.2225C700.736 43.3256 699.419 43.8772 697.825 43.8772ZM693.964 52.5184H701.686V99.4016H693.964V52.5184ZM712.128 52.5184H719.574V59.413H719.942C721.229 57.0842 723.282 55.1231 726.101 53.5296C728.92 51.8749 731.923 51.0476 735.11 51.0476C740.748 51.0476 745.038 52.7023 747.98 56.0117C750.983 59.2598 752.484 63.703 752.484 69.3412V99.4016H744.67V70.5363C744.67 66.185 743.629 63.0288 741.545 61.0677C739.461 59.1066 736.611 58.126 732.996 58.126C730.483 58.126 728.215 58.8308 726.193 60.2404C724.232 61.6499 722.7 63.5191 721.597 65.848C720.493 68.1155 719.942 70.5056 719.942 73.0183V99.4016H712.128V52.5184ZM781.962 120.729C776.447 120.729 771.881 119.442 768.265 116.868C764.71 114.294 762.32 111.199 761.095 107.583L768.173 104.55C769.215 107.246 770.931 109.422 773.321 111.076C775.772 112.792 778.653 113.65 781.962 113.65C786.804 113.65 790.542 112.241 793.177 109.422C795.874 106.603 797.222 102.619 797.222 97.4711V92.2312H796.855C795.322 94.6214 793.147 96.5825 790.328 98.1146C787.57 99.5855 784.414 100.321 780.859 100.321C776.814 100.321 773.107 99.279 769.736 97.1953C766.426 95.1116 763.791 92.2006 761.83 88.4622C759.869 84.7238 758.888 80.4645 758.888 75.6842C758.888 70.9653 759.869 66.7366 761.83 62.9982C763.791 59.1985 766.426 56.2568 769.736 54.1731C773.107 52.0894 776.814 51.0476 780.859 51.0476C784.414 51.0476 787.57 51.8136 790.328 53.3458C793.147 54.8166 795.322 56.7778 796.855 59.2292H797.222V52.5184H804.668V97.5631C804.668 105.101 802.585 110.831 798.417 114.754C794.25 118.737 788.765 120.729 781.962 120.729ZM781.962 93.2424C784.781 93.2424 787.325 92.5377 789.592 91.1281C791.921 89.7185 793.76 87.6961 795.108 85.0609C796.517 82.4256 797.222 79.3001 797.222 75.6842C797.222 72.0071 796.517 68.8509 795.108 66.2157C793.76 63.5804 791.921 61.5886 789.592 60.2404C787.325 58.8308 784.781 58.126 781.962 58.126C779.143 58.126 776.569 58.8308 774.24 60.2404C771.911 61.6499 770.042 63.6723 768.633 66.3076C767.284 68.9429 766.61 72.0684 766.61 75.6842C766.61 79.3001 767.284 82.4563 768.633 85.1528C770.042 87.7881 771.911 89.8105 774.24 91.22C776.569 92.5683 779.143 93.2424 781.962 93.2424Z" fill="#5A5A5A"/>
<path d="M461.612 99.8665C457.157 99.8665 453.13 98.8292 449.531 96.7547C445.992 94.6802 443.215 91.8125 441.202 88.1515C439.188 84.4296 438.182 80.2805 438.182 75.7044C438.182 71.3113 439.127 67.2842 441.019 63.6233C442.971 59.9014 445.687 56.9726 449.164 54.8371C452.642 52.6405 456.608 51.5422 461.062 51.5422C465.639 51.5422 469.605 52.549 472.96 54.5625C476.377 56.576 478.97 59.3827 480.74 62.9826C482.509 66.5215 483.394 70.6096 483.394 75.2467C483.394 75.7959 483.364 76.345 483.303 76.8942C483.242 77.4433 483.211 77.7484 483.211 77.8094H448.249C448.554 81.9585 450.049 85.1618 452.734 87.4193C455.419 89.6769 458.469 90.8057 461.886 90.8057C467.133 90.8057 471.161 88.3651 473.967 83.4838L482.57 87.6024C480.557 91.3243 477.75 94.3141 474.15 96.5717C470.611 98.7682 466.432 99.8665 461.612 99.8665ZM473.144 70.1215C473.021 68.6571 472.533 67.1622 471.679 65.6368C470.825 64.1114 469.483 62.8301 467.652 61.7928C465.883 60.6946 463.656 60.1454 460.971 60.1454C457.981 60.1454 455.388 61.0607 453.191 62.8911C451.056 64.7216 449.592 67.1317 448.798 70.1215H473.144Z" fill="#5A5A5A"/>
<path d="M416.087 99.8665C410.9 99.8665 406.599 98.6767 403.182 96.2971C399.826 93.8565 397.446 90.8057 396.043 87.1448L405.012 83.3008C406.05 85.8024 407.544 87.6939 409.497 88.9752C411.51 90.2566 413.707 90.8972 416.087 90.8972C418.588 90.8972 420.632 90.4396 422.219 89.5244C423.805 88.5481 424.598 87.2973 424.598 85.7719C424.598 84.3076 423.958 83.1177 422.676 82.2025C421.395 81.2263 419.29 80.3721 416.361 79.6399L410.138 78.1755C406.721 77.3823 403.761 75.9179 401.26 73.7824C398.819 71.5858 397.599 68.7486 397.599 65.2707C397.599 61.0607 399.338 57.7353 402.816 55.2947C406.294 52.7931 410.565 51.5422 415.629 51.5422C419.839 51.5422 423.561 52.427 426.795 54.1964C430.09 55.9659 432.469 58.5285 433.934 61.8844L425.056 65.6368C424.202 63.7453 422.89 62.342 421.12 61.4267C419.351 60.5115 417.429 60.0539 415.354 60.0539C413.341 60.0539 411.571 60.5115 410.046 61.4267C408.521 62.281 407.758 63.4403 407.758 64.9046C407.758 66.186 408.277 67.2232 409.314 68.0164C410.412 68.8096 412.121 69.4808 414.439 70.0299L421.212 71.6773C425.788 72.8366 429.205 74.6061 431.462 76.9857C433.72 79.3043 434.849 82.111 434.849 85.4058C434.849 88.0905 434.025 90.5311 432.378 92.7277C430.791 94.9242 428.564 96.6632 425.696 97.9445C422.89 99.2258 419.686 99.8665 416.087 99.8665Z" fill="#5A5A5A"/>
<path d="M367.921 99.8665C364.688 99.8665 361.759 99.2258 359.135 97.9445C356.573 96.6022 354.529 94.7717 353.003 92.4531C351.539 90.0735 350.807 87.3888 350.807 84.3991C350.807 79.6399 352.576 75.8874 356.115 73.1417C359.715 70.396 364.261 69.0232 369.752 69.0232C374.572 69.0232 378.691 69.8469 382.108 71.4943V69.5723C382.108 66.8266 381.009 64.569 378.813 62.7996C376.677 60.9691 374.084 60.0539 371.033 60.0539C366.396 60.0539 362.674 61.9454 359.867 65.7283L352.18 60.42C354.315 57.5523 356.969 55.3557 360.142 53.8303C363.376 52.3049 367.006 51.5422 371.033 51.5422C377.684 51.5422 382.809 53.2202 386.409 56.576C390.07 59.8708 391.901 64.5385 391.901 70.5791V98.4021H382.108V92.8192H381.558C380.094 94.8937 378.233 96.6022 375.976 97.9445C373.718 99.2258 371.033 99.8665 367.921 99.8665ZM369.569 91.5379C371.826 91.5379 373.901 90.9887 375.792 89.8905C377.745 88.7312 379.27 87.2363 380.369 85.4058C381.528 83.5143 382.108 81.5008 382.108 79.3653C378.874 77.5958 375.426 76.7111 371.765 76.7111C368.41 76.7111 365.786 77.4433 363.894 78.9077C362.003 80.372 361.057 82.233 361.057 84.4906C361.057 86.5651 361.881 88.2736 363.528 89.6159C365.237 90.8972 367.25 91.5379 369.569 91.5379Z" fill="#5A5A5A"/>
<path d="M325.684 99.8661C322.389 99.8661 319.43 99.1644 316.806 97.7611C314.244 96.3577 312.322 94.5882 311.04 92.4527H310.491V98.4017H300.973V32.8711H311.04V52.5486L310.491 58.8637H311.04C312.322 56.7892 314.244 55.0502 316.806 53.6469C319.43 52.2435 322.389 51.5418 325.684 51.5418C329.589 51.5418 333.189 52.5791 336.484 54.6536C339.84 56.7281 342.494 59.6264 344.446 63.3483C346.46 67.0093 347.466 71.1278 347.466 75.704C347.466 80.2801 346.46 84.3987 344.446 88.0596C342.494 91.7205 339.84 94.6188 336.484 96.7543C333.189 98.8288 329.589 99.8661 325.684 99.8661ZM323.945 90.6222C326.325 90.6222 328.521 90.0121 330.535 88.7918C332.609 87.5715 334.257 85.8325 335.477 83.575C336.758 81.2564 337.399 78.6327 337.399 75.704C337.399 72.7752 336.758 70.1821 335.477 67.9245C334.257 65.6059 332.609 63.8364 330.535 62.6161C328.521 61.3958 326.325 60.7857 323.945 60.7857C321.565 60.7857 319.338 61.3958 317.264 62.6161C315.25 63.8364 313.603 65.5754 312.322 67.833C311.101 70.0905 310.491 72.7142 310.491 75.704C310.491 78.6937 311.101 81.3174 312.322 83.575C313.603 85.8325 315.25 87.5715 317.264 88.7918C319.338 90.0121 321.565 90.6222 323.945 90.6222Z" fill="#5A5A5A"/>
<path d="M273.192 99.8667C268.738 99.8667 264.711 98.8295 261.111 96.7549C257.572 94.6804 254.795 91.8127 252.782 88.1518C250.768 84.4298 249.762 80.2808 249.762 75.7046C249.762 71.3115 250.707 67.2845 252.599 63.6235C254.551 59.9016 257.267 56.9729 260.745 54.8373C264.222 52.6408 268.188 51.5425 272.643 51.5425C277.219 51.5425 281.185 52.5492 284.541 54.5627C287.957 56.5763 290.551 59.383 292.32 62.9829C294.089 66.5218 294.974 70.6098 294.974 75.247C294.974 75.7961 294.944 76.3453 294.883 76.8944C294.822 77.4436 294.791 77.7486 294.791 77.8096H259.829C260.134 81.9587 261.629 85.162 264.314 87.4196C266.999 89.6772 270.049 90.8059 273.466 90.8059C278.714 90.8059 282.741 88.3653 285.547 83.4841L294.15 87.6026C292.137 91.3246 289.33 94.3143 285.73 96.5719C282.191 98.7685 278.012 99.8667 273.192 99.8667ZM284.724 70.1217C284.602 68.6573 284.113 67.1624 283.259 65.6371C282.405 64.1117 281.063 62.8303 279.232 61.7931C277.463 60.6948 275.236 60.1457 272.551 60.1457C269.561 60.1457 266.968 61.0609 264.772 62.8914C262.636 64.7218 261.172 67.1319 260.378 70.1217H284.724Z" fill="#5A5A5A"/>
<path d="M221.822 53.0066H231.341V59.7794H231.89C232.866 57.4608 234.636 55.5388 237.198 54.0134C239.761 52.427 242.384 51.6338 245.069 51.6338C247.266 51.6338 249.066 51.9389 250.469 52.549V63.0742C248.395 62.0369 246.076 61.5183 243.513 61.5183C240.218 61.5183 237.442 62.7996 235.185 65.3623C232.988 67.8639 231.89 70.9452 231.89 74.6061V98.4021H221.822V53.0066Z" fill="#5A5A5A"/>
<path d="M207.452 45.3184C205.561 45.3184 203.944 44.6777 202.602 43.3964C201.32 42.0541 200.68 40.4371 200.68 38.5457C200.68 36.6542 201.32 35.0678 202.602 33.7865C203.944 32.4441 205.561 31.7729 207.452 31.7729C209.344 31.7729 210.93 32.4441 212.212 33.7865C213.554 35.0678 214.225 36.6542 214.225 38.5457C214.225 40.4371 213.554 42.0541 212.212 43.3964C210.93 44.6777 209.344 45.3184 207.452 45.3184ZM202.419 53.0063H212.486V98.4018H202.419V53.0063Z" fill="#5A5A5A"/>
<path d="M156.562 32.8713H196.375V42.6643H166.813V61.5181H193.446V71.2196H166.813V98.402H156.562V32.8713Z" fill="#5A5A5A"/>
<path d="M31.6581 118.567C36.7104 120.601 42.1915 121.807 47.9467 122.008C55.7355 122.28 63.1422 120.67 69.7635 117.611C61.8234 114.491 54.6322 109.929 48.4949 104.257C44.5166 110.627 38.6325 115.658 31.6581 118.567Z" fill="#FF9100"/>
<path d="M48.4923 104.259C34.4827 91.302 25.9838 72.5484 26.7021 51.979C26.7254 51.311 26.7607 50.6435 26.8019 49.9762C24.2928 49.3273 21.6734 48.9313 18.9777 48.8371C15.1191 48.7024 11.3823 49.181 7.85452 50.1744C4.11472 56.7255 1.85787 64.242 1.57672 72.2932C0.851127 93.0713 13.4253 111.227 31.6556 118.569C38.63 115.66 44.5139 110.635 48.4923 104.259Z" fill="#FFC400"/>
<path d="M48.4937 104.258C51.7509 99.0459 53.7258 92.9348 53.9557 86.3506C54.5605 69.0316 42.9175 54.133 26.8033 49.9757C26.762 50.643 26.7268 51.3105 26.7035 51.9785C25.9852 72.5479 34.484 91.3015 48.4937 104.258Z" fill="#FF9100"/>
<path d="M52.1543 1.29291C42.9766 8.64534 35.7294 18.3402 31.3447 29.5084C28.8344 35.9054 27.2569 42.7768 26.7964 49.9798C42.9106 54.1372 54.5536 69.0358 53.9488 86.3548C53.7189 92.939 51.7382 99.044 48.4868 104.263C54.6239 109.941 61.8153 114.497 69.7555 117.616C85.693 110.249 97.0006 94.3967 97.6554 75.6462C98.0796 63.4978 93.4121 52.6704 86.8167 43.5311C79.8515 33.8654 52.1543 1.29291 52.1543 1.29291Z" fill="#DD2C00"/>
<g filter="url(#filter0_d_47_1001)">
<circle cx="100" cy="90" r="30" fill="white"/>
<path d="M100 75C91.72 75 85 81.72 85 90C85 98.28 91.72 105 100 105C108.28 105 115 98.28 115 90C115 81.72 108.28 75 100 75ZM98.5 101.895C92.575 101.16 88 96.12 88 90C88 89.07 88.12 88.185 88.315 87.315L95.5 94.5V96C95.5 97.65 96.85 99 98.5 99V101.895ZM108.85 98.085C108.46 96.87 107.35 96 106 96H104.5V91.5C104.5 90.675 103.825 90 103 90H94V87H97C97.825 87 98.5 86.325 98.5 85.5V82.5H101.5C103.15 82.5 104.5 81.15 104.5 79.5V78.885C108.895 80.67 112 84.975 112 90C112 93.12 110.8 95.955 108.85 98.085Z" fill="#1F1F1F"/>
</g>
<defs>
<filter id="filter0_d_47_1001" x="68" y="58.6704" width="64" height="64" filterUnits="userSpaceOnUse" color-interpolation-filters="sRGB">
<feFlood flood-opacity="0" result="BackgroundImageFix"/>
<feColorMatrix in="SourceAlpha" type="matrix" values="0 0 0 0 0 0 0 0 0 0 0 0 0 0 0 0 0 0 127 0" result="hardAlpha"/>
<feOffset dy="0.670408"/>
<feGaussianBlur stdDeviation="1"/>
<feComposite in2="hardAlpha" operator="out"/>
<feColorMatrix type="matrix" values="0 0 0 0 0 0 0 0 0 0 0 0 0 0 0 0 0 0 0.3 0"/>
<feBlend mode="normal" in2="BackgroundImageFix" result="effect1_dropShadow_47_1001"/>
<feBlend mode="normal" in="SourceGraphic" in2="effect1_dropShadow_47_1001" result="shape"/>
</filter>
</defs>
</svg>
