<svg width="1222" height="128" viewBox="0 0 1222 128" fill="none" xmlns="http://www.w3.org/2000/svg">
<path d="M506.53 33.5811H514.252V99.4014H506.53V33.5811ZM525.572 52.5182H533.018V59.4128H533.386C534.673 57.0839 536.726 55.1228 539.545 53.5294C542.364 51.8747 545.367 51.0473 548.554 51.0473C554.192 51.0473 558.482 52.702 561.424 56.0114C564.427 59.2596 565.928 63.7027 565.928 69.341V99.4014H558.114V70.536C558.114 66.1848 557.073 63.0286 554.989 61.0675C552.905 59.1063 550.055 58.1258 546.44 58.1258C543.927 58.1258 541.659 58.8306 539.637 60.2401C537.676 61.6497 536.144 63.5189 535.041 65.8477C533.937 68.1153 533.386 70.5054 533.386 73.0181V99.4014H525.572V52.5182ZM575.171 67.6863H604.312V74.1212H575.171V67.6863ZM634.502 33.5811H643.327L668.332 99.4014H659.782L653.163 81.2916H624.758L618.139 99.4014H609.59L634.502 33.5811ZM650.498 73.9374L641.764 50.22L639.099 43.1415H638.731L636.157 50.22L627.424 73.9374H650.498ZM673.739 52.5182H681.186V59.5047H681.553C682.963 57.1146 685.077 55.1228 687.896 53.5294C690.777 51.8747 693.994 51.0473 697.549 51.0473C701.716 51.0473 705.516 52.1198 708.948 54.2648C712.38 56.4098 715.076 59.3821 717.037 63.1818C718.999 66.9815 719.979 71.2408 719.979 75.9598C719.979 80.74 718.999 85.03 717.037 88.8297C715.076 92.5681 712.38 95.5098 708.948 97.6547C705.516 99.7997 701.716 100.872 697.549 100.872C693.994 100.872 690.777 100.076 687.896 98.4821C685.077 96.8274 682.963 94.8356 681.553 92.5068H681.186L681.553 98.9417V119.258H673.739V52.5182ZM696.63 93.7938C699.326 93.7938 701.869 93.0583 704.26 91.5875C706.65 90.1167 708.549 88.033 709.959 85.3364C711.43 82.5786 712.165 79.453 712.165 75.9598C712.165 72.4665 711.43 69.3716 709.959 66.6751C708.549 63.9172 706.65 61.8029 704.26 60.332C701.869 58.8612 699.326 58.1258 696.63 58.1258C693.933 58.1258 691.39 58.8612 689 60.332C686.609 61.8029 684.71 63.8866 683.3 66.5831C681.89 69.2797 681.186 72.4052 681.186 75.9598C681.186 79.5143 681.89 82.6399 683.3 85.3364C684.71 88.033 686.609 90.1167 689 91.5875C691.39 93.0583 693.933 93.7938 696.63 93.7938ZM725.944 52.5182H733.391V59.5047H733.758C735.168 57.1146 737.282 55.1228 740.101 53.5294C742.982 51.8747 746.199 51.0473 749.754 51.0473C753.921 51.0473 757.721 52.1198 761.153 54.2648C764.585 56.4098 767.281 59.3821 769.242 63.1818C771.204 66.9815 772.184 71.2408 772.184 75.9598C772.184 80.74 771.204 85.03 769.242 88.8297C767.281 92.5681 764.585 95.5098 761.153 97.6547C757.721 99.7997 753.921 100.872 749.754 100.872C746.199 100.872 742.982 100.076 740.101 98.4821C737.282 96.8274 735.168 94.8356 733.758 92.5068H733.391L733.758 98.9417V119.258H725.944V52.5182ZM748.834 93.7938C751.531 93.7938 754.074 93.0583 756.464 91.5875C758.855 90.1167 760.754 88.033 762.164 85.3364C763.635 82.5786 764.37 79.453 764.37 75.9598C764.37 72.4665 763.635 69.3716 762.164 66.6751C760.754 63.9172 758.855 61.8029 756.464 60.332C754.074 58.8612 751.531 58.1258 748.834 58.1258C746.138 58.1258 743.595 58.8612 741.204 60.332C738.814 61.8029 736.914 63.8866 735.505 66.5831C734.095 69.2797 733.391 72.4052 733.391 75.9598C733.391 79.5143 734.095 82.6399 735.505 85.3364C736.914 88.033 738.814 90.1167 741.204 91.5875C743.595 93.0583 746.138 93.7938 748.834 93.7938ZM800.505 33.5811H811.812L832.772 87.5427H833.139L854.099 33.5811H865.406V99.4014H857.684V57.5742L858.052 45.072H857.684L836.173 99.4014H829.738L808.227 45.072H807.859L808.227 57.5742V99.4014H800.505V33.5811ZM897.6 100.872C893.126 100.872 889.112 99.7997 885.558 97.6547C882.003 95.5098 879.215 92.5681 877.192 88.8297C875.231 85.03 874.251 80.7707 874.251 76.0517C874.251 71.5166 875.17 67.3492 877.008 63.5495C878.908 59.7498 881.574 56.7162 885.006 54.4487C888.438 52.1811 892.422 51.0473 896.957 51.0473C901.553 51.0473 905.537 52.0892 908.907 54.1729C912.278 56.1953 914.852 59.0144 916.629 62.6302C918.468 66.2461 919.387 70.3828 919.387 75.0405C919.387 75.9598 919.295 76.7565 919.111 77.4306H882.064C882.248 80.9852 883.106 83.9881 884.638 86.4395C886.171 88.891 888.101 90.7295 890.43 91.9552C892.82 93.1809 895.302 93.7938 897.876 93.7938C903.882 93.7938 908.509 90.9747 911.757 85.3364L918.376 88.5539C916.353 92.3536 913.596 95.3565 910.102 97.5628C906.67 99.7691 902.503 100.872 897.6 100.872ZM911.114 70.9957C910.991 69.0345 910.439 67.0734 909.459 65.1123C908.478 63.1512 906.916 61.4965 904.771 60.1482C902.687 58.7999 900.052 58.1258 896.865 58.1258C893.188 58.1258 890.062 59.3208 887.488 61.711C884.975 64.0398 883.321 67.1347 882.524 70.9957H911.114ZM943.505 100.872C938.48 100.872 934.282 99.7078 930.911 97.379C927.54 94.9888 925.15 91.9552 923.741 88.2781L930.727 85.1526C931.892 87.9717 933.608 90.1473 935.875 91.6794C938.204 93.2116 940.747 93.9776 943.505 93.9776C946.447 93.9776 948.96 93.3954 951.043 92.231C953.127 91.0053 954.169 89.2893 954.169 87.083C954.169 85.1219 953.341 83.5591 951.687 82.3947C950.032 81.169 947.427 80.1272 943.873 79.2692L938.173 77.7983C934.435 76.8791 931.371 75.3163 928.981 73.11C926.591 70.9037 925.395 68.054 925.395 64.5607C925.395 61.8642 926.192 59.5047 927.786 57.4823C929.44 55.3986 931.616 53.8052 934.312 52.702C937.009 51.5989 939.92 51.0473 943.046 51.0473C947.152 51.0473 950.798 51.936 953.985 53.7132C957.233 55.4905 959.531 57.9726 960.88 61.1594L954.077 64.2849C951.993 60.1176 948.285 58.0339 942.954 58.0339C940.38 58.0339 938.112 58.6467 936.151 59.8724C934.251 61.0368 933.301 62.5383 933.301 64.3769C933.301 66.0929 933.975 67.5024 935.324 68.6056C936.672 69.6474 938.694 70.5054 941.391 71.1795L948.194 72.9262C952.79 74.0906 956.253 75.8372 958.581 78.166C960.91 80.4336 962.075 83.2221 962.075 86.5315C962.075 89.4119 961.247 91.9552 959.593 94.1615C957.938 96.3065 955.701 97.9612 952.882 99.1256C950.063 100.29 946.937 100.872 943.505 100.872ZM985.117 100.872C980.092 100.872 975.893 99.7078 972.523 97.379C969.152 94.9888 966.762 91.9552 965.352 88.2781L972.339 85.1526C973.503 87.9717 975.219 90.1473 977.487 91.6794C979.816 93.2116 982.359 93.9776 985.117 93.9776C988.059 93.9776 990.571 93.3954 992.655 92.231C994.739 91.0053 995.781 89.2893 995.781 87.083C995.781 85.1219 994.953 83.5591 993.298 82.3947C991.644 81.169 989.039 80.1272 985.485 79.2692L979.785 77.7983C976.047 76.8791 972.982 75.3163 970.592 73.11C968.202 70.9037 967.007 68.054 967.007 64.5607C967.007 61.8642 967.804 59.5047 969.397 57.4823C971.052 55.3986 973.228 53.8052 975.924 52.702C978.621 51.5989 981.532 51.0473 984.657 51.0473C988.763 51.0473 992.41 51.936 995.597 53.7132C998.845 55.4905 1001.14 57.9726 1002.49 61.1594L995.689 64.2849C993.605 60.1176 989.897 58.0339 984.565 58.0339C981.991 58.0339 979.724 58.6467 977.763 59.8724C975.863 61.0368 974.913 62.5383 974.913 64.3769C974.913 66.0929 975.587 67.5024 976.935 68.6056C978.284 69.6474 980.306 70.5054 983.003 71.1795L989.805 72.9262C994.402 74.0906 997.864 75.8372 1000.19 78.166C1002.52 80.4336 1003.69 83.2221 1003.69 86.5315C1003.69 89.4119 1002.86 91.9552 1001.2 94.1615C999.55 96.3065 997.313 97.9612 994.494 99.1256C991.674 100.29 988.549 100.872 985.117 100.872ZM1025.8 100.872C1022.37 100.872 1019.3 100.198 1016.61 98.8498C1013.91 97.5015 1011.83 95.663 1010.35 93.3341C1008.88 90.944 1008.15 88.2475 1008.15 85.2445C1008.15 80.2804 1010.02 76.4194 1013.76 73.6616C1017.49 70.8425 1022.21 69.4329 1027.91 69.4329C1030.73 69.4329 1033.34 69.7393 1035.73 70.3522C1038.18 70.965 1040.05 71.6698 1041.33 72.4665V69.6168C1041.33 66.1235 1040.11 63.335 1037.66 61.2513C1035.21 59.1063 1032.11 58.0339 1028.37 58.0339C1025.74 58.0339 1023.32 58.6161 1021.11 59.7805C1018.9 60.8836 1017.16 62.4464 1015.87 64.4688L1009.99 60.0563C1011.83 57.2371 1014.34 55.0309 1017.53 53.4375C1020.77 51.844 1024.36 51.0473 1028.28 51.0473C1034.65 51.0473 1039.65 52.7327 1043.26 56.1034C1046.94 59.4128 1048.78 63.9479 1048.78 69.7087V99.4014H1041.33V92.6906H1040.97C1039.62 94.9582 1037.6 96.8887 1034.9 98.4821C1032.2 100.076 1029.17 100.872 1025.8 100.872ZM1026.53 93.9776C1029.17 93.9776 1031.62 93.3035 1033.89 91.9552C1036.16 90.6069 1037.96 88.799 1039.31 86.5315C1040.66 84.2639 1041.33 81.7819 1041.33 79.0853C1039.86 78.1048 1038.06 77.3081 1035.91 76.6952C1033.77 76.0823 1031.5 75.7759 1029.11 75.7759C1024.82 75.7759 1021.57 76.6646 1019.36 78.4418C1017.22 80.2191 1016.15 82.5173 1016.15 85.3364C1016.15 87.9104 1017.13 89.9941 1019.09 91.5875C1021.05 93.1809 1023.53 93.9776 1026.53 93.9776ZM1077.96 120.729C1072.44 120.729 1067.87 119.442 1064.26 116.868C1060.7 114.294 1058.31 111.199 1057.09 107.583L1064.17 104.549C1065.21 107.246 1066.92 109.421 1069.31 111.076C1071.77 112.792 1074.65 113.65 1077.96 113.65C1082.8 113.65 1086.54 112.241 1089.17 109.421C1091.87 106.602 1093.22 102.619 1093.22 97.4709V92.231H1092.85C1091.32 94.6211 1089.14 96.5822 1086.32 98.1144C1083.56 99.5852 1080.41 100.321 1076.85 100.321C1072.81 100.321 1069.1 99.2788 1065.73 97.1951C1062.42 95.1114 1059.78 92.2004 1057.82 88.462C1055.86 84.7236 1054.88 80.4642 1054.88 75.684C1054.88 70.965 1055.86 66.7364 1057.82 62.998C1059.78 59.1983 1062.42 56.2566 1065.73 54.1729C1069.1 52.0892 1072.81 51.0473 1076.85 51.0473C1080.41 51.0473 1083.56 51.8134 1086.32 53.3455C1089.14 54.8164 1091.32 56.7775 1092.85 59.2289H1093.22V52.5182H1100.66V97.5628C1100.66 105.101 1098.58 110.831 1094.41 114.753C1090.24 118.737 1084.76 120.729 1077.96 120.729ZM1077.96 93.2422C1080.77 93.2422 1083.32 92.5374 1085.59 91.1279C1087.91 89.7183 1089.75 87.6959 1091.1 85.0606C1092.51 82.4254 1093.22 79.2998 1093.22 75.684C1093.22 72.0069 1092.51 68.8507 1091.1 66.2154C1089.75 63.5802 1087.91 61.5884 1085.59 60.2401C1083.32 58.8306 1080.77 58.1258 1077.96 58.1258C1075.14 58.1258 1072.56 58.8306 1070.23 60.2401C1067.9 61.6497 1066.04 63.6721 1064.63 66.3074C1063.28 68.9426 1062.6 72.0682 1062.6 75.684C1062.6 79.2998 1063.28 82.456 1064.63 85.1526C1066.04 87.7878 1067.9 89.8102 1070.23 91.2198C1072.56 92.5681 1075.14 93.2422 1077.96 93.2422ZM1114.97 43.877C1113.44 43.877 1112.12 43.3254 1111.02 42.2223C1109.92 41.1191 1109.37 39.8015 1109.37 38.2694C1109.37 36.7372 1109.92 35.4503 1111.02 34.4084C1112.12 33.3053 1113.44 32.7537 1114.97 32.7537C1116.5 32.7537 1117.82 33.3053 1118.93 34.4084C1120.03 35.4503 1120.58 36.7372 1120.58 38.2694C1120.58 39.8015 1120.03 41.1191 1118.93 42.2223C1117.88 43.3254 1116.57 43.877 1114.97 43.877ZM1111.11 52.5182H1118.83V99.4014H1111.11V52.5182ZM1129.28 52.5182H1136.72V59.4128H1137.09C1138.38 57.0839 1140.43 55.1228 1143.25 53.5294C1146.07 51.8747 1149.07 51.0473 1152.26 51.0473C1157.9 51.0473 1162.19 52.702 1165.13 56.0114C1168.13 59.2596 1169.63 63.7027 1169.63 69.341V99.4014H1161.82V70.536C1161.82 66.1848 1160.78 63.0286 1158.69 61.0675C1156.61 59.1063 1153.76 58.1258 1150.14 58.1258C1147.63 58.1258 1145.36 58.8306 1143.34 60.2401C1141.38 61.6497 1139.85 63.5189 1138.74 65.8477C1137.64 68.1153 1137.09 70.5054 1137.09 73.0181V99.4014H1129.28V52.5182ZM1199.11 120.729C1193.59 120.729 1189.03 119.442 1185.41 116.868C1181.86 114.294 1179.47 111.199 1178.24 107.583L1185.32 104.549C1186.36 107.246 1188.08 109.421 1190.47 111.076C1192.92 112.792 1195.8 113.65 1199.11 113.65C1203.95 113.65 1207.69 112.241 1210.32 109.421C1213.02 106.602 1214.37 102.619 1214.37 97.4709V92.231H1214C1212.47 94.6211 1210.29 96.5822 1207.48 98.1144C1204.72 99.5852 1201.56 100.321 1198.01 100.321C1193.96 100.321 1190.25 99.2788 1186.88 97.1951C1183.57 95.1114 1180.94 92.2004 1178.98 88.462C1177.02 84.7236 1176.04 80.4642 1176.04 75.684C1176.04 70.965 1177.02 66.7364 1178.98 62.998C1180.94 59.1983 1183.57 56.2566 1186.88 54.1729C1190.25 52.0892 1193.96 51.0473 1198.01 51.0473C1201.56 51.0473 1204.72 51.8134 1207.48 53.3455C1210.29 54.8164 1212.47 56.7775 1214 59.2289H1214.37V52.5182H1221.82V97.5628C1221.82 105.101 1219.73 110.831 1215.56 114.753C1211.4 118.737 1205.91 120.729 1199.11 120.729ZM1199.11 93.2422C1201.93 93.2422 1204.47 92.5374 1206.74 91.1279C1209.07 89.7183 1210.91 87.6959 1212.26 85.0606C1213.67 82.4254 1214.37 79.2998 1214.37 75.684C1214.37 72.0069 1213.67 68.8507 1212.26 66.2154C1210.91 63.5802 1209.07 61.5884 1206.74 60.2401C1204.47 58.8306 1201.93 58.1258 1199.11 58.1258C1196.29 58.1258 1193.72 58.8306 1191.39 60.2401C1189.06 61.6497 1187.19 63.6721 1185.78 66.3074C1184.43 68.9426 1183.76 72.0682 1183.76 75.684C1183.76 79.2998 1184.43 82.456 1185.78 85.1526C1187.19 87.7878 1189.06 89.8102 1191.39 91.2198C1193.72 92.5681 1196.29 93.2422 1199.11 93.2422Z" fill="white"/>
<path d="M461.612 99.8663C457.157 99.8663 453.13 98.829 449.531 96.7545C445.992 94.6799 443.215 91.8122 441.202 88.1513C439.188 84.4293 438.182 80.2803 438.182 75.7041C438.182 71.311 439.127 67.284 441.019 63.6231C442.971 59.9011 445.687 56.9724 449.164 54.8368C452.642 52.6403 456.608 51.542 461.062 51.542C465.639 51.542 469.605 52.5487 472.96 54.5623C476.377 56.5758 478.97 59.3825 480.74 62.9824C482.509 66.5213 483.394 70.6093 483.394 75.2465C483.394 75.7956 483.364 76.3448 483.303 76.8939C483.242 77.4431 483.211 77.7481 483.211 77.8092H448.249C448.554 81.9582 450.049 85.1615 452.734 87.4191C455.419 89.6767 458.469 90.8055 461.886 90.8055C467.133 90.8055 471.161 88.3648 473.967 83.4836L482.57 87.6021C480.557 91.3241 477.75 94.3138 474.15 96.5714C470.611 98.768 466.432 99.8663 461.612 99.8663ZM473.144 70.1212C473.021 68.6568 472.533 67.162 471.679 65.6366C470.825 64.1112 469.483 62.8299 467.652 61.7926C465.883 60.6943 463.656 60.1452 460.971 60.1452C457.981 60.1452 455.388 61.0604 453.191 62.8909C451.056 64.7213 449.592 67.1314 448.798 70.1212H473.144Z" fill="white"/>
<path d="M416.087 99.8663C410.9 99.8663 406.599 98.6765 403.182 96.2968C399.826 93.8562 397.446 90.8055 396.043 87.1445L405.012 83.3006C406.05 85.8022 407.544 87.6937 409.497 88.975C411.51 90.2563 413.707 90.897 416.087 90.897C418.588 90.897 420.632 90.4394 422.219 89.5241C423.805 88.5479 424.598 87.2971 424.598 85.7717C424.598 84.3073 423.958 83.1175 422.676 82.2023C421.395 81.226 419.29 80.3718 416.361 79.6396L410.138 78.1752C406.721 77.382 403.761 75.9177 401.26 73.7821C398.819 71.5856 397.599 68.7484 397.599 65.2705C397.599 61.0604 399.338 57.7351 402.816 55.2944C406.294 52.7928 410.565 51.542 415.629 51.542C419.839 51.542 423.561 52.4267 426.795 54.1962C430.09 55.9656 432.469 58.5283 433.934 61.8841L425.056 65.6366C424.202 63.7451 422.89 62.3417 421.12 61.4265C419.351 60.5113 417.429 60.0537 415.354 60.0537C413.341 60.0537 411.571 60.5113 410.046 61.4265C408.521 62.2807 407.758 63.44 407.758 64.9044C407.758 66.1857 408.277 67.223 409.314 68.0162C410.412 68.8094 412.121 69.4805 414.439 70.0297L421.212 71.6771C425.788 72.8364 429.205 74.6058 431.462 76.9854C433.72 79.304 434.849 82.1107 434.849 85.4056C434.849 88.0903 434.025 90.5309 432.378 92.7274C430.791 94.924 428.564 96.6629 425.696 97.9443C422.89 99.2256 419.686 99.8663 416.087 99.8663Z" fill="white"/>
<path d="M367.921 99.8663C364.688 99.8663 361.759 99.2256 359.135 97.9443C356.573 96.6019 354.529 94.7715 353.003 92.4529C351.539 90.0733 350.807 87.3886 350.807 84.3988C350.807 79.6396 352.576 75.8872 356.115 73.1415C359.715 70.3958 364.261 69.0229 369.752 69.0229C374.572 69.0229 378.691 69.8466 382.108 71.4941V69.5721C382.108 66.8264 381.009 64.5688 378.813 62.7993C376.677 60.9689 374.084 60.0537 371.033 60.0537C366.396 60.0537 362.674 61.9451 359.867 65.7281L352.18 60.4197C354.315 57.552 356.969 55.3555 360.142 53.8301C363.376 52.3047 367.006 51.542 371.033 51.542C377.684 51.542 382.809 53.2199 386.409 56.5758C390.07 59.8706 391.901 64.5383 391.901 70.5788V98.4019H382.108V92.819H381.558C380.094 94.8935 378.233 96.6019 375.976 97.9443C373.718 99.2256 371.033 99.8663 367.921 99.8663ZM369.569 91.5376C371.826 91.5376 373.901 90.9885 375.792 89.8902C377.745 88.7309 379.27 87.236 380.369 85.4056C381.528 83.5141 382.108 81.5006 382.108 79.3651C378.874 77.5956 375.426 76.7109 371.765 76.7109C368.41 76.7109 365.786 77.4431 363.894 78.9074C362.003 80.3718 361.057 82.2328 361.057 84.4904C361.057 86.5649 361.881 88.2733 363.528 89.6157C365.237 90.897 367.25 91.5376 369.569 91.5376Z" fill="white"/>
<path d="M325.684 99.8661C322.389 99.8661 319.43 99.1644 316.806 97.7611C314.244 96.3577 312.322 94.5882 311.04 92.4527H310.491V98.4017H300.973V32.8711H311.04V52.5486L310.491 58.8637H311.04C312.322 56.7892 314.244 55.0502 316.806 53.6469C319.43 52.2435 322.389 51.5418 325.684 51.5418C329.589 51.5418 333.189 52.5791 336.484 54.6536C339.84 56.7281 342.494 59.6264 344.446 63.3483C346.46 67.0093 347.466 71.1278 347.466 75.704C347.466 80.2801 346.46 84.3987 344.446 88.0596C342.494 91.7205 339.84 94.6188 336.484 96.7543C333.189 98.8288 329.589 99.8661 325.684 99.8661ZM323.945 90.6222C326.325 90.6222 328.521 90.0121 330.535 88.7918C332.609 87.5715 334.257 85.8325 335.477 83.575C336.758 81.2564 337.399 78.6327 337.399 75.704C337.399 72.7752 336.758 70.1821 335.477 67.9245C334.257 65.6059 332.609 63.8364 330.535 62.6161C328.521 61.3958 326.325 60.7857 323.945 60.7857C321.565 60.7857 319.338 61.3958 317.264 62.6161C315.25 63.8364 313.603 65.5754 312.322 67.833C311.101 70.0905 310.491 72.7142 310.491 75.704C310.491 78.6937 311.101 81.3174 312.322 83.575C313.603 85.8325 315.25 87.5715 317.264 88.7918C319.338 90.0121 321.565 90.6222 323.945 90.6222Z" fill="white"/>
<path d="M273.192 99.8667C268.738 99.8667 264.711 98.8295 261.111 96.7549C257.572 94.6804 254.795 91.8127 252.782 88.1518C250.768 84.4298 249.762 80.2808 249.762 75.7046C249.762 71.3115 250.707 67.2845 252.599 63.6235C254.551 59.9016 257.267 56.9729 260.745 54.8373C264.222 52.6408 268.188 51.5425 272.643 51.5425C277.219 51.5425 281.185 52.5492 284.541 54.5627C287.957 56.5763 290.551 59.383 292.32 62.9829C294.089 66.5218 294.974 70.6098 294.974 75.247C294.974 75.7961 294.944 76.3453 294.883 76.8944C294.822 77.4436 294.791 77.7486 294.791 77.8096H259.829C260.134 81.9587 261.629 85.162 264.314 87.4196C266.999 89.6772 270.049 90.8059 273.466 90.8059C278.714 90.8059 282.741 88.3653 285.547 83.4841L294.15 87.6026C292.137 91.3246 289.33 94.3143 285.73 96.5719C282.191 98.7685 278.012 99.8667 273.192 99.8667ZM284.724 70.1217C284.602 68.6573 284.113 67.1624 283.259 65.6371C282.405 64.1117 281.063 62.8303 279.232 61.7931C277.463 60.6948 275.236 60.1457 272.551 60.1457C269.561 60.1457 266.968 61.0609 264.772 62.8914C262.636 64.7218 261.172 67.1319 260.378 70.1217H284.724Z" fill="white"/>
<path d="M221.822 53.0066H231.341V59.7794H231.89C232.866 57.4608 234.636 55.5388 237.198 54.0134C239.761 52.427 242.384 51.6338 245.069 51.6338C247.266 51.6338 249.066 51.9389 250.469 52.549V63.0742C248.395 62.0369 246.076 61.5183 243.513 61.5183C240.218 61.5183 237.442 62.7996 235.185 65.3623C232.988 67.8639 231.89 70.9452 231.89 74.6061V98.4022H221.822V53.0066Z" fill="white"/>
<path d="M207.452 45.3184C205.561 45.3184 203.944 44.6777 202.602 43.3964C201.32 42.0541 200.68 40.4371 200.68 38.5457C200.68 36.6542 201.32 35.0678 202.602 33.7865C203.944 32.4441 205.561 31.7729 207.452 31.7729C209.344 31.7729 210.93 32.4441 212.212 33.7865C213.554 35.0678 214.225 36.6542 214.225 38.5457C214.225 40.4371 213.554 42.0541 212.212 43.3964C210.93 44.6777 209.344 45.3184 207.452 45.3184ZM202.419 53.0063H212.486V98.4018H202.419V53.0063Z" fill="white"/>
<path d="M156.562 32.8711H196.375V42.6641H166.813V61.5179H193.446V71.2193H166.813V98.4017H156.562V32.8711Z" fill="white"/>
<path d="M31.6562 118.567C36.7084 120.601 42.1896 121.807 47.9447 122.008C55.7335 122.28 63.1403 120.67 69.7616 117.611C61.8214 114.492 54.6303 109.929 48.4929 104.257C44.5147 110.627 38.6305 115.658 31.6562 118.567Z" fill="#FF9100"/>
<path d="M48.4923 104.259C34.4827 91.302 25.9838 72.5484 26.7021 51.979C26.7254 51.311 26.7607 50.6435 26.8019 49.9762C24.2928 49.3273 21.6734 48.9313 18.9777 48.8371C15.1191 48.7024 11.3823 49.181 7.85452 50.1744C4.11472 56.7255 1.85787 64.242 1.57672 72.2932C0.851127 93.0713 13.4253 111.227 31.6556 118.569C38.63 115.66 44.5139 110.635 48.4923 104.259Z" fill="#FFC400"/>
<path d="M48.4937 104.258C51.7509 99.0459 53.7258 92.9348 53.9557 86.3506C54.5605 69.0316 42.9175 54.133 26.8033 49.9757C26.762 50.643 26.7268 51.3105 26.7035 51.9785C25.9852 72.5479 34.484 91.3015 48.4937 104.258Z" fill="#FF9100"/>
<path d="M52.1543 1.29291C42.9766 8.64534 35.7294 18.3402 31.3447 29.5084C28.8344 35.9054 27.2569 42.7768 26.7964 49.9798C42.9106 54.1372 54.5536 69.0358 53.9488 86.3548C53.7189 92.939 51.7382 99.044 48.4868 104.263C54.6239 109.941 61.8153 114.497 69.7555 117.616C85.693 110.249 97.0006 94.3967 97.6554 75.6462C98.0796 63.4978 93.4121 52.6704 86.8167 43.5311C79.8515 33.8654 52.1543 1.29291 52.1543 1.29291Z" fill="#DD2C00"/>
<g filter="url(#filter0_d_47_1400)">
<circle cx="100" cy="90" r="30" fill="white"/>
<path fill-rule="evenodd" clip-rule="evenodd" d="M109.619 105.619C109.031 106.206 108.325 106.5 107.5 106.5H92.5C91.675 106.5 90.9687 106.206 90.3812 105.619C89.7937 105.031 89.5 104.325 89.5 103.5V99L92.5 97.5V99H107.5V81H92.5V82.5L89.5 81V76.5C89.5 75.675 89.7937 74.9688 90.3812 74.3813C90.9687 73.7938 91.675 73.5 92.5 73.5H107.5C108.325 73.5 109.031 73.7938 109.619 74.3813C110.206 74.9688 110.5 75.675 110.5 76.5V103.5C110.5 104.325 110.206 105.031 109.619 105.619ZM83.5 97.5V91.875L91.0789 90L83.5 88.125V82.5L101.5 90L83.5 97.5Z" fill="#1F1F1F"/>
</g>
<defs>
<filter id="filter0_d_47_1400" x="68" y="58.6704" width="64" height="64" filterUnits="userSpaceOnUse" color-interpolation-filters="sRGB">
<feFlood flood-opacity="0" result="BackgroundImageFix"/>
<feColorMatrix in="SourceAlpha" type="matrix" values="0 0 0 0 0 0 0 0 0 0 0 0 0 0 0 0 0 0 127 0" result="hardAlpha"/>
<feOffset dy="0.670408"/>
<feGaussianBlur stdDeviation="1"/>
<feComposite in2="hardAlpha" operator="out"/>
<feColorMatrix type="matrix" values="0 0 0 0 0 0 0 0 0 0 0 0 0 0 0 0 0 0 0.3 0"/>
<feBlend mode="normal" in2="BackgroundImageFix" result="effect1_dropShadow_47_1400"/>
<feBlend mode="normal" in="SourceGraphic" in2="effect1_dropShadow_47_1400" result="shape"/>
</filter>
</defs>
</svg>
