<svg width="921" height="128" viewBox="0 0 921 128" fill="none" xmlns="http://www.w3.org/2000/svg">
<path d="M506.53 33.5811H544.588V41.0272H514.252V62.8141H541.646V70.1683H514.252V91.9552H544.588V99.4014H506.53V33.5811ZM564.814 75.5921L548.542 52.5182H557.368L569.502 69.8925L581.177 52.5182H590.278L573.915 75.5921L590.645 99.4014H581.545L569.318 81.3835L557.368 99.4014H548.267L564.814 75.5921ZM613.839 100.137C611.939 100.137 610.162 99.8304 608.507 99.2175C606.914 98.6047 605.566 97.7773 604.463 96.7355C603.237 95.571 602.318 94.2228 601.705 92.6906C601.092 91.1585 600.785 89.2893 600.785 87.083V59.5966H592.604V52.5182H600.785V39.2806H608.599V52.5182H619.998V59.5966H608.599V85.1526C608.599 87.7265 609.09 89.6264 610.07 90.8521C611.235 92.2004 612.92 92.8745 615.126 92.8745C616.903 92.8745 618.619 92.3536 620.274 91.3117V98.9417C619.355 99.3707 618.405 99.6772 617.424 99.861C616.505 100.045 615.31 100.137 613.839 100.137ZM646.451 100.872C641.977 100.872 637.963 99.7997 634.408 97.6547C630.853 95.5098 628.065 92.5681 626.043 88.8297C624.081 85.03 623.101 80.7707 623.101 76.0517C623.101 71.5166 624.02 67.3492 625.859 63.5495C627.759 59.7498 630.425 56.7162 633.856 54.4487C637.288 52.1811 641.272 51.0473 645.807 51.0473C650.403 51.0473 654.387 52.0892 657.758 54.1729C661.128 56.1953 663.702 59.0144 665.48 62.6302C667.318 66.2461 668.237 70.3828 668.237 75.0405C668.237 75.9598 668.146 76.7565 667.962 77.4306H630.915C631.099 80.9852 631.957 83.9881 633.489 86.4395C635.021 88.891 636.951 90.7295 639.28 91.9552C641.67 93.1809 644.152 93.7938 646.726 93.7938C652.732 93.7938 657.359 90.9747 660.607 85.3364L667.226 88.5539C665.204 92.3536 662.446 95.3565 658.953 97.5628C655.521 99.7691 651.353 100.872 646.451 100.872ZM659.964 70.9957C659.841 69.0345 659.29 67.0734 658.309 65.1123C657.329 63.1512 655.766 61.4965 653.621 60.1482C651.537 58.7999 648.902 58.1258 645.715 58.1258C642.038 58.1258 638.913 59.3208 636.339 61.711C633.826 64.0398 632.171 67.1347 631.374 70.9957H659.964ZM675.544 52.5182H682.99V59.4128H683.357C684.644 57.0839 686.697 55.1228 689.517 53.5294C692.336 51.8747 695.339 51.0473 698.526 51.0473C704.164 51.0473 708.454 52.702 711.395 56.0114C714.398 59.2596 715.9 63.7027 715.9 69.341V99.4014H708.086V70.536C708.086 66.1848 707.044 63.0286 704.96 61.0675C702.877 59.1063 700.027 58.1258 696.411 58.1258C693.899 58.1258 691.631 58.8306 689.609 60.2401C687.647 61.6497 686.115 63.5189 685.012 65.8477C683.909 68.1153 683.357 70.5054 683.357 73.0181V99.4014H675.544V52.5182ZM741.149 100.872C736.124 100.872 731.926 99.7078 728.555 97.379C725.184 94.9888 722.794 91.9552 721.385 88.2781L728.371 85.1526C729.536 87.9717 731.252 90.1473 733.519 91.6794C735.848 93.2116 738.391 93.9776 741.149 93.9776C744.091 93.9776 746.604 93.3954 748.687 92.231C750.771 91.0053 751.813 89.2893 751.813 87.083C751.813 85.1219 750.985 83.5591 749.331 82.3947C747.676 81.169 745.071 80.1272 741.517 79.2692L735.817 77.7983C732.079 76.8791 729.015 75.3163 726.625 73.11C724.234 70.9037 723.039 68.054 723.039 64.5607C723.039 61.8642 723.836 59.5047 725.429 57.4823C727.084 55.3986 729.26 53.8052 731.956 52.702C734.653 51.5989 737.564 51.0473 740.69 51.0473C744.796 51.0473 748.442 51.936 751.629 53.7132C754.877 55.4905 757.175 57.9726 758.524 61.1594L751.721 64.2849C749.637 60.1176 745.929 58.0339 740.598 58.0339C738.024 58.0339 735.756 58.6467 733.795 59.8724C731.895 61.0368 730.945 62.5383 730.945 64.3769C730.945 66.0929 731.619 67.5024 732.968 68.6056C734.316 69.6474 736.338 70.5054 739.035 71.1795L745.837 72.9262C750.434 74.0906 753.896 75.8372 756.225 78.166C758.554 80.4336 759.719 83.2221 759.719 86.5315C759.719 89.4119 758.891 91.9552 757.237 94.1615C755.582 96.3065 753.345 97.9612 750.526 99.1256C747.707 100.29 744.581 100.872 741.149 100.872ZM770.545 43.877C769.013 43.877 767.695 43.3254 766.592 42.2223C765.489 41.1191 764.938 39.8015 764.938 38.2694C764.938 36.7372 765.489 35.4503 766.592 34.4084C767.695 33.3053 769.013 32.7537 770.545 32.7537C772.077 32.7537 773.395 33.3053 774.498 34.4084C775.601 35.4503 776.153 36.7372 776.153 38.2694C776.153 39.8015 775.601 41.1191 774.498 42.2223C773.456 43.3254 772.139 43.877 770.545 43.877ZM766.684 52.5182H774.406V99.4014H766.684V52.5182ZM806.002 100.872C801.406 100.872 797.269 99.7691 793.592 97.5628C789.915 95.3565 787.034 92.3536 784.951 88.5539C782.928 84.7542 781.917 80.5562 781.917 75.9598C781.917 71.3634 782.928 67.1653 784.951 63.3657C787.034 59.566 789.915 56.563 793.592 54.3567C797.269 52.1505 801.406 51.0473 806.002 51.0473C810.598 51.0473 814.735 52.1505 818.412 54.3567C822.089 56.563 824.939 59.566 826.962 63.3657C829.045 67.1653 830.087 71.3634 830.087 75.9598C830.087 80.5562 829.045 84.7542 826.962 88.5539C824.939 92.3536 822.089 95.3565 818.412 97.5628C814.735 99.7691 810.598 100.872 806.002 100.872ZM806.002 93.7938C808.882 93.7938 811.548 93.089 814 91.6794C816.512 90.2086 818.504 88.1249 819.975 85.4283C821.507 82.7318 822.273 79.5756 822.273 75.9598C822.273 72.3439 821.507 69.1878 819.975 66.4912C818.504 63.7947 816.512 61.7416 814 60.332C811.548 58.8612 808.882 58.1258 806.002 58.1258C803.122 58.1258 800.425 58.8612 797.912 60.332C795.4 61.7416 793.377 63.7947 791.845 66.4912C790.374 69.1878 789.639 72.3439 789.639 75.9598C789.639 79.5756 790.374 82.7318 791.845 85.4283C793.377 88.1249 795.4 90.2086 797.912 91.6794C800.425 93.089 803.122 93.7938 806.002 93.7938ZM836.424 52.5182H843.871V59.4128H844.238C845.525 57.0839 847.578 55.1228 850.397 53.5294C853.217 51.8747 856.22 51.0473 859.406 51.0473C865.045 51.0473 869.335 52.702 872.276 56.0114C875.279 59.2596 876.781 63.7027 876.781 69.341V99.4014H868.967V70.536C868.967 66.1848 867.925 63.0286 865.841 61.0675C863.758 59.1063 860.908 58.1258 857.292 58.1258C854.779 58.1258 852.512 58.8306 850.489 60.2401C848.528 61.6497 846.996 63.5189 845.893 65.8477C844.79 68.1153 844.238 70.5054 844.238 73.0181V99.4014H836.424V52.5182ZM902.03 100.872C897.005 100.872 892.807 99.7078 889.436 97.379C886.065 94.9888 883.675 91.9552 882.266 88.2781L889.252 85.1526C890.416 87.9717 892.132 90.1473 894.4 91.6794C896.729 93.2116 899.272 93.9776 902.03 93.9776C904.972 93.9776 907.484 93.3954 909.568 92.231C911.652 91.0053 912.694 89.2893 912.694 87.083C912.694 85.1219 911.866 83.5591 910.212 82.3947C908.557 81.169 905.952 80.1272 902.398 79.2692L896.698 77.7983C892.96 76.8791 889.896 75.3163 887.505 73.11C885.115 70.9037 883.92 68.054 883.92 64.5607C883.92 61.8642 884.717 59.5047 886.31 57.4823C887.965 55.3986 890.141 53.8052 892.837 52.702C895.534 51.5989 898.445 51.0473 901.57 51.0473C905.676 51.0473 909.323 51.936 912.51 53.7132C915.758 55.4905 918.056 57.9726 919.404 61.1594L912.602 64.2849C910.518 60.1176 906.81 58.0339 901.478 58.0339C898.904 58.0339 896.637 58.6467 894.676 59.8724C892.776 61.0368 891.826 62.5383 891.826 64.3769C891.826 66.0929 892.5 67.5024 893.848 68.6056C895.197 69.6474 897.219 70.5054 899.916 71.1795L906.718 72.9262C911.315 74.0906 914.777 75.8372 917.106 78.166C919.435 80.4336 920.599 83.2221 920.599 86.5315C920.599 89.4119 919.772 91.9552 918.117 94.1615C916.463 96.3065 914.226 97.9612 911.407 99.1256C908.588 100.29 905.462 100.872 902.03 100.872Z" fill="white"/>
<path d="M461.612 99.8672C457.157 99.8672 453.13 98.83 449.531 96.7554C445.992 94.6809 443.215 91.8132 441.202 88.1523C439.188 84.4303 438.182 80.2813 438.182 75.7051C438.182 71.312 439.127 67.285 441.019 63.624C442.971 59.9021 445.687 56.9733 449.164 54.8378C452.642 52.6412 456.608 51.543 461.062 51.543C465.639 51.543 469.605 52.5497 472.96 54.5632C476.377 56.5767 478.97 59.3835 480.74 62.9834C482.509 66.5223 483.394 70.6103 483.394 75.2475C483.394 75.7966 483.364 76.3458 483.303 76.8949C483.242 77.444 483.211 77.7491 483.211 77.8101H448.249C448.554 81.9592 450.049 85.1625 452.734 87.4201C455.419 89.6776 458.469 90.8064 461.886 90.8064C467.133 90.8064 471.161 88.3658 473.967 83.4846L482.57 87.6031C480.557 91.3251 477.75 94.3148 474.15 96.5724C470.611 98.769 466.432 99.8672 461.612 99.8672ZM473.144 70.1222C473.021 68.6578 472.533 67.1629 471.679 65.6375C470.825 64.1122 469.483 62.8308 467.652 61.7936C465.883 60.6953 463.656 60.1461 460.971 60.1461C457.981 60.1461 455.388 61.0614 453.191 62.8919C451.056 64.7223 449.592 67.1324 448.798 70.1222H473.144Z" fill="white"/>
<path d="M416.087 99.8672C410.9 99.8672 406.599 98.6774 403.182 96.2978C399.826 93.8572 397.446 90.8064 396.043 87.1455L405.012 83.3015C406.05 85.8032 407.544 87.6946 409.497 88.976C411.51 90.2573 413.707 90.898 416.087 90.898C418.588 90.898 420.632 90.4403 422.219 89.5251C423.805 88.5489 424.598 87.298 424.598 85.7727C424.598 84.3083 423.958 83.1185 422.676 82.2032C421.395 81.227 419.29 80.3728 416.361 79.6406L410.138 78.1762C406.721 77.383 403.761 75.9187 401.26 73.7831C398.819 71.5866 397.599 68.7493 397.599 65.2715C397.599 61.0614 399.338 57.736 402.816 55.2954C406.294 52.7938 410.565 51.543 415.629 51.543C419.839 51.543 423.561 52.4277 426.795 54.1971C430.09 55.9666 432.469 58.5292 433.934 61.8851L425.056 65.6375C424.202 63.7461 422.89 62.3427 421.12 61.4275C419.351 60.5122 417.429 60.0546 415.354 60.0546C413.341 60.0546 411.571 60.5122 410.046 61.4275C408.521 62.2817 407.758 63.441 407.758 64.9054C407.758 66.1867 408.277 67.2239 409.314 68.0171C410.412 68.8104 412.121 69.4815 414.439 70.0307L421.212 71.6781C425.788 72.8374 429.205 74.6068 431.462 76.9864C433.72 79.305 434.849 82.1117 434.849 85.4066C434.849 88.0912 434.025 90.5319 432.378 92.7284C430.791 94.925 428.564 96.6639 425.696 97.9452C422.89 99.2266 419.686 99.8672 416.087 99.8672Z" fill="white"/>
<path d="M367.921 99.8672C364.688 99.8672 361.759 99.2266 359.135 97.9452C356.573 96.6029 354.529 94.7724 353.003 92.4538C351.539 90.0742 350.807 87.3896 350.807 84.3998C350.807 79.6406 352.576 75.8881 356.115 73.1424C359.715 70.3968 364.261 69.0239 369.752 69.0239C374.572 69.0239 378.691 69.8476 382.108 71.495V69.573C382.108 66.8273 381.009 64.5698 378.813 62.8003C376.677 60.9699 374.084 60.0546 371.033 60.0546C366.396 60.0546 362.674 61.9461 359.867 65.7291L352.18 60.4207C354.315 57.553 356.969 55.3564 360.142 53.8311C363.376 52.3057 367.006 51.543 371.033 51.543C377.684 51.543 382.809 53.2209 386.409 56.5767C390.07 59.8716 391.901 64.5393 391.901 70.5798V98.4029H382.108V92.8199H381.558C380.094 94.8945 378.233 96.6029 375.976 97.9452C373.718 99.2266 371.033 99.8672 367.921 99.8672ZM369.569 91.5386C371.826 91.5386 373.901 90.9895 375.792 89.8912C377.745 88.7319 379.27 87.237 380.369 85.4066C381.528 83.5151 382.108 81.5016 382.108 79.366C378.874 77.5966 375.426 76.7119 371.765 76.7119C368.41 76.7119 365.786 77.444 363.894 78.9084C362.003 80.3728 361.057 82.2338 361.057 84.4913C361.057 86.5659 361.881 88.2743 363.528 89.6166C365.237 90.898 367.25 91.5386 369.569 91.5386Z" fill="white"/>
<path d="M325.684 99.8671C322.389 99.8671 319.43 99.1654 316.806 97.762C314.244 96.3587 312.322 94.5892 311.04 92.4537H310.491V98.4027H300.973V32.8721H311.04V52.5496L310.491 58.8647H311.04C312.322 56.7901 314.244 55.0512 316.806 53.6478C319.43 52.2445 322.389 51.5428 325.684 51.5428C329.589 51.5428 333.189 52.5801 336.484 54.6546C339.84 56.7291 342.494 59.6274 344.446 63.3493C346.46 67.0102 347.466 71.1288 347.466 75.7049C347.466 80.2811 346.46 84.3996 344.446 88.0606C342.494 91.7215 339.84 94.6197 336.484 96.7553C333.189 98.8298 329.589 99.8671 325.684 99.8671ZM323.945 90.6232C326.325 90.6232 328.521 90.0131 330.535 88.7928C332.609 87.5724 334.257 85.8335 335.477 83.5759C336.758 81.2573 337.399 78.6337 337.399 75.7049C337.399 72.7762 336.758 70.183 335.477 67.9255C334.257 65.6069 332.609 63.8374 330.535 62.6171C328.521 61.3968 326.325 60.7866 323.945 60.7866C321.565 60.7866 319.338 61.3968 317.264 62.6171C315.25 63.8374 313.603 65.5764 312.322 67.8339C311.101 70.0915 310.491 72.7152 310.491 75.7049C310.491 78.6947 311.101 81.3184 312.322 83.5759C313.603 85.8335 315.25 87.5724 317.264 88.7928C319.338 90.0131 321.565 90.6232 323.945 90.6232Z" fill="white"/>
<path d="M273.192 99.8672C268.738 99.8672 264.711 98.83 261.111 96.7554C257.572 94.6809 254.795 91.8132 252.782 88.1523C250.768 84.4303 249.762 80.2813 249.762 75.7051C249.762 71.312 250.707 67.285 252.599 63.624C254.551 59.9021 257.267 56.9733 260.745 54.8378C264.222 52.6412 268.188 51.543 272.643 51.543C277.219 51.543 281.185 52.5497 284.541 54.5632C287.957 56.5767 290.551 59.3835 292.32 62.9834C294.089 66.5223 294.974 70.6103 294.974 75.2475C294.974 75.7966 294.944 76.3458 294.883 76.8949C294.822 77.444 294.791 77.7491 294.791 77.8101H259.829C260.134 81.9592 261.629 85.1625 264.314 87.4201C266.999 89.6776 270.049 90.8064 273.466 90.8064C278.714 90.8064 282.741 88.3658 285.547 83.4846L294.15 87.6031C292.137 91.3251 289.33 94.3148 285.73 96.5724C282.191 98.769 278.012 99.8672 273.192 99.8672ZM284.724 70.1222C284.602 68.6578 284.113 67.1629 283.259 65.6375C282.405 64.1122 281.063 62.8308 279.232 61.7936C277.463 60.6953 275.236 60.1461 272.551 60.1461C269.561 60.1461 266.968 61.0614 264.772 62.8919C262.636 64.7223 261.172 67.1324 260.378 70.1222H284.724Z" fill="white"/>
<path d="M221.822 53.0076H231.341V59.7803H231.89C232.866 57.4617 234.636 55.5398 237.198 54.0144C239.761 52.428 242.384 51.6348 245.069 51.6348C247.266 51.6348 249.066 51.9398 250.469 52.55V63.0752C248.395 62.0379 246.076 61.5193 243.513 61.5193C240.218 61.5193 237.442 62.8006 235.185 65.3632C232.988 67.8649 231.89 70.9462 231.89 74.6071V98.4031H221.822V53.0076Z" fill="white"/>
<path d="M207.452 45.3189C205.561 45.3189 203.944 44.6782 202.602 43.3969C201.32 42.0545 200.68 40.4376 200.68 38.5462C200.68 36.6547 201.32 35.0683 202.602 33.787C203.944 32.4446 205.561 31.7734 207.452 31.7734C209.344 31.7734 210.93 32.4446 212.212 33.787C213.554 35.0683 214.225 36.6547 214.225 38.5462C214.225 40.4376 213.554 42.0545 212.212 43.3969C210.93 44.6782 209.344 45.3189 207.452 45.3189ZM202.419 53.0068H212.486V98.4023H202.419V53.0068Z" fill="white"/>
<path d="M156.562 32.8721H196.375V42.6651H166.813V61.5188H193.446V71.2203H166.813V98.4027H156.562V32.8721Z" fill="white"/>
<path d="M96.6179 66.9557V66.9173C96.6171 66.9029 96.6171 66.8885 96.6179 66.874C95.463 59.3471 92.4665 52.4136 88.4918 46.177C87.9918 45.3884 87.4719 44.6132 86.9403 43.843C86.6825 43.4696 86.4209 43.0995 86.1553 42.7328C81.044 35.6376 64.9002 16.3476 56.4192 6.28996C53.2111 2.48397 51.0996 0 51.0996 0C50.143 0.766866 49.208 1.55818 48.2948 2.37395L48.2631 2.40228C41.6491 8.5865 36.1645 15.8777 32.056 23.9479L32.0426 23.9729C31.2516 25.5289 30.5128 27.1126 29.8261 28.7241C28.2377 32.4574 26.9465 36.3104 25.9648 40.2471C25.3692 42.6266 24.8871 45.0478 24.5182 47.5107C22.4884 47.1785 20.4382 46.9858 18.382 46.9338C17.9931 46.9238 17.6043 46.9188 17.2154 46.9188C13.8555 46.9163 10.5059 47.291 7.22949 48.0358C5.2239 51.2756 3.6094 54.7417 2.41983 58.3618C0.811797 63.2612 -0.00504604 68.3857 2.34521e-05 73.5424C2.34521e-05 97.1119 16.7888 116.762 39.0571 121.171C42.1801 121.79 45.3561 122.101 48.5398 122.1C49.168 122.1 49.793 122.087 50.4163 122.065C52.0528 122.001 53.6666 121.858 55.2576 121.638C58.9651 121.124 62.6003 120.181 66.0901 118.828C67.0201 118.467 67.9356 118.078 68.8366 117.661C85.502 109.974 97.0795 93.1092 97.0795 73.5424C97.0732 71.339 96.9189 69.1385 96.6179 66.9557ZM32.8726 110.599C28.0934 108.579 23.7517 105.65 20.0885 101.975C16.4155 98.3105 13.4883 93.968 11.4692 89.1881C9.37475 84.2363 8.30117 78.9125 8.31274 73.5358C8.30099 68.1584 9.37457 62.834 11.4692 57.8817C11.8025 57.0859 12.163 56.3046 12.5508 55.5378C14.0914 55.3445 15.6427 55.2476 17.1954 55.2476C19.3797 55.2475 21.5597 55.4405 23.7099 55.8245C23.6633 56.9098 23.6399 58.0051 23.6399 59.1037C23.6106 79.543 31.667 99.1636 46.05 113.681C41.5137 113.414 37.0568 112.371 32.8726 110.599ZM50.7046 106.499C49.7291 105.462 48.7909 104.399 47.8898 103.308C43.5702 98.1073 40.0404 92.2979 37.4139 86.0673C33.8047 77.535 31.9539 68.3618 31.9727 59.097C31.9727 58.8447 31.9727 58.593 31.9727 58.3418C36.1015 60.1738 39.8555 62.7547 43.0452 65.9538C47.9902 70.8741 51.4142 77.1149 52.9078 83.9301C53.4725 86.5199 53.7563 89.1631 53.7544 91.8138C53.77 96.8667 52.7354 101.868 50.7163 106.499H50.7046ZM88.7701 74.9278C88.5155 82.4895 86.1301 89.8254 81.889 96.09C78.4423 101.178 73.883 105.413 68.5566 108.476L68.5033 108.451C67.1034 109.254 65.6565 109.971 64.1703 110.599C62.3188 111.382 60.4107 112.025 58.4624 112.521C58.1157 112.61 57.768 112.693 57.4191 112.771C57.2308 112.814 57.0441 112.856 56.8558 112.894C56.9291 112.761 57.0008 112.623 57.0708 112.486C57.1791 112.277 57.2858 112.069 57.3891 111.859C58.6614 109.314 59.686 106.652 60.4489 103.91C61.5437 99.975 62.0971 95.9087 62.0938 91.8238C62.0952 88.8521 61.8033 85.8875 61.2222 82.9732C58.1341 67.5258 47.1249 54.9426 32.6126 49.6312C33.2811 44.7179 34.4808 39.8918 36.1907 35.2375C36.574 34.1961 36.9823 33.1619 37.4156 32.135C38.0689 30.5879 38.7755 29.0709 39.5354 27.5838C39.54 27.5764 39.5439 27.5686 39.5471 27.5605C39.8587 26.912 40.1804 26.2735 40.5137 25.6367C43.1296 20.6538 46.4272 16.06 50.3113 11.9881L50.3763 12.0665C53.8194 16.1509 58.4274 21.6456 63.017 27.1821C65.3652 30.0161 67.7084 32.8618 69.8882 35.5375C73.9762 40.5572 77.4893 44.9783 79.3875 47.604C79.6591 47.9808 79.9241 48.3559 80.1841 48.736C82.9106 52.6954 85.0171 56.6981 86.4453 60.6574C87.3533 63.1539 88.0082 65.7353 88.4001 68.3627V68.3961C88.7209 70.5576 88.8459 72.7437 88.7735 74.9278H88.7701Z" fill="white"/>
<g filter="url(#filter0_d_47_2671)">
<circle cx="100" cy="90.4678" r="30" fill="white"/>
<path fill-rule="evenodd" clip-rule="evenodd" d="M101.737 75.6729L105.244 79.2324C106.423 80.4294 105.945 80.8764 105.184 81.6489L101.758 85.1259C100.998 85.8984 101.113 86.8404 101.754 87.4899L104.082 89.8524C104.724 90.5034 105.649 90.6204 106.41 89.8479L109.836 86.3709C110.596 85.5984 111.576 85.6599 112.221 86.3109L115.699 89.8434C116.341 90.4959 116.404 91.4919 115.642 92.2644L104.403 103.672C103.091 105.012 101.294 105.768 99.4184 105.768C97.5427 105.768 95.746 105.012 94.4339 103.672L84.2939 93.3789C83.6489 92.7264 83.5934 91.7244 84.3539 90.9534L87.7544 87.5019C88.5149 86.7294 88.6739 86.0169 88.0319 85.3644L85.4654 82.7589C84.8219 82.1079 84.8144 81.0609 85.5749 80.2884L88.8779 76.9359C89.6384 76.1634 90.6359 76.2069 91.2779 76.8579L93.8459 79.4634C94.4879 80.1159 95.1659 79.9794 95.9264 79.2084L99.3524 75.7299C100.113 74.9574 101.095 75.0204 101.737 75.6729Z" fill="#1F1F1F"/>
</g>
<defs>
<filter id="filter0_d_47_2671" x="68" y="59.1382" width="64" height="64" filterUnits="userSpaceOnUse" color-interpolation-filters="sRGB">
<feFlood flood-opacity="0" result="BackgroundImageFix"/>
<feColorMatrix in="SourceAlpha" type="matrix" values="0 0 0 0 0 0 0 0 0 0 0 0 0 0 0 0 0 0 127 0" result="hardAlpha"/>
<feOffset dy="0.670408"/>
<feGaussianBlur stdDeviation="1"/>
<feComposite in2="hardAlpha" operator="out"/>
<feColorMatrix type="matrix" values="0 0 0 0 0 0 0 0 0 0 0 0 0 0 0 0 0 0 0.3 0"/>
<feBlend mode="normal" in2="BackgroundImageFix" result="effect1_dropShadow_47_2671"/>
<feBlend mode="normal" in="SourceGraphic" in2="effect1_dropShadow_47_2671" result="shape"/>
</filter>
</defs>
</svg>
