<svg width="807" height="128" viewBox="0 0 807 128" fill="none" xmlns="http://www.w3.org/2000/svg">
<path d="M506.53 33.5811H514.252V62.0787H548.265V33.5811H555.987V99.4014H548.265V69.4329H514.252V99.4014H506.53V33.5811ZM588.92 100.872C584.323 100.872 580.186 99.7691 576.509 97.5628C572.832 95.3565 569.952 92.3536 567.868 88.5539C565.846 84.7542 564.835 80.5562 564.835 75.9598C564.835 71.3634 565.846 67.1653 567.868 63.3657C569.952 59.566 572.832 56.563 576.509 54.3567C580.186 52.1505 584.323 51.0473 588.92 51.0473C593.516 51.0473 597.653 52.1505 601.33 54.3567C605.007 56.563 607.857 59.566 609.879 63.3657C611.963 67.1653 613.005 71.3634 613.005 75.9598C613.005 80.5562 611.963 84.7542 609.879 88.5539C607.857 92.3536 605.007 95.3565 601.33 97.5628C597.653 99.7691 593.516 100.872 588.92 100.872ZM588.92 93.7938C591.8 93.7938 594.466 93.089 596.917 91.6794C599.43 90.2086 601.422 88.1249 602.893 85.4283C604.425 82.7318 605.191 79.5756 605.191 75.9598C605.191 72.3439 604.425 69.1878 602.893 66.4912C601.422 63.7947 599.43 61.7416 596.917 60.332C594.466 58.8612 591.8 58.1258 588.92 58.1258C586.039 58.1258 583.343 58.8612 580.83 60.332C578.317 61.7416 576.295 63.7947 574.763 66.4912C573.292 69.1878 572.556 72.3439 572.556 75.9598C572.556 79.5756 573.292 82.7318 574.763 85.4283C576.295 88.1249 578.317 90.2086 580.83 91.6794C583.343 93.089 586.039 93.7938 588.92 93.7938ZM636.154 100.872C631.129 100.872 626.931 99.7078 623.56 97.379C620.189 94.9888 617.799 91.9552 616.389 88.2781L623.376 85.1526C624.54 87.9717 626.256 90.1473 628.524 91.6794C630.853 93.2116 633.396 93.9776 636.154 93.9776C639.096 93.9776 641.608 93.3954 643.692 92.231C645.776 91.0053 646.818 89.2893 646.818 87.083C646.818 85.1219 645.99 83.5591 644.336 82.3947C642.681 81.169 640.076 80.1272 636.522 79.2692L630.822 77.7983C627.084 76.8791 624.019 75.3163 621.629 73.11C619.239 70.9037 618.044 68.054 618.044 64.5607C618.044 61.8642 618.841 59.5047 620.434 57.4823C622.089 55.3986 624.265 53.8052 626.961 52.702C629.658 51.5989 632.569 51.0473 635.694 51.0473C639.8 51.0473 643.447 51.936 646.634 53.7132C649.882 55.4905 652.18 57.9726 653.528 61.1594L646.726 64.2849C644.642 60.1176 640.934 58.0339 635.602 58.0339C633.028 58.0339 630.761 58.6467 628.8 59.8724C626.9 61.0368 625.95 62.5383 625.95 64.3769C625.95 66.0929 626.624 67.5024 627.972 68.6056C629.321 69.6474 631.343 70.5054 634.04 71.1795L640.842 72.9262C645.439 74.0906 648.901 75.8372 651.23 78.166C653.559 80.4336 654.723 83.2221 654.723 86.5315C654.723 89.4119 653.896 91.9552 652.241 94.1615C650.587 96.3065 648.35 97.9612 645.531 99.1256C642.711 100.29 639.586 100.872 636.154 100.872ZM678.971 100.137C677.072 100.137 675.294 99.8304 673.64 99.2175C672.046 98.6047 670.698 97.7773 669.595 96.7355C668.369 95.571 667.45 94.2228 666.837 92.6906C666.224 91.1585 665.918 89.2893 665.918 87.083V59.5966H657.736V52.5182H665.918V39.2806H673.732V52.5182H685.131V59.5966H673.732V85.1526C673.732 87.7265 674.222 89.6264 675.202 90.8521C676.367 92.2004 678.052 92.8745 680.258 92.8745C682.036 92.8745 683.752 92.3536 685.406 91.3117V98.9417C684.487 99.3707 683.537 99.6772 682.557 99.861C681.637 100.045 680.442 100.137 678.971 100.137ZM697.825 43.877C696.293 43.877 694.976 43.3254 693.872 42.2223C692.769 41.1191 692.218 39.8015 692.218 38.2694C692.218 36.7372 692.769 35.4503 693.872 34.4084C694.976 33.3053 696.293 32.7537 697.825 32.7537C699.357 32.7537 700.675 33.3053 701.778 34.4084C702.881 35.4503 703.433 36.7372 703.433 38.2694C703.433 39.8015 702.881 41.1191 701.778 42.2223C700.736 43.3254 699.419 43.877 697.825 43.877ZM693.964 52.5182H701.686V99.4014H693.964V52.5182ZM712.128 52.5182H719.574V59.4128H719.942C721.229 57.0839 723.282 55.1228 726.101 53.5294C728.92 51.8747 731.923 51.0473 735.11 51.0473C740.748 51.0473 745.038 52.702 747.98 56.0114C750.983 59.2596 752.484 63.7027 752.484 69.341V99.4014H744.67V70.536C744.67 66.1848 743.629 63.0286 741.545 61.0675C739.461 59.1063 736.611 58.1258 732.996 58.1258C730.483 58.1258 728.215 58.8306 726.193 60.2401C724.232 61.6497 722.7 63.5189 721.597 65.8477C720.493 68.1153 719.942 70.5054 719.942 73.0181V99.4014H712.128V52.5182ZM781.962 120.729C776.447 120.729 771.881 119.442 768.265 116.868C764.71 114.294 762.32 111.199 761.095 107.583L768.173 104.549C769.215 107.246 770.931 109.421 773.321 111.076C775.772 112.792 778.653 113.65 781.962 113.65C786.804 113.65 790.542 112.241 793.177 109.421C795.874 106.602 797.222 102.619 797.222 97.4709V92.231H796.855C795.322 94.6211 793.147 96.5822 790.328 98.1144C787.57 99.5852 784.414 100.321 780.859 100.321C776.814 100.321 773.107 99.2788 769.736 97.1951C766.426 95.1114 763.791 92.2004 761.83 88.462C759.869 84.7236 758.888 80.4642 758.888 75.684C758.888 70.965 759.869 66.7364 761.83 62.998C763.791 59.1983 766.426 56.2566 769.736 54.1729C773.107 52.0892 776.814 51.0473 780.859 51.0473C784.414 51.0473 787.57 51.8134 790.328 53.3455C793.147 54.8164 795.322 56.7775 796.855 59.2289H797.222V52.5182H804.668V97.5628C804.668 105.101 802.585 110.831 798.417 114.753C794.25 118.737 788.765 120.729 781.962 120.729ZM781.962 93.2422C784.781 93.2422 787.325 92.5374 789.592 91.1279C791.921 89.7183 793.76 87.6959 795.108 85.0606C796.517 82.4254 797.222 79.2998 797.222 75.684C797.222 72.0069 796.517 68.8507 795.108 66.2154C793.76 63.5802 791.921 61.5884 789.592 60.2401C787.325 58.8306 784.781 58.1258 781.962 58.1258C779.143 58.1258 776.569 58.8306 774.24 60.2401C771.911 61.6497 770.042 63.6721 768.633 66.3074C767.284 68.9426 766.61 72.0682 766.61 75.684C766.61 79.2998 767.284 82.456 768.633 85.1526C770.042 87.7878 771.911 89.8102 774.24 91.2198C776.569 92.5681 779.143 93.2422 781.962 93.2422Z" fill="white"/>
<path d="M461.612 99.8667C457.157 99.8667 453.13 98.8295 449.531 96.7549C445.992 94.6804 443.215 91.8127 441.202 88.1518C439.188 84.4298 438.182 80.2808 438.182 75.7046C438.182 71.3115 439.127 67.2845 441.019 63.6235C442.971 59.9016 445.687 56.9729 449.164 54.8373C452.642 52.6408 456.608 51.5425 461.062 51.5425C465.639 51.5425 469.605 52.5492 472.96 54.5627C476.377 56.5763 478.97 59.383 480.74 62.9829C482.509 66.5218 483.394 70.6098 483.394 75.247C483.394 75.7961 483.364 76.3453 483.303 76.8944C483.242 77.4436 483.211 77.7486 483.211 77.8096H448.249C448.554 81.9587 450.049 85.162 452.734 87.4196C455.419 89.6772 458.469 90.8059 461.886 90.8059C467.133 90.8059 471.161 88.3653 473.967 83.4841L482.57 87.6026C480.557 91.3246 477.75 94.3143 474.15 96.5719C470.611 98.7685 466.432 99.8667 461.612 99.8667ZM473.144 70.1217C473.021 68.6573 472.533 67.1624 471.679 65.6371C470.825 64.1117 469.483 62.8303 467.652 61.7931C465.883 60.6948 463.656 60.1457 460.971 60.1457C457.981 60.1457 455.388 61.0609 453.191 62.8914C451.056 64.7218 449.592 67.1319 448.798 70.1217H473.144Z" fill="white"/>
<path d="M416.087 99.8667C410.9 99.8667 406.599 98.6769 403.182 96.2973C399.826 93.8567 397.446 90.8059 396.043 87.145L405.012 83.301C406.05 85.8027 407.544 87.6942 409.497 88.9755C411.51 90.2568 413.707 90.8975 416.087 90.8975C418.588 90.8975 420.632 90.4398 422.219 89.5246C423.805 88.5484 424.598 87.2976 424.598 85.7722C424.598 84.3078 423.958 83.118 422.676 82.2028C421.395 81.2265 419.29 80.3723 416.361 79.6401L410.138 78.1757C406.721 77.3825 403.761 75.9182 401.26 73.7826C398.819 71.5861 397.599 68.7488 397.599 65.271C397.599 61.0609 399.338 57.7356 402.816 55.2949C406.294 52.7933 410.565 51.5425 415.629 51.5425C419.839 51.5425 423.561 52.4272 426.795 54.1967C430.09 55.9661 432.469 58.5288 433.934 61.8846L425.056 65.6371C424.202 63.7456 422.89 62.3422 421.12 61.427C419.351 60.5118 417.429 60.0541 415.354 60.0541C413.341 60.0541 411.571 60.5118 410.046 61.427C408.521 62.2812 407.758 63.4405 407.758 64.9049C407.758 66.1862 408.277 67.2235 409.314 68.0167C410.412 68.8099 412.121 69.481 414.439 70.0302L421.212 71.6776C425.788 72.8369 429.205 74.6063 431.462 76.9859C433.72 79.3045 434.849 82.1112 434.849 85.4061C434.849 88.0908 434.025 90.5314 432.378 92.7279C430.791 94.9245 428.564 96.6634 425.696 97.9448C422.89 99.2261 419.686 99.8667 416.087 99.8667Z" fill="white"/>
<path d="M367.921 99.8667C364.688 99.8667 361.759 99.2261 359.135 97.9448C356.573 96.6024 354.529 94.7719 353.003 92.4534C351.539 90.0738 350.807 87.3891 350.807 84.3993C350.807 79.6401 352.576 75.8877 356.115 73.142C359.715 70.3963 364.261 69.0234 369.752 69.0234C374.572 69.0234 378.691 69.8471 382.108 71.4945V69.5726C382.108 66.8269 381.009 64.5693 378.813 62.7998C376.677 60.9694 374.084 60.0541 371.033 60.0541C366.396 60.0541 362.674 61.9456 359.867 65.7286L352.18 60.4202C354.315 57.5525 356.969 55.3559 360.142 53.8306C363.376 52.3052 367.006 51.5425 371.033 51.5425C377.684 51.5425 382.809 53.2204 386.409 56.5763C390.07 59.8711 391.901 64.5388 391.901 70.5793V98.4024H382.108V92.8195H381.558C380.094 94.894 378.233 96.6024 375.976 97.9448C373.718 99.2261 371.033 99.8667 367.921 99.8667ZM369.569 91.5381C371.826 91.5381 373.901 90.989 375.792 89.8907C377.745 88.7314 379.27 87.2365 380.369 85.4061C381.528 83.5146 382.108 81.5011 382.108 79.3655C378.874 77.5961 375.426 76.7114 371.765 76.7114C368.41 76.7114 365.786 77.4436 363.894 78.9079C362.003 80.3723 361.057 82.2333 361.057 84.4908C361.057 86.5654 361.881 88.2738 363.528 89.6161C365.237 90.8975 367.25 91.5381 369.569 91.5381Z" fill="white"/>
<path d="M325.684 99.8661C322.389 99.8661 319.43 99.1644 316.806 97.7611C314.244 96.3577 312.322 94.5882 311.04 92.4527H310.491V98.4017H300.973V32.8711H311.04V52.5486L310.491 58.8637H311.04C312.322 56.7892 314.244 55.0502 316.806 53.6469C319.43 52.2435 322.389 51.5418 325.684 51.5418C329.589 51.5418 333.189 52.5791 336.484 54.6536C339.84 56.7281 342.494 59.6264 344.446 63.3483C346.46 67.0093 347.466 71.1278 347.466 75.704C347.466 80.2801 346.46 84.3987 344.446 88.0596C342.494 91.7205 339.84 94.6188 336.484 96.7543C333.189 98.8288 329.589 99.8661 325.684 99.8661ZM323.945 90.6222C326.325 90.6222 328.521 90.0121 330.535 88.7918C332.609 87.5715 334.257 85.8325 335.477 83.575C336.758 81.2564 337.399 78.6327 337.399 75.704C337.399 72.7752 336.758 70.1821 335.477 67.9245C334.257 65.6059 332.609 63.8364 330.535 62.6161C328.521 61.3958 326.325 60.7857 323.945 60.7857C321.565 60.7857 319.338 61.3958 317.264 62.6161C315.25 63.8364 313.603 65.5754 312.322 67.833C311.101 70.0905 310.491 72.7142 310.491 75.704C310.491 78.6937 311.101 81.3174 312.322 83.575C313.603 85.8325 315.25 87.5715 317.264 88.7918C319.338 90.0121 321.565 90.6222 323.945 90.6222Z" fill="white"/>
<path d="M273.192 99.8667C268.738 99.8667 264.711 98.8295 261.111 96.7549C257.572 94.6804 254.795 91.8127 252.782 88.1518C250.768 84.4298 249.762 80.2808 249.762 75.7046C249.762 71.3115 250.707 67.2845 252.599 63.6235C254.551 59.9016 257.267 56.9729 260.745 54.8373C264.222 52.6408 268.188 51.5425 272.643 51.5425C277.219 51.5425 281.185 52.5492 284.541 54.5627C287.957 56.5763 290.551 59.383 292.32 62.9829C294.089 66.5218 294.974 70.6098 294.974 75.247C294.974 75.7961 294.944 76.3453 294.883 76.8944C294.822 77.4436 294.791 77.7486 294.791 77.8096H259.829C260.134 81.9587 261.629 85.162 264.314 87.4196C266.999 89.6772 270.049 90.8059 273.466 90.8059C278.714 90.8059 282.741 88.3653 285.547 83.4841L294.15 87.6026C292.137 91.3246 289.33 94.3143 285.73 96.5719C282.191 98.7685 278.012 99.8667 273.192 99.8667ZM284.724 70.1217C284.602 68.6573 284.113 67.1624 283.259 65.6371C282.405 64.1117 281.063 62.8303 279.232 61.7931C277.463 60.6948 275.236 60.1457 272.551 60.1457C269.561 60.1457 266.968 61.0609 264.772 62.8914C262.636 64.7218 261.172 67.1319 260.378 70.1217H284.724Z" fill="white"/>
<path d="M221.822 53.0066H231.341V59.7794H231.89C232.866 57.4608 234.636 55.5388 237.198 54.0134C239.761 52.427 242.384 51.6338 245.069 51.6338C247.266 51.6338 249.066 51.9389 250.469 52.549V63.0742C248.395 62.0369 246.076 61.5183 243.513 61.5183C240.218 61.5183 237.442 62.7996 235.185 65.3623C232.988 67.8639 231.89 70.9452 231.89 74.6061V98.4022H221.822V53.0066Z" fill="white"/>
<path d="M207.452 45.3184C205.561 45.3184 203.944 44.6777 202.602 43.3964C201.32 42.0541 200.68 40.4371 200.68 38.5457C200.68 36.6542 201.32 35.0678 202.602 33.7865C203.944 32.4441 205.561 31.7729 207.452 31.7729C209.344 31.7729 210.93 32.4441 212.212 33.7865C213.554 35.0678 214.225 36.6542 214.225 38.5457C214.225 40.4371 213.554 42.0541 212.212 43.3964C210.93 44.6777 209.344 45.3184 207.452 45.3184ZM202.419 53.0063H212.486V98.4018H202.419V53.0063Z" fill="white"/>
<path d="M156.562 32.8711H196.375V42.6641H166.813V61.5179H193.446V71.2193H166.813V98.4017H156.562V32.8711Z" fill="white"/>
<path d="M31.6562 118.567C36.7084 120.601 42.1896 121.807 47.9447 122.008C55.7335 122.28 63.1403 120.67 69.7616 117.611C61.8214 114.492 54.6303 109.929 48.4929 104.257C44.5147 110.627 38.6305 115.658 31.6562 118.567Z" fill="#FF9100"/>
<path d="M48.4923 104.259C34.4827 91.302 25.9838 72.5484 26.7021 51.979C26.7254 51.311 26.7607 50.6435 26.8019 49.9762C24.2928 49.3273 21.6734 48.9313 18.9777 48.8371C15.1191 48.7024 11.3823 49.181 7.85452 50.1744C4.11472 56.7255 1.85787 64.242 1.57672 72.2932C0.851127 93.0713 13.4253 111.227 31.6556 118.569C38.63 115.66 44.5139 110.635 48.4923 104.259Z" fill="#FFC400"/>
<path d="M48.4937 104.258C51.7509 99.0459 53.7258 92.9348 53.9557 86.3506C54.5605 69.0316 42.9175 54.133 26.8033 49.9757C26.762 50.643 26.7268 51.3105 26.7035 51.9785C25.9852 72.5479 34.484 91.3015 48.4937 104.258Z" fill="#FF9100"/>
<path d="M52.1543 1.29291C42.9766 8.64534 35.7294 18.3402 31.3447 29.5084C28.8344 35.9054 27.2569 42.7768 26.7964 49.9798C42.9106 54.1372 54.5536 69.0358 53.9488 86.3548C53.7189 92.939 51.7382 99.044 48.4868 104.263C54.6239 109.941 61.8153 114.497 69.7555 117.616C85.693 110.249 97.0006 94.3967 97.6554 75.6462C98.0796 63.4978 93.4121 52.6704 86.8167 43.5311C79.8515 33.8654 52.1543 1.29291 52.1543 1.29291Z" fill="#DD2C00"/>
<g filter="url(#filter0_d_47_1311)">
<circle cx="100" cy="90" r="30" fill="white"/>
<path d="M100 75C91.72 75 85 81.72 85 90C85 98.28 91.72 105 100 105C108.28 105 115 98.28 115 90C115 81.72 108.28 75 100 75ZM98.5 101.895C92.575 101.16 88 96.12 88 90C88 89.07 88.12 88.185 88.315 87.315L95.5 94.5V96C95.5 97.65 96.85 99 98.5 99V101.895ZM108.85 98.085C108.46 96.87 107.35 96 106 96H104.5V91.5C104.5 90.675 103.825 90 103 90H94V87H97C97.825 87 98.5 86.325 98.5 85.5V82.5H101.5C103.15 82.5 104.5 81.15 104.5 79.5V78.885C108.895 80.67 112 84.975 112 90C112 93.12 110.8 95.955 108.85 98.085Z" fill="#1F1F1F"/>
</g>
<defs>
<filter id="filter0_d_47_1311" x="68" y="58.6704" width="64" height="64" filterUnits="userSpaceOnUse" color-interpolation-filters="sRGB">
<feFlood flood-opacity="0" result="BackgroundImageFix"/>
<feColorMatrix in="SourceAlpha" type="matrix" values="0 0 0 0 0 0 0 0 0 0 0 0 0 0 0 0 0 0 127 0" result="hardAlpha"/>
<feOffset dy="0.670408"/>
<feGaussianBlur stdDeviation="1"/>
<feComposite in2="hardAlpha" operator="out"/>
<feColorMatrix type="matrix" values="0 0 0 0 0 0 0 0 0 0 0 0 0 0 0 0 0 0 0.3 0"/>
<feBlend mode="normal" in2="BackgroundImageFix" result="effect1_dropShadow_47_1311"/>
<feBlend mode="normal" in="SourceGraphic" in2="effect1_dropShadow_47_1311" result="shape"/>
</filter>
</defs>
</svg>
