<svg width="1469" height="128" viewBox="0 0 1469 128" fill="none" xmlns="http://www.w3.org/2000/svg">
<path d="M506.53 33.5813H528.685C532.362 33.5813 535.763 34.4087 538.889 36.0634C542.014 37.7181 544.496 40.0469 546.335 43.0499C548.235 45.9916 549.185 49.3316 549.185 53.07C549.185 56.8084 548.235 60.1791 546.335 63.1821C544.496 66.1237 542.014 68.4219 538.889 70.0766C535.763 71.7313 532.362 72.5587 528.685 72.5587H514.252V99.4016H506.53V33.5813ZM528.868 65.1125C531.32 65.1125 533.465 64.5303 535.303 63.3659C537.203 62.2015 538.674 60.7 539.716 58.8614C540.758 57.0229 541.279 55.0924 541.279 53.07C541.279 51.0476 540.758 49.1171 539.716 47.2785C538.674 45.44 537.203 43.9385 535.303 42.7741C533.465 41.6097 531.32 41.0275 528.868 41.0275H514.252V65.1125H528.868ZM573.731 100.872C569.257 100.872 565.243 99.8 561.688 97.655C558.134 95.51 555.345 92.5683 553.323 88.8299C551.362 85.0302 550.381 80.7709 550.381 76.0519C550.381 71.5168 551.3 67.3494 553.139 63.5498C555.039 59.7501 557.705 56.7165 561.137 54.4489C564.569 52.1814 568.552 51.0476 573.087 51.0476C577.684 51.0476 581.667 52.0894 585.038 54.1731C588.408 56.1955 590.982 59.0147 592.76 62.6305C594.598 66.2463 595.518 70.3831 595.518 75.0407C595.518 75.96 595.426 76.7567 595.242 77.4309H558.195C558.379 80.9854 559.237 83.9884 560.769 86.4398C562.301 88.8912 564.231 90.7298 566.56 91.9555C568.95 93.1812 571.432 93.794 574.006 93.794C580.012 93.794 584.639 90.9749 587.888 85.3367L594.506 88.5541C592.484 92.3538 589.726 95.3568 586.233 97.5631C582.801 99.7693 578.633 100.872 573.731 100.872ZM587.244 70.9959C587.121 69.0348 586.57 67.0737 585.589 65.1125C584.609 63.1514 583.046 61.4967 580.901 60.1484C578.817 58.8002 576.182 58.126 572.995 58.126C569.318 58.126 566.193 59.3211 563.619 61.7112C561.106 64.04 559.451 67.135 558.655 70.9959H587.244ZM642.904 59.5969H634.171V52.5184H642.904V47.4624C642.904 44.5207 643.578 41.9467 644.927 39.7405C646.275 37.5342 648.083 35.8489 650.35 34.6844C652.618 33.4587 655.131 32.8459 657.888 32.8459C660.524 32.8459 662.822 33.2136 664.783 33.949V41.579C663.557 41.0887 662.454 40.721 661.474 40.4759C660.554 40.2307 659.451 40.1082 658.164 40.1082C656.081 40.1082 654.303 40.8436 652.832 42.3144C651.423 43.724 650.718 45.7158 650.718 48.2897V52.5184H662.669V59.5969H650.718V99.4016H642.904V59.5969ZM602.824 52.5184H610.27V59.9646H610.638C611.741 57.2067 613.61 55.0618 616.245 53.5296C618.88 51.9975 621.761 51.2314 624.886 51.2314C626.235 51.2314 627.368 51.3234 628.288 51.5072V59.5049C627.246 59.2598 625.836 59.1372 624.059 59.1372C620.075 59.1372 616.827 60.4549 614.315 63.0901C611.863 65.7254 610.638 69.1574 610.638 73.386V99.4016H602.824V52.5184ZM689.2 100.872C684.604 100.872 680.467 99.7693 676.79 97.5631C673.113 95.3568 670.232 92.3538 668.148 88.5541C666.126 84.7544 665.115 80.5564 665.115 75.96C665.115 71.3636 666.126 67.1656 668.148 63.3659C670.232 59.5662 673.113 56.5633 676.79 54.357C680.467 52.1507 684.604 51.0476 689.2 51.0476C693.796 51.0476 697.933 52.1507 701.61 54.357C705.287 56.5633 708.137 59.5662 710.159 63.3659C712.243 67.1656 713.285 71.3636 713.285 75.96C713.285 80.5564 712.243 84.7544 710.159 88.5541C708.137 92.3538 705.287 95.3568 701.61 97.5631C697.933 99.7693 693.796 100.872 689.2 100.872ZM689.2 93.794C692.08 93.794 694.746 93.0892 697.198 91.6797C699.71 90.2088 701.702 88.1251 703.173 85.4286C704.705 82.732 705.471 79.5758 705.471 75.96C705.471 72.3442 704.705 69.188 703.173 66.4915C701.702 63.7949 699.71 61.7419 697.198 60.3323C694.746 58.8614 692.08 58.126 689.2 58.126C686.319 58.126 683.623 58.8614 681.11 60.3323C678.598 61.7419 676.575 63.7949 675.043 66.4915C673.572 69.188 672.837 72.3442 672.837 75.96C672.837 79.5758 673.572 82.732 675.043 85.4286C676.575 88.1251 678.598 90.2088 681.11 91.6797C683.623 93.0892 686.319 93.794 689.2 93.794ZM719.622 52.5184H727.068V60.0565H727.436C728.355 57.4825 730.133 55.3682 732.768 53.7135C735.403 51.9975 738.161 51.1395 741.041 51.1395C743.186 51.1395 745.025 51.4459 746.557 52.0588V60.5161C744.596 59.5356 742.39 59.0453 739.938 59.0453C737.671 59.0453 735.587 59.6888 733.687 60.9758C731.787 62.2628 730.255 64.0094 729.091 66.2157C727.988 68.3607 727.436 70.6895 727.436 73.2022V99.4016H719.622V52.5184ZM752.257 52.5184H759.703V59.413H760.07C761.419 57.0229 763.441 55.0311 766.138 53.4377C768.834 51.8443 771.684 51.0476 774.687 51.0476C778.119 51.0476 781.091 51.8749 783.604 53.5296C786.178 55.1843 788.017 57.3906 789.12 60.1484C790.774 57.3906 792.95 55.1843 795.647 53.5296C798.404 51.8749 801.591 51.0476 805.207 51.0476C810.6 51.0476 814.645 52.7023 817.342 56.0117C820.099 59.2598 821.478 63.703 821.478 69.3412V99.4016H813.756V70.5363C813.756 66.185 812.868 63.0288 811.09 61.0677C809.313 59.1066 806.678 58.126 803.185 58.126C800.856 58.126 798.741 58.8002 796.842 60.1484C794.942 61.4967 793.44 63.3046 792.337 65.5722C791.295 67.8397 790.774 70.2911 790.774 72.9264V99.4016H782.961V70.6282C782.961 66.2157 782.072 63.0288 780.295 61.0677C778.517 59.1066 775.913 58.126 772.481 58.126C770.152 58.126 768.038 58.8308 766.138 60.2404C764.238 61.5886 762.736 63.4272 761.633 65.756C760.591 68.0236 760.07 70.475 760.07 73.1103V99.4016H752.257V52.5184ZM845.39 100.872C841.958 100.872 838.894 100.198 836.197 98.85C833.501 97.5018 831.417 95.6632 829.946 93.3344C828.476 90.9443 827.74 88.2477 827.74 85.2447C827.74 80.2806 829.609 76.4197 833.348 73.6618C837.086 70.8427 841.805 69.4331 847.505 69.4331C850.324 69.4331 852.928 69.7396 855.318 70.3524C857.77 70.9653 859.639 71.6701 860.926 72.4668V69.617C860.926 66.1237 859.7 63.3353 857.249 61.2516C854.798 59.1066 851.703 58.0341 847.964 58.0341C845.329 58.0341 842.908 58.6163 840.702 59.7807C838.496 60.8839 836.749 62.4466 835.462 64.469L829.579 60.0565C831.417 57.2374 833.93 55.0311 837.117 53.4377C840.365 51.8443 843.95 51.0476 847.872 51.0476C854.246 51.0476 859.241 52.7329 862.857 56.1036C866.534 59.413 868.372 63.9481 868.372 69.7089V99.4016H860.926V92.6909H860.558C859.21 94.9584 857.188 96.8889 854.491 98.4823C851.795 100.076 848.761 100.872 845.39 100.872ZM846.126 93.9779C848.761 93.9779 851.212 93.3037 853.48 91.9555C855.747 90.6072 857.555 88.7993 858.904 86.5317C860.252 84.2642 860.926 81.7821 860.926 79.0856C859.455 78.105 857.647 77.3083 855.502 76.6954C853.357 76.0826 851.09 75.7762 848.7 75.7762C844.41 75.7762 841.162 76.6648 838.955 78.4421C836.81 80.2193 835.738 82.5175 835.738 85.3367C835.738 87.9106 836.718 89.9943 838.68 91.5877C840.641 93.1812 843.123 93.9779 846.126 93.9779ZM877.404 52.5184H884.85V59.413H885.218C886.505 57.0842 888.558 55.1231 891.377 53.5296C894.196 51.8749 897.199 51.0476 900.386 51.0476C906.024 51.0476 910.314 52.7023 913.256 56.0117C916.259 59.2598 917.76 63.703 917.76 69.3412V99.4016H909.947V70.5363C909.947 66.185 908.905 63.0288 906.821 61.0677C904.737 59.1066 901.888 58.126 898.272 58.126C895.759 58.126 893.491 58.8308 891.469 60.2404C889.508 61.6499 887.976 63.5191 886.873 65.848C885.77 68.1155 885.218 70.5056 885.218 73.0183V99.4016H877.404V52.5184ZM948.331 100.872C943.796 100.872 939.72 99.8 936.104 97.655C932.489 95.4487 929.669 92.4764 927.647 88.738C925.625 84.9383 924.613 80.679 924.613 75.96C924.613 71.2411 925.625 66.9817 927.647 63.1821C929.669 59.3824 932.489 56.41 936.104 54.2651C939.72 52.1201 943.796 51.0476 948.331 51.0476C953.417 51.0476 957.677 52.2426 961.109 54.6328C964.602 56.9616 967.084 60.0872 968.555 64.0094L961.476 66.9511C960.312 64.0707 958.565 61.8951 956.237 60.4242C953.969 58.8921 951.211 58.126 947.963 58.126C945.205 58.126 942.631 58.8921 940.241 60.4242C937.851 61.8951 935.92 63.9788 934.45 66.6753C933.04 69.3719 932.335 72.4668 932.335 75.96C932.335 79.4533 933.04 82.5482 934.45 85.2447C935.92 87.9413 937.851 90.0556 940.241 91.5877C942.631 93.0586 945.205 93.794 947.963 93.794C951.272 93.794 954.122 93.0279 956.512 91.4958C958.902 89.9637 960.68 87.7881 961.844 84.9689L968.831 87.9106C967.237 91.7716 964.663 94.8971 961.109 97.2873C957.615 99.6774 953.356 100.872 948.331 100.872ZM995.859 100.872C991.385 100.872 987.371 99.8 983.816 97.655C980.262 95.51 977.473 92.5683 975.451 88.8299C973.49 85.0302 972.509 80.7709 972.509 76.0519C972.509 71.5168 973.428 67.3494 975.267 63.5498C977.167 59.7501 979.833 56.7165 983.265 54.4489C986.697 52.1814 990.68 51.0476 995.215 51.0476C999.812 51.0476 1003.8 52.0894 1007.17 54.1731C1010.54 56.1955 1013.11 59.0147 1014.89 62.6305C1016.73 66.2463 1017.65 70.3831 1017.65 75.0407C1017.65 75.96 1017.55 76.7567 1017.37 77.4309H980.323C980.507 80.9854 981.365 83.9884 982.897 86.4398C984.429 88.8912 986.36 90.7298 988.688 91.9555C991.079 93.1812 993.561 93.794 996.135 93.794C1002.14 93.794 1006.77 90.9749 1010.02 85.3367L1016.63 88.5541C1014.61 92.3538 1011.85 95.3568 1008.36 97.5631C1004.93 99.7693 1000.76 100.872 995.859 100.872ZM1009.37 70.9959C1009.25 69.0348 1008.7 67.0737 1007.72 65.1125C1006.74 63.1514 1005.17 61.4967 1003.03 60.1484C1000.95 58.8002 998.31 58.126 995.123 58.126C991.446 58.126 988.321 59.3211 985.747 61.7112C983.234 64.04 981.579 67.135 980.783 70.9959H1009.37ZM1046.04 33.5813H1057.35L1078.31 87.5429H1078.68L1099.64 33.5813H1110.94V99.4016H1103.22V57.5745L1103.59 45.0723H1103.22L1081.71 99.4016H1075.28L1053.76 45.0723H1053.4L1053.76 57.5745V99.4016H1046.04V33.5813ZM1143.87 100.872C1139.28 100.872 1135.14 99.7693 1131.46 97.5631C1127.79 95.3568 1124.9 92.3538 1122.82 88.5541C1120.8 84.7544 1119.79 80.5564 1119.79 75.96C1119.79 71.3636 1120.8 67.1656 1122.82 63.3659C1124.9 59.5662 1127.79 56.5633 1131.46 54.357C1135.14 52.1507 1139.28 51.0476 1143.87 51.0476C1148.47 51.0476 1152.61 52.1507 1156.28 54.357C1159.96 56.5633 1162.81 59.5662 1164.83 63.3659C1166.92 67.1656 1167.96 71.3636 1167.96 75.96C1167.96 80.5564 1166.92 84.7544 1164.83 88.5541C1162.81 92.3538 1159.96 95.3568 1156.28 97.5631C1152.61 99.7693 1148.47 100.872 1143.87 100.872ZM1143.87 93.794C1146.75 93.794 1149.42 93.0892 1151.87 91.6797C1154.38 90.2088 1156.37 88.1251 1157.85 85.4286C1159.38 82.732 1160.14 79.5758 1160.14 75.96C1160.14 72.3442 1159.38 69.188 1157.85 66.4915C1156.37 63.7949 1154.38 61.7419 1151.87 60.3323C1149.42 58.8614 1146.75 58.126 1143.87 58.126C1140.99 58.126 1138.3 58.8614 1135.78 60.3323C1133.27 61.7419 1131.25 63.7949 1129.72 66.4915C1128.24 69.188 1127.51 72.3442 1127.51 75.96C1127.51 79.5758 1128.24 82.732 1129.72 85.4286C1131.25 88.1251 1133.27 90.2088 1135.78 91.6797C1138.3 93.0892 1140.99 93.794 1143.87 93.794ZM1174.29 52.5184H1181.74V59.413H1182.11C1183.4 57.0842 1185.45 55.1231 1188.27 53.5296C1191.09 51.8749 1194.09 51.0476 1197.28 51.0476C1202.92 51.0476 1207.21 52.7023 1210.15 56.0117C1213.15 59.2598 1214.65 63.703 1214.65 69.3412V99.4016H1206.84V70.5363C1206.84 66.185 1205.8 63.0288 1203.71 61.0677C1201.63 59.1066 1198.78 58.126 1195.16 58.126C1192.65 58.126 1190.38 58.8308 1188.36 60.2404C1186.4 61.6499 1184.87 63.5191 1183.76 65.848C1182.66 68.1155 1182.11 70.5056 1182.11 73.0183V99.4016H1174.29V52.5184ZM1228.58 43.8772C1227.05 43.8772 1225.73 43.3256 1224.63 42.2225C1223.53 41.1194 1222.98 39.8017 1222.98 38.2696C1222.98 36.7375 1223.53 35.4505 1224.63 34.4087C1225.73 33.3055 1227.05 32.754 1228.58 32.754C1230.11 32.754 1231.43 33.3055 1232.54 34.4087C1233.64 35.4505 1234.19 36.7375 1234.19 38.2696C1234.19 39.8017 1233.64 41.1194 1232.54 42.2225C1231.49 43.3256 1230.18 43.8772 1228.58 43.8772ZM1224.72 52.5184H1232.44V99.4016H1224.72V52.5184ZM1260.45 100.137C1258.55 100.137 1256.78 99.8306 1255.12 99.2178C1253.53 98.6049 1252.18 97.7776 1251.08 96.7357C1249.85 95.5713 1248.93 94.223 1248.32 92.6909C1247.71 91.1588 1247.4 89.2896 1247.4 87.0833V59.5969H1239.22V52.5184H1247.4V39.2808H1255.21V52.5184H1266.61V59.5969H1255.21V85.1528C1255.21 87.7268 1255.7 89.6266 1256.69 90.8523C1257.85 92.2006 1259.54 92.8747 1261.74 92.8747C1263.52 92.8747 1265.23 92.3538 1266.89 91.312V98.942C1265.97 99.371 1265.02 99.6774 1264.04 99.8613C1263.12 100.045 1261.93 100.137 1260.45 100.137ZM1293.8 100.872C1289.2 100.872 1285.07 99.7693 1281.39 97.5631C1277.71 95.3568 1274.83 92.3538 1272.75 88.5541C1270.73 84.7544 1269.72 80.5564 1269.72 75.96C1269.72 71.3636 1270.73 67.1656 1272.75 63.3659C1274.83 59.5662 1277.71 56.5633 1281.39 54.357C1285.07 52.1507 1289.2 51.0476 1293.8 51.0476C1298.4 51.0476 1302.53 52.1507 1306.21 54.357C1309.89 56.5633 1312.74 59.5662 1314.76 63.3659C1316.84 67.1656 1317.89 71.3636 1317.89 75.96C1317.89 80.5564 1316.84 84.7544 1314.76 88.5541C1312.74 92.3538 1309.89 95.3568 1306.21 97.5631C1302.53 99.7693 1298.4 100.872 1293.8 100.872ZM1293.8 93.794C1296.68 93.794 1299.35 93.0892 1301.8 91.6797C1304.31 90.2088 1306.3 88.1251 1307.77 85.4286C1309.31 82.732 1310.07 79.5758 1310.07 75.96C1310.07 72.3442 1309.31 69.188 1307.77 66.4915C1306.3 63.7949 1304.31 61.7419 1301.8 60.3323C1299.35 58.8614 1296.68 58.126 1293.8 58.126C1290.92 58.126 1288.22 58.8614 1285.71 60.3323C1283.2 61.7419 1281.18 63.7949 1279.64 66.4915C1278.17 69.188 1277.44 72.3442 1277.44 75.96C1277.44 79.5758 1278.17 82.732 1279.64 85.4286C1281.18 88.1251 1283.2 90.2088 1285.71 91.6797C1288.22 93.0892 1290.92 93.794 1293.8 93.794ZM1324.22 52.5184H1331.67V60.0565H1332.04C1332.96 57.4825 1334.73 55.3682 1337.37 53.7135C1340 51.9975 1342.76 51.1395 1345.64 51.1395C1347.79 51.1395 1349.63 51.4459 1351.16 52.0588V60.5161C1349.2 59.5356 1346.99 59.0453 1344.54 59.0453C1342.27 59.0453 1340.19 59.6888 1338.29 60.9758C1336.39 62.2628 1334.86 64.0094 1333.69 66.2157C1332.59 68.3607 1332.04 70.6895 1332.04 73.2022V99.4016H1324.22V52.5184ZM1361.45 43.8772C1359.92 43.8772 1358.6 43.3256 1357.5 42.2225C1356.4 41.1194 1355.85 39.8017 1355.85 38.2696C1355.85 36.7375 1356.4 35.4505 1357.5 34.4087C1358.6 33.3055 1359.92 32.754 1361.45 32.754C1362.99 32.754 1364.3 33.3055 1365.41 34.4087C1366.51 35.4505 1367.06 36.7375 1367.06 38.2696C1367.06 39.8017 1366.51 41.1194 1365.41 42.2225C1364.37 43.3256 1363.05 43.8772 1361.45 43.8772ZM1357.59 52.5184H1365.32V99.4016H1357.59V52.5184ZM1375.76 52.5184H1383.2V59.413H1383.57C1384.86 57.0842 1386.91 55.1231 1389.73 53.5296C1392.55 51.8749 1395.55 51.0476 1398.74 51.0476C1404.38 51.0476 1408.67 52.7023 1411.61 56.0117C1414.61 59.2598 1416.11 63.703 1416.11 69.3412V99.4016H1408.3V70.5363C1408.3 66.185 1407.26 63.0288 1405.17 61.0677C1403.09 59.1066 1400.24 58.126 1396.62 58.126C1394.11 58.126 1391.84 58.8308 1389.82 60.2404C1387.86 61.6499 1386.33 63.5191 1385.23 65.848C1384.12 68.1155 1383.57 70.5056 1383.57 73.0183V99.4016H1375.76V52.5184ZM1445.59 120.729C1440.08 120.729 1435.51 119.442 1431.89 116.868C1428.34 114.294 1425.95 111.199 1424.72 107.583L1431.8 104.55C1432.84 107.246 1434.56 109.422 1436.95 111.076C1439.4 112.792 1442.28 113.65 1445.59 113.65C1450.43 113.65 1454.17 112.241 1456.81 109.422C1459.5 106.603 1460.85 102.619 1460.85 97.4711V92.2312H1460.48C1458.95 94.6214 1456.78 96.5825 1453.96 98.1146C1451.2 99.5855 1448.04 100.321 1444.49 100.321C1440.44 100.321 1436.74 99.279 1433.36 97.1953C1430.06 95.1116 1427.42 92.2006 1425.46 88.4622C1423.5 84.7238 1422.52 80.4645 1422.52 75.6842C1422.52 70.9653 1423.5 66.7366 1425.46 62.9982C1427.42 59.1985 1430.06 56.2568 1433.36 54.1731C1436.74 52.0894 1440.44 51.0476 1444.49 51.0476C1448.04 51.0476 1451.2 51.8136 1453.96 53.3458C1456.78 54.8166 1458.95 56.7778 1460.48 59.2292H1460.85V52.5184H1468.3V97.5631C1468.3 105.101 1466.21 110.831 1462.05 114.754C1457.88 118.737 1452.39 120.729 1445.59 120.729ZM1445.59 93.2424C1448.41 93.2424 1450.95 92.5377 1453.22 91.1281C1455.55 89.7185 1457.39 87.6961 1458.74 85.0609C1460.15 82.4256 1460.85 79.3001 1460.85 75.6842C1460.85 72.0071 1460.15 68.8509 1458.74 66.2157C1457.39 63.5804 1455.55 61.5886 1453.22 60.2404C1450.95 58.8308 1448.41 58.126 1445.59 58.126C1442.77 58.126 1440.2 58.8308 1437.87 60.2404C1435.54 61.6499 1433.67 63.6723 1432.26 66.3076C1430.91 68.9429 1430.24 72.0684 1430.24 75.6842C1430.24 79.3001 1430.91 82.4563 1432.26 85.1528C1433.67 87.7881 1435.54 89.8105 1437.87 91.22C1440.2 92.5683 1442.77 93.2424 1445.59 93.2424Z" fill="#5A5A5A"/>
<path d="M461.612 99.8665C457.157 99.8665 453.13 98.8292 449.531 96.7547C445.992 94.6802 443.215 91.8125 441.202 88.1515C439.188 84.4296 438.182 80.2805 438.182 75.7044C438.182 71.3113 439.127 67.2842 441.019 63.6233C442.971 59.9014 445.687 56.9726 449.164 54.8371C452.642 52.6405 456.608 51.5422 461.062 51.5422C465.639 51.5422 469.605 52.549 472.96 54.5625C476.377 56.576 478.97 59.3827 480.74 62.9826C482.509 66.5215 483.394 70.6096 483.394 75.2467C483.394 75.7959 483.364 76.345 483.303 76.8942C483.242 77.4433 483.211 77.7484 483.211 77.8094H448.249C448.554 81.9585 450.049 85.1618 452.734 87.4193C455.419 89.6769 458.469 90.8057 461.886 90.8057C467.133 90.8057 471.161 88.3651 473.967 83.4838L482.57 87.6024C480.557 91.3243 477.75 94.3141 474.15 96.5717C470.611 98.7682 466.432 99.8665 461.612 99.8665ZM473.144 70.1215C473.021 68.6571 472.533 67.1622 471.679 65.6368C470.825 64.1114 469.483 62.8301 467.652 61.7928C465.883 60.6946 463.656 60.1454 460.971 60.1454C457.981 60.1454 455.388 61.0607 453.191 62.8911C451.056 64.7216 449.592 67.1317 448.798 70.1215H473.144Z" fill="#5A5A5A"/>
<path d="M416.087 99.8665C410.9 99.8665 406.599 98.6767 403.182 96.2971C399.826 93.8565 397.446 90.8057 396.043 87.1448L405.012 83.3008C406.05 85.8024 407.544 87.6939 409.497 88.9752C411.51 90.2566 413.707 90.8972 416.087 90.8972C418.588 90.8972 420.632 90.4396 422.219 89.5244C423.805 88.5481 424.598 87.2973 424.598 85.7719C424.598 84.3076 423.958 83.1177 422.676 82.2025C421.395 81.2263 419.29 80.3721 416.361 79.6399L410.138 78.1755C406.721 77.3823 403.761 75.9179 401.26 73.7824C398.819 71.5858 397.599 68.7486 397.599 65.2707C397.599 61.0607 399.338 57.7353 402.816 55.2947C406.294 52.7931 410.565 51.5422 415.629 51.5422C419.839 51.5422 423.561 52.427 426.795 54.1964C430.09 55.9659 432.469 58.5285 433.934 61.8844L425.056 65.6368C424.202 63.7453 422.89 62.342 421.12 61.4267C419.351 60.5115 417.429 60.0539 415.354 60.0539C413.341 60.0539 411.571 60.5115 410.046 61.4267C408.521 62.281 407.758 63.4403 407.758 64.9046C407.758 66.186 408.277 67.2232 409.314 68.0164C410.412 68.8096 412.121 69.4808 414.439 70.0299L421.212 71.6773C425.788 72.8366 429.205 74.6061 431.462 76.9857C433.72 79.3043 434.849 82.111 434.849 85.4058C434.849 88.0905 434.025 90.5311 432.378 92.7277C430.791 94.9242 428.564 96.6632 425.696 97.9445C422.89 99.2258 419.686 99.8665 416.087 99.8665Z" fill="#5A5A5A"/>
<path d="M367.921 99.8665C364.688 99.8665 361.759 99.2258 359.135 97.9445C356.573 96.6022 354.529 94.7717 353.003 92.4531C351.539 90.0735 350.807 87.3888 350.807 84.3991C350.807 79.6399 352.576 75.8874 356.115 73.1417C359.715 70.396 364.261 69.0232 369.752 69.0232C374.572 69.0232 378.691 69.8469 382.108 71.4943V69.5723C382.108 66.8266 381.009 64.569 378.813 62.7996C376.677 60.9691 374.084 60.0539 371.033 60.0539C366.396 60.0539 362.674 61.9454 359.867 65.7283L352.18 60.42C354.315 57.5523 356.969 55.3557 360.142 53.8303C363.376 52.3049 367.006 51.5422 371.033 51.5422C377.684 51.5422 382.809 53.2202 386.409 56.576C390.07 59.8708 391.901 64.5385 391.901 70.5791V98.4021H382.108V92.8192H381.558C380.094 94.8937 378.233 96.6022 375.976 97.9445C373.718 99.2258 371.033 99.8665 367.921 99.8665ZM369.569 91.5379C371.826 91.5379 373.901 90.9887 375.792 89.8905C377.745 88.7312 379.27 87.2363 380.369 85.4058C381.528 83.5143 382.108 81.5008 382.108 79.3653C378.874 77.5958 375.426 76.7111 371.765 76.7111C368.41 76.7111 365.786 77.4433 363.894 78.9077C362.003 80.372 361.057 82.233 361.057 84.4906C361.057 86.5651 361.881 88.2736 363.528 89.6159C365.237 90.8972 367.25 91.5379 369.569 91.5379Z" fill="#5A5A5A"/>
<path d="M325.684 99.8661C322.389 99.8661 319.43 99.1644 316.806 97.7611C314.244 96.3577 312.322 94.5882 311.04 92.4527H310.491V98.4017H300.973V32.8711H311.04V52.5486L310.491 58.8637H311.04C312.322 56.7892 314.244 55.0502 316.806 53.6469C319.43 52.2435 322.389 51.5418 325.684 51.5418C329.589 51.5418 333.189 52.5791 336.484 54.6536C339.84 56.7281 342.494 59.6264 344.446 63.3483C346.46 67.0093 347.466 71.1278 347.466 75.704C347.466 80.2801 346.46 84.3987 344.446 88.0596C342.494 91.7205 339.84 94.6188 336.484 96.7543C333.189 98.8288 329.589 99.8661 325.684 99.8661ZM323.945 90.6222C326.325 90.6222 328.521 90.0121 330.535 88.7918C332.609 87.5715 334.257 85.8325 335.477 83.575C336.758 81.2564 337.399 78.6327 337.399 75.704C337.399 72.7752 336.758 70.1821 335.477 67.9245C334.257 65.6059 332.609 63.8364 330.535 62.6161C328.521 61.3958 326.325 60.7857 323.945 60.7857C321.565 60.7857 319.338 61.3958 317.264 62.6161C315.25 63.8364 313.603 65.5754 312.322 67.833C311.101 70.0905 310.491 72.7142 310.491 75.704C310.491 78.6937 311.101 81.3174 312.322 83.575C313.603 85.8325 315.25 87.5715 317.264 88.7918C319.338 90.0121 321.565 90.6222 323.945 90.6222Z" fill="#5A5A5A"/>
<path d="M273.192 99.8666C268.738 99.8666 264.711 98.8294 261.111 96.7548C257.572 94.6803 254.795 91.8126 252.782 88.1516C250.768 84.4297 249.762 80.2807 249.762 75.7045C249.762 71.3114 250.707 67.2844 252.599 63.6234C254.551 59.9015 257.267 56.9727 260.745 54.8372C264.222 52.6406 268.188 51.5424 272.643 51.5424C277.219 51.5424 281.185 52.5491 284.541 54.5626C287.957 56.5761 290.551 59.3828 292.32 62.9828C294.089 66.5217 294.974 70.6097 294.974 75.2469C294.974 75.796 294.944 76.3452 294.883 76.8943C294.822 77.4434 294.791 77.7485 294.791 77.8095H259.829C260.134 81.9586 261.629 85.1619 264.314 87.4195C266.999 89.677 270.049 90.8058 273.466 90.8058C278.714 90.8058 282.741 88.3652 285.547 83.484L294.15 87.6025C292.137 91.3245 289.33 94.3142 285.73 96.5718C282.191 98.7683 278.012 99.8666 273.192 99.8666ZM284.724 70.1216C284.602 68.6572 284.113 67.1623 283.259 65.6369C282.405 64.1115 281.063 62.8302 279.232 61.793C277.463 60.6947 275.236 60.1455 272.551 60.1455C269.561 60.1455 266.968 61.0608 264.772 62.8912C262.636 64.7217 261.172 67.1318 260.378 70.1216H284.724Z" fill="#5A5A5A"/>
<path d="M221.822 53.0066H231.341V59.7794H231.89C232.866 57.4608 234.636 55.5388 237.198 54.0134C239.761 52.427 242.384 51.6338 245.069 51.6338C247.266 51.6338 249.066 51.9389 250.469 52.549V63.0742C248.395 62.0369 246.076 61.5183 243.513 61.5183C240.218 61.5183 237.442 62.7996 235.185 65.3623C232.988 67.8639 231.89 70.9452 231.89 74.6061V98.4021H221.822V53.0066Z" fill="#5A5A5A"/>
<path d="M207.452 45.3184C205.561 45.3184 203.944 44.6777 202.602 43.3964C201.32 42.0541 200.68 40.4371 200.68 38.5457C200.68 36.6542 201.32 35.0678 202.602 33.7865C203.944 32.4441 205.561 31.7729 207.452 31.7729C209.344 31.7729 210.93 32.4441 212.212 33.7865C213.554 35.0678 214.225 36.6542 214.225 38.5457C214.225 40.4371 213.554 42.0541 212.212 43.3964C210.93 44.6777 209.344 45.3184 207.452 45.3184ZM202.419 53.0063H212.486V98.4018H202.419V53.0063Z" fill="#5A5A5A"/>
<path d="M156.562 32.8712H196.375V42.6642H166.813V61.518H193.446V71.2194H166.813V98.4018H156.562V32.8712Z" fill="#5A5A5A"/>
<path d="M31.6562 118.567C36.7084 120.601 42.1896 121.807 47.9447 122.008C55.7335 122.28 63.1403 120.67 69.7616 117.611C61.8214 114.492 54.6303 109.929 48.4929 104.257C44.5147 110.627 38.6305 115.658 31.6562 118.567Z" fill="#FF9100"/>
<path d="M48.4923 104.259C34.4827 91.302 25.9838 72.5484 26.7021 51.979C26.7254 51.311 26.7607 50.6435 26.8019 49.9762C24.2928 49.3273 21.6734 48.9313 18.9777 48.8371C15.1191 48.7024 11.3823 49.181 7.85452 50.1744C4.11472 56.7255 1.85787 64.242 1.57672 72.2932C0.851127 93.0713 13.4253 111.227 31.6556 118.569C38.63 115.66 44.5139 110.635 48.4923 104.259Z" fill="#FFC400"/>
<path d="M48.4937 104.258C51.7509 99.0459 53.7258 92.9348 53.9557 86.3506C54.5605 69.0316 42.9175 54.133 26.8033 49.9757C26.762 50.643 26.7268 51.3105 26.7035 51.9785C25.9852 72.5479 34.484 91.3015 48.4937 104.258Z" fill="#FF9100"/>
<path d="M52.1543 1.29291C42.9766 8.64534 35.7294 18.3402 31.3447 29.5084C28.8344 35.9054 27.2569 42.7768 26.7964 49.9798C42.9106 54.1372 54.5536 69.0358 53.9488 86.3548C53.7189 92.939 51.7382 99.044 48.4868 104.263C54.6239 109.941 61.8153 114.497 69.7555 117.616C85.693 110.249 97.0006 94.3967 97.6554 75.6462C98.0796 63.4978 93.4121 52.6704 86.8167 43.5311C79.8515 33.8654 52.1543 1.29291 52.1543 1.29291Z" fill="#DD2C00"/>
<g filter="url(#filter0_d_47_1012)">
<circle cx="100" cy="90" r="30" fill="white"/>
<path fill-rule="evenodd" clip-rule="evenodd" d="M100 75C108.25 75 115 81.75 115 90C115 98.25 108.25 105 100 105C91.75 105 85 98.25 85 90C85 81.75 91.75 75 100 75ZM107.95 99C110.35 96.75 112 93.6 112 90C112 83.4 106.6 78 100 78C93.4 78 88 83.4 88 90C88 93.6 89.65 96.75 92.05 99C94.15 97.2 96.85 96 100 96C103.15 96 105.85 97.2 107.95 99ZM92.5 85.5C93.4 85.5 94 86.1 94 87C94 87.9 93.4 88.5 92.5 88.5C91.6 88.5 91 87.9 91 87C91 86.1 91.6 85.5 92.5 85.5ZM98.5 82.5C98.5 83.4 97.9 84 97 84C96.1 84 95.5 83.4 95.5 82.5C95.5 81.6 96.1 81 97 81C97.9 81 98.5 81.6 98.5 82.5ZM107.5 85.5C108.4 85.5 109 86.1 109 87C109 87.9 108.4 88.5 107.5 88.5C106.6 88.5 106 87.9 106 87C106 86.1 106.6 85.5 107.5 85.5ZM101.735 81.6933L101.735 81.6934C102.002 81.2765 102.469 81 103 81C103.828 81 104.5 81.672 104.5 82.5C104.5 82.6186 104.486 82.734 104.46 82.8448C103.964 85.3785 103.955 85.421 102.95 90.5395C102.693 91.9354 101.471 92.9922 100 92.9922C98.3425 92.9922 97 91.6497 97 89.9922C97 89.3775 97.1846 88.8062 97.5015 88.3305C100.313 83.9223 100.318 83.9142 101.735 81.6933Z" fill="#1F1F1F"/>
</g>
<defs>
<filter id="filter0_d_47_1012" x="68" y="58.6704" width="64" height="64" filterUnits="userSpaceOnUse" color-interpolation-filters="sRGB">
<feFlood flood-opacity="0" result="BackgroundImageFix"/>
<feColorMatrix in="SourceAlpha" type="matrix" values="0 0 0 0 0 0 0 0 0 0 0 0 0 0 0 0 0 0 127 0" result="hardAlpha"/>
<feOffset dy="0.670408"/>
<feGaussianBlur stdDeviation="1"/>
<feComposite in2="hardAlpha" operator="out"/>
<feColorMatrix type="matrix" values="0 0 0 0 0 0 0 0 0 0 0 0 0 0 0 0 0 0 0.3 0"/>
<feBlend mode="normal" in2="BackgroundImageFix" result="effect1_dropShadow_47_1012"/>
<feBlend mode="normal" in="SourceGraphic" in2="effect1_dropShadow_47_1012" result="shape"/>
</filter>
</defs>
</svg>
