<svg width="625" height="127" viewBox="0 0 625 127" fill="none" xmlns="http://www.w3.org/2000/svg">
<path d="M506.53 33.1133H517.837L538.797 87.0749H539.164L560.124 33.1133H571.431V98.9336H563.709V57.1064L564.077 44.6043H563.709L542.198 98.9336H535.763L514.252 44.6043H513.884L514.252 57.1064V98.9336H506.53V33.1133ZM584.32 33.1133H592.042V91.4874H620.908V98.9336H584.32V33.1133Z" fill="white"/>
<path d="M461.612 99.3985C457.157 99.3985 453.13 98.3612 449.531 96.2867C445.992 94.2122 443.215 91.3444 441.202 87.6835C439.188 83.9616 438.182 79.8125 438.182 75.2364C438.182 70.8432 439.127 66.8162 441.019 63.1553C442.971 59.4333 445.687 56.5046 449.164 54.3691C452.642 52.1725 456.608 51.0742 461.062 51.0742C465.639 51.0742 469.605 52.081 472.96 54.0945C476.377 56.108 478.97 58.9147 480.74 62.5146C482.509 66.0535 483.394 70.1416 483.394 74.7787C483.394 75.3279 483.364 75.877 483.303 76.4262C483.242 76.9753 483.211 77.2804 483.211 77.3414H448.249C448.554 81.4904 450.049 84.6937 452.734 86.9513C455.419 89.2089 458.469 90.3377 461.886 90.3377C467.133 90.3377 471.161 87.8971 473.967 83.0158L482.57 87.1344C480.557 90.8563 477.75 93.8461 474.15 96.1036C470.611 98.3002 466.432 99.3985 461.612 99.3985ZM473.144 69.6534C473.021 68.1891 472.533 66.6942 471.679 65.1688C470.825 63.6434 469.483 62.3621 467.652 61.3248C465.883 60.2265 463.656 59.6774 460.971 59.6774C457.981 59.6774 455.388 60.5926 453.191 62.4231C451.056 64.2536 449.592 66.6637 448.798 69.6534H473.144Z" fill="white"/>
<path d="M416.087 99.3985C410.9 99.3985 406.599 98.2087 403.182 95.8291C399.826 93.3885 397.446 90.3377 396.043 86.6768L405.012 82.8328C406.05 85.3344 407.544 87.2259 409.497 88.5072C411.51 89.7885 413.707 90.4292 416.087 90.4292C418.588 90.4292 420.632 89.9716 422.219 89.0564C423.805 88.0801 424.598 86.8293 424.598 85.3039C424.598 83.8395 423.958 82.6497 422.676 81.7345C421.395 80.7582 419.29 79.904 416.361 79.1718L410.138 77.7075C406.721 76.9143 403.761 75.4499 401.26 73.3144C398.819 71.1178 397.599 68.2806 397.599 64.8027C397.599 60.5926 399.338 57.2673 402.816 54.8267C406.294 52.325 410.565 51.0742 415.629 51.0742C419.839 51.0742 423.561 51.9589 426.795 53.7284C430.09 55.4978 432.469 58.0605 433.934 61.4163L425.056 65.1688C424.202 63.2773 422.89 61.874 421.12 60.9587C419.351 60.0435 417.429 59.5859 415.354 59.5859C413.341 59.5859 411.571 60.0435 410.046 60.9587C408.521 61.8129 407.758 62.9722 407.758 64.4366C407.758 65.7179 408.277 66.7552 409.314 67.5484C410.412 68.3416 412.121 69.0128 414.439 69.5619L421.212 71.2093C425.788 72.3686 429.205 74.1381 431.462 76.5177C433.72 78.8363 434.849 81.643 434.849 84.9378C434.849 87.6225 434.025 90.0631 432.378 92.2597C430.791 94.4562 428.564 96.1952 425.696 97.4765C422.89 98.7578 419.686 99.3985 416.087 99.3985Z" fill="white"/>
<path d="M367.921 99.3985C364.688 99.3985 361.759 98.7578 359.135 97.4765C356.573 96.1342 354.529 94.3037 353.003 91.9851C351.539 89.6055 350.807 86.9208 350.807 83.9311C350.807 79.1719 352.576 75.4194 356.115 72.6737C359.715 69.928 364.261 68.5552 369.752 68.5552C374.572 68.5552 378.691 69.3789 382.108 71.0263V69.1043C382.108 66.3586 381.009 64.101 378.813 62.3316C376.677 60.5011 374.084 59.5859 371.033 59.5859C366.396 59.5859 362.674 61.4774 359.867 65.2603L352.18 59.952C354.315 57.0842 356.969 54.8877 360.142 53.3623C363.376 51.8369 367.006 51.0742 371.033 51.0742C377.684 51.0742 382.809 52.7521 386.409 56.108C390.07 59.4028 391.901 64.0705 391.901 70.111V97.9341H382.108V92.3512H381.558C380.094 94.4257 378.233 96.1342 375.976 97.4765C373.718 98.7578 371.033 99.3985 367.921 99.3985ZM369.569 91.0699C371.826 91.0699 373.901 90.5207 375.792 89.4224C377.745 88.2632 379.27 86.7683 380.369 84.9378C381.528 83.0463 382.108 81.0328 382.108 78.8973C378.874 77.1278 375.426 76.2431 371.765 76.2431C368.41 76.2431 365.786 76.9753 363.894 78.4397C362.003 79.904 361.057 81.765 361.057 84.0226C361.057 86.0971 361.881 87.8055 363.528 89.1479C365.237 90.4292 367.25 91.0699 369.569 91.0699Z" fill="white"/>
<path d="M325.684 99.3973C322.389 99.3973 319.43 98.6957 316.806 97.2923C314.244 95.8889 312.322 94.1195 311.04 91.984H310.491V97.933H300.973V32.4023H311.04V52.0798L310.491 58.3949H311.04C312.322 56.3204 314.244 54.5815 316.806 53.1781C319.43 51.7748 322.389 51.0731 325.684 51.0731C329.589 51.0731 333.189 52.1103 336.484 54.1849C339.84 56.2594 342.494 59.1576 344.446 62.8796C346.46 66.5405 347.466 70.659 347.466 75.2352C347.466 79.8114 346.46 83.9299 344.446 87.5908C342.494 91.2518 339.84 94.15 336.484 96.2855C333.189 98.3601 329.589 99.3973 325.684 99.3973ZM323.945 90.1535C326.325 90.1535 328.521 89.5433 330.535 88.323C332.609 87.1027 334.257 85.3638 335.477 83.1062C336.758 80.7876 337.399 78.164 337.399 75.2352C337.399 72.3065 336.758 69.7133 335.477 67.4557C334.257 65.1371 332.609 63.3677 330.535 62.1474C328.521 60.9271 326.325 60.3169 323.945 60.3169C321.565 60.3169 319.338 60.9271 317.264 62.1474C315.25 63.3677 313.603 65.1066 312.322 67.3642C311.101 69.6218 310.491 72.2454 310.491 75.2352C310.491 78.225 311.101 80.8486 312.322 83.1062C313.603 85.3638 315.25 87.1027 317.264 88.323C319.338 89.5433 321.565 90.1535 323.945 90.1535Z" fill="white"/>
<path d="M273.192 99.3985C268.738 99.3985 264.711 98.3612 261.111 96.2867C257.572 94.2122 254.795 91.3444 252.782 87.6835C250.768 83.9616 249.762 79.8125 249.762 75.2364C249.762 70.8432 250.707 66.8162 252.599 63.1553C254.551 59.4333 257.267 56.5046 260.745 54.3691C264.222 52.1725 268.188 51.0742 272.643 51.0742C277.219 51.0742 281.185 52.081 284.541 54.0945C287.957 56.108 290.551 58.9147 292.32 62.5146C294.089 66.0535 294.974 70.1416 294.974 74.7787C294.974 75.3279 294.944 75.877 294.883 76.4262C294.822 76.9753 294.791 77.2804 294.791 77.3414H259.829C260.134 81.4904 261.629 84.6937 264.314 86.9513C266.999 89.2089 270.049 90.3377 273.466 90.3377C278.714 90.3377 282.741 87.8971 285.547 83.0158L294.15 87.1344C292.137 90.8563 289.33 93.8461 285.73 96.1036C282.191 98.3002 278.012 99.3985 273.192 99.3985ZM284.724 69.6534C284.602 68.1891 284.113 66.6942 283.259 65.1688C282.405 63.6434 281.063 62.3621 279.232 61.3248C277.463 60.2265 275.236 59.6774 272.551 59.6774C269.561 59.6774 266.968 60.5926 264.772 62.4231C262.636 64.2536 261.172 66.6637 260.378 69.6534H284.724Z" fill="white"/>
<path d="M221.822 52.5389H231.341V59.3116H231.89C232.866 56.993 234.636 55.071 237.198 53.5456C239.761 51.9592 242.384 51.166 245.069 51.166C247.266 51.166 249.066 51.4711 250.469 52.0812V62.6064C248.395 61.5692 246.076 61.0505 243.513 61.0505C240.218 61.0505 237.442 62.3318 235.185 64.8945C232.988 67.3961 231.89 70.4774 231.89 74.1383V97.9344H221.822V52.5389Z" fill="white"/>
<path d="M207.452 44.8501C205.561 44.8501 203.944 44.2095 202.602 42.9281C201.32 41.5858 200.68 39.9689 200.68 38.0774C200.68 36.1859 201.32 34.5995 202.602 33.3182C203.944 31.9759 205.561 31.3047 207.452 31.3047C209.344 31.3047 210.93 31.9759 212.212 33.3182C213.554 34.5995 214.225 36.1859 214.225 38.0774C214.225 39.9689 213.554 41.5858 212.212 42.9281C210.93 44.2095 209.344 44.8501 207.452 44.8501ZM202.419 52.5381H212.486V97.9336H202.419V52.5381Z" fill="white"/>
<path d="M156.562 32.4033H196.375V42.1963H166.813V61.0501H193.446V70.7515H166.813V97.9339H156.562V32.4033Z" fill="white"/>
<g clip-path="url(#clip0_47_1696)">
<path d="M86.8743 42.6457C84.1283 38.8354 77.814 31.0006 68.1144 19.3618C63.9039 14.3135 60.2921 10.0284 58.5142 7.9247C57.5337 6.76423 56.6928 5.77131 56.0288 4.98629L54.9707 3.73894L54.3967 3.06252L54.285 2.89807L54.2354 2.87635L51.7872 0L48.6844 2.48849C40.7628 8.83383 34.2747 17.013 29.9276 26.1292C27.2622 31.553 25.5215 36.8557 24.6093 42.3168C24.3704 43.5455 24.1656 44.8084 23.9949 46.0743C22.9306 45.9874 21.8477 45.9316 20.7742 45.9068C20.6842 45.9006 20.5942 45.8975 20.4732 45.8944C16.5419 45.7578 12.6323 46.2264 8.85608 47.2906L7.23949 47.7437L6.40793 49.202C2.51074 56.0376 0.304608 63.8196 0.0284535 71.7039C-0.328375 81.9433 2.46109 91.8539 8.09588 100.365C13.6097 108.69 21.3978 115.054 30.6195 118.768L31.8203 119.252L32.1834 119.379L32.1989 119.373C37.0021 121.117 42.0442 122.091 47.1857 122.268C47.769 122.29 48.3492 122.299 48.9295 122.299C55.4176 122.299 61.735 121.03 67.7297 118.52L67.7731 118.538L69.368 117.8C77.454 114.061 84.3734 108.184 89.3783 100.803C94.526 93.2098 97.4178 84.3263 97.7405 75.114C98.1253 64.1019 94.467 53.1799 86.8712 42.6488L86.8743 42.6457ZM50.7788 76.7647C52.4512 83.1038 52.1223 89.1947 49.8076 94.8947C44.0239 89.1854 39.7823 82.9083 37.1945 76.2186C34.4236 69.0634 32.7574 62.2557 32.2299 55.96C34.6781 56.7637 36.9276 57.8248 38.9321 59.1311C44.6972 62.8887 48.6844 68.8214 50.7788 76.7678V76.7647ZM51.8338 107.452C54.2912 109.323 56.8759 111.076 59.5412 112.69C55.6161 113.757 51.5669 114.225 47.4711 114.08C46.8382 114.058 46.2052 114.021 45.5691 113.968C47.9024 111.957 50 109.776 51.8307 107.452H51.8338ZM58.6973 74.6765C56.066 64.7039 50.9184 57.1639 43.4002 52.2676C40.1019 50.1204 36.3443 48.4914 32.2175 47.4272C32.2764 46.7414 32.3509 46.0588 32.4378 45.3886C32.5123 44.8146 32.5898 44.2871 32.6736 43.7937C33.3531 40.2844 34.3647 36.8123 35.6741 33.4767C36.1767 32.1983 36.7259 30.9293 37.3093 29.7036L37.331 29.6602C38.2308 27.8388 39.2455 25.9988 40.4401 24.0316L40.9086 23.259L40.8931 23.2497C43.667 18.915 46.9902 14.962 50.7912 11.4775L52.2588 13.212C55.6813 17.2674 58.899 21.1025 61.825 24.6119C68.4061 32.5055 76.939 42.8722 80.2311 47.4427C86.7409 56.4658 89.8779 65.6782 89.5583 74.8316C89.3101 81.9402 87.2063 88.872 83.4705 94.873C79.9332 100.56 75.0059 105.32 69.2004 108.671C65.9611 107.055 61.2571 104.396 56.2615 100.526C60.289 92.4993 61.1113 83.8082 58.7004 74.6765H58.6973ZM45.5753 102.18C41.8829 106.965 37.4892 110.077 34.9263 111.641C34.5105 111.489 34.0947 111.331 33.6851 111.163L33.3562 111.033C25.7635 107.896 19.3593 102.593 14.8353 95.6921C10.212 88.6393 7.92212 80.4416 8.21689 71.9832C8.42789 65.9202 9.93898 60.1272 12.7129 54.7623C14.3233 54.4055 15.9647 54.1821 17.6061 54.0983L18.0312 54.089C18.8597 54.0704 19.6851 54.0704 20.4701 54.089C21.6243 54.1418 22.7817 54.2628 23.9205 54.4458C24.2928 62.1533 26.1855 70.469 29.5521 79.1694C32.7946 87.544 38.1812 95.2794 45.5722 102.177L45.5753 102.18Z" fill="white"/>
</g>
<g filter="url(#filter0_d_47_1696)">
<circle cx="100" cy="90" r="30" fill="white"/>
<path fill-rule="evenodd" clip-rule="evenodd" d="M100 72C101.491 72 102.7 73.1985 102.7 74.676C102.7 75.84 101.95 76.83 100.902 77.199L100.9 81H109C110.591 81 112.117 81.6321 113.243 82.7574C114.368 83.8826 115 85.4087 115 87H115.75C116.148 87 116.529 87.158 116.811 87.4393C117.092 87.7206 117.25 88.1022 117.25 88.5V95.919C117.25 96.3168 117.092 96.6984 116.811 96.9797C116.529 97.261 116.148 97.419 115.75 97.419L115 97.4175V99C115 100.591 114.368 102.117 113.243 103.243C112.117 104.368 110.591 105 109 105H91C89.4087 105 87.8826 104.368 86.7574 103.243C85.6321 102.117 85 100.591 85 99V97.4175H84.25C83.8522 97.4175 83.4706 97.2595 83.1893 96.9782C82.908 96.6969 82.75 96.3153 82.75 95.9175V88.5C82.75 88.1022 82.908 87.7206 83.1893 87.4393C83.4706 87.158 83.8522 87 84.25 87H85C85 85.4087 85.6321 83.8826 86.7574 82.7574C87.8826 81.6321 89.4087 81 91 81H99.1V77.199C98.6109 77.0289 98.1815 76.7208 97.8637 76.3119C97.5459 75.9031 97.3532 75.411 97.309 74.895L97.3 74.676C97.3 73.1985 98.509 72 100 72ZM109 84H91C90.2431 83.9998 89.5142 84.2856 88.9592 84.8002C88.4042 85.3149 88.0643 86.0203 88.0075 86.775L88 87V99C87.9998 99.7569 88.2856 100.486 88.8002 101.041C89.3149 101.596 90.0203 101.936 90.775 101.993L91 102H109C109.757 102 110.486 101.714 111.041 101.2C111.596 100.685 111.936 99.9797 111.993 99.225L112 99V87C112 86.2431 111.714 85.5141 111.2 84.9592C110.685 84.4042 109.98 84.0643 109.225 84.0075L109 84ZM103.75 96L102.507 99H97.513L96.25 96H103.75ZM107.5 88.5V94.5H104.5V88.5H107.5ZM95.5 88.5V94.5H92.5V88.5H95.5Z" fill="#1F1F1F"/>
</g>
<defs>
<filter id="filter0_d_47_1696" x="68" y="58.6704" width="64" height="64" filterUnits="userSpaceOnUse" color-interpolation-filters="sRGB">
<feFlood flood-opacity="0" result="BackgroundImageFix"/>
<feColorMatrix in="SourceAlpha" type="matrix" values="0 0 0 0 0 0 0 0 0 0 0 0 0 0 0 0 0 0 127 0" result="hardAlpha"/>
<feOffset dy="0.670408"/>
<feGaussianBlur stdDeviation="1"/>
<feComposite in2="hardAlpha" operator="out"/>
<feColorMatrix type="matrix" values="0 0 0 0 0 0 0 0 0 0 0 0 0 0 0 0 0 0 0.3 0"/>
<feBlend mode="normal" in2="BackgroundImageFix" result="effect1_dropShadow_47_1696"/>
<feBlend mode="normal" in="SourceGraphic" in2="effect1_dropShadow_47_1696" result="shape"/>
</filter>
<clipPath id="clip0_47_1696">
<rect width="97.7741" height="122.296" fill="white" transform="translate(-0.00195312)"/>
</clipPath>
</defs>
</svg>
