<svg width="1551" height="128" viewBox="0 0 1551 128" fill="none" xmlns="http://www.w3.org/2000/svg">
<path d="M537.418 100.872C531.044 100.872 525.253 99.3707 520.043 96.3677C514.834 93.3648 510.728 89.2587 507.725 84.0494C504.783 78.7789 503.313 72.9262 503.313 66.4912C503.313 60.0563 504.783 54.2342 507.725 49.0249C510.728 43.7544 514.834 39.6177 520.043 36.6147C525.253 33.6117 531.044 32.1102 537.418 32.1102C542.321 32.1102 546.794 33.0601 550.839 34.96C554.945 36.7985 558.5 39.4338 561.503 42.8658L555.895 48.2895C553.383 45.2865 550.625 43.0803 547.622 41.6707C544.68 40.2611 541.279 39.5564 537.418 39.5564C532.638 39.5564 528.256 40.6901 524.272 42.9577C520.289 45.164 517.102 48.3201 514.712 52.4263C512.383 56.4711 511.218 61.1594 511.218 66.4912C511.218 71.823 512.383 76.542 514.712 80.6481C517.102 84.6929 520.289 87.8491 524.272 90.1167C528.256 92.3229 532.638 93.4261 537.418 93.4261C545.385 93.4261 552.157 90.1473 557.734 83.5898L563.433 89.1055C560.369 92.7213 556.6 95.6017 552.126 97.7467C547.652 99.8304 542.75 100.872 537.418 100.872ZM570.369 33.5811H578.183V99.4014H570.369V33.5811ZM609.075 100.872C604.479 100.872 600.342 99.7691 596.665 97.5628C592.988 95.3565 590.108 92.3536 588.024 88.5539C586.002 84.7542 584.99 80.5562 584.99 75.9598C584.99 71.3634 586.002 67.1653 588.024 63.3657C590.108 59.566 592.988 56.563 596.665 54.3567C600.342 52.1505 604.479 51.0473 609.075 51.0473C613.672 51.0473 617.809 52.1505 621.486 54.3567C625.163 56.563 628.013 59.566 630.035 63.3657C632.119 67.1653 633.161 71.3634 633.161 75.9598C633.161 80.5562 632.119 84.7542 630.035 88.5539C628.013 92.3536 625.163 95.3565 621.486 97.5628C617.809 99.7691 613.672 100.872 609.075 100.872ZM609.075 93.7938C611.956 93.7938 614.622 93.089 617.073 91.6794C619.586 90.2086 621.578 88.1249 623.048 85.4283C624.581 82.7318 625.347 79.5756 625.347 75.9598C625.347 72.3439 624.581 69.1878 623.048 66.4912C621.578 63.7947 619.586 61.7416 617.073 60.332C614.622 58.8612 611.956 58.1258 609.075 58.1258C606.195 58.1258 603.499 58.8612 600.986 60.332C598.473 61.7416 596.451 63.7947 594.919 66.4912C593.448 69.1878 592.712 72.3439 592.712 75.9598C592.712 79.5756 593.448 82.7318 594.919 85.4283C596.451 88.1249 598.473 90.2086 600.986 91.6794C603.499 93.089 606.195 93.7938 609.075 93.7938ZM656.953 100.872C651.315 100.872 646.994 99.2175 643.992 95.9081C641.05 92.5987 639.579 87.9717 639.579 82.027V52.5182H647.393V80.832C647.393 85.3058 648.404 88.5845 650.426 90.6682C652.449 92.7519 655.176 93.7938 658.608 93.7938C661.243 93.7938 663.572 93.089 665.595 91.6794C667.678 90.2699 669.272 88.4313 670.375 86.1638C671.539 83.8962 672.121 81.5061 672.121 78.9934V52.5182H679.935V99.4014H672.489V92.5987H672.121C670.834 94.9275 668.781 96.8887 665.962 98.4821C663.143 100.076 660.14 100.872 656.953 100.872ZM709.046 100.872C704.878 100.872 701.078 99.7997 697.646 97.6547C694.276 95.5098 691.61 92.5681 689.649 88.8297C687.688 85.03 686.707 80.74 686.707 75.9598C686.707 71.2408 687.688 66.9815 689.649 63.1818C691.61 59.3821 694.276 56.4098 697.646 54.2648C701.078 52.1198 704.878 51.0473 709.046 51.0473C712.661 51.0473 715.879 51.8747 718.698 53.5294C721.517 55.1228 723.662 57.1146 725.133 59.5047H725.501L725.133 52.9778V33.5811H732.947V99.4014H725.501V92.5068H725.133C723.662 94.8356 721.517 96.8274 718.698 98.4821C715.879 100.076 712.661 100.872 709.046 100.872ZM709.965 93.7938C712.723 93.7938 715.266 93.0583 717.595 91.5875C719.985 90.1167 721.885 88.033 723.294 85.3364C724.765 82.6399 725.501 79.5143 725.501 75.9598C725.501 72.4052 724.765 69.2797 723.294 66.5831C721.885 63.8866 719.985 61.8029 717.595 60.332C715.266 58.8612 712.723 58.1258 709.965 58.1258C707.268 58.1258 704.725 58.8612 702.335 60.332C699.945 61.8029 698.014 63.9172 696.543 66.6751C695.134 69.3716 694.429 72.4665 694.429 75.9598C694.429 79.453 695.134 82.5786 696.543 85.3364C698.014 88.033 699.945 90.1167 702.335 91.5875C704.725 93.0583 707.268 93.7938 709.965 93.7938ZM779.344 100.872C774.196 100.872 769.477 99.3094 765.187 96.1839C760.897 93.0583 757.955 88.6765 756.362 83.0382L763.808 80.0046C764.85 83.9269 766.78 87.1443 769.599 89.657C772.418 92.1697 775.728 93.4261 779.528 93.4261C783.327 93.4261 786.545 92.4149 789.18 90.3924C791.815 88.3087 793.133 85.4896 793.133 81.9351C793.133 78.8708 791.999 76.3581 789.732 74.397C787.525 72.3746 783.879 70.5054 778.792 68.7894L774.655 67.3186C769.998 65.6639 766.198 63.4882 763.256 60.7917C760.315 58.0951 758.844 54.3567 758.844 49.5765C758.844 46.4509 759.702 43.5705 761.418 40.9353C763.134 38.2387 765.524 36.0938 768.588 34.5003C771.652 32.9069 775.084 32.1102 778.884 32.1102C782.684 32.1102 785.993 32.815 788.812 34.2246C791.631 35.6341 793.868 37.3501 795.523 39.3725C797.239 41.3949 798.434 43.3867 799.108 45.3478L791.754 48.4734C791.141 46.2058 789.732 44.1528 787.525 42.3142C785.38 40.4756 782.531 39.5564 778.976 39.5564C775.605 39.5564 772.725 40.5063 770.335 42.4061C767.945 44.306 766.75 46.6961 766.75 49.5765C766.75 52.1505 767.761 54.2648 769.783 55.9195C771.806 57.5129 774.87 59.0144 778.976 60.424L783.297 61.8948C788.874 63.9172 793.225 66.4606 796.35 69.5248C799.476 72.5278 801.039 76.6339 801.039 81.8432C801.039 86.0718 799.936 89.6264 797.729 92.5068C795.584 95.3872 792.857 97.5015 789.548 98.8498C786.238 100.198 782.837 100.872 779.344 100.872ZM824.77 100.137C822.871 100.137 821.093 99.8304 819.439 99.2175C817.845 98.6047 816.497 97.7773 815.394 96.7355C814.168 95.571 813.249 94.2228 812.636 92.6906C812.023 91.1585 811.717 89.2893 811.717 87.083V59.5966H803.535V52.5182H811.717V39.2806H819.531V52.5182H830.93V59.5966H819.531V85.1526C819.531 87.7265 820.021 89.6264 821.001 90.8521C822.166 92.2004 823.851 92.8745 826.057 92.8745C827.835 92.8745 829.551 92.3536 831.205 91.3117V98.9417C830.286 99.3707 829.336 99.6772 828.356 99.861C827.436 100.045 826.241 100.137 824.77 100.137ZM858.117 100.872C853.521 100.872 849.384 99.7691 845.707 97.5628C842.03 95.3565 839.149 92.3536 837.066 88.5539C835.043 84.7542 834.032 80.5562 834.032 75.9598C834.032 71.3634 835.043 67.1653 837.066 63.3657C839.149 59.566 842.03 56.563 845.707 54.3567C849.384 52.1505 853.521 51.0473 858.117 51.0473C862.714 51.0473 866.85 52.1505 870.527 54.3567C874.205 56.563 877.054 59.566 879.077 63.3657C881.16 67.1653 882.202 71.3634 882.202 75.9598C882.202 80.5562 881.16 84.7542 879.077 88.5539C877.054 92.3536 874.205 95.3565 870.527 97.5628C866.85 99.7691 862.714 100.872 858.117 100.872ZM858.117 93.7938C860.998 93.7938 863.664 93.089 866.115 91.6794C868.628 90.2086 870.619 88.1249 872.09 85.4283C873.622 82.7318 874.388 79.5756 874.388 75.9598C874.388 72.3439 873.622 69.1878 872.09 66.4912C870.619 63.7947 868.628 61.7416 866.115 60.332C863.664 58.8612 860.998 58.1258 858.117 58.1258C855.237 58.1258 852.54 58.8612 850.028 60.332C847.515 61.7416 845.492 63.7947 843.96 66.4912C842.49 69.1878 841.754 72.3439 841.754 75.9598C841.754 79.5756 842.49 82.7318 843.96 85.4283C845.492 88.1249 847.515 90.2086 850.028 91.6794C852.54 93.089 855.237 93.7938 858.117 93.7938ZM888.54 52.5182H895.986V60.0563H896.353C897.273 57.4823 899.05 55.3679 901.685 53.7132C904.321 51.9973 907.078 51.1393 909.959 51.1393C912.104 51.1393 913.942 51.4457 915.474 52.0585V60.5159C913.513 59.5353 911.307 59.0451 908.856 59.0451C906.588 59.0451 904.504 59.6886 902.605 60.9755C900.705 62.2625 899.173 64.0092 898.008 66.2154C896.905 68.3604 896.353 70.6892 896.353 73.2019V99.4014H888.54V52.5182ZM934.363 100.872C930.931 100.872 927.866 100.198 925.17 98.8498C922.473 97.5015 920.39 95.663 918.919 93.3341C917.448 90.944 916.713 88.2475 916.713 85.2445C916.713 80.2804 918.582 76.4194 922.32 73.6616C926.059 70.8425 930.778 69.4329 936.477 69.4329C939.296 69.4329 941.901 69.7393 944.291 70.3522C946.742 70.965 948.612 71.6698 949.899 72.4665V69.6168C949.899 66.1235 948.673 63.335 946.221 61.2513C943.77 59.1063 940.675 58.0339 936.937 58.0339C934.301 58.0339 931.881 58.6161 929.674 59.7805C927.468 60.8836 925.722 62.4464 924.435 64.4688L918.551 60.0563C920.39 57.2371 922.902 55.0309 926.089 53.4375C929.337 51.844 932.923 51.0473 936.845 51.0473C943.218 51.0473 948.213 52.7327 951.829 56.1034C955.506 59.4128 957.345 63.9479 957.345 69.7087V99.4014H949.899V92.6906H949.531C948.183 94.9582 946.16 96.8887 943.464 98.4821C940.767 100.076 937.733 100.872 934.363 100.872ZM935.098 93.9776C937.733 93.9776 940.185 93.3035 942.452 91.9552C944.72 90.6069 946.528 88.799 947.876 86.5315C949.224 84.2639 949.899 81.7819 949.899 79.0853C948.428 78.1048 946.62 77.3081 944.475 76.6952C942.33 76.0823 940.062 75.7759 937.672 75.7759C933.382 75.7759 930.134 76.6646 927.928 78.4418C925.783 80.2191 924.71 82.5173 924.71 85.3364C924.71 87.9104 925.691 89.9941 927.652 91.5875C929.613 93.1809 932.095 93.9776 935.098 93.9776ZM986.52 120.729C981.004 120.729 976.438 119.442 972.822 116.868C969.268 114.294 966.878 111.199 965.652 107.583L972.73 104.549C973.772 107.246 975.488 109.421 977.878 111.076C980.33 112.792 983.21 113.65 986.52 113.65C991.361 113.65 995.099 112.241 997.735 109.421C1000.43 106.602 1001.78 102.619 1001.78 97.4709V92.231H1001.41C999.88 94.6211 997.704 96.5822 994.885 98.1144C992.127 99.5852 988.971 100.321 985.416 100.321C981.372 100.321 977.664 99.2788 974.293 97.1951C970.984 95.1114 968.348 92.2004 966.387 88.462C964.426 84.7236 963.446 80.4642 963.446 75.684C963.446 70.965 964.426 66.7364 966.387 62.998C968.348 59.1983 970.984 56.2566 974.293 54.1729C977.664 52.0892 981.372 51.0473 985.416 51.0473C988.971 51.0473 992.127 51.8134 994.885 53.3455C997.704 54.8164 999.88 56.7775 1001.41 59.2289H1001.78V52.5182H1009.23V97.5628C1009.23 105.101 1007.14 110.831 1002.97 114.753C998.807 118.737 993.322 120.729 986.52 120.729ZM986.52 93.2422C989.339 93.2422 991.882 92.5374 994.15 91.1279C996.478 89.7183 998.317 87.6959 999.665 85.0606C1001.07 82.4254 1001.78 79.2998 1001.78 75.684C1001.78 72.0069 1001.07 68.8507 999.665 66.2154C998.317 63.5802 996.478 61.5884 994.15 60.2401C991.882 58.8306 989.339 58.1258 986.52 58.1258C983.7 58.1258 981.126 58.8306 978.798 60.2401C976.469 61.6497 974.6 63.6721 973.19 66.3074C971.842 68.9426 971.168 72.0682 971.168 75.684C971.168 79.2998 971.842 82.456 973.19 85.1526C974.6 87.7878 976.469 89.8102 978.798 91.2198C981.126 92.5681 983.7 93.2422 986.52 93.2422ZM1039.36 100.872C1034.89 100.872 1030.87 99.7997 1027.32 97.6547C1023.76 95.5098 1020.97 92.5681 1018.95 88.8297C1016.99 85.03 1016.01 80.7707 1016.01 76.0517C1016.01 71.5166 1016.93 67.3492 1018.77 63.5495C1020.67 59.7498 1023.33 56.7162 1026.77 54.4487C1030.2 52.1811 1034.18 51.0473 1038.72 51.0473C1043.31 51.0473 1047.3 52.0892 1050.67 54.1729C1054.04 56.1953 1056.61 59.0144 1058.39 62.6302C1060.23 66.2461 1061.15 70.3828 1061.15 75.0405C1061.15 75.9598 1061.05 76.7565 1060.87 77.4306H1023.82C1024.01 80.9852 1024.87 83.9881 1026.4 86.4395C1027.93 88.891 1029.86 90.7295 1032.19 91.9552C1034.58 93.1809 1037.06 93.7938 1039.64 93.7938C1045.64 93.7938 1050.27 90.9747 1053.52 85.3364L1060.14 88.5539C1058.11 92.3536 1055.35 95.3565 1051.86 97.5628C1048.43 99.7691 1044.26 100.872 1039.36 100.872ZM1052.87 70.9957C1052.75 69.0345 1052.2 67.0734 1051.22 65.1123C1050.24 63.1512 1048.67 61.4965 1046.53 60.1482C1044.45 58.7999 1041.81 58.1258 1038.62 58.1258C1034.95 58.1258 1031.82 59.3208 1029.25 61.711C1026.73 64.0398 1025.08 67.1347 1024.28 70.9957H1052.87ZM1091.61 59.5966H1082.97V52.5182H1091.61V47.4622C1091.61 44.5205 1092.28 41.9465 1093.63 39.7402C1094.98 37.534 1096.79 35.8486 1099.05 34.6842C1101.32 33.4585 1103.83 32.8456 1106.59 32.8456C1109.23 32.8456 1111.53 33.2133 1113.49 33.9488V41.5788C1112.38 41.1498 1111.34 40.8127 1110.36 40.5676C1109.38 40.2611 1108.22 40.1079 1106.87 40.1079C1104.85 40.1079 1103.1 40.8434 1101.63 42.3142C1100.16 43.7238 1099.42 45.7155 1099.42 48.2895V52.5182H1111.46V59.5966H1099.42V99.4014H1091.61V59.5966ZM1137.91 100.872C1133.31 100.872 1129.17 99.7691 1125.5 97.5628C1121.82 95.3565 1118.94 92.3536 1116.86 88.5539C1114.83 84.7542 1113.82 80.5562 1113.82 75.9598C1113.82 71.3634 1114.83 67.1653 1116.86 63.3657C1118.94 59.566 1121.82 56.563 1125.5 54.3567C1129.17 52.1505 1133.31 51.0473 1137.91 51.0473C1142.5 51.0473 1146.64 52.1505 1150.32 54.3567C1154 56.563 1156.85 59.566 1158.87 63.3657C1160.95 67.1653 1161.99 71.3634 1161.99 75.9598C1161.99 80.5562 1160.95 84.7542 1158.87 88.5539C1156.85 92.3536 1154 95.3565 1150.32 97.5628C1146.64 99.7691 1142.5 100.872 1137.91 100.872ZM1137.91 93.7938C1140.79 93.7938 1143.45 93.089 1145.91 91.6794C1148.42 90.2086 1150.41 88.1249 1151.88 85.4283C1153.41 82.7318 1154.18 79.5756 1154.18 75.9598C1154.18 72.3439 1153.41 69.1878 1151.88 66.4912C1150.41 63.7947 1148.42 61.7416 1145.91 60.332C1143.45 58.8612 1140.79 58.1258 1137.91 58.1258C1135.03 58.1258 1132.33 58.8612 1129.82 60.332C1127.31 61.7416 1125.28 63.7947 1123.75 66.4912C1122.28 69.1878 1121.54 72.3439 1121.54 75.9598C1121.54 79.5756 1122.28 82.7318 1123.75 85.4283C1125.28 88.1249 1127.31 90.2086 1129.82 91.6794C1132.33 93.089 1135.03 93.7938 1137.91 93.7938ZM1168.33 52.5182H1175.78V60.0563H1176.14C1177.06 57.4823 1178.84 55.3679 1181.48 53.7132C1184.11 51.9973 1186.87 51.1393 1189.75 51.1393C1191.89 51.1393 1193.73 51.4457 1195.27 52.0585V60.5159C1193.3 59.5353 1191.1 59.0451 1188.65 59.0451C1186.38 59.0451 1184.3 59.6886 1182.4 60.9755C1180.5 62.2625 1178.96 64.0092 1177.8 66.2154C1176.7 68.3604 1176.14 70.6892 1176.14 73.2019V99.4014H1168.33V52.5182ZM1222.06 33.5811H1260.11V41.0272H1229.78V63.5495H1257.17V70.9037H1229.78V99.4014H1222.06V33.5811ZM1271.19 43.877C1269.66 43.877 1268.34 43.3254 1267.24 42.2223C1266.13 41.1191 1265.58 39.8015 1265.58 38.2694C1265.58 36.7372 1266.13 35.4503 1267.24 34.4084C1268.34 33.3053 1269.66 32.7537 1271.19 32.7537C1272.72 32.7537 1274.04 33.3053 1275.14 34.4084C1276.25 35.4503 1276.8 36.7372 1276.8 38.2694C1276.8 39.8015 1276.25 41.1191 1275.14 42.2223C1274.1 43.3254 1272.78 43.877 1271.19 43.877ZM1267.33 52.5182H1275.05V99.4014H1267.33V52.5182ZM1285.49 52.5182H1292.94V60.0563H1293.31C1294.22 57.4823 1296 55.3679 1298.64 53.7132C1301.27 51.9973 1304.03 51.1393 1306.91 51.1393C1309.06 51.1393 1310.89 51.4457 1312.43 52.0585V60.5159C1310.47 59.5353 1308.26 59.0451 1305.81 59.0451C1303.54 59.0451 1301.46 59.6886 1299.56 60.9755C1297.66 62.2625 1296.12 64.0092 1294.96 66.2154C1293.86 68.3604 1293.31 70.6892 1293.31 73.2019V99.4014H1285.49V52.5182ZM1336.21 100.872C1331.74 100.872 1327.72 99.7997 1324.17 97.6547C1320.61 95.5098 1317.83 92.5681 1315.8 88.8297C1313.84 85.03 1312.86 80.7707 1312.86 76.0517C1312.86 71.5166 1313.78 67.3492 1315.62 63.5495C1317.52 59.7498 1320.18 56.7162 1323.62 54.4487C1327.05 52.1811 1331.03 51.0473 1335.57 51.0473C1340.16 51.0473 1344.15 52.0892 1347.52 54.1729C1350.89 56.1953 1353.46 59.0144 1355.24 62.6302C1357.08 66.2461 1358 70.3828 1358 75.0405C1358 75.9598 1357.91 76.7565 1357.72 77.4306H1320.67C1320.86 80.9852 1321.72 83.9881 1323.25 86.4395C1324.78 88.891 1326.71 90.7295 1329.04 91.9552C1331.43 93.1809 1333.91 93.7938 1336.49 93.7938C1342.49 93.7938 1347.12 90.9747 1350.37 85.3364L1356.99 88.5539C1354.96 92.3536 1352.21 95.3565 1348.71 97.5628C1345.28 99.7691 1341.11 100.872 1336.21 100.872ZM1349.72 70.9957C1349.6 69.0345 1349.05 67.0734 1348.07 65.1123C1347.09 63.1512 1345.53 61.4965 1343.38 60.1482C1341.3 58.7999 1338.66 58.1258 1335.48 58.1258C1331.8 58.1258 1328.67 59.3208 1326.1 61.711C1323.59 64.0398 1321.93 67.1347 1321.13 70.9957H1349.72ZM1389.11 100.872C1385.56 100.872 1382.34 100.076 1379.46 98.4821C1376.64 96.8274 1374.53 94.8356 1373.12 92.5068H1372.75V99.4014H1365.3V33.5811H1373.12V52.9778L1372.75 59.5047H1373.12C1374.53 57.1146 1376.64 55.1228 1379.46 53.5294C1382.34 51.8747 1385.56 51.0473 1389.11 51.0473C1393.28 51.0473 1397.08 52.1198 1400.51 54.2648C1403.94 56.4098 1406.64 59.3821 1408.6 63.1818C1410.56 66.9815 1411.54 71.2408 1411.54 75.9598C1411.54 80.74 1410.56 85.03 1408.6 88.8297C1406.64 92.5681 1403.94 95.5098 1400.51 97.6547C1397.08 99.7997 1393.28 100.872 1389.11 100.872ZM1388.19 93.7938C1390.89 93.7938 1393.43 93.0583 1395.82 91.5875C1398.21 90.1167 1400.11 88.033 1401.52 85.3364C1402.99 82.5786 1403.73 79.453 1403.73 75.9598C1403.73 72.4665 1402.99 69.3716 1401.52 66.6751C1400.11 63.9172 1398.21 61.8029 1395.82 60.332C1393.43 58.8612 1390.89 58.1258 1388.19 58.1258C1385.5 58.1258 1382.95 58.8612 1380.56 60.332C1378.17 61.8029 1376.27 63.8866 1374.86 66.5831C1373.45 69.2797 1372.75 72.4052 1372.75 75.9598C1372.75 79.5143 1373.45 82.6399 1374.86 85.3364C1376.27 88.033 1378.17 90.1167 1380.56 91.5875C1382.95 93.0583 1385.5 93.7938 1388.19 93.7938ZM1433.75 100.872C1430.32 100.872 1427.25 100.198 1424.56 98.8498C1421.86 97.5015 1419.78 95.663 1418.31 93.3341C1416.84 90.944 1416.1 88.2475 1416.1 85.2445C1416.1 80.2804 1417.97 76.4194 1421.71 73.6616C1425.45 70.8425 1430.16 69.4329 1435.86 69.4329C1438.68 69.4329 1441.29 69.7393 1443.68 70.3522C1446.13 70.965 1448 71.6698 1449.29 72.4665V69.6168C1449.29 66.1235 1448.06 63.335 1445.61 61.2513C1443.16 59.1063 1440.06 58.0339 1436.32 58.0339C1433.69 58.0339 1431.27 58.6161 1429.06 59.7805C1426.86 60.8836 1425.11 62.4464 1423.82 64.4688L1417.94 60.0563C1419.78 57.2371 1422.29 55.0309 1425.48 53.4375C1428.72 51.844 1432.31 51.0473 1436.23 51.0473C1442.61 51.0473 1447.6 52.7327 1451.22 56.1034C1454.89 59.4128 1456.73 63.9479 1456.73 69.7087V99.4014H1449.29V92.6906H1448.92C1447.57 94.9582 1445.55 96.8887 1442.85 98.4821C1440.15 100.076 1437.12 100.872 1433.75 100.872ZM1434.49 93.9776C1437.12 93.9776 1439.57 93.3035 1441.84 91.9552C1444.11 90.6069 1445.91 88.799 1447.26 86.5315C1448.61 84.2639 1449.29 81.7819 1449.29 79.0853C1447.81 78.1048 1446.01 77.3081 1443.86 76.6952C1441.72 76.0823 1439.45 75.7759 1437.06 75.7759C1432.77 75.7759 1429.52 76.6646 1427.31 78.4418C1425.17 80.2191 1424.1 82.5173 1424.1 85.3364C1424.1 87.9104 1425.08 89.9941 1427.04 91.5875C1429 93.1809 1431.48 93.9776 1434.49 93.9776ZM1481.68 100.872C1476.65 100.872 1472.45 99.7078 1469.08 97.379C1465.71 94.9888 1463.32 91.9552 1461.91 88.2781L1468.9 85.1526C1470.06 87.9717 1471.78 90.1473 1474.05 91.6794C1476.38 93.2116 1478.92 93.9776 1481.68 93.9776C1484.62 93.9776 1487.13 93.3954 1489.22 92.231C1491.3 91.0053 1492.34 89.2893 1492.34 87.083C1492.34 85.1219 1491.51 83.5591 1489.86 82.3947C1488.2 81.169 1485.6 80.1272 1482.05 79.2692L1476.35 77.7983C1472.61 76.8791 1469.54 75.3163 1467.15 73.11C1464.76 70.9037 1463.57 68.054 1463.57 64.5607C1463.57 61.8642 1464.36 59.5047 1465.96 57.4823C1467.61 55.3986 1469.79 53.8052 1472.49 52.702C1475.18 51.5989 1478.09 51.0473 1481.22 51.0473C1485.32 51.0473 1488.97 51.936 1492.16 53.7132C1495.41 55.4905 1497.7 57.9726 1499.05 61.1594L1492.25 64.2849C1490.17 60.1176 1486.46 58.0339 1481.13 58.0339C1478.55 58.0339 1476.28 58.6467 1474.32 59.8724C1472.42 61.0368 1471.47 62.5383 1471.47 64.3769C1471.47 66.0929 1472.15 67.5024 1473.5 68.6056C1474.84 69.6474 1476.87 70.5054 1479.56 71.1795L1486.37 72.9262C1490.96 74.0906 1494.43 75.8372 1496.75 78.166C1499.08 80.4336 1500.25 83.2221 1500.25 86.5315C1500.25 89.4119 1499.42 91.9552 1497.77 94.1615C1496.11 96.3065 1493.87 97.9612 1491.05 99.1256C1488.24 100.29 1485.11 100.872 1481.68 100.872ZM1528.24 100.872C1523.77 100.872 1519.75 99.7997 1516.2 97.6547C1512.65 95.5098 1509.86 92.5681 1507.83 88.8297C1505.87 85.03 1504.89 80.7707 1504.89 76.0517C1504.89 71.5166 1505.81 67.3492 1507.65 63.5495C1509.55 59.7498 1512.22 56.7162 1515.65 54.4487C1519.08 52.1811 1523.06 51.0473 1527.6 51.0473C1532.2 51.0473 1536.18 52.0892 1539.55 54.1729C1542.92 56.1953 1545.49 59.0144 1547.27 62.6302C1549.11 66.2461 1550.03 70.3828 1550.03 75.0405C1550.03 75.9598 1549.94 76.7565 1549.75 77.4306H1512.71C1512.89 80.9852 1513.75 83.9881 1515.28 86.4395C1516.81 88.891 1518.74 90.7295 1521.07 91.9552C1523.46 93.1809 1525.94 93.7938 1528.52 93.7938C1534.52 93.7938 1539.15 90.9747 1542.4 85.3364L1549.02 88.5539C1547 92.3536 1544.24 95.3565 1540.75 97.5628C1537.31 99.7691 1533.15 100.872 1528.24 100.872ZM1541.76 70.9957C1541.63 69.0345 1541.08 67.0734 1540.1 65.1123C1539.12 63.1512 1537.56 61.4965 1535.41 60.1482C1533.33 58.7999 1530.69 58.1258 1527.51 58.1258C1523.83 58.1258 1520.7 59.3208 1518.13 61.711C1515.62 64.0398 1513.96 67.1347 1513.17 70.9957H1541.76Z" fill="white"/>
<path d="M461.612 99.8672C457.157 99.8672 453.13 98.83 449.531 96.7554C445.992 94.6809 443.215 91.8132 441.202 88.1523C439.188 84.4303 438.182 80.2813 438.182 75.7051C438.182 71.312 439.127 67.285 441.019 63.624C442.971 59.9021 445.687 56.9733 449.164 54.8378C452.642 52.6412 456.608 51.543 461.062 51.543C465.639 51.543 469.605 52.5497 472.96 54.5632C476.377 56.5767 478.97 59.3835 480.74 62.9834C482.509 66.5223 483.394 70.6103 483.394 75.2475C483.394 75.7966 483.364 76.3458 483.303 76.8949C483.242 77.444 483.211 77.7491 483.211 77.8101H448.249C448.554 81.9592 450.049 85.1625 452.734 87.4201C455.419 89.6776 458.469 90.8064 461.886 90.8064C467.133 90.8064 471.161 88.3658 473.967 83.4846L482.57 87.6031C480.557 91.3251 477.75 94.3148 474.15 96.5724C470.611 98.769 466.432 99.8672 461.612 99.8672ZM473.144 70.1222C473.021 68.6578 472.533 67.1629 471.679 65.6375C470.825 64.1122 469.483 62.8308 467.652 61.7936C465.883 60.6953 463.656 60.1461 460.971 60.1461C457.981 60.1461 455.388 61.0614 453.191 62.8919C451.056 64.7223 449.592 67.1324 448.798 70.1222H473.144Z" fill="white"/>
<path d="M416.087 99.8672C410.9 99.8672 406.599 98.6774 403.182 96.2978C399.826 93.8572 397.446 90.8064 396.043 87.1455L405.012 83.3015C406.05 85.8032 407.544 87.6946 409.497 88.976C411.51 90.2573 413.707 90.898 416.087 90.898C418.588 90.898 420.632 90.4403 422.219 89.5251C423.805 88.5489 424.598 87.298 424.598 85.7727C424.598 84.3083 423.958 83.1185 422.676 82.2032C421.395 81.227 419.29 80.3728 416.361 79.6406L410.138 78.1762C406.721 77.383 403.761 75.9187 401.26 73.7831C398.819 71.5866 397.599 68.7493 397.599 65.2715C397.599 61.0614 399.338 57.736 402.816 55.2954C406.294 52.7938 410.565 51.543 415.629 51.543C419.839 51.543 423.561 52.4277 426.795 54.1971C430.09 55.9666 432.469 58.5292 433.934 61.8851L425.056 65.6375C424.202 63.7461 422.89 62.3427 421.12 61.4275C419.351 60.5122 417.429 60.0546 415.354 60.0546C413.341 60.0546 411.571 60.5122 410.046 61.4275C408.521 62.2817 407.758 63.441 407.758 64.9054C407.758 66.1867 408.277 67.2239 409.314 68.0171C410.412 68.8104 412.121 69.4815 414.439 70.0307L421.212 71.6781C425.788 72.8374 429.205 74.6068 431.462 76.9864C433.72 79.305 434.849 82.1117 434.849 85.4066C434.849 88.0912 434.025 90.5319 432.378 92.7284C430.791 94.925 428.564 96.6639 425.696 97.9452C422.89 99.2266 419.686 99.8672 416.087 99.8672Z" fill="white"/>
<path d="M367.921 99.8672C364.688 99.8672 361.759 99.2266 359.135 97.9452C356.573 96.6029 354.529 94.7724 353.003 92.4538C351.539 90.0742 350.807 87.3896 350.807 84.3998C350.807 79.6406 352.576 75.8881 356.115 73.1424C359.715 70.3968 364.261 69.0239 369.752 69.0239C374.572 69.0239 378.691 69.8476 382.108 71.495V69.573C382.108 66.8273 381.009 64.5698 378.813 62.8003C376.677 60.9699 374.084 60.0546 371.033 60.0546C366.396 60.0546 362.674 61.9461 359.867 65.7291L352.18 60.4207C354.315 57.553 356.969 55.3564 360.142 53.8311C363.376 52.3057 367.006 51.543 371.033 51.543C377.684 51.543 382.809 53.2209 386.409 56.5767C390.07 59.8716 391.901 64.5393 391.901 70.5798V98.4029H382.108V92.8199H381.558C380.094 94.8945 378.233 96.6029 375.976 97.9452C373.718 99.2266 371.033 99.8672 367.921 99.8672ZM369.569 91.5386C371.826 91.5386 373.901 90.9895 375.792 89.8912C377.745 88.7319 379.27 87.237 380.369 85.4066C381.528 83.5151 382.108 81.5016 382.108 79.366C378.874 77.5966 375.426 76.7119 371.765 76.7119C368.41 76.7119 365.786 77.444 363.894 78.9084C362.003 80.3728 361.057 82.2338 361.057 84.4913C361.057 86.5659 361.881 88.2743 363.528 89.6166C365.237 90.898 367.25 91.5386 369.569 91.5386Z" fill="white"/>
<path d="M325.684 99.8661C322.389 99.8661 319.43 99.1644 316.806 97.7611C314.244 96.3577 312.322 94.5882 311.04 92.4527H310.491V98.4017H300.973V32.8711H311.04V52.5486L310.491 58.8637H311.04C312.322 56.7892 314.244 55.0502 316.806 53.6469C319.43 52.2435 322.389 51.5418 325.684 51.5418C329.589 51.5418 333.189 52.5791 336.484 54.6536C339.84 56.7281 342.494 59.6264 344.446 63.3483C346.46 67.0093 347.466 71.1278 347.466 75.704C347.466 80.2801 346.46 84.3987 344.446 88.0596C342.494 91.7205 339.84 94.6188 336.484 96.7543C333.189 98.8288 329.589 99.8661 325.684 99.8661ZM323.945 90.6222C326.325 90.6222 328.521 90.0121 330.535 88.7918C332.609 87.5715 334.257 85.8325 335.477 83.575C336.758 81.2564 337.399 78.6327 337.399 75.704C337.399 72.7752 336.758 70.1821 335.477 67.9245C334.257 65.6059 332.609 63.8364 330.535 62.6161C328.521 61.3958 326.325 60.7857 323.945 60.7857C321.565 60.7857 319.338 61.3958 317.264 62.6161C315.25 63.8364 313.603 65.5754 312.322 67.833C311.101 70.0905 310.491 72.7142 310.491 75.704C310.491 78.6937 311.101 81.3174 312.322 83.575C313.603 85.8325 315.25 87.5715 317.264 88.7918C319.338 90.0121 321.565 90.6222 323.945 90.6222Z" fill="white"/>
<path d="M273.192 99.8672C268.738 99.8672 264.711 98.83 261.111 96.7554C257.572 94.6809 254.795 91.8132 252.782 88.1523C250.768 84.4303 249.762 80.2813 249.762 75.7051C249.762 71.312 250.707 67.285 252.599 63.624C254.551 59.9021 257.267 56.9733 260.745 54.8378C264.222 52.6412 268.188 51.543 272.643 51.543C277.219 51.543 281.185 52.5497 284.541 54.5632C287.957 56.5767 290.551 59.3835 292.32 62.9834C294.089 66.5223 294.974 70.6103 294.974 75.2475C294.974 75.7966 294.944 76.3458 294.883 76.8949C294.822 77.444 294.791 77.7491 294.791 77.8101H259.829C260.134 81.9592 261.629 85.1625 264.314 87.4201C266.999 89.6776 270.049 90.8064 273.466 90.8064C278.714 90.8064 282.741 88.3658 285.547 83.4846L294.15 87.6031C292.137 91.3251 289.33 94.3148 285.73 96.5724C282.191 98.769 278.012 99.8672 273.192 99.8672ZM284.724 70.1222C284.602 68.6578 284.113 67.1629 283.259 65.6375C282.405 64.1122 281.063 62.8308 279.232 61.7936C277.463 60.6953 275.236 60.1461 272.551 60.1461C269.561 60.1461 266.968 61.0614 264.772 62.8919C262.636 64.7223 261.172 67.1324 260.378 70.1222H284.724Z" fill="white"/>
<path d="M221.822 53.0076H231.341V59.7803H231.89C232.866 57.4617 234.636 55.5398 237.198 54.0144C239.761 52.428 242.384 51.6348 245.069 51.6348C247.266 51.6348 249.066 51.9398 250.469 52.55V63.0752C248.395 62.0379 246.076 61.5193 243.513 61.5193C240.218 61.5193 237.442 62.8006 235.185 65.3632C232.988 67.8649 231.89 70.9462 231.89 74.6071V98.4031H221.822V53.0076Z" fill="white"/>
<path d="M207.452 45.3189C205.561 45.3189 203.944 44.6782 202.602 43.3969C201.32 42.0545 200.68 40.4376 200.68 38.5462C200.68 36.6547 201.32 35.0683 202.602 33.787C203.944 32.4446 205.561 31.7734 207.452 31.7734C209.344 31.7734 210.93 32.4446 212.212 33.787C213.554 35.0683 214.225 36.6547 214.225 38.5462C214.225 40.4376 213.554 42.0545 212.212 43.3969C210.93 44.6782 209.344 45.3189 207.452 45.3189ZM202.419 53.0068H212.486V98.4023H202.419V53.0068Z" fill="white"/>
<path d="M156.562 32.8721H196.375V42.6651H166.813V61.5188H193.446V71.2203H166.813V98.4027H156.562V32.8721Z" fill="white"/>
<g clip-path="url(#clip0_47_1830)">
<path d="M86.8743 43.1134C84.1283 39.3031 77.814 31.4684 68.1144 19.8296C63.9039 14.7813 60.2921 10.4962 58.5142 8.39247C57.5337 7.232 56.6928 6.23909 56.0288 5.45406L54.9707 4.20672L54.3967 3.53029L54.285 3.36584L54.2354 3.34412L51.7872 0.467773L48.6844 2.95626C40.7628 9.30161 34.2747 17.4807 29.9276 26.5969C27.2622 32.0207 25.5215 37.3235 24.6093 42.7845C24.3704 44.0133 24.1656 45.2761 23.9949 46.5421C22.9306 46.4552 21.8477 46.3994 20.7742 46.3745C20.6842 46.3683 20.5942 46.3652 20.4732 46.3621C16.5419 46.2256 12.6323 46.6941 8.85608 47.7584L7.23949 48.2114L6.40793 49.6698C2.51074 56.5054 0.304608 64.2873 0.0284535 72.1717C-0.328375 82.4111 2.46109 92.3216 8.09588 100.833C13.6097 109.158 21.3978 115.522 30.6195 119.236L31.8203 119.72L32.1834 119.847L32.1989 119.841C37.0021 121.585 42.0442 122.559 47.1857 122.736C47.769 122.758 48.3492 122.767 48.9295 122.767C55.4176 122.767 61.735 121.498 67.7297 118.988L67.7731 119.006L69.368 118.268C77.454 114.529 84.3734 108.652 89.3783 101.27C94.526 93.6776 97.4178 84.7941 97.7405 75.5817C98.1253 64.5697 94.467 53.6476 86.8712 43.1165L86.8743 43.1134ZM50.7788 77.2325C52.4512 83.5716 52.1223 89.6625 49.8076 95.3624C44.0239 89.6532 39.7823 83.3761 37.1945 76.6863C34.4236 69.5312 32.7574 62.7235 32.2299 56.4278C34.6781 57.2314 36.9276 58.2926 38.9321 59.5989C44.6972 63.3565 48.6844 69.2891 50.7788 77.2356V77.2325ZM51.8338 107.92C54.2912 109.791 56.8759 111.544 59.5412 113.157C55.6161 114.225 51.5669 114.693 47.4711 114.547C46.8382 114.526 46.2052 114.488 45.5691 114.436C47.9024 112.425 50 110.244 51.8307 107.92H51.8338ZM58.6973 75.1442C56.066 65.1716 50.9184 57.6317 43.4002 52.7354C40.1019 50.5882 36.3443 48.9592 32.2175 47.8949C32.2764 47.2092 32.3509 46.5266 32.4378 45.8564C32.5123 45.2823 32.5898 44.7548 32.6736 44.2615C33.3531 40.7522 34.3647 37.2801 35.6741 33.9445C36.1767 32.6661 36.7259 31.3971 37.3093 30.1714L37.331 30.128C38.2308 28.3066 39.2455 26.4666 40.4401 24.4994L40.9086 23.7268L40.8931 23.7175C43.667 19.3828 46.9902 15.4297 50.7912 11.9452L52.2588 13.6797C55.6813 17.7352 58.899 21.5703 61.825 25.0796C68.4061 32.9733 76.939 43.3399 80.2311 47.9105C86.7409 56.9336 89.8779 66.1459 89.5583 75.2994C89.3101 82.408 87.2063 89.3398 83.4705 95.3407C79.9332 101.028 75.0059 105.788 69.2004 109.139C65.9611 107.523 61.2571 104.863 56.2615 100.994C60.289 92.967 61.1113 84.2759 58.7004 75.1442H58.6973ZM45.5753 102.648C41.8829 107.433 37.4892 110.545 34.9263 112.109C34.5105 111.957 34.0947 111.798 33.6851 111.631L33.3562 111.5C25.7635 108.363 19.3593 103.061 14.8353 96.1599C10.212 89.1071 7.92212 80.9093 8.21689 72.451C8.42789 66.388 9.93898 60.5949 12.7129 55.2301C14.3233 54.8733 15.9647 54.6499 17.6061 54.5661L18.0312 54.5568C18.8597 54.5382 19.6851 54.5382 20.4701 54.5568C21.6243 54.6095 22.7817 54.7305 23.9205 54.9136C24.2928 62.6211 26.1855 70.9368 29.5521 79.6372C32.7946 88.0118 38.1812 95.7472 45.5722 102.645L45.5753 102.648Z" fill="white"/>
</g>
<g filter="url(#filter0_d_47_1830)">
<circle cx="100" cy="90" r="30" fill="white"/>
<path d="M97 78H88C86.35 78 85.015 79.35 85.015 81L85 99C85 100.65 86.35 102 88 102H112C113.65 102 115 100.65 115 99V84C115 82.35 113.65 81 112 81H100L97 78ZM99.175 95.565L103.999 90L110.5 97.5H91L95.875 91.5L99.175 95.565Z" fill="#1F1F1F"/>
</g>
<defs>
<filter id="filter0_d_47_1830" x="68" y="58.6704" width="64" height="64" filterUnits="userSpaceOnUse" color-interpolation-filters="sRGB">
<feFlood flood-opacity="0" result="BackgroundImageFix"/>
<feColorMatrix in="SourceAlpha" type="matrix" values="0 0 0 0 0 0 0 0 0 0 0 0 0 0 0 0 0 0 127 0" result="hardAlpha"/>
<feOffset dy="0.670408"/>
<feGaussianBlur stdDeviation="1"/>
<feComposite in2="hardAlpha" operator="out"/>
<feColorMatrix type="matrix" values="0 0 0 0 0 0 0 0 0 0 0 0 0 0 0 0 0 0 0.3 0"/>
<feBlend mode="normal" in2="BackgroundImageFix" result="effect1_dropShadow_47_1830"/>
<feBlend mode="normal" in="SourceGraphic" in2="effect1_dropShadow_47_1830" result="shape"/>
</filter>
<clipPath id="clip0_47_1830">
<rect width="97.7741" height="122.296" fill="white" transform="translate(-0.00195312 0.467773)"/>
</clipPath>
</defs>
</svg>
