<svg width="807" height="128" viewBox="0 0 807 128" fill="none" xmlns="http://www.w3.org/2000/svg">
<path d="M506.53 33.5811H514.252V62.0787H548.265V33.5811H555.987V99.4014H548.265V69.4329H514.252V99.4014H506.53V33.5811ZM588.92 100.872C584.323 100.872 580.186 99.7691 576.509 97.5628C572.832 95.3565 569.952 92.3536 567.868 88.5539C565.846 84.7542 564.835 80.5562 564.835 75.9598C564.835 71.3634 565.846 67.1653 567.868 63.3657C569.952 59.566 572.832 56.563 576.509 54.3567C580.186 52.1505 584.323 51.0473 588.92 51.0473C593.516 51.0473 597.653 52.1505 601.33 54.3567C605.007 56.563 607.857 59.566 609.879 63.3657C611.963 67.1653 613.005 71.3634 613.005 75.9598C613.005 80.5562 611.963 84.7542 609.879 88.5539C607.857 92.3536 605.007 95.3565 601.33 97.5628C597.653 99.7691 593.516 100.872 588.92 100.872ZM588.92 93.7938C591.8 93.7938 594.466 93.089 596.917 91.6794C599.43 90.2086 601.422 88.1249 602.893 85.4283C604.425 82.7318 605.191 79.5756 605.191 75.9598C605.191 72.3439 604.425 69.1878 602.893 66.4912C601.422 63.7947 599.43 61.7416 596.917 60.332C594.466 58.8612 591.8 58.1258 588.92 58.1258C586.039 58.1258 583.343 58.8612 580.83 60.332C578.317 61.7416 576.295 63.7947 574.763 66.4912C573.292 69.1878 572.556 72.3439 572.556 75.9598C572.556 79.5756 573.292 82.7318 574.763 85.4283C576.295 88.1249 578.317 90.2086 580.83 91.6794C583.343 93.089 586.039 93.7938 588.92 93.7938ZM636.154 100.872C631.129 100.872 626.931 99.7078 623.56 97.379C620.189 94.9888 617.799 91.9552 616.389 88.2781L623.376 85.1526C624.54 87.9717 626.256 90.1473 628.524 91.6794C630.853 93.2116 633.396 93.9776 636.154 93.9776C639.096 93.9776 641.608 93.3954 643.692 92.231C645.776 91.0053 646.818 89.2893 646.818 87.083C646.818 85.1219 645.99 83.5591 644.336 82.3947C642.681 81.169 640.076 80.1272 636.522 79.2692L630.822 77.7983C627.084 76.8791 624.019 75.3163 621.629 73.11C619.239 70.9037 618.044 68.054 618.044 64.5607C618.044 61.8642 618.841 59.5047 620.434 57.4823C622.089 55.3986 624.265 53.8052 626.961 52.702C629.658 51.5989 632.569 51.0473 635.694 51.0473C639.8 51.0473 643.447 51.936 646.634 53.7132C649.882 55.4905 652.18 57.9726 653.528 61.1594L646.726 64.2849C644.642 60.1176 640.934 58.0339 635.602 58.0339C633.028 58.0339 630.761 58.6467 628.8 59.8724C626.9 61.0368 625.95 62.5383 625.95 64.3769C625.95 66.0929 626.624 67.5024 627.972 68.6056C629.321 69.6474 631.343 70.5054 634.04 71.1795L640.842 72.9262C645.439 74.0906 648.901 75.8372 651.23 78.166C653.559 80.4336 654.723 83.2221 654.723 86.5315C654.723 89.4119 653.896 91.9552 652.241 94.1615C650.587 96.3065 648.35 97.9612 645.531 99.1256C642.711 100.29 639.586 100.872 636.154 100.872ZM678.971 100.137C677.072 100.137 675.294 99.8304 673.64 99.2175C672.046 98.6047 670.698 97.7773 669.595 96.7355C668.369 95.571 667.45 94.2228 666.837 92.6906C666.224 91.1585 665.918 89.2893 665.918 87.083V59.5966H657.736V52.5182H665.918V39.2806H673.732V52.5182H685.131V59.5966H673.732V85.1526C673.732 87.7265 674.222 89.6264 675.202 90.8521C676.367 92.2004 678.052 92.8745 680.258 92.8745C682.036 92.8745 683.752 92.3536 685.406 91.3117V98.9417C684.487 99.3707 683.537 99.6772 682.557 99.861C681.637 100.045 680.442 100.137 678.971 100.137ZM697.825 43.877C696.293 43.877 694.976 43.3254 693.872 42.2223C692.769 41.1191 692.218 39.8015 692.218 38.2694C692.218 36.7372 692.769 35.4503 693.872 34.4084C694.976 33.3053 696.293 32.7537 697.825 32.7537C699.357 32.7537 700.675 33.3053 701.778 34.4084C702.881 35.4503 703.433 36.7372 703.433 38.2694C703.433 39.8015 702.881 41.1191 701.778 42.2223C700.736 43.3254 699.419 43.877 697.825 43.877ZM693.964 52.5182H701.686V99.4014H693.964V52.5182ZM712.128 52.5182H719.574V59.4128H719.942C721.229 57.0839 723.282 55.1228 726.101 53.5294C728.92 51.8747 731.923 51.0473 735.11 51.0473C740.748 51.0473 745.038 52.702 747.98 56.0114C750.983 59.2596 752.484 63.7027 752.484 69.341V99.4014H744.67V70.536C744.67 66.1848 743.629 63.0286 741.545 61.0675C739.461 59.1063 736.611 58.1258 732.996 58.1258C730.483 58.1258 728.215 58.8306 726.193 60.2401C724.232 61.6497 722.7 63.5189 721.597 65.8477C720.493 68.1153 719.942 70.5054 719.942 73.0181V99.4014H712.128V52.5182ZM781.962 120.729C776.447 120.729 771.881 119.442 768.265 116.868C764.71 114.294 762.32 111.199 761.095 107.583L768.173 104.549C769.215 107.246 770.931 109.421 773.321 111.076C775.772 112.792 778.653 113.65 781.962 113.65C786.804 113.65 790.542 112.241 793.177 109.421C795.874 106.602 797.222 102.619 797.222 97.4709V92.231H796.855C795.322 94.6211 793.147 96.5822 790.328 98.1144C787.57 99.5852 784.414 100.321 780.859 100.321C776.814 100.321 773.107 99.2788 769.736 97.1951C766.426 95.1114 763.791 92.2004 761.83 88.462C759.869 84.7236 758.888 80.4642 758.888 75.684C758.888 70.965 759.869 66.7364 761.83 62.998C763.791 59.1983 766.426 56.2566 769.736 54.1729C773.107 52.0892 776.814 51.0473 780.859 51.0473C784.414 51.0473 787.57 51.8134 790.328 53.3455C793.147 54.8164 795.322 56.7775 796.855 59.2289H797.222V52.5182H804.668V97.5628C804.668 105.101 802.585 110.831 798.417 114.753C794.25 118.737 788.765 120.729 781.962 120.729ZM781.962 93.2422C784.781 93.2422 787.325 92.5374 789.592 91.1279C791.921 89.7183 793.76 87.6959 795.108 85.0606C796.517 82.4254 797.222 79.2998 797.222 75.684C797.222 72.0069 796.517 68.8507 795.108 66.2154C793.76 63.5802 791.921 61.5884 789.592 60.2401C787.325 58.8306 784.781 58.1258 781.962 58.1258C779.143 58.1258 776.569 58.8306 774.24 60.2401C771.911 61.6497 770.042 63.6721 768.633 66.3074C767.284 68.9426 766.61 72.0682 766.61 75.684C766.61 79.2998 767.284 82.456 768.633 85.1526C770.042 87.7878 771.911 89.8102 774.24 91.2198C776.569 92.5681 779.143 93.2422 781.962 93.2422Z" fill="white"/>
<path d="M461.612 99.8672C457.157 99.8672 453.13 98.83 449.531 96.7554C445.992 94.6809 443.215 91.8132 441.202 88.1523C439.188 84.4303 438.182 80.2813 438.182 75.7051C438.182 71.312 439.127 67.285 441.019 63.624C442.971 59.9021 445.687 56.9733 449.164 54.8378C452.642 52.6412 456.608 51.543 461.062 51.543C465.639 51.543 469.605 52.5497 472.96 54.5632C476.377 56.5767 478.97 59.3835 480.74 62.9834C482.509 66.5223 483.394 70.6103 483.394 75.2475C483.394 75.7966 483.364 76.3458 483.303 76.8949C483.242 77.444 483.211 77.7491 483.211 77.8101H448.249C448.554 81.9592 450.049 85.1625 452.734 87.4201C455.419 89.6776 458.469 90.8064 461.886 90.8064C467.133 90.8064 471.161 88.3658 473.967 83.4846L482.57 87.6031C480.557 91.3251 477.75 94.3148 474.15 96.5724C470.611 98.769 466.432 99.8672 461.612 99.8672ZM473.144 70.1222C473.021 68.6578 472.533 67.1629 471.679 65.6375C470.825 64.1122 469.483 62.8308 467.652 61.7936C465.883 60.6953 463.656 60.1461 460.971 60.1461C457.981 60.1461 455.388 61.0614 453.191 62.8919C451.056 64.7223 449.592 67.1324 448.798 70.1222H473.144Z" fill="white"/>
<path d="M416.087 99.8672C410.9 99.8672 406.599 98.6774 403.182 96.2978C399.826 93.8572 397.446 90.8064 396.043 87.1455L405.012 83.3015C406.05 85.8032 407.544 87.6946 409.497 88.976C411.51 90.2573 413.707 90.898 416.087 90.898C418.588 90.898 420.632 90.4403 422.219 89.5251C423.805 88.5489 424.598 87.298 424.598 85.7727C424.598 84.3083 423.958 83.1185 422.676 82.2032C421.395 81.227 419.29 80.3728 416.361 79.6406L410.138 78.1762C406.721 77.383 403.761 75.9187 401.26 73.7831C398.819 71.5866 397.599 68.7493 397.599 65.2715C397.599 61.0614 399.338 57.736 402.816 55.2954C406.294 52.7938 410.565 51.543 415.629 51.543C419.839 51.543 423.561 52.4277 426.795 54.1971C430.09 55.9666 432.469 58.5292 433.934 61.8851L425.056 65.6375C424.202 63.7461 422.89 62.3427 421.12 61.4275C419.351 60.5122 417.429 60.0546 415.354 60.0546C413.341 60.0546 411.571 60.5122 410.046 61.4275C408.521 62.2817 407.758 63.441 407.758 64.9054C407.758 66.1867 408.277 67.2239 409.314 68.0171C410.412 68.8104 412.121 69.4815 414.439 70.0307L421.212 71.6781C425.788 72.8374 429.205 74.6068 431.462 76.9864C433.72 79.305 434.849 82.1117 434.849 85.4066C434.849 88.0912 434.025 90.5319 432.378 92.7284C430.791 94.925 428.564 96.6639 425.696 97.9452C422.89 99.2266 419.686 99.8672 416.087 99.8672Z" fill="white"/>
<path d="M367.921 99.8672C364.688 99.8672 361.759 99.2266 359.135 97.9452C356.573 96.6029 354.529 94.7724 353.003 92.4538C351.539 90.0742 350.807 87.3896 350.807 84.3998C350.807 79.6406 352.576 75.8881 356.115 73.1424C359.715 70.3968 364.261 69.0239 369.752 69.0239C374.572 69.0239 378.691 69.8476 382.108 71.495V69.573C382.108 66.8273 381.009 64.5698 378.813 62.8003C376.677 60.9699 374.084 60.0546 371.033 60.0546C366.396 60.0546 362.674 61.9461 359.867 65.7291L352.18 60.4207C354.315 57.553 356.969 55.3564 360.142 53.8311C363.376 52.3057 367.006 51.543 371.033 51.543C377.684 51.543 382.809 53.2209 386.409 56.5767C390.07 59.8716 391.901 64.5393 391.901 70.5798V98.4029H382.108V92.8199H381.558C380.094 94.8945 378.233 96.6029 375.976 97.9452C373.718 99.2266 371.033 99.8672 367.921 99.8672ZM369.569 91.5386C371.826 91.5386 373.901 90.9895 375.792 89.8912C377.745 88.7319 379.27 87.237 380.369 85.4066C381.528 83.5151 382.108 81.5016 382.108 79.366C378.874 77.5966 375.426 76.7119 371.765 76.7119C368.41 76.7119 365.786 77.444 363.894 78.9084C362.003 80.3728 361.057 82.2338 361.057 84.4913C361.057 86.5659 361.881 88.2743 363.528 89.6166C365.237 90.898 367.25 91.5386 369.569 91.5386Z" fill="white"/>
<path d="M325.684 99.8671C322.389 99.8671 319.43 99.1654 316.806 97.762C314.244 96.3587 312.322 94.5892 311.04 92.4537H310.491V98.4027H300.973V32.8721H311.04V52.5496L310.491 58.8647H311.04C312.322 56.7901 314.244 55.0512 316.806 53.6478C319.43 52.2445 322.389 51.5428 325.684 51.5428C329.589 51.5428 333.189 52.5801 336.484 54.6546C339.84 56.7291 342.494 59.6274 344.446 63.3493C346.46 67.0102 347.466 71.1288 347.466 75.7049C347.466 80.2811 346.46 84.3996 344.446 88.0606C342.494 91.7215 339.84 94.6197 336.484 96.7553C333.189 98.8298 329.589 99.8671 325.684 99.8671ZM323.945 90.6232C326.325 90.6232 328.521 90.0131 330.535 88.7928C332.609 87.5724 334.257 85.8335 335.477 83.5759C336.758 81.2573 337.399 78.6337 337.399 75.7049C337.399 72.7762 336.758 70.183 335.477 67.9255C334.257 65.6069 332.609 63.8374 330.535 62.6171C328.521 61.3968 326.325 60.7866 323.945 60.7866C321.565 60.7866 319.338 61.3968 317.264 62.6171C315.25 63.8374 313.603 65.5764 312.322 67.8339C311.101 70.0915 310.491 72.7152 310.491 75.7049C310.491 78.6947 311.101 81.3184 312.322 83.5759C313.603 85.8335 315.25 87.5724 317.264 88.7928C319.338 90.0131 321.565 90.6232 323.945 90.6232Z" fill="white"/>
<path d="M273.192 99.8672C268.738 99.8672 264.711 98.83 261.111 96.7554C257.572 94.6809 254.795 91.8132 252.782 88.1523C250.768 84.4303 249.762 80.2813 249.762 75.7051C249.762 71.312 250.707 67.285 252.599 63.624C254.551 59.9021 257.267 56.9733 260.745 54.8378C264.222 52.6412 268.188 51.543 272.643 51.543C277.219 51.543 281.185 52.5497 284.541 54.5632C287.957 56.5767 290.551 59.3835 292.32 62.9834C294.089 66.5223 294.974 70.6103 294.974 75.2475C294.974 75.7966 294.944 76.3458 294.883 76.8949C294.822 77.444 294.791 77.7491 294.791 77.8101H259.829C260.134 81.9592 261.629 85.1625 264.314 87.4201C266.999 89.6776 270.049 90.8064 273.466 90.8064C278.714 90.8064 282.741 88.3658 285.547 83.4846L294.15 87.6031C292.137 91.3251 289.33 94.3148 285.73 96.5724C282.191 98.769 278.012 99.8672 273.192 99.8672ZM284.724 70.1222C284.602 68.6578 284.113 67.1629 283.259 65.6375C282.405 64.1122 281.063 62.8308 279.232 61.7936C277.463 60.6953 275.236 60.1461 272.551 60.1461C269.561 60.1461 266.968 61.0614 264.772 62.8919C262.636 64.7223 261.172 67.1324 260.378 70.1222H284.724Z" fill="white"/>
<path d="M221.822 53.0076H231.341V59.7803H231.89C232.866 57.4617 234.636 55.5398 237.198 54.0144C239.761 52.428 242.384 51.6348 245.069 51.6348C247.266 51.6348 249.066 51.9398 250.469 52.55V63.0752C248.395 62.0379 246.076 61.5193 243.513 61.5193C240.218 61.5193 237.442 62.8006 235.185 65.3632C232.988 67.8649 231.89 70.9462 231.89 74.6071V98.4031H221.822V53.0076Z" fill="white"/>
<path d="M207.452 45.3189C205.561 45.3189 203.944 44.6782 202.602 43.3969C201.32 42.0545 200.68 40.4376 200.68 38.5462C200.68 36.6547 201.32 35.0683 202.602 33.787C203.944 32.4446 205.561 31.7734 207.452 31.7734C209.344 31.7734 210.93 32.4446 212.212 33.787C213.554 35.0683 214.225 36.6547 214.225 38.5462C214.225 40.4376 213.554 42.0545 212.212 43.3969C210.93 44.6782 209.344 45.3189 207.452 45.3189ZM202.419 53.0068H212.486V98.4023H202.419V53.0068Z" fill="white"/>
<path d="M156.562 32.8721H196.375V42.6651H166.813V61.5188H193.446V71.2203H166.813V98.4027H156.562V32.8721Z" fill="white"/>
<path d="M96.6179 66.9557V66.9173C96.6171 66.9029 96.6171 66.8885 96.6179 66.874C95.463 59.3471 92.4665 52.4136 88.4918 46.177C87.9918 45.3884 87.4719 44.6132 86.9403 43.843C86.6825 43.4696 86.4209 43.0995 86.1553 42.7328C81.044 35.6376 64.9002 16.3476 56.4192 6.28996C53.2111 2.48397 51.0996 0 51.0996 0C50.143 0.766866 49.208 1.55818 48.2948 2.37395L48.2631 2.40228C41.6491 8.5865 36.1645 15.8777 32.056 23.9479L32.0426 23.9729C31.2516 25.5289 30.5128 27.1126 29.8261 28.7241C28.2377 32.4574 26.9465 36.3104 25.9648 40.2471C25.3692 42.6266 24.8871 45.0478 24.5182 47.5107C22.4884 47.1785 20.4382 46.9858 18.382 46.9338C17.9931 46.9238 17.6043 46.9188 17.2154 46.9188C13.8555 46.9163 10.5059 47.291 7.22949 48.0358C5.2239 51.2756 3.6094 54.7417 2.41983 58.3618C0.811797 63.2612 -0.00504604 68.3857 2.34521e-05 73.5424C2.34521e-05 97.1119 16.7888 116.762 39.0571 121.171C42.1801 121.79 45.3561 122.101 48.5398 122.1C49.168 122.1 49.793 122.087 50.4163 122.065C52.0528 122.001 53.6666 121.858 55.2576 121.638C58.9651 121.124 62.6003 120.181 66.0901 118.828C67.0201 118.467 67.9356 118.078 68.8366 117.661C85.502 109.974 97.0795 93.1092 97.0795 73.5424C97.0732 71.339 96.9189 69.1385 96.6179 66.9557ZM32.8726 110.599C28.0934 108.579 23.7517 105.65 20.0885 101.975C16.4155 98.3105 13.4883 93.968 11.4692 89.1881C9.37475 84.2363 8.30117 78.9125 8.31274 73.5358C8.30099 68.1584 9.37457 62.834 11.4692 57.8817C11.8025 57.0859 12.163 56.3046 12.5508 55.5378C14.0914 55.3445 15.6427 55.2476 17.1954 55.2476C19.3797 55.2475 21.5597 55.4405 23.7099 55.8245C23.6633 56.9098 23.6399 58.0051 23.6399 59.1037C23.6106 79.543 31.667 99.1636 46.05 113.681C41.5137 113.414 37.0568 112.371 32.8726 110.599ZM50.7046 106.499C49.7291 105.462 48.7909 104.399 47.8898 103.308C43.5702 98.1073 40.0404 92.2979 37.4139 86.0673C33.8047 77.535 31.9539 68.3618 31.9727 59.097C31.9727 58.8447 31.9727 58.593 31.9727 58.3418C36.1015 60.1738 39.8555 62.7547 43.0452 65.9538C47.9902 70.8741 51.4142 77.1149 52.9078 83.9301C53.4725 86.5199 53.7563 89.1631 53.7544 91.8138C53.77 96.8667 52.7354 101.868 50.7163 106.499H50.7046ZM88.7701 74.9278C88.5155 82.4895 86.1301 89.8254 81.889 96.09C78.4423 101.178 73.883 105.413 68.5566 108.476L68.5033 108.451C67.1034 109.254 65.6565 109.971 64.1703 110.599C62.3188 111.382 60.4107 112.025 58.4624 112.521C58.1157 112.61 57.768 112.693 57.4191 112.771C57.2308 112.814 57.0441 112.856 56.8558 112.894C56.9291 112.761 57.0008 112.623 57.0708 112.486C57.1791 112.277 57.2858 112.069 57.3891 111.859C58.6614 109.314 59.686 106.652 60.4489 103.91C61.5437 99.975 62.0971 95.9087 62.0938 91.8238C62.0952 88.8521 61.8033 85.8875 61.2222 82.9732C58.1341 67.5258 47.1249 54.9426 32.6126 49.6312C33.2811 44.7179 34.4808 39.8918 36.1907 35.2375C36.574 34.1961 36.9823 33.1619 37.4156 32.135C38.0689 30.5879 38.7755 29.0709 39.5354 27.5838C39.54 27.5764 39.5439 27.5686 39.5471 27.5605C39.8587 26.912 40.1804 26.2735 40.5137 25.6367C43.1296 20.6538 46.4272 16.06 50.3113 11.9881L50.3763 12.0665C53.8194 16.1509 58.4274 21.6456 63.017 27.1821C65.3652 30.0161 67.7084 32.8618 69.8882 35.5375C73.9762 40.5572 77.4893 44.9783 79.3875 47.604C79.6591 47.9808 79.9241 48.3559 80.1841 48.736C82.9106 52.6954 85.0171 56.6981 86.4453 60.6574C87.3533 63.1539 88.0082 65.7353 88.4001 68.3627V68.3961C88.7209 70.5576 88.8459 72.7437 88.7735 74.9278H88.7701Z" fill="white"/>
<g filter="url(#filter0_d_47_2693)">
<circle cx="100" cy="90" r="30" fill="white"/>
<path d="M100 75C91.72 75 85 81.72 85 90C85 98.28 91.72 105 100 105C108.28 105 115 98.28 115 90C115 81.72 108.28 75 100 75ZM98.5 101.895C92.575 101.16 88 96.12 88 90C88 89.07 88.12 88.185 88.315 87.315L95.5 94.5V96C95.5 97.65 96.85 99 98.5 99V101.895ZM108.85 98.085C108.46 96.87 107.35 96 106 96H104.5V91.5C104.5 90.675 103.825 90 103 90H94V87H97C97.825 87 98.5 86.325 98.5 85.5V82.5H101.5C103.15 82.5 104.5 81.15 104.5 79.5V78.885C108.895 80.67 112 84.975 112 90C112 93.12 110.8 95.955 108.85 98.085Z" fill="#1F1F1F"/>
</g>
<defs>
<filter id="filter0_d_47_2693" x="68" y="58.6704" width="64" height="64" filterUnits="userSpaceOnUse" color-interpolation-filters="sRGB">
<feFlood flood-opacity="0" result="BackgroundImageFix"/>
<feColorMatrix in="SourceAlpha" type="matrix" values="0 0 0 0 0 0 0 0 0 0 0 0 0 0 0 0 0 0 127 0" result="hardAlpha"/>
<feOffset dy="0.670408"/>
<feGaussianBlur stdDeviation="1"/>
<feComposite in2="hardAlpha" operator="out"/>
<feColorMatrix type="matrix" values="0 0 0 0 0 0 0 0 0 0 0 0 0 0 0 0 0 0 0.3 0"/>
<feBlend mode="normal" in2="BackgroundImageFix" result="effect1_dropShadow_47_2693"/>
<feBlend mode="normal" in="SourceGraphic" in2="effect1_dropShadow_47_2693" result="shape"/>
</filter>
</defs>
</svg>
