<svg width="625" height="127" viewBox="0 0 625 127" fill="none" xmlns="http://www.w3.org/2000/svg">
<path d="M506.53 33.1133H517.837L538.797 87.0749H539.164L560.124 33.1133H571.431V98.9336H563.709V57.1064L564.077 44.6043H563.709L542.198 98.9336H535.763L514.252 44.6043H513.884L514.252 57.1064V98.9336H506.53V33.1133ZM584.32 33.1133H592.042V91.4874H620.908V98.9336H584.32V33.1133Z" fill="white"/>
<path d="M461.612 99.3985C457.157 99.3985 453.13 98.3612 449.531 96.2867C445.992 94.2122 443.215 91.3444 441.202 87.6835C439.188 83.9616 438.182 79.8125 438.182 75.2364C438.182 70.8432 439.127 66.8162 441.019 63.1553C442.971 59.4333 445.687 56.5046 449.164 54.3691C452.642 52.1725 456.608 51.0742 461.062 51.0742C465.639 51.0742 469.605 52.081 472.96 54.0945C476.377 56.108 478.97 58.9147 480.74 62.5146C482.509 66.0535 483.394 70.1416 483.394 74.7787C483.394 75.3279 483.364 75.877 483.303 76.4262C483.242 76.9753 483.211 77.2804 483.211 77.3414H448.249C448.554 81.4904 450.049 84.6937 452.734 86.9513C455.419 89.2089 458.469 90.3377 461.886 90.3377C467.133 90.3377 471.161 87.8971 473.967 83.0158L482.57 87.1344C480.557 90.8563 477.75 93.8461 474.15 96.1036C470.611 98.3002 466.432 99.3985 461.612 99.3985ZM473.144 69.6534C473.021 68.1891 472.533 66.6942 471.679 65.1688C470.825 63.6434 469.483 62.3621 467.652 61.3248C465.883 60.2265 463.656 59.6774 460.971 59.6774C457.981 59.6774 455.388 60.5926 453.191 62.4231C451.056 64.2536 449.592 66.6637 448.798 69.6534H473.144Z" fill="white"/>
<path d="M416.087 99.3985C410.9 99.3985 406.599 98.2087 403.182 95.8291C399.826 93.3885 397.446 90.3377 396.043 86.6768L405.012 82.8328C406.05 85.3344 407.544 87.2259 409.497 88.5072C411.51 89.7885 413.707 90.4292 416.087 90.4292C418.588 90.4292 420.632 89.9716 422.219 89.0564C423.805 88.0801 424.598 86.8293 424.598 85.3039C424.598 83.8395 423.958 82.6497 422.676 81.7345C421.395 80.7582 419.29 79.904 416.361 79.1718L410.138 77.7075C406.721 76.9143 403.761 75.4499 401.26 73.3144C398.819 71.1178 397.599 68.2806 397.599 64.8027C397.599 60.5926 399.338 57.2673 402.816 54.8267C406.294 52.325 410.565 51.0742 415.629 51.0742C419.839 51.0742 423.561 51.9589 426.795 53.7284C430.09 55.4978 432.469 58.0605 433.934 61.4163L425.056 65.1688C424.202 63.2773 422.89 61.874 421.12 60.9587C419.351 60.0435 417.429 59.5859 415.354 59.5859C413.341 59.5859 411.571 60.0435 410.046 60.9587C408.521 61.8129 407.758 62.9722 407.758 64.4366C407.758 65.7179 408.277 66.7552 409.314 67.5484C410.412 68.3416 412.121 69.0128 414.439 69.5619L421.212 71.2093C425.788 72.3686 429.205 74.1381 431.462 76.5177C433.72 78.8363 434.849 81.643 434.849 84.9378C434.849 87.6225 434.025 90.0631 432.378 92.2597C430.791 94.4562 428.564 96.1952 425.696 97.4765C422.89 98.7578 419.686 99.3985 416.087 99.3985Z" fill="white"/>
<path d="M367.921 99.3985C364.688 99.3985 361.759 98.7578 359.135 97.4765C356.573 96.1342 354.529 94.3037 353.003 91.9851C351.539 89.6055 350.807 86.9208 350.807 83.9311C350.807 79.1719 352.576 75.4194 356.115 72.6737C359.715 69.928 364.261 68.5552 369.752 68.5552C374.572 68.5552 378.691 69.3789 382.108 71.0263V69.1043C382.108 66.3586 381.009 64.101 378.813 62.3316C376.677 60.5011 374.084 59.5859 371.033 59.5859C366.396 59.5859 362.674 61.4774 359.867 65.2603L352.18 59.952C354.315 57.0842 356.969 54.8877 360.142 53.3623C363.376 51.8369 367.006 51.0742 371.033 51.0742C377.684 51.0742 382.809 52.7521 386.409 56.108C390.07 59.4028 391.901 64.0705 391.901 70.111V97.9341H382.108V92.3512H381.558C380.094 94.4257 378.233 96.1342 375.976 97.4765C373.718 98.7578 371.033 99.3985 367.921 99.3985ZM369.569 91.0699C371.826 91.0699 373.901 90.5207 375.792 89.4224C377.745 88.2632 379.27 86.7683 380.369 84.9378C381.528 83.0463 382.108 81.0328 382.108 78.8973C378.874 77.1278 375.426 76.2431 371.765 76.2431C368.41 76.2431 365.786 76.9753 363.894 78.4397C362.003 79.904 361.057 81.765 361.057 84.0226C361.057 86.0971 361.881 87.8055 363.528 89.1479C365.237 90.4292 367.25 91.0699 369.569 91.0699Z" fill="white"/>
<path d="M325.684 99.3973C322.389 99.3973 319.43 98.6957 316.806 97.2923C314.244 95.8889 312.322 94.1195 311.04 91.984H310.491V97.933H300.973V32.4023H311.04V52.0798L310.491 58.3949H311.04C312.322 56.3204 314.244 54.5815 316.806 53.1781C319.43 51.7748 322.389 51.0731 325.684 51.0731C329.589 51.0731 333.189 52.1103 336.484 54.1849C339.84 56.2594 342.494 59.1576 344.446 62.8796C346.46 66.5405 347.466 70.659 347.466 75.2352C347.466 79.8114 346.46 83.9299 344.446 87.5908C342.494 91.2518 339.84 94.15 336.484 96.2855C333.189 98.3601 329.589 99.3973 325.684 99.3973ZM323.945 90.1535C326.325 90.1535 328.521 89.5433 330.535 88.323C332.609 87.1027 334.257 85.3638 335.477 83.1062C336.758 80.7876 337.399 78.164 337.399 75.2352C337.399 72.3065 336.758 69.7133 335.477 67.4557C334.257 65.1371 332.609 63.3677 330.535 62.1474C328.521 60.9271 326.325 60.3169 323.945 60.3169C321.565 60.3169 319.338 60.9271 317.264 62.1474C315.25 63.3677 313.603 65.1066 312.322 67.3642C311.101 69.6218 310.491 72.2454 310.491 75.2352C310.491 78.225 311.101 80.8486 312.322 83.1062C313.603 85.3638 315.25 87.1027 317.264 88.323C319.338 89.5433 321.565 90.1535 323.945 90.1535Z" fill="white"/>
<path d="M273.192 99.3985C268.738 99.3985 264.711 98.3612 261.111 96.2867C257.572 94.2122 254.795 91.3444 252.782 87.6835C250.768 83.9616 249.762 79.8125 249.762 75.2364C249.762 70.8432 250.707 66.8162 252.599 63.1553C254.551 59.4333 257.267 56.5046 260.745 54.3691C264.222 52.1725 268.188 51.0742 272.643 51.0742C277.219 51.0742 281.185 52.081 284.541 54.0945C287.957 56.108 290.551 58.9147 292.32 62.5146C294.089 66.0535 294.974 70.1416 294.974 74.7787C294.974 75.3279 294.944 75.877 294.883 76.4262C294.822 76.9753 294.791 77.2804 294.791 77.3414H259.829C260.134 81.4904 261.629 84.6937 264.314 86.9513C266.999 89.2089 270.049 90.3377 273.466 90.3377C278.714 90.3377 282.741 87.8971 285.547 83.0158L294.15 87.1344C292.137 90.8563 289.33 93.8461 285.73 96.1036C282.191 98.3002 278.012 99.3985 273.192 99.3985ZM284.724 69.6534C284.602 68.1891 284.113 66.6942 283.259 65.1688C282.405 63.6434 281.063 62.3621 279.232 61.3248C277.463 60.2265 275.236 59.6774 272.551 59.6774C269.561 59.6774 266.968 60.5926 264.772 62.4231C262.636 64.2536 261.172 66.6637 260.378 69.6534H284.724Z" fill="white"/>
<path d="M221.822 52.5389H231.341V59.3116H231.89C232.866 56.993 234.636 55.071 237.198 53.5456C239.761 51.9592 242.384 51.166 245.069 51.166C247.266 51.166 249.066 51.4711 250.469 52.0812V62.6064C248.395 61.5692 246.076 61.0505 243.513 61.0505C240.218 61.0505 237.442 62.3318 235.185 64.8945C232.988 67.3961 231.89 70.4774 231.89 74.1383V97.9344H221.822V52.5389Z" fill="white"/>
<path d="M207.452 44.8501C205.561 44.8501 203.944 44.2095 202.602 42.9281C201.32 41.5858 200.68 39.9689 200.68 38.0774C200.68 36.1859 201.32 34.5995 202.602 33.3182C203.944 31.9759 205.561 31.3047 207.452 31.3047C209.344 31.3047 210.93 31.9759 212.212 33.3182C213.554 34.5995 214.225 36.1859 214.225 38.0774C214.225 39.9689 213.554 41.5858 212.212 42.9281C210.93 44.2095 209.344 44.8501 207.452 44.8501ZM202.419 52.5381H212.486V97.9336H202.419V52.5381Z" fill="white"/>
<path d="M156.562 32.4033H196.375V42.1963H166.813V61.0501H193.446V70.7515H166.813V97.9339H156.562V32.4033Z" fill="white"/>
<path d="M96.6179 66.9557V66.9173C96.6171 66.9029 96.6171 66.8885 96.6179 66.874C95.463 59.3471 92.4665 52.4136 88.4918 46.177C87.9918 45.3884 87.4719 44.6132 86.9403 43.843C86.6825 43.4696 86.4209 43.0995 86.1553 42.7328C81.044 35.6376 64.9002 16.3476 56.4192 6.28996C53.2111 2.48397 51.0996 0 51.0996 0C50.143 0.766866 49.208 1.55818 48.2948 2.37395L48.2631 2.40228C41.6491 8.5865 36.1645 15.8777 32.056 23.9479L32.0426 23.9729C31.2516 25.5289 30.5128 27.1126 29.8261 28.7241C28.2377 32.4574 26.9465 36.3104 25.9648 40.2471C25.3692 42.6266 24.8871 45.0478 24.5182 47.5107C22.4884 47.1785 20.4382 46.9858 18.382 46.9338C17.9931 46.9238 17.6043 46.9188 17.2154 46.9188C13.8555 46.9163 10.5059 47.291 7.22949 48.0358C5.2239 51.2756 3.6094 54.7417 2.41983 58.3618C0.811797 63.2612 -0.00504604 68.3857 2.34521e-05 73.5424C2.34521e-05 97.1119 16.7888 116.762 39.0571 121.171C42.1801 121.79 45.3561 122.101 48.5398 122.1C49.168 122.1 49.793 122.087 50.4163 122.065C52.0528 122.001 53.6666 121.858 55.2576 121.638C58.9651 121.124 62.6003 120.181 66.0901 118.828C67.0201 118.467 67.9356 118.078 68.8366 117.661C85.502 109.974 97.0795 93.1092 97.0795 73.5424C97.0732 71.339 96.9189 69.1385 96.6179 66.9557ZM32.8726 110.599C28.0934 108.579 23.7517 105.65 20.0885 101.975C16.4155 98.3105 13.4883 93.968 11.4692 89.1881C9.37475 84.2363 8.30117 78.9125 8.31274 73.5358C8.30099 68.1584 9.37457 62.834 11.4692 57.8817C11.8025 57.0859 12.163 56.3046 12.5508 55.5378C14.0914 55.3445 15.6427 55.2476 17.1954 55.2476C19.3797 55.2475 21.5597 55.4405 23.7099 55.8245C23.6633 56.9098 23.6399 58.0051 23.6399 59.1037C23.6106 79.543 31.667 99.1636 46.05 113.681C41.5137 113.414 37.0568 112.371 32.8726 110.599ZM50.7046 106.499C49.7291 105.462 48.7909 104.399 47.8898 103.308C43.5702 98.1073 40.0404 92.2979 37.4139 86.0673C33.8047 77.535 31.9539 68.3618 31.9727 59.097C31.9727 58.8447 31.9727 58.593 31.9727 58.3418C36.1015 60.1738 39.8555 62.7547 43.0452 65.9538C47.9902 70.8741 51.4142 77.1149 52.9078 83.9301C53.4725 86.5199 53.7563 89.1631 53.7544 91.8138C53.77 96.8667 52.7354 101.868 50.7163 106.499H50.7046ZM88.7701 74.9278C88.5155 82.4895 86.1301 89.8254 81.889 96.09C78.4423 101.178 73.883 105.413 68.5566 108.476L68.5033 108.451C67.1034 109.254 65.6565 109.971 64.1703 110.599C62.3188 111.382 60.4107 112.025 58.4624 112.521C58.1157 112.61 57.768 112.693 57.4191 112.771C57.2308 112.814 57.0441 112.856 56.8558 112.894C56.9291 112.761 57.0008 112.623 57.0708 112.486C57.1791 112.277 57.2858 112.069 57.3891 111.859C58.6614 109.314 59.686 106.652 60.4489 103.91C61.5437 99.975 62.0971 95.9087 62.0938 91.8238C62.0952 88.8521 61.8033 85.8875 61.2222 82.9732C58.1341 67.5258 47.1249 54.9426 32.6126 49.6312C33.2811 44.7179 34.4808 39.8918 36.1907 35.2375C36.574 34.1961 36.9823 33.1619 37.4156 32.135C38.0689 30.5879 38.7755 29.0709 39.5354 27.5838C39.54 27.5764 39.5439 27.5686 39.5471 27.5605C39.8587 26.912 40.1804 26.2735 40.5137 25.6367C43.1296 20.6538 46.4272 16.06 50.3113 11.9881L50.3763 12.0665C53.8194 16.1509 58.4274 21.6456 63.017 27.1821C65.3652 30.0161 67.7084 32.8618 69.8882 35.5375C73.9762 40.5572 77.4893 44.9783 79.3875 47.604C79.6591 47.9808 79.9241 48.3559 80.1841 48.736C82.9106 52.6954 85.0171 56.6981 86.4453 60.6574C87.3533 63.1539 88.0082 65.7353 88.4001 68.3627V68.3961C88.7209 70.5576 88.8459 72.7437 88.7735 74.9278H88.7701Z" fill="white"/>
<g filter="url(#filter0_d_47_2442)">
<circle cx="100" cy="90" r="30" fill="white"/>
<path fill-rule="evenodd" clip-rule="evenodd" d="M100 72C101.491 72 102.7 73.1985 102.7 74.676C102.7 75.84 101.95 76.83 100.902 77.199L100.9 81H109C110.591 81 112.117 81.6321 113.243 82.7574C114.368 83.8826 115 85.4087 115 87H115.75C116.148 87 116.529 87.158 116.811 87.4393C117.092 87.7206 117.25 88.1022 117.25 88.5V95.919C117.25 96.3168 117.092 96.6984 116.811 96.9797C116.529 97.261 116.148 97.419 115.75 97.419L115 97.4175V99C115 100.591 114.368 102.117 113.243 103.243C112.117 104.368 110.591 105 109 105H91C89.4087 105 87.8826 104.368 86.7574 103.243C85.6321 102.117 85 100.591 85 99V97.4175H84.25C83.8522 97.4175 83.4706 97.2595 83.1893 96.9782C82.908 96.6969 82.75 96.3153 82.75 95.9175V88.5C82.75 88.1022 82.908 87.7206 83.1893 87.4393C83.4706 87.158 83.8522 87 84.25 87H85C85 85.4087 85.6321 83.8826 86.7574 82.7574C87.8826 81.6321 89.4087 81 91 81H99.1V77.199C98.6109 77.0289 98.1815 76.7208 97.8637 76.3119C97.5459 75.9031 97.3532 75.411 97.309 74.895L97.3 74.676C97.3 73.1985 98.509 72 100 72ZM109 84H91C90.2431 83.9998 89.5142 84.2856 88.9592 84.8002C88.4042 85.3149 88.0643 86.0203 88.0075 86.775L88 87V99C87.9998 99.7569 88.2856 100.486 88.8002 101.041C89.3149 101.596 90.0203 101.936 90.775 101.993L91 102H109C109.757 102 110.486 101.714 111.041 101.2C111.596 100.685 111.936 99.9797 111.993 99.225L112 99V87C112 86.2431 111.714 85.5141 111.2 84.9592C110.685 84.4042 109.98 84.0643 109.225 84.0075L109 84ZM103.75 96L102.507 99H97.513L96.25 96H103.75ZM107.5 88.5V94.5H104.5V88.5H107.5ZM95.5 88.5V94.5H92.5V88.5H95.5Z" fill="#1F1F1F"/>
</g>
<defs>
<filter id="filter0_d_47_2442" x="68" y="58.6704" width="64" height="64" filterUnits="userSpaceOnUse" color-interpolation-filters="sRGB">
<feFlood flood-opacity="0" result="BackgroundImageFix"/>
<feColorMatrix in="SourceAlpha" type="matrix" values="0 0 0 0 0 0 0 0 0 0 0 0 0 0 0 0 0 0 127 0" result="hardAlpha"/>
<feOffset dy="0.670408"/>
<feGaussianBlur stdDeviation="1"/>
<feComposite in2="hardAlpha" operator="out"/>
<feColorMatrix type="matrix" values="0 0 0 0 0 0 0 0 0 0 0 0 0 0 0 0 0 0 0.3 0"/>
<feBlend mode="normal" in2="BackgroundImageFix" result="effect1_dropShadow_47_2442"/>
<feBlend mode="normal" in="SourceGraphic" in2="effect1_dropShadow_47_2442" result="shape"/>
</filter>
</defs>
</svg>
