<svg width="1049" height="128" viewBox="0 0 1049 128" fill="none" xmlns="http://www.w3.org/2000/svg">
<path d="M506.53 33.5811H526.386C533.128 33.5811 539.011 34.9906 544.037 37.8097C549.062 40.5676 552.923 44.4285 555.619 49.3926C558.316 54.3567 559.664 60.0563 559.664 66.4912C559.664 72.9262 558.316 78.6257 555.619 83.5898C552.923 88.5539 549.062 92.4455 544.037 95.2646C539.011 98.0225 533.128 99.4014 526.386 99.4014H506.53V33.5811ZM526.386 91.9552C534.17 91.9552 540.329 89.7183 544.864 85.2445C549.46 80.7707 551.758 74.5196 551.758 66.4912C551.758 58.4629 549.46 52.2118 544.864 47.7379C540.329 43.2641 534.17 41.0272 526.386 41.0272H514.252V91.9552H526.386ZM582.75 100.872C579.318 100.872 576.253 100.198 573.557 98.8498C570.86 97.5015 568.777 95.663 567.306 93.3341C565.835 90.944 565.1 88.2475 565.1 85.2445C565.1 80.2804 566.969 76.4194 570.707 73.6616C574.445 70.8425 579.164 69.4329 584.864 69.4329C587.683 69.4329 590.288 69.7393 592.678 70.3522C595.129 70.965 596.998 71.6698 598.285 72.4665V69.6168C598.285 66.1235 597.06 63.335 594.608 61.2513C592.157 59.1063 589.062 58.0339 585.324 58.0339C582.688 58.0339 580.268 58.6161 578.061 59.7805C575.855 60.8836 574.108 62.4464 572.821 64.4688L566.938 60.0563C568.777 57.2371 571.289 55.0309 574.476 53.4375C577.724 51.844 581.309 51.0473 585.232 51.0473C591.605 51.0473 596.6 52.7327 600.216 56.1034C603.893 59.4128 605.732 63.9479 605.732 69.7087V99.4014H598.285V92.6906H597.918C596.569 94.9582 594.547 96.8887 591.85 98.4821C589.154 100.076 586.12 100.872 582.75 100.872ZM583.485 93.9776C586.12 93.9776 588.572 93.3035 590.839 91.9552C593.107 90.6069 594.915 88.799 596.263 86.5315C597.611 84.2639 598.285 81.7819 598.285 79.0853C596.815 78.1048 595.007 77.3081 592.862 76.6952C590.717 76.0823 588.449 75.7759 586.059 75.7759C581.769 75.7759 578.521 76.6646 576.315 78.4418C574.17 80.2191 573.097 82.5173 573.097 85.3364C573.097 87.9104 574.078 89.9941 576.039 91.5875C578 93.1809 580.482 93.9776 583.485 93.9776ZM631.884 100.137C629.984 100.137 628.207 99.8304 626.552 99.2175C624.958 98.6047 623.61 97.7773 622.507 96.7355C621.281 95.571 620.362 94.2228 619.749 92.6906C619.136 91.1585 618.83 89.2893 618.83 87.083V59.5966H610.648V52.5182H618.83V39.2806H626.644V52.5182H638.043V59.5966H626.644V85.1526C626.644 87.7265 627.134 89.6264 628.115 90.8521C629.279 92.2004 630.964 92.8745 633.171 92.8745C634.948 92.8745 636.664 92.3536 638.319 91.3117V98.9417C637.399 99.3707 636.449 99.6772 635.469 99.861C634.55 100.045 633.354 100.137 631.884 100.137ZM659.779 100.872C656.347 100.872 653.282 100.198 650.586 98.8498C647.889 97.5015 645.806 95.663 644.335 93.3341C642.864 90.944 642.129 88.2475 642.129 85.2445C642.129 80.2804 643.998 76.4194 647.736 73.6616C651.475 70.8425 656.193 69.4329 661.893 69.4329C664.712 69.4329 667.317 69.7393 669.707 70.3522C672.158 70.965 674.027 71.6698 675.314 72.4665V69.6168C675.314 66.1235 674.089 63.335 671.637 61.2513C669.186 59.1063 666.091 58.0339 662.353 58.0339C659.717 58.0339 657.297 58.6161 655.09 59.7805C652.884 60.8836 651.137 62.4464 649.85 64.4688L643.967 60.0563C645.806 57.2371 648.318 55.0309 651.505 53.4375C654.753 51.844 658.338 51.0473 662.261 51.0473C668.634 51.0473 673.629 52.7327 677.245 56.1034C680.922 59.4128 682.761 63.9479 682.761 69.7087V99.4014H675.314V92.6906H674.947C673.598 94.9582 671.576 96.8887 668.88 98.4821C666.183 100.076 663.149 100.872 659.779 100.872ZM660.514 93.9776C663.149 93.9776 665.601 93.3035 667.868 91.9552C670.136 90.6069 671.944 88.799 673.292 86.5315C674.64 84.2639 675.314 81.7819 675.314 79.0853C673.844 78.1048 672.036 77.3081 669.891 76.6952C667.746 76.0823 665.478 75.7759 663.088 75.7759C658.798 75.7759 655.55 76.6646 653.344 78.4418C651.199 80.2191 650.126 82.5173 650.126 85.3364C650.126 87.9104 651.107 89.9941 653.068 91.5875C655.029 93.1809 657.511 93.9776 660.514 93.9776ZM741.975 100.872C735.601 100.872 729.81 99.3707 724.601 96.3677C719.391 93.3648 715.285 89.2587 712.282 84.0494C709.341 78.7789 707.87 72.9262 707.87 66.4912C707.87 60.0563 709.341 54.2342 712.282 49.0249C715.285 43.7544 719.391 39.6177 724.601 36.6147C729.81 33.6117 735.601 32.1102 741.975 32.1102C746.878 32.1102 751.352 33.0601 755.397 34.96C759.503 36.7985 763.057 39.4338 766.06 42.8658L760.453 48.2895C757.94 45.2865 755.182 43.0803 752.179 41.6707C749.237 40.2611 745.836 39.5564 741.975 39.5564C737.195 39.5564 732.813 40.6901 728.829 42.9577C724.846 45.164 721.659 48.3201 719.269 52.4263C716.94 56.4711 715.776 61.1594 715.776 66.4912C715.776 71.823 716.94 76.542 719.269 80.6481C721.659 84.6929 724.846 87.8491 728.829 90.1167C732.813 92.3229 737.195 93.4261 741.975 93.4261C749.942 93.4261 756.714 90.1473 762.291 83.5898L767.991 89.1055C764.926 92.7213 761.157 95.6017 756.684 97.7467C752.21 99.8304 747.307 100.872 741.975 100.872ZM795.631 100.872C791.035 100.872 786.898 99.7691 783.221 97.5628C779.544 95.3565 776.664 92.3536 774.58 88.5539C772.558 84.7542 771.546 80.5562 771.546 75.9598C771.546 71.3634 772.558 67.1653 774.58 63.3657C776.664 59.566 779.544 56.563 783.221 54.3567C786.898 52.1505 791.035 51.0473 795.631 51.0473C800.228 51.0473 804.365 52.1505 808.042 54.3567C811.719 56.563 814.569 59.566 816.591 63.3657C818.675 67.1653 819.717 71.3634 819.717 75.9598C819.717 80.5562 818.675 84.7542 816.591 88.5539C814.569 92.3536 811.719 95.3565 808.042 97.5628C804.365 99.7691 800.228 100.872 795.631 100.872ZM795.631 93.7938C798.512 93.7938 801.178 93.089 803.629 91.6794C806.142 90.2086 808.134 88.1249 809.604 85.4283C811.137 82.7318 811.903 79.5756 811.903 75.9598C811.903 72.3439 811.137 69.1878 809.604 66.4912C808.134 63.7947 806.142 61.7416 803.629 60.332C801.178 58.8612 798.512 58.1258 795.631 58.1258C792.751 58.1258 790.055 58.8612 787.542 60.332C785.029 61.7416 783.007 63.7947 781.475 66.4912C780.004 69.1878 779.268 72.3439 779.268 75.9598C779.268 79.5756 780.004 82.7318 781.475 85.4283C783.007 88.1249 785.029 90.2086 787.542 91.6794C790.055 93.089 792.751 93.7938 795.631 93.7938ZM826.054 52.5182H833.5V59.4128H833.868C835.155 57.0839 837.208 55.1228 840.027 53.5294C842.846 51.8747 845.849 51.0473 849.036 51.0473C854.674 51.0473 858.964 52.702 861.906 56.0114C864.909 59.2596 866.41 63.7027 866.41 69.341V99.4014H858.596V70.536C858.596 66.1848 857.554 63.0286 855.471 61.0675C853.387 59.1063 850.537 58.1258 846.921 58.1258C844.409 58.1258 842.141 58.8306 840.119 60.2401C838.158 61.6497 836.626 63.5189 835.522 65.8477C834.419 68.1153 833.868 70.5054 833.868 73.0181V99.4014H826.054V52.5182ZM875.745 52.5182H883.191V59.4128H883.559C884.846 57.0839 886.899 55.1228 889.718 53.5294C892.537 51.8747 895.54 51.0473 898.727 51.0473C904.365 51.0473 908.655 52.702 911.597 56.0114C914.6 59.2596 916.101 63.7027 916.101 69.341V99.4014H908.288V70.536C908.288 66.1848 907.246 63.0286 905.162 61.0675C903.078 59.1063 900.229 58.1258 896.613 58.1258C894.1 58.1258 891.832 58.8306 889.81 60.2401C887.849 61.6497 886.317 63.5189 885.214 65.8477C884.111 68.1153 883.559 70.5054 883.559 73.0181V99.4014H875.745V52.5182ZM946.304 100.872C941.83 100.872 937.816 99.7997 934.261 97.6547C930.707 95.5098 927.918 92.5681 925.896 88.8297C923.935 85.03 922.954 80.7707 922.954 76.0517C922.954 71.5166 923.874 67.3492 925.712 63.5495C927.612 59.7498 930.278 56.7162 933.71 54.4487C937.142 52.1811 941.125 51.0473 945.66 51.0473C950.257 51.0473 954.24 52.0892 957.611 54.1729C960.982 56.1953 963.556 59.0144 965.333 62.6302C967.172 66.2461 968.091 70.3828 968.091 75.0405C968.091 75.9598 967.999 76.7565 967.815 77.4306H930.768C930.952 80.9852 931.81 83.9881 933.342 86.4395C934.874 88.891 936.805 90.7295 939.134 91.9552C941.524 93.1809 944.006 93.7938 946.58 93.7938C952.586 93.7938 957.213 90.9747 960.461 85.3364L967.08 88.5539C965.057 92.3536 962.299 95.3565 958.806 97.5628C955.374 99.7691 951.207 100.872 946.304 100.872ZM959.817 70.9957C959.695 69.0345 959.143 67.0734 958.163 65.1123C957.182 63.1512 955.619 61.4965 953.474 60.1482C951.391 58.7999 948.755 58.1258 945.569 58.1258C941.891 58.1258 938.766 59.3208 936.192 61.711C933.679 64.0398 932.025 67.1347 931.228 70.9957H959.817ZM997.081 100.872C992.546 100.872 988.471 99.7997 984.855 97.6547C981.239 95.4485 978.42 92.4761 976.397 88.7377C974.375 84.9381 973.364 80.6787 973.364 75.9598C973.364 71.2408 974.375 66.9815 976.397 63.1818C978.42 59.3821 981.239 56.4098 984.855 54.2648C988.471 52.1198 992.546 51.0473 997.081 51.0473C1002.17 51.0473 1006.43 52.2424 1009.86 54.6325C1013.35 56.9614 1015.83 60.0869 1017.31 64.0092L1010.23 66.9509C1009.06 64.0704 1007.32 61.8948 1004.99 60.424C1002.72 58.8918 999.962 58.1258 996.713 58.1258C993.956 58.1258 991.382 58.8918 988.992 60.424C986.601 61.8948 984.671 63.9785 983.2 66.6751C981.791 69.3716 981.086 72.4665 981.086 75.9598C981.086 79.453 981.791 82.5479 983.2 85.2445C984.671 87.941 986.601 90.0554 988.992 91.5875C991.382 93.0583 993.956 93.7938 996.713 93.7938C1000.02 93.7938 1002.87 93.0277 1005.26 91.4956C1007.65 89.9634 1009.43 87.7878 1010.59 84.9687L1017.58 87.9104C1015.99 91.7714 1013.41 94.8969 1009.86 97.287C1006.37 99.6772 1002.11 100.872 997.081 100.872ZM1041.76 100.137C1039.86 100.137 1038.08 99.8304 1036.43 99.2175C1034.83 98.6047 1033.49 97.7773 1032.38 96.7355C1031.16 95.571 1030.24 94.2228 1029.63 92.6906C1029.01 91.1585 1028.71 89.2893 1028.71 87.083V59.5966H1020.52V52.5182H1028.71V39.2806H1036.52V52.5182H1047.92V59.5966H1036.52V85.1526C1036.52 87.7265 1037.01 89.6264 1037.99 90.8521C1039.15 92.2004 1040.84 92.8745 1043.05 92.8745C1044.82 92.8745 1046.54 92.3536 1048.19 91.3117V98.9417C1047.28 99.3707 1046.33 99.6772 1045.34 99.861C1044.43 100.045 1043.23 100.137 1041.76 100.137Z" fill="white"/>
<path d="M461.612 99.8672C457.157 99.8672 453.13 98.83 449.531 96.7554C445.992 94.6809 443.215 91.8132 441.202 88.1523C439.188 84.4303 438.182 80.2813 438.182 75.7051C438.182 71.312 439.127 67.285 441.019 63.624C442.971 59.9021 445.687 56.9733 449.164 54.8378C452.642 52.6412 456.608 51.543 461.062 51.543C465.639 51.543 469.605 52.5497 472.96 54.5632C476.377 56.5767 478.97 59.3835 480.74 62.9834C482.509 66.5223 483.394 70.6103 483.394 75.2475C483.394 75.7966 483.364 76.3458 483.303 76.8949C483.242 77.444 483.211 77.7491 483.211 77.8101H448.249C448.554 81.9592 450.049 85.1625 452.734 87.4201C455.419 89.6776 458.469 90.8064 461.886 90.8064C467.133 90.8064 471.161 88.3658 473.967 83.4846L482.57 87.6031C480.557 91.3251 477.75 94.3148 474.15 96.5724C470.611 98.769 466.432 99.8672 461.612 99.8672ZM473.144 70.1222C473.021 68.6578 472.533 67.1629 471.679 65.6375C470.825 64.1122 469.483 62.8308 467.652 61.7936C465.883 60.6953 463.656 60.1461 460.971 60.1461C457.981 60.1461 455.388 61.0614 453.191 62.8919C451.056 64.7223 449.592 67.1324 448.798 70.1222H473.144Z" fill="white"/>
<path d="M416.087 99.8672C410.9 99.8672 406.599 98.6774 403.182 96.2978C399.826 93.8572 397.446 90.8064 396.043 87.1455L405.012 83.3015C406.05 85.8032 407.544 87.6946 409.497 88.976C411.51 90.2573 413.707 90.898 416.087 90.898C418.588 90.898 420.632 90.4403 422.219 89.5251C423.805 88.5489 424.598 87.298 424.598 85.7727C424.598 84.3083 423.958 83.1185 422.676 82.2032C421.395 81.227 419.29 80.3728 416.361 79.6406L410.138 78.1762C406.721 77.383 403.761 75.9187 401.26 73.7831C398.819 71.5866 397.599 68.7493 397.599 65.2715C397.599 61.0614 399.338 57.736 402.816 55.2954C406.294 52.7938 410.565 51.543 415.629 51.543C419.839 51.543 423.561 52.4277 426.795 54.1971C430.09 55.9666 432.469 58.5292 433.934 61.8851L425.056 65.6375C424.202 63.7461 422.89 62.3427 421.12 61.4275C419.351 60.5122 417.429 60.0546 415.354 60.0546C413.341 60.0546 411.571 60.5122 410.046 61.4275C408.521 62.2817 407.758 63.441 407.758 64.9054C407.758 66.1867 408.277 67.2239 409.314 68.0171C410.412 68.8104 412.121 69.4815 414.439 70.0307L421.212 71.6781C425.788 72.8374 429.205 74.6068 431.462 76.9864C433.72 79.305 434.849 82.1117 434.849 85.4066C434.849 88.0912 434.025 90.5319 432.378 92.7284C430.791 94.925 428.564 96.6639 425.696 97.9452C422.89 99.2266 419.686 99.8672 416.087 99.8672Z" fill="white"/>
<path d="M367.921 99.8672C364.688 99.8672 361.759 99.2266 359.135 97.9452C356.573 96.6029 354.529 94.7724 353.003 92.4538C351.539 90.0742 350.807 87.3896 350.807 84.3998C350.807 79.6406 352.576 75.8881 356.115 73.1424C359.715 70.3968 364.261 69.0239 369.752 69.0239C374.572 69.0239 378.691 69.8476 382.108 71.495V69.573C382.108 66.8273 381.009 64.5698 378.813 62.8003C376.677 60.9699 374.084 60.0546 371.033 60.0546C366.396 60.0546 362.674 61.9461 359.867 65.7291L352.18 60.4207C354.315 57.553 356.969 55.3564 360.142 53.8311C363.376 52.3057 367.006 51.543 371.033 51.543C377.684 51.543 382.809 53.2209 386.409 56.5767C390.07 59.8716 391.901 64.5393 391.901 70.5798V98.4029H382.108V92.8199H381.558C380.094 94.8945 378.233 96.6029 375.976 97.9452C373.718 99.2266 371.033 99.8672 367.921 99.8672ZM369.569 91.5386C371.826 91.5386 373.901 90.9895 375.792 89.8912C377.745 88.7319 379.27 87.237 380.369 85.4066C381.528 83.5151 382.108 81.5016 382.108 79.366C378.874 77.5966 375.426 76.7119 371.765 76.7119C368.41 76.7119 365.786 77.444 363.894 78.9084C362.003 80.3728 361.057 82.2338 361.057 84.4913C361.057 86.5659 361.881 88.2743 363.528 89.6166C365.237 90.898 367.25 91.5386 369.569 91.5386Z" fill="white"/>
<path d="M325.684 99.8671C322.389 99.8671 319.43 99.1654 316.806 97.762C314.244 96.3587 312.322 94.5892 311.04 92.4537H310.491V98.4027H300.973V32.8721H311.04V52.5496L310.491 58.8647H311.04C312.322 56.7901 314.244 55.0512 316.806 53.6478C319.43 52.2445 322.389 51.5428 325.684 51.5428C329.589 51.5428 333.189 52.5801 336.484 54.6546C339.84 56.7291 342.494 59.6274 344.446 63.3493C346.46 67.0102 347.466 71.1288 347.466 75.7049C347.466 80.2811 346.46 84.3996 344.446 88.0606C342.494 91.7215 339.84 94.6197 336.484 96.7553C333.189 98.8298 329.589 99.8671 325.684 99.8671ZM323.945 90.6232C326.325 90.6232 328.521 90.0131 330.535 88.7928C332.609 87.5724 334.257 85.8335 335.477 83.5759C336.758 81.2573 337.399 78.6337 337.399 75.7049C337.399 72.7762 336.758 70.183 335.477 67.9255C334.257 65.6069 332.609 63.8374 330.535 62.6171C328.521 61.3968 326.325 60.7866 323.945 60.7866C321.565 60.7866 319.338 61.3968 317.264 62.6171C315.25 63.8374 313.603 65.5764 312.322 67.8339C311.101 70.0915 310.491 72.7152 310.491 75.7049C310.491 78.6947 311.101 81.3184 312.322 83.5759C313.603 85.8335 315.25 87.5724 317.264 88.7928C319.338 90.0131 321.565 90.6232 323.945 90.6232Z" fill="white"/>
<path d="M273.192 99.8672C268.738 99.8672 264.711 98.83 261.111 96.7554C257.572 94.6809 254.795 91.8132 252.782 88.1523C250.768 84.4303 249.762 80.2813 249.762 75.7051C249.762 71.312 250.707 67.285 252.599 63.624C254.551 59.9021 257.267 56.9733 260.745 54.8378C264.222 52.6412 268.188 51.543 272.643 51.543C277.219 51.543 281.185 52.5497 284.541 54.5632C287.957 56.5767 290.551 59.3835 292.32 62.9834C294.089 66.5223 294.974 70.6103 294.974 75.2475C294.974 75.7966 294.944 76.3458 294.883 76.8949C294.822 77.444 294.791 77.7491 294.791 77.8101H259.829C260.134 81.9592 261.629 85.1625 264.314 87.4201C266.999 89.6776 270.049 90.8064 273.466 90.8064C278.714 90.8064 282.741 88.3658 285.547 83.4846L294.15 87.6031C292.137 91.3251 289.33 94.3148 285.73 96.5724C282.191 98.769 278.012 99.8672 273.192 99.8672ZM284.724 70.1222C284.602 68.6578 284.113 67.1629 283.259 65.6375C282.405 64.1122 281.063 62.8308 279.232 61.7936C277.463 60.6953 275.236 60.1461 272.551 60.1461C269.561 60.1461 266.968 61.0614 264.772 62.8919C262.636 64.7223 261.172 67.1324 260.378 70.1222H284.724Z" fill="white"/>
<path d="M221.822 53.0076H231.341V59.7803H231.89C232.866 57.4617 234.636 55.5398 237.198 54.0144C239.761 52.428 242.384 51.6348 245.069 51.6348C247.266 51.6348 249.066 51.9398 250.469 52.55V63.0752C248.395 62.0379 246.076 61.5193 243.513 61.5193C240.218 61.5193 237.442 62.8006 235.185 65.3632C232.988 67.8649 231.89 70.9462 231.89 74.6071V98.4031H221.822V53.0076Z" fill="white"/>
<path d="M207.452 45.3189C205.561 45.3189 203.944 44.6782 202.602 43.3969C201.32 42.0545 200.68 40.4376 200.68 38.5462C200.68 36.6547 201.32 35.0683 202.602 33.787C203.944 32.4446 205.561 31.7734 207.452 31.7734C209.344 31.7734 210.93 32.4446 212.212 33.787C213.554 35.0683 214.225 36.6547 214.225 38.5462C214.225 40.4376 213.554 42.0545 212.212 43.3969C210.93 44.6782 209.344 45.3189 207.452 45.3189ZM202.419 53.0068H212.486V98.4023H202.419V53.0068Z" fill="white"/>
<path d="M156.562 32.8721H196.375V42.6651H166.813V61.5188H193.446V71.2203H166.813V98.4027H156.562V32.8721Z" fill="white"/>
<g clip-path="url(#clip0_47_1852)">
<path d="M86.8743 43.1134C84.1283 39.3031 77.814 31.4684 68.1144 19.8296C63.9039 14.7813 60.2921 10.4962 58.5142 8.39247C57.5337 7.232 56.6928 6.23909 56.0288 5.45406L54.9707 4.20672L54.3967 3.53029L54.285 3.36584L54.2354 3.34412L51.7872 0.467773L48.6844 2.95626C40.7628 9.30161 34.2747 17.4807 29.9276 26.5969C27.2622 32.0207 25.5215 37.3235 24.6093 42.7845C24.3704 44.0133 24.1656 45.2761 23.9949 46.5421C22.9306 46.4552 21.8477 46.3994 20.7742 46.3745C20.6842 46.3683 20.5942 46.3652 20.4732 46.3621C16.5419 46.2256 12.6323 46.6941 8.85608 47.7584L7.23949 48.2114L6.40793 49.6698C2.51074 56.5054 0.304608 64.2873 0.0284535 72.1717C-0.328375 82.4111 2.46109 92.3216 8.09588 100.833C13.6097 109.158 21.3978 115.522 30.6195 119.236L31.8203 119.72L32.1834 119.847L32.1989 119.841C37.0021 121.585 42.0442 122.559 47.1857 122.736C47.769 122.758 48.3492 122.767 48.9295 122.767C55.4176 122.767 61.735 121.498 67.7297 118.988L67.7731 119.006L69.368 118.268C77.454 114.529 84.3734 108.652 89.3783 101.27C94.526 93.6776 97.4178 84.7941 97.7405 75.5817C98.1253 64.5697 94.467 53.6476 86.8712 43.1165L86.8743 43.1134ZM50.7788 77.2325C52.4512 83.5716 52.1223 89.6625 49.8076 95.3624C44.0239 89.6532 39.7823 83.3761 37.1945 76.6863C34.4236 69.5312 32.7574 62.7235 32.2299 56.4278C34.6781 57.2314 36.9276 58.2926 38.9321 59.5989C44.6972 63.3565 48.6844 69.2891 50.7788 77.2356V77.2325ZM51.8338 107.92C54.2912 109.791 56.8759 111.544 59.5412 113.157C55.6161 114.225 51.5669 114.693 47.4711 114.547C46.8382 114.526 46.2052 114.488 45.5691 114.436C47.9024 112.425 50 110.244 51.8307 107.92H51.8338ZM58.6973 75.1442C56.066 65.1716 50.9184 57.6317 43.4002 52.7354C40.1019 50.5882 36.3443 48.9592 32.2175 47.8949C32.2764 47.2092 32.3509 46.5266 32.4378 45.8564C32.5123 45.2823 32.5898 44.7548 32.6736 44.2615C33.3531 40.7522 34.3647 37.2801 35.6741 33.9445C36.1767 32.6661 36.7259 31.3971 37.3093 30.1714L37.331 30.128C38.2308 28.3066 39.2455 26.4666 40.4401 24.4994L40.9086 23.7268L40.8931 23.7175C43.667 19.3828 46.9902 15.4297 50.7912 11.9452L52.2588 13.6797C55.6813 17.7352 58.899 21.5703 61.825 25.0796C68.4061 32.9733 76.939 43.3399 80.2311 47.9105C86.7409 56.9336 89.8779 66.1459 89.5583 75.2994C89.3101 82.408 87.2063 89.3398 83.4705 95.3407C79.9332 101.028 75.0059 105.788 69.2004 109.139C65.9611 107.523 61.2571 104.863 56.2615 100.994C60.289 92.967 61.1113 84.2759 58.7004 75.1442H58.6973ZM45.5753 102.648C41.8829 107.433 37.4892 110.545 34.9263 112.109C34.5105 111.957 34.0947 111.798 33.6851 111.631L33.3562 111.5C25.7635 108.363 19.3593 103.061 14.8353 96.1599C10.212 89.1071 7.92212 80.9093 8.21689 72.451C8.42789 66.388 9.93898 60.5949 12.7129 55.2301C14.3233 54.8733 15.9647 54.6499 17.6061 54.5661L18.0312 54.5568C18.8597 54.5382 19.6851 54.5382 20.4701 54.5568C21.6243 54.6095 22.7817 54.7305 23.9205 54.9136C24.2928 62.6211 26.1855 70.9368 29.5521 79.6372C32.7946 88.0118 38.1812 95.7472 45.5722 102.645L45.5753 102.648Z" fill="white"/>
</g>
<g filter="url(#filter0_d_47_1852)">
<circle cx="100" cy="90.4678" r="30" fill="white"/>
<path fill-rule="evenodd" clip-rule="evenodd" d="M100.346 100.392L93.2043 93.2502C94.4262 91.0995 94.1202 88.3162 92.2863 86.4822C90.0851 84.281 86.5162 84.281 84.315 86.4822C82.1138 88.6835 82.1138 92.2523 84.315 94.4536C86.1489 96.2875 88.9322 96.5935 91.083 95.3715L98.2246 102.513C100.364 104.652 103.164 104.668 104.984 103.175C106.814 101.673 107.291 98.9448 105.52 96.5063L96.8401 82.8526L96.8089 82.8104C95.905 81.5867 96.28 80.6187 96.8639 80.137C97.4644 79.6416 98.5553 79.4438 99.6553 80.5439L104.79 85.6786C105.376 86.2644 106.326 86.2644 106.911 85.6786C107.497 85.0928 107.497 84.143 106.911 83.5573L101.777 78.4226C99.6119 76.2579 96.7786 76.3183 94.9549 77.8228C93.1256 79.3318 92.5718 82.081 94.363 84.5479L103.043 98.2017L103.074 98.2439C103.999 99.4961 103.605 100.426 103.081 100.856C102.536 101.302 101.472 101.518 100.346 100.392ZM86.4363 92.3322C87.4659 93.3619 89.1353 93.3619 90.165 92.3322C91.1946 91.3026 91.1946 89.6332 90.165 88.6036C89.1353 87.5739 87.4659 87.5739 86.4363 88.6036C85.4067 89.6332 85.4067 91.3026 86.4363 92.3322Z" fill="#1F1F1F"/>
<path d="M107.801 86.5679C105.647 88.7218 105.647 92.214 107.801 94.3679C109.955 96.5218 113.447 96.5218 115.601 94.3679C117.755 92.214 117.755 88.7218 115.601 86.5679C113.447 84.414 109.955 84.414 107.801 86.5679Z" fill="#1F1F1F"/>
</g>
<defs>
<filter id="filter0_d_47_1852" x="68" y="59.1382" width="64" height="64" filterUnits="userSpaceOnUse" color-interpolation-filters="sRGB">
<feFlood flood-opacity="0" result="BackgroundImageFix"/>
<feColorMatrix in="SourceAlpha" type="matrix" values="0 0 0 0 0 0 0 0 0 0 0 0 0 0 0 0 0 0 127 0" result="hardAlpha"/>
<feOffset dy="0.670408"/>
<feGaussianBlur stdDeviation="1"/>
<feComposite in2="hardAlpha" operator="out"/>
<feColorMatrix type="matrix" values="0 0 0 0 0 0 0 0 0 0 0 0 0 0 0 0 0 0 0.3 0"/>
<feBlend mode="normal" in2="BackgroundImageFix" result="effect1_dropShadow_47_1852"/>
<feBlend mode="normal" in="SourceGraphic" in2="effect1_dropShadow_47_1852" result="shape"/>
</filter>
<clipPath id="clip0_47_1852">
<rect width="97.7741" height="122.296" fill="white" transform="translate(-0.00195312 0.467773)"/>
</clipPath>
</defs>
</svg>
