<svg width="1103" height="127" viewBox="0 0 1103 127" fill="none" xmlns="http://www.w3.org/2000/svg">
<path d="M537.418 100.404C531.044 100.404 525.253 98.903 520.043 95.9C514.834 92.897 510.728 88.7909 507.725 83.5816C504.783 78.3111 503.313 72.4584 503.313 66.0234C503.313 59.5885 504.783 53.7664 507.725 48.5572C510.728 43.2866 514.834 39.1499 520.043 36.1469C525.253 33.1439 531.044 31.6424 537.418 31.6424C542.321 31.6424 546.794 32.5924 550.839 34.4922C554.945 36.3308 558.5 38.966 561.503 42.398L555.895 47.8217C553.383 44.8188 550.625 42.6125 547.622 41.2029C544.68 39.7934 541.279 39.0886 537.418 39.0886C532.638 39.0886 528.256 40.2224 524.272 42.4899C520.289 44.6962 517.102 47.8524 514.712 51.9585C512.383 56.0033 511.218 60.6916 511.218 66.0234C511.218 71.3553 512.383 76.0742 514.712 80.1803C517.102 84.2251 520.289 87.3813 524.272 89.6489C528.256 91.8552 532.638 92.9583 537.418 92.9583C545.385 92.9583 552.157 89.6795 557.734 83.122L563.433 88.6377C560.369 92.2535 556.6 95.1339 552.126 97.2789C547.652 99.3626 542.75 100.404 537.418 100.404ZM570.369 33.1133H578.183V98.9336H570.369V33.1133ZM609.075 100.404C604.479 100.404 600.342 99.3013 596.665 97.095C592.988 94.8888 590.108 91.8858 588.024 88.0861C586.002 84.2864 584.99 80.0884 584.99 75.492C584.99 70.8956 586.002 66.6976 588.024 62.8979C590.108 59.0982 592.988 56.0952 596.665 53.889C600.342 51.6827 604.479 50.5796 609.075 50.5796C613.672 50.5796 617.809 51.6827 621.486 53.889C625.163 56.0952 628.013 59.0982 630.035 62.8979C632.119 66.6976 633.161 70.8956 633.161 75.492C633.161 80.0884 632.119 84.2864 630.035 88.0861C628.013 91.8858 625.163 94.8888 621.486 97.095C617.809 99.3013 613.672 100.404 609.075 100.404ZM609.075 93.326C611.956 93.326 614.622 92.6212 617.073 91.2117C619.586 89.7408 621.578 87.6571 623.048 84.9606C624.581 82.264 625.347 79.1078 625.347 75.492C625.347 71.8762 624.581 68.72 623.048 66.0234C621.578 63.3269 619.586 61.2738 617.073 59.8643C614.622 58.3934 611.956 57.658 609.075 57.658C606.195 57.658 603.499 58.3934 600.986 59.8643C598.473 61.2738 596.451 63.3269 594.919 66.0234C593.448 68.72 592.712 71.8762 592.712 75.492C592.712 79.1078 593.448 82.264 594.919 84.9606C596.451 87.6571 598.473 89.7408 600.986 91.2117C603.499 92.6212 606.195 93.326 609.075 93.326ZM656.953 100.404C651.315 100.404 646.994 98.7497 643.992 95.4403C641.05 92.1309 639.579 87.5039 639.579 81.5592V52.0504H647.393V80.3642C647.393 84.838 648.404 88.1168 650.426 90.2005C652.449 92.2841 655.176 93.326 658.608 93.326C661.243 93.326 663.572 92.6212 665.595 91.2117C667.678 89.8021 669.272 87.9635 670.375 85.696C671.539 83.4284 672.121 81.0383 672.121 78.5256V52.0504H679.935V98.9336H672.489V92.1309H672.121C670.834 94.4598 668.781 96.4209 665.962 98.0143C663.143 99.6077 660.14 100.404 656.953 100.404ZM709.046 100.404C704.878 100.404 701.078 99.3319 697.646 97.187C694.276 95.042 691.61 92.1003 689.649 88.3619C687.688 84.5622 686.707 80.2722 686.707 75.492C686.707 70.773 687.688 66.5137 689.649 62.714C691.61 58.9144 694.276 55.942 697.646 53.797C701.078 51.6521 704.878 50.5796 709.046 50.5796C712.661 50.5796 715.879 51.4069 718.698 53.0616C721.517 54.655 723.662 56.6468 725.133 59.0369H725.501L725.133 52.5101V33.1133H732.947V98.9336H725.501V92.039H725.133C723.662 94.3678 721.517 96.3596 718.698 98.0143C715.879 99.6077 712.661 100.404 709.046 100.404ZM709.965 93.326C712.723 93.326 715.266 92.5906 717.595 91.1197C719.985 89.6489 721.885 87.5652 723.294 84.8686C724.765 82.1721 725.501 79.0465 725.501 75.492C725.501 71.9375 724.765 68.8119 723.294 66.1154C721.885 63.4188 719.985 61.3351 717.595 59.8643C715.266 58.3934 712.723 57.658 709.965 57.658C707.268 57.658 704.725 58.3934 702.335 59.8643C699.945 61.3351 698.014 63.4495 696.543 66.2073C695.134 68.9038 694.429 71.9987 694.429 75.492C694.429 78.9853 695.134 82.1108 696.543 84.8686C698.014 87.5652 699.945 89.6489 702.335 91.1197C704.725 92.5906 707.268 93.326 709.965 93.326ZM763.741 33.1133H801.799V40.5594H771.463V63.0817H798.858V70.436H771.463V98.9336H763.741V33.1133ZM812.875 43.4092C811.343 43.4092 810.025 42.8576 808.922 41.7545C807.819 40.6514 807.267 39.3337 807.267 37.8016C807.267 36.2695 807.819 34.9825 808.922 33.9406C810.025 32.8375 811.343 32.2859 812.875 32.2859C814.407 32.2859 815.725 32.8375 816.828 33.9406C817.931 34.9825 818.483 36.2695 818.483 37.8016C818.483 39.3337 817.931 40.6514 816.828 41.7545C815.786 42.8576 814.469 43.4092 812.875 43.4092ZM809.014 52.0504H816.736V98.9336H809.014V52.0504ZM827.178 52.0504H834.624V59.5885H834.992C835.911 57.0145 837.688 54.9002 840.323 53.2455C842.959 51.5295 845.717 50.6715 848.597 50.6715C850.742 50.6715 852.58 50.9779 854.113 51.5908V60.0481C852.151 59.0676 849.945 58.5773 847.494 58.5773C845.226 58.5773 843.143 59.2208 841.243 60.5078C839.343 61.7948 837.811 63.5414 836.646 65.7477C835.543 67.8926 834.992 70.2215 834.992 72.7342V98.9336H827.178V52.0504ZM877.897 100.404C873.423 100.404 869.409 99.3319 865.854 97.187C862.3 95.042 859.511 92.1003 857.489 88.3619C855.528 84.5622 854.547 80.3029 854.547 75.5839C854.547 71.0488 855.466 66.8814 857.305 63.0817C859.205 59.2821 861.871 56.2484 865.303 53.9809C868.735 51.7133 872.718 50.5796 877.253 50.5796C881.85 50.5796 885.833 51.6214 889.204 53.7051C892.575 55.7275 895.149 58.5466 896.926 62.1625C898.764 65.7783 899.684 69.915 899.684 74.5727C899.684 75.492 899.592 76.2887 899.408 76.9628H862.361C862.545 80.5174 863.403 83.5204 864.935 85.9718C866.467 88.4232 868.398 90.2617 870.726 91.4874C873.117 92.7131 875.599 93.326 878.173 93.326C884.179 93.326 888.806 90.5069 892.054 84.8686L898.672 88.0861C896.65 91.8858 893.892 94.8888 890.399 97.095C886.967 99.3013 882.8 100.404 877.897 100.404ZM891.41 70.5279C891.288 68.5668 890.736 66.6056 889.755 64.6445C888.775 62.6834 887.212 61.0287 885.067 59.6804C882.983 58.3321 880.348 57.658 877.161 57.658C873.484 57.658 870.359 58.8531 867.785 61.2432C865.272 63.572 863.617 66.6669 862.821 70.5279H891.41ZM923.802 100.404C918.776 100.404 914.578 99.24 911.208 96.9112C907.837 94.5211 905.447 91.4874 904.037 87.8103L911.024 84.6848C912.188 87.5039 913.904 89.6795 916.172 91.2117C918.501 92.7438 921.044 93.5099 923.802 93.5099C926.743 93.5099 929.256 92.9276 931.34 91.7632C933.424 90.5375 934.465 88.8215 934.465 86.6153C934.465 84.6541 933.638 83.0914 931.983 81.9269C930.329 80.7012 927.724 79.6594 924.169 78.8014L918.47 77.3306C914.732 76.4113 911.667 74.8485 909.277 72.6422C906.887 70.436 905.692 67.5862 905.692 64.093C905.692 61.3964 906.489 59.0369 908.082 57.0145C909.737 54.9308 911.912 53.3374 914.609 52.2343C917.306 51.1311 920.217 50.5796 923.342 50.5796C927.448 50.5796 931.095 51.4682 934.282 53.2455C937.53 55.0227 939.828 57.5048 941.176 60.6916L934.373 63.8172C932.29 59.6498 928.582 57.5661 923.25 57.5661C920.676 57.5661 918.409 58.1789 916.448 59.4046C914.548 60.5691 913.598 62.0705 913.598 63.9091C913.598 65.6251 914.272 67.0346 915.62 68.1378C916.968 69.1796 918.991 70.0376 921.687 70.7118L928.49 72.4584C933.086 73.6228 936.549 75.3694 938.878 77.6983C941.207 79.9658 942.371 82.7543 942.371 86.0637C942.371 88.9441 941.544 91.4874 939.889 93.6937C938.234 95.8387 935.998 97.4934 933.178 98.6578C930.359 99.8222 927.234 100.404 923.802 100.404ZM966.619 99.669C964.719 99.669 962.942 99.3626 961.288 98.7497C959.694 98.1369 958.346 97.3095 957.243 96.2677C956.017 95.1033 955.098 93.755 954.485 92.2229C953.872 90.6907 953.566 88.8215 953.566 86.6153V59.1289H945.384V52.0504H953.566V38.8128H961.379V52.0504H972.778V59.1289H961.379V84.6848C961.379 87.2588 961.87 89.1586 962.85 90.3843C964.015 91.7326 965.7 92.4067 967.906 92.4067C969.684 92.4067 971.4 91.8858 973.054 90.8439V98.474C972.135 98.903 971.185 99.2094 970.205 99.3932C969.285 99.5771 968.09 99.669 966.619 99.669ZM999.966 100.404C995.37 100.404 991.233 99.3013 987.556 97.095C983.879 94.8888 980.998 91.8858 978.915 88.0861C976.892 84.2864 975.881 80.0884 975.881 75.492C975.881 70.8956 976.892 66.6976 978.915 62.8979C980.998 59.0982 983.879 56.0952 987.556 53.889C991.233 51.6827 995.37 50.5796 999.966 50.5796C1004.56 50.5796 1008.7 51.6827 1012.38 53.889C1016.05 56.0952 1018.9 59.0982 1020.93 62.8979C1023.01 66.6976 1024.05 70.8956 1024.05 75.492C1024.05 80.0884 1023.01 84.2864 1020.93 88.0861C1018.9 91.8858 1016.05 94.8888 1012.38 97.095C1008.7 99.3013 1004.56 100.404 999.966 100.404ZM999.966 93.326C1002.85 93.326 1005.51 92.6212 1007.96 91.2117C1010.48 89.7408 1012.47 87.6571 1013.94 84.9606C1015.47 82.264 1016.24 79.1078 1016.24 75.492C1016.24 71.8762 1015.47 68.72 1013.94 66.0234C1012.47 63.3269 1010.48 61.2738 1007.96 59.8643C1005.51 58.3934 1002.85 57.658 999.966 57.658C997.086 57.658 994.389 58.3934 991.876 59.8643C989.364 61.2738 987.341 63.3269 985.809 66.0234C984.338 68.72 983.603 71.8762 983.603 75.492C983.603 79.1078 984.338 82.264 985.809 84.9606C987.341 87.6571 989.364 89.7408 991.876 91.2117C994.389 92.6212 997.086 93.326 999.966 93.326ZM1030.39 52.0504H1037.83V59.5885H1038.2C1039.12 57.0145 1040.9 54.9002 1043.53 53.2455C1046.17 51.5295 1048.93 50.6715 1051.81 50.6715C1053.95 50.6715 1055.79 50.9779 1057.32 51.5908V60.0481C1055.36 59.0676 1053.16 58.5773 1050.7 58.5773C1048.44 58.5773 1046.35 59.2208 1044.45 60.5078C1042.55 61.7948 1041.02 63.5414 1039.86 65.7477C1038.75 67.8926 1038.2 70.2215 1038.2 72.7342V98.9336H1030.39V52.0504ZM1081.11 100.404C1076.63 100.404 1072.62 99.3319 1069.06 97.187C1065.51 95.042 1062.72 92.1003 1060.7 88.3619C1058.74 84.5622 1057.76 80.3029 1057.76 75.5839C1057.76 71.0488 1058.68 66.8814 1060.52 63.0817C1062.42 59.2821 1065.08 56.2484 1068.51 53.9809C1071.95 51.7133 1075.93 50.5796 1080.46 50.5796C1085.06 50.5796 1089.04 51.6214 1092.41 53.7051C1095.79 55.7275 1098.36 58.5466 1100.14 62.1625C1101.98 65.7783 1102.89 69.915 1102.89 74.5727C1102.89 75.492 1102.8 76.2887 1102.62 76.9628H1065.57C1065.76 80.5174 1066.61 83.5204 1068.15 85.9718C1069.68 88.4232 1071.61 90.2617 1073.94 91.4874C1076.33 92.7131 1078.81 93.326 1081.38 93.326C1087.39 93.326 1092.02 90.5069 1095.26 84.8686L1101.88 88.0861C1099.86 91.8858 1097.1 94.8888 1093.61 97.095C1090.18 99.3013 1086.01 100.404 1081.11 100.404ZM1094.62 70.5279C1094.5 68.5668 1093.95 66.6056 1092.97 64.6445C1091.99 62.6834 1090.42 61.0287 1088.28 59.6804C1086.19 58.3321 1083.56 57.658 1080.37 57.658C1076.69 57.658 1073.57 58.8531 1071 61.2432C1068.48 63.572 1066.83 66.6669 1066.03 70.5279H1094.62Z" fill="white"/>
<path d="M461.612 99.3985C457.157 99.3985 453.13 98.3612 449.531 96.2867C445.992 94.2122 443.215 91.3444 441.202 87.6835C439.188 83.9616 438.182 79.8125 438.182 75.2364C438.182 70.8432 439.127 66.8162 441.019 63.1553C442.971 59.4333 445.687 56.5046 449.164 54.3691C452.642 52.1725 456.608 51.0742 461.062 51.0742C465.639 51.0742 469.605 52.081 472.96 54.0945C476.377 56.108 478.97 58.9147 480.74 62.5146C482.509 66.0535 483.394 70.1416 483.394 74.7787C483.394 75.3279 483.364 75.877 483.303 76.4262C483.242 76.9753 483.211 77.2804 483.211 77.3414H448.249C448.554 81.4904 450.049 84.6937 452.734 86.9513C455.419 89.2089 458.469 90.3377 461.886 90.3377C467.133 90.3377 471.161 87.8971 473.967 83.0158L482.57 87.1344C480.557 90.8563 477.75 93.8461 474.15 96.1036C470.611 98.3002 466.432 99.3985 461.612 99.3985ZM473.144 69.6534C473.021 68.1891 472.533 66.6942 471.679 65.1688C470.825 63.6434 469.483 62.3621 467.652 61.3248C465.883 60.2265 463.656 59.6774 460.971 59.6774C457.981 59.6774 455.388 60.5926 453.191 62.4231C451.056 64.2536 449.592 66.6637 448.798 69.6534H473.144Z" fill="white"/>
<path d="M416.087 99.3985C410.9 99.3985 406.599 98.2087 403.182 95.8291C399.826 93.3885 397.446 90.3377 396.043 86.6768L405.012 82.8328C406.05 85.3344 407.544 87.2259 409.497 88.5072C411.51 89.7885 413.707 90.4292 416.087 90.4292C418.588 90.4292 420.632 89.9716 422.219 89.0564C423.805 88.0801 424.598 86.8293 424.598 85.3039C424.598 83.8395 423.958 82.6497 422.676 81.7345C421.395 80.7582 419.29 79.904 416.361 79.1718L410.138 77.7075C406.721 76.9143 403.761 75.4499 401.26 73.3144C398.819 71.1178 397.599 68.2806 397.599 64.8027C397.599 60.5926 399.338 57.2673 402.816 54.8267C406.294 52.325 410.565 51.0742 415.629 51.0742C419.839 51.0742 423.561 51.9589 426.795 53.7284C430.09 55.4978 432.469 58.0605 433.934 61.4163L425.056 65.1688C424.202 63.2773 422.89 61.874 421.12 60.9587C419.351 60.0435 417.429 59.5859 415.354 59.5859C413.341 59.5859 411.571 60.0435 410.046 60.9587C408.521 61.8129 407.758 62.9722 407.758 64.4366C407.758 65.7179 408.277 66.7552 409.314 67.5484C410.412 68.3416 412.121 69.0128 414.439 69.5619L421.212 71.2093C425.788 72.3686 429.205 74.1381 431.462 76.5177C433.72 78.8363 434.849 81.643 434.849 84.9378C434.849 87.6225 434.025 90.0631 432.378 92.2597C430.791 94.4562 428.564 96.1952 425.696 97.4765C422.89 98.7578 419.686 99.3985 416.087 99.3985Z" fill="white"/>
<path d="M367.921 99.3985C364.688 99.3985 361.759 98.7578 359.135 97.4765C356.573 96.1342 354.529 94.3037 353.003 91.9851C351.539 89.6055 350.807 86.9208 350.807 83.9311C350.807 79.1719 352.576 75.4194 356.115 72.6737C359.715 69.928 364.261 68.5552 369.752 68.5552C374.572 68.5552 378.691 69.3789 382.108 71.0263V69.1043C382.108 66.3586 381.009 64.101 378.813 62.3316C376.677 60.5011 374.084 59.5859 371.033 59.5859C366.396 59.5859 362.674 61.4774 359.867 65.2603L352.18 59.952C354.315 57.0842 356.969 54.8877 360.142 53.3623C363.376 51.8369 367.006 51.0742 371.033 51.0742C377.684 51.0742 382.809 52.7521 386.409 56.108C390.07 59.4028 391.901 64.0705 391.901 70.111V97.9341H382.108V92.3512H381.558C380.094 94.4257 378.233 96.1342 375.976 97.4765C373.718 98.7578 371.033 99.3985 367.921 99.3985ZM369.569 91.0699C371.826 91.0699 373.901 90.5207 375.792 89.4224C377.745 88.2632 379.27 86.7683 380.369 84.9378C381.528 83.0463 382.108 81.0328 382.108 78.8973C378.874 77.1278 375.426 76.2431 371.765 76.2431C368.41 76.2431 365.786 76.9753 363.894 78.4397C362.003 79.904 361.057 81.765 361.057 84.0226C361.057 86.0971 361.881 87.8055 363.528 89.1479C365.237 90.4292 367.25 91.0699 369.569 91.0699Z" fill="white"/>
<path d="M325.684 99.3973C322.389 99.3973 319.43 98.6957 316.806 97.2923C314.244 95.8889 312.322 94.1195 311.04 91.984H310.491V97.933H300.973V32.4023H311.04V52.0798L310.491 58.3949H311.04C312.322 56.3204 314.244 54.5815 316.806 53.1781C319.43 51.7748 322.389 51.0731 325.684 51.0731C329.589 51.0731 333.189 52.1103 336.484 54.1849C339.84 56.2594 342.494 59.1576 344.446 62.8796C346.46 66.5405 347.466 70.659 347.466 75.2352C347.466 79.8114 346.46 83.9299 344.446 87.5908C342.494 91.2518 339.84 94.15 336.484 96.2855C333.189 98.3601 329.589 99.3973 325.684 99.3973ZM323.945 90.1535C326.325 90.1535 328.521 89.5433 330.535 88.323C332.609 87.1027 334.257 85.3638 335.477 83.1062C336.758 80.7876 337.399 78.164 337.399 75.2352C337.399 72.3065 336.758 69.7133 335.477 67.4557C334.257 65.1371 332.609 63.3677 330.535 62.1474C328.521 60.9271 326.325 60.3169 323.945 60.3169C321.565 60.3169 319.338 60.9271 317.264 62.1474C315.25 63.3677 313.603 65.1066 312.322 67.3642C311.101 69.6218 310.491 72.2454 310.491 75.2352C310.491 78.225 311.101 80.8486 312.322 83.1062C313.603 85.3638 315.25 87.1027 317.264 88.323C319.338 89.5433 321.565 90.1535 323.945 90.1535Z" fill="white"/>
<path d="M273.192 99.3985C268.738 99.3985 264.711 98.3612 261.111 96.2867C257.572 94.2122 254.795 91.3444 252.782 87.6835C250.768 83.9616 249.762 79.8125 249.762 75.2364C249.762 70.8432 250.707 66.8162 252.599 63.1553C254.551 59.4333 257.267 56.5046 260.745 54.3691C264.222 52.1725 268.188 51.0742 272.643 51.0742C277.219 51.0742 281.185 52.081 284.541 54.0945C287.957 56.108 290.551 58.9147 292.32 62.5146C294.089 66.0535 294.974 70.1416 294.974 74.7787C294.974 75.3279 294.944 75.877 294.883 76.4262C294.822 76.9753 294.791 77.2804 294.791 77.3414H259.829C260.134 81.4904 261.629 84.6937 264.314 86.9513C266.999 89.2089 270.049 90.3377 273.466 90.3377C278.714 90.3377 282.741 87.8971 285.547 83.0158L294.15 87.1344C292.137 90.8563 289.33 93.8461 285.73 96.1036C282.191 98.3002 278.012 99.3985 273.192 99.3985ZM284.724 69.6534C284.602 68.1891 284.113 66.6942 283.259 65.1688C282.405 63.6434 281.063 62.3621 279.232 61.3248C277.463 60.2265 275.236 59.6774 272.551 59.6774C269.561 59.6774 266.968 60.5926 264.772 62.4231C262.636 64.2536 261.172 66.6637 260.378 69.6534H284.724Z" fill="white"/>
<path d="M221.822 52.5389H231.341V59.3116H231.89C232.866 56.993 234.636 55.071 237.198 53.5456C239.761 51.9592 242.384 51.166 245.069 51.166C247.266 51.166 249.066 51.4711 250.469 52.0812V62.6064C248.395 61.5692 246.076 61.0505 243.513 61.0505C240.218 61.0505 237.442 62.3318 235.185 64.8945C232.988 67.3961 231.89 70.4774 231.89 74.1383V97.9344H221.822V52.5389Z" fill="white"/>
<path d="M207.452 44.8501C205.561 44.8501 203.944 44.2095 202.602 42.9281C201.32 41.5858 200.68 39.9689 200.68 38.0774C200.68 36.1859 201.32 34.5995 202.602 33.3182C203.944 31.9759 205.561 31.3047 207.452 31.3047C209.344 31.3047 210.93 31.9759 212.212 33.3182C213.554 34.5995 214.225 36.1859 214.225 38.0774C214.225 39.9689 213.554 41.5858 212.212 42.9281C210.93 44.2095 209.344 44.8501 207.452 44.8501ZM202.419 52.5381H212.486V97.9336H202.419V52.5381Z" fill="white"/>
<path d="M156.562 32.4033H196.375V42.1963H166.813V61.0501H193.446V70.7515H166.813V97.9339H156.562V32.4033Z" fill="white"/>
<g clip-path="url(#clip0_47_1674)">
<path d="M86.8743 42.6457C84.1283 38.8354 77.814 31.0006 68.1144 19.3618C63.9039 14.3135 60.2921 10.0284 58.5142 7.9247C57.5337 6.76423 56.6928 5.77131 56.0288 4.98629L54.9707 3.73894L54.3967 3.06252L54.285 2.89807L54.2354 2.87635L51.7872 0L48.6844 2.48849C40.7628 8.83383 34.2747 17.013 29.9276 26.1292C27.2622 31.553 25.5215 36.8557 24.6093 42.3168C24.3704 43.5455 24.1656 44.8084 23.9949 46.0743C22.9306 45.9874 21.8477 45.9316 20.7742 45.9068C20.6842 45.9006 20.5942 45.8975 20.4732 45.8944C16.5419 45.7578 12.6323 46.2264 8.85608 47.2906L7.23949 47.7437L6.40793 49.202C2.51074 56.0376 0.304608 63.8196 0.0284535 71.7039C-0.328375 81.9433 2.46109 91.8539 8.09588 100.365C13.6097 108.69 21.3978 115.054 30.6195 118.768L31.8203 119.252L32.1834 119.379L32.1989 119.373C37.0021 121.117 42.0442 122.091 47.1857 122.268C47.769 122.29 48.3492 122.299 48.9295 122.299C55.4176 122.299 61.735 121.03 67.7297 118.52L67.7731 118.538L69.368 117.8C77.454 114.061 84.3734 108.184 89.3783 100.803C94.526 93.2098 97.4178 84.3263 97.7405 75.114C98.1253 64.1019 94.467 53.1799 86.8712 42.6488L86.8743 42.6457ZM50.7788 76.7647C52.4512 83.1038 52.1223 89.1947 49.8076 94.8947C44.0239 89.1854 39.7823 82.9083 37.1945 76.2186C34.4236 69.0634 32.7574 62.2557 32.2299 55.96C34.6781 56.7637 36.9276 57.8248 38.9321 59.1311C44.6972 62.8887 48.6844 68.8214 50.7788 76.7678V76.7647ZM51.8338 107.452C54.2912 109.323 56.8759 111.076 59.5412 112.69C55.6161 113.757 51.5669 114.225 47.4711 114.08C46.8382 114.058 46.2052 114.021 45.5691 113.968C47.9024 111.957 50 109.776 51.8307 107.452H51.8338ZM58.6973 74.6765C56.066 64.7039 50.9184 57.1639 43.4002 52.2676C40.1019 50.1204 36.3443 48.4914 32.2175 47.4272C32.2764 46.7414 32.3509 46.0588 32.4378 45.3886C32.5123 44.8146 32.5898 44.2871 32.6736 43.7937C33.3531 40.2844 34.3647 36.8123 35.6741 33.4767C36.1767 32.1983 36.7259 30.9293 37.3093 29.7036L37.331 29.6602C38.2308 27.8388 39.2455 25.9988 40.4401 24.0316L40.9086 23.259L40.8931 23.2497C43.667 18.915 46.9902 14.962 50.7912 11.4775L52.2588 13.212C55.6813 17.2674 58.899 21.1025 61.825 24.6119C68.4061 32.5055 76.939 42.8722 80.2311 47.4427C86.7409 56.4658 89.8779 65.6782 89.5583 74.8316C89.3101 81.9402 87.2063 88.872 83.4705 94.873C79.9332 100.56 75.0059 105.32 69.2004 108.671C65.9611 107.055 61.2571 104.396 56.2615 100.526C60.289 92.4993 61.1113 83.8082 58.7004 74.6765H58.6973ZM45.5753 102.18C41.8829 106.965 37.4892 110.077 34.9263 111.641C34.5105 111.489 34.0947 111.331 33.6851 111.163L33.3562 111.033C25.7635 107.896 19.3593 102.593 14.8353 95.6921C10.212 88.6393 7.92212 80.4416 8.21689 71.9832C8.42789 65.9202 9.93898 60.1272 12.7129 54.7623C14.3233 54.4055 15.9647 54.1821 17.6061 54.0983L18.0312 54.089C18.8597 54.0704 19.6851 54.0704 20.4701 54.089C21.6243 54.1418 22.7817 54.2628 23.9205 54.4458C24.2928 62.1533 26.1855 70.469 29.5521 79.1694C32.7946 87.544 38.1812 95.2794 45.5722 102.177L45.5753 102.18Z" fill="white"/>
</g>
<g filter="url(#filter0_d_47_1674)">
<circle cx="100" cy="90" r="30" fill="white"/>
<path fill-rule="evenodd" clip-rule="evenodd" d="M100 91.5L86.5 97.5V91.5L100 85.5L113.5 91.5V96.75V95.625V97.5L100 91.5ZM100 75L113.5 81V87L100 81L86.5 87V81L100 75ZM105.062 96.75L111.812 99.75L100 105V99L105.062 96.75Z" fill="#1F1F1F"/>
</g>
<defs>
<filter id="filter0_d_47_1674" x="68" y="58.6704" width="64" height="64" filterUnits="userSpaceOnUse" color-interpolation-filters="sRGB">
<feFlood flood-opacity="0" result="BackgroundImageFix"/>
<feColorMatrix in="SourceAlpha" type="matrix" values="0 0 0 0 0 0 0 0 0 0 0 0 0 0 0 0 0 0 127 0" result="hardAlpha"/>
<feOffset dy="0.670408"/>
<feGaussianBlur stdDeviation="1"/>
<feComposite in2="hardAlpha" operator="out"/>
<feColorMatrix type="matrix" values="0 0 0 0 0 0 0 0 0 0 0 0 0 0 0 0 0 0 0.3 0"/>
<feBlend mode="normal" in2="BackgroundImageFix" result="effect1_dropShadow_47_1674"/>
<feBlend mode="normal" in="SourceGraphic" in2="effect1_dropShadow_47_1674" result="shape"/>
</filter>
<clipPath id="clip0_47_1674">
<rect width="97.7741" height="122.296" fill="white" transform="translate(-0.00195312)"/>
</clipPath>
</defs>
</svg>
