<svg width="328" height="408" viewBox="0 0 328 408" fill="none" xmlns="http://www.w3.org/2000/svg">
<path d="M277.902 159.374V159.282C277.901 159.248 277.901 159.214 277.902 159.179C275.152 141.263 268.018 124.759 258.554 109.914C257.363 108.037 256.125 106.192 254.859 104.359C254.245 103.47 253.623 102.589 252.99 101.716C240.82 84.8276 202.38 38.9119 182.186 14.9719C174.547 5.91257 169.52 0 169.52 0C167.242 1.82536 165.016 3.70891 162.841 5.65067L162.766 5.7181C147.017 20.4383 133.958 37.7934 124.175 57.0027L124.144 57.0623C122.26 60.766 120.501 64.5357 118.866 68.3716C115.084 77.2579 112.009 86.429 109.672 95.7996C108.254 101.463 107.106 107.227 106.227 113.089C101.394 112.298 96.5125 111.839 91.6166 111.716C90.6907 111.692 89.7648 111.68 88.8389 111.68C80.8386 111.674 72.863 112.566 65.0616 114.339C60.2862 122.05 56.4419 130.301 53.6095 138.918C49.7806 150.58 47.8356 162.778 47.8477 175.052C47.8477 231.154 87.8231 277.927 140.846 288.423C148.282 289.896 155.844 290.636 163.425 290.633C164.921 290.633 166.409 290.601 167.893 290.549C171.79 290.396 175.632 290.058 179.42 289.534C188.248 288.31 196.904 286.065 205.213 282.843C207.428 281.986 209.608 281.06 211.753 280.066C251.435 261.768 279.002 221.626 279.002 175.052C278.986 169.807 278.619 164.569 277.902 159.374ZM126.12 263.256C114.74 258.449 104.402 251.477 95.68 242.729C86.9342 234.007 79.9643 223.671 75.1566 212.293C70.1697 200.506 67.6134 187.834 67.641 175.036C67.613 162.236 70.1692 149.563 75.1566 137.775C75.9503 135.881 76.8087 134.021 77.732 132.196C81.4005 131.736 85.0941 131.505 88.7913 131.505C93.9922 131.505 99.1829 131.964 104.303 132.878C104.192 135.462 104.136 138.069 104.136 140.684C104.066 189.335 123.249 236.038 157.496 270.594C146.695 269.958 136.083 267.476 126.12 263.256ZM168.579 253.499C166.257 251.031 164.023 248.499 161.877 245.904C151.592 233.523 143.187 219.695 136.933 204.865C128.339 184.555 123.933 162.72 123.977 140.668C123.977 140.067 123.977 139.468 123.977 138.87C133.808 143.231 142.747 149.374 150.342 156.989C162.116 168.701 170.269 183.555 173.825 199.778C175.17 205.942 175.846 212.234 175.841 218.543C175.878 230.57 173.415 242.474 168.607 253.499H168.579ZM259.216 178.349C258.61 196.348 252.93 213.81 242.832 228.721C234.625 240.831 223.769 250.914 211.086 258.205L210.959 258.145C207.626 260.055 204.181 261.762 200.642 263.256C196.234 265.122 191.69 266.651 187.051 267.832C186.226 268.043 185.398 268.242 184.567 268.427C184.119 268.53 183.674 268.629 183.226 268.721C183.4 268.403 183.571 268.074 183.738 267.748C183.996 267.252 184.25 266.756 184.496 266.256C187.525 260.198 189.965 253.862 191.781 247.336C194.388 237.969 195.706 228.29 195.698 218.567C195.701 211.493 195.006 204.437 193.622 197.5C186.269 160.731 160.056 130.779 125.501 118.136C127.093 106.441 129.949 94.9538 134.02 83.8753C134.933 81.3965 135.905 78.9349 136.937 76.4905C138.493 72.808 140.175 69.197 141.985 65.6573C141.995 65.6397 142.005 65.6211 142.012 65.6018C142.754 64.0582 143.52 62.5384 144.314 61.0226C150.543 49.1619 158.395 38.2274 167.643 28.5351L167.798 28.7217C175.996 38.4437 186.968 51.5228 197.896 64.701C203.487 71.4469 209.067 78.2206 214.257 84.5895C223.991 96.5376 232.356 107.061 236.876 113.311C237.522 114.208 238.153 115.101 238.772 116.006C245.264 125.43 250.28 134.958 253.681 144.382C255.843 150.324 257.402 156.469 258.335 162.723V162.802C259.099 167.947 259.397 173.151 259.224 178.349H259.216Z" fill="white"/>
<path d="M305.798 408C301.333 408 297.296 406.96 293.687 404.881C290.14 402.801 287.357 399.926 285.338 396.256C283.32 392.525 282.311 388.366 282.311 383.779C282.311 379.375 283.259 375.338 285.155 371.668C287.112 367.937 289.834 365.001 293.32 362.86C296.807 360.658 300.783 359.557 305.248 359.557C309.835 359.557 313.811 360.566 317.175 362.585C320.6 364.603 323.2 367.417 324.973 371.026C326.747 374.573 327.634 378.671 327.634 383.32C327.634 383.87 327.604 384.421 327.542 384.971C327.481 385.522 327.451 385.828 327.451 385.889H292.403C292.709 390.048 294.207 393.259 296.898 395.522C299.59 397.785 302.648 398.917 306.073 398.917C311.334 398.917 315.37 396.47 318.184 391.577L326.808 395.706C324.79 399.437 321.976 402.434 318.368 404.697C314.82 406.899 310.63 408 305.798 408ZM317.358 378.182C317.236 376.714 316.747 375.215 315.89 373.686C315.034 372.157 313.688 370.873 311.853 369.833C310.08 368.732 307.847 368.181 305.156 368.181C302.159 368.181 299.559 369.099 297.357 370.934C295.216 372.769 293.748 375.185 292.953 378.182H317.358Z" fill="white"/>
<path d="M260.163 408C254.964 408 250.652 406.807 247.227 404.422C243.863 401.975 241.477 398.917 240.07 395.247L249.062 391.394C250.101 393.901 251.6 395.798 253.557 397.082C255.576 398.366 257.778 399.009 260.163 399.009C262.671 399.009 264.72 398.55 266.31 397.632C267.901 396.654 268.696 395.4 268.696 393.871C268.696 392.403 268.054 391.21 266.769 390.293C265.485 389.314 263.374 388.458 260.438 387.724L254.2 386.256C250.774 385.461 247.808 383.993 245.3 381.852C242.853 379.65 241.63 376.806 241.63 373.319C241.63 369.099 243.373 365.765 246.86 363.319C250.346 360.811 254.628 359.557 259.704 359.557C263.925 359.557 267.656 360.444 270.898 362.218C274.201 363.992 276.586 366.56 278.054 369.925L269.154 373.686C268.298 371.79 266.983 370.383 265.209 369.466C263.436 368.548 261.509 368.09 259.429 368.09C257.411 368.09 255.637 368.548 254.108 369.466C252.579 370.322 251.814 371.484 251.814 372.952C251.814 374.237 252.334 375.277 253.374 376.072C254.475 376.867 256.187 377.54 258.512 378.09L265.301 379.742C269.888 380.904 273.314 382.678 275.577 385.063C277.84 387.387 278.972 390.201 278.972 393.504C278.972 396.195 278.146 398.642 276.494 400.844C274.904 403.046 272.671 404.789 269.797 406.073C266.983 407.358 263.772 408 260.163 408Z" fill="white"/>
<path d="M211.88 408C208.638 408 205.702 407.358 203.072 406.073C200.503 404.728 198.454 402.893 196.925 400.568C195.457 398.183 194.723 395.492 194.723 392.495C194.723 387.724 196.496 383.962 200.044 381.21C203.653 378.457 208.21 377.081 213.715 377.081C218.547 377.081 222.675 377.907 226.101 379.558V377.631C226.101 374.879 225 372.616 222.798 370.842C220.657 369.007 218.057 368.09 214.999 368.09C210.35 368.09 206.619 369.986 203.806 373.778L196.099 368.457C198.24 365.582 200.9 363.38 204.081 361.851C207.323 360.322 210.962 359.557 214.999 359.557C221.666 359.557 226.804 361.239 230.413 364.603C234.083 367.906 235.918 372.585 235.918 378.641V406.532H226.101V400.935H225.55C224.082 403.015 222.217 404.728 219.953 406.073C217.69 407.358 214.999 408 211.88 408ZM213.531 399.651C215.794 399.651 217.874 399.1 219.77 397.999C221.727 396.837 223.256 395.339 224.357 393.504C225.519 391.608 226.101 389.589 226.101 387.448C222.859 385.675 219.403 384.788 215.733 384.788C212.369 384.788 209.739 385.522 207.843 386.99C205.947 388.458 204.998 390.323 204.998 392.586C204.998 394.666 205.824 396.379 207.476 397.724C209.188 399.009 211.207 399.651 213.531 399.651Z" fill="white"/>
<path d="M169.536 408C166.233 408 163.266 407.296 160.636 405.89C158.067 404.483 156.14 402.709 154.856 400.568H154.305V406.532H144.764V340.84H154.856V360.566L154.305 366.897H154.856C156.14 364.817 158.067 363.074 160.636 361.667C163.266 360.26 166.233 359.557 169.536 359.557C173.45 359.557 177.059 360.597 180.362 362.676C183.726 364.756 186.387 367.661 188.344 371.392C190.363 375.062 191.372 379.191 191.372 383.778C191.372 388.366 190.363 392.494 188.344 396.164C186.387 399.834 183.726 402.74 180.362 404.88C177.059 406.96 173.45 408 169.536 408ZM167.792 398.733C170.178 398.733 172.38 398.122 174.398 396.898C176.478 395.675 178.129 393.932 179.353 391.669C180.637 389.344 181.279 386.714 181.279 383.778C181.279 380.842 180.637 378.243 179.353 375.98C178.129 373.655 176.478 371.882 174.398 370.658C172.38 369.435 170.178 368.823 167.792 368.823C165.407 368.823 163.174 369.435 161.095 370.658C159.076 371.882 157.425 373.625 156.14 375.888C154.917 378.151 154.305 380.781 154.305 383.778C154.305 386.775 154.917 389.405 156.14 391.669C157.425 393.932 159.076 395.675 161.095 396.898C163.174 398.122 165.407 398.733 167.792 398.733Z" fill="white"/>
<path d="M116.917 408C112.452 408 108.415 406.96 104.806 404.881C101.259 402.801 98.4758 399.926 96.4574 396.256C94.4389 392.525 93.4297 388.366 93.4297 383.779C93.4297 379.375 94.3777 375.338 96.2739 371.668C98.2312 367.937 100.953 365.001 104.439 362.86C107.926 360.658 111.902 359.557 116.367 359.557C120.954 359.557 124.93 360.566 128.294 362.585C131.719 364.603 134.319 367.417 136.093 371.026C137.866 374.573 138.753 378.671 138.753 383.32C138.753 383.87 138.723 384.421 138.662 384.971C138.6 385.522 138.57 385.828 138.57 385.889H103.522C103.828 390.048 105.326 393.259 108.018 395.522C110.709 397.785 113.767 398.917 117.192 398.917C122.453 398.917 126.49 396.47 129.303 391.577L137.928 395.706C135.909 399.437 133.095 402.434 129.487 404.697C125.939 406.899 121.749 408 116.917 408ZM128.477 378.182C128.355 376.714 127.866 375.215 127.01 373.686C126.153 372.157 124.808 370.873 122.973 369.833C121.199 368.732 118.966 368.181 116.275 368.181C113.278 368.181 110.678 369.099 108.476 370.934C106.336 372.769 104.868 375.185 104.072 378.182H128.477Z" fill="white"/>
<path d="M65.418 361.028H74.9598V367.817H75.5103C76.4889 365.493 78.2627 363.566 80.8317 362.037C83.4006 360.447 86.0307 359.651 88.722 359.651C90.924 359.651 92.7283 359.957 94.1351 360.569V371.12C92.0555 370.08 89.7312 369.56 87.1623 369.56C83.8593 369.56 81.0763 370.845 78.8132 373.414C76.6112 375.921 75.5103 379.01 75.5103 382.68V406.535H65.418V361.028Z" fill="white"/>
<path d="M51.0159 353.318C49.1198 353.318 47.4989 352.676 46.1533 351.392C44.8688 350.046 44.2266 348.425 44.2266 346.529C44.2266 344.633 44.8688 343.042 46.1533 341.758C47.4989 340.412 49.1198 339.74 51.0159 339.74C52.9121 339.74 54.5024 340.412 55.7868 341.758C57.1325 343.042 57.8053 344.633 57.8053 346.529C57.8053 348.425 57.1325 350.046 55.7868 351.392C54.5024 352.676 52.9121 353.318 51.0159 353.318ZM45.9698 361.025H56.0621V406.532H45.9698V361.025Z" fill="white"/>
<path d="M0 340.84H39.9104V350.657H10.2758V369.557H36.9745V379.283H10.2758V406.532H0V340.84Z" fill="white"/>
</svg>
