<svg width="132" height="123" viewBox="0 0 132 123" fill="none" xmlns="http://www.w3.org/2000/svg">
<g clip-path="url(#clip0_57_13286)">
<path d="M86.8743 43.1134C84.1283 39.3031 77.814 31.4684 68.1144 19.8296C63.9039 14.7813 60.2921 10.4962 58.5142 8.39247C57.5337 7.232 56.6928 6.23909 56.0288 5.45406L54.9707 4.20672L54.3967 3.53029L54.285 3.36584L54.2354 3.34412L51.7872 0.467773L48.6844 2.95626C40.7628 9.30161 34.2747 17.4807 29.9276 26.5969C27.2622 32.0207 25.5215 37.3235 24.6093 42.7845C24.3704 44.0133 24.1656 45.2761 23.9949 46.5421C22.9306 46.4552 21.8477 46.3994 20.7742 46.3745C20.6842 46.3683 20.5942 46.3652 20.4732 46.3621C16.5419 46.2256 12.6323 46.6941 8.85608 47.7584L7.23949 48.2114L6.40793 49.6698C2.51074 56.5054 0.304608 64.2873 0.0284535 72.1717C-0.328375 82.4111 2.46109 92.3216 8.09588 100.833C13.6097 109.158 21.3978 115.522 30.6195 119.236L31.8203 119.72L32.1834 119.847L32.1989 119.841C37.0021 121.585 42.0442 122.559 47.1857 122.736C47.769 122.758 48.3492 122.767 48.9295 122.767C55.4176 122.767 61.735 121.498 67.7297 118.988L67.7731 119.006L69.368 118.268C77.454 114.529 84.3734 108.652 89.3783 101.27C94.526 93.6776 97.4178 84.7941 97.7405 75.5817C98.1253 64.5697 94.467 53.6476 86.8712 43.1165L86.8743 43.1134ZM50.7788 77.2325C52.4512 83.5716 52.1223 89.6625 49.8076 95.3624C44.0239 89.6532 39.7823 83.3761 37.1945 76.6863C34.4236 69.5312 32.7574 62.7235 32.2299 56.4278C34.6781 57.2314 36.9276 58.2926 38.9321 59.5989C44.6972 63.3565 48.6844 69.2891 50.7788 77.2356V77.2325ZM51.8338 107.92C54.2912 109.791 56.8759 111.544 59.5412 113.157C55.6161 114.225 51.5669 114.693 47.4711 114.547C46.8382 114.526 46.2052 114.488 45.5691 114.436C47.9024 112.425 50 110.244 51.8307 107.92H51.8338ZM58.6973 75.1442C56.066 65.1716 50.9184 57.6317 43.4002 52.7354C40.1019 50.5882 36.3443 48.9592 32.2175 47.8949C32.2764 47.2092 32.3509 46.5266 32.4378 45.8564C32.5123 45.2823 32.5898 44.7548 32.6736 44.2615C33.3531 40.7522 34.3647 37.2801 35.6741 33.9445C36.1767 32.6661 36.7259 31.3971 37.3093 30.1714L37.331 30.128C38.2308 28.3066 39.2455 26.4666 40.4401 24.4994L40.9086 23.7268L40.8931 23.7175C43.667 19.3828 46.9902 15.4297 50.7912 11.9452L52.2588 13.6797C55.6813 17.7352 58.899 21.5703 61.825 25.0796C68.4061 32.9733 76.939 43.3399 80.2311 47.9105C86.7409 56.9336 89.8779 66.1459 89.5583 75.2994C89.3101 82.408 87.2063 89.3398 83.4705 95.3407C79.9332 101.028 75.0059 105.788 69.2004 109.139C65.9611 107.523 61.2571 104.863 56.2615 100.994C60.289 92.967 61.1113 84.2759 58.7004 75.1442H58.6973ZM45.5753 102.648C41.8829 107.433 37.4892 110.545 34.9263 112.109C34.5105 111.957 34.0947 111.798 33.6851 111.631L33.3562 111.5C25.7635 108.363 19.3593 103.061 14.8353 96.1599C10.212 89.1071 7.92212 80.9093 8.21689 72.451C8.42789 66.388 9.93898 60.5949 12.7129 55.2301C14.3233 54.8733 15.9647 54.6499 17.6061 54.5661L18.0312 54.5568C18.8597 54.5382 19.6851 54.5382 20.4701 54.5568C21.6243 54.6095 22.7817 54.7305 23.9205 54.9136C24.2928 62.6211 26.1855 70.9368 29.5521 79.6372C32.7946 88.0118 38.1812 95.7472 45.5722 102.645L45.5753 102.648Z" fill="white"/>
</g>
<g filter="url(#filter0_d_57_13286)">
<circle cx="100" cy="90" r="30" fill="white"/>
<path fill-rule="evenodd" clip-rule="evenodd" d="M86.5 94.5H113.5V100.503C113.5 100.896 113.423 101.286 113.273 101.649C113.123 102.013 112.903 102.343 112.625 102.621C112.347 102.9 112.017 103.121 111.653 103.271C111.29 103.422 110.901 103.5 110.507 103.5H89.4925C88.6985 103.498 87.9376 103.182 87.3766 102.62C86.8157 102.058 86.5004 101.297 86.5 100.503V94.5ZM86.5 79.488C86.5 77.838 87.8395 76.5 89.4925 76.5H110.507C112.16 76.5 113.5 77.85 113.5 79.488V90.012C113.5 91.662 112.16 93 110.507 93H89.4925C87.8395 93 86.5 91.65 86.5 90.012V79.488ZM89.5 79.5H110.5V84H89.5V79.5ZM89.5 87.7575C89.5 87.339 89.821 87 90.2575 87H91.7425C92.161 87 92.5 87.321 92.5 87.7575V89.2425C92.5016 89.3424 92.4831 89.4417 92.4456 89.5343C92.4081 89.6269 92.3524 89.7111 92.2817 89.7817C92.2111 89.8524 92.1269 89.9081 92.0343 89.9456C91.9417 89.9831 91.8424 90.0016 91.7425 90H90.2575C90.1576 90.0016 90.0583 89.9831 89.9657 89.9456C89.8731 89.9081 89.7889 89.8524 89.7183 89.7817C89.6476 89.7111 89.5919 89.6269 89.5544 89.5343C89.5169 89.4417 89.4984 89.3424 89.5 89.2425V87.7575ZM89.5 98.2575C89.5 97.839 89.821 97.5 90.2575 97.5H91.7425C92.161 97.5 92.5 97.821 92.5 98.2575V99.7425C92.5016 99.8424 92.4831 99.9417 92.4456 100.034C92.4081 100.127 92.3524 100.211 92.2817 100.282C92.2111 100.352 92.1269 100.408 92.0343 100.446C91.9417 100.483 91.8424 100.502 91.7425 100.5H90.2575C90.1576 100.502 90.0583 100.483 89.9657 100.446C89.8731 100.408 89.7889 100.352 89.7183 100.282C89.6476 100.211 89.5919 100.127 89.5544 100.034C89.5169 99.9417 89.4984 99.8424 89.5 99.7425V98.2575Z" fill="#1F1F1F"/>
</g>
<defs>
<filter id="filter0_d_57_13286" x="68" y="58.6704" width="64" height="64" filterUnits="userSpaceOnUse" color-interpolation-filters="sRGB">
<feFlood flood-opacity="0" result="BackgroundImageFix"/>
<feColorMatrix in="SourceAlpha" type="matrix" values="0 0 0 0 0 0 0 0 0 0 0 0 0 0 0 0 0 0 127 0" result="hardAlpha"/>
<feOffset dy="0.670408"/>
<feGaussianBlur stdDeviation="1"/>
<feComposite in2="hardAlpha" operator="out"/>
<feColorMatrix type="matrix" values="0 0 0 0 0 0 0 0 0 0 0 0 0 0 0 0 0 0 0.3 0"/>
<feBlend mode="normal" in2="BackgroundImageFix" result="effect1_dropShadow_57_13286"/>
<feBlend mode="normal" in="SourceGraphic" in2="effect1_dropShadow_57_13286" result="shape"/>
</filter>
<clipPath id="clip0_57_13286">
<rect width="97.7741" height="122.296" fill="white" transform="translate(-0.00195312 0.467773)"/>
</clipPath>
</defs>
</svg>
