<svg width="132" height="123" viewBox="0 0 132 123" fill="none" xmlns="http://www.w3.org/2000/svg">
<g clip-path="url(#clip0_57_13342)">
<path d="M86.8743 43.1134C84.1283 39.3031 77.814 31.4684 68.1144 19.8296C63.9039 14.7813 60.2921 10.4962 58.5142 8.39247C57.5337 7.232 56.6928 6.23909 56.0288 5.45406L54.9707 4.20672L54.3967 3.53029L54.285 3.36584L54.2354 3.34412L51.7872 0.467773L48.6844 2.95626C40.7628 9.30161 34.2747 17.4807 29.9276 26.5969C27.2622 32.0207 25.5215 37.3235 24.6093 42.7845C24.3704 44.0133 24.1656 45.2761 23.9949 46.5421C22.9306 46.4552 21.8477 46.3994 20.7742 46.3745C20.6842 46.3683 20.5942 46.3652 20.4732 46.3621C16.5419 46.2256 12.6323 46.6941 8.85608 47.7584L7.23949 48.2114L6.40793 49.6698C2.51074 56.5054 0.304608 64.2873 0.0284535 72.1717C-0.328375 82.4111 2.46109 92.3216 8.09588 100.833C13.6097 109.158 21.3978 115.522 30.6195 119.236L31.8203 119.72L32.1834 119.847L32.1989 119.841C37.0021 121.585 42.0442 122.559 47.1857 122.736C47.769 122.758 48.3492 122.767 48.9295 122.767C55.4176 122.767 61.735 121.498 67.7297 118.988L67.7731 119.006L69.368 118.268C77.454 114.529 84.3734 108.652 89.3783 101.27C94.526 93.6776 97.4178 84.7941 97.7405 75.5817C98.1253 64.5697 94.467 53.6476 86.8712 43.1165L86.8743 43.1134ZM50.7788 77.2325C52.4512 83.5716 52.1223 89.6625 49.8076 95.3624C44.0239 89.6532 39.7823 83.3761 37.1945 76.6863C34.4236 69.5312 32.7574 62.7235 32.2299 56.4278C34.6781 57.2314 36.9276 58.2926 38.9321 59.5989C44.6972 63.3565 48.6844 69.2891 50.7788 77.2356V77.2325ZM51.8338 107.92C54.2912 109.791 56.8759 111.544 59.5412 113.157C55.6161 114.225 51.5669 114.693 47.4711 114.547C46.8382 114.526 46.2052 114.488 45.5691 114.436C47.9024 112.425 50 110.244 51.8307 107.92H51.8338ZM58.6973 75.1442C56.066 65.1716 50.9184 57.6317 43.4002 52.7354C40.1019 50.5882 36.3443 48.9592 32.2175 47.8949C32.2764 47.2092 32.3509 46.5266 32.4378 45.8564C32.5123 45.2823 32.5898 44.7548 32.6736 44.2615C33.3531 40.7522 34.3647 37.2801 35.6741 33.9445C36.1767 32.6661 36.7259 31.3971 37.3093 30.1714L37.331 30.128C38.2308 28.3066 39.2455 26.4666 40.4401 24.4994L40.9086 23.7268L40.8931 23.7175C43.667 19.3828 46.9902 15.4297 50.7912 11.9452L52.2588 13.6797C55.6813 17.7352 58.899 21.5703 61.825 25.0796C68.4061 32.9733 76.939 43.3399 80.2311 47.9105C86.7409 56.9336 89.8779 66.1459 89.5583 75.2994C89.3101 82.408 87.2063 89.3398 83.4705 95.3407C79.9332 101.028 75.0059 105.788 69.2004 109.139C65.9611 107.523 61.2571 104.863 56.2615 100.994C60.289 92.967 61.1113 84.2759 58.7004 75.1442H58.6973ZM45.5753 102.648C41.8829 107.433 37.4892 110.545 34.9263 112.109C34.5105 111.957 34.0947 111.798 33.6851 111.631L33.3562 111.5C25.7635 108.363 19.3593 103.061 14.8353 96.1599C10.212 89.1071 7.92212 80.9093 8.21689 72.451C8.42789 66.388 9.93898 60.5949 12.7129 55.2301C14.3233 54.8733 15.9647 54.6499 17.6061 54.5661L18.0312 54.5568C18.8597 54.5382 19.6851 54.5382 20.4701 54.5568C21.6243 54.6095 22.7817 54.7305 23.9205 54.9136C24.2928 62.6211 26.1855 70.9368 29.5521 79.6372C32.7946 88.0118 38.1812 95.7472 45.5722 102.645L45.5753 102.648Z" fill="white"/>
</g>
<g filter="url(#filter0_d_57_13342)">
<circle cx="100" cy="90" r="30" fill="white"/>
<g clip-path="url(#clip1_57_13342)">
<path d="M87.8844 79.4967C87.5088 79.4621 87.1606 79.3064 86.9061 79.0593C86.6515 78.8122 86.5084 78.4908 86.5039 78.1563V74.8404C86.5107 74.4868 86.6724 74.1494 86.9547 73.8993C87.237 73.6492 87.618 73.506 88.0172 73.5C88.4139 73.5062 88.792 73.6501 89.0701 73.9008C89.3482 74.1515 89.504 74.489 89.5039 74.8404V78.1563C89.5044 78.3405 89.462 78.5228 89.3794 78.6919C89.2968 78.861 89.1758 79.0132 89.0238 79.139C88.8718 79.2647 88.6922 79.3614 88.4962 79.423C88.3002 79.4845 88.0919 79.5096 87.8844 79.4967Z" fill="#1F1F1F"/>
<path d="M111.879 83.9967C111.503 83.9621 111.155 83.8064 110.9 83.5593C110.646 83.3122 110.503 82.9908 110.498 82.6563V79.3404C110.505 78.9868 110.666 78.6494 110.949 78.3993C111.231 78.1492 111.612 78.006 112.011 78C112.408 78.0062 112.786 78.1501 113.064 78.4008C113.342 78.6515 113.498 78.989 113.498 79.3404V82.6563C113.499 82.8405 113.456 83.0228 113.374 83.1919C113.291 83.361 113.17 83.5132 113.018 83.639C112.866 83.7647 112.686 83.8614 112.49 83.923C112.294 83.9845 112.086 84.0096 111.879 83.9967Z" fill="#1F1F1F"/>
<path d="M88.0039 84C88.8323 84 89.5039 83.3284 89.5039 82.5C89.5039 81.6716 88.8323 81 88.0039 81C87.1755 81 86.5039 81.6716 86.5039 82.5C86.5039 83.3284 87.1755 84 88.0039 84Z" fill="#1F1F1F"/>
<path d="M88.0039 93C88.8323 93 89.5039 92.3284 89.5039 91.5C89.5039 90.6716 88.8323 90 88.0039 90C87.1755 90 86.5039 90.6716 86.5039 91.5C86.5039 92.3284 87.1755 93 88.0039 93Z" fill="#1F1F1F"/>
<path d="M88.0039 88.5C88.8323 88.5 89.5039 87.8284 89.5039 87C89.5039 86.1716 88.8323 85.5 88.0039 85.5C87.1755 85.5 86.5039 86.1716 86.5039 87C86.5039 87.8284 87.1755 88.5 88.0039 88.5Z" fill="#1F1F1F"/>
<path d="M111.998 93C112.826 93 113.498 92.3284 113.498 91.5C113.498 90.6716 112.826 90 111.998 90C111.17 90 110.498 90.6716 110.498 91.5C110.498 92.3284 111.17 93 111.998 93Z" fill="#1F1F1F"/>
<path d="M111.998 88.5C112.826 88.5 113.498 87.8284 113.498 87C113.498 86.1716 112.826 85.5 111.998 85.5C111.17 85.5 110.498 86.1716 110.498 87C110.498 87.8284 111.17 88.5 111.998 88.5Z" fill="#1F1F1F"/>
<path d="M111.998 76.5C112.826 76.5 113.498 75.8284 113.498 75C113.498 74.1716 112.826 73.5 111.998 73.5C111.17 73.5 110.498 74.1716 110.498 75C110.498 75.8284 111.17 76.5 111.998 76.5Z" fill="#1F1F1F"/>
<path d="M105.881 88.4967C105.505 88.4621 105.157 88.3064 104.902 88.0593C104.648 87.8122 104.504 87.4908 104.5 87.1563V83.8404C104.507 83.4868 104.668 83.1494 104.951 82.8993C105.233 82.6492 105.614 82.506 106.013 82.5C106.41 82.5062 106.788 82.6501 107.066 82.9008C107.344 83.1515 107.5 83.489 107.5 83.8404V87.1563C107.501 87.3405 107.458 87.5228 107.376 87.6919C107.293 87.861 107.172 88.0132 107.02 88.139C106.868 88.2647 106.688 88.3614 106.492 88.423C106.296 88.4845 106.088 88.5096 105.881 88.4967Z" fill="#1F1F1F"/>
<path d="M99.8805 97.4967C99.5049 97.4621 99.1567 97.3064 98.9021 97.0593C98.6476 96.8122 98.5045 96.4908 98.5 96.1563V92.8404C98.5068 92.4868 98.6685 92.1494 98.9508 91.8993C99.2331 91.6492 99.6141 91.506 100.013 91.5C100.41 91.5062 100.788 91.6501 101.066 91.9008C101.344 92.1515 101.5 92.489 101.5 92.8404V96.1563C101.501 96.3405 101.458 96.5228 101.376 96.6919C101.293 96.861 101.172 97.0132 101.02 97.139C100.868 97.2647 100.688 97.3614 100.492 97.423C100.296 97.4845 100.088 97.5096 99.8805 97.4967Z" fill="#1F1F1F"/>
<path d="M106 97.5C106.828 97.5 107.5 96.8284 107.5 96C107.5 95.1716 106.828 94.5 106 94.5C105.172 94.5 104.5 95.1716 104.5 96C104.5 96.8284 105.172 97.5 106 97.5Z" fill="#1F1F1F"/>
<path d="M100 102C100.828 102 101.5 101.328 101.5 100.5C101.5 99.6716 100.828 99 100 99C99.1716 99 98.5 99.6716 98.5 100.5C98.5 101.328 99.1716 102 100 102Z" fill="#1F1F1F"/>
<path d="M106 93C106.828 93 107.5 92.3284 107.5 91.5C107.5 90.6716 106.828 90 106 90C105.172 90 104.5 90.6716 104.5 91.5C104.5 92.3284 105.172 93 106 93Z" fill="#1F1F1F"/>
<path d="M100 90C100.828 90 101.5 89.3284 101.5 88.5C101.5 87.6716 100.828 87 100 87C99.1716 87 98.5 87.6716 98.5 88.5C98.5 89.3284 99.1716 90 100 90Z" fill="#1F1F1F"/>
<path d="M100 85.5C100.828 85.5 101.5 84.8284 101.5 84C101.5 83.1716 100.828 82.5 100 82.5C99.1716 82.5 98.5 83.1716 98.5 84C98.5 84.8284 99.1716 85.5 100 85.5Z" fill="#1F1F1F"/>
<path d="M93.8825 92.9967C93.5068 92.9621 93.1586 92.8064 92.9041 92.5593C92.6496 92.3122 92.5064 91.9908 92.502 91.6563V88.3404C92.5088 87.9868 92.6704 87.6494 92.9527 87.3993C93.2351 87.1492 93.616 87.006 94.0152 87C94.4119 87.0062 94.7901 87.1501 95.0681 87.4008C95.3462 87.6515 95.502 87.989 95.5019 88.3404V91.6563C95.5025 91.8405 95.4601 92.0228 95.3775 92.1919C95.2949 92.361 95.1738 92.5132 95.0219 92.639C94.8699 92.7647 94.6903 92.8614 94.4942 92.923C94.2982 92.9845 94.09 93.0096 93.8825 92.9967Z" fill="#1F1F1F"/>
<path d="M94.002 97.5C94.8304 97.5 95.502 96.8284 95.502 96C95.502 95.1716 94.8304 94.5 94.002 94.5C93.1735 94.5 92.502 95.1716 92.502 96C92.502 96.8284 93.1735 97.5 94.002 97.5Z" fill="#1F1F1F"/>
<path d="M94.002 85.5C94.8304 85.5 95.502 84.8284 95.502 84C95.502 83.1716 94.8304 82.5 94.002 82.5C93.1735 82.5 92.502 83.1716 92.502 84C92.502 84.8284 93.1735 85.5 94.002 85.5Z" fill="#1F1F1F"/>
<path d="M94.002 81C94.8304 81 95.502 80.3284 95.502 79.5C95.502 78.6716 94.8304 78 94.002 78C93.1735 78 92.502 78.6716 92.502 79.5C92.502 80.3284 93.1735 81 94.002 81Z" fill="#1F1F1F"/>
<path d="M106 81C106.828 81 107.5 80.3284 107.5 79.5C107.5 78.6716 106.828 78 106 78C105.172 78 104.5 78.6716 104.5 79.5C104.5 80.3284 105.172 81 106 81Z" fill="#1F1F1F"/>
<path fill-rule="evenodd" clip-rule="evenodd" d="M99.5431 104.297L86.1644 94.3586C85.4243 93.8089 84.3788 93.9632 83.8292 94.7035C83.2796 95.4437 83.434 96.4895 84.1741 97.0393L97.8636 107.208C97.7899 106.986 97.75 106.748 97.75 106.5C97.75 105.414 98.5195 104.508 99.5431 104.297ZM102.137 107.208L115.825 97.0393C116.566 96.4895 116.72 95.4437 116.17 94.7035C115.621 93.9632 114.575 93.8089 113.835 94.3586L100.457 104.297C101.48 104.508 102.25 105.414 102.25 106.5C102.25 106.748 102.21 106.986 102.137 107.208Z" fill="#1F1F1F"/>
<path fill-rule="evenodd" clip-rule="evenodd" d="M100 109.497C101.657 109.497 103 108.154 103 106.497C103 104.84 101.657 103.497 100 103.497C98.3431 103.497 97 104.84 97 106.497C97 108.154 98.3431 109.497 100 109.497ZM100 107.997C100.828 107.997 101.5 107.325 101.5 106.497C101.5 105.669 100.828 104.997 100 104.997C99.1716 104.997 98.5 105.669 98.5 106.497C98.5 107.325 99.1716 107.997 100 107.997Z" fill="#1F1F1F"/>
</g>
</g>
<defs>
<filter id="filter0_d_57_13342" x="68" y="58.6704" width="64" height="64" filterUnits="userSpaceOnUse" color-interpolation-filters="sRGB">
<feFlood flood-opacity="0" result="BackgroundImageFix"/>
<feColorMatrix in="SourceAlpha" type="matrix" values="0 0 0 0 0 0 0 0 0 0 0 0 0 0 0 0 0 0 127 0" result="hardAlpha"/>
<feOffset dy="0.670408"/>
<feGaussianBlur stdDeviation="1"/>
<feComposite in2="hardAlpha" operator="out"/>
<feColorMatrix type="matrix" values="0 0 0 0 0 0 0 0 0 0 0 0 0 0 0 0 0 0 0.3 0"/>
<feBlend mode="normal" in2="BackgroundImageFix" result="effect1_dropShadow_57_13342"/>
<feBlend mode="normal" in="SourceGraphic" in2="effect1_dropShadow_57_13342" result="shape"/>
</filter>
<clipPath id="clip0_57_13342">
<rect width="97.7741" height="122.296" fill="white" transform="translate(-0.00195312 0.467773)"/>
</clipPath>
<clipPath id="clip1_57_13342">
<rect width="36" height="36" fill="white" transform="translate(82 73.5)"/>
</clipPath>
</defs>
</svg>
