<svg width="132" height="123" viewBox="0 0 132 123" fill="none" xmlns="http://www.w3.org/2000/svg">
<path d="M31.6581 118.567C36.7104 120.601 42.1915 121.807 47.9467 122.008C55.7355 122.28 63.1422 120.67 69.7635 117.611C61.8234 114.492 54.6322 109.929 48.4949 104.257C44.5166 110.627 38.6325 115.658 31.6581 118.567Z" fill="#FF9100"/>
<path d="M48.4923 104.259C34.4827 91.302 25.9838 72.5484 26.7021 51.979C26.7254 51.311 26.7607 50.6435 26.8019 49.9762C24.2928 49.3273 21.6734 48.9313 18.9777 48.8371C15.1191 48.7024 11.3823 49.181 7.85452 50.1744C4.11472 56.7255 1.85787 64.242 1.57672 72.2932C0.851127 93.0713 13.4253 111.227 31.6556 118.569C38.63 115.66 44.5139 110.635 48.4923 104.259Z" fill="#FFC400"/>
<path d="M48.4937 104.258C51.7509 99.0459 53.7258 92.9348 53.9557 86.3506C54.5605 69.0316 42.9175 54.133 26.8033 49.9757C26.762 50.643 26.7268 51.3105 26.7035 51.9785C25.9852 72.5479 34.484 91.3015 48.4937 104.258Z" fill="#FF9100"/>
<path d="M52.1543 1.29291C42.9766 8.64534 35.7294 18.3402 31.3447 29.5084C28.8344 35.9054 27.2569 42.7768 26.7964 49.9798C42.9106 54.1372 54.5536 69.0358 53.9488 86.3548C53.7189 92.939 51.7382 99.044 48.4868 104.263C54.6239 109.941 61.8153 114.497 69.7555 117.616C85.693 110.249 97.0006 94.3967 97.6554 75.6462C98.0796 63.4978 93.4121 52.6704 86.8167 43.5311C79.8515 33.8654 52.1543 1.29291 52.1543 1.29291Z" fill="#DD2C00"/>
<g filter="url(#filter0_d_47_3697)">
<circle cx="100" cy="90" r="30" fill="white"/>
<path fill-rule="evenodd" clip-rule="evenodd" d="M100 75C108.25 75 115 81.75 115 90C115 98.25 108.25 105 100 105C91.75 105 85 98.25 85 90C85 81.75 91.75 75 100 75ZM107.95 99C110.35 96.75 112 93.6 112 90C112 83.4 106.6 78 100 78C93.4 78 88 83.4 88 90C88 93.6 89.65 96.75 92.05 99C94.15 97.2 96.85 96 100 96C103.15 96 105.85 97.2 107.95 99ZM92.5 85.5C93.4 85.5 94 86.1 94 87C94 87.9 93.4 88.5 92.5 88.5C91.6 88.5 91 87.9 91 87C91 86.1 91.6 85.5 92.5 85.5ZM98.5 82.5C98.5 83.4 97.9 84 97 84C96.1 84 95.5 83.4 95.5 82.5C95.5 81.6 96.1 81 97 81C97.9 81 98.5 81.6 98.5 82.5ZM107.5 85.5C108.4 85.5 109 86.1 109 87C109 87.9 108.4 88.5 107.5 88.5C106.6 88.5 106 87.9 106 87C106 86.1 106.6 85.5 107.5 85.5ZM101.735 81.6933L101.735 81.6934C102.002 81.2765 102.469 81 103 81C103.828 81 104.5 81.672 104.5 82.5C104.5 82.6186 104.486 82.734 104.46 82.8448C103.964 85.3785 103.955 85.421 102.95 90.5395C102.693 91.9354 101.471 92.9922 100 92.9922C98.3425 92.9922 97 91.6497 97 89.9922C97 89.3775 97.1846 88.8062 97.5015 88.3305C100.313 83.9223 100.318 83.9142 101.735 81.6933Z" fill="#1F1F1F"/>
</g>
<defs>
<filter id="filter0_d_47_3697" x="68" y="58.6704" width="64" height="64" filterUnits="userSpaceOnUse" color-interpolation-filters="sRGB">
<feFlood flood-opacity="0" result="BackgroundImageFix"/>
<feColorMatrix in="SourceAlpha" type="matrix" values="0 0 0 0 0 0 0 0 0 0 0 0 0 0 0 0 0 0 127 0" result="hardAlpha"/>
<feOffset dy="0.670408"/>
<feGaussianBlur stdDeviation="1"/>
<feComposite in2="hardAlpha" operator="out"/>
<feColorMatrix type="matrix" values="0 0 0 0 0 0 0 0 0 0 0 0 0 0 0 0 0 0 0.3 0"/>
<feBlend mode="normal" in2="BackgroundImageFix" result="effect1_dropShadow_47_3697"/>
<feBlend mode="normal" in="SourceGraphic" in2="effect1_dropShadow_47_3697" result="shape"/>
</filter>
</defs>
</svg>
