<svg width="132" height="123" viewBox="0 0 132 123" fill="none" xmlns="http://www.w3.org/2000/svg">
<path d="M96.5778 66.9009V66.8625C96.577 66.8481 96.577 66.8337 96.5778 66.8193C95.4238 59.2985 92.4298 52.3707 88.4584 46.1392C87.9588 45.3513 87.4393 44.5767 86.9081 43.8071C86.6506 43.434 86.3891 43.0642 86.1238 42.6978C81.0167 35.6084 64.8861 16.3342 56.412 6.28481C53.2066 2.48194 51.0968 0 51.0968 0C50.141 0.766238 49.2068 1.5569 48.2943 2.372L48.2627 2.40031C41.6541 8.57947 36.1739 15.8647 32.0688 23.9282L32.0555 23.9533C31.2651 25.5079 30.5268 27.0904 29.8408 28.7006C28.2536 32.4308 26.9635 36.2806 25.9826 40.2141C25.3875 42.5917 24.9058 45.0109 24.5372 47.4717C22.509 47.1398 20.4605 46.9473 18.406 46.8954C18.0175 46.8854 17.6289 46.8804 17.2404 46.8804C13.8832 46.8779 10.5363 47.2523 7.26263 47.9965C5.25869 51.2336 3.6455 54.6969 2.45691 58.314C0.850195 63.2094 0.0340206 68.3297 0.0390859 73.4822C0.0390859 97.0323 16.8141 116.666 39.0642 121.072C42.1846 121.691 45.3581 122.001 48.5391 122C49.1668 122 49.7913 121.987 50.4141 121.965C52.0493 121.901 53.6617 121.759 55.2514 121.539C58.9558 121.025 62.5881 120.082 66.0751 118.73C67.0042 118.37 67.919 117.982 68.8193 117.564C85.4711 109.883 97.0391 93.0329 97.0391 73.4822C97.0327 71.2806 96.8786 69.0819 96.5778 66.9009ZM32.8847 110.508C28.1094 108.49 23.7713 105.564 20.1111 101.891C16.4411 98.23 13.5163 93.8911 11.4988 89.1151C9.40613 84.1673 8.33343 78.8479 8.345 73.4755C8.33326 68.1026 9.40596 62.7826 11.4988 57.8343C11.8319 57.0392 12.1921 56.2585 12.5795 55.4923C14.119 55.2992 15.6689 55.2023 17.2204 55.2024C19.4029 55.2022 21.5811 55.3951 23.7296 55.7788C23.6829 56.8632 23.6596 57.9575 23.6596 59.0553C23.6303 79.4778 31.6801 99.0824 46.0513 113.588C41.5188 113.321 37.0655 112.279 32.8847 110.508ZM50.7022 106.412C49.7275 105.376 48.79 104.313 47.8897 103.224C43.5736 98.027 40.0466 92.2223 37.4223 85.9968C33.816 77.4715 31.9668 68.3058 31.9855 59.0486C31.9855 58.7965 31.9855 58.545 31.9855 58.294C36.111 60.1246 39.862 62.7033 43.049 65.8998C47.99 70.8161 51.4112 77.0517 52.9035 83.8614C53.4678 86.4491 53.7514 89.0901 53.7494 91.7386C53.765 96.7874 52.7312 101.784 50.7138 106.412H50.7022ZM88.7365 74.8664C88.482 82.4219 86.0986 89.7518 81.861 96.0113C78.4171 101.095 73.8615 105.327 68.5395 108.388L68.4863 108.363C67.0875 109.164 65.6418 109.881 64.1568 110.508C62.3068 111.291 60.4003 111.933 58.4535 112.429C58.1072 112.518 57.7597 112.601 57.4111 112.679C57.223 112.722 57.0365 112.764 56.8483 112.802C56.9216 112.669 56.9932 112.53 57.0631 112.394C57.1714 112.186 57.2779 111.977 57.3812 111.767C58.6524 109.224 59.6762 106.565 60.4384 103.825C61.5324 99.8931 62.0853 95.8302 62.082 91.7486C62.0835 88.7793 61.7917 85.8171 61.2111 82.9052C58.1255 67.4705 47.1253 54.8976 32.625 49.5906C33.2929 44.6813 34.4917 39.8591 36.2001 35.2086C36.5831 34.1681 36.991 33.1348 37.424 32.1087C38.0767 30.5629 38.7828 29.0471 39.5421 27.5612C39.5467 27.5538 39.5506 27.546 39.5538 27.5379C39.8652 26.89 40.1865 26.252 40.5196 25.6157C43.1334 20.6369 46.4283 16.0469 50.3092 11.9783L50.3741 12.0566C53.8144 16.1377 58.4186 21.6279 63.0045 27.1598C65.3507 29.9915 67.692 32.8349 69.87 35.5084C73.9547 40.524 77.4649 44.9415 79.3615 47.565C79.633 47.9415 79.8977 48.3163 80.1575 48.6961C82.8817 52.6522 84.9865 56.6516 86.4136 60.6077C87.3208 63.1022 87.9752 65.6814 88.3668 68.3068V68.3401C88.6873 70.4998 88.8122 72.6841 88.7398 74.8664H88.7365Z" fill="white"/>
<g filter="url(#filter0_d_57_13748)">
<circle cx="100" cy="90" r="30" fill="white"/>
<g clip-path="url(#clip0_57_13748)">
<path d="M87.8844 79.4967C87.5088 79.4621 87.1606 79.3064 86.9061 79.0593C86.6515 78.8122 86.5084 78.4908 86.5039 78.1563V74.8404C86.5107 74.4868 86.6724 74.1494 86.9547 73.8993C87.237 73.6492 87.618 73.506 88.0172 73.5C88.4139 73.5062 88.792 73.6501 89.0701 73.9008C89.3482 74.1515 89.504 74.489 89.5039 74.8404V78.1563C89.5044 78.3405 89.462 78.5228 89.3794 78.6919C89.2968 78.861 89.1758 79.0132 89.0238 79.139C88.8718 79.2647 88.6922 79.3614 88.4962 79.423C88.3002 79.4845 88.0919 79.5096 87.8844 79.4967Z" fill="#1F1F1F"/>
<path d="M111.879 83.9967C111.503 83.9621 111.155 83.8064 110.9 83.5593C110.646 83.3122 110.503 82.9908 110.498 82.6563V79.3404C110.505 78.9868 110.666 78.6494 110.949 78.3993C111.231 78.1492 111.612 78.006 112.011 78C112.408 78.0062 112.786 78.1501 113.064 78.4008C113.342 78.6515 113.498 78.989 113.498 79.3404V82.6563C113.499 82.8405 113.456 83.0228 113.374 83.1919C113.291 83.361 113.17 83.5132 113.018 83.639C112.866 83.7647 112.686 83.8614 112.49 83.923C112.294 83.9845 112.086 84.0096 111.879 83.9967Z" fill="#1F1F1F"/>
<path d="M88.0039 84C88.8323 84 89.5039 83.3284 89.5039 82.5C89.5039 81.6716 88.8323 81 88.0039 81C87.1755 81 86.5039 81.6716 86.5039 82.5C86.5039 83.3284 87.1755 84 88.0039 84Z" fill="#1F1F1F"/>
<path d="M88.0039 93C88.8323 93 89.5039 92.3284 89.5039 91.5C89.5039 90.6716 88.8323 90 88.0039 90C87.1755 90 86.5039 90.6716 86.5039 91.5C86.5039 92.3284 87.1755 93 88.0039 93Z" fill="#1F1F1F"/>
<path d="M88.0039 88.5C88.8323 88.5 89.5039 87.8284 89.5039 87C89.5039 86.1716 88.8323 85.5 88.0039 85.5C87.1755 85.5 86.5039 86.1716 86.5039 87C86.5039 87.8284 87.1755 88.5 88.0039 88.5Z" fill="#1F1F1F"/>
<path d="M111.998 93C112.826 93 113.498 92.3284 113.498 91.5C113.498 90.6716 112.826 90 111.998 90C111.17 90 110.498 90.6716 110.498 91.5C110.498 92.3284 111.17 93 111.998 93Z" fill="#1F1F1F"/>
<path d="M111.998 88.5C112.826 88.5 113.498 87.8284 113.498 87C113.498 86.1716 112.826 85.5 111.998 85.5C111.17 85.5 110.498 86.1716 110.498 87C110.498 87.8284 111.17 88.5 111.998 88.5Z" fill="#1F1F1F"/>
<path d="M111.998 76.5C112.826 76.5 113.498 75.8284 113.498 75C113.498 74.1716 112.826 73.5 111.998 73.5C111.17 73.5 110.498 74.1716 110.498 75C110.498 75.8284 111.17 76.5 111.998 76.5Z" fill="#1F1F1F"/>
<path d="M105.881 88.4967C105.505 88.4621 105.157 88.3064 104.902 88.0593C104.648 87.8122 104.504 87.4908 104.5 87.1563V83.8404C104.507 83.4868 104.668 83.1494 104.951 82.8993C105.233 82.6492 105.614 82.506 106.013 82.5C106.41 82.5062 106.788 82.6501 107.066 82.9008C107.344 83.1515 107.5 83.489 107.5 83.8404V87.1563C107.501 87.3405 107.458 87.5228 107.376 87.6919C107.293 87.861 107.172 88.0132 107.02 88.139C106.868 88.2647 106.688 88.3614 106.492 88.423C106.296 88.4845 106.088 88.5096 105.881 88.4967Z" fill="#1F1F1F"/>
<path d="M99.8805 97.4967C99.5049 97.4621 99.1567 97.3064 98.9021 97.0593C98.6476 96.8122 98.5045 96.4908 98.5 96.1563V92.8404C98.5068 92.4868 98.6685 92.1494 98.9508 91.8993C99.2331 91.6492 99.6141 91.506 100.013 91.5C100.41 91.5062 100.788 91.6501 101.066 91.9008C101.344 92.1515 101.5 92.489 101.5 92.8404V96.1563C101.501 96.3405 101.458 96.5228 101.376 96.6919C101.293 96.861 101.172 97.0132 101.02 97.139C100.868 97.2647 100.688 97.3614 100.492 97.423C100.296 97.4845 100.088 97.5096 99.8805 97.4967Z" fill="#1F1F1F"/>
<path d="M106 97.5C106.828 97.5 107.5 96.8284 107.5 96C107.5 95.1716 106.828 94.5 106 94.5C105.172 94.5 104.5 95.1716 104.5 96C104.5 96.8284 105.172 97.5 106 97.5Z" fill="#1F1F1F"/>
<path d="M100 102C100.828 102 101.5 101.328 101.5 100.5C101.5 99.6716 100.828 99 100 99C99.1716 99 98.5 99.6716 98.5 100.5C98.5 101.328 99.1716 102 100 102Z" fill="#1F1F1F"/>
<path d="M106 93C106.828 93 107.5 92.3284 107.5 91.5C107.5 90.6716 106.828 90 106 90C105.172 90 104.5 90.6716 104.5 91.5C104.5 92.3284 105.172 93 106 93Z" fill="#1F1F1F"/>
<path d="M100 90C100.828 90 101.5 89.3284 101.5 88.5C101.5 87.6716 100.828 87 100 87C99.1716 87 98.5 87.6716 98.5 88.5C98.5 89.3284 99.1716 90 100 90Z" fill="#1F1F1F"/>
<path d="M100 85.5C100.828 85.5 101.5 84.8284 101.5 84C101.5 83.1716 100.828 82.5 100 82.5C99.1716 82.5 98.5 83.1716 98.5 84C98.5 84.8284 99.1716 85.5 100 85.5Z" fill="#1F1F1F"/>
<path d="M93.8825 92.9967C93.5068 92.9621 93.1586 92.8064 92.9041 92.5593C92.6496 92.3122 92.5064 91.9908 92.502 91.6563V88.3404C92.5088 87.9868 92.6704 87.6494 92.9527 87.3993C93.2351 87.1492 93.616 87.006 94.0152 87C94.4119 87.0062 94.7901 87.1501 95.0681 87.4008C95.3462 87.6515 95.502 87.989 95.5019 88.3404V91.6563C95.5025 91.8405 95.4601 92.0228 95.3775 92.1919C95.2949 92.361 95.1738 92.5132 95.0219 92.639C94.8699 92.7647 94.6903 92.8614 94.4942 92.923C94.2982 92.9845 94.09 93.0096 93.8825 92.9967Z" fill="#1F1F1F"/>
<path d="M94.002 97.5C94.8304 97.5 95.502 96.8284 95.502 96C95.502 95.1716 94.8304 94.5 94.002 94.5C93.1735 94.5 92.502 95.1716 92.502 96C92.502 96.8284 93.1735 97.5 94.002 97.5Z" fill="#1F1F1F"/>
<path d="M94.002 85.5C94.8304 85.5 95.502 84.8284 95.502 84C95.502 83.1716 94.8304 82.5 94.002 82.5C93.1735 82.5 92.502 83.1716 92.502 84C92.502 84.8284 93.1735 85.5 94.002 85.5Z" fill="#1F1F1F"/>
<path d="M94.002 81C94.8304 81 95.502 80.3284 95.502 79.5C95.502 78.6716 94.8304 78 94.002 78C93.1735 78 92.502 78.6716 92.502 79.5C92.502 80.3284 93.1735 81 94.002 81Z" fill="#1F1F1F"/>
<path d="M106 81C106.828 81 107.5 80.3284 107.5 79.5C107.5 78.6716 106.828 78 106 78C105.172 78 104.5 78.6716 104.5 79.5C104.5 80.3284 105.172 81 106 81Z" fill="#1F1F1F"/>
<path fill-rule="evenodd" clip-rule="evenodd" d="M99.5431 104.297L86.1644 94.3586C85.4243 93.8089 84.3788 93.9632 83.8292 94.7035C83.2796 95.4437 83.434 96.4895 84.1741 97.0393L97.8636 107.208C97.7899 106.986 97.75 106.748 97.75 106.5C97.75 105.414 98.5195 104.508 99.5431 104.297ZM102.137 107.208L115.825 97.0393C116.566 96.4895 116.72 95.4437 116.17 94.7035C115.621 93.9632 114.575 93.8089 113.835 94.3586L100.457 104.297C101.48 104.508 102.25 105.414 102.25 106.5C102.25 106.748 102.21 106.986 102.137 107.208Z" fill="#1F1F1F"/>
<path fill-rule="evenodd" clip-rule="evenodd" d="M100 109.497C101.657 109.497 103 108.154 103 106.497C103 104.84 101.657 103.497 100 103.497C98.3431 103.497 97 104.84 97 106.497C97 108.154 98.3431 109.497 100 109.497ZM100 107.997C100.828 107.997 101.5 107.325 101.5 106.497C101.5 105.669 100.828 104.997 100 104.997C99.1716 104.997 98.5 105.669 98.5 106.497C98.5 107.325 99.1716 107.997 100 107.997Z" fill="#1F1F1F"/>
</g>
</g>
<defs>
<filter id="filter0_d_57_13748" x="68" y="58.6704" width="64" height="64" filterUnits="userSpaceOnUse" color-interpolation-filters="sRGB">
<feFlood flood-opacity="0" result="BackgroundImageFix"/>
<feColorMatrix in="SourceAlpha" type="matrix" values="0 0 0 0 0 0 0 0 0 0 0 0 0 0 0 0 0 0 127 0" result="hardAlpha"/>
<feOffset dy="0.670408"/>
<feGaussianBlur stdDeviation="1"/>
<feComposite in2="hardAlpha" operator="out"/>
<feColorMatrix type="matrix" values="0 0 0 0 0 0 0 0 0 0 0 0 0 0 0 0 0 0 0.3 0"/>
<feBlend mode="normal" in2="BackgroundImageFix" result="effect1_dropShadow_57_13748"/>
<feBlend mode="normal" in="SourceGraphic" in2="effect1_dropShadow_57_13748" result="shape"/>
</filter>
<clipPath id="clip0_57_13748">
<rect width="36" height="36" fill="white" transform="translate(82 73.5)"/>
</clipPath>
</defs>
</svg>
