<svg width="132" height="123" viewBox="0 0 132 123" fill="none" xmlns="http://www.w3.org/2000/svg">
<path d="M96.5778 66.9009V66.8625C96.577 66.8481 96.577 66.8337 96.5778 66.8193C95.4238 59.2985 92.4298 52.3707 88.4584 46.1392C87.9588 45.3513 87.4393 44.5767 86.9081 43.8071C86.6506 43.434 86.3891 43.0642 86.1238 42.6978C81.0167 35.6084 64.8861 16.3342 56.412 6.28481C53.2066 2.48194 51.0968 0 51.0968 0C50.141 0.766238 49.2068 1.5569 48.2943 2.372L48.2627 2.40031C41.6541 8.57947 36.1739 15.8647 32.0688 23.9282L32.0555 23.9533C31.2651 25.5079 30.5268 27.0904 29.8408 28.7006C28.2536 32.4308 26.9635 36.2806 25.9826 40.2141C25.3875 42.5917 24.9058 45.0109 24.5372 47.4717C22.509 47.1398 20.4605 46.9473 18.406 46.8954C18.0175 46.8854 17.6289 46.8804 17.2404 46.8804C13.8832 46.8779 10.5363 47.2523 7.26263 47.9965C5.25869 51.2336 3.6455 54.6969 2.45691 58.314C0.850195 63.2094 0.0340206 68.3297 0.0390859 73.4822C0.0390859 97.0323 16.8141 116.666 39.0642 121.072C42.1846 121.691 45.3581 122.001 48.5391 122C49.1668 122 49.7913 121.987 50.4141 121.965C52.0493 121.901 53.6617 121.759 55.2514 121.539C58.9558 121.025 62.5881 120.082 66.0751 118.73C67.0042 118.37 67.919 117.982 68.8193 117.564C85.4711 109.883 97.0391 93.0329 97.0391 73.4822C97.0327 71.2806 96.8786 69.0819 96.5778 66.9009ZM32.8847 110.508C28.1094 108.49 23.7713 105.564 20.1111 101.891C16.4411 98.23 13.5163 93.8911 11.4988 89.1151C9.40613 84.1673 8.33343 78.8479 8.345 73.4755C8.33326 68.1026 9.40596 62.7826 11.4988 57.8343C11.8319 57.0392 12.1921 56.2585 12.5795 55.4923C14.119 55.2992 15.6689 55.2023 17.2204 55.2024C19.4029 55.2022 21.5811 55.3951 23.7296 55.7788C23.6829 56.8632 23.6596 57.9575 23.6596 59.0553C23.6303 79.4778 31.6801 99.0824 46.0513 113.588C41.5188 113.321 37.0655 112.279 32.8847 110.508ZM50.7022 106.412C49.7275 105.376 48.79 104.313 47.8897 103.224C43.5736 98.027 40.0466 92.2223 37.4223 85.9968C33.816 77.4715 31.9668 68.3058 31.9855 59.0486C31.9855 58.7965 31.9855 58.545 31.9855 58.294C36.111 60.1246 39.862 62.7033 43.049 65.8998C47.99 70.8161 51.4112 77.0517 52.9035 83.8614C53.4678 86.4491 53.7514 89.0901 53.7494 91.7386C53.765 96.7874 52.7312 101.784 50.7138 106.412H50.7022ZM88.7365 74.8664C88.482 82.4219 86.0986 89.7518 81.861 96.0113C78.4171 101.095 73.8615 105.327 68.5395 108.388L68.4863 108.363C67.0875 109.164 65.6418 109.881 64.1568 110.508C62.3068 111.291 60.4003 111.933 58.4535 112.429C58.1072 112.518 57.7597 112.601 57.4111 112.679C57.223 112.722 57.0365 112.764 56.8483 112.802C56.9216 112.669 56.9932 112.53 57.0631 112.394C57.1714 112.186 57.2779 111.977 57.3812 111.767C58.6524 109.224 59.6762 106.565 60.4384 103.825C61.5324 99.8931 62.0853 95.8302 62.082 91.7486C62.0835 88.7793 61.7917 85.8171 61.2111 82.9052C58.1255 67.4705 47.1253 54.8976 32.625 49.5906C33.2929 44.6813 34.4917 39.8591 36.2001 35.2086C36.5831 34.1681 36.991 33.1348 37.424 32.1087C38.0767 30.5629 38.7828 29.0471 39.5421 27.5612C39.5467 27.5538 39.5506 27.546 39.5538 27.5379C39.8652 26.89 40.1865 26.252 40.5196 25.6157C43.1334 20.6369 46.4283 16.0469 50.3092 11.9783L50.3741 12.0566C53.8144 16.1377 58.4186 21.6279 63.0045 27.1598C65.3507 29.9915 67.692 32.8349 69.87 35.5084C73.9547 40.524 77.4649 44.9415 79.3615 47.565C79.633 47.9415 79.8977 48.3163 80.1575 48.6961C82.8817 52.6522 84.9865 56.6516 86.4136 60.6077C87.3208 63.1022 87.9752 65.6814 88.3668 68.3068V68.3401C88.6873 70.4998 88.8122 72.6841 88.7398 74.8664H88.7365Z" fill="white"/>
<g filter="url(#filter0_d_57_13701)">
<circle cx="100" cy="90" r="30" fill="white"/>
<path d="M112.01 97.1337V82.8687L106.958 77.8167L110.137 74.6367L116.5 80.9997V97.1547L116.49 97.1607V99.0042L110.132 105.363L106.958 102.187L112.01 97.1337ZM87.9895 97.1292L93.0415 102.183L89.863 105.363L83.5 98.9997V82.8447L83.5105 82.8387V80.9952L89.8675 74.6367L93.0415 77.8122L87.9895 82.8657V97.1307V97.1292ZM93.2515 92.2542C92.653 92.2542 92.079 92.0165 91.6557 91.5932C91.2325 91.17 90.9948 90.596 90.9948 89.9975C90.9948 89.3989 91.2325 88.8249 91.6557 88.4017C92.079 87.9785 92.653 87.7407 93.2515 87.7407C93.8498 87.7407 94.4237 87.9784 94.8467 88.4015C95.2698 88.8246 95.5075 89.3984 95.5075 89.9967C95.5075 90.595 95.2698 91.1689 94.8467 91.5919C94.4237 92.015 93.8498 92.2527 93.2515 92.2527V92.2542ZM99.9985 92.2542C99.4 92.2542 98.826 92.0165 98.4027 91.5932C97.9795 91.17 97.7418 90.596 97.7418 89.9975C97.7418 89.3989 97.9795 88.8249 98.4027 88.4017C98.826 87.9785 99.4 87.7407 99.9985 87.7407C100.597 87.7407 101.171 87.9784 101.594 88.4015C102.017 88.8246 102.255 89.3984 102.255 89.9967C102.255 90.595 102.017 91.1689 101.594 91.5919C101.171 92.015 100.597 92.2527 99.9985 92.2527V92.2542ZM106.745 92.2542C106.147 92.2542 105.573 92.0165 105.15 91.5932C104.727 91.17 104.489 90.596 104.489 89.9975C104.489 89.3989 104.727 88.8249 105.15 88.4017C105.573 87.9785 106.147 87.7407 106.745 87.7407C107.344 87.7407 107.918 87.9784 108.341 88.4015C108.764 88.8246 109.001 89.3984 109.001 89.9967C109.001 90.595 108.764 91.1689 108.341 91.5919C107.918 92.015 107.344 92.2527 106.745 92.2527V92.2542Z" fill="#1F1F1F"/>
</g>
<defs>
<filter id="filter0_d_57_13701" x="68" y="58.6704" width="64" height="64" filterUnits="userSpaceOnUse" color-interpolation-filters="sRGB">
<feFlood flood-opacity="0" result="BackgroundImageFix"/>
<feColorMatrix in="SourceAlpha" type="matrix" values="0 0 0 0 0 0 0 0 0 0 0 0 0 0 0 0 0 0 127 0" result="hardAlpha"/>
<feOffset dy="0.670408"/>
<feGaussianBlur stdDeviation="1"/>
<feComposite in2="hardAlpha" operator="out"/>
<feColorMatrix type="matrix" values="0 0 0 0 0 0 0 0 0 0 0 0 0 0 0 0 0 0 0.3 0"/>
<feBlend mode="normal" in2="BackgroundImageFix" result="effect1_dropShadow_57_13701"/>
<feBlend mode="normal" in="SourceGraphic" in2="effect1_dropShadow_57_13701" result="shape"/>
</filter>
</defs>
</svg>
