<svg width="132" height="123" viewBox="0 0 132 123" fill="none" xmlns="http://www.w3.org/2000/svg">
<path d="M31.6581 118.567C36.7104 120.601 42.1915 121.807 47.9467 122.008C55.7355 122.28 63.1422 120.67 69.7635 117.611C61.8234 114.492 54.6322 109.929 48.4949 104.257C44.5166 110.627 38.6325 115.658 31.6581 118.567Z" fill="#FF9100"/>
<path d="M48.4923 104.259C34.4827 91.302 25.9838 72.5484 26.7021 51.979C26.7254 51.311 26.7607 50.6435 26.8019 49.9762C24.2928 49.3273 21.6734 48.9313 18.9777 48.8371C15.1191 48.7024 11.3823 49.181 7.85452 50.1744C4.11472 56.7255 1.85787 64.242 1.57672 72.2932C0.851127 93.0713 13.4253 111.227 31.6556 118.569C38.63 115.66 44.5139 110.635 48.4923 104.259Z" fill="#FFC400"/>
<path d="M48.4937 104.258C51.7509 99.0459 53.7258 92.9348 53.9557 86.3506C54.5605 69.0316 42.9175 54.133 26.8033 49.9757C26.762 50.643 26.7268 51.3105 26.7035 51.9785C25.9852 72.5479 34.484 91.3015 48.4937 104.258Z" fill="#FF9100"/>
<path d="M52.1543 1.29291C42.9766 8.64534 35.7294 18.3402 31.3447 29.5084C28.8344 35.9054 27.2569 42.7768 26.7964 49.9798C42.9106 54.1372 54.5536 69.0358 53.9488 86.3548C53.7189 92.939 51.7382 99.044 48.4868 104.263C54.6239 109.941 61.8153 114.497 69.7555 117.616C85.693 110.249 97.0006 94.3967 97.6554 75.6462C98.0796 63.4978 93.4121 52.6704 86.8167 43.5311C79.8515 33.8654 52.1543 1.29291 52.1543 1.29291Z" fill="#DD2C00"/>
<g filter="url(#filter0_d_47_3692)">
<circle cx="100" cy="90" r="30" fill="white"/>
<path fill-rule="evenodd" clip-rule="evenodd" d="M90.2496 100.5C89.007 100.5 87.9996 99.4927 87.9996 98.25C87.9996 97.0074 89.007 96 90.2496 96H91.7496C92.9923 96 93.9996 94.9927 93.9996 93.75C93.9996 92.5074 92.9923 91.5 91.7496 91.5H88.7496C87.507 91.5 86.4996 90.4927 86.4996 89.25C86.4996 88.0074 87.507 87 88.7496 87H93.9996C94.8281 87 95.4996 86.3285 95.4996 85.5C95.4996 84.6716 94.8281 84 93.9996 84C92.757 84 91.7496 82.9927 91.7496 81.75C91.7496 80.5074 92.757 79.5 93.9996 79.5H116.455C117.395 79.5 118.108 80.382 117.946 81.3465L114.946 99.1965C114.834 99.9372 114.204 100.489 113.455 100.5H90.2496ZM96.7673 97.5H112.198L114.712 82.5H99.2498L96.7673 97.5ZM110.292 95.2499H99.4205L101.157 84.7499H112.053L110.292 95.2499ZM84.2498 100.5C83.0072 100.5 81.9998 99.4925 81.9998 98.2499C81.9998 97.0073 83.0072 95.9999 84.2498 95.9999C85.4925 95.9999 86.4998 97.0073 86.4998 98.2499C86.4998 99.4925 85.4925 100.5 84.2498 100.5Z" fill="#1F1F1F"/>
</g>
<defs>
<filter id="filter0_d_47_3692" x="68" y="58.6704" width="64" height="64" filterUnits="userSpaceOnUse" color-interpolation-filters="sRGB">
<feFlood flood-opacity="0" result="BackgroundImageFix"/>
<feColorMatrix in="SourceAlpha" type="matrix" values="0 0 0 0 0 0 0 0 0 0 0 0 0 0 0 0 0 0 127 0" result="hardAlpha"/>
<feOffset dy="0.670408"/>
<feGaussianBlur stdDeviation="1"/>
<feComposite in2="hardAlpha" operator="out"/>
<feColorMatrix type="matrix" values="0 0 0 0 0 0 0 0 0 0 0 0 0 0 0 0 0 0 0.3 0"/>
<feBlend mode="normal" in2="BackgroundImageFix" result="effect1_dropShadow_47_3692"/>
<feBlend mode="normal" in="SourceGraphic" in2="effect1_dropShadow_47_3692" result="shape"/>
</filter>
</defs>
</svg>
