<svg width="132" height="123" viewBox="0 0 132 123" fill="none" xmlns="http://www.w3.org/2000/svg">
<path d="M31.6581 118.567C36.7104 120.601 42.1915 121.807 47.9467 122.008C55.7355 122.28 63.1422 120.67 69.7635 117.611C61.8234 114.492 54.6322 109.929 48.4949 104.257C44.5166 110.627 38.6325 115.658 31.6581 118.567Z" fill="#FF9100"/>
<path d="M48.4923 104.259C34.4827 91.302 25.9838 72.5484 26.7021 51.979C26.7254 51.311 26.7607 50.6435 26.8019 49.9762C24.2928 49.3273 21.6734 48.9313 18.9777 48.8371C15.1191 48.7024 11.3823 49.181 7.85452 50.1744C4.11472 56.7255 1.85787 64.242 1.57672 72.2932C0.851127 93.0713 13.4253 111.227 31.6556 118.569C38.63 115.66 44.5139 110.635 48.4923 104.259Z" fill="#FFC400"/>
<path d="M48.4937 104.258C51.7509 99.0459 53.7258 92.9348 53.9557 86.3506C54.5605 69.0316 42.9175 54.133 26.8033 49.9757C26.762 50.643 26.7268 51.3105 26.7035 51.9785C25.9852 72.5479 34.484 91.3015 48.4937 104.258Z" fill="#FF9100"/>
<path d="M52.1543 1.29291C42.9766 8.64534 35.7294 18.3402 31.3447 29.5084C28.8344 35.9054 27.2569 42.7768 26.7964 49.9798C42.9106 54.1372 54.5536 69.0358 53.9488 86.3548C53.7189 92.939 51.7382 99.044 48.4868 104.263C54.6239 109.941 61.8153 114.497 69.7555 117.616C85.693 110.249 97.0006 94.3967 97.6554 75.6462C98.0796 63.4978 93.4121 52.6704 86.8167 43.5311C79.8515 33.8654 52.1543 1.29291 52.1543 1.29291Z" fill="#DD2C00"/>
<g filter="url(#filter0_d_47_3682)">
<circle cx="100" cy="90" r="30" fill="white"/>
<path d="M112.01 97.134V82.869L106.958 77.817L110.137 74.637L116.5 81V97.155L116.49 97.161V99.0045L110.132 105.363L106.958 102.187L112.01 97.134ZM87.9895 97.1295L93.0415 102.183L89.863 105.363L83.5 99V82.845L83.5105 82.839V80.9955L89.8675 74.637L93.0415 77.8125L87.9895 82.866V97.131V97.1295ZM93.2515 92.2545C92.653 92.2545 92.079 92.0167 91.6557 91.5935C91.2325 91.1703 90.9948 90.5962 90.9948 89.9977C90.9948 89.3992 91.2325 88.8252 91.6557 88.4019C92.079 87.9787 92.653 87.741 93.2515 87.741C93.8498 87.741 94.4237 87.9786 94.8467 88.4017C95.2698 88.8248 95.5075 89.3986 95.5075 89.997C95.5075 90.5953 95.2698 91.1691 94.8467 91.5922C94.4237 92.0153 93.8498 92.253 93.2515 92.253V92.2545ZM99.9985 92.2545C99.4 92.2545 98.826 92.0167 98.4027 91.5935C97.9795 91.1703 97.7418 90.5962 97.7418 89.9977C97.7418 89.3992 97.9795 88.8252 98.4027 88.4019C98.826 87.9787 99.4 87.741 99.9985 87.741C100.597 87.741 101.171 87.9786 101.594 88.4017C102.017 88.8248 102.255 89.3986 102.255 89.997C102.255 90.5953 102.017 91.1691 101.594 91.5922C101.171 92.0153 100.597 92.253 99.9985 92.253V92.2545ZM106.745 92.2545C106.147 92.2545 105.573 92.0167 105.15 91.5935C104.727 91.1703 104.489 90.5962 104.489 89.9977C104.489 89.3992 104.727 88.8252 105.15 88.4019C105.573 87.9787 106.147 87.741 106.745 87.741C107.344 87.741 107.918 87.9786 108.341 88.4017C108.764 88.8248 109.001 89.3986 109.001 89.997C109.001 90.5953 108.764 91.1691 108.341 91.5922C107.918 92.0153 107.344 92.253 106.745 92.253V92.2545Z" fill="#1F1F1F"/>
</g>
<defs>
<filter id="filter0_d_47_3682" x="68" y="58.6704" width="64" height="64" filterUnits="userSpaceOnUse" color-interpolation-filters="sRGB">
<feFlood flood-opacity="0" result="BackgroundImageFix"/>
<feColorMatrix in="SourceAlpha" type="matrix" values="0 0 0 0 0 0 0 0 0 0 0 0 0 0 0 0 0 0 127 0" result="hardAlpha"/>
<feOffset dy="0.670408"/>
<feGaussianBlur stdDeviation="1"/>
<feComposite in2="hardAlpha" operator="out"/>
<feColorMatrix type="matrix" values="0 0 0 0 0 0 0 0 0 0 0 0 0 0 0 0 0 0 0.3 0"/>
<feBlend mode="normal" in2="BackgroundImageFix" result="effect1_dropShadow_47_3682"/>
<feBlend mode="normal" in="SourceGraphic" in2="effect1_dropShadow_47_3682" result="shape"/>
</filter>
</defs>
</svg>
