<svg width="132" height="123" viewBox="0 0 132 123" fill="none" xmlns="http://www.w3.org/2000/svg">
<g clip-path="url(#clip0_57_13458)">
<path d="M86.8743 43.1134C84.1283 39.3031 77.814 31.4684 68.1144 19.8296C63.9039 14.7813 60.2921 10.4962 58.5142 8.39247C57.5337 7.232 56.6928 6.23909 56.0288 5.45406L54.9707 4.20672L54.3967 3.53029L54.285 3.36584L54.2354 3.34412L51.7872 0.467773L48.6844 2.95626C40.7628 9.30161 34.2747 17.4807 29.9276 26.5969C27.2622 32.0207 25.5215 37.3235 24.6093 42.7845C24.3704 44.0133 24.1656 45.2761 23.9949 46.5421C22.9306 46.4552 21.8477 46.3994 20.7742 46.3745C20.6842 46.3683 20.5942 46.3652 20.4732 46.3621C16.5419 46.2256 12.6323 46.6941 8.85608 47.7584L7.23949 48.2114L6.40793 49.6698C2.51074 56.5054 0.304608 64.2873 0.0284535 72.1717C-0.328375 82.4111 2.46109 92.3216 8.09588 100.833C13.6097 109.158 21.3978 115.522 30.6195 119.236L31.8203 119.72L32.1834 119.847L32.1989 119.841C37.0021 121.585 42.0442 122.559 47.1857 122.736C47.769 122.758 48.3492 122.767 48.9295 122.767C55.4176 122.767 61.735 121.498 67.7297 118.988L67.7731 119.006L69.368 118.268C77.454 114.529 84.3734 108.652 89.3783 101.27C94.526 93.6776 97.4178 84.7941 97.7405 75.5817C98.1253 64.5697 94.467 53.6476 86.8712 43.1165L86.8743 43.1134ZM50.7788 77.2325C52.4512 83.5716 52.1223 89.6625 49.8076 95.3624C44.0239 89.6532 39.7823 83.3761 37.1945 76.6863C34.4236 69.5312 32.7574 62.7235 32.2299 56.4278C34.6781 57.2314 36.9276 58.2926 38.9321 59.5989C44.6972 63.3565 48.6844 69.2891 50.7788 77.2356V77.2325ZM51.8338 107.92C54.2912 109.791 56.8759 111.544 59.5412 113.157C55.6161 114.225 51.5669 114.693 47.4711 114.547C46.8382 114.526 46.2052 114.488 45.5691 114.436C47.9024 112.425 50 110.244 51.8307 107.92H51.8338ZM58.6973 75.1442C56.066 65.1716 50.9184 57.6317 43.4002 52.7354C40.1019 50.5882 36.3443 48.9592 32.2175 47.8949C32.2764 47.2092 32.3509 46.5266 32.4378 45.8564C32.5123 45.2823 32.5898 44.7548 32.6736 44.2615C33.3531 40.7522 34.3647 37.2801 35.6741 33.9445C36.1767 32.6661 36.7259 31.3971 37.3093 30.1714L37.331 30.128C38.2308 28.3066 39.2455 26.4666 40.4401 24.4994L40.9086 23.7268L40.8931 23.7175C43.667 19.3828 46.9902 15.4297 50.7912 11.9452L52.2588 13.6797C55.6813 17.7352 58.899 21.5703 61.825 25.0796C68.4061 32.9733 76.939 43.3399 80.2311 47.9105C86.7409 56.9336 89.8779 66.1459 89.5583 75.2994C89.3101 82.408 87.2063 89.3398 83.4705 95.3407C79.9332 101.028 75.0059 105.788 69.2004 109.139C65.9611 107.523 61.2571 104.863 56.2615 100.994C60.289 92.967 61.1113 84.2759 58.7004 75.1442H58.6973ZM45.5753 102.648C41.8829 107.433 37.4892 110.545 34.9263 112.109C34.5105 111.957 34.0947 111.798 33.6851 111.631L33.3562 111.5C25.7635 108.363 19.3593 103.061 14.8353 96.1599C10.212 89.1071 7.92212 80.9093 8.21689 72.451C8.42789 66.388 9.93898 60.5949 12.7129 55.2301C14.3233 54.8733 15.9647 54.6499 17.6061 54.5661L18.0312 54.5568C18.8597 54.5382 19.6851 54.5382 20.4701 54.5568C21.6243 54.6095 22.7817 54.7305 23.9205 54.9136C24.2928 62.6211 26.1855 70.9368 29.5521 79.6372C32.7946 88.0118 38.1812 95.7472 45.5722 102.645L45.5753 102.648Z" fill="white"/>
</g>
<g filter="url(#filter0_d_57_13458)">
<circle cx="100" cy="90" r="30" fill="white"/>
<path d="M104.5 84.387C103.296 83.5827 101.865 83.1869 100.419 83.2581C98.9724 83.3294 97.5873 83.8638 96.468 84.7826C95.3488 85.7014 94.5546 86.9557 94.2029 88.3604C93.8512 89.7651 93.9605 91.2457 94.5147 92.5835C95.0689 93.9213 96.0387 95.0454 97.2808 95.7898C98.5228 96.5342 99.9714 96.8594 101.412 96.7175C102.854 96.5755 104.211 95.9739 105.284 95.0014C106.357 94.029 107.088 92.7372 107.371 91.317L112.417 96.3645C112.839 96.7864 113.076 97.3586 113.076 97.9552C113.076 98.5519 112.839 99.1241 112.417 99.546L110.296 101.667C109.874 102.089 109.302 102.326 108.705 102.326C108.109 102.326 107.536 102.089 107.115 101.667L104.5 99.054V102.75C104.5 103.347 104.263 103.919 103.841 104.341C103.419 104.763 102.847 105 102.25 105H99.25C98.6533 105 98.081 104.763 97.659 104.341C97.2371 103.919 97 103.347 97 102.75V99.054L94.3855 101.667C93.9636 102.089 93.3914 102.326 92.7947 102.326C92.1981 102.326 91.6259 102.089 91.204 101.667L89.083 99.546C88.6612 99.1241 88.4242 98.5519 88.4242 97.9552C88.4242 97.3586 88.6612 96.7864 89.083 96.3645L91.696 93.75H88C87.4033 93.75 86.831 93.5129 86.409 93.091C85.9871 92.669 85.75 92.0967 85.75 91.5V88.5C85.75 87.9033 85.9871 87.331 86.409 86.909C86.831 86.4871 87.4033 86.25 88 86.25H91.696L89.083 83.6355C88.6612 83.2136 88.4242 82.6414 88.4242 82.0447C88.4242 81.4481 88.6612 80.8759 89.083 80.454L91.204 78.333C91.6259 77.9112 92.1981 77.6742 92.7947 77.6742C93.3914 77.6742 93.9636 77.9112 94.3855 78.333L97 80.946V77.25C97 76.6533 97.2371 76.081 97.659 75.659C98.081 75.2371 98.6533 75 99.25 75H102.25C102.847 75 103.419 75.2371 103.841 75.659C104.263 76.081 104.5 76.6533 104.5 77.25V84.387ZM100.75 93C99.9544 93 99.1913 92.6839 98.6287 92.1213C98.0661 91.5587 97.75 90.7956 97.75 90C97.75 89.2044 98.0661 88.4413 98.6287 87.8787C99.1913 87.3161 99.9544 87 100.75 87C101.546 87 102.309 87.3161 102.871 87.8787C103.434 88.4413 103.75 89.2044 103.75 90C103.75 90.7956 103.434 91.5587 102.871 92.1213C102.309 92.6839 101.546 93 100.75 93Z" fill="#1F1F1F"/>
</g>
<defs>
<filter id="filter0_d_57_13458" x="68" y="58.6704" width="64" height="64" filterUnits="userSpaceOnUse" color-interpolation-filters="sRGB">
<feFlood flood-opacity="0" result="BackgroundImageFix"/>
<feColorMatrix in="SourceAlpha" type="matrix" values="0 0 0 0 0 0 0 0 0 0 0 0 0 0 0 0 0 0 127 0" result="hardAlpha"/>
<feOffset dy="0.670408"/>
<feGaussianBlur stdDeviation="1"/>
<feComposite in2="hardAlpha" operator="out"/>
<feColorMatrix type="matrix" values="0 0 0 0 0 0 0 0 0 0 0 0 0 0 0 0 0 0 0.3 0"/>
<feBlend mode="normal" in2="BackgroundImageFix" result="effect1_dropShadow_57_13458"/>
<feBlend mode="normal" in="SourceGraphic" in2="effect1_dropShadow_57_13458" result="shape"/>
</filter>
<clipPath id="clip0_57_13458">
<rect width="97.7741" height="122.296" fill="white" transform="translate(-0.00195312 0.467773)"/>
</clipPath>
</defs>
</svg>
