<svg width="132" height="123" viewBox="0 0 132 123" fill="none" xmlns="http://www.w3.org/2000/svg">
<path d="M31.6581 118.567C36.7104 120.601 42.1915 121.807 47.9467 122.008C55.7355 122.28 63.1422 120.67 69.7635 117.611C61.8234 114.492 54.6322 109.929 48.4949 104.257C44.5166 110.627 38.6325 115.658 31.6581 118.567Z" fill="#FF9100"/>
<path d="M48.4923 104.259C34.4827 91.302 25.9838 72.5484 26.7021 51.979C26.7254 51.311 26.7607 50.6435 26.8019 49.9762C24.2928 49.3273 21.6734 48.9313 18.9777 48.8371C15.1191 48.7024 11.3823 49.181 7.85452 50.1744C4.11472 56.7255 1.85787 64.242 1.57672 72.2932C0.851127 93.0713 13.4253 111.227 31.6556 118.569C38.63 115.66 44.5139 110.635 48.4923 104.259Z" fill="#FFC400"/>
<path d="M48.4937 104.258C51.7509 99.0459 53.7258 92.9348 53.9557 86.3506C54.5605 69.0316 42.9175 54.133 26.8033 49.9757C26.762 50.643 26.7268 51.3105 26.7035 51.9785C25.9852 72.5479 34.484 91.3015 48.4937 104.258Z" fill="#FF9100"/>
<path d="M52.1543 1.29291C42.9766 8.64534 35.7294 18.3402 31.3447 29.5084C28.8344 35.9054 27.2569 42.7768 26.7964 49.9798C42.9106 54.1372 54.5536 69.0358 53.9488 86.3548C53.7189 92.939 51.7382 99.044 48.4868 104.263C54.6239 109.941 61.8153 114.497 69.7555 117.616C85.693 110.249 97.0006 94.3967 97.6554 75.6462C98.0796 63.4978 93.4121 52.6704 86.8167 43.5311C79.8515 33.8654 52.1543 1.29291 52.1543 1.29291Z" fill="#DD2C00"/>
<g filter="url(#filter0_d_47_3693)">
<circle cx="100" cy="90" r="30" fill="white"/>
<path d="M104.5 84.387C103.296 83.5827 101.865 83.1869 100.419 83.2581C98.9724 83.3294 97.5873 83.8638 96.468 84.7826C95.3488 85.7014 94.5546 86.9557 94.2029 88.3604C93.8512 89.7651 93.9605 91.2457 94.5147 92.5835C95.0689 93.9213 96.0387 95.0454 97.2808 95.7898C98.5228 96.5342 99.9714 96.8594 101.412 96.7175C102.854 96.5755 104.211 95.9739 105.284 95.0014C106.357 94.029 107.088 92.7372 107.371 91.317L112.417 96.3645C112.839 96.7864 113.076 97.3586 113.076 97.9552C113.076 98.5519 112.839 99.1241 112.417 99.546L110.296 101.667C109.874 102.089 109.302 102.326 108.705 102.326C108.109 102.326 107.536 102.089 107.115 101.667L104.5 99.054V102.75C104.5 103.347 104.263 103.919 103.841 104.341C103.419 104.763 102.847 105 102.25 105H99.25C98.6533 105 98.081 104.763 97.659 104.341C97.2371 103.919 97 103.347 97 102.75V99.054L94.3855 101.667C93.9636 102.089 93.3914 102.326 92.7947 102.326C92.1981 102.326 91.6259 102.089 91.204 101.667L89.083 99.546C88.6612 99.1241 88.4242 98.5519 88.4242 97.9552C88.4242 97.3586 88.6612 96.7864 89.083 96.3645L91.696 93.75H88C87.4033 93.75 86.831 93.5129 86.409 93.091C85.9871 92.669 85.75 92.0967 85.75 91.5V88.5C85.75 87.9033 85.9871 87.331 86.409 86.909C86.831 86.4871 87.4033 86.25 88 86.25H91.696L89.083 83.6355C88.6612 83.2136 88.4242 82.6414 88.4242 82.0447C88.4242 81.4481 88.6612 80.8759 89.083 80.454L91.204 78.333C91.6259 77.9112 92.1981 77.6742 92.7947 77.6742C93.3914 77.6742 93.9636 77.9112 94.3855 78.333L97 80.946V77.25C97 76.6533 97.2371 76.081 97.659 75.659C98.081 75.2371 98.6533 75 99.25 75H102.25C102.847 75 103.419 75.2371 103.841 75.659C104.263 76.081 104.5 76.6533 104.5 77.25V84.387ZM100.75 93C99.9544 93 99.1913 92.6839 98.6287 92.1213C98.0661 91.5587 97.75 90.7956 97.75 90C97.75 89.2044 98.0661 88.4413 98.6287 87.8787C99.1913 87.3161 99.9544 87 100.75 87C101.546 87 102.309 87.3161 102.871 87.8787C103.434 88.4413 103.75 89.2044 103.75 90C103.75 90.7956 103.434 91.5587 102.871 92.1213C102.309 92.6839 101.546 93 100.75 93Z" fill="#1F1F1F"/>
</g>
<defs>
<filter id="filter0_d_47_3693" x="68" y="58.6704" width="64" height="64" filterUnits="userSpaceOnUse" color-interpolation-filters="sRGB">
<feFlood flood-opacity="0" result="BackgroundImageFix"/>
<feColorMatrix in="SourceAlpha" type="matrix" values="0 0 0 0 0 0 0 0 0 0 0 0 0 0 0 0 0 0 127 0" result="hardAlpha"/>
<feOffset dy="0.670408"/>
<feGaussianBlur stdDeviation="1"/>
<feComposite in2="hardAlpha" operator="out"/>
<feColorMatrix type="matrix" values="0 0 0 0 0 0 0 0 0 0 0 0 0 0 0 0 0 0 0.3 0"/>
<feBlend mode="normal" in2="BackgroundImageFix" result="effect1_dropShadow_47_3693"/>
<feBlend mode="normal" in="SourceGraphic" in2="effect1_dropShadow_47_3693" result="shape"/>
</filter>
</defs>
</svg>
