<svg width="132" height="123" viewBox="0 0 132 123" fill="none" xmlns="http://www.w3.org/2000/svg">
<g clip-path="url(#clip0_57_13408)">
<path d="M86.8743 42.6457C84.1283 38.8354 77.814 31.0006 68.1144 19.3618C63.9039 14.3135 60.2921 10.0284 58.5142 7.9247C57.5337 6.76423 56.6928 5.77131 56.0288 4.98629L54.9707 3.73894L54.3967 3.06252L54.285 2.89807L54.2354 2.87635L51.7872 0L48.6844 2.48849C40.7628 8.83383 34.2747 17.013 29.9276 26.1292C27.2622 31.553 25.5215 36.8557 24.6093 42.3168C24.3704 43.5455 24.1656 44.8084 23.9949 46.0743C22.9306 45.9874 21.8477 45.9316 20.7742 45.9068C20.6842 45.9006 20.5942 45.8975 20.4732 45.8944C16.5419 45.7578 12.6323 46.2264 8.85608 47.2906L7.23949 47.7437L6.40793 49.202C2.51074 56.0376 0.304608 63.8196 0.0284535 71.7039C-0.328375 81.9433 2.46109 91.8539 8.09588 100.365C13.6097 108.69 21.3978 115.054 30.6195 118.768L31.8203 119.252L32.1834 119.379L32.1989 119.373C37.0021 121.117 42.0442 122.091 47.1857 122.268C47.769 122.29 48.3492 122.299 48.9295 122.299C55.4176 122.299 61.735 121.03 67.7297 118.52L67.7731 118.538L69.368 117.8C77.454 114.061 84.3734 108.184 89.3783 100.803C94.526 93.2098 97.4178 84.3263 97.7405 75.114C98.1253 64.1019 94.467 53.1799 86.8712 42.6488L86.8743 42.6457ZM50.7788 76.7647C52.4512 83.1038 52.1223 89.1947 49.8076 94.8947C44.0239 89.1854 39.7823 82.9083 37.1945 76.2186C34.4236 69.0634 32.7574 62.2557 32.2299 55.96C34.6781 56.7637 36.9276 57.8248 38.9321 59.1311C44.6972 62.8887 48.6844 68.8214 50.7788 76.7678V76.7647ZM51.8338 107.452C54.2912 109.323 56.8759 111.076 59.5412 112.69C55.6161 113.757 51.5669 114.225 47.4711 114.08C46.8382 114.058 46.2052 114.021 45.5691 113.968C47.9024 111.957 50 109.776 51.8307 107.452H51.8338ZM58.6973 74.6765C56.066 64.7039 50.9184 57.1639 43.4002 52.2676C40.1019 50.1204 36.3443 48.4914 32.2175 47.4272C32.2764 46.7414 32.3509 46.0588 32.4378 45.3886C32.5123 44.8146 32.5898 44.2871 32.6736 43.7937C33.3531 40.2844 34.3647 36.8123 35.6741 33.4767C36.1767 32.1983 36.7259 30.9293 37.3093 29.7036L37.331 29.6602C38.2308 27.8388 39.2455 25.9988 40.4401 24.0316L40.9086 23.259L40.8931 23.2497C43.667 18.915 46.9902 14.962 50.7912 11.4775L52.2588 13.212C55.6813 17.2674 58.899 21.1025 61.825 24.6119C68.4061 32.5055 76.939 42.8722 80.2311 47.4427C86.7409 56.4658 89.8779 65.6782 89.5583 74.8316C89.3101 81.9402 87.2063 88.872 83.4705 94.873C79.9332 100.56 75.0059 105.32 69.2004 108.671C65.9611 107.055 61.2571 104.396 56.2615 100.526C60.289 92.4993 61.1113 83.8082 58.7004 74.6765H58.6973ZM45.5753 102.18C41.8829 106.965 37.4892 110.077 34.9263 111.641C34.5105 111.489 34.0947 111.331 33.6851 111.163L33.3562 111.033C25.7635 107.896 19.3593 102.593 14.8353 95.6921C10.212 88.6393 7.92212 80.4416 8.21689 71.9832C8.42789 65.9202 9.93898 60.1272 12.7129 54.7623C14.3233 54.4055 15.9647 54.1821 17.6061 54.0983L18.0312 54.089C18.8597 54.0704 19.6851 54.0704 20.4701 54.089C21.6243 54.1418 22.7817 54.2628 23.9205 54.4458C24.2928 62.1533 26.1855 70.469 29.5521 79.1694C32.7946 87.544 38.1812 95.2794 45.5722 102.177L45.5753 102.18Z" fill="white"/>
</g>
<g filter="url(#filter0_d_57_13408)">
<circle cx="100" cy="90" r="30" fill="white"/>
<path fill-rule="evenodd" clip-rule="evenodd" d="M91.75 100.5C89.475 100.5 87.5312 99.7125 85.9188 98.1375C84.3063 96.5625 83.5 94.6375 83.5 92.3625C83.5 90.4125 84.0875 88.675 85.2625 87.15C86.4375 85.625 87.975 84.65 89.875 84.225C90.5 81.925 91.75 80.0625 93.625 78.6375C95.5 77.2125 97.625 76.5 100 76.5C102.925 76.5 105.406 77.5188 107.444 79.5563C109.481 81.5938 110.5 84.075 110.5 87C112.225 87.2 113.656 87.9438 114.794 89.2313C115.931 90.5188 116.5 92.025 116.5 93.75C116.5 93.8036 116.499 93.857 116.498 93.9101L113.358 92.6765C113.191 92.0805 112.876 91.5508 112.412 91.0875C111.688 90.3625 110.8 90 109.75 90H107.5V87C107.5 84.925 106.769 83.1562 105.306 81.6938C103.844 80.2312 102.075 79.5 100 79.5C97.925 79.5 96.1562 80.2312 94.6938 81.6938C93.2313 83.1562 92.5 84.925 92.5 87H91.75C90.3 87 89.0625 87.5125 88.0375 88.5375C87.0125 89.5625 86.5 90.8 86.5 92.25C86.5 93.7 87.0125 94.9375 88.0375 95.9625C89.0625 96.9875 90.3 97.5 91.75 97.5H97V100.5H91.75ZM100 99.375V105L118 97.5L100 90V95.625L107.579 97.5L100 99.375Z" fill="#1F1F1F"/>
</g>
<defs>
<filter id="filter0_d_57_13408" x="68" y="58.6704" width="64" height="64" filterUnits="userSpaceOnUse" color-interpolation-filters="sRGB">
<feFlood flood-opacity="0" result="BackgroundImageFix"/>
<feColorMatrix in="SourceAlpha" type="matrix" values="0 0 0 0 0 0 0 0 0 0 0 0 0 0 0 0 0 0 127 0" result="hardAlpha"/>
<feOffset dy="0.670408"/>
<feGaussianBlur stdDeviation="1"/>
<feComposite in2="hardAlpha" operator="out"/>
<feColorMatrix type="matrix" values="0 0 0 0 0 0 0 0 0 0 0 0 0 0 0 0 0 0 0.3 0"/>
<feBlend mode="normal" in2="BackgroundImageFix" result="effect1_dropShadow_57_13408"/>
<feBlend mode="normal" in="SourceGraphic" in2="effect1_dropShadow_57_13408" result="shape"/>
</filter>
<clipPath id="clip0_57_13408">
<rect width="97.7741" height="122.296" fill="white" transform="translate(-0.00195312)"/>
</clipPath>
</defs>
</svg>
