<svg width="132" height="123" viewBox="0 0 132 123" fill="none" xmlns="http://www.w3.org/2000/svg">
<g clip-path="url(#clip0_57_13295)">
<path d="M86.8743 43.1134C84.1283 39.3031 77.814 31.4684 68.1144 19.8296C63.9039 14.7813 60.2921 10.4962 58.5142 8.39247C57.5337 7.232 56.6928 6.23909 56.0288 5.45406L54.9707 4.20672L54.3967 3.53029L54.285 3.36584L54.2354 3.34412L51.7872 0.467773L48.6844 2.95626C40.7628 9.30161 34.2747 17.4807 29.9276 26.5969C27.2622 32.0207 25.5215 37.3235 24.6093 42.7845C24.3704 44.0133 24.1656 45.2761 23.9949 46.5421C22.9306 46.4552 21.8477 46.3994 20.7742 46.3745C20.6842 46.3683 20.5942 46.3652 20.4732 46.3621C16.5419 46.2256 12.6323 46.6941 8.85608 47.7584L7.23949 48.2114L6.40793 49.6698C2.51074 56.5054 0.304608 64.2873 0.0284535 72.1717C-0.328375 82.4111 2.46109 92.3216 8.09588 100.833C13.6097 109.158 21.3978 115.522 30.6195 119.236L31.8203 119.72L32.1834 119.847L32.1989 119.841C37.0021 121.585 42.0442 122.559 47.1857 122.736C47.769 122.758 48.3492 122.767 48.9295 122.767C55.4176 122.767 61.735 121.498 67.7297 118.988L67.7731 119.006L69.368 118.268C77.454 114.529 84.3734 108.652 89.3783 101.27C94.526 93.6776 97.4178 84.7941 97.7405 75.5817C98.1253 64.5697 94.467 53.6476 86.8712 43.1165L86.8743 43.1134ZM50.7788 77.2325C52.4512 83.5716 52.1223 89.6625 49.8076 95.3624C44.0239 89.6532 39.7823 83.3761 37.1945 76.6863C34.4236 69.5312 32.7574 62.7235 32.2299 56.4278C34.6781 57.2314 36.9276 58.2926 38.9321 59.5989C44.6972 63.3565 48.6844 69.2891 50.7788 77.2356V77.2325ZM51.8338 107.92C54.2912 109.791 56.8759 111.544 59.5412 113.157C55.6161 114.225 51.5669 114.693 47.4711 114.547C46.8382 114.526 46.2052 114.488 45.5691 114.436C47.9024 112.425 50 110.244 51.8307 107.92H51.8338ZM58.6973 75.1442C56.066 65.1716 50.9184 57.6317 43.4002 52.7354C40.1019 50.5882 36.3443 48.9592 32.2175 47.8949C32.2764 47.2092 32.3509 46.5266 32.4378 45.8564C32.5123 45.2823 32.5898 44.7548 32.6736 44.2615C33.3531 40.7522 34.3647 37.2801 35.6741 33.9445C36.1767 32.6661 36.7259 31.3971 37.3093 30.1714L37.331 30.128C38.2308 28.3066 39.2455 26.4666 40.4401 24.4994L40.9086 23.7268L40.8931 23.7175C43.667 19.3828 46.9902 15.4297 50.7912 11.9452L52.2588 13.6797C55.6813 17.7352 58.899 21.5703 61.825 25.0796C68.4061 32.9733 76.939 43.3399 80.2311 47.9105C86.7409 56.9336 89.8779 66.1459 89.5583 75.2994C89.3101 82.408 87.2063 89.3398 83.4705 95.3407C79.9332 101.028 75.0059 105.788 69.2004 109.139C65.9611 107.523 61.2571 104.863 56.2615 100.994C60.289 92.967 61.1113 84.2759 58.7004 75.1442H58.6973ZM45.5753 102.648C41.8829 107.433 37.4892 110.545 34.9263 112.109C34.5105 111.957 34.0947 111.798 33.6851 111.631L33.3562 111.5C25.7635 108.363 19.3593 103.061 14.8353 96.1599C10.212 89.1071 7.92212 80.9093 8.21689 72.451C8.42789 66.388 9.93898 60.5949 12.7129 55.2301C14.3233 54.8733 15.9647 54.6499 17.6061 54.5661L18.0312 54.5568C18.8597 54.5382 19.6851 54.5382 20.4701 54.5568C21.6243 54.6095 22.7817 54.7305 23.9205 54.9136C24.2928 62.6211 26.1855 70.9368 29.5521 79.6372C32.7946 88.0118 38.1812 95.7472 45.5722 102.645L45.5753 102.648Z" fill="white"/>
</g>
<g filter="url(#filter0_d_57_13295)">
<circle cx="100" cy="90" r="30" fill="white"/>
<path d="M112.01 97.1337V82.8687L106.958 77.8167L110.137 74.6367L116.5 80.9997V97.1547L116.49 97.1607V99.0042L110.132 105.363L106.958 102.187L112.01 97.1337ZM87.9895 97.1292L93.0415 102.183L89.863 105.363L83.5 98.9997V82.8447L83.5105 82.8387V80.9952L89.8675 74.6367L93.0415 77.8122L87.9895 82.8657V97.1307V97.1292ZM93.2515 92.2542C92.653 92.2542 92.079 92.0165 91.6557 91.5932C91.2325 91.17 90.9948 90.596 90.9948 89.9975C90.9948 89.3989 91.2325 88.8249 91.6557 88.4017C92.079 87.9785 92.653 87.7407 93.2515 87.7407C93.8498 87.7407 94.4237 87.9784 94.8467 88.4015C95.2698 88.8246 95.5075 89.3984 95.5075 89.9967C95.5075 90.595 95.2698 91.1689 94.8467 91.5919C94.4237 92.015 93.8498 92.2527 93.2515 92.2527V92.2542ZM99.9985 92.2542C99.4 92.2542 98.826 92.0165 98.4027 91.5932C97.9795 91.17 97.7418 90.596 97.7418 89.9975C97.7418 89.3989 97.9795 88.8249 98.4027 88.4017C98.826 87.9785 99.4 87.7407 99.9985 87.7407C100.597 87.7407 101.171 87.9784 101.594 88.4015C102.017 88.8246 102.255 89.3984 102.255 89.9967C102.255 90.595 102.017 91.1689 101.594 91.5919C101.171 92.015 100.597 92.2527 99.9985 92.2527V92.2542ZM106.745 92.2542C106.147 92.2542 105.573 92.0165 105.15 91.5932C104.727 91.17 104.489 90.596 104.489 89.9975C104.489 89.3989 104.727 88.8249 105.15 88.4017C105.573 87.9785 106.147 87.7407 106.745 87.7407C107.344 87.7407 107.918 87.9784 108.341 88.4015C108.764 88.8246 109.001 89.3984 109.001 89.9967C109.001 90.595 108.764 91.1689 108.341 91.5919C107.918 92.015 107.344 92.2527 106.745 92.2527V92.2542Z" fill="#1F1F1F"/>
</g>
<defs>
<filter id="filter0_d_57_13295" x="68" y="58.6704" width="64" height="64" filterUnits="userSpaceOnUse" color-interpolation-filters="sRGB">
<feFlood flood-opacity="0" result="BackgroundImageFix"/>
<feColorMatrix in="SourceAlpha" type="matrix" values="0 0 0 0 0 0 0 0 0 0 0 0 0 0 0 0 0 0 127 0" result="hardAlpha"/>
<feOffset dy="0.670408"/>
<feGaussianBlur stdDeviation="1"/>
<feComposite in2="hardAlpha" operator="out"/>
<feColorMatrix type="matrix" values="0 0 0 0 0 0 0 0 0 0 0 0 0 0 0 0 0 0 0.3 0"/>
<feBlend mode="normal" in2="BackgroundImageFix" result="effect1_dropShadow_57_13295"/>
<feBlend mode="normal" in="SourceGraphic" in2="effect1_dropShadow_57_13295" result="shape"/>
</filter>
<clipPath id="clip0_57_13295">
<rect width="97.7741" height="122.296" fill="white" transform="translate(-0.00195312 0.467773)"/>
</clipPath>
</defs>
</svg>
