<svg width="132" height="124" viewBox="0 0 132 124" fill="none" xmlns="http://www.w3.org/2000/svg">
<g clip-path="url(#clip0_57_13277)">
<path d="M86.8763 43.1134C84.1302 39.3031 77.8159 31.4684 68.1164 19.8296C63.9058 14.7813 60.2941 10.4962 58.5162 8.39247C57.5357 7.232 56.6948 6.23909 56.0308 5.45406L54.9727 4.20672L54.3987 3.53029L54.287 3.36584L54.2373 3.34412L51.7892 0.467773L48.6863 2.95626C40.7647 9.30161 34.2766 17.4807 29.9295 26.5969C27.2642 32.0207 25.5235 37.3235 24.6112 42.7845C24.3723 44.0133 24.1675 45.2761 23.9969 46.5421C22.9326 46.4552 21.8497 46.3994 20.7761 46.3745C20.6861 46.3683 20.5961 46.3652 20.4751 46.3621C16.5438 46.2256 12.6342 46.6941 8.85803 47.7584L7.24145 48.2114L6.40988 49.6698C2.51269 56.5054 0.306561 64.2873 0.0304066 72.1717C-0.326422 82.4111 2.46305 92.3216 8.09783 100.833C13.6116 109.158 21.3998 115.522 30.6215 119.236L31.8223 119.72L32.1853 119.847L32.2008 119.841C37.004 121.585 42.0462 122.559 47.1876 122.736C47.771 122.758 48.3512 122.767 48.9314 122.767C55.4195 122.767 61.7369 121.498 67.7316 118.988L67.7751 119.006L69.37 118.268C77.456 114.529 84.3754 108.652 89.3803 101.27C94.5279 93.6776 97.4198 84.7941 97.7425 75.5817C98.1272 64.5697 94.469 53.6476 86.8732 43.1165L86.8763 43.1134ZM50.7807 77.2325C52.4532 83.5716 52.1243 89.6625 49.8095 95.3624C44.0258 89.6532 39.7842 83.3761 37.1964 76.6863C34.4256 69.5312 32.7593 62.7235 32.2319 56.4278C34.68 57.2314 36.9296 58.2926 38.934 59.5989C44.6991 63.3565 48.6863 69.2891 50.7807 77.2356V77.2325ZM51.8357 107.92C54.2932 109.791 56.8778 111.544 59.5432 113.157C55.6181 114.225 51.5689 114.693 47.4731 114.547C46.8401 114.526 46.2071 114.488 45.571 114.436C47.9044 112.425 50.0019 110.244 51.8326 107.92H51.8357ZM58.6992 75.1442C56.068 65.1716 50.9204 57.6317 43.4021 52.7354C40.1038 50.5882 36.3462 48.9592 32.2194 47.8949C32.2784 47.2092 32.3529 46.5266 32.4397 45.8564C32.5142 45.2823 32.5918 44.7548 32.6756 44.2615C33.3551 40.7522 34.3666 37.2801 35.676 33.9445C36.1787 32.6661 36.7279 31.3971 37.3112 30.1714L37.333 30.128C38.2328 28.3066 39.2474 26.4666 40.442 24.4994L40.9105 23.7268L40.895 23.7175C43.669 19.3828 46.9921 15.4297 50.7931 11.9452L52.2608 13.6797C55.6832 17.7352 58.9009 21.5703 61.8269 25.0796C68.4081 32.9733 76.9409 43.3399 80.233 47.9105C86.7428 56.9336 89.8798 66.1459 89.5602 75.2994C89.312 82.408 87.2083 89.3398 83.4724 95.3407C79.9352 101.028 75.0078 105.788 69.2024 109.139C65.963 107.523 61.2591 104.863 56.2635 100.994C60.291 92.967 61.1132 84.2759 58.7023 75.1442H58.6992ZM45.5772 102.648C41.8848 107.433 37.4912 110.545 34.9282 112.109C34.5125 111.957 34.0967 111.798 33.6871 111.631L33.3582 111.5C25.7655 108.363 19.3612 103.061 14.8372 96.1599C10.214 89.1071 7.92407 80.9093 8.21885 72.451C8.42984 66.388 9.94093 60.5949 12.7149 55.2301C14.3253 54.8733 15.9667 54.6499 17.6081 54.5661L18.0332 54.5568C18.8616 54.5382 19.687 54.5382 20.472 54.5568C21.6263 54.6095 22.7837 54.7305 23.9224 54.9136C24.2947 62.6211 26.1875 70.9368 29.5541 79.6372C32.7966 88.0118 38.1831 95.7472 45.5741 102.645L45.5772 102.648Z" fill="white"/>
</g>
<g filter="url(#filter0_d_57_13277)">
<circle cx="100" cy="90.4678" r="30" fill="white"/>
<path d="M98.2285 96.8083L107.762 87.9103L105.358 85.6663L98.2285 92.3203L94.684 89.0128L92.2795 91.2568L98.2285 96.8083ZM100 106.968C96.091 106.048 92.863 103.956 90.319 100.687C87.7735 97.4188 86.5 93.7903 86.5 89.8003V80.1928L100 75.4678L113.5 80.1928V89.8003C113.5 93.7903 112.228 97.4203 109.682 100.687C107.137 103.956 103.909 106.05 100 106.968ZM100 103.66C102.925 102.793 105.344 101.061 107.256 98.4628C109.17 95.8648 110.125 92.9773 110.125 89.8003V82.3588L100 78.8128L89.875 82.3588V89.8003C89.875 92.9758 90.832 95.8648 92.743 98.4628C94.657 101.062 97.075 102.795 100 103.66Z" fill="#1F1F1F"/>
</g>
<defs>
<filter id="filter0_d_57_13277" x="68" y="59.1382" width="64" height="64" filterUnits="userSpaceOnUse" color-interpolation-filters="sRGB">
<feFlood flood-opacity="0" result="BackgroundImageFix"/>
<feColorMatrix in="SourceAlpha" type="matrix" values="0 0 0 0 0 0 0 0 0 0 0 0 0 0 0 0 0 0 127 0" result="hardAlpha"/>
<feOffset dy="0.670408"/>
<feGaussianBlur stdDeviation="1"/>
<feComposite in2="hardAlpha" operator="out"/>
<feColorMatrix type="matrix" values="0 0 0 0 0 0 0 0 0 0 0 0 0 0 0 0 0 0 0.3 0"/>
<feBlend mode="normal" in2="BackgroundImageFix" result="effect1_dropShadow_57_13277"/>
<feBlend mode="normal" in="SourceGraphic" in2="effect1_dropShadow_57_13277" result="shape"/>
</filter>
<clipPath id="clip0_57_13277">
<rect width="97.7741" height="122.296" fill="white" transform="translate(0 0.467773)"/>
</clipPath>
</defs>
</svg>
