<svg width="132" height="124" viewBox="0 0 132 124" fill="none" xmlns="http://www.w3.org/2000/svg">
<path d="M31.6562 118.567C36.7084 120.601 42.1896 121.807 47.9447 122.008C55.7335 122.28 63.1403 120.67 69.7616 117.611C61.8214 114.491 54.6303 109.929 48.4929 104.257C44.5147 110.627 38.6305 115.658 31.6562 118.567Z" fill="#FF9100"/>
<path d="M48.4943 104.259C34.4847 91.302 25.9858 72.5484 26.7041 51.979C26.7274 51.311 26.7626 50.6435 26.8039 49.9762C24.2948 49.3273 21.6753 48.9313 18.9796 48.8371C15.121 48.7024 11.3843 49.181 7.85647 50.1744C4.11667 56.7255 1.85982 64.242 1.57867 72.2932C0.85308 93.0713 13.4273 111.227 31.6575 118.569C38.6319 115.66 44.5158 110.635 48.4943 104.259Z" fill="#FFC400"/>
<path d="M48.4937 104.258C51.7509 99.0459 53.7258 92.9348 53.9557 86.3506C54.5605 69.0316 42.9175 54.133 26.8033 49.9757C26.762 50.643 26.7268 51.3105 26.7035 51.9785C25.9852 72.5479 34.484 91.3015 48.4937 104.258Z" fill="#FF9100"/>
<path d="M52.1523 1.29291C42.9747 8.64534 35.7275 18.3402 31.3428 29.5084C28.8325 35.9054 27.255 42.7768 26.7944 49.9798C42.9087 54.1372 54.5517 69.0358 53.9469 86.3548C53.7169 92.939 51.7363 99.044 48.4849 104.263C54.622 109.941 61.8134 114.497 69.7535 117.616C85.691 110.249 96.9986 94.3967 97.6534 75.6462C98.0777 63.4978 93.4101 52.6704 86.8147 43.5311C79.8495 33.8654 52.1523 1.29291 52.1523 1.29291Z" fill="#DD2C00"/>
<g filter="url(#filter0_d_47_3680)">
<circle cx="100" cy="90.4678" r="30" fill="white"/>
<path fill-rule="evenodd" clip-rule="evenodd" d="M101.737 75.6734L105.244 79.2329C106.423 80.4299 105.945 80.8769 105.184 81.6494L101.758 85.1264C100.998 85.8989 101.113 86.8409 101.754 87.4904L104.082 89.8529C104.724 90.5039 105.649 90.6209 106.41 89.8484L109.836 86.3714C110.596 85.5989 111.576 85.6604 112.221 86.3114L115.699 89.8439C116.341 90.4964 116.404 91.4924 115.642 92.2649L104.403 103.672C103.091 105.013 101.294 105.768 99.4184 105.768C97.5427 105.768 95.746 105.013 94.4339 103.672L84.2939 93.3794C83.6489 92.7269 83.5934 91.7249 84.3539 90.9539L87.7544 87.5024C88.5149 86.7299 88.6739 86.0174 88.0319 85.3649L85.4654 82.7594C84.8219 82.1084 84.8144 81.0614 85.5749 80.2889L88.8779 76.9364C89.6384 76.1639 90.6359 76.2074 91.2779 76.8584L93.8459 79.4639C94.4879 80.1164 95.1659 79.9799 95.9264 79.2089L99.3524 75.7304C100.113 74.9579 101.095 75.0209 101.737 75.6734Z" fill="#1F1F1F"/>
</g>
<defs>
<filter id="filter0_d_47_3680" x="68" y="59.1382" width="64" height="64" filterUnits="userSpaceOnUse" color-interpolation-filters="sRGB">
<feFlood flood-opacity="0" result="BackgroundImageFix"/>
<feColorMatrix in="SourceAlpha" type="matrix" values="0 0 0 0 0 0 0 0 0 0 0 0 0 0 0 0 0 0 127 0" result="hardAlpha"/>
<feOffset dy="0.670408"/>
<feGaussianBlur stdDeviation="1"/>
<feComposite in2="hardAlpha" operator="out"/>
<feColorMatrix type="matrix" values="0 0 0 0 0 0 0 0 0 0 0 0 0 0 0 0 0 0 0.3 0"/>
<feBlend mode="normal" in2="BackgroundImageFix" result="effect1_dropShadow_47_3680"/>
<feBlend mode="normal" in="SourceGraphic" in2="effect1_dropShadow_47_3680" result="shape"/>
</filter>
</defs>
</svg>
