<svg width="132" height="124" viewBox="0 0 132 124" fill="none" xmlns="http://www.w3.org/2000/svg">
<g clip-path="url(#clip0_57_13250)">
<path d="M86.8763 42.6457C84.1302 38.8354 77.8159 31.0006 68.1164 19.3618C63.9058 14.3135 60.2941 10.0284 58.5162 7.9247C57.5357 6.76423 56.6948 5.77131 56.0308 4.98629L54.9727 3.73894L54.3987 3.06252L54.287 2.89807L54.2373 2.87635L51.7892 0L48.6863 2.48849C40.7647 8.83383 34.2766 17.013 29.9295 26.1292C27.2642 31.553 25.5235 36.8557 24.6112 42.3168C24.3723 43.5455 24.1675 44.8084 23.9969 46.0743C22.9326 45.9874 21.8497 45.9316 20.7761 45.9068C20.6861 45.9006 20.5961 45.8975 20.4751 45.8944C16.5438 45.7578 12.6342 46.2264 8.85803 47.2906L7.24145 47.7437L6.40988 49.202C2.51269 56.0376 0.306561 63.8196 0.0304066 71.7039C-0.326422 81.9433 2.46305 91.8539 8.09783 100.365C13.6116 108.69 21.3998 115.054 30.6215 118.768L31.8223 119.252L32.1853 119.379L32.2008 119.373C37.004 121.117 42.0462 122.091 47.1876 122.268C47.771 122.29 48.3512 122.299 48.9314 122.299C55.4195 122.299 61.7369 121.03 67.7316 118.52L67.7751 118.538L69.37 117.8C77.456 114.061 84.3754 108.184 89.3803 100.803C94.5279 93.2098 97.4198 84.3263 97.7425 75.114C98.1272 64.1019 94.469 53.1799 86.8732 42.6488L86.8763 42.6457ZM50.7807 76.7647C52.4532 83.1038 52.1243 89.1947 49.8095 94.8947C44.0258 89.1854 39.7842 82.9083 37.1964 76.2186C34.4256 69.0634 32.7593 62.2557 32.2319 55.96C34.68 56.7637 36.9296 57.8248 38.934 59.1311C44.6991 62.8887 48.6863 68.8214 50.7807 76.7678V76.7647ZM51.8357 107.452C54.2932 109.323 56.8778 111.076 59.5432 112.69C55.6181 113.757 51.5689 114.225 47.4731 114.08C46.8401 114.058 46.2071 114.021 45.571 113.968C47.9044 111.957 50.0019 109.776 51.8326 107.452H51.8357ZM58.6992 74.6765C56.068 64.7039 50.9204 57.1639 43.4021 52.2676C40.1038 50.1204 36.3462 48.4914 32.2194 47.4272C32.2784 46.7414 32.3529 46.0588 32.4397 45.3886C32.5142 44.8146 32.5918 44.2871 32.6756 43.7937C33.3551 40.2844 34.3666 36.8123 35.676 33.4767C36.1787 32.1983 36.7279 30.9293 37.3112 29.7036L37.333 29.6602C38.2328 27.8388 39.2474 25.9988 40.442 24.0316L40.9105 23.259L40.895 23.2497C43.669 18.915 46.9921 14.962 50.7931 11.4775L52.2608 13.212C55.6832 17.2674 58.9009 21.1025 61.8269 24.6119C68.4081 32.5055 76.9409 42.8722 80.233 47.4427C86.7428 56.4658 89.8798 65.6782 89.5602 74.8316C89.312 81.9402 87.2083 88.872 83.4724 94.873C79.9352 100.56 75.0078 105.32 69.2024 108.671C65.963 107.055 61.2591 104.396 56.2635 100.526C60.291 92.4993 61.1132 83.8082 58.7023 74.6765H58.6992ZM45.5772 102.18C41.8848 106.965 37.4912 110.077 34.9282 111.641C34.5125 111.489 34.0967 111.331 33.6871 111.163L33.3582 111.033C25.7655 107.896 19.3612 102.593 14.8372 95.6921C10.214 88.6393 7.92407 80.4416 8.21885 71.9832C8.42984 65.9202 9.94093 60.1272 12.7149 54.7623C14.3253 54.4055 15.9667 54.1821 17.6081 54.0983L18.0332 54.089C18.8616 54.0704 19.687 54.0704 20.472 54.089C21.6263 54.1418 22.7837 54.2628 23.9224 54.4458C24.2947 62.1533 26.1875 70.469 29.5541 79.1694C32.7966 87.544 38.1831 95.2794 45.5741 102.177L45.5772 102.18Z" fill="white"/>
</g>
<g filter="url(#filter0_d_57_13250)">
<circle cx="100" cy="90.4678" r="30" fill="white"/>
<path d="M83.5 102.468V98.2678C83.5 97.4178 83.7188 96.6365 84.1562 95.924C84.5938 95.2115 85.175 94.6678 85.9 94.2928C87.45 93.5178 89.025 92.9365 90.625 92.549C92.225 92.1615 93.85 91.9678 95.5 91.9678C97.15 91.9678 98.775 92.1615 100.375 92.549C101.975 92.9365 103.55 93.5178 105.1 94.2928C105.825 94.6678 106.406 95.2115 106.844 95.924C107.281 96.6365 107.5 97.4178 107.5 98.2678V102.468H83.5ZM110.5 102.468V97.9678C110.5 96.8678 110.194 95.8115 109.581 94.799C108.969 93.7865 108.1 92.9178 106.975 92.1928C108.25 92.3428 109.45 92.599 110.575 92.9615C111.7 93.324 112.75 93.7678 113.725 94.2928C114.625 94.7928 115.313 95.349 115.788 95.9615C116.263 96.574 116.5 97.2428 116.5 97.9678V102.468H110.5ZM95.5 90.4678C93.85 90.4678 92.4375 89.8803 91.2625 88.7053C90.0875 87.5303 89.5 86.1178 89.5 84.4678C89.5 82.8178 90.0875 81.4053 91.2625 80.2303C92.4375 79.0553 93.85 78.4678 95.5 78.4678C97.15 78.4678 98.5625 79.0553 99.7375 80.2303C100.913 81.4053 101.5 82.8178 101.5 84.4678C101.5 86.1178 100.913 87.5303 99.7375 88.7053C98.5625 89.8803 97.15 90.4678 95.5 90.4678ZM110.5 84.4678C110.5 86.1178 109.913 87.5303 108.738 88.7053C107.562 89.8803 106.15 90.4678 104.5 90.4678C104.225 90.4678 103.875 90.4365 103.45 90.374C103.025 90.3115 102.675 90.2428 102.4 90.1678C103.075 89.3678 103.594 88.4803 103.956 87.5053C104.319 86.5303 104.5 85.5178 104.5 84.4678C104.5 83.4178 104.319 82.4053 103.956 81.4303C103.594 80.4553 103.075 79.5678 102.4 78.7678C102.75 78.6428 103.1 78.5615 103.45 78.524C103.8 78.4865 104.15 78.4678 104.5 78.4678C106.15 78.4678 107.562 79.0553 108.738 80.2303C109.913 81.4053 110.5 82.8178 110.5 84.4678Z" fill="#1F1F1F"/>
</g>
<defs>
<filter id="filter0_d_57_13250" x="68" y="59.1382" width="64" height="64" filterUnits="userSpaceOnUse" color-interpolation-filters="sRGB">
<feFlood flood-opacity="0" result="BackgroundImageFix"/>
<feColorMatrix in="SourceAlpha" type="matrix" values="0 0 0 0 0 0 0 0 0 0 0 0 0 0 0 0 0 0 127 0" result="hardAlpha"/>
<feOffset dy="0.670408"/>
<feGaussianBlur stdDeviation="1"/>
<feComposite in2="hardAlpha" operator="out"/>
<feColorMatrix type="matrix" values="0 0 0 0 0 0 0 0 0 0 0 0 0 0 0 0 0 0 0.3 0"/>
<feBlend mode="normal" in2="BackgroundImageFix" result="effect1_dropShadow_57_13250"/>
<feBlend mode="normal" in="SourceGraphic" in2="effect1_dropShadow_57_13250" result="shape"/>
</filter>
<clipPath id="clip0_57_13250">
<rect width="97.7741" height="122.296" fill="white"/>
</clipPath>
</defs>
</svg>
