<svg width="132" height="123" viewBox="0 0 132 123" fill="none" xmlns="http://www.w3.org/2000/svg">
<path d="M31.6581 118.567C36.7104 120.601 42.1915 121.807 47.9467 122.008C55.7355 122.28 63.1422 120.67 69.7635 117.611C61.8234 114.491 54.6322 109.929 48.4949 104.257C44.5166 110.627 38.6325 115.658 31.6581 118.567Z" fill="#FF9100"/>
<path d="M48.4923 104.259C34.4827 91.302 25.9838 72.5484 26.7021 51.979C26.7254 51.311 26.7607 50.6435 26.8019 49.9762C24.2928 49.3273 21.6734 48.9313 18.9777 48.8371C15.1191 48.7024 11.3823 49.181 7.85452 50.1744C4.11472 56.7255 1.85787 64.242 1.57672 72.2932C0.851127 93.0713 13.4253 111.227 31.6556 118.569C38.63 115.66 44.5139 110.635 48.4923 104.259Z" fill="#FFC400"/>
<path d="M48.4937 104.258C51.7509 99.0459 53.7258 92.9348 53.9557 86.3506C54.5605 69.0316 42.9175 54.133 26.8033 49.9757C26.762 50.643 26.7268 51.3105 26.7035 51.9785C25.9852 72.5479 34.484 91.3015 48.4937 104.258Z" fill="#FF9100"/>
<path d="M52.1543 1.29291C42.9766 8.64534 35.7294 18.3402 31.3447 29.5084C28.8344 35.9054 27.2569 42.7768 26.7964 49.9798C42.9106 54.1372 54.5536 69.0358 53.9488 86.3548C53.7189 92.939 51.7382 99.044 48.4868 104.263C54.6239 109.941 61.8153 114.497 69.7555 117.616C85.693 110.249 97.0006 94.3967 97.6554 75.6462C98.0796 63.4978 93.4121 52.6704 86.8167 43.5311C79.8515 33.8654 52.1543 1.29291 52.1543 1.29291Z" fill="#DD2C00"/>
<g filter="url(#filter0_d_47_3694)">
<circle cx="100" cy="90" r="30" fill="white"/>
<path d="M89.9316 100.067C88.911 99.0448 88.3378 97.6593 88.3378 96.2147C88.3378 94.7701 88.911 93.3846 89.9316 92.3621L94.9043 87.39L92.5418 85.0296L87.5727 90C85.9253 91.6485 85 93.8835 85 96.2138C85 98.5442 85.9253 100.779 87.5727 102.428C89.2213 104.075 91.4566 105 93.7872 105C96.1178 105 98.3531 104.075 100.002 102.428L104.973 97.4573L102.612 95.0951L97.6393 100.067C96.6168 101.088 95.2311 101.661 93.7863 101.661C92.3416 101.661 90.9559 101.088 89.9333 100.067H89.9316ZM96.2718 96.2147L106.215 86.2722L103.728 83.7853L93.7846 93.7278L96.2718 96.2147ZM100 77.5724L95.0291 82.5427L97.3897 84.9049L102.362 79.9327C103.385 78.9123 104.771 78.3392 106.215 78.3392C107.66 78.3392 109.046 78.9123 110.068 79.9327C111.089 80.9552 111.662 82.3407 111.662 83.7853C111.662 85.2299 111.089 86.6154 110.068 87.6379L105.096 92.61L107.458 94.9704L112.427 90C114.075 88.3515 115 86.1165 115 83.7862C115 81.4558 114.075 79.2208 112.427 77.5724C110.779 75.9252 108.543 75 106.213 75C103.882 75 101.647 75.9252 99.9982 77.5724H100Z" fill="#1F1F1F"/>
</g>
<defs>
<filter id="filter0_d_47_3694" x="68" y="58.6704" width="64" height="64" filterUnits="userSpaceOnUse" color-interpolation-filters="sRGB">
<feFlood flood-opacity="0" result="BackgroundImageFix"/>
<feColorMatrix in="SourceAlpha" type="matrix" values="0 0 0 0 0 0 0 0 0 0 0 0 0 0 0 0 0 0 127 0" result="hardAlpha"/>
<feOffset dy="0.670408"/>
<feGaussianBlur stdDeviation="1"/>
<feComposite in2="hardAlpha" operator="out"/>
<feColorMatrix type="matrix" values="0 0 0 0 0 0 0 0 0 0 0 0 0 0 0 0 0 0 0.3 0"/>
<feBlend mode="normal" in2="BackgroundImageFix" result="effect1_dropShadow_47_3694"/>
<feBlend mode="normal" in="SourceGraphic" in2="effect1_dropShadow_47_3694" result="shape"/>
</filter>
</defs>
</svg>
