<svg width="132" height="123" viewBox="0 0 132 123" fill="none" xmlns="http://www.w3.org/2000/svg">
<path d="M31.6581 118.567C36.7104 120.601 42.1915 121.807 47.9467 122.008C55.7355 122.28 63.1422 120.67 69.7635 117.611C61.8234 114.492 54.6322 109.929 48.4949 104.257C44.5166 110.627 38.6325 115.658 31.6581 118.567Z" fill="#FF9100"/>
<path d="M48.4923 104.259C34.4827 91.302 25.9838 72.5484 26.7021 51.979C26.7254 51.311 26.7607 50.6435 26.8019 49.9762C24.2928 49.3273 21.6734 48.9313 18.9777 48.8371C15.1191 48.7024 11.3823 49.181 7.85452 50.1744C4.11472 56.7255 1.85787 64.242 1.57672 72.2932C0.851127 93.0713 13.4253 111.227 31.6556 118.569C38.63 115.66 44.5139 110.635 48.4923 104.259Z" fill="#FFC400"/>
<path d="M48.4937 104.258C51.7509 99.0459 53.7258 92.9348 53.9557 86.3506C54.5605 69.0316 42.9175 54.133 26.8033 49.9757C26.762 50.643 26.7268 51.3105 26.7035 51.9785C25.9852 72.5479 34.484 91.3015 48.4937 104.258Z" fill="#FF9100"/>
<path d="M52.1543 1.29291C42.9766 8.64534 35.7294 18.3402 31.3447 29.5084C28.8344 35.9054 27.2569 42.7768 26.7964 49.9798C42.9106 54.1372 54.5536 69.0358 53.9488 86.3548C53.7189 92.939 51.7382 99.044 48.4868 104.263C54.6239 109.941 61.8153 114.497 69.7555 117.616C85.693 110.249 97.0006 94.3967 97.6554 75.6462C98.0796 63.4978 93.4121 52.6704 86.8167 43.5311C79.8515 33.8654 52.1543 1.29291 52.1543 1.29291Z" fill="#DD2C00"/>
<g filter="url(#filter0_d_47_3691)">
<circle cx="100" cy="90" r="30" fill="white"/>
<path fill-rule="evenodd" clip-rule="evenodd" d="M90.25 105C89.2554 105 88.3016 104.605 87.5983 103.902C86.8951 103.198 86.5 102.245 86.5 101.25C86.5 100.255 86.8951 99.3016 87.5983 98.5984C88.3016 97.8951 89.2554 97.5 90.25 97.5C91.2446 97.5 92.1984 97.8951 92.9017 98.5984C93.6049 99.3016 94 100.255 94 101.25C94 102.245 93.6049 103.198 92.9017 103.902C92.1984 104.605 91.2446 105 90.25 105ZM100 87C100.995 87 101.948 87.3951 102.652 88.0983C103.355 88.8016 103.75 89.7554 103.75 90.75V101.25C103.75 102.245 103.355 103.198 102.652 103.902C101.948 104.605 100.995 105 100 105C99.0054 105 98.0516 104.605 97.3483 103.902C96.6451 103.198 96.25 102.245 96.25 101.25V90.75C96.25 89.7554 96.6451 88.8016 97.3483 88.0983C98.0516 87.3951 99.0054 87 100 87ZM109.75 75C110.745 75 111.698 75.3951 112.402 76.0983C113.105 76.8016 113.5 77.7554 113.5 78.75V101.25C113.5 102.245 113.105 103.198 112.402 103.902C111.698 104.605 110.745 105 109.75 105C108.755 105 107.802 104.605 107.098 103.902C106.395 103.198 106 102.245 106 101.25V78.75C106 77.7554 106.395 76.8016 107.098 76.0983C107.802 75.3951 108.755 75 109.75 75Z" fill="#1F1F1F"/>
</g>
<defs>
<filter id="filter0_d_47_3691" x="68" y="58.6704" width="64" height="64" filterUnits="userSpaceOnUse" color-interpolation-filters="sRGB">
<feFlood flood-opacity="0" result="BackgroundImageFix"/>
<feColorMatrix in="SourceAlpha" type="matrix" values="0 0 0 0 0 0 0 0 0 0 0 0 0 0 0 0 0 0 127 0" result="hardAlpha"/>
<feOffset dy="0.670408"/>
<feGaussianBlur stdDeviation="1"/>
<feComposite in2="hardAlpha" operator="out"/>
<feColorMatrix type="matrix" values="0 0 0 0 0 0 0 0 0 0 0 0 0 0 0 0 0 0 0.3 0"/>
<feBlend mode="normal" in2="BackgroundImageFix" result="effect1_dropShadow_47_3691"/>
<feBlend mode="normal" in="SourceGraphic" in2="effect1_dropShadow_47_3691" result="shape"/>
</filter>
</defs>
</svg>
