<svg width="132" height="123" viewBox="0 0 132 123" fill="none" xmlns="http://www.w3.org/2000/svg">
<path d="M31.6581 118.1C36.7104 120.133 42.1915 121.34 47.9467 121.541C55.7355 121.813 63.1422 120.202 69.7635 117.143C61.8234 114.024 54.6322 109.461 48.4949 103.79C44.5166 110.159 38.6325 115.19 31.6581 118.1Z" fill="#FF9100"/>
<path d="M48.4923 103.791C34.4827 90.8342 25.9838 72.0806 26.7021 51.5112C26.7254 50.8433 26.7607 50.1757 26.8019 49.5084C24.2928 48.8595 21.6734 48.4635 18.9777 48.3694C15.1191 48.2346 11.3823 48.7132 7.85452 49.7066C4.11472 56.2577 1.85787 63.7742 1.57672 71.8254C0.851127 92.6036 13.4253 110.759 31.6556 118.101C38.63 115.192 44.5139 110.167 48.4923 103.791Z" fill="#FFC400"/>
<path d="M48.4937 103.791C51.7509 98.5782 53.7258 92.4671 53.9557 85.8829C54.5605 68.5638 42.9175 53.6653 26.8033 49.5079C26.762 50.1753 26.7268 50.8428 26.7035 51.5108C25.9852 72.0802 34.484 90.8338 48.4937 103.791Z" fill="#FF9100"/>
<path d="M52.1543 0.825138C42.9766 8.17757 35.7294 17.8724 31.3447 29.0406C28.8344 35.4376 27.2569 42.309 26.7964 49.5121C42.9106 53.6694 54.5536 68.568 53.9488 85.8871C53.7189 92.4712 51.7382 98.5762 48.4868 103.795C54.6239 109.473 61.8153 114.029 69.7555 117.149C85.693 109.781 97.0006 93.9289 97.6554 75.1785C98.0796 63.0301 93.4121 52.2026 86.8167 43.0633C79.8515 33.3976 52.1543 0.825138 52.1543 0.825138Z" fill="#DD2C00"/>
<g filter="url(#filter0_d_47_3695)">
<circle cx="100" cy="90" r="30" fill="white"/>
<path fill-rule="evenodd" clip-rule="evenodd" d="M91.75 100.5C89.475 100.5 87.5312 99.7126 85.9188 98.1376C84.3063 96.5626 83.5 94.6376 83.5 92.3626C83.5 90.4126 84.0875 88.6751 85.2625 87.1501C86.4375 85.6251 87.975 84.6501 89.875 84.2251C90.5 81.9251 91.75 80.0626 93.625 78.6376C95.5 77.2126 97.625 76.5001 100 76.5001C102.925 76.5001 105.406 77.5188 107.444 79.5563C109.481 81.5938 110.5 84.0751 110.5 87.0001C112.225 87.2001 113.656 87.9438 114.794 89.2313C115.931 90.5188 116.5 92.0251 116.5 93.7501C116.5 93.8037 116.499 93.857 116.498 93.9101L113.358 92.6765C113.191 92.0805 112.876 91.5509 112.412 91.0876C111.688 90.3626 110.8 90.0001 109.75 90.0001H107.5V87.0001C107.5 84.9251 106.769 83.1563 105.306 81.6938C103.844 80.2313 102.075 79.5001 100 79.5001C97.925 79.5001 96.1562 80.2313 94.6938 81.6938C93.2313 83.1563 92.5 84.9251 92.5 87.0001H91.75C90.3 87.0001 89.0625 87.5126 88.0375 88.5376C87.0125 89.5626 86.5 90.8001 86.5 92.2501C86.5 93.7001 87.0125 94.9376 88.0375 95.9626C89.0625 96.9876 90.3 97.5001 91.75 97.5001H97V100.5H91.75ZM100 99.3751V105L118 97.5001L100 90.0001V95.6251L107.579 97.5001L100 99.3751Z" fill="#1F1F1F"/>
</g>
<defs>
<filter id="filter0_d_47_3695" x="68" y="58.6704" width="64" height="64" filterUnits="userSpaceOnUse" color-interpolation-filters="sRGB">
<feFlood flood-opacity="0" result="BackgroundImageFix"/>
<feColorMatrix in="SourceAlpha" type="matrix" values="0 0 0 0 0 0 0 0 0 0 0 0 0 0 0 0 0 0 127 0" result="hardAlpha"/>
<feOffset dy="0.670408"/>
<feGaussianBlur stdDeviation="1"/>
<feComposite in2="hardAlpha" operator="out"/>
<feColorMatrix type="matrix" values="0 0 0 0 0 0 0 0 0 0 0 0 0 0 0 0 0 0 0.3 0"/>
<feBlend mode="normal" in2="BackgroundImageFix" result="effect1_dropShadow_47_3695"/>
<feBlend mode="normal" in="SourceGraphic" in2="effect1_dropShadow_47_3695" result="shape"/>
</filter>
</defs>
</svg>
