<svg width="403" height="386" viewBox="0 0 403 386" fill="none" xmlns="http://www.w3.org/2000/svg">
<path d="M289.285 254.393C286.521 254.393 284.022 253.749 281.788 252.462C279.592 251.175 277.87 249.395 276.62 247.124C275.371 244.814 274.746 242.24 274.746 239.4C274.746 236.674 275.333 234.175 276.507 231.904C277.718 229.594 279.403 227.777 281.561 226.452C283.719 225.089 286.18 224.407 288.944 224.407C291.783 224.407 294.244 225.032 296.327 226.281C298.447 227.531 300.056 229.272 301.154 231.506C302.252 233.702 302.801 236.239 302.801 239.116C302.801 239.457 302.782 239.798 302.744 240.138C302.706 240.479 302.687 240.668 302.687 240.706H280.993C281.182 243.281 282.11 245.268 283.776 246.669C285.442 248.07 287.335 248.77 289.455 248.77C292.711 248.77 295.21 247.256 296.951 244.227L302.29 246.783C301.04 249.092 299.299 250.947 297.065 252.348C294.869 253.711 292.275 254.393 289.285 254.393ZM296.44 235.936C296.364 235.027 296.062 234.1 295.531 233.153C295.001 232.206 294.169 231.411 293.033 230.768C291.935 230.086 290.553 229.746 288.887 229.746C287.032 229.746 285.423 230.313 284.06 231.449C282.735 232.585 281.826 234.081 281.334 235.936H296.44Z" fill="white"/>
<path d="M261.035 254.393C257.817 254.393 255.148 253.654 253.027 252.178C250.945 250.663 249.468 248.77 248.598 246.499L254.163 244.114C254.807 245.666 255.734 246.84 256.946 247.635C258.195 248.43 259.558 248.827 261.035 248.827C262.587 248.827 263.855 248.543 264.84 247.975C265.824 247.37 266.316 246.593 266.316 245.647C266.316 244.738 265.919 244 265.124 243.432C264.329 242.826 263.022 242.296 261.205 241.842L257.343 240.933C255.223 240.441 253.387 239.532 251.835 238.207C250.32 236.844 249.563 235.084 249.563 232.926C249.563 230.313 250.642 228.25 252.8 226.736C254.958 225.183 257.608 224.407 260.751 224.407C263.363 224.407 265.673 224.956 267.679 226.054C269.724 227.152 271.2 228.742 272.109 230.825L266.6 233.153C266.07 231.979 265.256 231.109 264.158 230.541C263.06 229.973 261.868 229.689 260.581 229.689C259.331 229.689 258.233 229.973 257.287 230.541C256.34 231.071 255.867 231.79 255.867 232.699C255.867 233.494 256.189 234.137 256.832 234.63C257.514 235.122 258.574 235.538 260.013 235.879L264.215 236.901C267.055 237.621 269.175 238.718 270.576 240.195C271.977 241.634 272.677 243.375 272.677 245.42C272.677 247.086 272.166 248.6 271.144 249.963C270.159 251.326 268.777 252.405 266.998 253.2C265.256 253.995 263.269 254.393 261.035 254.393Z" fill="white"/>
<path d="M231.149 254.393C229.143 254.393 227.325 253.995 225.697 253.2C224.107 252.367 222.839 251.231 221.892 249.793C220.984 248.316 220.529 246.65 220.529 244.795C220.529 241.842 221.627 239.514 223.823 237.81C226.057 236.106 228.878 235.254 232.285 235.254C235.276 235.254 237.832 235.765 239.952 236.788V235.595C239.952 233.891 239.27 232.49 237.907 231.392C236.582 230.257 234.973 229.689 233.08 229.689C230.203 229.689 227.893 230.862 226.152 233.21L221.381 229.916C222.706 228.136 224.353 226.774 226.322 225.827C228.329 224.88 230.581 224.407 233.08 224.407C237.207 224.407 240.387 225.448 242.621 227.531C244.893 229.575 246.028 232.472 246.028 236.22V253.484H239.952V250.02H239.611C238.702 251.307 237.548 252.367 236.147 253.2C234.746 253.995 233.08 254.393 231.149 254.393ZM232.171 249.225C233.572 249.225 234.859 248.884 236.033 248.203C237.245 247.483 238.191 246.556 238.873 245.42C239.592 244.246 239.952 242.997 239.952 241.672C237.945 240.574 235.806 240.025 233.534 240.025C231.452 240.025 229.824 240.479 228.65 241.388C227.477 242.296 226.89 243.451 226.89 244.852C226.89 246.139 227.401 247.199 228.423 248.032C229.483 248.827 230.733 249.225 232.171 249.225Z" fill="white"/>
<path d="M204.939 254.393C202.894 254.393 201.058 253.958 199.43 253.087C197.84 252.216 196.648 251.118 195.852 249.793H195.512V253.484H189.605V212.822H195.852V225.032L195.512 228.951H195.852C196.648 227.664 197.84 226.585 199.43 225.714C201.058 224.843 202.894 224.408 204.939 224.408C207.362 224.408 209.596 225.051 211.64 226.338C213.723 227.626 215.37 229.424 216.581 231.734C217.83 234.005 218.455 236.561 218.455 239.4C218.455 242.24 217.83 244.795 216.581 247.067C215.37 249.339 213.723 251.137 211.64 252.462C209.596 253.749 207.362 254.393 204.939 254.393ZM203.86 248.657C205.336 248.657 206.699 248.279 207.949 247.521C209.236 246.764 210.258 245.685 211.016 244.284C211.811 242.846 212.208 241.218 212.208 239.4C212.208 237.583 211.811 235.974 211.016 234.573C210.258 233.134 209.236 232.036 207.949 231.279C206.699 230.522 205.336 230.143 203.86 230.143C202.383 230.143 201.001 230.522 199.714 231.279C198.465 232.036 197.443 233.115 196.648 234.516C195.89 235.917 195.512 237.545 195.512 239.4C195.512 241.255 195.89 242.883 196.648 244.284C197.443 245.685 198.465 246.764 199.714 247.521C201.001 248.279 202.383 248.657 203.86 248.657Z" fill="white"/>
<path d="M172.369 254.393C169.605 254.393 167.106 253.749 164.872 252.462C162.676 251.175 160.954 249.395 159.704 247.124C158.455 244.814 157.83 242.24 157.83 239.4C157.83 236.674 158.417 234.175 159.591 231.904C160.802 229.594 162.487 227.777 164.645 226.452C166.803 225.089 169.264 224.407 172.028 224.407C174.867 224.407 177.328 225.032 179.411 226.281C181.531 227.531 183.14 229.272 184.238 231.506C185.336 233.702 185.885 236.239 185.885 239.116C185.885 239.457 185.866 239.798 185.828 240.138C185.79 240.479 185.771 240.668 185.771 240.706H164.077C164.266 243.281 165.194 245.268 166.86 246.669C168.526 248.07 170.419 248.77 172.539 248.77C175.795 248.77 178.294 247.256 180.035 244.227L185.374 246.783C184.124 249.092 182.383 250.947 180.149 252.348C177.953 253.711 175.359 254.393 172.369 254.393ZM179.524 235.936C179.448 235.027 179.146 234.1 178.615 233.153C178.085 232.206 177.253 231.411 176.117 230.768C175.019 230.086 173.637 229.746 171.971 229.746C170.116 229.746 168.507 230.313 167.144 231.449C165.819 232.585 164.91 234.081 164.418 235.936H179.524Z" fill="white"/>
<path d="M140.494 225.317H146.4V229.519H146.741C147.347 228.081 148.445 226.888 150.035 225.941C151.625 224.957 153.253 224.465 154.919 224.465C156.282 224.465 157.399 224.654 158.27 225.033V231.564C156.982 230.92 155.544 230.598 153.954 230.598C151.909 230.598 150.186 231.393 148.786 232.983C147.423 234.536 146.741 236.448 146.741 238.719V253.485H140.494V225.317Z" fill="white"/>
<path d="M131.578 220.546C130.404 220.546 129.401 220.148 128.568 219.353C127.773 218.52 127.375 217.517 127.375 216.343C127.375 215.169 127.773 214.185 128.568 213.39C129.401 212.557 130.404 212.141 131.578 212.141C132.751 212.141 133.736 212.557 134.531 213.39C135.364 214.185 135.78 215.169 135.78 216.343C135.78 217.517 135.364 218.52 134.531 219.353C133.736 220.148 132.751 220.546 131.578 220.546ZM128.454 225.316H134.701V253.484H128.454V225.316Z" fill="white"/>
<path d="M100 212.822H124.704V218.899H106.361V230.598H122.887V236.618H106.361V253.484H100V212.822Z" fill="white"/>
<path d="M25.9197 310.911C21.971 310.911 18.383 309.981 15.1557 308.121C11.9284 306.26 9.38454 303.716 7.52409 300.489C5.70161 297.224 4.79037 293.598 4.79037 289.611C4.79037 285.624 5.70161 282.017 7.52409 278.79C9.38454 275.525 11.9284 272.962 15.1557 271.101C18.383 269.241 21.971 268.311 25.9197 268.311C28.9572 268.311 31.7289 268.899 34.2348 270.076C36.7787 271.215 38.9808 272.848 40.8413 274.974L37.3672 278.334C35.8105 276.474 34.1019 275.107 32.2415 274.234C30.419 273.361 28.3117 272.924 25.9197 272.924C22.9582 272.924 20.2435 273.626 17.7755 275.031C15.3076 276.398 13.3332 278.353 11.8525 280.897C10.4097 283.403 9.68828 286.308 9.68828 289.611C9.68828 292.914 10.4097 295.838 11.8525 298.382C13.3332 300.888 15.3076 302.843 17.7755 304.248C20.2435 305.615 22.9582 306.298 25.9197 306.298C30.8556 306.298 35.0511 304.267 38.5062 300.204L42.0373 303.621C40.1389 305.861 37.8038 307.646 35.0321 308.975C32.2604 310.266 29.223 310.911 25.9197 310.911ZM46.3341 269.222H51.175V310H46.3341V269.222ZM70.3142 310.911C67.4666 310.911 64.9037 310.228 62.6256 308.861C60.3475 307.494 58.563 305.634 57.2721 303.28C56.0191 300.926 55.3926 298.325 55.3926 295.477C55.3926 292.629 56.0191 290.029 57.2721 287.675C58.563 285.321 60.3475 283.46 62.6256 282.093C64.9037 280.726 67.4666 280.043 70.3142 280.043C73.1618 280.043 75.7247 280.726 78.0028 282.093C80.2809 283.46 82.0464 285.321 83.2994 287.675C84.5903 290.029 85.2357 292.629 85.2357 295.477C85.2357 298.325 84.5903 300.926 83.2994 303.28C82.0464 305.634 80.2809 307.494 78.0028 308.861C75.7247 310.228 73.1618 310.911 70.3142 310.911ZM70.3142 306.526C72.0987 306.526 73.7503 306.089 75.2691 305.216C76.8258 304.305 78.0597 303.014 78.971 301.343C79.9202 299.673 80.3948 297.717 80.3948 295.477C80.3948 293.237 79.9202 291.282 78.971 289.611C78.0597 287.94 76.8258 286.668 75.2691 285.795C73.7503 284.884 72.0987 284.428 70.3142 284.428C68.5297 284.428 66.8591 284.884 65.3024 285.795C63.7457 286.668 62.4927 287.94 61.5435 289.611C60.6323 291.282 60.1767 293.237 60.1767 295.477C60.1767 297.717 60.6323 299.673 61.5435 301.343C62.4927 303.014 63.7457 304.305 65.3024 305.216C66.8591 306.089 68.5297 306.526 70.3142 306.526ZM99.9762 310.911C96.4831 310.911 93.8064 309.886 91.9459 307.836C90.1234 305.786 89.2122 302.919 89.2122 299.236V280.954H94.0531V298.496C94.0531 301.267 94.6796 303.299 95.9326 304.59C97.1855 305.88 98.8751 306.526 101.001 306.526C102.634 306.526 104.077 306.089 105.33 305.216C106.621 304.343 107.608 303.204 108.291 301.799C109.013 300.394 109.373 298.913 109.373 297.357V280.954H114.214V310H109.601V305.786H109.373C108.576 307.228 107.304 308.443 105.558 309.43C103.811 310.418 101.951 310.911 99.9762 310.911ZM132.249 310.911C129.667 310.911 127.313 310.247 125.187 308.918C123.099 307.589 121.447 305.767 120.232 303.45C119.017 301.096 118.41 298.439 118.41 295.477C118.41 292.554 119.017 289.915 120.232 287.561C121.447 285.207 123.099 283.365 125.187 282.036C127.313 280.707 129.667 280.043 132.249 280.043C134.489 280.043 136.483 280.556 138.229 281.581C139.976 282.568 141.305 283.802 142.216 285.283H142.444L142.216 281.239V269.222H147.057V310H142.444V305.729H142.216C141.305 307.171 139.976 308.405 138.229 309.43C136.483 310.418 134.489 310.911 132.249 310.911ZM132.819 306.526C134.527 306.526 136.103 306.07 137.546 305.159C139.026 304.248 140.203 302.957 141.077 301.286C141.988 299.616 142.444 297.679 142.444 295.477C142.444 293.275 141.988 291.339 141.077 289.668C140.203 287.997 139.026 286.706 137.546 285.795C136.103 284.884 134.527 284.428 132.819 284.428C131.148 284.428 129.572 284.884 128.092 285.795C126.611 286.706 125.415 288.016 124.504 289.725C123.63 291.396 123.194 293.313 123.194 295.477C123.194 297.641 123.63 299.578 124.504 301.286C125.415 302.957 126.611 304.248 128.092 305.159C129.572 306.07 131.148 306.526 132.819 306.526ZM166.135 269.222H189.713V273.835H170.919V287.789H187.891V292.345H170.919V310H166.135V269.222ZM203.708 310.911C200.214 310.911 197.538 309.886 195.677 307.836C193.855 305.786 192.944 302.919 192.944 299.236V280.954H197.785V298.496C197.785 301.267 198.411 303.299 199.664 304.59C200.917 305.88 202.606 306.526 204.733 306.526C206.365 306.526 207.808 306.089 209.061 305.216C210.352 304.343 211.339 303.204 212.023 301.799C212.744 300.394 213.105 298.913 213.105 297.357V280.954H217.946V310H213.333V305.786H213.105C212.307 307.228 211.035 308.443 209.289 309.43C207.542 310.418 205.682 310.911 203.708 310.911ZM223.957 280.954H228.57V285.226H228.798C229.595 283.783 230.867 282.568 232.614 281.581C234.36 280.556 236.221 280.043 238.195 280.043C241.688 280.043 244.346 281.068 246.168 283.118C248.029 285.131 248.959 287.883 248.959 291.377V310H244.118V292.117C244.118 289.421 243.473 287.466 242.182 286.251C240.891 285.036 239.125 284.428 236.885 284.428C235.328 284.428 233.924 284.865 232.671 285.738C231.456 286.612 230.506 287.77 229.823 289.212C229.14 290.617 228.798 292.098 228.798 293.655V310H223.957V280.954ZM267.898 310.911C265.089 310.911 262.564 310.247 260.324 308.918C258.084 307.551 256.337 305.71 255.084 303.394C253.831 301.039 253.205 298.401 253.205 295.477C253.205 292.554 253.831 289.915 255.084 287.561C256.337 285.207 258.084 283.365 260.324 282.036C262.564 280.707 265.089 280.043 267.898 280.043C271.05 280.043 273.689 280.783 275.815 282.264C277.979 283.707 279.517 285.643 280.428 288.073L276.043 289.896C275.321 288.111 274.239 286.763 272.796 285.852C271.391 284.903 269.683 284.428 267.671 284.428C265.962 284.428 264.367 284.903 262.887 285.852C261.406 286.763 260.21 288.054 259.299 289.725C258.425 291.396 257.989 293.313 257.989 295.477C257.989 297.641 258.425 299.559 259.299 301.229C260.21 302.9 261.406 304.21 262.887 305.159C264.367 306.07 265.962 306.526 267.671 306.526C269.721 306.526 271.486 306.051 272.967 305.102C274.448 304.153 275.549 302.805 276.27 301.058L280.599 302.881C279.612 305.273 278.017 307.209 275.815 308.69C273.651 310.171 271.012 310.911 267.898 310.911ZM295.578 310.456C294.401 310.456 293.3 310.266 292.275 309.886C291.288 309.506 290.452 308.994 289.769 308.348C289.01 307.627 288.44 306.792 288.06 305.842C287.681 304.893 287.491 303.735 287.491 302.368V285.34H282.422V280.954H287.491V272.753H292.332V280.954H299.394V285.34H292.332V301.172C292.332 302.767 292.636 303.944 293.243 304.703C293.964 305.539 295.009 305.956 296.375 305.956C297.477 305.956 298.54 305.634 299.565 304.988V309.715C298.995 309.981 298.407 310.171 297.799 310.285C297.23 310.399 296.489 310.456 295.578 310.456ZM307.259 275.601C306.31 275.601 305.493 275.259 304.81 274.576C304.126 273.892 303.785 273.076 303.785 272.127C303.785 271.177 304.126 270.38 304.81 269.735C305.493 269.051 306.31 268.709 307.259 268.709C308.208 268.709 309.024 269.051 309.708 269.735C310.391 270.38 310.733 271.177 310.733 272.127C310.733 273.076 310.391 273.892 309.708 274.576C309.062 275.259 308.246 275.601 307.259 275.601ZM304.867 280.954H309.651V310H304.867V280.954ZM329.226 310.911C326.378 310.911 323.815 310.228 321.537 308.861C319.259 307.494 317.474 305.634 316.183 303.28C314.93 300.926 314.304 298.325 314.304 295.477C314.304 292.629 314.93 290.029 316.183 287.675C317.474 285.321 319.259 283.46 321.537 282.093C323.815 280.726 326.378 280.043 329.226 280.043C332.073 280.043 334.636 280.726 336.914 282.093C339.192 283.46 340.958 285.321 342.211 287.675C343.502 290.029 344.147 292.629 344.147 295.477C344.147 298.325 343.502 300.926 342.211 303.28C340.958 305.634 339.192 307.494 336.914 308.861C334.636 310.228 332.073 310.911 329.226 310.911ZM329.226 306.526C331.01 306.526 332.662 306.089 334.18 305.216C335.737 304.305 336.971 303.014 337.882 301.343C338.831 299.673 339.306 297.717 339.306 295.477C339.306 293.237 338.831 291.282 337.882 289.611C336.971 287.94 335.737 286.668 334.18 285.795C332.662 284.884 331.01 284.428 329.226 284.428C327.441 284.428 325.77 284.884 324.214 285.795C322.657 286.668 321.404 287.94 320.455 289.611C319.544 291.282 319.088 293.237 319.088 295.477C319.088 297.717 319.544 299.673 320.455 301.343C321.404 303.014 322.657 304.305 324.214 305.216C325.77 306.089 327.441 306.526 329.226 306.526ZM348.073 280.954H352.686V285.226H352.914C353.712 283.783 354.983 282.568 356.73 281.581C358.477 280.556 360.337 280.043 362.311 280.043C365.804 280.043 368.462 281.068 370.285 283.118C372.145 285.131 373.075 287.883 373.075 291.377V310H368.234V292.117C368.234 289.421 367.589 287.466 366.298 286.251C365.007 285.036 363.242 284.428 361.001 284.428C359.445 284.428 358.04 284.865 356.787 285.738C355.572 286.612 354.623 287.77 353.939 289.212C353.256 290.617 352.914 292.098 352.914 293.655V310H348.073V280.954ZM388.718 310.911C385.605 310.911 383.004 310.19 380.916 308.747C378.827 307.266 377.347 305.387 376.473 303.109L380.802 301.172C381.523 302.919 382.586 304.267 383.991 305.216C385.434 306.165 387.01 306.64 388.718 306.64C390.541 306.64 392.097 306.279 393.388 305.558C394.679 304.798 395.325 303.735 395.325 302.368C395.325 301.153 394.812 300.185 393.787 299.464C392.762 298.704 391.148 298.059 388.946 297.527L385.415 296.616C383.099 296.047 381.2 295.078 379.72 293.712C378.239 292.345 377.498 290.579 377.498 288.415C377.498 286.744 377.992 285.283 378.979 284.03C380.004 282.739 381.352 281.752 383.023 281.068C384.693 280.385 386.497 280.043 388.433 280.043C390.977 280.043 393.236 280.594 395.211 281.695C397.223 282.796 398.647 284.333 399.482 286.308L395.268 288.244C393.977 285.662 391.68 284.371 388.376 284.371C386.782 284.371 385.377 284.751 384.162 285.51C382.985 286.232 382.396 287.162 382.396 288.301C382.396 289.364 382.814 290.237 383.649 290.921C384.485 291.566 385.738 292.098 387.408 292.516L391.623 293.598C394.47 294.319 396.616 295.401 398.058 296.844C399.501 298.249 400.223 299.976 400.223 302.027C400.223 303.811 399.71 305.387 398.685 306.754C397.66 308.083 396.274 309.108 394.527 309.829C392.781 310.551 390.844 310.911 388.718 310.911ZM61.9313 348.34H56.5777V343.954H61.9313V340.822C61.9313 338.999 62.3489 337.405 63.1842 336.038C64.0195 334.671 65.1396 333.627 66.5444 332.905C67.9493 332.146 69.506 331.766 71.2145 331.766C72.8472 331.766 74.271 331.994 75.486 332.45V337.177C74.8025 336.911 74.1571 336.702 73.5496 336.55C72.9421 336.361 72.2207 336.266 71.3854 336.266C70.1324 336.266 69.0503 336.721 68.1391 337.633C67.2279 338.506 66.7722 339.74 66.7722 341.334V343.954H74.233V348.34H66.7722V373H61.9313V348.34ZM90.6158 373.911C87.7681 373.911 85.2053 373.228 82.9272 371.861C80.6491 370.494 78.8646 368.634 77.5736 366.28C76.3207 363.926 75.6942 361.325 75.6942 358.477C75.6942 355.629 76.3207 353.029 77.5736 350.675C78.8646 348.321 80.6491 346.46 82.9272 345.093C85.2053 343.726 87.7681 343.043 90.6158 343.043C93.4634 343.043 96.0262 343.726 98.3043 345.093C100.582 346.46 102.348 348.321 103.601 350.675C104.892 353.029 105.537 355.629 105.537 358.477C105.537 361.325 104.892 363.926 103.601 366.28C102.348 368.634 100.582 370.494 98.3043 371.861C96.0262 373.228 93.4634 373.911 90.6158 373.911ZM90.6158 369.526C92.4003 369.526 94.0519 369.089 95.5706 368.216C97.1273 367.305 98.3613 366.014 99.2725 364.343C100.222 362.673 100.696 360.717 100.696 358.477C100.696 356.237 100.222 354.282 99.2725 352.611C98.3613 350.94 97.1273 349.668 95.5706 348.795C94.0519 347.884 92.4003 347.428 90.6158 347.428C88.8312 347.428 87.1606 347.884 85.6039 348.795C84.0472 349.668 82.7943 350.94 81.8451 352.611C80.9338 354.282 80.4782 356.237 80.4782 358.477C80.4782 360.717 80.9338 362.673 81.8451 364.343C82.7943 366.014 84.0472 367.305 85.6039 368.216C87.1606 369.089 88.8312 369.526 90.6158 369.526ZM109.463 343.954H114.077V348.624H114.304C114.874 347.03 115.975 345.72 117.608 344.695C119.24 343.632 120.949 343.1 122.733 343.1C124.062 343.1 125.201 343.29 126.151 343.669V348.909C124.936 348.302 123.569 347.998 122.05 347.998C120.645 347.998 119.354 348.397 118.177 349.194C117 349.991 116.051 351.073 115.33 352.44C114.646 353.769 114.304 355.212 114.304 356.769V373H109.463V343.954ZM142.748 332.222H166.326V336.835H147.532V350.789H164.504V355.345H147.532V373H142.748V332.222ZM173.188 338.601C172.239 338.601 171.422 338.259 170.739 337.576C170.056 336.892 169.714 336.076 169.714 335.127C169.714 334.177 170.056 333.38 170.739 332.735C171.422 332.051 172.239 331.709 173.188 331.709C174.137 331.709 174.953 332.051 175.637 332.735C176.32 333.38 176.662 334.177 176.662 335.127C176.662 336.076 176.32 336.892 175.637 337.576C174.991 338.259 174.175 338.601 173.188 338.601ZM170.796 343.954H175.58V373H170.796V343.954ZM182.049 343.954H186.662V348.624H186.89C187.459 347.03 188.561 345.72 190.193 344.695C191.826 343.632 193.534 343.1 195.319 343.1C196.648 343.1 197.787 343.29 198.736 343.669V348.909C197.521 348.302 196.154 347.998 194.635 347.998C193.231 347.998 191.94 348.397 190.763 349.194C189.586 349.991 188.636 351.073 187.915 352.44C187.232 353.769 186.89 355.212 186.89 356.769V373H182.049V343.954ZM213.471 373.911C210.699 373.911 208.213 373.247 206.01 371.918C203.808 370.589 202.081 368.767 200.828 366.45C199.613 364.096 199.005 361.458 199.005 358.534C199.005 355.724 199.575 353.143 200.714 350.789C201.891 348.434 203.542 346.555 205.669 345.15C207.795 343.745 210.263 343.043 213.072 343.043C215.92 343.043 218.388 343.688 220.476 344.979C222.565 346.232 224.159 347.979 225.26 350.219C226.399 352.459 226.969 355.022 226.969 357.908C226.969 358.477 226.912 358.971 226.798 359.388H203.846C203.96 361.591 204.492 363.451 205.441 364.97C206.39 366.488 207.586 367.627 209.029 368.387C210.51 369.146 212.047 369.526 213.642 369.526C217.363 369.526 220.23 367.779 222.242 364.286L226.342 366.28C225.089 368.634 223.381 370.494 221.217 371.861C219.09 373.228 216.509 373.911 213.471 373.911ZM221.843 355.402C221.767 354.187 221.426 352.972 220.818 351.757C220.211 350.542 219.242 349.517 217.913 348.681C216.623 347.846 214.99 347.428 213.016 347.428C210.737 347.428 208.801 348.169 207.206 349.649C205.65 351.092 204.625 353.01 204.131 355.402H221.843ZM246.246 373.911C244.044 373.911 242.05 373.418 240.266 372.43C238.519 371.405 237.209 370.171 236.336 368.729H236.108V373H231.495V332.222H236.336V344.239L236.108 348.283H236.336C237.209 346.802 238.519 345.568 240.266 344.581C242.05 343.556 244.044 343.043 246.246 343.043C248.828 343.043 251.182 343.707 253.308 345.036C255.434 346.365 257.105 348.207 258.32 350.561C259.535 352.915 260.142 355.554 260.142 358.477C260.142 361.439 259.535 364.096 258.32 366.45C257.105 368.767 255.434 370.589 253.308 371.918C251.182 373.247 248.828 373.911 246.246 373.911ZM245.676 369.526C247.347 369.526 248.923 369.07 250.403 368.159C251.884 367.248 253.061 365.957 253.935 364.286C254.846 362.578 255.301 360.641 255.301 358.477C255.301 356.313 254.846 354.396 253.935 352.725C253.061 351.016 251.884 349.706 250.403 348.795C248.923 347.884 247.347 347.428 245.676 347.428C244.006 347.428 242.43 347.884 240.949 348.795C239.469 349.706 238.292 350.997 237.418 352.668C236.545 354.339 236.108 356.275 236.108 358.477C236.108 360.679 236.545 362.616 237.418 364.286C238.292 365.957 239.469 367.248 240.949 368.159C242.43 369.07 244.006 369.526 245.676 369.526ZM273.9 373.911C271.774 373.911 269.875 373.494 268.205 372.658C266.534 371.823 265.243 370.684 264.332 369.241C263.421 367.76 262.965 366.09 262.965 364.229C262.965 361.154 264.123 358.762 266.439 357.053C268.755 355.307 271.679 354.433 275.21 354.433C276.956 354.433 278.57 354.623 280.051 355.003C281.57 355.383 282.728 355.819 283.525 356.313V354.547C283.525 352.383 282.766 350.656 281.247 349.365C279.728 348.036 277.811 347.371 275.495 347.371C273.862 347.371 272.362 347.732 270.995 348.453C269.629 349.137 268.546 350.105 267.749 351.358L264.104 348.624C265.243 346.878 266.8 345.511 268.774 344.524C270.787 343.537 273.008 343.043 275.438 343.043C279.386 343.043 282.481 344.087 284.721 346.175C286.999 348.226 288.138 351.035 288.138 354.604V373H283.525V368.842H283.297C282.462 370.247 281.209 371.443 279.538 372.43C277.868 373.418 275.988 373.911 273.9 373.911ZM274.356 369.64C275.988 369.64 277.507 369.222 278.912 368.387C280.317 367.552 281.437 366.431 282.272 365.027C283.107 363.622 283.525 362.084 283.525 360.414C282.614 359.806 281.494 359.312 280.165 358.933C278.836 358.553 277.431 358.363 275.95 358.363C273.292 358.363 271.28 358.914 269.913 360.015C268.584 361.116 267.92 362.54 267.92 364.286C267.92 365.881 268.527 367.172 269.742 368.159C270.957 369.146 272.495 369.64 274.356 369.64ZM303.593 373.911C300.48 373.911 297.879 373.19 295.791 371.747C293.702 370.266 292.222 368.387 291.348 366.109L295.677 364.172C296.398 365.919 297.461 367.267 298.866 368.216C300.309 369.165 301.885 369.64 303.593 369.64C305.416 369.64 306.972 369.279 308.263 368.558C309.554 367.798 310.2 366.735 310.2 365.368C310.2 364.153 309.687 363.185 308.662 362.464C307.637 361.704 306.023 361.059 303.821 360.527L300.29 359.616C297.974 359.047 296.075 358.078 294.595 356.712C293.114 355.345 292.373 353.579 292.373 351.415C292.373 349.744 292.867 348.283 293.854 347.03C294.879 345.739 296.227 344.752 297.898 344.068C299.568 343.385 301.372 343.043 303.308 343.043C305.852 343.043 308.111 343.594 310.086 344.695C312.098 345.796 313.522 347.333 314.357 349.308L310.143 351.244C308.852 348.662 306.555 347.371 303.251 347.371C301.657 347.371 300.252 347.751 299.037 348.51C297.86 349.232 297.271 350.162 297.271 351.301C297.271 352.364 297.689 353.237 298.524 353.921C299.36 354.566 300.613 355.098 302.283 355.516L306.498 356.598C309.345 357.319 311.491 358.401 312.933 359.844C314.376 361.249 315.098 362.976 315.098 365.027C315.098 366.811 314.585 368.387 313.56 369.754C312.535 371.083 311.149 372.108 309.402 372.829C307.656 373.551 305.719 373.911 303.593 373.911ZM332.442 373.911C329.67 373.911 327.183 373.247 324.981 371.918C322.779 370.589 321.051 368.767 319.798 366.45C318.583 364.096 317.976 361.458 317.976 358.534C317.976 355.724 318.545 353.143 319.684 350.789C320.861 348.434 322.513 346.555 324.639 345.15C326.765 343.745 329.233 343.043 332.043 343.043C334.891 343.043 337.359 343.688 339.447 344.979C341.535 346.232 343.13 347.979 344.231 350.219C345.37 352.459 345.939 355.022 345.939 357.908C345.939 358.477 345.883 358.971 345.769 359.388H322.817C322.931 361.591 323.462 363.451 324.411 364.97C325.361 366.488 326.557 367.627 327.999 368.387C329.48 369.146 331.018 369.526 332.613 369.526C336.334 369.526 339.2 367.779 341.212 364.286L345.313 366.28C344.06 368.634 342.351 370.494 340.187 371.861C338.061 373.228 335.479 373.911 332.442 373.911ZM340.814 355.402C340.738 354.187 340.396 352.972 339.789 351.757C339.181 350.542 338.213 349.517 336.884 348.681C335.593 347.846 333.96 347.428 331.986 347.428C329.708 347.428 327.772 348.169 326.177 349.649C324.62 351.092 323.595 353.01 323.102 355.402H340.814Z" fill="white"/>
<g clip-path="url(#clip0_57_7230)">
<path d="M256.52 63.5793C252.426 57.8986 243.012 46.2181 228.551 28.866C222.274 21.3396 216.889 14.9511 214.238 11.8147C212.776 10.0846 211.523 8.6043 210.533 7.43393L208.955 5.57429L208.1 4.56583L207.933 4.32065L207.859 4.28827L204.209 0L199.583 3.71003C187.773 13.1701 178.1 25.3642 171.619 38.9553C167.646 47.0415 165.05 54.9473 163.69 63.089C163.334 64.9208 163.029 66.8036 162.774 68.691C161.188 68.5615 159.573 68.4782 157.973 68.4412C157.838 68.432 157.704 68.4273 157.524 68.4227C151.663 68.2192 145.834 68.9177 140.204 70.5044L137.794 71.1798L136.554 73.354C130.744 83.545 127.455 95.1469 127.043 106.902C126.511 122.167 130.67 136.943 139.071 149.632C147.291 162.043 158.902 171.531 172.651 177.068L174.441 177.79L174.982 177.98L175.005 177.97C182.166 180.57 189.684 182.023 197.349 182.286C198.219 182.319 199.084 182.333 199.949 182.333C209.622 182.333 219.04 180.441 227.977 176.698L228.042 176.726L230.42 175.625C242.475 170.051 252.791 161.289 260.253 150.284C267.927 138.964 272.239 125.72 272.72 111.985C273.293 95.5679 267.839 79.2845 256.515 63.5839L256.52 63.5793ZM202.706 114.446C205.199 123.897 204.709 132.978 201.258 141.476C192.635 132.964 186.311 123.606 182.453 113.632C178.322 102.965 175.838 92.8154 175.052 83.4293C178.702 84.6275 182.055 86.2096 185.044 88.1571C193.639 93.7591 199.583 102.604 202.706 114.451V114.446ZM204.279 160.197C207.942 162.987 211.796 165.6 215.769 168.006C209.918 169.597 203.881 170.296 197.774 170.078C196.831 170.046 195.887 169.99 194.939 169.912C198.417 166.914 201.545 163.662 204.274 160.197H204.279ZM214.511 111.333C210.588 96.4653 202.914 85.2242 191.705 77.9244C186.788 74.7233 181.186 72.2946 175.033 70.7079C175.121 69.6856 175.232 68.6679 175.362 67.6687C175.473 66.8129 175.588 66.0265 175.713 65.2909C176.726 60.059 178.234 54.8825 180.187 49.9096C180.936 48.0037 181.755 46.1117 182.624 44.2844L182.657 44.2196C183.998 41.5042 185.511 38.761 187.292 35.8281L187.991 34.6763L187.967 34.6624C192.103 28.1999 197.057 22.3064 202.724 17.1115L204.912 19.6974C210.015 25.7435 214.812 31.4612 219.174 36.6932C228.986 48.4616 241.707 63.917 246.615 70.7311C256.321 84.1834 260.998 97.9179 260.521 111.564C260.151 122.163 257.015 132.497 251.445 141.444C246.171 149.923 238.825 157.019 230.17 162.015C225.341 159.605 218.328 155.641 210.88 149.872C216.884 137.905 218.11 124.947 214.516 111.333H214.511ZM194.948 152.338C189.443 159.471 182.893 164.111 179.072 166.442C178.452 166.216 177.832 165.98 177.221 165.73L176.731 165.536C165.411 160.859 155.863 152.953 149.119 142.665C142.226 132.15 138.812 119.928 139.251 107.318C139.566 98.2787 141.819 89.642 145.954 81.6437C148.355 81.1117 150.802 80.7787 153.249 80.6538L153.883 80.6399C155.118 80.6121 156.349 80.6121 157.519 80.6399C159.24 80.7185 160.966 80.8989 162.663 81.1719C163.218 92.6628 166.04 105.06 171.059 118.032C175.894 130.517 183.924 142.05 194.943 152.333L194.948 152.338Z" fill="white"/>
</g>
<g filter="url(#filter0_d_57_7230)">
<circle cx="277" cy="137" r="45" fill="white"/>
<path d="M295.016 147.701V126.303L287.438 118.725L292.205 113.955L301.75 123.5V147.732L301.734 147.741V150.506L292.199 160.044L287.438 155.281L295.016 147.701ZM258.984 147.694L266.562 155.274L261.795 160.044L252.25 150.5V126.267L252.266 126.258V123.493L261.801 113.955L266.562 118.718L258.984 126.299V147.696V147.694ZM266.877 140.381C265.979 140.381 265.118 140.025 264.484 139.39C263.849 138.755 263.492 137.894 263.492 136.996C263.492 136.098 263.849 135.237 264.484 134.603C265.118 133.968 265.979 133.611 266.877 133.611C267.775 133.611 268.635 133.968 269.27 134.602C269.905 135.237 270.261 136.098 270.261 136.995C270.261 137.893 269.905 138.753 269.27 139.388C268.635 140.023 267.775 140.379 266.877 140.379V140.381ZM276.998 140.381C276.1 140.381 275.239 140.025 274.604 139.39C273.969 138.755 273.613 137.894 273.613 136.996C273.613 136.098 273.969 135.237 274.604 134.603C275.239 133.968 276.1 133.611 276.998 133.611C277.895 133.611 278.756 133.968 279.391 134.602C280.025 135.237 280.382 136.098 280.382 136.995C280.382 137.893 280.025 138.753 279.391 139.388C278.756 140.023 277.895 140.379 276.998 140.379V140.381ZM287.118 140.381C286.22 140.381 285.359 140.025 284.725 139.39C284.09 138.755 283.733 137.894 283.733 136.996C283.733 136.098 284.09 135.237 284.725 134.603C285.359 133.968 286.22 133.611 287.118 133.611C288.016 133.611 288.876 133.968 289.511 134.602C290.146 135.237 290.502 136.098 290.502 136.995C290.502 137.893 290.146 138.753 289.511 139.388C288.876 140.023 288.016 140.379 287.118 140.379V140.381Z" fill="#1F1F1F"/>
</g>
<defs>
<filter id="filter0_d_57_7230" x="226" y="88.0029" width="102" height="102" filterUnits="userSpaceOnUse" color-interpolation-filters="sRGB">
<feFlood flood-opacity="0" result="BackgroundImageFix"/>
<feColorMatrix in="SourceAlpha" type="matrix" values="0 0 0 0 0 0 0 0 0 0 0 0 0 0 0 0 0 0 127 0" result="hardAlpha"/>
<feOffset dy="2.0029"/>
<feGaussianBlur stdDeviation="3"/>
<feComposite in2="hardAlpha" operator="out"/>
<feColorMatrix type="matrix" values="0 0 0 0 0 0 0 0 0 0 0 0 0 0 0 0 0 0 0.3 0"/>
<feBlend mode="normal" in2="BackgroundImageFix" result="effect1_dropShadow_57_7230"/>
<feBlend mode="normal" in="SourceGraphic" in2="effect1_dropShadow_57_7230" result="shape"/>
</filter>
<clipPath id="clip0_57_7230">
<rect width="145.769" height="182.328" fill="white" transform="translate(126.998)"/>
</clipPath>
</defs>
</svg>
