<svg width="270" height="327" viewBox="0 0 270 327" fill="none" xmlns="http://www.w3.org/2000/svg">
<path d="M222.285 254.393C219.521 254.393 217.022 253.749 214.788 252.462C212.592 251.175 210.87 249.395 209.62 247.124C208.371 244.814 207.746 242.24 207.746 239.4C207.746 236.674 208.333 234.175 209.507 231.904C210.718 229.594 212.403 227.777 214.561 226.452C216.719 225.089 219.18 224.407 221.944 224.407C224.783 224.407 227.244 225.032 229.327 226.281C231.447 227.531 233.056 229.272 234.154 231.506C235.252 233.702 235.801 236.239 235.801 239.116C235.801 239.457 235.782 239.798 235.744 240.138C235.706 240.479 235.687 240.668 235.687 240.706H213.993C214.182 243.281 215.11 245.268 216.776 246.669C218.442 248.07 220.335 248.77 222.455 248.77C225.711 248.77 228.21 247.256 229.951 244.227L235.29 246.783C234.04 249.092 232.299 250.947 230.065 252.348C227.869 253.711 225.275 254.393 222.285 254.393ZM229.44 235.936C229.364 235.027 229.062 234.1 228.531 233.153C228.001 232.206 227.169 231.411 226.033 230.768C224.935 230.086 223.553 229.746 221.887 229.746C220.032 229.746 218.423 230.313 217.06 231.449C215.735 232.585 214.826 234.081 214.334 235.936H229.44Z" fill="white"/>
<path d="M194.035 254.393C190.817 254.393 188.148 253.654 186.027 252.178C183.945 250.663 182.468 248.77 181.598 246.499L187.163 244.114C187.807 245.666 188.734 246.84 189.946 247.635C191.195 248.43 192.558 248.827 194.035 248.827C195.587 248.827 196.855 248.543 197.84 247.975C198.824 247.37 199.316 246.593 199.316 245.647C199.316 244.738 198.919 244 198.124 243.432C197.329 242.826 196.022 242.296 194.205 241.842L190.343 240.933C188.223 240.441 186.387 239.532 184.835 238.207C183.32 236.844 182.563 235.084 182.563 232.926C182.563 230.313 183.642 228.25 185.8 226.736C187.958 225.183 190.608 224.407 193.751 224.407C196.363 224.407 198.673 224.956 200.679 226.054C202.724 227.152 204.2 228.742 205.109 230.825L199.6 233.153C199.07 231.979 198.256 231.109 197.158 230.541C196.06 229.973 194.868 229.689 193.581 229.689C192.331 229.689 191.233 229.973 190.287 230.541C189.34 231.071 188.867 231.79 188.867 232.699C188.867 233.494 189.189 234.137 189.832 234.63C190.514 235.122 191.574 235.538 193.013 235.879L197.215 236.901C200.055 237.621 202.175 238.718 203.576 240.195C204.977 241.634 205.677 243.375 205.677 245.42C205.677 247.086 205.166 248.6 204.144 249.963C203.159 251.326 201.777 252.405 199.998 253.2C198.256 253.995 196.269 254.393 194.035 254.393Z" fill="white"/>
<path d="M164.149 254.393C162.143 254.393 160.325 253.995 158.697 253.2C157.107 252.367 155.839 251.231 154.892 249.793C153.984 248.316 153.529 246.65 153.529 244.795C153.529 241.842 154.627 239.514 156.823 237.81C159.057 236.106 161.878 235.254 165.285 235.254C168.276 235.254 170.832 235.765 172.952 236.788V235.595C172.952 233.891 172.27 232.49 170.907 231.392C169.582 230.257 167.973 229.689 166.08 229.689C163.203 229.689 160.893 230.862 159.152 233.21L154.381 229.916C155.706 228.136 157.353 226.774 159.322 225.827C161.329 224.88 163.581 224.407 166.08 224.407C170.207 224.407 173.387 225.448 175.621 227.531C177.893 229.575 179.028 232.472 179.028 236.22V253.484H172.952V250.02H172.611C171.702 251.307 170.548 252.367 169.147 253.2C167.746 253.995 166.08 254.393 164.149 254.393ZM165.171 249.225C166.572 249.225 167.859 248.884 169.033 248.203C170.245 247.483 171.191 246.556 171.873 245.42C172.592 244.246 172.952 242.997 172.952 241.672C170.945 240.574 168.806 240.025 166.534 240.025C164.452 240.025 162.824 240.479 161.65 241.388C160.477 242.296 159.89 243.451 159.89 244.852C159.89 246.139 160.401 247.199 161.423 248.032C162.483 248.827 163.733 249.225 165.171 249.225Z" fill="white"/>
<path d="M137.939 254.393C135.894 254.393 134.058 253.958 132.43 253.087C130.84 252.216 129.648 251.118 128.852 249.793H128.512V253.484H122.605V212.822H128.852V225.032L128.512 228.951H128.852C129.648 227.664 130.84 226.585 132.43 225.714C134.058 224.843 135.894 224.408 137.939 224.408C140.362 224.408 142.596 225.051 144.64 226.338C146.723 227.626 148.37 229.424 149.581 231.734C150.83 234.005 151.455 236.561 151.455 239.4C151.455 242.24 150.83 244.795 149.581 247.067C148.37 249.339 146.723 251.137 144.64 252.462C142.596 253.749 140.362 254.393 137.939 254.393ZM136.86 248.657C138.336 248.657 139.699 248.279 140.949 247.521C142.236 246.764 143.258 245.685 144.016 244.284C144.811 242.846 145.208 241.218 145.208 239.4C145.208 237.583 144.811 235.974 144.016 234.573C143.258 233.134 142.236 232.036 140.949 231.279C139.699 230.522 138.336 230.143 136.86 230.143C135.383 230.143 134.001 230.522 132.714 231.279C131.465 232.036 130.443 233.115 129.648 234.516C128.89 235.917 128.512 237.545 128.512 239.4C128.512 241.255 128.89 242.883 129.648 244.284C130.443 245.685 131.465 246.764 132.714 247.521C134.001 248.279 135.383 248.657 136.86 248.657Z" fill="white"/>
<path d="M105.369 254.393C102.605 254.393 100.106 253.749 97.8721 252.462C95.6762 251.175 93.9536 249.395 92.7042 247.124C91.4548 244.814 90.8301 242.24 90.8301 239.4C90.8301 236.674 91.4169 234.175 92.5906 231.904C93.8021 229.594 95.4869 227.777 97.645 226.452C99.803 225.089 102.264 224.407 105.028 224.407C107.867 224.407 110.328 225.032 112.411 226.281C114.531 227.531 116.14 229.272 117.238 231.506C118.336 233.702 118.885 236.239 118.885 239.116C118.885 239.457 118.866 239.798 118.828 240.138C118.79 240.479 118.771 240.668 118.771 240.706H97.0771C97.2664 243.281 98.1939 245.268 99.8598 246.669C101.526 248.07 103.419 248.77 105.539 248.77C108.795 248.77 111.294 247.256 113.035 244.227L118.374 246.783C117.124 249.092 115.383 250.947 113.149 252.348C110.953 253.711 108.359 254.393 105.369 254.393ZM112.524 235.936C112.448 235.027 112.146 234.1 111.615 233.153C111.085 232.206 110.253 231.411 109.117 230.768C108.019 230.086 106.637 229.746 104.971 229.746C103.116 229.746 101.507 230.313 100.144 231.449C98.8186 232.585 97.91 234.081 97.4178 235.936H112.524Z" fill="white"/>
<path d="M73.4941 225.317H79.4004V229.519H79.7411C80.3469 228.081 81.4448 226.888 83.035 225.941C84.6251 224.957 86.2531 224.465 87.919 224.465C89.282 224.465 90.3988 224.654 91.2696 225.033V231.564C89.9824 230.92 88.5437 230.598 86.9535 230.598C84.9091 230.598 83.1864 231.393 81.7856 232.983C80.4226 234.536 79.7411 236.448 79.7411 238.719V253.485H73.4941V225.317Z" fill="white"/>
<path d="M64.5775 220.546C63.4038 220.546 62.4005 220.148 61.5676 219.353C60.7725 218.52 60.375 217.517 60.375 216.343C60.375 215.169 60.7725 214.185 61.5676 213.39C62.4005 212.557 63.4038 212.141 64.5775 212.141C65.7512 212.141 66.7356 212.557 67.5306 213.39C68.3636 214.185 68.78 215.169 68.78 216.343C68.78 217.517 68.3636 218.52 67.5306 219.353C66.7356 220.148 65.7512 220.546 64.5775 220.546ZM61.454 225.316H67.701V253.484H61.454V225.316Z" fill="white"/>
<path d="M33 212.822H57.704V218.899H39.3606V230.598H55.8867V236.618H39.3606V253.484H33V212.822Z" fill="white"/>
<path d="M21.8678 310.788C17.9191 310.788 14.3311 309.858 11.1038 307.998C7.87647 306.137 5.3326 303.593 3.47215 300.366C1.64967 297.101 0.738429 293.475 0.738429 289.488C0.738429 285.501 1.64967 281.894 3.47215 278.667C5.3326 275.402 7.87647 272.839 11.1038 270.978C14.3311 269.118 17.9191 268.188 21.8678 268.188C24.9053 268.188 27.677 268.776 30.1829 269.953C32.7267 271.092 34.9289 272.725 36.7893 274.851L33.3152 278.211C31.7585 276.351 30.05 274.984 28.1895 274.111C26.367 273.238 24.2598 272.801 21.8678 272.801C18.9063 272.801 16.1915 273.503 13.7236 274.908C11.2557 276.275 9.2813 278.23 7.80054 280.774C6.35774 283.28 5.63634 286.185 5.63634 289.488C5.63634 292.791 6.35774 295.715 7.80054 298.259C9.2813 300.765 11.2557 302.72 13.7236 304.125C16.1915 305.492 18.9063 306.175 21.8678 306.175C26.8037 306.175 30.9992 304.144 34.4543 300.081L37.9854 303.498C36.0869 305.738 33.7519 307.523 30.9802 308.852C28.2085 310.143 25.171 310.788 21.8678 310.788ZM42.2821 280.831H46.8953V285.501H47.1231C47.6926 283.907 48.7937 282.597 50.4264 281.572C52.059 280.508 53.7676 279.977 55.5521 279.977C56.881 279.977 58.02 280.167 58.9692 280.546V285.786C57.7542 285.179 56.3874 284.875 54.8686 284.875C53.4638 284.875 52.1729 285.273 50.9959 286.071C49.8189 286.868 48.8697 287.95 48.1483 289.317C47.4648 290.646 47.1231 292.089 47.1231 293.645V309.877H42.2821V280.831ZM70.6712 310.788C68.545 310.788 66.6465 310.371 64.9759 309.535C63.3053 308.7 62.0144 307.561 61.1032 306.118C60.1919 304.637 59.7363 302.967 59.7363 301.106C59.7363 298.031 60.8943 295.639 63.2104 293.93C65.5265 292.184 68.45 291.31 71.9811 291.31C73.7276 291.31 75.3413 291.5 76.822 291.88C78.3408 292.26 79.4988 292.696 80.2961 293.19V291.424C80.2961 289.26 79.5368 287.533 78.018 286.242C76.4993 284.913 74.5819 284.248 72.2658 284.248C70.6332 284.248 69.1335 284.609 67.7666 285.33C66.3997 286.014 65.3176 286.982 64.5203 288.235L60.8754 285.501C62.0144 283.755 63.5711 282.388 65.5455 281.401C67.5578 280.414 69.7789 279.92 72.2089 279.92C76.1576 279.92 79.252 280.964 81.4921 283.052C83.7702 285.103 84.9093 287.912 84.9093 291.481V309.877H80.2961V305.719H80.0683C79.233 307.124 77.9801 308.32 76.3095 309.307C74.6389 310.295 72.7594 310.788 70.6712 310.788ZM71.1268 306.517C72.7594 306.517 74.2782 306.099 75.683 305.264C77.0878 304.428 78.2079 303.308 79.0432 301.904C79.8785 300.499 80.2961 298.961 80.2961 297.29C79.3849 296.683 78.2648 296.189 76.936 295.81C75.6071 295.43 74.2022 295.24 72.7215 295.24C70.0637 295.24 68.0514 295.791 66.6845 296.892C65.3556 297.993 64.6912 299.417 64.6912 301.163C64.6912 302.758 65.2987 304.049 66.5136 305.036C67.7286 306.023 69.2664 306.517 71.1268 306.517ZM100.364 310.788C97.2509 310.788 94.6501 310.067 92.5618 308.624C90.4736 307.143 88.9928 305.264 88.1195 302.986L92.4479 301.049C93.1693 302.796 94.2324 304.144 95.6373 305.093C97.0801 306.042 98.6558 306.517 100.364 306.517C102.187 306.517 103.744 306.156 105.034 305.435C106.325 304.675 106.971 303.612 106.971 302.245C106.971 301.03 106.458 300.062 105.433 299.341C104.408 298.581 102.794 297.936 100.592 297.404L97.0611 296.493C94.745 295.924 92.8466 294.955 91.3658 293.589C89.8851 292.222 89.1447 290.456 89.1447 288.292C89.1447 286.621 89.6383 285.16 90.6255 283.907C91.6506 282.616 92.9985 281.629 94.6691 280.945C96.3397 280.262 98.1432 279.92 100.08 279.92C102.623 279.92 104.883 280.47 106.857 281.572C108.869 282.673 110.293 284.21 111.128 286.185L106.914 288.121C105.623 285.539 103.326 284.248 100.023 284.248C98.4279 284.248 97.0231 284.628 95.8081 285.387C94.6311 286.109 94.0426 287.039 94.0426 288.178C94.0426 289.241 94.4603 290.114 95.2956 290.798C96.1309 291.443 97.3838 291.975 99.0544 292.393L103.269 293.475C106.117 294.196 108.262 295.278 109.705 296.721C111.147 298.126 111.869 299.853 111.869 301.904C111.869 303.688 111.356 305.264 110.331 306.631C109.306 307.96 107.92 308.985 106.173 309.706C104.427 310.427 102.491 310.788 100.364 310.788ZM116.007 269.099H120.848V281.116L120.62 285.103H120.848C121.645 283.622 122.898 282.388 124.607 281.401C126.353 280.414 128.251 279.92 130.302 279.92C133.833 279.92 136.529 280.964 138.389 283.052C140.249 285.103 141.18 287.836 141.18 291.253V309.877H136.339V291.994C136.339 289.374 135.674 287.438 134.345 286.185C133.016 284.932 131.289 284.305 129.163 284.305C127.644 284.305 126.239 284.761 124.948 285.672C123.695 286.583 122.689 287.76 121.93 289.203C121.208 290.646 120.848 292.146 120.848 293.702V309.877H116.007V269.099ZM147.015 269.099H151.856V309.877H147.015V269.099ZM166.774 308.054L154.757 280.831H159.996L169.109 302.416H169.223L177.993 280.831H183.233L165.293 322.179H160.281L166.774 308.054ZM197.279 310.333C196.102 310.333 195.001 310.143 193.976 309.763C192.988 309.383 192.153 308.871 191.47 308.225C190.71 307.504 190.141 306.669 189.761 305.719C189.381 304.77 189.192 303.612 189.192 302.245V285.217H184.123V280.831H189.192V272.63H194.032V280.831H201.095V285.217H194.032V301.049C194.032 302.644 194.336 303.821 194.944 304.58C195.665 305.416 196.709 305.833 198.076 305.833C199.177 305.833 200.24 305.511 201.265 304.865V309.592C200.696 309.858 200.107 310.048 199.5 310.162C198.93 310.276 198.19 310.333 197.279 310.333ZM208.959 275.478C208.01 275.478 207.194 275.136 206.51 274.453C205.827 273.769 205.485 272.953 205.485 272.004C205.485 271.054 205.827 270.257 206.51 269.612C207.194 268.928 208.01 268.586 208.959 268.586C209.909 268.586 210.725 268.928 211.408 269.612C212.092 270.257 212.433 271.054 212.433 272.004C212.433 272.953 212.092 273.769 211.408 274.453C210.763 275.136 209.947 275.478 208.959 275.478ZM206.567 280.831H211.351V309.877H206.567V280.831ZM230.698 310.788C227.889 310.788 225.364 310.124 223.124 308.795C220.883 307.428 219.137 305.587 217.884 303.27C216.631 300.916 216.005 298.278 216.005 295.354C216.005 292.431 216.631 289.792 217.884 287.438C219.137 285.084 220.883 283.242 223.124 281.913C225.364 280.584 227.889 279.92 230.698 279.92C233.85 279.92 236.488 280.66 238.615 282.141C240.779 283.584 242.317 285.52 243.228 287.95L238.843 289.773C238.121 287.988 237.039 286.64 235.596 285.729C234.191 284.78 232.483 284.305 230.47 284.305C228.762 284.305 227.167 284.78 225.686 285.729C224.206 286.64 223.01 287.931 222.098 289.602C221.225 291.272 220.789 293.19 220.789 295.354C220.789 297.518 221.225 299.436 222.098 301.106C223.01 302.777 224.206 304.087 225.686 305.036C227.167 305.947 228.762 306.403 230.47 306.403C232.521 306.403 234.286 305.928 235.767 304.979C237.248 304.03 238.349 302.682 239.07 300.935L243.399 302.758C242.412 305.15 240.817 307.086 238.615 308.567C236.45 310.048 233.812 310.788 230.698 310.788ZM257.631 310.788C254.518 310.788 251.917 310.067 249.829 308.624C247.74 307.143 246.26 305.264 245.386 302.986L249.715 301.049C250.436 302.796 251.499 304.144 252.904 305.093C254.347 306.042 255.922 306.517 257.631 306.517C259.454 306.517 261.01 306.156 262.301 305.435C263.592 304.675 264.238 303.612 264.238 302.245C264.238 301.03 263.725 300.062 262.7 299.341C261.675 298.581 260.061 297.936 257.859 297.404L254.328 296.493C252.012 295.924 250.113 294.955 248.633 293.589C247.152 292.222 246.411 290.456 246.411 288.292C246.411 286.621 246.905 285.16 247.892 283.907C248.917 282.616 250.265 281.629 251.936 280.945C253.606 280.262 255.41 279.92 257.346 279.92C259.89 279.92 262.149 280.47 264.124 281.572C266.136 282.673 267.56 284.21 268.395 286.185L264.181 288.121C262.89 285.539 260.593 284.248 257.289 284.248C255.695 284.248 254.29 284.628 253.075 285.387C251.898 286.109 251.309 287.039 251.309 288.178C251.309 289.241 251.727 290.114 252.562 290.798C253.398 291.443 254.651 291.975 256.321 292.393L260.536 293.475C263.383 294.196 265.528 295.278 266.971 296.721C268.414 298.126 269.135 299.853 269.135 301.904C269.135 303.688 268.623 305.264 267.598 306.631C266.573 307.96 265.187 308.985 263.44 309.706C261.694 310.427 259.757 310.788 257.631 310.788Z" fill="white"/>
<path d="M206.017 99.803V99.7458C206.016 99.7242 206.016 99.7027 206.017 99.6812C204.295 88.4617 199.829 78.1267 193.904 68.8306C193.159 67.6552 192.384 66.4997 191.592 65.3516C191.207 64.795 190.817 64.2434 190.422 63.6967C182.803 53.1207 158.739 24.3674 146.097 9.3757C141.315 3.70257 138.168 0 138.168 0C136.742 1.14308 135.349 2.32259 133.987 3.53856L133.94 3.58079C124.081 12.7989 115.906 23.667 109.782 35.6962L109.762 35.7336C108.583 38.0528 107.482 40.4135 106.458 42.8157C104.091 48.3804 102.166 54.1236 100.703 59.9916C99.8149 63.5384 99.0962 67.1474 98.5464 70.8185C95.5207 70.3234 92.4647 70.0361 89.3998 69.9587C88.8202 69.9438 88.2406 69.9363 87.661 69.9363C82.6527 69.9326 77.6599 70.4911 72.7761 71.6013C69.7866 76.4304 67.3801 81.597 65.607 86.9931C63.21 94.296 61.9925 101.935 62 109.621C62 144.753 87.025 174.043 120.218 180.616C124.873 181.538 129.607 182.002 134.352 182C135.289 182 136.221 181.98 137.15 181.948C139.589 181.852 141.994 181.64 144.366 181.312C149.892 180.545 155.311 179.139 160.513 177.122C161.899 176.585 163.263 176.006 164.607 175.383C189.448 163.925 206.705 138.787 206.705 109.621C206.695 106.337 206.466 103.057 206.017 99.803ZM110.999 164.856C103.875 161.846 97.4038 157.48 91.9436 152.002C86.4686 146.54 82.1053 140.067 79.0957 132.942C75.9738 125.561 74.3736 117.626 74.3908 109.611C74.3733 101.596 75.9736 93.6592 79.0957 86.2774C79.5926 85.0912 80.1299 83.9266 80.7079 82.7836C83.0044 82.4955 85.3167 82.351 87.6312 82.3511C90.887 82.3508 94.1364 82.6386 97.3416 83.211C97.272 84.8287 97.2373 86.4613 97.2373 88.0988C97.1935 118.565 109.202 147.811 130.641 169.451C123.88 169.053 117.236 167.499 110.999 164.856ZM137.579 158.746C136.125 157.2 134.727 155.615 133.384 153.99C126.945 146.237 121.683 137.578 117.769 128.29C112.389 115.572 109.63 101.899 109.658 88.0889C109.658 87.7128 109.658 87.3376 109.658 86.9632C115.812 89.694 121.408 93.541 126.162 98.3095C133.533 105.644 138.637 114.946 140.863 125.105C141.705 128.965 142.128 132.905 142.125 136.856C142.148 144.388 140.606 151.842 137.597 158.746H137.579ZM194.319 111.686C193.94 122.957 190.384 133.892 184.062 143.23C178.925 150.813 172.129 157.127 164.189 161.693L164.11 161.656C162.023 162.852 159.866 163.92 157.651 164.856C154.891 166.024 152.047 166.982 149.143 167.722C148.626 167.854 148.108 167.978 147.588 168.094C147.307 168.159 147.029 168.221 146.748 168.278C146.858 168.079 146.964 167.873 147.069 167.669C147.23 167.359 147.389 167.048 147.543 166.735C149.44 162.941 150.967 158.973 152.104 154.887C153.736 149.021 154.561 142.96 154.556 136.871C154.558 132.441 154.123 128.022 153.257 123.678C148.654 100.653 132.243 81.8964 110.612 73.9794C111.608 66.6557 113.396 59.4619 115.945 52.5244C116.516 50.9721 117.125 49.4306 117.771 47.8998C118.745 45.5938 119.798 43.3325 120.931 41.1159C120.938 41.1049 120.943 41.0932 120.948 41.0812C121.413 40.1145 121.892 39.1628 122.389 38.2135C126.288 30.7861 131.204 23.9388 136.993 17.8692L137.09 17.9861C142.222 24.0742 149.091 32.2646 155.932 40.5171C159.432 44.7415 162.925 48.9833 166.174 52.9716C172.268 60.4538 177.504 67.0439 180.334 70.9577C180.738 71.5193 181.133 72.0784 181.521 72.645C185.585 78.5467 188.725 84.5131 190.854 90.4148C192.207 94.136 193.183 97.9838 193.768 101.9V101.95C194.246 105.172 194.432 108.43 194.324 111.686H194.319Z" fill="white"/>
<g filter="url(#filter0_d_57_8203)">
<circle cx="210" cy="137" r="45" fill="white"/>
<path d="M216.75 128.581C214.944 127.374 212.797 126.78 210.628 126.887C208.459 126.994 206.381 127.796 204.702 129.174C203.023 130.552 201.832 132.434 201.304 134.541C200.777 136.648 200.941 138.869 201.772 140.875C202.603 142.882 204.058 144.568 205.921 145.685C207.784 146.801 209.957 147.289 212.119 147.076C214.28 146.863 216.316 145.961 217.926 144.502C219.535 143.043 220.633 141.106 221.057 138.976L228.626 146.547C229.258 147.18 229.614 148.038 229.614 148.933C229.614 149.828 229.258 150.686 228.626 151.319L225.444 154.5C224.811 155.133 223.953 155.489 223.058 155.489C222.163 155.489 221.305 155.133 220.672 154.5L216.75 150.581V156.125C216.75 157.02 216.394 157.879 215.761 158.511C215.129 159.144 214.27 159.5 213.375 159.5H208.875C207.98 159.5 207.121 159.144 206.489 158.511C205.856 157.879 205.5 157.02 205.5 156.125V150.581L201.578 154.5C200.945 155.133 200.087 155.489 199.192 155.489C198.297 155.489 197.439 155.133 196.806 154.5L193.625 151.319C192.992 150.686 192.636 149.828 192.636 148.933C192.636 148.038 192.992 147.18 193.625 146.547L197.544 142.625H192C191.105 142.625 190.246 142.269 189.614 141.636C188.981 141.004 188.625 140.145 188.625 139.25V134.75C188.625 133.855 188.981 132.996 189.614 132.364C190.246 131.731 191.105 131.375 192 131.375H197.544L193.625 127.453C192.992 126.82 192.636 125.962 192.636 125.067C192.636 124.172 192.992 123.314 193.625 122.681L196.806 119.5C197.439 118.867 198.297 118.511 199.192 118.511C200.087 118.511 200.945 118.867 201.578 119.5L205.5 123.419V117.875C205.5 116.98 205.856 116.121 206.489 115.489C207.121 114.856 207.98 114.5 208.875 114.5H213.375C214.27 114.5 215.129 114.856 215.761 115.489C216.394 116.121 216.75 116.98 216.75 117.875V128.581ZM211.125 141.5C209.932 141.5 208.787 141.026 207.943 140.182C207.099 139.338 206.625 138.193 206.625 137C206.625 135.807 207.099 134.662 207.943 133.818C208.787 132.974 209.932 132.5 211.125 132.5C212.318 132.5 213.463 132.974 214.307 133.818C215.151 134.662 215.625 135.807 215.625 137C215.625 138.193 215.151 139.338 214.307 140.182C213.463 141.026 212.318 141.5 211.125 141.5Z" fill="#1F1F1F"/>
</g>
<defs>
<filter id="filter0_d_57_8203" x="159" y="88.0029" width="102" height="102" filterUnits="userSpaceOnUse" color-interpolation-filters="sRGB">
<feFlood flood-opacity="0" result="BackgroundImageFix"/>
<feColorMatrix in="SourceAlpha" type="matrix" values="0 0 0 0 0 0 0 0 0 0 0 0 0 0 0 0 0 0 127 0" result="hardAlpha"/>
<feOffset dy="2.0029"/>
<feGaussianBlur stdDeviation="3"/>
<feComposite in2="hardAlpha" operator="out"/>
<feColorMatrix type="matrix" values="0 0 0 0 0 0 0 0 0 0 0 0 0 0 0 0 0 0 0.3 0"/>
<feBlend mode="normal" in2="BackgroundImageFix" result="effect1_dropShadow_57_8203"/>
<feBlend mode="normal" in="SourceGraphic" in2="effect1_dropShadow_57_8203" result="shape"/>
</filter>
</defs>
</svg>
