<svg width="275" height="327" viewBox="0 0 275 327" fill="none" xmlns="http://www.w3.org/2000/svg">
<path d="M225.285 254.393C222.521 254.393 220.022 253.749 217.788 252.462C215.592 251.175 213.87 249.395 212.62 247.124C211.371 244.814 210.746 242.24 210.746 239.4C210.746 236.674 211.333 234.175 212.507 231.904C213.718 229.594 215.403 227.777 217.561 226.452C219.719 225.089 222.18 224.407 224.944 224.407C227.783 224.407 230.244 225.032 232.327 226.281C234.447 227.531 236.056 229.272 237.154 231.506C238.252 233.702 238.801 236.239 238.801 239.116C238.801 239.457 238.782 239.798 238.744 240.138C238.706 240.479 238.687 240.668 238.687 240.706H216.993C217.182 243.281 218.11 245.268 219.776 246.669C221.442 248.07 223.335 248.77 225.455 248.77C228.711 248.77 231.21 247.256 232.951 244.227L238.29 246.783C237.04 249.092 235.299 250.947 233.065 252.348C230.869 253.711 228.275 254.393 225.285 254.393ZM232.44 235.936C232.364 235.027 232.062 234.1 231.531 233.153C231.001 232.206 230.169 231.411 229.033 230.768C227.935 230.086 226.553 229.746 224.887 229.746C223.032 229.746 221.423 230.313 220.06 231.449C218.735 232.585 217.826 234.081 217.334 235.936H232.44Z" fill="white"/>
<path d="M197.035 254.393C193.817 254.393 191.148 253.654 189.027 252.178C186.945 250.663 185.468 248.77 184.598 246.499L190.163 244.114C190.807 245.666 191.734 246.84 192.946 247.635C194.195 248.43 195.558 248.827 197.035 248.827C198.587 248.827 199.855 248.543 200.84 247.975C201.824 247.37 202.316 246.593 202.316 245.647C202.316 244.738 201.919 244 201.124 243.432C200.329 242.826 199.022 242.296 197.205 241.842L193.343 240.933C191.223 240.441 189.387 239.532 187.835 238.207C186.32 236.844 185.563 235.084 185.563 232.926C185.563 230.313 186.642 228.25 188.8 226.736C190.958 225.183 193.608 224.407 196.751 224.407C199.363 224.407 201.673 224.956 203.679 226.054C205.724 227.152 207.2 228.742 208.109 230.825L202.6 233.153C202.07 231.979 201.256 231.109 200.158 230.541C199.06 229.973 197.868 229.689 196.581 229.689C195.331 229.689 194.233 229.973 193.287 230.541C192.34 231.071 191.867 231.79 191.867 232.699C191.867 233.494 192.189 234.137 192.832 234.63C193.514 235.122 194.574 235.538 196.013 235.879L200.215 236.901C203.055 237.621 205.175 238.718 206.576 240.195C207.977 241.634 208.677 243.375 208.677 245.42C208.677 247.086 208.166 248.6 207.144 249.963C206.159 251.326 204.777 252.405 202.998 253.2C201.256 253.995 199.269 254.393 197.035 254.393Z" fill="white"/>
<path d="M167.149 254.393C165.143 254.393 163.325 253.995 161.697 253.2C160.107 252.367 158.839 251.231 157.892 249.793C156.984 248.316 156.529 246.65 156.529 244.795C156.529 241.842 157.627 239.514 159.823 237.81C162.057 236.106 164.878 235.254 168.285 235.254C171.276 235.254 173.832 235.765 175.952 236.788V235.595C175.952 233.891 175.27 232.49 173.907 231.392C172.582 230.257 170.973 229.689 169.08 229.689C166.203 229.689 163.893 230.862 162.152 233.21L157.381 229.916C158.706 228.136 160.353 226.774 162.322 225.827C164.329 224.88 166.581 224.407 169.08 224.407C173.207 224.407 176.387 225.448 178.621 227.531C180.893 229.575 182.028 232.472 182.028 236.22V253.484H175.952V250.02H175.611C174.702 251.307 173.548 252.367 172.147 253.2C170.746 253.995 169.08 254.393 167.149 254.393ZM168.171 249.225C169.572 249.225 170.859 248.884 172.033 248.203C173.245 247.483 174.191 246.556 174.873 245.42C175.592 244.246 175.952 242.997 175.952 241.672C173.945 240.574 171.806 240.025 169.534 240.025C167.452 240.025 165.824 240.479 164.65 241.388C163.477 242.296 162.89 243.451 162.89 244.852C162.89 246.139 163.401 247.199 164.423 248.032C165.483 248.827 166.733 249.225 168.171 249.225Z" fill="white"/>
<path d="M140.939 254.393C138.894 254.393 137.058 253.958 135.43 253.087C133.84 252.216 132.648 251.118 131.852 249.793H131.512V253.484H125.605V212.822H131.852V225.032L131.512 228.951H131.852C132.648 227.664 133.84 226.585 135.43 225.714C137.058 224.843 138.894 224.408 140.939 224.408C143.362 224.408 145.596 225.051 147.64 226.338C149.723 227.626 151.37 229.424 152.581 231.734C153.83 234.005 154.455 236.561 154.455 239.4C154.455 242.24 153.83 244.795 152.581 247.067C151.37 249.339 149.723 251.137 147.64 252.462C145.596 253.749 143.362 254.393 140.939 254.393ZM139.86 248.657C141.336 248.657 142.699 248.279 143.949 247.521C145.236 246.764 146.258 245.685 147.016 244.284C147.811 242.846 148.208 241.218 148.208 239.4C148.208 237.583 147.811 235.974 147.016 234.573C146.258 233.134 145.236 232.036 143.949 231.279C142.699 230.522 141.336 230.143 139.86 230.143C138.383 230.143 137.001 230.522 135.714 231.279C134.465 232.036 133.443 233.115 132.648 234.516C131.89 235.917 131.512 237.545 131.512 239.4C131.512 241.255 131.89 242.883 132.648 244.284C133.443 245.685 134.465 246.764 135.714 247.521C137.001 248.279 138.383 248.657 139.86 248.657Z" fill="white"/>
<path d="M108.369 254.393C105.605 254.393 103.106 253.749 100.872 252.462C98.6762 251.175 96.9536 249.395 95.7042 247.124C94.4548 244.814 93.8301 242.24 93.8301 239.4C93.8301 236.674 94.4169 234.175 95.5906 231.904C96.8021 229.594 98.4869 227.777 100.645 226.452C102.803 225.089 105.264 224.407 108.028 224.407C110.867 224.407 113.328 225.032 115.411 226.281C117.531 227.531 119.14 229.272 120.238 231.506C121.336 233.702 121.885 236.239 121.885 239.116C121.885 239.457 121.866 239.798 121.828 240.138C121.79 240.479 121.771 240.668 121.771 240.706H100.077C100.266 243.281 101.194 245.268 102.86 246.669C104.526 248.07 106.419 248.77 108.539 248.77C111.795 248.77 114.294 247.256 116.035 244.227L121.374 246.783C120.124 249.092 118.383 250.947 116.149 252.348C113.953 253.711 111.359 254.393 108.369 254.393ZM115.524 235.936C115.448 235.027 115.146 234.1 114.615 233.153C114.085 232.206 113.253 231.411 112.117 230.768C111.019 230.086 109.637 229.746 107.971 229.746C106.116 229.746 104.507 230.313 103.144 231.449C101.819 232.585 100.91 234.081 100.418 235.936H115.524Z" fill="white"/>
<path d="M76.4941 225.317H82.4004V229.519H82.7411C83.3469 228.081 84.4448 226.888 86.035 225.941C87.6251 224.957 89.2531 224.465 90.919 224.465C92.282 224.465 93.3988 224.654 94.2696 225.033V231.564C92.9824 230.92 91.5437 230.598 89.9535 230.598C87.9091 230.598 86.1864 231.393 84.7856 232.983C83.4226 234.536 82.7411 236.448 82.7411 238.719V253.485H76.4941V225.317Z" fill="white"/>
<path d="M67.5775 220.546C66.4038 220.546 65.4005 220.148 64.5676 219.353C63.7725 218.52 63.375 217.517 63.375 216.343C63.375 215.169 63.7725 214.185 64.5676 213.39C65.4005 212.557 66.4038 212.141 67.5775 212.141C68.7512 212.141 69.7356 212.557 70.5306 213.39C71.3636 214.185 71.78 215.169 71.78 216.343C71.78 217.517 71.3636 218.52 70.5306 219.353C69.7356 220.148 68.7512 220.546 67.5775 220.546ZM64.454 225.316H70.701V253.484H64.454V225.316Z" fill="white"/>
<path d="M36 212.822H60.704V218.899H42.3606V230.598H58.8867V236.618H42.3606V253.484H36V212.822Z" fill="white"/>
<path d="M16.3249 269.099H21.7924L37.2835 309.877H31.9869L27.8863 298.657H10.288L6.1874 309.877H0.890817L16.3249 269.099ZM26.2347 294.101L20.8242 279.407L19.1726 275.022H18.9448L17.3501 279.407L11.9396 294.101H26.2347ZM40.6339 280.831H45.247V285.16H45.4748C46.3481 283.679 47.658 282.445 49.4045 281.458C51.189 280.433 53.1824 279.92 55.3845 279.92C57.9664 279.92 60.3204 280.584 62.4467 281.913C64.5729 283.242 66.2435 285.084 67.4585 287.438C68.6735 289.792 69.281 292.431 69.281 295.354C69.281 298.316 68.6735 300.973 67.4585 303.327C66.2435 305.643 64.5729 307.466 62.4467 308.795C60.3204 310.124 57.9664 310.788 55.3845 310.788C53.1824 310.788 51.189 310.295 49.4045 309.307C47.658 308.282 46.3481 307.048 45.4748 305.606H45.247L45.4748 309.592V322.179H40.6339V280.831ZM54.815 306.403C56.4856 306.403 58.0613 305.947 59.5421 305.036C61.0228 304.125 62.1999 302.834 63.0731 301.163C63.9844 299.455 64.44 297.518 64.44 295.354C64.44 293.19 63.9844 291.272 63.0731 289.602C62.1999 287.893 61.0228 286.583 59.5421 285.672C58.0613 284.761 56.4856 284.305 54.815 284.305C53.1444 284.305 51.5687 284.761 50.088 285.672C48.6072 286.583 47.4302 287.874 46.5569 289.545C45.6836 291.216 45.247 293.152 45.247 295.354C45.247 297.556 45.6836 299.493 46.5569 301.163C47.4302 302.834 48.6072 304.125 50.088 305.036C51.5687 305.947 53.1444 306.403 54.815 306.403ZM72.9766 280.831H77.5898V285.16H77.8176C78.6909 283.679 80.0008 282.445 81.7473 281.458C83.5318 280.433 85.5252 279.92 87.7273 279.92C90.3092 279.92 92.6632 280.584 94.7894 281.913C96.9157 283.242 98.5863 285.084 99.8013 287.438C101.016 289.792 101.624 292.431 101.624 295.354C101.624 298.316 101.016 300.973 99.8013 303.327C98.5863 305.643 96.9157 307.466 94.7894 308.795C92.6632 310.124 90.3092 310.788 87.7273 310.788C85.5252 310.788 83.5318 310.295 81.7473 309.307C80.0008 308.282 78.6909 307.048 77.8176 305.606H77.5898L77.8176 309.592V322.179H72.9766V280.831ZM87.1578 306.403C88.8284 306.403 90.4041 305.947 91.8849 305.036C93.3656 304.125 94.5426 302.834 95.4159 301.163C96.3272 299.455 96.7828 297.518 96.7828 295.354C96.7828 293.19 96.3272 291.272 95.4159 289.602C94.5426 287.893 93.3656 286.583 91.8849 285.672C90.4041 284.761 88.8284 284.305 87.1578 284.305C85.4872 284.305 83.9115 284.761 82.4307 285.672C80.95 286.583 79.773 287.874 78.8997 289.545C78.0264 291.216 77.5898 293.152 77.5898 295.354C77.5898 297.556 78.0264 299.493 78.8997 301.163C79.773 302.834 80.95 304.125 82.4307 305.036C83.9115 305.947 85.4872 306.403 87.1578 306.403ZM137.193 310.788C133.245 310.788 129.657 309.858 126.429 307.998C123.202 306.137 120.658 303.593 118.798 300.366C116.975 297.101 116.064 293.475 116.064 289.488C116.064 285.501 116.975 281.894 118.798 278.667C120.658 275.402 123.202 272.839 126.429 270.978C129.657 269.118 133.245 268.188 137.193 268.188C140.231 268.188 143.002 268.776 145.508 269.953C148.052 271.092 150.254 272.725 152.115 274.851L148.641 278.211C147.084 276.351 145.375 274.984 143.515 274.111C141.692 273.238 139.585 272.801 137.193 272.801C134.232 272.801 131.517 273.503 129.049 274.908C126.581 276.275 124.607 278.23 123.126 280.774C121.683 283.28 120.962 286.185 120.962 289.488C120.962 292.791 121.683 295.715 123.126 298.259C124.607 300.765 126.581 302.72 129.049 304.125C131.517 305.492 134.232 306.175 137.193 306.175C142.129 306.175 146.325 304.144 149.78 300.081L153.311 303.498C151.412 305.738 149.077 307.523 146.306 308.852C143.534 310.143 140.496 310.788 137.193 310.788ZM157.608 269.099H162.449V281.116L162.221 285.103H162.449C163.246 283.622 164.499 282.388 166.207 281.401C167.954 280.414 169.852 279.92 171.903 279.92C175.434 279.92 178.129 280.964 179.99 283.052C181.85 285.103 182.781 287.836 182.781 291.253V309.877H177.94V291.994C177.94 289.374 177.275 287.438 175.946 286.185C174.617 284.932 172.89 284.305 170.764 284.305C169.245 284.305 167.84 284.761 166.549 285.672C165.296 286.583 164.29 287.76 163.531 289.203C162.809 290.646 162.449 292.146 162.449 293.702V309.877H157.608V269.099ZM201.544 310.788C198.772 310.788 196.285 310.124 194.083 308.795C191.881 307.466 190.153 305.643 188.9 303.327C187.685 300.973 187.078 298.335 187.078 295.411C187.078 292.601 187.647 290.02 188.786 287.665C189.963 285.311 191.615 283.432 193.741 282.027C195.867 280.622 198.335 279.92 201.145 279.92C203.993 279.92 206.461 280.565 208.549 281.856C210.637 283.109 212.232 284.856 213.333 287.096C214.472 289.336 215.041 291.899 215.041 294.785C215.041 295.354 214.985 295.848 214.871 296.265H191.919C192.033 298.467 192.564 300.328 193.513 301.847C194.463 303.365 195.659 304.504 197.101 305.264C198.582 306.023 200.12 306.403 201.715 306.403C205.435 306.403 208.302 304.656 210.314 301.163L214.415 303.157C213.162 305.511 211.453 307.371 209.289 308.738C207.163 310.105 204.581 310.788 201.544 310.788ZM209.916 292.279C209.84 291.064 209.498 289.849 208.891 288.634C208.283 287.419 207.315 286.394 205.986 285.558C204.695 284.723 203.062 284.305 201.088 284.305C198.81 284.305 196.874 285.046 195.279 286.526C193.722 287.969 192.697 289.887 192.204 292.279H209.916ZM233.002 310.788C230.192 310.788 227.667 310.124 225.427 308.795C223.187 307.428 221.441 305.587 220.188 303.27C218.935 300.916 218.308 298.278 218.308 295.354C218.308 292.431 218.935 289.792 220.188 287.438C221.441 285.084 223.187 283.242 225.427 281.913C227.667 280.584 230.192 279.92 233.002 279.92C236.153 279.92 238.792 280.66 240.918 282.141C243.083 283.584 244.62 285.52 245.532 287.95L241.146 289.773C240.425 287.988 239.343 286.64 237.9 285.729C236.495 284.78 234.786 284.305 232.774 284.305C231.066 284.305 229.471 284.78 227.99 285.729C226.509 286.64 225.313 287.931 224.402 289.602C223.529 291.272 223.092 293.19 223.092 295.354C223.092 297.518 223.529 299.436 224.402 301.106C225.313 302.777 226.509 304.087 227.99 305.036C229.471 305.947 231.066 306.403 232.774 306.403C234.824 306.403 236.59 305.928 238.071 304.979C239.551 304.03 240.653 302.682 241.374 300.935L245.702 302.758C244.715 305.15 243.121 307.086 240.918 308.567C238.754 310.048 236.115 310.788 233.002 310.788ZM249.797 269.099H254.638V294.728L268.307 280.831H274.458V281.059L263.067 292.563L274.742 309.649V309.877H268.99L259.65 295.924L254.638 300.935V309.877H249.797V269.099Z" fill="white"/>
<path d="M209.017 99.803V99.7458C209.016 99.7242 209.016 99.7027 209.017 99.6812C207.295 88.4617 202.829 78.1267 196.904 68.8306C196.159 67.6552 195.384 66.4997 194.592 65.3516C194.207 64.795 193.817 64.2434 193.422 63.6967C185.803 53.1207 161.739 24.3674 149.097 9.3757C144.315 3.70257 141.168 0 141.168 0C139.742 1.14308 138.349 2.32259 136.987 3.53856L136.94 3.58079C127.081 12.7989 118.906 23.667 112.782 35.6962L112.762 35.7336C111.583 38.0528 110.482 40.4135 109.458 42.8157C107.091 48.3804 105.166 54.1236 103.703 59.9916C102.815 63.5384 102.096 67.1474 101.546 70.8185C98.5207 70.3234 95.4647 70.0361 92.3998 69.9587C91.8202 69.9438 91.2406 69.9363 90.661 69.9363C85.6527 69.9326 80.6599 70.4911 75.7761 71.6013C72.7866 76.4304 70.3801 81.597 68.607 86.9931C66.21 94.296 64.9925 101.935 65 109.621C65 144.753 90.025 174.043 123.218 180.616C127.873 181.538 132.607 182.002 137.352 182C138.289 182 139.221 181.98 140.15 181.948C142.589 181.852 144.994 181.64 147.366 181.312C152.892 180.545 158.311 179.139 163.513 177.122C164.899 176.585 166.263 176.006 167.607 175.383C192.448 163.925 209.705 138.787 209.705 109.621C209.695 106.337 209.466 103.057 209.017 99.803ZM113.999 164.856C106.875 161.846 100.404 157.48 94.9436 152.002C89.4686 146.54 85.1053 140.067 82.0957 132.942C78.9738 125.561 77.3736 117.626 77.3908 109.611C77.3733 101.596 78.9736 93.6592 82.0957 86.2774C82.5926 85.0912 83.1299 83.9266 83.7079 82.7836C86.0044 82.4955 88.3167 82.351 90.6312 82.3511C93.887 82.3508 97.1364 82.6386 100.342 83.211C100.272 84.8287 100.237 86.4613 100.237 88.0988C100.193 118.565 112.202 147.811 133.641 169.451C126.88 169.053 120.236 167.499 113.999 164.856ZM140.579 158.746C139.125 157.2 137.727 155.615 136.384 153.99C129.945 146.237 124.683 137.578 120.769 128.29C115.389 115.572 112.63 101.899 112.658 88.0889C112.658 87.7128 112.658 87.3376 112.658 86.9632C118.812 89.694 124.408 93.541 129.162 98.3095C136.533 105.644 141.637 114.946 143.863 125.105C144.705 128.965 145.128 132.905 145.125 136.856C145.148 144.388 143.606 151.842 140.597 158.746H140.579ZM197.319 111.686C196.94 122.957 193.384 133.892 187.062 143.23C181.925 150.813 175.129 157.127 167.189 161.693L167.11 161.656C165.023 162.852 162.866 163.92 160.651 164.856C157.891 166.024 155.047 166.982 152.143 167.722C151.626 167.854 151.108 167.978 150.588 168.094C150.307 168.159 150.029 168.221 149.748 168.278C149.858 168.079 149.964 167.873 150.069 167.669C150.23 167.359 150.389 167.048 150.543 166.735C152.44 162.941 153.967 158.973 155.104 154.887C156.736 149.021 157.561 142.96 157.556 136.871C157.558 132.441 157.123 128.022 156.257 123.678C151.654 100.653 135.243 81.8964 113.612 73.9794C114.608 66.6557 116.396 59.4619 118.945 52.5244C119.516 50.9721 120.125 49.4306 120.771 47.8998C121.745 45.5938 122.798 43.3325 123.931 41.1159C123.938 41.1049 123.943 41.0932 123.948 41.0812C124.413 40.1145 124.892 39.1628 125.389 38.2135C129.288 30.7861 134.204 23.9388 139.993 17.8692L140.09 17.9861C145.222 24.0742 152.091 32.2646 158.932 40.5171C162.432 44.7415 165.925 48.9833 169.174 52.9716C175.268 60.4538 180.504 67.0439 183.334 70.9577C183.738 71.5193 184.133 72.0784 184.521 72.645C188.585 78.5467 191.725 84.5131 193.854 90.4148C195.207 94.136 196.183 97.9838 196.768 101.9V101.95C197.246 105.172 197.432 108.43 197.324 111.686H197.319Z" fill="white"/>
<g filter="url(#filter0_d_57_7906)">
<circle cx="213" cy="137" r="45" fill="white"/>
<path d="M210.343 146.511L224.644 133.164L221.037 129.798L210.343 139.779L205.026 134.817L201.419 138.184L210.343 146.511ZM213 161.75C207.137 160.371 202.295 157.232 198.478 152.329C194.66 147.426 192.75 141.984 192.75 135.999V121.588L213 114.5L233.25 121.588V135.999C233.25 141.984 231.342 147.429 227.524 152.329C223.705 157.232 218.864 160.373 213 161.75ZM213 156.789C217.388 155.488 221.017 152.889 223.883 148.993C226.754 145.095 228.188 140.764 228.188 135.999V124.837L213 119.517L197.812 124.837V135.999C197.812 140.762 199.248 145.095 202.115 148.993C204.986 152.892 208.613 155.491 213 156.789Z" fill="#1F1F1F"/>
</g>
<defs>
<filter id="filter0_d_57_7906" x="162" y="88.0029" width="102" height="102" filterUnits="userSpaceOnUse" color-interpolation-filters="sRGB">
<feFlood flood-opacity="0" result="BackgroundImageFix"/>
<feColorMatrix in="SourceAlpha" type="matrix" values="0 0 0 0 0 0 0 0 0 0 0 0 0 0 0 0 0 0 127 0" result="hardAlpha"/>
<feOffset dy="2.0029"/>
<feGaussianBlur stdDeviation="3"/>
<feComposite in2="hardAlpha" operator="out"/>
<feColorMatrix type="matrix" values="0 0 0 0 0 0 0 0 0 0 0 0 0 0 0 0 0 0 0.3 0"/>
<feBlend mode="normal" in2="BackgroundImageFix" result="effect1_dropShadow_57_7906"/>
<feBlend mode="normal" in="SourceGraphic" in2="effect1_dropShadow_57_7906" result="shape"/>
</filter>
</defs>
</svg>
