<svg width="350" height="327" viewBox="0 0 350 327" fill="none" xmlns="http://www.w3.org/2000/svg">
<path d="M262.285 254.393C259.521 254.393 257.022 253.749 254.788 252.462C252.592 251.175 250.87 249.395 249.62 247.124C248.371 244.814 247.746 242.24 247.746 239.4C247.746 236.674 248.333 234.175 249.507 231.904C250.718 229.594 252.403 227.777 254.561 226.452C256.719 225.089 259.18 224.407 261.944 224.407C264.783 224.407 267.244 225.032 269.327 226.281C271.447 227.531 273.056 229.272 274.154 231.506C275.252 233.702 275.801 236.239 275.801 239.116C275.801 239.457 275.782 239.798 275.744 240.138C275.706 240.479 275.687 240.668 275.687 240.706H253.993C254.182 243.281 255.11 245.268 256.776 246.669C258.442 248.07 260.335 248.77 262.455 248.77C265.711 248.77 268.21 247.256 269.951 244.227L275.29 246.783C274.04 249.092 272.299 250.947 270.065 252.348C267.869 253.711 265.275 254.393 262.285 254.393ZM269.44 235.936C269.364 235.027 269.062 234.1 268.531 233.153C268.001 232.206 267.169 231.411 266.033 230.768C264.935 230.086 263.553 229.746 261.887 229.746C260.032 229.746 258.423 230.313 257.06 231.449C255.735 232.585 254.826 234.081 254.334 235.936H269.44Z" fill="white"/>
<path d="M234.035 254.393C230.817 254.393 228.148 253.654 226.027 252.178C223.945 250.663 222.468 248.77 221.598 246.499L227.163 244.114C227.807 245.666 228.734 246.84 229.946 247.635C231.195 248.43 232.558 248.827 234.035 248.827C235.587 248.827 236.855 248.543 237.84 247.975C238.824 247.37 239.316 246.593 239.316 245.647C239.316 244.738 238.919 244 238.124 243.432C237.329 242.826 236.022 242.296 234.205 241.842L230.343 240.933C228.223 240.441 226.387 239.532 224.835 238.207C223.32 236.844 222.563 235.084 222.563 232.926C222.563 230.313 223.642 228.25 225.8 226.736C227.958 225.183 230.608 224.407 233.751 224.407C236.363 224.407 238.673 224.956 240.679 226.054C242.724 227.152 244.2 228.742 245.109 230.825L239.6 233.153C239.07 231.979 238.256 231.109 237.158 230.541C236.06 229.973 234.868 229.689 233.581 229.689C232.331 229.689 231.233 229.973 230.287 230.541C229.34 231.071 228.867 231.79 228.867 232.699C228.867 233.494 229.189 234.137 229.832 234.63C230.514 235.122 231.574 235.538 233.013 235.879L237.215 236.901C240.055 237.621 242.175 238.718 243.576 240.195C244.977 241.634 245.677 243.375 245.677 245.42C245.677 247.086 245.166 248.6 244.144 249.963C243.159 251.326 241.777 252.405 239.998 253.2C238.256 253.995 236.269 254.393 234.035 254.393Z" fill="white"/>
<path d="M204.149 254.393C202.143 254.393 200.325 253.995 198.697 253.2C197.107 252.367 195.839 251.231 194.892 249.793C193.984 248.316 193.529 246.65 193.529 244.795C193.529 241.842 194.627 239.514 196.823 237.81C199.057 236.106 201.878 235.254 205.285 235.254C208.276 235.254 210.832 235.765 212.952 236.788V235.595C212.952 233.891 212.27 232.49 210.907 231.392C209.582 230.257 207.973 229.689 206.08 229.689C203.203 229.689 200.893 230.862 199.152 233.21L194.381 229.916C195.706 228.136 197.353 226.774 199.322 225.827C201.329 224.88 203.581 224.407 206.08 224.407C210.207 224.407 213.387 225.448 215.621 227.531C217.893 229.575 219.028 232.472 219.028 236.22V253.484H212.952V250.02H212.611C211.702 251.307 210.548 252.367 209.147 253.2C207.746 253.995 206.08 254.393 204.149 254.393ZM205.171 249.225C206.572 249.225 207.859 248.884 209.033 248.203C210.245 247.483 211.191 246.556 211.873 245.42C212.592 244.246 212.952 242.997 212.952 241.672C210.945 240.574 208.806 240.025 206.534 240.025C204.452 240.025 202.824 240.479 201.65 241.388C200.477 242.296 199.89 243.451 199.89 244.852C199.89 246.139 200.401 247.199 201.423 248.032C202.483 248.827 203.733 249.225 205.171 249.225Z" fill="white"/>
<path d="M177.939 254.393C175.894 254.393 174.058 253.958 172.43 253.087C170.84 252.216 169.648 251.118 168.852 249.793H168.512V253.484H162.605V212.822H168.852V225.032L168.512 228.951H168.852C169.648 227.664 170.84 226.585 172.43 225.714C174.058 224.843 175.894 224.408 177.939 224.408C180.362 224.408 182.596 225.051 184.64 226.338C186.723 227.626 188.37 229.424 189.581 231.734C190.83 234.005 191.455 236.561 191.455 239.4C191.455 242.24 190.83 244.795 189.581 247.067C188.37 249.339 186.723 251.137 184.64 252.462C182.596 253.749 180.362 254.393 177.939 254.393ZM176.86 248.657C178.336 248.657 179.699 248.279 180.949 247.521C182.236 246.764 183.258 245.685 184.016 244.284C184.811 242.846 185.208 241.218 185.208 239.4C185.208 237.583 184.811 235.974 184.016 234.573C183.258 233.134 182.236 232.036 180.949 231.279C179.699 230.522 178.336 230.143 176.86 230.143C175.383 230.143 174.001 230.522 172.714 231.279C171.465 232.036 170.443 233.115 169.648 234.516C168.89 235.917 168.512 237.545 168.512 239.4C168.512 241.255 168.89 242.883 169.648 244.284C170.443 245.685 171.465 246.764 172.714 247.521C174.001 248.279 175.383 248.657 176.86 248.657Z" fill="white"/>
<path d="M145.369 254.393C142.605 254.393 140.106 253.749 137.872 252.462C135.676 251.175 133.954 249.395 132.704 247.124C131.455 244.814 130.83 242.24 130.83 239.4C130.83 236.674 131.417 234.175 132.591 231.904C133.802 229.594 135.487 227.777 137.645 226.452C139.803 225.089 142.264 224.407 145.028 224.407C147.867 224.407 150.328 225.032 152.411 226.281C154.531 227.531 156.14 229.272 157.238 231.506C158.336 233.702 158.885 236.239 158.885 239.116C158.885 239.457 158.866 239.798 158.828 240.138C158.79 240.479 158.771 240.668 158.771 240.706H137.077C137.266 243.281 138.194 245.268 139.86 246.669C141.526 248.07 143.419 248.77 145.539 248.77C148.795 248.77 151.294 247.256 153.035 244.227L158.374 246.783C157.124 249.092 155.383 250.947 153.149 252.348C150.953 253.711 148.359 254.393 145.369 254.393ZM152.524 235.936C152.448 235.027 152.146 234.1 151.615 233.153C151.085 232.206 150.253 231.411 149.117 230.768C148.019 230.086 146.637 229.746 144.971 229.746C143.116 229.746 141.507 230.313 140.144 231.449C138.819 232.585 137.91 234.081 137.418 235.936H152.524Z" fill="white"/>
<path d="M113.494 225.317H119.4V229.519H119.741C120.347 228.081 121.445 226.888 123.035 225.941C124.625 224.957 126.253 224.465 127.919 224.465C129.282 224.465 130.399 224.654 131.27 225.033V231.564C129.982 230.92 128.544 230.598 126.954 230.598C124.909 230.598 123.186 231.393 121.786 232.983C120.423 234.536 119.741 236.448 119.741 238.719V253.485H113.494V225.317Z" fill="white"/>
<path d="M104.578 220.546C103.404 220.546 102.401 220.148 101.568 219.353C100.773 218.52 100.375 217.517 100.375 216.343C100.375 215.169 100.773 214.185 101.568 213.39C102.401 212.557 103.404 212.141 104.578 212.141C105.751 212.141 106.736 212.557 107.531 213.39C108.364 214.185 108.78 215.169 108.78 216.343C108.78 217.517 108.364 218.52 107.531 219.353C106.736 220.148 105.751 220.546 104.578 220.546ZM101.454 225.316H107.701V253.484H101.454V225.316Z" fill="white"/>
<path d="M73 212.822H97.704V218.899H79.3606V230.598H95.8867V236.618H79.3606V253.484H73V212.822Z" fill="white"/>
<path d="M2.57471 269.099H14.8764C19.053 269.099 22.6979 269.972 25.8113 271.719C28.9247 273.427 31.3167 275.819 32.9873 278.895C34.6579 281.97 35.4932 285.501 35.4932 289.488C35.4932 293.475 34.6579 297.006 32.9873 300.081C31.3167 303.157 28.9247 305.568 25.8113 307.314C22.6979 309.023 19.053 309.877 14.8764 309.877H2.57471V269.099ZM14.8764 305.264C19.6984 305.264 23.5142 303.878 26.3239 301.106C29.1715 298.335 30.5953 294.462 30.5953 289.488C30.5953 284.514 29.1715 280.641 26.3239 277.87C23.5142 275.098 19.6984 273.712 14.8764 273.712H7.35872V305.264H14.8764ZM49.1187 308.054L37.1017 280.831H42.3413L51.4537 302.416H51.5676L60.3383 280.831H65.5779L47.6379 322.179H42.6261L49.1187 308.054ZM68.4612 280.831H73.0743V285.103H73.3021C74.0995 283.66 75.3714 282.445 77.1179 281.458C78.8645 280.433 80.7249 279.92 82.6993 279.92C86.1924 279.92 88.8501 280.945 90.6726 282.995C92.5331 285.008 93.4633 287.76 93.4633 291.253V309.877H88.6223V291.994C88.6223 289.298 87.9769 287.343 86.686 286.128C85.395 284.913 83.6295 284.305 81.3894 284.305C79.8327 284.305 78.4278 284.742 77.1749 285.615C75.9599 286.488 75.0107 287.647 74.3273 289.089C73.6438 290.494 73.3021 291.975 73.3021 293.532V309.877H68.4612V280.831ZM108.252 310.788C106.126 310.788 104.227 310.371 102.557 309.535C100.886 308.7 99.595 307.561 98.6838 306.118C97.7726 304.637 97.3169 302.967 97.3169 301.106C97.3169 298.031 98.475 295.639 100.791 293.93C103.107 292.184 106.031 291.31 109.562 291.31C111.308 291.31 112.922 291.5 114.403 291.88C115.921 292.26 117.079 292.696 117.877 293.19V291.424C117.877 289.26 117.117 287.533 115.599 286.242C114.08 284.913 112.163 284.248 109.846 284.248C108.214 284.248 106.714 284.609 105.347 285.33C103.98 286.014 102.898 286.982 102.101 288.235L98.456 285.501C99.595 283.755 101.152 282.388 103.126 281.401C105.138 280.414 107.36 279.92 109.79 279.92C113.738 279.92 116.833 280.964 119.073 283.052C121.351 285.103 122.49 287.912 122.49 291.481V309.877H117.877V305.719H117.649C116.814 307.124 115.561 308.32 113.89 309.307C112.219 310.295 110.34 310.788 108.252 310.788ZM108.707 306.517C110.34 306.517 111.859 306.099 113.264 305.264C114.668 304.428 115.789 303.308 116.624 301.904C117.459 300.499 117.877 298.961 117.877 297.29C116.966 296.683 115.845 296.189 114.517 295.81C113.188 295.43 111.783 295.24 110.302 295.24C107.644 295.24 105.632 295.791 104.265 296.892C102.936 297.993 102.272 299.417 102.272 301.163C102.272 302.758 102.879 304.049 104.094 305.036C105.309 306.023 106.847 306.517 108.707 306.517ZM128.086 280.831H132.699V285.103H132.926C133.762 283.622 135.015 282.388 136.685 281.401C138.356 280.414 140.121 279.92 141.982 279.92C144.108 279.92 145.95 280.433 147.506 281.458C149.101 282.483 150.24 283.85 150.923 285.558C151.949 283.85 153.296 282.483 154.967 281.458C156.676 280.433 158.65 279.92 160.89 279.92C164.231 279.92 166.737 280.945 168.408 282.995C170.116 285.008 170.971 287.76 170.971 291.253V309.877H166.187V291.994C166.187 289.298 165.636 287.343 164.535 286.128C163.434 284.913 161.801 284.305 159.637 284.305C158.194 284.305 156.884 284.723 155.707 285.558C154.53 286.394 153.6 287.514 152.917 288.918C152.271 290.323 151.949 291.842 151.949 293.475V309.877H147.108V292.051C147.108 289.317 146.557 287.343 145.456 286.128C144.355 284.913 142.741 284.305 140.615 284.305C139.172 284.305 137.862 284.742 136.685 285.615C135.508 286.451 134.578 287.59 133.895 289.032C133.249 290.437 132.926 291.956 132.926 293.589V309.877H128.086V280.831ZM179.627 275.478C178.678 275.478 177.862 275.136 177.179 274.453C176.495 273.769 176.153 272.953 176.153 272.004C176.153 271.054 176.495 270.257 177.179 269.612C177.862 268.928 178.678 268.586 179.627 268.586C180.577 268.586 181.393 268.928 182.076 269.612C182.76 270.257 183.102 271.054 183.102 272.004C183.102 272.953 182.76 273.769 182.076 274.453C181.431 275.136 180.615 275.478 179.627 275.478ZM177.235 280.831H182.019V309.877H177.235V280.831ZM201.366 310.788C198.557 310.788 196.032 310.124 193.792 308.795C191.552 307.428 189.805 305.587 188.552 303.27C187.299 300.916 186.673 298.278 186.673 295.354C186.673 292.431 187.299 289.792 188.552 287.438C189.805 285.084 191.552 283.242 193.792 281.913C196.032 280.584 198.557 279.92 201.366 279.92C204.518 279.92 207.157 280.66 209.283 282.141C211.447 283.584 212.985 285.52 213.896 287.95L209.511 289.773C208.789 287.988 207.707 286.64 206.264 285.729C204.86 284.78 203.151 284.305 201.139 284.305C199.43 284.305 197.835 284.78 196.355 285.729C194.874 286.64 193.678 287.931 192.767 289.602C191.893 291.272 191.457 293.19 191.457 295.354C191.457 297.518 191.893 299.436 192.767 301.106C193.678 302.777 194.874 304.087 196.355 305.036C197.835 305.947 199.43 306.403 201.139 306.403C203.189 306.403 204.954 305.928 206.435 304.979C207.916 304.03 209.017 302.682 209.738 300.935L214.067 302.758C213.08 305.15 211.485 307.086 209.283 308.567C207.119 310.048 204.48 310.788 201.366 310.788ZM231.228 269.099H236.012V305.264H253.895V309.877H231.228V269.099ZM260.945 275.478C259.996 275.478 259.179 275.136 258.496 274.453C257.813 273.769 257.471 272.953 257.471 272.004C257.471 271.054 257.813 270.257 258.496 269.612C259.179 268.928 259.996 268.586 260.945 268.586C261.894 268.586 262.71 268.928 263.394 269.612C264.077 270.257 264.419 271.054 264.419 272.004C264.419 272.953 264.077 273.769 263.394 274.453C262.748 275.136 261.932 275.478 260.945 275.478ZM258.553 280.831H263.337V309.877H258.553V280.831ZM269.806 280.831H274.419V285.103H274.647C275.444 283.66 276.716 282.445 278.463 281.458C280.209 280.433 282.07 279.92 284.044 279.92C287.537 279.92 290.195 280.945 292.017 282.995C293.878 285.008 294.808 287.76 294.808 291.253V309.877H289.967V291.994C289.967 289.298 289.322 287.343 288.031 286.128C286.74 284.913 284.974 284.305 282.734 284.305C281.177 284.305 279.773 284.742 278.52 285.615C277.305 286.488 276.355 287.647 275.672 289.089C274.989 290.494 274.647 291.975 274.647 293.532V309.877H269.806V280.831ZM300.591 269.099H305.432V294.728L319.101 280.831H325.252V281.059L313.861 292.563L325.537 309.649V309.877H319.784L310.444 295.924L305.432 300.935V309.877H300.591V269.099ZM337.788 310.788C334.675 310.788 332.074 310.067 329.986 308.624C327.897 307.143 326.417 305.264 325.543 302.986L329.872 301.049C330.593 302.796 331.656 304.144 333.061 305.093C334.504 306.042 336.08 306.517 337.788 306.517C339.611 306.517 341.167 306.156 342.458 305.435C343.749 304.675 344.395 303.612 344.395 302.245C344.395 301.03 343.882 300.062 342.857 299.341C341.832 298.581 340.218 297.936 338.016 297.404L334.485 296.493C332.169 295.924 330.27 294.955 328.79 293.589C327.309 292.222 326.568 290.456 326.568 288.292C326.568 286.621 327.062 285.16 328.049 283.907C329.074 282.616 330.422 281.629 332.093 280.945C333.763 280.262 335.567 279.92 337.503 279.92C340.047 279.92 342.306 280.47 344.281 281.572C346.293 282.673 347.717 284.21 348.552 286.185L344.338 288.121C343.047 285.539 340.75 284.248 337.446 284.248C335.852 284.248 334.447 284.628 333.232 285.387C332.055 286.109 331.466 287.039 331.466 288.178C331.466 289.241 331.884 290.114 332.719 290.798C333.555 291.443 334.808 291.975 336.478 292.393L340.693 293.475C343.54 294.196 345.686 295.278 347.128 296.721C348.571 298.126 349.293 299.853 349.293 301.904C349.293 303.688 348.78 305.264 347.755 306.631C346.73 307.96 345.344 308.985 343.597 309.706C341.851 310.427 339.914 310.788 337.788 310.788Z" fill="white"/>
<path d="M246.017 99.803V99.7458C246.016 99.7242 246.016 99.7027 246.017 99.6812C244.295 88.4617 239.829 78.1267 233.904 68.8306C233.159 67.6552 232.384 66.4997 231.592 65.3516C231.207 64.795 230.817 64.2434 230.422 63.6967C222.803 53.1207 198.739 24.3674 186.097 9.3757C181.315 3.70257 178.168 0 178.168 0C176.742 1.14308 175.349 2.32259 173.987 3.53856L173.94 3.58079C164.081 12.7989 155.906 23.667 149.782 35.6962L149.762 35.7336C148.583 38.0528 147.482 40.4135 146.458 42.8157C144.091 48.3804 142.166 54.1236 140.703 59.9916C139.815 63.5384 139.096 67.1474 138.546 70.8185C135.521 70.3234 132.465 70.0361 129.4 69.9587C128.82 69.9438 128.241 69.9363 127.661 69.9363C122.653 69.9326 117.66 70.4911 112.776 71.6013C109.787 76.4304 107.38 81.597 105.607 86.9931C103.21 94.296 101.992 101.935 102 109.621C102 144.753 127.025 174.043 160.218 180.616C164.873 181.538 169.607 182.002 174.352 182C175.289 182 176.221 181.98 177.15 181.948C179.589 181.852 181.994 181.64 184.366 181.312C189.892 180.545 195.311 179.139 200.513 177.122C201.899 176.585 203.263 176.006 204.607 175.383C229.448 163.925 246.705 138.787 246.705 109.621C246.695 106.337 246.466 103.057 246.017 99.803ZM150.999 164.856C143.875 161.846 137.404 157.48 131.944 152.002C126.469 146.54 122.105 140.067 119.096 132.942C115.974 125.561 114.374 117.626 114.391 109.611C114.373 101.596 115.974 93.6592 119.096 86.2774C119.593 85.0912 120.13 83.9266 120.708 82.7836C123.004 82.4955 125.317 82.351 127.631 82.3511C130.887 82.3508 134.136 82.6386 137.342 83.211C137.272 84.8287 137.237 86.4613 137.237 88.0988C137.193 118.565 149.202 147.811 170.641 169.451C163.88 169.053 157.236 167.499 150.999 164.856ZM177.579 158.746C176.125 157.2 174.727 155.615 173.384 153.99C166.945 146.237 161.683 137.578 157.769 128.29C152.389 115.572 149.63 101.899 149.658 88.0889C149.658 87.7128 149.658 87.3376 149.658 86.9632C155.812 89.694 161.408 93.541 166.162 98.3095C173.533 105.644 178.637 114.946 180.863 125.105C181.705 128.965 182.128 132.905 182.125 136.856C182.148 144.388 180.606 151.842 177.597 158.746H177.579ZM234.319 111.686C233.94 122.957 230.384 133.892 224.062 143.23C218.925 150.813 212.129 157.127 204.189 161.693L204.11 161.656C202.023 162.852 199.866 163.92 197.651 164.856C194.891 166.024 192.047 166.982 189.143 167.722C188.626 167.854 188.108 167.978 187.588 168.094C187.307 168.159 187.029 168.221 186.748 168.278C186.858 168.079 186.964 167.873 187.069 167.669C187.23 167.359 187.389 167.048 187.543 166.735C189.44 162.941 190.967 158.973 192.104 154.887C193.736 149.021 194.561 142.96 194.556 136.871C194.558 132.441 194.123 128.022 193.257 123.678C188.654 100.653 172.243 81.8964 150.612 73.9794C151.608 66.6557 153.396 59.4619 155.945 52.5244C156.516 50.9721 157.125 49.4306 157.771 47.8998C158.745 45.5938 159.798 43.3325 160.931 41.1159C160.938 41.1049 160.943 41.0932 160.948 41.0812C161.413 40.1145 161.892 39.1628 162.389 38.2135C166.288 30.7861 171.204 23.9388 176.993 17.8692L177.09 17.9861C182.222 24.0742 189.091 32.2646 195.932 40.5171C199.432 44.7415 202.925 48.9833 206.174 52.9716C212.268 60.4538 217.504 67.0439 220.334 70.9577C220.738 71.5193 221.133 72.0784 221.521 72.645C225.585 78.5467 228.725 84.5131 230.854 90.4148C232.207 94.136 233.183 97.9838 233.768 101.9V101.95C234.246 105.172 234.432 108.43 234.324 111.686H234.319Z" fill="white"/>
<g filter="url(#filter0_d_57_8222)">
<circle cx="250" cy="137" r="45" fill="white"/>
<path d="M234.897 152.101C233.366 150.567 232.507 148.489 232.507 146.322C232.507 144.155 233.366 142.077 234.897 140.543L242.356 133.085L238.813 129.544L231.359 137C228.888 139.473 227.5 142.825 227.5 146.321C227.5 149.816 228.888 153.169 231.359 155.641C233.832 158.112 237.185 159.5 240.681 159.5C244.177 159.5 247.53 158.112 250.003 155.641L257.459 148.186L253.918 144.643L246.459 152.101C244.925 153.632 242.847 154.491 240.679 154.491C238.512 154.491 236.434 153.632 234.9 152.101H234.897ZM244.408 146.322L259.323 131.408L255.592 127.678L240.677 142.592L244.408 146.322ZM250 118.359L242.544 125.814L246.085 129.357L253.544 121.899C255.078 120.368 257.156 119.509 259.323 119.509C261.49 119.509 263.569 120.368 265.103 121.899C266.634 123.433 267.493 125.511 267.493 127.678C267.493 129.845 266.634 131.923 265.103 133.457L257.644 140.915L261.187 144.456L268.641 137C271.112 134.527 272.5 131.175 272.5 127.679C272.5 124.184 271.112 120.831 268.641 118.359C266.168 115.888 262.815 114.5 259.319 114.5C255.823 114.5 252.47 115.888 249.997 118.359H250Z" fill="#1F1F1F"/>
</g>
<defs>
<filter id="filter0_d_57_8222" x="199" y="88.0029" width="102" height="102" filterUnits="userSpaceOnUse" color-interpolation-filters="sRGB">
<feFlood flood-opacity="0" result="BackgroundImageFix"/>
<feColorMatrix in="SourceAlpha" type="matrix" values="0 0 0 0 0 0 0 0 0 0 0 0 0 0 0 0 0 0 127 0" result="hardAlpha"/>
<feOffset dy="2.0029"/>
<feGaussianBlur stdDeviation="3"/>
<feComposite in2="hardAlpha" operator="out"/>
<feColorMatrix type="matrix" values="0 0 0 0 0 0 0 0 0 0 0 0 0 0 0 0 0 0 0.3 0"/>
<feBlend mode="normal" in2="BackgroundImageFix" result="effect1_dropShadow_57_8222"/>
<feBlend mode="normal" in="SourceGraphic" in2="effect1_dropShadow_57_8222" result="shape"/>
</filter>
</defs>
</svg>
