<svg width="367" height="327" viewBox="0 0 367 327" fill="none" xmlns="http://www.w3.org/2000/svg">
<path d="M271.285 254.393C268.521 254.393 266.022 253.749 263.788 252.462C261.592 251.175 259.87 249.395 258.62 247.124C257.371 244.814 256.746 242.24 256.746 239.4C256.746 236.674 257.333 234.175 258.507 231.904C259.718 229.594 261.403 227.777 263.561 226.452C265.719 225.089 268.18 224.407 270.944 224.407C273.783 224.407 276.244 225.032 278.327 226.281C280.447 227.531 282.056 229.272 283.154 231.506C284.252 233.702 284.801 236.239 284.801 239.116C284.801 239.457 284.782 239.798 284.744 240.138C284.706 240.479 284.687 240.668 284.687 240.706H262.993C263.182 243.281 264.11 245.268 265.776 246.669C267.442 248.07 269.335 248.77 271.455 248.77C274.711 248.77 277.21 247.256 278.951 244.227L284.29 246.783C283.04 249.092 281.299 250.947 279.065 252.348C276.869 253.711 274.275 254.393 271.285 254.393ZM278.44 235.936C278.364 235.027 278.062 234.1 277.531 233.153C277.001 232.206 276.169 231.411 275.033 230.768C273.935 230.086 272.553 229.746 270.887 229.746C269.032 229.746 267.423 230.313 266.06 231.449C264.735 232.585 263.826 234.081 263.334 235.936H278.44Z" fill="white"/>
<path d="M243.035 254.393C239.817 254.393 237.148 253.654 235.027 252.178C232.945 250.663 231.468 248.77 230.598 246.499L236.163 244.114C236.807 245.666 237.734 246.84 238.946 247.635C240.195 248.43 241.558 248.827 243.035 248.827C244.587 248.827 245.855 248.543 246.84 247.975C247.824 247.37 248.316 246.593 248.316 245.647C248.316 244.738 247.919 244 247.124 243.432C246.329 242.826 245.022 242.296 243.205 241.842L239.343 240.933C237.223 240.441 235.387 239.532 233.835 238.207C232.32 236.844 231.563 235.084 231.563 232.926C231.563 230.313 232.642 228.25 234.8 226.736C236.958 225.183 239.608 224.407 242.751 224.407C245.363 224.407 247.673 224.956 249.679 226.054C251.724 227.152 253.2 228.742 254.109 230.825L248.6 233.153C248.07 231.979 247.256 231.109 246.158 230.541C245.06 229.973 243.868 229.689 242.581 229.689C241.331 229.689 240.233 229.973 239.287 230.541C238.34 231.071 237.867 231.79 237.867 232.699C237.867 233.494 238.189 234.137 238.832 234.63C239.514 235.122 240.574 235.538 242.013 235.879L246.215 236.901C249.055 237.621 251.175 238.718 252.576 240.195C253.977 241.634 254.677 243.375 254.677 245.42C254.677 247.086 254.166 248.6 253.144 249.963C252.159 251.326 250.777 252.405 248.998 253.2C247.256 253.995 245.269 254.393 243.035 254.393Z" fill="white"/>
<path d="M213.149 254.393C211.143 254.393 209.325 253.995 207.697 253.2C206.107 252.367 204.839 251.231 203.892 249.793C202.984 248.316 202.529 246.65 202.529 244.795C202.529 241.842 203.627 239.514 205.823 237.81C208.057 236.106 210.878 235.254 214.285 235.254C217.276 235.254 219.832 235.765 221.952 236.788V235.595C221.952 233.891 221.27 232.49 219.907 231.392C218.582 230.257 216.973 229.689 215.08 229.689C212.203 229.689 209.893 230.862 208.152 233.21L203.381 229.916C204.706 228.136 206.353 226.774 208.322 225.827C210.329 224.88 212.581 224.407 215.08 224.407C219.207 224.407 222.387 225.448 224.621 227.531C226.893 229.575 228.028 232.472 228.028 236.22V253.484H221.952V250.02H221.611C220.702 251.307 219.548 252.367 218.147 253.2C216.746 253.995 215.08 254.393 213.149 254.393ZM214.171 249.225C215.572 249.225 216.859 248.884 218.033 248.203C219.245 247.483 220.191 246.556 220.873 245.42C221.592 244.246 221.952 242.997 221.952 241.672C219.945 240.574 217.806 240.025 215.534 240.025C213.452 240.025 211.824 240.479 210.65 241.388C209.477 242.296 208.89 243.451 208.89 244.852C208.89 246.139 209.401 247.199 210.423 248.032C211.483 248.827 212.733 249.225 214.171 249.225Z" fill="white"/>
<path d="M186.939 254.393C184.894 254.393 183.058 253.958 181.43 253.087C179.84 252.216 178.648 251.118 177.852 249.793H177.512V253.484H171.605V212.822H177.852V225.032L177.512 228.951H177.852C178.648 227.664 179.84 226.585 181.43 225.714C183.058 224.843 184.894 224.408 186.939 224.408C189.362 224.408 191.596 225.051 193.64 226.338C195.723 227.626 197.37 229.424 198.581 231.734C199.83 234.005 200.455 236.561 200.455 239.4C200.455 242.24 199.83 244.795 198.581 247.067C197.37 249.339 195.723 251.137 193.64 252.462C191.596 253.749 189.362 254.393 186.939 254.393ZM185.86 248.657C187.336 248.657 188.699 248.279 189.949 247.521C191.236 246.764 192.258 245.685 193.016 244.284C193.811 242.846 194.208 241.218 194.208 239.4C194.208 237.583 193.811 235.974 193.016 234.573C192.258 233.134 191.236 232.036 189.949 231.279C188.699 230.522 187.336 230.143 185.86 230.143C184.383 230.143 183.001 230.522 181.714 231.279C180.465 232.036 179.443 233.115 178.648 234.516C177.89 235.917 177.512 237.545 177.512 239.4C177.512 241.255 177.89 242.883 178.648 244.284C179.443 245.685 180.465 246.764 181.714 247.521C183.001 248.279 184.383 248.657 185.86 248.657Z" fill="white"/>
<path d="M154.369 254.393C151.605 254.393 149.106 253.749 146.872 252.462C144.676 251.175 142.954 249.395 141.704 247.124C140.455 244.814 139.83 242.24 139.83 239.4C139.83 236.674 140.417 234.175 141.591 231.904C142.802 229.594 144.487 227.777 146.645 226.452C148.803 225.089 151.264 224.407 154.028 224.407C156.867 224.407 159.328 225.032 161.411 226.281C163.531 227.531 165.14 229.272 166.238 231.506C167.336 233.702 167.885 236.239 167.885 239.116C167.885 239.457 167.866 239.798 167.828 240.138C167.79 240.479 167.771 240.668 167.771 240.706H146.077C146.266 243.281 147.194 245.268 148.86 246.669C150.526 248.07 152.419 248.77 154.539 248.77C157.795 248.77 160.294 247.256 162.035 244.227L167.374 246.783C166.124 249.092 164.383 250.947 162.149 252.348C159.953 253.711 157.359 254.393 154.369 254.393ZM161.524 235.936C161.448 235.027 161.146 234.1 160.615 233.153C160.085 232.206 159.253 231.411 158.117 230.768C157.019 230.086 155.637 229.746 153.971 229.746C152.116 229.746 150.507 230.313 149.144 231.449C147.819 232.585 146.91 234.081 146.418 235.936H161.524Z" fill="white"/>
<path d="M122.494 225.316H128.4V229.519H128.741C129.347 228.08 130.445 226.887 132.035 225.941C133.625 224.957 135.253 224.464 136.919 224.464C138.282 224.464 139.399 224.654 140.27 225.032V231.563C138.982 230.92 137.544 230.598 135.954 230.598C133.909 230.598 132.186 231.393 130.786 232.983C129.423 234.535 128.741 236.447 128.741 238.719V253.484H122.494V225.316Z" fill="white"/>
<path d="M113.578 220.546C112.404 220.546 111.401 220.148 110.568 219.353C109.773 218.52 109.375 217.517 109.375 216.343C109.375 215.169 109.773 214.185 110.568 213.39C111.401 212.557 112.404 212.141 113.578 212.141C114.751 212.141 115.736 212.557 116.531 213.39C117.364 214.185 117.78 215.169 117.78 216.343C117.78 217.517 117.364 218.52 116.531 219.353C115.736 220.148 114.751 220.546 113.578 220.546ZM110.454 225.316H116.701V253.484H110.454V225.316Z" fill="white"/>
<path d="M82 212.822H106.704V218.898H88.3606V230.597H104.887V236.617H88.3606V253.484H82V212.822Z" fill="white"/>
<path d="M1.82828 269.099H15.6108C17.8509 269.099 19.9392 269.612 21.8755 270.637C23.8119 271.662 25.3497 273.105 26.4887 274.965C27.6657 276.788 28.2542 278.857 28.2542 281.173C28.2542 283.071 27.8176 284.837 26.9443 286.469C26.109 288.102 24.932 289.469 23.4133 290.57C21.9325 291.671 20.2809 292.412 18.4584 292.791L18.3445 292.962L29.8489 309.649V309.877H24.1537L13.0479 293.247H6.61229V309.877H1.82828V269.099ZM15.326 288.748C16.7308 288.748 18.0407 288.425 19.2557 287.779C20.5087 287.134 21.4959 286.242 22.2173 285.103C22.9766 283.926 23.3563 282.616 23.3563 281.173C23.3563 279.92 23.0336 278.724 22.3881 277.585C21.7427 276.446 20.8314 275.516 19.6544 274.794C18.5154 274.073 17.1865 273.712 15.6677 273.712H6.61229V288.748H15.326ZM45.4637 310.788C42.692 310.788 40.2051 310.124 38.0029 308.795C35.8007 307.466 34.0732 305.643 32.8202 303.327C31.6052 300.973 30.9977 298.335 30.9977 295.411C30.9977 292.601 31.5673 290.02 32.7063 287.665C33.8833 285.311 35.5349 283.432 37.6612 282.027C39.7874 280.622 42.2553 279.92 45.065 279.92C47.9126 279.92 50.3806 280.565 52.4688 281.856C54.5571 283.109 56.1517 284.856 57.2528 287.096C58.3919 289.336 58.9614 291.899 58.9614 294.785C58.9614 295.354 58.9044 295.848 58.7905 296.265H35.8387C35.9526 298.467 36.4842 300.328 37.4334 301.847C38.3826 303.365 39.5786 304.504 41.0214 305.264C42.5021 306.023 44.0399 306.403 45.6345 306.403C49.3554 306.403 52.222 304.656 54.2343 301.163L58.3349 303.157C57.082 305.511 55.3734 307.371 53.2092 308.738C51.083 310.105 48.5011 310.788 45.4637 310.788ZM53.8357 292.279C53.7597 291.064 53.418 289.849 52.8105 288.634C52.203 287.419 51.2348 286.394 49.906 285.558C48.615 284.723 46.9824 284.305 45.008 284.305C42.7299 284.305 40.7936 285.046 39.1989 286.526C37.6422 287.969 36.617 289.887 36.1235 292.279H53.8357ZM63.4878 280.831H68.1009V285.103H68.3287C69.164 283.622 70.417 282.388 72.0876 281.401C73.7582 280.414 75.5237 279.92 77.3842 279.92C79.5104 279.92 81.3519 280.433 82.9086 281.458C84.5033 282.483 85.6423 283.85 86.3257 285.558C87.3509 283.85 88.6988 282.483 90.3694 281.458C92.0779 280.433 94.0523 279.92 96.2924 279.92C99.6336 279.92 102.14 280.945 103.81 282.995C105.519 285.008 106.373 287.76 106.373 291.253V309.877H101.589V291.994C101.589 289.298 101.038 287.343 99.9374 286.128C98.8363 284.913 97.2037 284.305 95.0395 284.305C93.5967 284.305 92.2868 284.723 91.1097 285.558C89.9327 286.394 89.0025 287.514 88.3191 288.918C87.6736 290.323 87.3509 291.842 87.3509 293.475V309.877H82.5099V292.051C82.5099 289.317 81.9594 287.343 80.8583 286.128C79.7572 284.913 78.1436 284.305 76.0173 284.305C74.5745 284.305 73.2646 284.742 72.0876 285.615C70.9106 286.451 69.9804 287.59 69.2969 289.032C68.6515 290.437 68.3287 291.956 68.3287 293.589V309.877H63.4878V280.831ZM125.566 310.788C122.718 310.788 120.155 310.105 117.877 308.738C115.599 307.371 113.815 305.511 112.524 303.157C111.271 300.803 110.644 298.202 110.644 295.354C110.644 292.506 111.271 289.906 112.524 287.552C113.815 285.198 115.599 283.337 117.877 281.97C120.155 280.603 122.718 279.92 125.566 279.92C128.414 279.92 130.976 280.603 133.255 281.97C135.533 283.337 137.298 285.198 138.551 287.552C139.842 289.906 140.488 292.506 140.488 295.354C140.488 298.202 139.842 300.803 138.551 303.157C137.298 305.511 135.533 307.371 133.255 308.738C130.976 310.105 128.414 310.788 125.566 310.788ZM125.566 306.403C127.35 306.403 129.002 305.966 130.521 305.093C132.078 304.182 133.312 302.891 134.223 301.22C135.172 299.55 135.647 297.594 135.647 295.354C135.647 293.114 135.172 291.159 134.223 289.488C133.312 287.817 132.078 286.545 130.521 285.672C129.002 284.761 127.35 284.305 125.566 284.305C123.781 284.305 122.111 284.761 120.554 285.672C118.997 286.545 117.745 287.817 116.795 289.488C115.884 291.159 115.428 293.114 115.428 295.354C115.428 297.594 115.884 299.55 116.795 301.22C117.745 302.891 118.997 304.182 120.554 305.093C122.111 305.966 123.781 306.403 125.566 306.403ZM155.298 310.333C154.121 310.333 153.02 310.143 151.995 309.763C151.008 309.383 150.173 308.871 149.489 308.225C148.73 307.504 148.16 306.669 147.781 305.719C147.401 304.77 147.211 303.612 147.211 302.245V285.217H142.142V280.831H147.211V272.63H152.052V280.831H159.114V285.217H152.052V301.049C152.052 302.644 152.356 303.821 152.963 304.58C153.685 305.416 154.729 305.833 156.096 305.833C157.197 305.833 158.26 305.511 159.285 304.865V309.592C158.715 309.858 158.127 310.048 157.519 310.162C156.95 310.276 156.21 310.333 155.298 310.333ZM175.502 310.788C172.73 310.788 170.244 310.124 168.041 308.795C165.839 307.466 164.112 305.643 162.859 303.327C161.644 300.973 161.036 298.335 161.036 295.411C161.036 292.601 161.606 290.02 162.745 287.665C163.922 285.311 165.573 283.432 167.7 282.027C169.826 280.622 172.294 279.92 175.104 279.92C177.951 279.92 180.419 280.565 182.507 281.856C184.596 283.109 186.19 284.856 187.291 287.096C188.43 289.336 189 291.899 189 294.785C189 295.354 188.943 295.848 188.829 296.265H165.877C165.991 298.467 166.523 300.328 167.472 301.847C168.421 303.365 169.617 304.504 171.06 305.264C172.541 306.023 174.078 306.403 175.673 306.403C179.394 306.403 182.261 304.656 184.273 301.163L188.373 303.157C187.12 305.511 185.412 307.371 183.248 308.738C181.121 310.105 178.54 310.788 175.502 310.788ZM183.874 292.279C183.798 291.064 183.457 289.849 182.849 288.634C182.242 287.419 181.273 286.394 179.944 285.558C178.654 284.723 177.021 284.305 175.047 284.305C172.768 284.305 170.832 285.046 169.237 286.526C167.681 287.969 166.656 289.887 166.162 292.279H183.874ZM224.616 310.788C220.667 310.788 217.079 309.858 213.852 307.998C210.625 306.137 208.081 303.593 206.22 300.366C204.398 297.101 203.487 293.475 203.487 289.488C203.487 285.501 204.398 281.894 206.22 278.667C208.081 275.402 210.625 272.839 213.852 270.978C217.079 269.118 220.667 268.188 224.616 268.188C227.654 268.188 230.425 268.776 232.931 269.953C235.475 271.092 237.677 272.725 239.538 274.851L236.064 278.211C234.507 276.351 232.798 274.984 230.938 274.111C229.115 273.238 227.008 272.801 224.616 272.801C221.655 272.801 218.94 273.503 216.472 274.908C214.004 276.275 212.03 278.23 210.549 280.774C209.106 283.28 208.385 286.185 208.385 289.488C208.385 292.791 209.106 295.715 210.549 298.259C212.03 300.765 214.004 302.72 216.472 304.125C218.94 305.492 221.655 306.175 224.616 306.175C229.552 306.175 233.748 304.144 237.203 300.081L240.734 303.498C238.835 305.738 236.5 307.523 233.729 308.852C230.957 310.143 227.919 310.788 224.616 310.788ZM257.858 310.788C255.011 310.788 252.448 310.105 250.17 308.738C247.891 307.371 246.107 305.511 244.816 303.157C243.563 300.803 242.937 298.202 242.937 295.354C242.937 292.506 243.563 289.906 244.816 287.552C246.107 285.198 247.891 283.337 250.17 281.97C252.448 280.603 255.011 279.92 257.858 279.92C260.706 279.92 263.269 280.603 265.547 281.97C267.825 283.337 269.59 285.198 270.843 287.552C272.134 289.906 272.78 292.506 272.78 295.354C272.78 298.202 272.134 300.803 270.843 303.157C269.59 305.511 267.825 307.371 265.547 308.738C263.269 310.105 260.706 310.788 257.858 310.788ZM257.858 306.403C259.643 306.403 261.294 305.966 262.813 305.093C264.37 304.182 265.604 302.891 266.515 301.22C267.464 299.55 267.939 297.594 267.939 295.354C267.939 293.114 267.464 291.159 266.515 289.488C265.604 287.817 264.37 286.545 262.813 285.672C261.294 284.761 259.643 284.305 257.858 284.305C256.074 284.305 254.403 284.761 252.846 285.672C251.29 286.545 250.037 287.817 249.087 289.488C248.176 291.159 247.721 293.114 247.721 295.354C247.721 297.594 248.176 299.55 249.087 301.22C250.037 302.891 251.29 304.182 252.846 305.093C254.403 305.966 256.074 306.403 257.858 306.403ZM276.706 280.831H281.319V285.103H281.547C282.344 283.66 283.616 282.445 285.363 281.458C287.109 280.433 288.97 279.92 290.944 279.92C294.437 279.92 297.095 280.945 298.917 282.995C300.778 285.008 301.708 287.76 301.708 291.253V309.877H296.867V291.994C296.867 289.298 296.222 287.343 294.931 286.128C293.64 284.913 291.874 284.305 289.634 284.305C288.077 284.305 286.673 284.742 285.42 285.615C284.205 286.488 283.255 287.647 282.572 289.089C281.889 290.494 281.547 291.975 281.547 293.532V309.877H276.706V280.831ZM310.295 285.217H304.942V280.831H310.295V277.699C310.295 275.876 310.713 274.282 311.548 272.915C312.384 271.548 313.504 270.504 314.909 269.782C316.313 269.023 317.87 268.643 319.579 268.643C321.211 268.643 322.635 268.871 323.85 269.327V274.054C323.167 273.788 322.521 273.579 321.914 273.427C321.306 273.238 320.585 273.143 319.749 273.143C318.497 273.143 317.414 273.598 316.503 274.509C315.592 275.383 315.136 276.617 315.136 278.211V280.831H333.133V309.877H328.349V285.217H315.136V309.877H310.295V285.217ZM330.741 275.762C329.792 275.762 328.976 275.421 328.292 274.737C327.609 274.054 327.267 273.238 327.267 272.288C327.267 271.339 327.609 270.523 328.292 269.839C328.976 269.156 329.792 268.814 330.741 268.814C331.691 268.814 332.507 269.156 333.19 269.839C333.874 270.523 334.215 271.339 334.215 272.288C334.215 273.238 333.874 274.054 333.19 274.737C332.545 275.421 331.728 275.762 330.741 275.762ZM352.091 323.09C348.674 323.09 345.845 322.293 343.605 320.698C341.403 319.103 339.922 317.186 339.163 314.946L343.548 313.066C344.193 314.737 345.257 316.085 346.737 317.11C348.256 318.173 350.041 318.705 352.091 318.705C355.09 318.705 357.406 317.831 359.039 316.085C360.71 314.338 361.545 311.87 361.545 308.681V305.435H361.317C360.368 306.915 359.02 308.13 357.274 309.08C355.565 309.991 353.61 310.446 351.407 310.446C348.902 310.446 346.604 309.801 344.516 308.51C342.466 307.219 340.833 305.416 339.618 303.1C338.403 300.784 337.796 298.145 337.796 295.183C337.796 292.26 338.403 289.64 339.618 287.324C340.833 284.97 342.466 283.147 344.516 281.856C346.604 280.565 348.902 279.92 351.407 279.92C353.61 279.92 355.565 280.395 357.274 281.344C359.02 282.255 360.368 283.47 361.317 284.989H361.545V280.831H366.158V308.738C366.158 313.408 364.867 316.958 362.285 319.388C359.704 321.856 356.305 323.09 352.091 323.09ZM352.091 306.061C353.837 306.061 355.413 305.625 356.818 304.751C358.261 303.878 359.4 302.625 360.235 300.992C361.108 299.36 361.545 297.423 361.545 295.183C361.545 292.905 361.108 290.95 360.235 289.317C359.4 287.684 358.261 286.451 356.818 285.615C355.413 284.742 353.837 284.305 352.091 284.305C350.344 284.305 348.75 284.742 347.307 285.615C345.864 286.488 344.706 287.741 343.833 289.374C342.997 291.007 342.58 292.943 342.58 295.183C342.58 297.423 342.997 299.379 343.833 301.049C344.706 302.682 345.864 303.935 347.307 304.808C348.75 305.643 350.344 306.061 352.091 306.061Z" fill="white"/>
<path d="M156.196 176.072C163.728 179.103 171.9 180.902 180.48 181.202C192.092 181.607 203.135 179.206 213.006 174.646C201.169 169.995 190.448 163.193 181.298 154.737C175.366 164.234 166.594 171.734 156.196 176.072Z" fill="#FF9100"/>
<path d="M181.298 154.74C160.411 135.423 147.74 107.463 148.811 76.7969C148.846 75.801 148.898 74.8058 148.96 73.8109C145.219 72.8435 141.314 72.2531 137.295 72.1127C131.542 71.9118 125.971 72.6253 120.712 74.1064C115.136 83.8733 111.771 95.0794 111.352 107.083C110.27 138.06 129.017 165.128 156.196 176.074C166.594 171.737 175.366 164.245 181.298 154.74Z" fill="#FFC400"/>
<path d="M181.298 154.739C186.154 146.968 189.099 137.857 189.441 128.041C190.343 102.22 172.985 80.0082 148.96 73.8101C148.899 74.805 148.846 75.8003 148.812 76.7961C147.741 107.462 160.412 135.422 181.298 154.739Z" fill="#FF9100"/>
<path d="M186.755 1.23018C173.072 12.1917 162.268 26.6455 155.731 43.2959C151.988 52.833 149.636 63.0774 148.95 73.8163C172.974 80.0144 190.332 102.226 189.43 128.047C189.088 137.863 186.135 146.965 181.287 154.745C190.437 163.21 201.158 170.003 212.996 174.654C236.757 163.67 253.615 140.036 254.591 112.082C255.224 93.9699 248.265 77.8275 238.432 64.202C228.048 49.7916 186.755 1.23018 186.755 1.23018Z" fill="#DD2C00"/>
<g filter="url(#filter0_d_57_6871)">
<circle cx="259" cy="137" r="45" fill="white"/>
<path fill-rule="evenodd" clip-rule="evenodd" d="M245.5 148.25H234.25V152.75H245.5C246.737 152.75 247.797 152.309 248.678 151.428C249.559 150.547 250 149.487 250 148.25L250 125.75L268.45 125.75L264.85 129.35L268 132.5L277 123.5L268 114.5L264.85 117.65L268.45 121.25L250 121.25C248.762 121.25 247.703 121.691 246.822 122.572C245.941 123.453 245.5 124.512 245.5 125.75L245.5 148.25ZM254.5 148.25H268.45L264.85 144.65L268 141.5L277 150.5L268 159.5L264.85 156.35L268.45 152.75H254.5V148.25Z" fill="#1F1F1F"/>
</g>
<defs>
<filter id="filter0_d_57_6871" x="208" y="88.0029" width="102" height="102" filterUnits="userSpaceOnUse" color-interpolation-filters="sRGB">
<feFlood flood-opacity="0" result="BackgroundImageFix"/>
<feColorMatrix in="SourceAlpha" type="matrix" values="0 0 0 0 0 0 0 0 0 0 0 0 0 0 0 0 0 0 127 0" result="hardAlpha"/>
<feOffset dy="2.0029"/>
<feGaussianBlur stdDeviation="3"/>
<feComposite in2="hardAlpha" operator="out"/>
<feColorMatrix type="matrix" values="0 0 0 0 0 0 0 0 0 0 0 0 0 0 0 0 0 0 0.3 0"/>
<feBlend mode="normal" in2="BackgroundImageFix" result="effect1_dropShadow_57_6871"/>
<feBlend mode="normal" in="SourceGraphic" in2="effect1_dropShadow_57_6871" result="shape"/>
</filter>
</defs>
</svg>
