<svg width="228" height="327" viewBox="0 0 228 327" fill="none" xmlns="http://www.w3.org/2000/svg">
<path d="M189.285 254.393C186.521 254.393 184.022 253.75 181.788 252.462C179.592 251.175 177.87 249.396 176.62 247.124C175.371 244.815 174.746 242.24 174.746 239.4C174.746 236.675 175.333 234.176 176.507 231.904C177.718 229.595 179.403 227.777 181.561 226.452C183.719 225.089 186.18 224.408 188.944 224.408C191.783 224.408 194.244 225.032 196.327 226.282C198.447 227.531 200.056 229.273 201.154 231.507C202.252 233.702 202.801 236.239 202.801 239.117C202.801 239.457 202.782 239.798 202.744 240.139C202.706 240.479 202.687 240.669 202.687 240.707H180.993C181.182 243.281 182.11 245.269 183.776 246.67C185.442 248.071 187.335 248.771 189.455 248.771C192.711 248.771 195.21 247.257 196.951 244.228L202.29 246.783C201.04 249.093 199.299 250.948 197.065 252.349C194.869 253.712 192.275 254.393 189.285 254.393ZM196.44 235.936C196.364 235.028 196.062 234.1 195.531 233.153C195.001 232.207 194.169 231.412 193.033 230.768C191.935 230.087 190.553 229.746 188.887 229.746C187.032 229.746 185.423 230.314 184.06 231.45C182.735 232.586 181.826 234.081 181.334 235.936H196.44Z" fill="#5A5A5A"/>
<path d="M161.035 254.393C157.817 254.393 155.148 253.655 153.027 252.178C150.945 250.664 149.468 248.771 148.598 246.499L154.163 244.114C154.807 245.666 155.734 246.84 156.946 247.635C158.195 248.43 159.558 248.828 161.035 248.828C162.587 248.828 163.855 248.544 164.84 247.976C165.824 247.37 166.316 246.594 166.316 245.647C166.316 244.739 165.919 244.001 165.124 243.433C164.329 242.827 163.022 242.297 161.205 241.842L157.343 240.934C155.223 240.442 153.387 239.533 151.835 238.208C150.32 236.845 149.563 235.084 149.563 232.926C149.563 230.314 150.642 228.251 152.8 226.736C154.958 225.184 157.608 224.408 160.751 224.408C163.363 224.408 165.673 224.957 167.679 226.055C169.724 227.153 171.2 228.743 172.109 230.825L166.6 233.153C166.07 231.98 165.256 231.109 164.158 230.541C163.06 229.973 161.868 229.689 160.581 229.689C159.331 229.689 158.233 229.973 157.287 230.541C156.34 231.071 155.867 231.791 155.867 232.699C155.867 233.494 156.189 234.138 156.832 234.63C157.514 235.122 158.574 235.539 160.013 235.879L164.215 236.902C167.055 237.621 169.175 238.719 170.576 240.196C171.977 241.634 172.677 243.376 172.677 245.42C172.677 247.086 172.166 248.601 171.144 249.964C170.159 251.327 168.777 252.406 166.998 253.201C165.256 253.996 163.269 254.393 161.035 254.393Z" fill="#5A5A5A"/>
<path d="M131.149 254.393C129.143 254.393 127.325 253.996 125.697 253.201C124.107 252.368 122.839 251.232 121.892 249.793C120.984 248.317 120.529 246.651 120.529 244.796C120.529 241.842 121.627 239.514 123.823 237.81C126.057 236.107 128.878 235.255 132.285 235.255C135.276 235.255 137.832 235.766 139.952 236.788V235.595C139.952 233.892 139.27 232.491 137.907 231.393C136.582 230.257 134.973 229.689 133.08 229.689C130.203 229.689 127.893 230.863 126.152 233.21L121.381 229.916C122.706 228.137 124.353 226.774 126.322 225.827C128.329 224.881 130.581 224.408 133.08 224.408C137.207 224.408 140.387 225.449 142.621 227.531C144.893 229.576 146.028 232.472 146.028 236.22V253.485H139.952V250.02H139.611C138.702 251.308 137.548 252.368 136.147 253.201C134.746 253.996 133.08 254.393 131.149 254.393ZM132.171 249.225C133.572 249.225 134.859 248.885 136.033 248.203C137.245 247.484 138.191 246.556 138.873 245.42C139.592 244.247 139.952 242.997 139.952 241.672C137.945 240.574 135.806 240.025 133.534 240.025C131.452 240.025 129.824 240.479 128.65 241.388C127.477 242.297 126.89 243.452 126.89 244.852C126.89 246.14 127.401 247.2 128.423 248.033C129.483 248.828 130.733 249.225 132.171 249.225Z" fill="#5A5A5A"/>
<path d="M104.939 254.393C102.894 254.393 101.058 253.958 99.4303 253.087C97.8401 252.216 96.6475 251.118 95.8524 249.793H95.5117V253.484H89.6055V212.822H95.8524V225.032L95.5117 228.951H95.8524C96.6475 227.664 97.8401 226.585 99.4303 225.714C101.058 224.843 102.894 224.408 104.939 224.408C107.362 224.408 109.596 225.051 111.64 226.338C113.723 227.626 115.37 229.424 116.581 231.734C117.83 234.005 118.455 236.561 118.455 239.4C118.455 242.24 117.83 244.795 116.581 247.067C115.37 249.339 113.723 251.137 111.64 252.462C109.596 253.749 107.362 254.393 104.939 254.393ZM103.86 248.657C105.336 248.657 106.699 248.279 107.949 247.521C109.236 246.764 110.258 245.685 111.016 244.284C111.811 242.846 112.208 241.218 112.208 239.4C112.208 237.583 111.811 235.974 111.016 234.573C110.258 233.134 109.236 232.036 107.949 231.279C106.699 230.522 105.336 230.143 103.86 230.143C102.383 230.143 101.001 230.522 99.7142 231.279C98.4648 232.036 97.4426 233.115 96.6475 234.516C95.8903 235.917 95.5117 237.545 95.5117 239.4C95.5117 241.255 95.8903 242.883 96.6475 244.284C97.4426 245.685 98.4648 246.764 99.7142 247.521C101.001 248.279 102.383 248.657 103.86 248.657Z" fill="#5A5A5A"/>
<path d="M72.3685 254.393C69.6047 254.393 67.1059 253.75 64.8721 252.462C62.6762 251.175 60.9536 249.396 59.7042 247.124C58.4548 244.815 57.8301 242.24 57.8301 239.4C57.8301 236.675 58.4169 234.176 59.5906 231.904C60.8021 229.595 62.4869 227.777 64.645 226.452C66.803 225.089 69.2639 224.408 72.0278 224.408C74.8673 224.408 77.3282 225.032 79.4106 226.282C81.5307 227.531 83.1398 229.273 84.2378 231.507C85.3357 233.702 85.8847 236.239 85.8847 239.117C85.8847 239.457 85.8658 239.798 85.8279 240.139C85.79 240.479 85.7711 240.669 85.7711 240.707H64.0771C64.2664 243.281 65.1939 245.269 66.8598 246.67C68.5257 248.071 70.4187 248.771 72.5389 248.771C75.7949 248.771 78.2937 247.257 80.0353 244.228L85.3736 246.783C84.1242 249.093 82.3826 250.948 80.1488 252.349C77.9529 253.712 75.3595 254.393 72.3685 254.393ZM79.5241 235.936C79.4484 235.028 79.1455 234.1 78.6155 233.153C78.0854 232.207 77.2525 231.412 76.1167 230.768C75.0187 230.087 73.6368 229.746 71.971 229.746C70.1158 229.746 68.5067 230.314 67.1438 231.45C65.8186 232.586 64.91 234.081 64.4178 235.936H79.5241Z" fill="#5A5A5A"/>
<path d="M40.4941 225.316H46.4004V229.519H46.7411C47.3469 228.08 48.4448 226.888 50.035 225.941C51.6251 224.957 53.2531 224.465 54.919 224.465C56.282 224.465 57.3988 224.654 58.2696 225.033V231.563C56.9824 230.92 55.5437 230.598 53.9535 230.598C51.9091 230.598 50.1864 231.393 48.7856 232.983C47.4226 234.535 46.7411 236.447 46.7411 238.719V253.485H40.4941V225.316Z" fill="#5A5A5A"/>
<path d="M31.5775 220.546C30.4038 220.546 29.4005 220.148 28.5676 219.353C27.7725 218.52 27.375 217.517 27.375 216.343C27.375 215.17 27.7725 214.185 28.5676 213.39C29.4005 212.557 30.4038 212.141 31.5775 212.141C32.7512 212.141 33.7356 212.557 34.5306 213.39C35.3636 214.185 35.78 215.17 35.78 216.343C35.78 217.517 35.3636 218.52 34.5306 219.353C33.7356 220.148 32.7512 220.546 31.5775 220.546ZM28.454 225.316H34.701V253.485H28.454V225.316Z" fill="#5A5A5A"/>
<path d="M0 212.822H24.704V218.899H6.36056V230.598H22.8867V236.618H6.36056V253.484H0V212.822Z" fill="#5A5A5A"/>
<path d="M41.9159 310.788C38.0811 310.788 34.5501 309.858 31.3228 307.997C28.0954 306.137 25.5326 303.574 23.6342 300.309C21.7358 297.043 20.7865 293.436 20.7865 289.488C20.7865 285.539 21.7358 281.932 23.6342 278.667C25.5326 275.401 28.0954 272.839 31.3228 270.978C34.5501 269.118 38.0811 268.187 41.9159 268.187C44.9154 268.187 47.7251 268.719 50.3449 269.782C53.0027 270.845 55.1858 272.345 56.8944 274.281L53.4203 277.756C52.1294 276.161 50.4778 274.946 48.4655 274.111C46.4531 273.237 44.2889 272.801 41.9729 272.801C39.0873 272.801 36.3915 273.503 33.8856 274.908C31.4177 276.275 29.4243 278.23 27.9056 280.774C26.4248 283.28 25.6845 286.184 25.6845 289.488C25.6845 292.791 26.4248 295.715 27.9056 298.258C29.4243 300.764 31.4367 302.72 33.9426 304.125C36.4485 305.491 39.1252 306.175 41.9729 306.175C44.7066 306.175 46.9847 305.757 48.8072 304.922C50.6676 304.049 52.2623 302.91 53.5912 301.505C54.5784 300.442 55.3757 299.17 55.9832 297.689C56.5907 296.17 56.9704 294.5 57.1222 292.677H42.0298V288.178H61.6215C61.8113 289.241 61.9062 290.228 61.9062 291.139C61.9062 293.645 61.5076 296.094 60.7102 298.486C59.9129 300.84 58.641 302.91 56.8944 304.694C53.1356 308.757 48.1427 310.788 41.9159 310.788ZM79.6523 310.788C76.8806 310.788 74.3937 310.124 72.1915 308.795C69.9893 307.466 68.2618 305.643 67.0088 303.327C65.7938 300.973 65.1863 298.334 65.1863 295.411C65.1863 292.601 65.7559 290.019 66.8949 287.665C68.0719 285.311 69.7236 283.432 71.8498 282.027C73.976 280.622 76.444 279.92 79.2536 279.92C82.1012 279.92 84.5692 280.565 86.6574 281.856C88.7457 283.109 90.3404 284.856 91.4414 287.096C92.5805 289.336 93.15 291.899 93.15 294.784C93.15 295.354 93.0931 295.847 92.9792 296.265H70.0273C70.1412 298.467 70.6728 300.328 71.622 301.846C72.5712 303.365 73.7672 304.504 75.21 305.264C76.6907 306.023 78.2285 306.403 79.8231 306.403C83.544 306.403 86.4106 304.656 88.423 301.163L92.5235 303.156C91.2706 305.51 89.562 307.371 87.3978 308.738C85.2716 310.105 82.6897 310.788 79.6523 310.788ZM88.0243 292.278C87.9484 291.063 87.6066 289.848 86.9991 288.633C86.3917 287.418 85.4235 286.393 84.0946 285.558C82.8036 284.723 81.171 284.305 79.1967 284.305C76.9186 284.305 74.9822 285.045 73.3875 286.526C71.8308 287.969 70.8057 289.886 70.3121 292.278H88.0243ZM97.6764 280.831H102.29V285.102H102.517C103.315 283.66 104.587 282.445 106.333 281.457C108.08 280.432 109.94 279.92 111.915 279.92C115.408 279.92 118.065 280.945 119.888 282.995C121.748 285.007 122.679 287.76 122.679 291.253V309.877H117.838V291.994C117.838 289.298 117.192 287.343 115.901 286.128C114.61 284.913 112.845 284.305 110.605 284.305C109.048 284.305 107.643 284.742 106.39 285.615C105.175 286.488 104.226 287.646 103.542 289.089C102.859 290.494 102.517 291.975 102.517 293.531V309.877H97.6764V280.831ZM128.462 269.099H133.303V294.727L146.971 280.831H153.122V281.059L141.732 292.563L153.407 309.649V309.877H147.655L138.315 295.923L133.303 300.935V309.877H128.462V269.099ZM158.925 275.477C157.976 275.477 157.159 275.136 156.476 274.452C155.792 273.769 155.451 272.953 155.451 272.003C155.451 271.054 155.792 270.257 156.476 269.611C157.159 268.928 157.976 268.586 158.925 268.586C159.874 268.586 160.69 268.928 161.374 269.611C162.057 270.257 162.399 271.054 162.399 272.003C162.399 272.953 162.057 273.769 161.374 274.452C160.728 275.136 159.912 275.477 158.925 275.477ZM156.533 280.831H161.317V309.877H156.533V280.831ZM178.67 310.332C177.493 310.332 176.392 310.142 175.367 309.763C174.38 309.383 173.545 308.871 172.861 308.225C172.102 307.504 171.532 306.668 171.153 305.719C170.773 304.77 170.583 303.612 170.583 302.245V285.216H165.514V280.831H170.583V272.63H175.424V280.831H182.486V285.216H175.424V301.049C175.424 302.644 175.728 303.821 176.335 304.58C177.057 305.415 178.101 305.833 179.468 305.833C180.569 305.833 181.632 305.51 182.657 304.865V309.592C182.088 309.858 181.499 310.048 180.892 310.161C180.322 310.275 179.582 310.332 178.67 310.332Z" fill="#5A5A5A"/>
<path d="M74.196 176.072C81.7283 179.103 89.9 180.902 98.4802 181.202C110.092 181.607 121.135 179.206 131.006 174.646C119.169 169.995 108.448 163.193 99.2975 154.737C93.3664 164.234 84.5939 171.734 74.196 176.072Z" fill="#FF9100"/>
<path d="M99.2975 154.74C78.4109 135.423 65.7401 107.463 66.811 76.797C66.8458 75.8011 66.8984 74.8059 66.9598 73.811C63.2191 72.8436 59.3138 72.2532 55.2949 72.1129C49.5422 71.912 43.9712 72.6254 38.7116 74.1065C33.1361 83.8734 29.7714 95.0795 29.3522 107.083C28.2705 138.06 47.017 165.128 74.196 176.074C84.5939 171.737 93.3661 164.245 99.2975 154.74Z" fill="#FFC400"/>
<path d="M99.2982 154.739C104.154 146.968 107.099 137.857 107.441 128.04C108.343 102.22 90.9848 80.008 66.9605 73.8099C66.899 74.8048 66.8465 75.8 66.8117 76.7959C65.7408 107.462 78.4116 135.421 99.2982 154.739Z" fill="#FF9100"/>
<path d="M104.755 1.23018C91.0723 12.1917 80.2677 26.6455 73.7306 43.2959C69.9881 52.833 67.6362 63.0774 66.9496 73.8163C90.9739 80.0144 108.332 102.226 107.43 128.047C107.088 137.863 104.135 146.965 99.2873 154.745C108.437 163.21 119.158 170.003 130.996 174.654C154.757 163.67 171.615 140.036 172.591 112.082C173.224 93.9699 166.265 77.8275 156.432 64.202C146.048 49.7916 104.755 1.23018 104.755 1.23018Z" fill="#DD2C00"/>
<g filter="url(#filter0_d_57_5549)">
<circle cx="177" cy="137" r="45" fill="white"/>
<path fill-rule="evenodd" clip-rule="evenodd" d="M157 151.25C156.208 150.792 155.594 150.188 155.156 149.437C154.719 148.687 154.5 147.854 154.5 146.938V127.062C154.5 126.146 154.719 125.312 155.156 124.562C155.594 123.812 156.208 123.208 157 122.75L174.5 112.688C175.292 112.229 176.125 112 177 112C177.875 112 178.708 112.229 179.5 112.688L197 122.75C197.792 123.208 198.406 123.812 198.844 124.562C199.281 125.312 199.5 126.146 199.5 127.062V146.938C199.5 147.854 199.281 148.687 198.844 149.437C198.406 150.188 197.792 150.792 197 151.25L179.5 161.312C178.708 161.771 177.875 162 177 162C176.125 162 175.292 161.771 174.5 161.312L157 151.25ZM159 146.998V126.938L177 116.75L195 126.875V146.998L177 157.25L159 146.998ZM173.073 140.927C175.691 143.545 177 146.736 177 150.5C177 146.736 178.309 143.545 180.927 140.927C183.545 138.309 186.736 137 190.5 137C186.736 137 183.545 135.691 180.927 133.073C178.309 130.455 177 127.264 177 123.5C177 127.264 175.691 130.455 173.073 133.073C170.455 135.691 167.264 137 163.5 137C167.264 137 170.455 138.309 173.073 140.927Z" fill="#1F1F1F"/>
</g>
<defs>
<filter id="filter0_d_57_5549" x="126" y="88.0029" width="102" height="102" filterUnits="userSpaceOnUse" color-interpolation-filters="sRGB">
<feFlood flood-opacity="0" result="BackgroundImageFix"/>
<feColorMatrix in="SourceAlpha" type="matrix" values="0 0 0 0 0 0 0 0 0 0 0 0 0 0 0 0 0 0 127 0" result="hardAlpha"/>
<feOffset dy="2.0029"/>
<feGaussianBlur stdDeviation="3"/>
<feComposite in2="hardAlpha" operator="out"/>
<feColorMatrix type="matrix" values="0 0 0 0 0 0 0 0 0 0 0 0 0 0 0 0 0 0 0.3 0"/>
<feBlend mode="normal" in2="BackgroundImageFix" result="effect1_dropShadow_57_5549"/>
<feBlend mode="normal" in="SourceGraphic" in2="effect1_dropShadow_57_5549" result="shape"/>
</filter>
</defs>
</svg>
