<svg width="446" height="327" viewBox="0 0 446 327" fill="none" xmlns="http://www.w3.org/2000/svg">
<path d="M311.285 254.393C308.521 254.393 306.022 253.749 303.788 252.462C301.592 251.175 299.87 249.395 298.62 247.124C297.371 244.814 296.746 242.24 296.746 239.4C296.746 236.674 297.333 234.175 298.507 231.904C299.718 229.594 301.403 227.777 303.561 226.452C305.719 225.089 308.18 224.407 310.944 224.407C313.783 224.407 316.244 225.032 318.327 226.281C320.447 227.531 322.056 229.272 323.154 231.506C324.252 233.702 324.801 236.239 324.801 239.116C324.801 239.457 324.782 239.798 324.744 240.138C324.706 240.479 324.687 240.668 324.687 240.706H302.993C303.182 243.281 304.11 245.268 305.776 246.669C307.442 248.07 309.335 248.77 311.455 248.77C314.711 248.77 317.21 247.256 318.951 244.227L324.29 246.783C323.04 249.092 321.299 250.947 319.065 252.348C316.869 253.711 314.275 254.393 311.285 254.393ZM318.44 235.936C318.364 235.027 318.062 234.1 317.531 233.153C317.001 232.206 316.169 231.411 315.033 230.768C313.935 230.086 312.553 229.746 310.887 229.746C309.032 229.746 307.423 230.313 306.06 231.449C304.735 232.585 303.826 234.081 303.334 235.936H318.44Z" fill="white"/>
<path d="M283.035 254.393C279.817 254.393 277.148 253.654 275.027 252.178C272.945 250.663 271.468 248.77 270.598 246.499L276.163 244.114C276.807 245.666 277.734 246.84 278.946 247.635C280.195 248.43 281.558 248.827 283.035 248.827C284.587 248.827 285.855 248.543 286.84 247.975C287.824 247.37 288.316 246.593 288.316 245.647C288.316 244.738 287.919 244 287.124 243.432C286.329 242.826 285.022 242.296 283.205 241.842L279.343 240.933C277.223 240.441 275.387 239.532 273.835 238.207C272.32 236.844 271.563 235.084 271.563 232.926C271.563 230.313 272.642 228.25 274.8 226.736C276.958 225.183 279.608 224.407 282.751 224.407C285.363 224.407 287.673 224.956 289.679 226.054C291.724 227.152 293.2 228.742 294.109 230.825L288.6 233.153C288.07 231.979 287.256 231.109 286.158 230.541C285.06 229.973 283.868 229.689 282.581 229.689C281.331 229.689 280.233 229.973 279.287 230.541C278.34 231.071 277.867 231.79 277.867 232.699C277.867 233.494 278.189 234.137 278.832 234.63C279.514 235.122 280.574 235.538 282.013 235.879L286.215 236.901C289.055 237.621 291.175 238.718 292.576 240.195C293.977 241.634 294.677 243.375 294.677 245.42C294.677 247.086 294.166 248.6 293.144 249.963C292.159 251.326 290.777 252.405 288.998 253.2C287.256 253.995 285.269 254.393 283.035 254.393Z" fill="white"/>
<path d="M253.149 254.393C251.143 254.393 249.325 253.995 247.697 253.2C246.107 252.367 244.839 251.231 243.892 249.793C242.984 248.316 242.529 246.65 242.529 244.795C242.529 241.842 243.627 239.514 245.823 237.81C248.057 236.106 250.878 235.254 254.285 235.254C257.276 235.254 259.832 235.765 261.952 236.788V235.595C261.952 233.891 261.27 232.49 259.907 231.392C258.582 230.257 256.973 229.689 255.08 229.689C252.203 229.689 249.893 230.862 248.152 233.21L243.381 229.916C244.706 228.136 246.353 226.774 248.322 225.827C250.329 224.88 252.581 224.407 255.08 224.407C259.207 224.407 262.387 225.448 264.621 227.531C266.893 229.575 268.028 232.472 268.028 236.22V253.484H261.952V250.02H261.611C260.702 251.307 259.548 252.367 258.147 253.2C256.746 253.995 255.08 254.393 253.149 254.393ZM254.171 249.225C255.572 249.225 256.859 248.884 258.033 248.203C259.245 247.483 260.191 246.556 260.873 245.42C261.592 244.246 261.952 242.997 261.952 241.672C259.945 240.574 257.806 240.025 255.534 240.025C253.452 240.025 251.824 240.479 250.65 241.388C249.477 242.296 248.89 243.451 248.89 244.852C248.89 246.139 249.401 247.199 250.423 248.032C251.483 248.827 252.733 249.225 254.171 249.225Z" fill="white"/>
<path d="M226.939 254.393C224.894 254.393 223.058 253.958 221.43 253.087C219.84 252.216 218.648 251.118 217.852 249.793H217.512V253.484H211.605V212.822H217.852V225.032L217.512 228.951H217.852C218.648 227.664 219.84 226.585 221.43 225.714C223.058 224.843 224.894 224.408 226.939 224.408C229.362 224.408 231.596 225.051 233.64 226.338C235.723 227.626 237.37 229.424 238.581 231.734C239.83 234.005 240.455 236.561 240.455 239.4C240.455 242.24 239.83 244.795 238.581 247.067C237.37 249.339 235.723 251.137 233.64 252.462C231.596 253.749 229.362 254.393 226.939 254.393ZM225.86 248.657C227.336 248.657 228.699 248.279 229.949 247.521C231.236 246.764 232.258 245.685 233.016 244.284C233.811 242.846 234.208 241.218 234.208 239.4C234.208 237.583 233.811 235.974 233.016 234.573C232.258 233.134 231.236 232.036 229.949 231.279C228.699 230.522 227.336 230.143 225.86 230.143C224.383 230.143 223.001 230.522 221.714 231.279C220.465 232.036 219.443 233.115 218.648 234.516C217.89 235.917 217.512 237.545 217.512 239.4C217.512 241.255 217.89 242.883 218.648 244.284C219.443 245.685 220.465 246.764 221.714 247.521C223.001 248.279 224.383 248.657 225.86 248.657Z" fill="white"/>
<path d="M194.369 254.393C191.605 254.393 189.106 253.749 186.872 252.462C184.676 251.175 182.954 249.395 181.704 247.124C180.455 244.814 179.83 242.24 179.83 239.4C179.83 236.674 180.417 234.175 181.591 231.904C182.802 229.594 184.487 227.777 186.645 226.452C188.803 225.089 191.264 224.407 194.028 224.407C196.867 224.407 199.328 225.032 201.411 226.281C203.531 227.531 205.14 229.272 206.238 231.506C207.336 233.702 207.885 236.239 207.885 239.116C207.885 239.457 207.866 239.798 207.828 240.138C207.79 240.479 207.771 240.668 207.771 240.706H186.077C186.266 243.281 187.194 245.268 188.86 246.669C190.526 248.07 192.419 248.77 194.539 248.77C197.795 248.77 200.294 247.256 202.035 244.227L207.374 246.783C206.124 249.092 204.383 250.947 202.149 252.348C199.953 253.711 197.359 254.393 194.369 254.393ZM201.524 235.936C201.448 235.027 201.146 234.1 200.615 233.153C200.085 232.206 199.253 231.411 198.117 230.768C197.019 230.086 195.637 229.746 193.971 229.746C192.116 229.746 190.507 230.313 189.144 231.449C187.819 232.585 186.91 234.081 186.418 235.936H201.524Z" fill="white"/>
<path d="M162.494 225.317H168.4V229.519H168.741C169.347 228.081 170.445 226.888 172.035 225.941C173.625 224.957 175.253 224.465 176.919 224.465C178.282 224.465 179.399 224.654 180.27 225.033V231.564C178.982 230.92 177.544 230.598 175.954 230.598C173.909 230.598 172.186 231.393 170.786 232.983C169.423 234.536 168.741 236.448 168.741 238.719V253.485H162.494V225.317Z" fill="white"/>
<path d="M153.578 220.546C152.404 220.546 151.401 220.148 150.568 219.353C149.773 218.52 149.375 217.517 149.375 216.343C149.375 215.169 149.773 214.185 150.568 213.39C151.401 212.557 152.404 212.141 153.578 212.141C154.751 212.141 155.736 212.557 156.531 213.39C157.364 214.185 157.78 215.169 157.78 216.343C157.78 217.517 157.364 218.52 156.531 219.353C155.736 220.148 154.751 220.546 153.578 220.546ZM150.454 225.316H156.701V253.484H150.454V225.316Z" fill="white"/>
<path d="M122 212.822H146.704V218.899H128.361V230.598H144.887V236.618H128.361V253.484H122V212.822Z" fill="white"/>
<path d="M1.92094 269.099H6.70495V309.877H1.92094V269.099ZM13.7181 280.831H18.3313V285.103H18.5591C19.3564 283.66 20.6284 282.445 22.3749 281.458C24.1214 280.433 25.9819 279.92 27.9562 279.92C31.4493 279.92 34.1071 280.945 35.9296 282.995C37.79 285.008 38.7203 287.76 38.7203 291.253V309.877H33.8793V291.994C33.8793 289.298 33.2338 287.343 31.9429 286.128C30.652 284.913 28.8865 284.305 26.6463 284.305C25.0896 284.305 23.6848 284.742 22.4318 285.615C21.2169 286.488 20.2677 287.647 19.5842 289.089C18.9008 290.494 18.5591 291.975 18.5591 293.532V309.877H13.7181V280.831ZM44.4466 290.228H62.5006V294.215H44.4466V290.228ZM81.2041 269.099H86.6716L102.163 309.877H96.8661L92.7655 298.657H75.1672L71.0666 309.877H65.77L81.2041 269.099ZM91.1139 294.101L85.7034 279.407L84.0518 275.022H83.8239L82.2293 279.407L76.8188 294.101H91.1139ZM105.513 280.831H110.126V285.16H110.354C111.227 283.679 112.537 282.445 114.284 281.458C116.068 280.433 118.062 279.92 120.264 279.92C122.846 279.92 125.2 280.584 127.326 281.913C129.452 283.242 131.123 285.084 132.338 287.438C133.553 289.792 134.16 292.431 134.16 295.354C134.16 298.316 133.553 300.973 132.338 303.327C131.123 305.643 129.452 307.466 127.326 308.795C125.2 310.124 122.846 310.788 120.264 310.788C118.062 310.788 116.068 310.295 114.284 309.307C112.537 308.282 111.227 307.048 110.354 305.606H110.126L110.354 309.592V322.179H105.513V280.831ZM119.694 306.403C121.365 306.403 122.941 305.947 124.421 305.036C125.902 304.125 127.079 302.834 127.952 301.163C128.864 299.455 129.319 297.518 129.319 295.354C129.319 293.19 128.864 291.272 127.952 289.602C127.079 287.893 125.902 286.583 124.421 285.672C122.941 284.761 121.365 284.305 119.694 284.305C118.024 284.305 116.448 284.761 114.967 285.672C113.486 286.583 112.309 287.874 111.436 289.545C110.563 291.216 110.126 293.152 110.126 295.354C110.126 297.556 110.563 299.493 111.436 301.163C112.309 302.834 113.486 304.125 114.967 305.036C116.448 305.947 118.024 306.403 119.694 306.403ZM137.856 280.831H142.469V285.16H142.697C143.57 283.679 144.88 282.445 146.627 281.458C148.411 280.433 150.404 279.92 152.607 279.92C155.188 279.92 157.542 280.584 159.669 281.913C161.795 283.242 163.465 285.084 164.68 287.438C165.895 289.792 166.503 292.431 166.503 295.354C166.503 298.316 165.895 300.973 164.68 303.327C163.465 305.643 161.795 307.466 159.669 308.795C157.542 310.124 155.188 310.788 152.607 310.788C150.404 310.788 148.411 310.295 146.627 309.307C144.88 308.282 143.57 307.048 142.697 305.606H142.469L142.697 309.592V322.179H137.856V280.831ZM152.037 306.403C153.708 306.403 155.283 305.947 156.764 305.036C158.245 304.125 159.422 302.834 160.295 301.163C161.206 299.455 161.662 297.518 161.662 295.354C161.662 293.19 161.206 291.272 160.295 289.602C159.422 287.893 158.245 286.583 156.764 285.672C155.283 284.761 153.708 284.305 152.037 284.305C150.366 284.305 148.791 284.761 147.31 285.672C145.829 286.583 144.652 287.874 143.779 289.545C142.906 291.216 142.469 293.152 142.469 295.354C142.469 297.556 142.906 299.493 143.779 301.163C144.652 302.834 145.829 304.125 147.31 305.036C148.791 305.947 150.366 306.403 152.037 306.403ZM184.049 269.099H191.054L204.039 302.53H204.267L217.252 269.099H224.257V309.877H219.473V283.964L219.701 276.218H219.473L206.146 309.877H202.16L188.833 276.218H188.605L188.833 283.964V309.877H184.049V269.099ZM244.203 310.788C241.431 310.788 238.944 310.124 236.742 308.795C234.54 307.466 232.812 305.643 231.559 303.327C230.344 300.973 229.737 298.335 229.737 295.411C229.737 292.601 230.306 290.02 231.445 287.665C232.622 285.311 234.274 283.432 236.4 282.027C238.526 280.622 240.994 279.92 243.804 279.92C246.652 279.92 249.119 280.565 251.208 281.856C253.296 283.109 254.891 284.856 255.992 287.096C257.131 289.336 257.7 291.899 257.7 294.785C257.7 295.354 257.643 295.848 257.529 296.265H234.578C234.691 298.467 235.223 300.328 236.172 301.847C237.121 303.365 238.317 304.504 239.76 305.264C241.241 306.023 242.779 306.403 244.373 306.403C248.094 306.403 250.961 304.656 252.973 301.163L257.074 303.157C255.821 305.511 254.112 307.371 251.948 308.738C249.822 310.105 247.24 310.788 244.203 310.788ZM252.575 292.279C252.499 291.064 252.157 289.849 251.549 288.634C250.942 287.419 249.974 286.394 248.645 285.558C247.354 284.723 245.721 284.305 243.747 284.305C241.469 284.305 239.532 285.046 237.938 286.526C236.381 287.969 235.356 289.887 234.862 292.279H252.575ZM272.642 310.788C269.529 310.788 266.928 310.067 264.84 308.624C262.752 307.143 261.271 305.264 260.398 302.986L264.726 301.049C265.447 302.796 266.51 304.144 267.915 305.093C269.358 306.042 270.934 306.517 272.642 306.517C274.465 306.517 276.022 306.156 277.312 305.435C278.603 304.675 279.249 303.612 279.249 302.245C279.249 301.03 278.736 300.062 277.711 299.341C276.686 298.581 275.072 297.936 272.87 297.404L269.339 296.493C267.023 295.924 265.125 294.955 263.644 293.589C262.163 292.222 261.423 290.456 261.423 288.292C261.423 286.621 261.916 285.16 262.903 283.907C263.929 282.616 265.276 281.629 266.947 280.945C268.618 280.262 270.421 279.92 272.358 279.92C274.901 279.92 277.161 280.47 279.135 281.572C281.147 282.673 282.571 284.21 283.406 286.185L279.192 288.121C277.901 285.539 275.604 284.248 272.301 284.248C270.706 284.248 269.301 284.628 268.086 285.387C266.909 286.109 266.321 287.039 266.321 288.178C266.321 289.241 266.738 290.114 267.574 290.798C268.409 291.443 269.662 291.975 271.332 292.393L275.547 293.475C278.395 294.196 280.54 295.278 281.983 296.721C283.425 298.126 284.147 299.853 284.147 301.904C284.147 303.688 283.634 305.264 282.609 306.631C281.584 307.96 280.198 308.985 278.451 309.706C276.705 310.427 274.769 310.788 272.642 310.788ZM298.422 310.788C295.309 310.788 292.708 310.067 290.62 308.624C288.531 307.143 287.051 305.264 286.177 302.986L290.506 301.049C291.227 302.796 292.29 304.144 293.695 305.093C295.138 306.042 296.714 306.517 298.422 306.517C300.245 306.517 301.801 306.156 303.092 305.435C304.383 304.675 305.029 303.612 305.029 302.245C305.029 301.03 304.516 300.062 303.491 299.341C302.466 298.581 300.852 297.936 298.65 297.404L295.119 296.493C292.803 295.924 290.904 294.955 289.424 293.589C287.943 292.222 287.203 290.456 287.203 288.292C287.203 286.621 287.696 285.16 288.683 283.907C289.708 282.616 291.056 281.629 292.727 280.945C294.398 280.262 296.201 279.92 298.137 279.92C300.681 279.92 302.94 280.47 304.915 281.572C306.927 282.673 308.351 284.21 309.186 286.185L304.972 288.121C303.681 285.539 301.384 284.248 298.08 284.248C296.486 284.248 295.081 284.628 293.866 285.387C292.689 286.109 292.1 287.039 292.1 288.178C292.1 289.241 292.518 290.114 293.353 290.798C294.189 291.443 295.442 291.975 297.112 292.393L301.327 293.475C304.174 294.196 306.32 295.278 307.762 296.721C309.205 298.126 309.927 299.853 309.927 301.904C309.927 303.688 309.414 305.264 308.389 306.631C307.364 307.96 305.978 308.985 304.231 309.706C302.485 310.427 300.548 310.788 298.422 310.788ZM323.626 310.788C321.5 310.788 319.601 310.371 317.931 309.535C316.26 308.7 314.969 307.561 314.058 306.118C313.147 304.637 312.691 302.967 312.691 301.106C312.691 298.031 313.849 295.639 316.165 293.93C318.481 292.184 321.405 291.31 324.936 291.31C326.682 291.31 328.296 291.5 329.777 291.88C331.295 292.26 332.454 292.696 333.251 293.19V291.424C333.251 289.26 332.492 287.533 330.973 286.242C329.454 284.913 327.537 284.248 325.221 284.248C323.588 284.248 322.088 284.609 320.721 285.33C319.354 286.014 318.272 286.982 317.475 288.235L313.83 285.501C314.969 283.755 316.526 282.388 318.5 281.401C320.512 280.414 322.734 279.92 325.164 279.92C329.112 279.92 332.207 280.964 334.447 283.052C336.725 285.103 337.864 287.912 337.864 291.481V309.877H333.251V305.719H333.023C332.188 307.124 330.935 308.32 329.264 309.307C327.594 310.295 325.714 310.788 323.626 310.788ZM324.082 306.517C325.714 306.517 327.233 306.099 328.638 305.264C330.043 304.428 331.163 303.308 331.998 301.904C332.833 300.499 333.251 298.961 333.251 297.29C332.34 296.683 331.22 296.189 329.891 295.81C328.562 295.43 327.157 295.24 325.676 295.24C323.018 295.24 321.006 295.791 319.639 296.892C318.31 297.993 317.646 299.417 317.646 301.163C317.646 302.758 318.253 304.049 319.468 305.036C320.683 306.023 322.221 306.517 324.082 306.517ZM355.939 323.09C352.522 323.09 349.693 322.293 347.453 320.698C345.251 319.103 343.77 317.186 343.011 314.946L347.396 313.066C348.041 314.737 349.105 316.085 350.585 317.11C352.104 318.173 353.889 318.705 355.939 318.705C358.938 318.705 361.254 317.831 362.887 316.085C364.558 314.338 365.393 311.87 365.393 308.681V305.435H365.165C364.216 306.915 362.868 308.13 361.122 309.08C359.413 309.991 357.458 310.446 355.255 310.446C352.75 310.446 350.452 309.801 348.364 308.51C346.314 307.219 344.681 305.416 343.466 303.1C342.251 300.784 341.644 298.145 341.644 295.183C341.644 292.26 342.251 289.64 343.466 287.324C344.681 284.97 346.314 283.147 348.364 281.856C350.452 280.565 352.75 279.92 355.255 279.92C357.458 279.92 359.413 280.395 361.122 281.344C362.868 282.255 364.216 283.47 365.165 284.989H365.393V280.831H370.006V308.738C370.006 313.408 368.715 316.958 366.133 319.388C363.552 321.856 360.153 323.09 355.939 323.09ZM355.939 306.061C357.685 306.061 359.261 305.625 360.666 304.751C362.109 303.878 363.248 302.625 364.083 300.992C364.956 299.36 365.393 297.423 365.393 295.183C365.393 292.905 364.956 290.95 364.083 289.317C363.248 287.684 362.109 286.451 360.666 285.615C359.261 284.742 357.685 284.305 355.939 284.305C354.192 284.305 352.598 284.742 351.155 285.615C349.712 286.488 348.554 287.741 347.681 289.374C346.845 291.007 346.428 292.943 346.428 295.183C346.428 297.423 346.845 299.379 347.681 301.049C348.554 302.682 349.712 303.935 351.155 304.808C352.598 305.643 354.192 306.061 355.939 306.061ZM378.872 275.478C377.923 275.478 377.107 275.136 376.424 274.453C375.74 273.769 375.398 272.953 375.398 272.004C375.398 271.054 375.74 270.257 376.424 269.612C377.107 268.928 377.923 268.586 378.872 268.586C379.822 268.586 380.638 268.928 381.321 269.612C382.005 270.257 382.347 271.054 382.347 272.004C382.347 272.953 382.005 273.769 381.321 274.453C380.676 275.136 379.86 275.478 378.872 275.478ZM376.48 280.831H381.264V309.877H376.48V280.831ZM387.733 280.831H392.347V285.103H392.574C393.372 283.66 394.644 282.445 396.39 281.458C398.137 280.433 399.997 279.92 401.972 279.92C405.465 279.92 408.122 280.945 409.945 282.995C411.805 285.008 412.736 287.76 412.736 291.253V309.877H407.895V291.994C407.895 289.298 407.249 287.343 405.958 286.128C404.667 284.913 402.902 284.305 400.662 284.305C399.105 284.305 397.7 284.742 396.447 285.615C395.232 286.488 394.283 287.647 393.6 289.089C392.916 290.494 392.574 291.975 392.574 293.532V309.877H387.733V280.831ZM430.998 323.09C427.581 323.09 424.752 322.293 422.512 320.698C420.31 319.103 418.829 317.186 418.07 314.946L422.455 313.066C423.101 314.737 424.164 316.085 425.645 317.11C427.163 318.173 428.948 318.705 430.998 318.705C433.998 318.705 436.314 317.831 437.946 316.085C439.617 314.338 440.452 311.87 440.452 308.681V305.435H440.225C439.275 306.915 437.927 308.13 436.181 309.08C434.472 309.991 432.517 310.446 430.315 310.446C427.809 310.446 425.512 309.801 423.424 308.51C421.373 307.219 419.741 305.416 418.526 303.1C417.311 300.784 416.703 298.145 416.703 295.183C416.703 292.26 417.311 289.64 418.526 287.324C419.741 284.97 421.373 283.147 423.424 281.856C425.512 280.565 427.809 279.92 430.315 279.92C432.517 279.92 434.472 280.395 436.181 281.344C437.927 282.255 439.275 283.47 440.225 284.989H440.452V280.831H445.065V308.738C445.065 313.408 443.775 316.958 441.193 319.388C438.611 321.856 435.213 323.09 430.998 323.09ZM430.998 306.061C432.745 306.061 434.32 305.625 435.725 304.751C437.168 303.878 438.307 302.625 439.142 300.992C440.016 299.36 440.452 297.423 440.452 295.183C440.452 292.905 440.016 290.95 439.142 289.317C438.307 287.684 437.168 286.451 435.725 285.615C434.32 284.742 432.745 284.305 430.998 284.305C429.252 284.305 427.657 284.742 426.214 285.615C424.771 286.488 423.613 287.741 422.74 289.374C421.905 291.007 421.487 292.943 421.487 295.183C421.487 297.423 421.905 299.379 422.74 301.049C423.613 302.682 424.771 303.935 426.214 304.808C427.657 305.643 429.252 306.061 430.998 306.061Z" fill="white"/>
<path d="M295.017 99.803V99.7458C295.016 99.7242 295.016 99.7027 295.017 99.6812C293.295 88.4617 288.829 78.1267 282.904 68.8306C282.159 67.6552 281.384 66.4997 280.592 65.3516C280.207 64.795 279.817 64.2434 279.422 63.6967C271.803 53.1207 247.739 24.3674 235.097 9.3757C230.315 3.70257 227.168 0 227.168 0C225.742 1.14308 224.349 2.32259 222.987 3.53856L222.94 3.58079C213.081 12.7989 204.906 23.667 198.782 35.6962L198.762 35.7336C197.583 38.0528 196.482 40.4135 195.458 42.8157C193.091 48.3804 191.166 54.1236 189.703 59.9916C188.815 63.5384 188.096 67.1474 187.546 70.8185C184.521 70.3234 181.465 70.0361 178.4 69.9587C177.82 69.9438 177.241 69.9363 176.661 69.9363C171.653 69.9326 166.66 70.4911 161.776 71.6013C158.787 76.4304 156.38 81.597 154.607 86.9931C152.21 94.296 150.992 101.935 151 109.621C151 144.753 176.025 174.043 209.218 180.616C213.873 181.538 218.607 182.002 223.352 182C224.289 182 225.221 181.98 226.15 181.948C228.589 181.852 230.994 181.64 233.366 181.312C238.892 180.545 244.311 179.139 249.513 177.122C250.899 176.585 252.263 176.006 253.607 175.383C278.448 163.925 295.705 138.787 295.705 109.621C295.695 106.337 295.466 103.057 295.017 99.803ZM199.999 164.856C192.875 161.846 186.404 157.48 180.944 152.002C175.469 146.54 171.105 140.067 168.096 132.942C164.974 125.561 163.374 117.626 163.391 109.611C163.373 101.596 164.974 93.6592 168.096 86.2774C168.593 85.0912 169.13 83.9266 169.708 82.7836C172.004 82.4955 174.317 82.351 176.631 82.3511C179.887 82.3508 183.136 82.6386 186.342 83.211C186.272 84.8287 186.237 86.4613 186.237 88.0988C186.193 118.565 198.202 147.811 219.641 169.451C212.88 169.053 206.236 167.499 199.999 164.856ZM226.579 158.746C225.125 157.2 223.727 155.615 222.384 153.99C215.945 146.237 210.683 137.578 206.769 128.29C201.389 115.572 198.63 101.899 198.658 88.0889C198.658 87.7128 198.658 87.3376 198.658 86.9632C204.812 89.694 210.408 93.541 215.162 98.3095C222.533 105.644 227.637 114.946 229.863 125.105C230.705 128.965 231.128 132.905 231.125 136.856C231.148 144.388 229.606 151.842 226.597 158.746H226.579ZM283.319 111.686C282.94 122.957 279.384 133.892 273.062 143.23C267.925 150.813 261.129 157.127 253.189 161.693L253.11 161.656C251.023 162.852 248.866 163.92 246.651 164.856C243.891 166.024 241.047 166.982 238.143 167.722C237.626 167.854 237.108 167.978 236.588 168.094C236.307 168.159 236.029 168.221 235.748 168.278C235.858 168.079 235.964 167.873 236.069 167.669C236.23 167.359 236.389 167.048 236.543 166.735C238.44 162.941 239.967 158.973 241.104 154.887C242.736 149.021 243.561 142.96 243.556 136.871C243.558 132.441 243.123 128.022 242.257 123.678C237.654 100.653 221.243 81.8964 199.612 73.9794C200.608 66.6557 202.396 59.4619 204.945 52.5244C205.516 50.9721 206.125 49.4306 206.771 47.8998C207.745 45.5938 208.798 43.3325 209.931 41.1159C209.938 41.1049 209.943 41.0932 209.948 41.0812C210.413 40.1145 210.892 39.1628 211.389 38.2135C215.288 30.7861 220.204 23.9388 225.993 17.8692L226.09 17.9861C231.222 24.0742 238.091 32.2646 244.932 40.5171C248.432 44.7415 251.925 48.9833 255.174 52.9716C261.268 60.4538 266.504 67.0439 269.334 70.9577C269.738 71.5193 270.133 72.0784 270.521 72.645C274.585 78.5467 277.725 84.5131 279.854 90.4148C281.207 94.136 282.183 97.9838 282.768 101.9V101.95C283.246 105.172 283.432 108.43 283.324 111.686H283.319Z" fill="white"/>
<g filter="url(#filter0_d_57_8081)">
<circle cx="299" cy="137" r="45" fill="white"/>
<path fill-rule="evenodd" clip-rule="evenodd" d="M313.428 160.428C312.547 161.309 311.487 161.75 310.25 161.75H287.75C286.512 161.75 285.453 161.309 284.572 160.428C283.691 159.547 283.25 158.487 283.25 157.25V150.5L287.75 148.25V150.5H310.25V123.5H287.75V125.75L283.25 123.5V116.75C283.25 115.513 283.691 114.453 284.572 113.572C285.453 112.691 286.512 112.25 287.75 112.25H310.25C311.487 112.25 312.547 112.691 313.428 113.572C314.309 114.453 314.75 115.513 314.75 116.75V157.25C314.75 158.487 314.309 159.547 313.428 160.428ZM274.25 148.25V139.812L285.618 137L274.25 134.188V125.75L301.25 137L274.25 148.25Z" fill="#1F1F1F"/>
</g>
<defs>
<filter id="filter0_d_57_8081" x="248" y="88.0029" width="102" height="102" filterUnits="userSpaceOnUse" color-interpolation-filters="sRGB">
<feFlood flood-opacity="0" result="BackgroundImageFix"/>
<feColorMatrix in="SourceAlpha" type="matrix" values="0 0 0 0 0 0 0 0 0 0 0 0 0 0 0 0 0 0 127 0" result="hardAlpha"/>
<feOffset dy="2.0029"/>
<feGaussianBlur stdDeviation="3"/>
<feComposite in2="hardAlpha" operator="out"/>
<feColorMatrix type="matrix" values="0 0 0 0 0 0 0 0 0 0 0 0 0 0 0 0 0 0 0.3 0"/>
<feBlend mode="normal" in2="BackgroundImageFix" result="effect1_dropShadow_57_8081"/>
<feBlend mode="normal" in="SourceGraphic" in2="effect1_dropShadow_57_8081" result="shape"/>
</filter>
</defs>
</svg>
