<svg width="305" height="327" viewBox="0 0 305 327" fill="none" xmlns="http://www.w3.org/2000/svg">
<path d="M241.285 254.393C238.521 254.393 236.022 253.749 233.788 252.462C231.592 251.175 229.87 249.395 228.62 247.124C227.371 244.814 226.746 242.24 226.746 239.4C226.746 236.674 227.333 234.175 228.507 231.904C229.718 229.594 231.403 227.777 233.561 226.452C235.719 225.089 238.18 224.407 240.944 224.407C243.783 224.407 246.244 225.032 248.327 226.282C250.447 227.531 252.056 229.273 253.154 231.506C254.252 233.702 254.801 236.239 254.801 239.116C254.801 239.457 254.782 239.798 254.744 240.139C254.706 240.479 254.687 240.669 254.687 240.706H232.993C233.182 243.281 234.11 245.269 235.776 246.669C237.442 248.07 239.335 248.771 241.455 248.771C244.711 248.771 247.21 247.256 248.951 244.227L254.29 246.783C253.04 249.093 251.299 250.948 249.065 252.349C246.869 253.711 244.275 254.393 241.285 254.393ZM248.44 235.936C248.364 235.027 248.062 234.1 247.531 233.153C247.001 232.207 246.169 231.412 245.033 230.768C243.935 230.087 242.553 229.746 240.887 229.746C239.032 229.746 237.423 230.314 236.06 231.45C234.735 232.585 233.826 234.081 233.334 235.936H248.44Z" fill="#5A5A5A"/>
<path d="M213.035 254.393C209.817 254.393 207.148 253.655 205.027 252.178C202.945 250.664 201.468 248.771 200.598 246.499L206.163 244.114C206.807 245.666 207.734 246.84 208.946 247.635C210.195 248.43 211.558 248.827 213.035 248.827C214.587 248.827 215.855 248.544 216.84 247.976C217.824 247.37 218.316 246.594 218.316 245.647C218.316 244.739 217.919 244 217.124 243.432C216.329 242.827 215.022 242.297 213.205 241.842L209.343 240.934C207.223 240.441 205.387 239.533 203.835 238.208C202.32 236.845 201.563 235.084 201.563 232.926C201.563 230.314 202.642 228.25 204.8 226.736C206.958 225.184 209.608 224.407 212.751 224.407C215.363 224.407 217.673 224.956 219.679 226.054C221.724 227.152 223.2 228.742 224.109 230.825L218.6 233.153C218.07 231.98 217.256 231.109 216.158 230.541C215.06 229.973 213.868 229.689 212.581 229.689C211.331 229.689 210.233 229.973 209.287 230.541C208.34 231.071 207.867 231.79 207.867 232.699C207.867 233.494 208.189 234.138 208.832 234.63C209.514 235.122 210.574 235.538 212.013 235.879L216.215 236.901C219.055 237.621 221.175 238.719 222.576 240.195C223.977 241.634 224.677 243.376 224.677 245.42C224.677 247.086 224.166 248.6 223.144 249.963C222.159 251.326 220.777 252.405 218.998 253.2C217.256 253.995 215.269 254.393 213.035 254.393Z" fill="#5A5A5A"/>
<path d="M183.149 254.393C181.143 254.393 179.325 253.995 177.697 253.2C176.107 252.367 174.839 251.232 173.892 249.793C172.984 248.316 172.529 246.651 172.529 244.795C172.529 241.842 173.627 239.514 175.823 237.81C178.057 236.106 180.878 235.254 184.285 235.254C187.276 235.254 189.832 235.766 191.952 236.788V235.595C191.952 233.892 191.27 232.491 189.907 231.393C188.582 230.257 186.973 229.689 185.08 229.689C182.203 229.689 179.893 230.863 178.152 233.21L173.381 229.916C174.706 228.137 176.353 226.774 178.322 225.827C180.329 224.881 182.581 224.407 185.08 224.407C189.207 224.407 192.387 225.449 194.621 227.531C196.893 229.575 198.028 232.472 198.028 236.22V253.484H191.952V250.02H191.611C190.702 251.307 189.548 252.367 188.147 253.2C186.746 253.995 185.08 254.393 183.149 254.393ZM184.171 249.225C185.572 249.225 186.859 248.884 188.033 248.203C189.245 247.483 190.191 246.556 190.873 245.42C191.592 244.246 191.952 242.997 191.952 241.672C189.945 240.574 187.806 240.025 185.534 240.025C183.452 240.025 181.824 240.479 180.65 241.388C179.477 242.297 178.89 243.451 178.89 244.852C178.89 246.139 179.401 247.199 180.423 248.032C181.483 248.827 182.733 249.225 184.171 249.225Z" fill="#5A5A5A"/>
<path d="M156.939 254.393C154.894 254.393 153.058 253.957 151.43 253.087C149.84 252.216 148.648 251.118 147.852 249.793H147.512V253.484H141.605V212.822H147.852V225.032L147.512 228.951H147.852C148.648 227.663 149.84 226.584 151.43 225.714C153.058 224.843 154.894 224.407 156.939 224.407C159.362 224.407 161.596 225.051 163.64 226.338C165.723 227.625 167.37 229.424 168.581 231.733C169.83 234.005 170.455 236.561 170.455 239.4C170.455 242.24 169.83 244.795 168.581 247.067C167.37 249.338 165.723 251.137 163.64 252.462C161.596 253.749 159.362 254.393 156.939 254.393ZM155.86 248.657C157.336 248.657 158.699 248.278 159.949 247.521C161.236 246.764 162.258 245.685 163.016 244.284C163.811 242.845 164.208 241.217 164.208 239.4C164.208 237.583 163.811 235.974 163.016 234.573C162.258 233.134 161.236 232.036 159.949 231.279C158.699 230.522 157.336 230.143 155.86 230.143C154.383 230.143 153.001 230.522 151.714 231.279C150.465 232.036 149.443 233.115 148.648 234.516C147.89 235.917 147.512 237.545 147.512 239.4C147.512 241.255 147.89 242.883 148.648 244.284C149.443 245.685 150.465 246.764 151.714 247.521C153.001 248.278 154.383 248.657 155.86 248.657Z" fill="#5A5A5A"/>
<path d="M124.369 254.393C121.605 254.393 119.106 253.749 116.872 252.462C114.676 251.175 112.954 249.395 111.704 247.124C110.455 244.814 109.83 242.24 109.83 239.4C109.83 236.674 110.417 234.175 111.591 231.904C112.802 229.594 114.487 227.777 116.645 226.452C118.803 225.089 121.264 224.407 124.028 224.407C126.867 224.407 129.328 225.032 131.411 226.282C133.531 227.531 135.14 229.273 136.238 231.506C137.336 233.702 137.885 236.239 137.885 239.116C137.885 239.457 137.866 239.798 137.828 240.139C137.79 240.479 137.771 240.669 137.771 240.706H116.077C116.266 243.281 117.194 245.269 118.86 246.669C120.526 248.07 122.419 248.771 124.539 248.771C127.795 248.771 130.294 247.256 132.035 244.227L137.374 246.783C136.124 249.093 134.383 250.948 132.149 252.349C129.953 253.711 127.359 254.393 124.369 254.393ZM131.524 235.936C131.448 235.027 131.146 234.1 130.615 233.153C130.085 232.207 129.253 231.412 128.117 230.768C127.019 230.087 125.637 229.746 123.971 229.746C122.116 229.746 120.507 230.314 119.144 231.45C117.819 232.585 116.91 234.081 116.418 235.936H131.524Z" fill="#5A5A5A"/>
<path d="M92.4941 225.316H98.4004V229.519H98.7411C99.3469 228.08 100.445 226.887 102.035 225.941C103.625 224.957 105.253 224.464 106.919 224.464C108.282 224.464 109.399 224.654 110.27 225.032V231.563C108.982 230.92 107.544 230.598 105.954 230.598C103.909 230.598 102.186 231.393 100.786 232.983C99.4226 234.535 98.7411 236.447 98.7411 238.719V253.484H92.4941V225.316Z" fill="#5A5A5A"/>
<path d="M83.5775 220.546C82.4038 220.546 81.4005 220.148 80.5676 219.353C79.7725 218.52 79.375 217.517 79.375 216.343C79.375 215.169 79.7725 214.185 80.5676 213.39C81.4005 212.557 82.4038 212.141 83.5775 212.141C84.7512 212.141 85.7356 212.557 86.5306 213.39C87.3636 214.185 87.78 215.169 87.78 216.343C87.78 217.517 87.3636 218.52 86.5306 219.353C85.7356 220.148 84.7512 220.546 83.5775 220.546ZM80.454 225.316H86.701V253.484H80.454V225.316Z" fill="#5A5A5A"/>
<path d="M52 212.822H76.704V218.899H58.3606V230.598H74.8867V236.617H58.3606V253.484H52V212.822Z" fill="#5A5A5A"/>
<path d="M15.5835 269.099H21.0509L36.542 309.877H31.2454L27.1448 298.657H9.54651L5.44593 309.877H0.149346L15.5835 269.099ZM25.4932 294.101L20.0827 279.407L18.4311 275.022H18.2033L16.6086 279.407L11.1981 294.101H25.4932ZM39.8924 280.831H44.5055V285.16H44.7333C45.6066 283.679 46.9165 282.445 48.6631 281.458C50.4476 280.433 52.4409 279.92 54.6431 279.92C57.2249 279.92 59.579 280.584 61.7052 281.913C63.8314 283.242 65.502 285.084 66.717 287.438C67.932 289.792 68.5395 292.431 68.5395 295.354C68.5395 298.316 67.932 300.973 66.717 303.327C65.502 305.643 63.8314 307.466 61.7052 308.795C59.579 310.124 57.2249 310.788 54.6431 310.788C52.4409 310.788 50.4476 310.295 48.6631 309.307C46.9165 308.282 45.6066 307.048 44.7333 305.606H44.5055L44.7333 309.592V322.179H39.8924V280.831ZM54.0736 306.403C55.7442 306.403 57.3198 305.947 58.8006 305.036C60.2814 304.125 61.4584 302.834 62.3317 301.163C63.2429 299.455 63.6985 297.518 63.6985 295.354C63.6985 293.19 63.2429 291.272 62.3317 289.602C61.4584 287.893 60.2814 286.583 58.8006 285.672C57.3198 284.761 55.7442 284.305 54.0736 284.305C52.4029 284.305 50.8273 284.761 49.3465 285.672C47.8657 286.583 46.6887 287.874 45.8154 289.545C44.9422 291.216 44.5055 293.152 44.5055 295.354C44.5055 297.556 44.9422 299.493 45.8154 301.163C46.6887 302.834 47.8657 304.125 49.3465 305.036C50.8273 305.947 52.4029 306.403 54.0736 306.403ZM72.2352 280.831H76.8483V285.16H77.0761C77.9494 283.679 79.2593 282.445 81.0058 281.458C82.7904 280.433 84.7837 279.92 86.9859 279.92C89.5677 279.92 91.9217 280.584 94.048 281.913C96.1742 283.242 97.8448 285.084 99.0598 287.438C100.275 289.792 100.882 292.431 100.882 295.354C100.882 298.316 100.275 300.973 99.0598 303.327C97.8448 305.643 96.1742 307.466 94.048 308.795C91.9217 310.124 89.5677 310.788 86.9859 310.788C84.7837 310.788 82.7904 310.295 81.0058 309.307C79.2593 308.282 77.9494 307.048 77.0761 305.606H76.8483L77.0761 309.592V322.179H72.2352V280.831ZM86.4163 306.403C88.0869 306.403 89.6626 305.947 91.1434 305.036C92.6242 304.125 93.8012 302.834 94.6744 301.163C95.5857 299.455 96.0413 297.518 96.0413 295.354C96.0413 293.19 95.5857 291.272 94.6744 289.602C93.8012 287.893 92.6242 286.583 91.1434 285.672C89.6626 284.761 88.0869 284.305 86.4163 284.305C84.7457 284.305 83.17 284.761 81.6893 285.672C80.2085 286.583 79.0315 287.874 78.1582 289.545C77.285 291.216 76.8483 293.152 76.8483 295.354C76.8483 297.556 77.285 299.493 78.1582 301.163C79.0315 302.834 80.2085 304.125 81.6893 305.036C83.17 305.947 84.7457 306.403 86.4163 306.403ZM118.428 269.099H123.212V286.754H144.284V269.099H149.069V309.877H144.284V291.31H123.212V309.877H118.428V269.099ZM169.471 310.788C166.624 310.788 164.061 310.105 161.783 308.738C159.505 307.371 157.72 305.511 156.429 303.157C155.176 300.803 154.55 298.202 154.55 295.354C154.55 292.506 155.176 289.906 156.429 287.552C157.72 285.198 159.505 283.337 161.783 281.97C164.061 280.603 166.624 279.92 169.471 279.92C172.319 279.92 174.882 280.603 177.16 281.97C179.438 283.337 181.203 285.198 182.456 287.552C183.747 289.906 184.393 292.506 184.393 295.354C184.393 298.202 183.747 300.803 182.456 303.157C181.203 305.511 179.438 307.371 177.16 308.738C174.882 310.105 172.319 310.788 169.471 310.788ZM169.471 306.403C171.256 306.403 172.907 305.966 174.426 305.093C175.983 304.182 177.217 302.891 178.128 301.22C179.077 299.55 179.552 297.594 179.552 295.354C179.552 293.114 179.077 291.159 178.128 289.488C177.217 287.817 175.983 286.545 174.426 285.672C172.907 284.761 171.256 284.305 169.471 284.305C167.687 284.305 166.016 284.761 164.459 285.672C162.903 286.545 161.65 287.817 160.701 289.488C159.789 291.159 159.334 293.114 159.334 295.354C159.334 297.594 159.789 299.55 160.701 301.22C161.65 302.891 162.903 304.182 164.459 305.093C166.016 305.966 167.687 306.403 169.471 306.403ZM198.735 310.788C195.621 310.788 193.02 310.067 190.932 308.624C188.844 307.143 187.363 305.264 186.49 302.986L190.818 301.049C191.54 302.796 192.603 304.144 194.008 305.093C195.45 306.042 197.026 306.517 198.735 306.517C200.557 306.517 202.114 306.156 203.405 305.435C204.696 304.675 205.341 303.612 205.341 302.245C205.341 301.03 204.829 300.062 203.803 299.341C202.778 298.581 201.165 297.936 198.962 297.404L195.431 296.493C193.115 295.924 191.217 294.955 189.736 293.589C188.255 292.222 187.515 290.456 187.515 288.292C187.515 286.621 188.009 285.16 188.996 283.907C190.021 282.616 191.369 281.629 193.039 280.945C194.71 280.262 196.513 279.92 198.45 279.92C200.994 279.92 203.253 280.47 205.227 281.572C207.24 282.673 208.663 284.21 209.499 286.185L205.284 288.121C203.993 285.539 201.696 284.248 198.393 284.248C196.798 284.248 195.393 284.628 194.178 285.387C193.001 286.109 192.413 287.039 192.413 288.178C192.413 289.241 192.831 290.114 193.666 290.798C194.501 291.443 195.754 291.975 197.425 292.393L201.639 293.475C204.487 294.196 206.632 295.278 208.075 296.721C209.518 298.126 210.239 299.853 210.239 301.904C210.239 303.688 209.726 305.264 208.701 306.631C207.676 307.96 206.29 308.985 204.544 309.706C202.797 310.427 200.861 310.788 198.735 310.788ZM225.262 310.333C224.085 310.333 222.983 310.143 221.958 309.763C220.971 309.383 220.136 308.871 219.452 308.225C218.693 307.504 218.124 306.669 217.744 305.719C217.364 304.77 217.174 303.612 217.174 302.245V285.217H212.106V280.831H217.174V272.63H222.015V280.831H229.077V285.217H222.015V301.049C222.015 302.644 222.319 303.821 222.927 304.58C223.648 305.416 224.692 305.833 226.059 305.833C227.16 305.833 228.223 305.511 229.248 304.865V309.592C228.679 309.858 228.09 310.048 227.483 310.162C226.913 310.276 226.173 310.333 225.262 310.333ZM236.942 275.478C235.993 275.478 235.177 275.136 234.493 274.453C233.81 273.769 233.468 272.953 233.468 272.004C233.468 271.054 233.81 270.257 234.493 269.612C235.177 268.928 235.993 268.586 236.942 268.586C237.891 268.586 238.708 268.928 239.391 269.612C240.075 270.257 240.416 271.054 240.416 272.004C240.416 272.953 240.075 273.769 239.391 274.453C238.746 275.136 237.929 275.478 236.942 275.478ZM234.55 280.831H239.334V309.877H234.55V280.831ZM245.803 280.831H250.416V285.103H250.644C251.441 283.66 252.713 282.445 254.46 281.458C256.206 280.433 258.067 279.92 260.041 279.92C263.534 279.92 266.192 280.945 268.015 282.995C269.875 285.008 270.805 287.76 270.805 291.253V309.877H265.964V291.994C265.964 289.298 265.319 287.343 264.028 286.128C262.737 284.913 260.972 284.305 258.731 284.305C257.175 284.305 255.77 284.742 254.517 285.615C253.302 286.488 252.353 287.647 251.669 289.089C250.986 290.494 250.644 291.975 250.644 293.532V309.877H245.803V280.831ZM289.068 323.09C285.651 323.09 282.822 322.293 280.582 320.698C278.38 319.103 276.899 317.186 276.14 314.946L280.525 313.066C281.17 314.737 282.234 316.085 283.714 317.11C285.233 318.173 287.018 318.705 289.068 318.705C292.067 318.705 294.383 317.831 296.016 316.085C297.687 314.338 298.522 311.87 298.522 308.681V305.435H298.294C297.345 306.915 295.997 308.13 294.251 309.08C292.542 309.991 290.587 310.446 288.384 310.446C285.879 310.446 283.581 309.801 281.493 308.51C279.443 307.219 277.81 305.416 276.595 303.1C275.38 300.784 274.773 298.145 274.773 295.183C274.773 292.26 275.38 289.64 276.595 287.324C277.81 284.97 279.443 283.147 281.493 281.856C283.581 280.565 285.879 279.92 288.384 279.92C290.587 279.92 292.542 280.395 294.251 281.344C295.997 282.255 297.345 283.47 298.294 284.989H298.522V280.831H303.135V308.738C303.135 313.408 301.844 316.958 299.262 319.388C296.681 321.856 293.282 323.09 289.068 323.09ZM289.068 306.061C290.814 306.061 292.39 305.625 293.795 304.751C295.238 303.878 296.377 302.625 297.212 300.992C298.085 299.36 298.522 297.423 298.522 295.183C298.522 292.905 298.085 290.95 297.212 289.317C296.377 287.684 295.238 286.451 293.795 285.615C292.39 284.742 290.814 284.305 289.068 284.305C287.321 284.305 285.727 284.742 284.284 285.615C282.841 286.488 281.683 287.741 280.81 289.374C279.974 291.007 279.557 292.943 279.557 295.183C279.557 297.423 279.974 299.379 280.81 301.049C281.683 302.682 282.841 303.935 284.284 304.808C285.727 305.643 287.321 306.061 289.068 306.061Z" fill="#5A5A5A"/>
<path d="M126.196 176.072C133.728 179.103 141.9 180.902 150.48 181.202C162.092 181.607 173.135 179.206 183.006 174.646C171.169 169.995 160.448 163.193 151.298 154.737C145.366 164.234 136.594 171.734 126.196 176.072Z" fill="#FF9100"/>
<path d="M151.298 154.74C130.411 135.423 117.74 107.463 118.811 76.797C118.846 75.8011 118.898 74.8059 118.96 73.811C115.219 72.8436 111.314 72.2532 107.295 72.1129C101.542 71.912 95.9712 72.6254 90.7116 74.1065C85.1361 83.8734 81.7714 95.0795 81.3522 107.083C80.2705 138.06 99.017 165.128 126.196 176.074C136.594 171.737 145.366 164.245 151.298 154.74Z" fill="#FFC400"/>
<path d="M151.298 154.739C156.154 146.968 159.099 137.857 159.441 128.04C160.343 102.22 142.985 80.008 118.96 73.8099C118.899 74.8048 118.846 75.8 118.812 76.7959C117.741 107.462 130.412 135.421 151.298 154.739Z" fill="#FF9100"/>
<path d="M156.755 1.23018C143.072 12.1917 132.268 26.6455 125.731 43.2959C121.988 52.833 119.636 63.0774 118.95 73.8163C142.974 80.0144 160.332 102.226 159.43 128.047C159.088 137.863 156.135 146.965 151.287 154.745C160.437 163.21 171.158 170.003 182.996 174.654C206.757 163.67 223.615 140.036 224.591 112.082C225.224 93.9699 218.265 77.8275 208.432 64.202C198.048 49.7916 156.755 1.23018 156.755 1.23018Z" fill="#DD2C00"/>
<g filter="url(#filter0_d_57_5484)">
<circle cx="229" cy="137" r="45" fill="white"/>
<path fill-rule="evenodd" clip-rule="evenodd" d="M256 128C256 118.064 247.936 110 238 110C228.064 110 220 118.064 220 128C220 137.936 228.064 146 238 146C247.936 146 256 137.936 256 128ZM238 113.6C230.052 113.6 223.6 120.052 223.6 128H231.519C237.653 128.039 240.379 130.887 239.698 137H233.478V141.675C234.9 142.145 236.421 142.4 238 142.4C245.948 142.4 252.4 135.948 252.4 128C252.4 127.707 252.391 127.415 252.374 127.126C252.374 127.126 250.6 129.8 247 129.8C243.153 129.8 241.229 126.799 241.229 123.5H234.482C234.482 119 236.875 117.485 239.648 117.485C239.648 115.73 240.237 114.611 241.109 113.937C240.108 113.716 239.067 113.6 238 113.6Z" fill="#1F1F1F"/>
<path fill-rule="evenodd" clip-rule="evenodd" d="M225.271 143.75C221.232 140.481 218.475 135.691 217.874 130.25H208.75C207.507 130.25 206.5 131.257 206.5 132.5V141.5C206.5 142.743 207.507 143.75 208.75 143.75H225.271ZM228.714 146H208.75C207.507 146 206.5 147.007 206.5 148.25V157.25C206.5 158.493 207.507 159.5 208.75 159.5H242.5C243.743 159.5 244.75 158.493 244.75 157.25V148.25C244.75 147.866 244.654 147.505 244.485 147.189C242.449 147.877 240.268 148.25 238 148.25C234.653 148.25 231.495 147.438 228.714 146ZM212.125 134.75C211.504 134.75 211 135.254 211 135.875V138.125C211 138.746 211.504 139.25 212.125 139.25H214.375C214.996 139.25 215.5 138.746 215.5 138.125V135.875C215.5 135.254 214.996 134.75 214.375 134.75H212.125ZM212.125 150.5C211.504 150.5 211 151.004 211 151.625V153.875C211 154.496 211.504 155 212.125 155H214.375C214.996 155 215.5 154.496 215.5 153.875V151.625C215.5 151.004 214.996 150.5 214.375 150.5H212.125Z" fill="#1F1F1F"/>
</g>
<defs>
<filter id="filter0_d_57_5484" x="178" y="88.0029" width="102" height="102" filterUnits="userSpaceOnUse" color-interpolation-filters="sRGB">
<feFlood flood-opacity="0" result="BackgroundImageFix"/>
<feColorMatrix in="SourceAlpha" type="matrix" values="0 0 0 0 0 0 0 0 0 0 0 0 0 0 0 0 0 0 127 0" result="hardAlpha"/>
<feOffset dy="2.0029"/>
<feGaussianBlur stdDeviation="3"/>
<feComposite in2="hardAlpha" operator="out"/>
<feColorMatrix type="matrix" values="0 0 0 0 0 0 0 0 0 0 0 0 0 0 0 0 0 0 0.3 0"/>
<feBlend mode="normal" in2="BackgroundImageFix" result="effect1_dropShadow_57_5484"/>
<feBlend mode="normal" in="SourceGraphic" in2="effect1_dropShadow_57_5484" result="shape"/>
</filter>
</defs>
</svg>
