<svg width="335" height="327" viewBox="0 0 335 327" fill="none" xmlns="http://www.w3.org/2000/svg">
<path d="M255.285 254.393C252.521 254.393 250.022 253.75 247.788 252.462C245.592 251.175 243.87 249.396 242.62 247.124C241.371 244.815 240.746 242.24 240.746 239.4C240.746 236.675 241.333 234.176 242.507 231.904C243.718 229.595 245.403 227.777 247.561 226.452C249.719 225.089 252.18 224.408 254.944 224.408C257.783 224.408 260.244 225.032 262.327 226.282C264.447 227.531 266.056 229.273 267.154 231.507C268.252 233.702 268.801 236.239 268.801 239.117C268.801 239.457 268.782 239.798 268.744 240.139C268.706 240.479 268.687 240.669 268.687 240.707H246.993C247.182 243.281 248.11 245.269 249.776 246.67C251.442 248.071 253.335 248.771 255.455 248.771C258.711 248.771 261.21 247.257 262.951 244.228L268.29 246.783C267.04 249.093 265.299 250.948 263.065 252.349C260.869 253.712 258.275 254.393 255.285 254.393ZM262.44 235.936C262.364 235.028 262.062 234.1 261.531 233.153C261.001 232.207 260.169 231.412 259.033 230.768C257.935 230.087 256.553 229.746 254.887 229.746C253.032 229.746 251.423 230.314 250.06 231.45C248.735 232.586 247.826 234.081 247.334 235.936H262.44Z" fill="#5A5A5A"/>
<path d="M227.035 254.393C223.817 254.393 221.148 253.655 219.027 252.178C216.945 250.664 215.468 248.771 214.598 246.499L220.163 244.114C220.807 245.666 221.734 246.84 222.946 247.635C224.195 248.43 225.558 248.828 227.035 248.828C228.587 248.828 229.855 248.544 230.84 247.976C231.824 247.37 232.316 246.594 232.316 245.647C232.316 244.739 231.919 244.001 231.124 243.433C230.329 242.827 229.022 242.297 227.205 241.842L223.343 240.934C221.223 240.442 219.387 239.533 217.835 238.208C216.32 236.845 215.563 235.084 215.563 232.926C215.563 230.314 216.642 228.251 218.8 226.736C220.958 225.184 223.608 224.408 226.751 224.408C229.363 224.408 231.673 224.957 233.679 226.055C235.724 227.153 237.2 228.743 238.109 230.825L232.6 233.153C232.07 231.98 231.256 231.109 230.158 230.541C229.06 229.973 227.868 229.689 226.581 229.689C225.331 229.689 224.233 229.973 223.287 230.541C222.34 231.071 221.867 231.791 221.867 232.699C221.867 233.494 222.189 234.138 222.832 234.63C223.514 235.122 224.574 235.539 226.013 235.879L230.215 236.902C233.055 237.621 235.175 238.719 236.576 240.196C237.977 241.634 238.677 243.376 238.677 245.42C238.677 247.086 238.166 248.601 237.144 249.964C236.159 251.327 234.777 252.406 232.998 253.201C231.256 253.996 229.269 254.393 227.035 254.393Z" fill="#5A5A5A"/>
<path d="M197.149 254.393C195.143 254.393 193.325 253.996 191.697 253.201C190.107 252.368 188.839 251.232 187.892 249.793C186.984 248.317 186.529 246.651 186.529 244.796C186.529 241.842 187.627 239.514 189.823 237.81C192.057 236.107 194.878 235.255 198.285 235.255C201.276 235.255 203.832 235.766 205.952 236.788V235.595C205.952 233.892 205.27 232.491 203.907 231.393C202.582 230.257 200.973 229.689 199.08 229.689C196.203 229.689 193.893 230.863 192.152 233.21L187.381 229.916C188.706 228.137 190.353 226.774 192.322 225.827C194.329 224.881 196.581 224.408 199.08 224.408C203.207 224.408 206.387 225.449 208.621 227.531C210.893 229.576 212.028 232.472 212.028 236.22V253.485H205.952V250.02H205.611C204.702 251.308 203.548 252.368 202.147 253.201C200.746 253.996 199.08 254.393 197.149 254.393ZM198.171 249.225C199.572 249.225 200.859 248.885 202.033 248.203C203.245 247.484 204.191 246.556 204.873 245.42C205.592 244.247 205.952 242.997 205.952 241.672C203.945 240.574 201.806 240.025 199.534 240.025C197.452 240.025 195.824 240.479 194.65 241.388C193.477 242.297 192.89 243.452 192.89 244.852C192.89 246.14 193.401 247.2 194.423 248.033C195.483 248.828 196.733 249.225 198.171 249.225Z" fill="#5A5A5A"/>
<path d="M170.939 254.393C168.894 254.393 167.058 253.958 165.43 253.087C163.84 252.216 162.648 251.118 161.852 249.793H161.512V253.484H155.605V212.822H161.852V225.032L161.512 228.951H161.852C162.648 227.664 163.84 226.585 165.43 225.714C167.058 224.843 168.894 224.408 170.939 224.408C173.362 224.408 175.596 225.051 177.64 226.338C179.723 227.626 181.37 229.424 182.581 231.734C183.83 234.005 184.455 236.561 184.455 239.4C184.455 242.24 183.83 244.795 182.581 247.067C181.37 249.339 179.723 251.137 177.64 252.462C175.596 253.749 173.362 254.393 170.939 254.393ZM169.86 248.657C171.336 248.657 172.699 248.279 173.949 247.521C175.236 246.764 176.258 245.685 177.016 244.284C177.811 242.846 178.208 241.218 178.208 239.4C178.208 237.583 177.811 235.974 177.016 234.573C176.258 233.134 175.236 232.036 173.949 231.279C172.699 230.522 171.336 230.143 169.86 230.143C168.383 230.143 167.001 230.522 165.714 231.279C164.465 232.036 163.443 233.115 162.648 234.516C161.89 235.917 161.512 237.545 161.512 239.4C161.512 241.255 161.89 242.883 162.648 244.284C163.443 245.685 164.465 246.764 165.714 247.521C167.001 248.279 168.383 248.657 169.86 248.657Z" fill="#5A5A5A"/>
<path d="M138.369 254.393C135.605 254.393 133.106 253.75 130.872 252.462C128.676 251.175 126.954 249.396 125.704 247.124C124.455 244.815 123.83 242.24 123.83 239.4C123.83 236.675 124.417 234.176 125.591 231.904C126.802 229.595 128.487 227.777 130.645 226.452C132.803 225.089 135.264 224.408 138.028 224.408C140.867 224.408 143.328 225.032 145.411 226.282C147.531 227.531 149.14 229.273 150.238 231.507C151.336 233.702 151.885 236.239 151.885 239.117C151.885 239.457 151.866 239.798 151.828 240.139C151.79 240.479 151.771 240.669 151.771 240.707H130.077C130.266 243.281 131.194 245.269 132.86 246.67C134.526 248.071 136.419 248.771 138.539 248.771C141.795 248.771 144.294 247.257 146.035 244.228L151.374 246.783C150.124 249.093 148.383 250.948 146.149 252.349C143.953 253.712 141.359 254.393 138.369 254.393ZM145.524 235.936C145.448 235.028 145.146 234.1 144.615 233.153C144.085 232.207 143.253 231.412 142.117 230.768C141.019 230.087 139.637 229.746 137.971 229.746C136.116 229.746 134.507 230.314 133.144 231.45C131.819 232.586 130.91 234.081 130.418 235.936H145.524Z" fill="#5A5A5A"/>
<path d="M106.494 225.316H112.4V229.519H112.741C113.347 228.08 114.445 226.888 116.035 225.941C117.625 224.957 119.253 224.465 120.919 224.465C122.282 224.465 123.399 224.654 124.27 225.033V231.563C122.982 230.92 121.544 230.598 119.954 230.598C117.909 230.598 116.186 231.393 114.786 232.983C113.423 234.535 112.741 236.447 112.741 238.719V253.485H106.494V225.316Z" fill="#5A5A5A"/>
<path d="M97.5775 220.546C96.4038 220.546 95.4005 220.148 94.5676 219.353C93.7725 218.52 93.375 217.517 93.375 216.343C93.375 215.17 93.7725 214.185 94.5676 213.39C95.4005 212.557 96.4038 212.141 97.5775 212.141C98.7512 212.141 99.7356 212.557 100.531 213.39C101.364 214.185 101.78 215.17 101.78 216.343C101.78 217.517 101.364 218.52 100.531 219.353C99.7356 220.148 98.7512 220.546 97.5775 220.546ZM94.454 225.316H100.701V253.485H94.454V225.316Z" fill="#5A5A5A"/>
<path d="M66 212.822H90.704V218.899H72.3606V230.598H88.8867V236.618H72.3606V253.484H66V212.822Z" fill="#5A5A5A"/>
<path d="M0.256945 269.099H5.61048L15.6911 298.657L17.0579 302.701H17.2857L18.7095 298.657L29.2458 269.099H34.5993L19.6777 309.877H14.6659L0.256945 269.099ZM47.3175 310.788C44.5458 310.788 42.0589 310.124 39.8567 308.795C37.6546 307.466 35.927 305.643 34.674 303.327C33.4591 300.973 32.8516 298.334 32.8516 295.411C32.8516 292.601 33.4211 290.019 34.5601 287.665C35.7372 285.311 37.3888 283.432 39.515 282.027C41.6412 280.622 44.1092 279.92 46.9188 279.92C49.7664 279.92 52.2344 280.565 54.3226 281.856C56.4109 283.109 58.0056 284.856 59.1067 287.096C60.2457 289.336 60.8152 291.899 60.8152 294.784C60.8152 295.354 60.7583 295.847 60.6444 296.265H37.6925C37.8064 298.467 38.338 300.328 39.2872 301.846C40.2364 303.365 41.4324 304.504 42.8752 305.264C44.356 306.023 45.8937 306.403 47.4883 306.403C51.2092 306.403 54.0759 304.656 56.0882 301.163L60.1887 303.156C58.9358 305.51 57.2272 307.371 55.063 308.738C52.9368 310.105 50.355 310.788 47.3175 310.788ZM55.6895 292.278C55.6136 291.063 55.2719 289.848 54.6644 288.633C54.0569 287.418 53.0887 286.393 51.7598 285.558C50.4689 284.723 48.8362 284.305 46.8619 284.305C44.5838 284.305 42.6474 285.045 41.0527 286.526C39.496 287.969 38.4709 289.886 37.9773 292.278H55.6895ZM65.3416 280.831H69.9548V285.444H70.1826C70.866 283.736 72.024 282.407 73.6567 281.457C75.2893 280.508 77.0738 280.034 79.0102 280.034C79.8455 280.034 80.5479 280.091 81.1174 280.204V285.159C80.472 285.007 79.5987 284.932 78.4976 284.932C76.0297 284.932 74.0174 285.748 72.4607 287.38C70.9419 289.013 70.1826 291.139 70.1826 293.759V309.877H65.3416V280.831ZM98.0893 310.332C96.9123 310.332 95.8112 310.142 94.786 309.763C93.7989 309.383 92.9636 308.871 92.2801 308.225C91.5208 307.504 90.9512 306.668 90.5716 305.719C90.1919 304.77 90.002 303.612 90.002 302.245V285.216H84.9333V280.831H90.002V272.63H94.843V280.831H101.905V285.216H94.843V301.049C94.843 302.644 95.1467 303.821 95.7542 304.58C96.4756 305.415 97.5198 305.833 98.8866 305.833C99.9877 305.833 101.051 305.51 102.076 304.865V309.592C101.506 309.858 100.918 310.048 100.31 310.161C99.7409 310.275 99.0005 310.332 98.0893 310.332ZM118.288 310.788C115.516 310.788 113.029 310.124 110.827 308.795C108.625 307.466 106.897 305.643 105.644 303.327C104.429 300.973 103.822 298.334 103.822 295.411C103.822 292.601 104.391 290.019 105.53 287.665C106.708 285.311 108.359 283.432 110.485 282.027C112.612 280.622 115.08 279.92 117.889 279.92C120.737 279.92 123.205 280.565 125.293 281.856C127.381 283.109 128.976 284.856 130.077 287.096C131.216 289.336 131.786 291.899 131.786 294.784C131.786 295.354 131.729 295.847 131.615 296.265H108.663C108.777 298.467 109.308 300.328 110.258 301.846C111.207 303.365 112.403 304.504 113.846 305.264C115.326 306.023 116.864 306.403 118.459 306.403C122.18 306.403 125.046 304.656 127.059 301.163L131.159 303.156C129.906 305.51 128.198 307.371 126.033 308.738C123.907 310.105 121.325 310.788 118.288 310.788ZM126.66 292.278C126.584 291.063 126.242 289.848 125.635 288.633C125.027 287.418 124.059 286.393 122.73 285.558C121.439 284.723 119.807 284.305 117.832 284.305C115.554 284.305 113.618 285.045 112.023 286.526C110.466 287.969 109.441 289.886 108.948 292.278H126.66ZM143.16 295.126L133.079 280.831H138.546L146.064 291.595L153.297 280.831H158.935L148.798 295.126L159.163 309.877H153.525L145.95 298.714L138.546 309.877H132.908L143.16 295.126ZM185.444 269.099H190.912L206.403 309.877H201.106L197.006 298.657H179.407L175.307 309.877H170.01L185.444 269.099ZM195.354 294.101L189.943 279.407L188.292 275.022H188.064L186.469 279.407L181.059 294.101H195.354ZM210.671 269.099H215.455V309.877H210.671V269.099ZM245.201 310.788C242.011 310.788 239.088 309.82 236.43 307.883C233.772 305.947 231.95 303.232 230.963 299.739L235.576 297.86C236.221 300.29 237.417 302.283 239.164 303.84C240.91 305.396 242.961 306.175 245.315 306.175C247.669 306.175 249.662 305.548 251.295 304.295C252.927 303.004 253.744 301.258 253.744 299.056C253.744 297.157 253.041 295.601 251.636 294.386C250.269 293.133 248.01 291.975 244.859 290.912L242.296 290C239.41 288.975 237.056 287.627 235.234 285.957C233.411 284.286 232.5 281.97 232.5 279.008C232.5 277.072 233.032 275.288 234.095 273.655C235.158 271.984 236.639 270.655 238.537 269.668C240.436 268.681 242.562 268.187 244.916 268.187C247.27 268.187 249.32 268.624 251.067 269.497C252.813 270.371 254.199 271.434 255.224 272.687C256.287 273.94 257.028 275.174 257.445 276.389L252.889 278.325C252.51 276.92 251.636 275.648 250.269 274.509C248.941 273.37 247.175 272.801 244.973 272.801C242.885 272.801 241.1 273.389 239.619 274.566C238.139 275.743 237.398 277.224 237.398 279.008C237.398 280.603 238.025 281.913 239.278 282.938C240.531 283.925 242.429 284.856 244.973 285.729L247.65 286.64C251.105 287.893 253.8 289.469 255.737 291.367C257.673 293.228 258.641 295.771 258.641 298.999C258.641 301.619 257.958 303.821 256.591 305.605C255.262 307.39 253.573 308.7 251.522 309.535C249.472 310.37 247.365 310.788 245.201 310.788ZM264.596 269.099H276.897C281.074 269.099 284.719 269.972 287.832 271.719C290.946 273.427 293.338 275.819 295.008 278.895C296.679 281.97 297.514 285.501 297.514 289.488C297.514 293.474 296.679 297.005 295.008 300.081C293.338 303.156 290.946 305.567 287.832 307.314C284.719 309.022 281.074 309.877 276.897 309.877H264.596V269.099ZM276.897 305.264C281.719 305.264 285.535 303.878 288.345 301.106C291.192 298.334 292.616 294.462 292.616 289.488C292.616 284.514 291.192 280.641 288.345 277.869C285.535 275.098 281.719 273.712 276.897 273.712H269.38V305.264H276.897ZM303.501 269.099H308.285V290.57H308.513L326.909 269.099H333.117V269.327L318.024 286.754L334.199 309.649V309.877H328.333L314.778 290.456L308.285 297.917V309.877H303.501V269.099Z" fill="#5A5A5A"/>
<path d="M140.196 176.072C147.728 179.103 155.9 180.902 164.48 181.202C176.092 181.607 187.135 179.206 197.006 174.646C185.169 169.995 174.448 163.193 165.298 154.737C159.366 164.234 150.594 171.734 140.196 176.072Z" fill="#FF9100"/>
<path d="M165.298 154.739C144.411 135.422 131.74 107.463 132.811 76.7966C132.846 75.8008 132.898 74.8056 132.96 73.8107C129.219 72.8432 125.314 72.2528 121.295 72.1125C115.542 71.9116 109.971 72.6251 104.712 74.1061C99.1361 83.873 95.7714 95.0792 95.3522 107.083C94.2705 138.06 113.017 165.128 140.196 176.074C150.594 171.737 159.366 164.245 165.298 154.739Z" fill="#FFC400"/>
<path d="M165.298 154.739C170.154 146.968 173.099 137.857 173.441 128.04C174.343 102.22 156.985 80.008 132.96 73.8099C132.899 74.8048 132.846 75.8 132.812 76.7959C131.741 107.462 144.412 135.421 165.298 154.739Z" fill="#FF9100"/>
<path d="M170.755 1.23018C157.072 12.1917 146.268 26.6455 139.731 43.2959C135.988 52.833 133.636 63.0774 132.95 73.8163C156.974 80.0144 174.332 102.226 173.43 128.047C173.088 137.863 170.135 146.965 165.287 154.745C174.437 163.21 185.158 170.003 196.996 174.654C220.757 163.67 237.615 140.036 238.591 112.082C239.224 93.9699 232.265 77.8275 222.432 64.202C212.048 49.7916 170.755 1.23018 170.755 1.23018Z" fill="#DD2C00"/>
<g filter="url(#filter0_d_57_5579)">
<circle cx="243" cy="137" r="45" fill="white"/>
<g clip-path="url(#clip0_57_5579)">
<path d="M224.827 121.245C224.263 121.193 223.741 120.96 223.359 120.589C222.977 120.218 222.763 119.736 222.756 119.234V114.261C222.766 113.73 223.009 113.224 223.432 112.849C223.856 112.474 224.427 112.259 225.026 112.25C225.621 112.259 226.188 112.475 226.605 112.851C227.022 113.227 227.256 113.733 227.256 114.261V119.234C227.257 119.511 227.193 119.784 227.069 120.038C226.945 120.291 226.764 120.52 226.536 120.708C226.308 120.897 226.038 121.042 225.744 121.134C225.45 121.227 225.138 121.264 224.827 121.245Z" fill="#1F1F1F"/>
<path d="M260.817 127.995C260.253 127.943 259.731 127.71 259.349 127.339C258.968 126.968 258.753 126.486 258.746 125.984V121.011C258.756 120.48 258.999 119.974 259.422 119.599C259.846 119.224 260.417 119.009 261.016 119C261.611 119.009 262.178 119.225 262.595 119.601C263.012 119.977 263.246 120.483 263.246 121.011V125.984C263.247 126.261 263.183 126.534 263.059 126.788C262.935 127.041 262.754 127.27 262.526 127.458C262.298 127.647 262.029 127.792 261.735 127.884C261.44 127.977 261.128 128.014 260.817 127.995Z" fill="#1F1F1F"/>
<path d="M225.006 128C226.249 128 227.256 126.993 227.256 125.75C227.256 124.507 226.249 123.5 225.006 123.5C223.763 123.5 222.756 124.507 222.756 125.75C222.756 126.993 223.763 128 225.006 128Z" fill="#1F1F1F"/>
<path d="M225.006 141.5C226.249 141.5 227.256 140.493 227.256 139.25C227.256 138.007 226.249 137 225.006 137C223.763 137 222.756 138.007 222.756 139.25C222.756 140.493 223.763 141.5 225.006 141.5Z" fill="#1F1F1F"/>
<path d="M225.006 134.75C226.249 134.75 227.256 133.743 227.256 132.5C227.256 131.257 226.249 130.25 225.006 130.25C223.763 130.25 222.756 131.257 222.756 132.5C222.756 133.743 223.763 134.75 225.006 134.75Z" fill="#1F1F1F"/>
<path d="M260.996 141.5C262.239 141.5 263.246 140.493 263.246 139.25C263.246 138.007 262.239 137 260.996 137C259.753 137 258.746 138.007 258.746 139.25C258.746 140.493 259.753 141.5 260.996 141.5Z" fill="#1F1F1F"/>
<path d="M260.996 134.75C262.239 134.75 263.246 133.743 263.246 132.5C263.246 131.257 262.239 130.25 260.996 130.25C259.753 130.25 258.746 131.257 258.746 132.5C258.746 133.743 259.753 134.75 260.996 134.75Z" fill="#1F1F1F"/>
<path d="M260.996 116.75C262.239 116.75 263.246 115.743 263.246 114.5C263.246 113.257 262.239 112.25 260.996 112.25C259.753 112.25 258.746 113.257 258.746 114.5C258.746 115.743 259.753 116.75 260.996 116.75Z" fill="#1F1F1F"/>
<path d="M251.821 134.745C251.257 134.693 250.735 134.46 250.353 134.089C249.971 133.718 249.757 133.236 249.75 132.734V127.761C249.76 127.23 250.003 126.724 250.426 126.349C250.85 125.974 251.421 125.759 252.02 125.75C252.615 125.759 253.182 125.975 253.599 126.351C254.016 126.727 254.25 127.233 254.25 127.761V132.734C254.251 133.011 254.187 133.284 254.063 133.538C253.939 133.791 253.758 134.02 253.53 134.208C253.302 134.397 253.032 134.542 252.738 134.634C252.444 134.727 252.132 134.764 251.821 134.745Z" fill="#1F1F1F"/>
<path d="M242.821 148.245C242.257 148.193 241.735 147.96 241.353 147.589C240.971 147.218 240.757 146.736 240.75 146.234V141.261C240.76 140.73 241.003 140.224 241.426 139.849C241.85 139.474 242.421 139.259 243.02 139.25C243.615 139.259 244.182 139.475 244.599 139.851C245.016 140.227 245.25 140.733 245.25 141.261V146.234C245.251 146.511 245.187 146.784 245.063 147.038C244.939 147.291 244.758 147.52 244.53 147.708C244.302 147.897 244.032 148.042 243.738 148.134C243.444 148.227 243.132 148.264 242.821 148.245Z" fill="#1F1F1F"/>
<path d="M252 148.25C253.243 148.25 254.25 147.243 254.25 146C254.25 144.757 253.243 143.75 252 143.75C250.757 143.75 249.75 144.757 249.75 146C249.75 147.243 250.757 148.25 252 148.25Z" fill="#1F1F1F"/>
<path d="M243 155C244.243 155 245.25 153.993 245.25 152.75C245.25 151.507 244.243 150.5 243 150.5C241.757 150.5 240.75 151.507 240.75 152.75C240.75 153.993 241.757 155 243 155Z" fill="#1F1F1F"/>
<path d="M252 141.5C253.243 141.5 254.25 140.493 254.25 139.25C254.25 138.007 253.243 137 252 137C250.757 137 249.75 138.007 249.75 139.25C249.75 140.493 250.757 141.5 252 141.5Z" fill="#1F1F1F"/>
<path d="M243 137C244.243 137 245.25 135.993 245.25 134.75C245.25 133.507 244.243 132.5 243 132.5C241.757 132.5 240.75 133.507 240.75 134.75C240.75 135.993 241.757 137 243 137Z" fill="#1F1F1F"/>
<path d="M243 130.25C244.243 130.25 245.25 129.243 245.25 128C245.25 126.757 244.243 125.75 243 125.75C241.757 125.75 240.75 126.757 240.75 128C240.75 129.243 241.757 130.25 243 130.25Z" fill="#1F1F1F"/>
<path d="M233.823 141.495C233.259 141.443 232.737 141.21 232.355 140.839C231.973 140.468 231.759 139.986 231.752 139.484V134.511C231.762 133.98 232.005 133.474 232.428 133.099C232.852 132.724 233.423 132.509 234.022 132.5C234.617 132.509 235.184 132.725 235.601 133.101C236.018 133.477 236.252 133.983 236.252 134.511V139.484C236.253 139.761 236.189 140.034 236.065 140.288C235.941 140.541 235.76 140.77 235.532 140.958C235.304 141.147 235.034 141.292 234.74 141.384C234.446 141.477 234.134 141.514 233.823 141.495Z" fill="#1F1F1F"/>
<path d="M234.002 148.25C235.245 148.25 236.252 147.243 236.252 146C236.252 144.757 235.245 143.75 234.002 143.75C232.759 143.75 231.752 144.757 231.752 146C231.752 147.243 232.759 148.25 234.002 148.25Z" fill="#1F1F1F"/>
<path d="M234.002 130.25C235.245 130.25 236.252 129.243 236.252 128C236.252 126.757 235.245 125.75 234.002 125.75C232.759 125.75 231.752 126.757 231.752 128C231.752 129.243 232.759 130.25 234.002 130.25Z" fill="#1F1F1F"/>
<path d="M234.002 123.5C235.245 123.5 236.252 122.493 236.252 121.25C236.252 120.007 235.245 119 234.002 119C232.759 119 231.752 120.007 231.752 121.25C231.752 122.493 232.759 123.5 234.002 123.5Z" fill="#1F1F1F"/>
<path d="M252 123.5C253.243 123.5 254.25 122.493 254.25 121.25C254.25 120.007 253.243 119 252 119C250.757 119 249.75 120.007 249.75 121.25C249.75 122.493 250.757 123.5 252 123.5Z" fill="#1F1F1F"/>
<path fill-rule="evenodd" clip-rule="evenodd" d="M242.314 158.445L222.247 143.538C221.137 142.713 219.568 142.945 218.744 144.055C217.919 145.165 218.151 146.734 219.261 147.559L239.795 162.812C239.684 162.478 239.625 162.121 239.625 161.75C239.625 160.121 240.779 158.762 242.314 158.445ZM246.204 162.812L266.738 147.559C267.848 146.734 268.08 145.165 267.256 144.055C266.431 142.945 264.863 142.713 263.753 143.538L243.685 158.445C245.22 158.762 246.375 160.121 246.375 161.75C246.375 162.121 246.315 162.478 246.204 162.812Z" fill="#1F1F1F"/>
<path fill-rule="evenodd" clip-rule="evenodd" d="M243 166.246C245.485 166.246 247.5 164.231 247.5 161.746C247.5 159.26 245.485 157.246 243 157.246C240.515 157.246 238.5 159.26 238.5 161.746C238.5 164.231 240.515 166.246 243 166.246ZM243 163.996C244.243 163.996 245.25 162.988 245.25 161.746C245.25 160.503 244.243 159.496 243 159.496C241.757 159.496 240.75 160.503 240.75 161.746C240.75 162.988 241.757 163.996 243 163.996Z" fill="#1F1F1F"/>
</g>
</g>
<defs>
<filter id="filter0_d_57_5579" x="192" y="88.0029" width="102" height="102" filterUnits="userSpaceOnUse" color-interpolation-filters="sRGB">
<feFlood flood-opacity="0" result="BackgroundImageFix"/>
<feColorMatrix in="SourceAlpha" type="matrix" values="0 0 0 0 0 0 0 0 0 0 0 0 0 0 0 0 0 0 127 0" result="hardAlpha"/>
<feOffset dy="2.0029"/>
<feGaussianBlur stdDeviation="3"/>
<feComposite in2="hardAlpha" operator="out"/>
<feColorMatrix type="matrix" values="0 0 0 0 0 0 0 0 0 0 0 0 0 0 0 0 0 0 0.3 0"/>
<feBlend mode="normal" in2="BackgroundImageFix" result="effect1_dropShadow_57_5579"/>
<feBlend mode="normal" in="SourceGraphic" in2="effect1_dropShadow_57_5579" result="shape"/>
</filter>
<clipPath id="clip0_57_5579">
<rect width="54" height="54" fill="white" transform="translate(216 112.25)"/>
</clipPath>
</defs>
</svg>
