<svg width="416" height="327" viewBox="0 0 416 327" fill="none" xmlns="http://www.w3.org/2000/svg">
<path d="M296.285 254.393C293.521 254.393 291.022 253.749 288.788 252.462C286.592 251.175 284.87 249.395 283.62 247.124C282.371 244.814 281.746 242.24 281.746 239.4C281.746 236.674 282.333 234.175 283.507 231.904C284.718 229.594 286.403 227.777 288.561 226.452C290.719 225.089 293.18 224.407 295.944 224.407C298.783 224.407 301.244 225.032 303.327 226.281C305.447 227.531 307.056 229.272 308.154 231.506C309.252 233.702 309.801 236.239 309.801 239.116C309.801 239.457 309.782 239.798 309.744 240.138C309.706 240.479 309.687 240.668 309.687 240.706H287.993C288.182 243.281 289.11 245.268 290.776 246.669C292.442 248.07 294.335 248.77 296.455 248.77C299.711 248.77 302.21 247.256 303.951 244.227L309.29 246.783C308.04 249.092 306.299 250.947 304.065 252.348C301.869 253.711 299.275 254.393 296.285 254.393ZM303.44 235.936C303.364 235.027 303.062 234.1 302.531 233.153C302.001 232.206 301.169 231.411 300.033 230.768C298.935 230.086 297.553 229.746 295.887 229.746C294.032 229.746 292.423 230.313 291.06 231.449C289.735 232.585 288.826 234.081 288.334 235.936H303.44Z" fill="white"/>
<path d="M268.035 254.393C264.817 254.393 262.148 253.654 260.027 252.178C257.945 250.663 256.468 248.77 255.598 246.499L261.163 244.114C261.807 245.666 262.734 246.84 263.946 247.635C265.195 248.43 266.558 248.827 268.035 248.827C269.587 248.827 270.855 248.543 271.84 247.975C272.824 247.37 273.316 246.593 273.316 245.647C273.316 244.738 272.919 244 272.124 243.432C271.329 242.826 270.022 242.296 268.205 241.842L264.343 240.933C262.223 240.441 260.387 239.532 258.835 238.207C257.32 236.844 256.563 235.084 256.563 232.926C256.563 230.313 257.642 228.25 259.8 226.736C261.958 225.183 264.608 224.407 267.751 224.407C270.363 224.407 272.673 224.956 274.679 226.054C276.724 227.152 278.2 228.742 279.109 230.825L273.6 233.153C273.07 231.979 272.256 231.109 271.158 230.541C270.06 229.973 268.868 229.689 267.581 229.689C266.331 229.689 265.233 229.973 264.287 230.541C263.34 231.071 262.867 231.79 262.867 232.699C262.867 233.494 263.189 234.137 263.832 234.63C264.514 235.122 265.574 235.538 267.013 235.879L271.215 236.901C274.055 237.621 276.175 238.718 277.576 240.195C278.977 241.634 279.677 243.375 279.677 245.42C279.677 247.086 279.166 248.6 278.144 249.963C277.159 251.326 275.777 252.405 273.998 253.2C272.256 253.995 270.269 254.393 268.035 254.393Z" fill="white"/>
<path d="M238.149 254.393C236.143 254.393 234.325 253.995 232.697 253.2C231.107 252.367 229.839 251.231 228.892 249.793C227.984 248.316 227.529 246.65 227.529 244.795C227.529 241.842 228.627 239.514 230.823 237.81C233.057 236.106 235.878 235.254 239.285 235.254C242.276 235.254 244.832 235.765 246.952 236.788V235.595C246.952 233.891 246.27 232.49 244.907 231.392C243.582 230.257 241.973 229.689 240.08 229.689C237.203 229.689 234.893 230.862 233.152 233.21L228.381 229.916C229.706 228.136 231.353 226.774 233.322 225.827C235.329 224.88 237.581 224.407 240.08 224.407C244.207 224.407 247.387 225.448 249.621 227.531C251.893 229.575 253.028 232.472 253.028 236.22V253.484H246.952V250.02H246.611C245.702 251.307 244.548 252.367 243.147 253.2C241.746 253.995 240.08 254.393 238.149 254.393ZM239.171 249.225C240.572 249.225 241.859 248.884 243.033 248.203C244.245 247.483 245.191 246.556 245.873 245.42C246.592 244.246 246.952 242.997 246.952 241.672C244.945 240.574 242.806 240.025 240.534 240.025C238.452 240.025 236.824 240.479 235.65 241.388C234.477 242.296 233.89 243.451 233.89 244.852C233.89 246.139 234.401 247.199 235.423 248.032C236.483 248.827 237.733 249.225 239.171 249.225Z" fill="white"/>
<path d="M211.939 254.393C209.894 254.393 208.058 253.958 206.43 253.087C204.84 252.216 203.648 251.118 202.852 249.793H202.512V253.484H196.605V212.822H202.852V225.032L202.512 228.951H202.852C203.648 227.664 204.84 226.585 206.43 225.714C208.058 224.843 209.894 224.408 211.939 224.408C214.362 224.408 216.596 225.051 218.64 226.338C220.723 227.626 222.37 229.424 223.581 231.734C224.83 234.005 225.455 236.561 225.455 239.4C225.455 242.24 224.83 244.795 223.581 247.067C222.37 249.339 220.723 251.137 218.64 252.462C216.596 253.749 214.362 254.393 211.939 254.393ZM210.86 248.657C212.336 248.657 213.699 248.279 214.949 247.521C216.236 246.764 217.258 245.685 218.016 244.284C218.811 242.846 219.208 241.218 219.208 239.4C219.208 237.583 218.811 235.974 218.016 234.573C217.258 233.134 216.236 232.036 214.949 231.279C213.699 230.522 212.336 230.143 210.86 230.143C209.383 230.143 208.001 230.522 206.714 231.279C205.465 232.036 204.443 233.115 203.648 234.516C202.89 235.917 202.512 237.545 202.512 239.4C202.512 241.255 202.89 242.883 203.648 244.284C204.443 245.685 205.465 246.764 206.714 247.521C208.001 248.279 209.383 248.657 210.86 248.657Z" fill="white"/>
<path d="M179.369 254.393C176.605 254.393 174.106 253.749 171.872 252.462C169.676 251.175 167.954 249.395 166.704 247.124C165.455 244.814 164.83 242.24 164.83 239.4C164.83 236.674 165.417 234.175 166.591 231.904C167.802 229.594 169.487 227.777 171.645 226.452C173.803 225.089 176.264 224.407 179.028 224.407C181.867 224.407 184.328 225.032 186.411 226.281C188.531 227.531 190.14 229.272 191.238 231.506C192.336 233.702 192.885 236.239 192.885 239.116C192.885 239.457 192.866 239.798 192.828 240.138C192.79 240.479 192.771 240.668 192.771 240.706H171.077C171.266 243.281 172.194 245.268 173.86 246.669C175.526 248.07 177.419 248.77 179.539 248.77C182.795 248.77 185.294 247.256 187.035 244.227L192.374 246.783C191.124 249.092 189.383 250.947 187.149 252.348C184.953 253.711 182.359 254.393 179.369 254.393ZM186.524 235.936C186.448 235.027 186.146 234.1 185.615 233.153C185.085 232.206 184.253 231.411 183.117 230.768C182.019 230.086 180.637 229.746 178.971 229.746C177.116 229.746 175.507 230.313 174.144 231.449C172.819 232.585 171.91 234.081 171.418 235.936H186.524Z" fill="white"/>
<path d="M147.494 225.316H153.4V229.519H153.741C154.347 228.08 155.445 226.887 157.035 225.941C158.625 224.957 160.253 224.464 161.919 224.464C163.282 224.464 164.399 224.654 165.27 225.032V231.563C163.982 230.92 162.544 230.598 160.954 230.598C158.909 230.598 157.186 231.393 155.786 232.983C154.423 234.535 153.741 236.447 153.741 238.719V253.484H147.494V225.316Z" fill="white"/>
<path d="M138.578 220.546C137.404 220.546 136.401 220.148 135.568 219.353C134.773 218.52 134.375 217.517 134.375 216.343C134.375 215.169 134.773 214.185 135.568 213.39C136.401 212.557 137.404 212.141 138.578 212.141C139.751 212.141 140.736 212.557 141.531 213.39C142.364 214.185 142.78 215.169 142.78 216.343C142.78 217.517 142.364 218.52 141.531 219.353C140.736 220.148 139.751 220.546 138.578 220.546ZM135.454 225.316H141.701V253.484H135.454V225.316Z" fill="white"/>
<path d="M107 212.822H131.704V218.898H113.361V230.597H129.887V236.617H113.361V253.484H107V212.822Z" fill="white"/>
<path d="M22.0749 310.788C18.2401 310.788 14.709 309.858 11.4817 307.998C8.25439 306.137 5.69153 303.574 3.79312 300.309C1.8947 297.044 0.945491 293.437 0.945491 289.488C0.945491 285.539 1.8947 281.932 3.79312 278.667C5.69153 275.402 8.25439 272.839 11.4817 270.978C14.709 269.118 18.2401 268.188 22.0749 268.188C25.0744 268.188 27.884 268.719 30.5038 269.782C33.1616 270.846 35.3448 272.345 37.0534 274.282L33.5793 277.756C32.2883 276.161 30.6367 274.946 28.6244 274.111C26.6121 273.238 24.4479 272.801 22.1318 272.801C19.2462 272.801 16.5505 273.503 14.0446 274.908C11.5766 276.275 9.58328 278.23 8.06455 280.774C6.58379 283.28 5.8434 286.185 5.8434 289.488C5.8434 292.791 6.58379 295.715 8.06455 298.259C9.58328 300.765 11.5956 302.72 14.1015 304.125C16.6074 305.492 19.2842 306.175 22.1318 306.175C24.8655 306.175 27.1436 305.757 28.9661 304.922C30.8266 304.049 32.4212 302.91 33.7501 301.505C34.7373 300.442 35.5346 299.17 36.1421 297.689C36.7496 296.17 37.1293 294.5 37.2812 292.677H22.1888V288.178H41.7804C41.9703 289.241 42.0652 290.228 42.0652 291.14C42.0652 293.645 41.6665 296.094 40.8692 298.486C40.0718 300.84 38.7999 302.91 37.0534 304.694C33.2945 308.757 28.3017 310.788 22.0749 310.788ZM60.2668 310.788C57.4192 310.788 54.8564 310.105 52.5783 308.738C50.3002 307.371 48.5156 305.511 47.2247 303.157C45.9718 300.803 45.3453 298.202 45.3453 295.354C45.3453 292.506 45.9718 289.906 47.2247 287.552C48.5156 285.198 50.3002 283.337 52.5783 281.97C54.8564 280.603 57.4192 279.92 60.2668 279.92C63.1145 279.92 65.6773 280.603 67.9554 281.97C70.2335 283.337 71.999 285.198 73.252 287.552C74.5429 289.906 75.1884 292.506 75.1884 295.354C75.1884 298.202 74.5429 300.803 73.252 303.157C71.999 305.511 70.2335 307.371 67.9554 308.738C65.6773 310.105 63.1145 310.788 60.2668 310.788ZM60.2668 306.403C62.0513 306.403 63.703 305.966 65.2217 305.093C66.7784 304.182 68.0124 302.891 68.9236 301.22C69.8728 299.55 70.3474 297.594 70.3474 295.354C70.3474 293.114 69.8728 291.159 68.9236 289.488C68.0124 287.817 66.7784 286.545 65.2217 285.672C63.703 284.761 62.0513 284.305 60.2668 284.305C58.4823 284.305 56.8117 284.761 55.255 285.672C53.6983 286.545 52.4454 287.817 51.4962 289.488C50.5849 291.159 50.1293 293.114 50.1293 295.354C50.1293 297.594 50.5849 299.55 51.4962 301.22C52.4454 302.891 53.6983 304.182 55.255 305.093C56.8117 305.966 58.4823 306.403 60.2668 306.403ZM93.0546 310.788C90.2069 310.788 87.6441 310.105 85.366 308.738C83.0879 307.371 81.3034 305.511 80.0124 303.157C78.7595 300.803 78.133 298.202 78.133 295.354C78.133 292.506 78.7595 289.906 80.0124 287.552C81.3034 285.198 83.0879 283.337 85.366 281.97C87.6441 280.603 90.2069 279.92 93.0546 279.92C95.9022 279.92 98.465 280.603 100.743 281.97C103.021 283.337 104.787 285.198 106.04 287.552C107.331 289.906 107.976 292.506 107.976 295.354C107.976 298.202 107.331 300.803 106.04 303.157C104.787 305.511 103.021 307.371 100.743 308.738C98.465 310.105 95.9022 310.788 93.0546 310.788ZM93.0546 306.403C94.8391 306.403 96.4907 305.966 98.0094 305.093C99.5661 304.182 100.8 302.891 101.711 301.22C102.661 299.55 103.135 297.594 103.135 295.354C103.135 293.114 102.661 291.159 101.711 289.488C100.8 287.817 99.5661 286.545 98.0094 285.672C96.4907 284.761 94.8391 284.305 93.0546 284.305C91.27 284.305 89.5994 284.761 88.0427 285.672C86.486 286.545 85.2331 287.817 84.2839 289.488C83.3726 291.159 82.917 293.114 82.917 295.354C82.917 297.594 83.3726 299.55 84.2839 301.22C85.2331 302.891 86.486 304.182 88.0427 305.093C89.5994 305.966 91.27 306.403 93.0546 306.403ZM125.216 323.09C121.799 323.09 118.97 322.293 116.73 320.698C114.528 319.103 113.047 317.186 112.288 314.946L116.673 313.066C117.318 314.737 118.382 316.085 119.862 317.11C121.381 318.173 123.166 318.705 125.216 318.705C128.215 318.705 130.531 317.831 132.164 316.085C133.835 314.338 134.67 311.87 134.67 308.681V305.435H134.442C133.493 306.915 132.145 308.13 130.398 309.08C128.69 309.991 126.735 310.446 124.532 310.446C122.026 310.446 119.729 309.801 117.641 308.51C115.591 307.219 113.958 305.416 112.743 303.1C111.528 300.784 110.921 298.145 110.921 295.183C110.921 292.26 111.528 289.64 112.743 287.324C113.958 284.97 115.591 283.147 117.641 281.856C119.729 280.565 122.026 279.92 124.532 279.92C126.735 279.92 128.69 280.395 130.398 281.344C132.145 282.255 133.493 283.47 134.442 284.989H134.67V280.831H139.283V308.738C139.283 313.408 137.992 316.958 135.41 319.388C132.828 321.856 129.43 323.09 125.216 323.09ZM125.216 306.061C126.962 306.061 128.538 305.625 129.943 304.751C131.386 303.878 132.525 302.625 133.36 300.992C134.233 299.36 134.67 297.423 134.67 295.183C134.67 292.905 134.233 290.95 133.36 289.317C132.525 287.684 131.386 286.451 129.943 285.615C128.538 284.742 126.962 284.305 125.216 284.305C123.469 284.305 121.875 284.742 120.432 285.615C118.989 286.488 117.831 287.741 116.958 289.374C116.122 291.007 115.705 292.943 115.705 295.183C115.705 297.423 116.122 299.379 116.958 301.049C117.831 302.682 118.989 303.935 120.432 304.808C121.875 305.643 123.469 306.061 125.216 306.061ZM145.302 269.099H150.143V309.877H145.302V269.099ZM168.826 310.788C166.055 310.788 163.568 310.124 161.366 308.795C159.163 307.466 157.436 305.643 156.183 303.327C154.968 300.973 154.36 298.335 154.36 295.411C154.36 292.601 154.93 290.02 156.069 287.665C157.246 285.311 158.898 283.432 161.024 282.027C163.15 280.622 165.618 279.92 168.428 279.92C171.275 279.92 173.743 280.565 175.831 281.856C177.92 283.109 179.514 284.856 180.615 287.096C181.754 289.336 182.324 291.899 182.324 294.785C182.324 295.354 182.267 295.848 182.153 296.265H159.201C159.315 298.467 159.847 300.328 160.796 301.847C161.745 303.365 162.941 304.504 164.384 305.264C165.865 306.023 167.402 306.403 168.997 306.403C172.718 306.403 175.585 304.656 177.597 301.163L181.698 303.157C180.445 305.511 178.736 307.371 176.572 308.738C174.446 310.105 171.864 310.788 168.826 310.788ZM177.198 292.279C177.122 291.064 176.781 289.849 176.173 288.634C175.566 287.419 174.597 286.394 173.269 285.558C171.978 284.723 170.345 284.305 168.371 284.305C166.093 284.305 164.156 285.046 162.562 286.526C161.005 287.969 159.98 289.887 159.486 292.279H177.198ZM209.925 269.099H215.392L230.883 309.877H225.587L221.486 298.657H203.888L199.787 309.877H194.49L209.925 269.099ZM219.834 294.101L214.424 279.407L212.772 275.022H212.544L210.95 279.407L205.539 294.101H219.834ZM234.183 280.831H238.796V285.103H239.024C239.822 283.66 241.093 282.445 242.84 281.458C244.587 280.433 246.447 279.92 248.421 279.92C251.914 279.92 254.572 280.945 256.395 282.995C258.255 285.008 259.185 287.76 259.185 291.253V309.877H254.344V291.994C254.344 289.298 253.699 287.343 252.408 286.128C251.117 284.913 249.352 284.305 247.111 284.305C245.555 284.305 244.15 284.742 242.897 285.615C241.682 286.488 240.733 287.647 240.049 289.089C239.366 290.494 239.024 291.975 239.024 293.532V309.877H234.183V280.831ZM273.974 310.788C271.848 310.788 269.949 310.371 268.279 309.535C266.608 308.7 265.317 307.561 264.406 306.118C263.495 304.637 263.039 302.967 263.039 301.106C263.039 298.031 264.197 295.639 266.513 293.93C268.829 292.184 271.753 291.31 275.284 291.31C277.03 291.31 278.644 291.5 280.125 291.88C281.643 292.26 282.802 292.696 283.599 293.19V291.424C283.599 289.26 282.839 287.533 281.321 286.242C279.802 284.913 277.885 284.248 275.569 284.248C273.936 284.248 272.436 284.609 271.069 285.33C269.702 286.014 268.62 286.982 267.823 288.235L264.178 285.501C265.317 283.755 266.874 282.388 268.848 281.401C270.86 280.414 273.082 279.92 275.512 279.92C279.46 279.92 282.555 280.964 284.795 283.052C287.073 285.103 288.212 287.912 288.212 291.481V309.877H283.599V305.719H283.371C282.536 307.124 281.283 308.32 279.612 309.307C277.942 310.295 276.062 310.788 273.974 310.788ZM274.43 306.517C276.062 306.517 277.581 306.099 278.986 305.264C280.391 304.428 281.511 303.308 282.346 301.904C283.181 300.499 283.599 298.961 283.599 297.29C282.688 296.683 281.568 296.189 280.239 295.81C278.91 295.43 277.505 295.24 276.024 295.24C273.366 295.24 271.354 295.791 269.987 296.892C268.658 297.993 267.994 299.417 267.994 301.163C267.994 302.758 268.601 304.049 269.816 305.036C271.031 306.023 272.569 306.517 274.43 306.517ZM293.808 269.099H298.649V309.877H293.808V269.099ZM313.567 308.054L301.55 280.831H306.789L315.902 302.416H316.015L324.786 280.831H330.026L312.086 322.179H307.074L313.567 308.054ZM344.072 310.333C342.895 310.333 341.794 310.143 340.768 309.763C339.781 309.383 338.946 308.871 338.263 308.225C337.503 307.504 336.934 306.669 336.554 305.719C336.174 304.77 335.984 303.612 335.984 302.245V285.217H330.916V280.831H335.984V272.63H340.825V280.831H347.888V285.217H340.825V301.049C340.825 302.644 341.129 303.821 341.737 304.58C342.458 305.416 343.502 305.833 344.869 305.833C345.97 305.833 347.033 305.511 348.058 304.865V309.592C347.489 309.858 346.9 310.048 346.293 310.162C345.723 310.276 344.983 310.333 344.072 310.333ZM355.752 275.478C354.803 275.478 353.987 275.136 353.303 274.453C352.62 273.769 352.278 272.953 352.278 272.004C352.278 271.054 352.62 270.257 353.303 269.612C353.987 268.928 354.803 268.586 355.752 268.586C356.702 268.586 357.518 268.928 358.201 269.612C358.885 270.257 359.226 271.054 359.226 272.004C359.226 272.953 358.885 273.769 358.201 274.453C357.556 275.136 356.739 275.478 355.752 275.478ZM353.36 280.831H358.144V309.877H353.36V280.831ZM377.491 310.788C374.682 310.788 372.157 310.124 369.917 308.795C367.676 307.428 365.93 305.587 364.677 303.27C363.424 300.916 362.798 298.278 362.798 295.354C362.798 292.431 363.424 289.792 364.677 287.438C365.93 285.084 367.676 283.242 369.917 281.913C372.157 280.584 374.682 279.92 377.491 279.92C380.643 279.92 383.281 280.66 385.408 282.141C387.572 283.584 389.11 285.52 390.021 287.95L385.635 289.773C384.914 287.988 383.832 286.64 382.389 285.729C380.984 284.78 379.276 284.305 377.263 284.305C375.555 284.305 373.96 284.78 372.479 285.729C370.999 286.64 369.803 287.931 368.891 289.602C368.018 291.272 367.582 293.19 367.582 295.354C367.582 297.518 368.018 299.436 368.891 301.106C369.803 302.777 370.999 304.087 372.479 305.036C373.96 305.947 375.555 306.403 377.263 306.403C379.314 306.403 381.079 305.928 382.56 304.979C384.041 304.03 385.142 302.682 385.863 300.935L390.192 302.758C389.204 305.15 387.61 307.086 385.408 308.567C383.243 310.048 380.605 310.788 377.491 310.788ZM404.424 310.788C401.311 310.788 398.71 310.067 396.621 308.624C394.533 307.143 393.052 305.264 392.179 302.986L396.508 301.049C397.229 302.796 398.292 304.144 399.697 305.093C401.14 306.042 402.715 306.517 404.424 306.517C406.246 306.517 407.803 306.156 409.094 305.435C410.385 304.675 411.03 303.612 411.03 302.245C411.03 301.03 410.518 300.062 409.493 299.341C408.468 298.581 406.854 297.936 404.652 297.404L401.121 296.493C398.805 295.924 396.906 294.955 395.425 293.589C393.945 292.222 393.204 290.456 393.204 288.292C393.204 286.621 393.698 285.16 394.685 283.907C395.71 282.616 397.058 281.629 398.729 280.945C400.399 280.262 402.203 279.92 404.139 279.92C406.683 279.92 408.942 280.47 410.917 281.572C412.929 282.673 414.353 284.21 415.188 286.185L410.974 288.121C409.683 285.539 407.386 284.248 404.082 284.248C402.488 284.248 401.083 284.628 399.868 285.387C398.691 286.109 398.102 287.039 398.102 288.178C398.102 289.241 398.52 290.114 399.355 290.798C400.191 291.443 401.443 291.975 403.114 292.393L407.329 293.475C410.176 294.196 412.321 295.278 413.764 296.721C415.207 298.126 415.928 299.853 415.928 301.904C415.928 303.688 415.416 305.264 414.391 306.631C413.366 307.96 411.98 308.985 410.233 309.706C408.487 310.427 406.55 310.788 404.424 310.788Z" fill="white"/>
<path d="M181.196 176.071C188.728 179.103 196.9 180.902 205.48 181.201C217.092 181.607 228.135 179.206 238.006 174.646C226.169 169.995 215.448 163.193 206.298 154.737C200.366 164.233 191.594 171.734 181.196 176.071Z" fill="#FF9100"/>
<path d="M206.298 154.74C185.411 135.423 172.74 107.463 173.811 76.7969C173.846 75.801 173.898 74.8058 173.96 73.8109C170.219 72.8435 166.314 72.2531 162.295 72.1127C156.542 71.9118 150.971 72.6253 145.712 74.1064C140.136 83.8733 136.771 95.0794 136.352 107.083C135.27 138.06 154.017 165.128 181.196 176.074C191.594 171.737 200.366 164.245 206.298 154.74Z" fill="#FFC400"/>
<path d="M206.298 154.739C211.154 146.968 214.099 137.857 214.441 128.041C215.343 102.22 197.985 80.0082 173.96 73.8101C173.899 74.805 173.846 75.8003 173.812 76.7961C172.741 107.462 185.412 135.422 206.298 154.739Z" fill="#FF9100"/>
<path d="M211.755 1.23018C198.072 12.1917 187.268 26.6455 180.731 43.2959C176.988 52.833 174.636 63.0774 173.95 73.8163C197.974 80.0144 215.332 102.226 214.43 128.047C214.088 137.863 211.135 146.965 206.287 154.745C215.437 163.21 226.158 170.003 237.996 174.654C261.757 163.67 278.615 140.036 279.591 112.082C280.224 93.9699 273.265 77.8275 263.432 64.202C253.048 49.7916 211.755 1.23018 211.755 1.23018Z" fill="#DD2C00"/>
<g filter="url(#filter0_d_57_6890)">
<circle cx="284" cy="137" r="45" fill="white"/>
<path fill-rule="evenodd" clip-rule="evenodd" d="M269.375 152.75C267.511 152.75 266 151.239 266 149.375C266 147.511 267.511 146 269.375 146H271.625C273.489 146 275 144.489 275 142.625C275 140.761 273.489 139.25 271.625 139.25H267.125C265.261 139.25 263.75 137.739 263.75 135.875C263.75 134.011 265.261 132.5 267.125 132.5H275C276.243 132.5 277.25 131.493 277.25 130.25C277.25 129.007 276.243 128 275 128C273.136 128 271.625 126.489 271.625 124.625C271.625 122.761 273.136 121.25 275 121.25H308.683C310.094 121.25 311.162 122.573 310.919 124.02L306.419 150.795C306.252 151.906 305.306 152.733 304.183 152.75H269.375ZM279.152 148.25H302.297L306.068 125.75H282.875L279.152 148.25ZM299.439 144.875H283.131L285.737 129.125H302.081L299.439 144.875ZM260.375 152.75C258.511 152.75 257 151.239 257 149.375C257 147.511 258.511 146 260.375 146C262.239 146 263.75 147.511 263.75 149.375C263.75 151.239 262.239 152.75 260.375 152.75Z" fill="#1F1F1F"/>
</g>
<defs>
<filter id="filter0_d_57_6890" x="233" y="88.0029" width="102" height="102" filterUnits="userSpaceOnUse" color-interpolation-filters="sRGB">
<feFlood flood-opacity="0" result="BackgroundImageFix"/>
<feColorMatrix in="SourceAlpha" type="matrix" values="0 0 0 0 0 0 0 0 0 0 0 0 0 0 0 0 0 0 127 0" result="hardAlpha"/>
<feOffset dy="2.0029"/>
<feGaussianBlur stdDeviation="3"/>
<feComposite in2="hardAlpha" operator="out"/>
<feColorMatrix type="matrix" values="0 0 0 0 0 0 0 0 0 0 0 0 0 0 0 0 0 0 0.3 0"/>
<feBlend mode="normal" in2="BackgroundImageFix" result="effect1_dropShadow_57_6890"/>
<feBlend mode="normal" in="SourceGraphic" in2="effect1_dropShadow_57_6890" result="shape"/>
</filter>
</defs>
</svg>
