<svg width="458" height="327" viewBox="0 0 458 327" fill="none" xmlns="http://www.w3.org/2000/svg">
<path d="M316.285 254.393C313.521 254.393 311.022 253.749 308.788 252.462C306.592 251.175 304.87 249.395 303.62 247.124C302.371 244.814 301.746 242.24 301.746 239.4C301.746 236.674 302.333 234.175 303.507 231.904C304.718 229.594 306.403 227.777 308.561 226.452C310.719 225.089 313.18 224.407 315.944 224.407C318.783 224.407 321.244 225.032 323.327 226.281C325.447 227.531 327.056 229.272 328.154 231.506C329.252 233.702 329.801 236.239 329.801 239.116C329.801 239.457 329.782 239.798 329.744 240.138C329.706 240.479 329.687 240.668 329.687 240.706H307.993C308.182 243.281 309.11 245.268 310.776 246.669C312.442 248.07 314.335 248.77 316.455 248.77C319.711 248.77 322.21 247.256 323.951 244.227L329.29 246.783C328.04 249.092 326.299 250.947 324.065 252.348C321.869 253.711 319.275 254.393 316.285 254.393ZM323.44 235.936C323.364 235.027 323.062 234.1 322.531 233.153C322.001 232.206 321.169 231.411 320.033 230.768C318.935 230.086 317.553 229.746 315.887 229.746C314.032 229.746 312.423 230.313 311.06 231.449C309.735 232.585 308.826 234.081 308.334 235.936H323.44Z" fill="white"/>
<path d="M288.035 254.393C284.817 254.393 282.148 253.654 280.027 252.178C277.945 250.663 276.468 248.77 275.598 246.499L281.163 244.114C281.807 245.666 282.734 246.84 283.946 247.635C285.195 248.43 286.558 248.827 288.035 248.827C289.587 248.827 290.855 248.543 291.84 247.975C292.824 247.37 293.316 246.593 293.316 245.647C293.316 244.738 292.919 244 292.124 243.432C291.329 242.826 290.022 242.296 288.205 241.842L284.343 240.933C282.223 240.441 280.387 239.532 278.835 238.207C277.32 236.844 276.563 235.084 276.563 232.926C276.563 230.313 277.642 228.25 279.8 226.736C281.958 225.183 284.608 224.407 287.751 224.407C290.363 224.407 292.673 224.956 294.679 226.054C296.724 227.152 298.2 228.742 299.109 230.825L293.6 233.153C293.07 231.979 292.256 231.109 291.158 230.541C290.06 229.973 288.868 229.689 287.581 229.689C286.331 229.689 285.233 229.973 284.287 230.541C283.34 231.071 282.867 231.79 282.867 232.699C282.867 233.494 283.189 234.137 283.832 234.63C284.514 235.122 285.574 235.538 287.013 235.879L291.215 236.901C294.055 237.621 296.175 238.718 297.576 240.195C298.977 241.634 299.677 243.375 299.677 245.42C299.677 247.086 299.166 248.6 298.144 249.963C297.159 251.326 295.777 252.405 293.998 253.2C292.256 253.995 290.269 254.393 288.035 254.393Z" fill="white"/>
<path d="M258.149 254.393C256.143 254.393 254.325 253.995 252.697 253.2C251.107 252.367 249.839 251.231 248.892 249.793C247.984 248.316 247.529 246.65 247.529 244.795C247.529 241.842 248.627 239.514 250.823 237.81C253.057 236.106 255.878 235.254 259.285 235.254C262.276 235.254 264.832 235.765 266.952 236.788V235.595C266.952 233.891 266.27 232.49 264.907 231.392C263.582 230.257 261.973 229.689 260.08 229.689C257.203 229.689 254.893 230.862 253.152 233.21L248.381 229.916C249.706 228.136 251.353 226.774 253.322 225.827C255.329 224.88 257.581 224.407 260.08 224.407C264.207 224.407 267.387 225.448 269.621 227.531C271.893 229.575 273.028 232.472 273.028 236.22V253.484H266.952V250.02H266.611C265.702 251.307 264.548 252.367 263.147 253.2C261.746 253.995 260.08 254.393 258.149 254.393ZM259.171 249.225C260.572 249.225 261.859 248.884 263.033 248.203C264.245 247.483 265.191 246.556 265.873 245.42C266.592 244.246 266.952 242.997 266.952 241.672C264.945 240.574 262.806 240.025 260.534 240.025C258.452 240.025 256.824 240.479 255.65 241.388C254.477 242.296 253.89 243.451 253.89 244.852C253.89 246.139 254.401 247.199 255.423 248.032C256.483 248.827 257.733 249.225 259.171 249.225Z" fill="white"/>
<path d="M231.939 254.393C229.894 254.393 228.058 253.958 226.43 253.087C224.84 252.216 223.648 251.118 222.852 249.793H222.512V253.484H216.605V212.822H222.852V225.032L222.512 228.951H222.852C223.648 227.664 224.84 226.585 226.43 225.714C228.058 224.843 229.894 224.408 231.939 224.408C234.362 224.408 236.596 225.051 238.64 226.338C240.723 227.626 242.37 229.424 243.581 231.734C244.83 234.005 245.455 236.561 245.455 239.4C245.455 242.24 244.83 244.795 243.581 247.067C242.37 249.339 240.723 251.137 238.64 252.462C236.596 253.749 234.362 254.393 231.939 254.393ZM230.86 248.657C232.336 248.657 233.699 248.279 234.949 247.521C236.236 246.764 237.258 245.685 238.016 244.284C238.811 242.846 239.208 241.218 239.208 239.4C239.208 237.583 238.811 235.974 238.016 234.573C237.258 233.134 236.236 232.036 234.949 231.279C233.699 230.522 232.336 230.143 230.86 230.143C229.383 230.143 228.001 230.522 226.714 231.279C225.465 232.036 224.443 233.115 223.648 234.516C222.89 235.917 222.512 237.545 222.512 239.4C222.512 241.255 222.89 242.883 223.648 244.284C224.443 245.685 225.465 246.764 226.714 247.521C228.001 248.279 229.383 248.657 230.86 248.657Z" fill="white"/>
<path d="M199.369 254.393C196.605 254.393 194.106 253.749 191.872 252.462C189.676 251.175 187.954 249.395 186.704 247.124C185.455 244.814 184.83 242.24 184.83 239.4C184.83 236.674 185.417 234.175 186.591 231.904C187.802 229.594 189.487 227.777 191.645 226.452C193.803 225.089 196.264 224.407 199.028 224.407C201.867 224.407 204.328 225.032 206.411 226.281C208.531 227.531 210.14 229.272 211.238 231.506C212.336 233.702 212.885 236.239 212.885 239.116C212.885 239.457 212.866 239.798 212.828 240.138C212.79 240.479 212.771 240.668 212.771 240.706H191.077C191.266 243.281 192.194 245.268 193.86 246.669C195.526 248.07 197.419 248.77 199.539 248.77C202.795 248.77 205.294 247.256 207.035 244.227L212.374 246.783C211.124 249.092 209.383 250.947 207.149 252.348C204.953 253.711 202.359 254.393 199.369 254.393ZM206.524 235.936C206.448 235.027 206.146 234.1 205.615 233.153C205.085 232.206 204.253 231.411 203.117 230.768C202.019 230.086 200.637 229.746 198.971 229.746C197.116 229.746 195.507 230.313 194.144 231.449C192.819 232.585 191.91 234.081 191.418 235.936H206.524Z" fill="white"/>
<path d="M167.494 225.317H173.4V229.519H173.741C174.347 228.081 175.445 226.888 177.035 225.941C178.625 224.957 180.253 224.465 181.919 224.465C183.282 224.465 184.399 224.654 185.27 225.033V231.564C183.982 230.92 182.544 230.598 180.954 230.598C178.909 230.598 177.186 231.393 175.786 232.983C174.423 234.536 173.741 236.448 173.741 238.719V253.485H167.494V225.317Z" fill="white"/>
<path d="M158.578 220.546C157.404 220.546 156.401 220.148 155.568 219.353C154.773 218.52 154.375 217.517 154.375 216.343C154.375 215.169 154.773 214.185 155.568 213.39C156.401 212.557 157.404 212.141 158.578 212.141C159.751 212.141 160.736 212.557 161.531 213.39C162.364 214.185 162.78 215.169 162.78 216.343C162.78 217.517 162.364 218.52 161.531 219.353C160.736 220.148 159.751 220.546 158.578 220.546ZM155.454 225.316H161.701V253.484H155.454V225.316Z" fill="white"/>
<path d="M127 212.822H151.704V218.899H133.361V230.598H149.887V236.618H133.361V253.484H127V212.822Z" fill="white"/>
<path d="M1.81691 269.099H15.5994C17.8395 269.099 19.9278 269.612 21.8642 270.637C23.8006 271.662 25.3383 273.105 26.4773 274.965C27.6544 276.788 28.2429 278.857 28.2429 281.173C28.2429 283.071 27.8062 284.837 26.933 286.469C26.0976 288.102 24.9206 289.469 23.4019 290.57C21.9211 291.671 20.2695 292.412 18.447 292.791L18.3331 292.962L29.8375 309.649V309.877H24.1423L13.0365 293.247H6.60092V309.877H1.81691V269.099ZM15.3146 288.748C16.7195 288.748 18.0294 288.425 19.2444 287.779C20.4973 287.134 21.4845 286.242 22.2059 285.103C22.9653 283.926 23.3449 282.616 23.3449 281.173C23.3449 279.92 23.0222 278.724 22.3768 277.585C21.7313 276.446 20.8201 275.516 19.643 274.794C18.504 274.073 17.1751 273.712 15.6564 273.712H6.60092V288.748H15.3146ZM45.4523 310.788C42.6806 310.788 40.1937 310.124 37.9915 308.795C35.7894 307.466 34.0618 305.643 32.8088 303.327C31.5939 300.973 30.9864 298.335 30.9864 295.411C30.9864 292.601 31.5559 290.02 32.6949 287.665C33.872 285.311 35.5236 283.432 37.6498 282.027C39.776 280.622 42.244 279.92 45.0536 279.92C47.9013 279.92 50.3692 280.565 52.4575 281.856C54.5457 283.109 56.1404 284.856 57.2415 287.096C58.3805 289.336 58.95 291.899 58.95 294.785C58.95 295.354 58.8931 295.848 58.7792 296.265H35.8273C35.9412 298.467 36.4728 300.328 37.422 301.847C38.3712 303.365 39.5672 304.504 41.01 305.264C42.4908 306.023 44.0285 306.403 45.6232 306.403C49.344 306.403 52.2107 304.656 54.223 301.163L58.3236 303.157C57.0706 305.511 55.362 307.371 53.1978 308.738C51.0716 310.105 48.4898 310.788 45.4523 310.788ZM53.8243 292.279C53.7484 291.064 53.4067 289.849 52.7992 288.634C52.1917 287.419 51.2235 286.394 49.8946 285.558C48.6037 284.723 46.971 284.305 44.9967 284.305C42.7186 284.305 40.7822 285.046 39.1875 286.526C37.6308 287.969 36.6057 289.887 36.1121 292.279H53.8243ZM73.0378 310.788C70.9115 310.788 69.0131 310.371 67.3425 309.535C65.6719 308.7 64.381 307.561 63.4697 306.118C62.5585 304.637 62.1029 302.967 62.1029 301.106C62.1029 298.031 63.2609 295.639 65.577 293.93C67.8931 292.184 70.8166 291.31 74.3477 291.31C76.0942 291.31 77.7079 291.5 79.1886 291.88C80.7074 292.26 81.8654 292.696 82.6627 293.19V291.424C82.6627 289.26 81.9034 287.533 80.3846 286.242C78.8659 284.913 76.9485 284.248 74.6324 284.248C72.9998 284.248 71.5 284.609 70.1332 285.33C68.7663 286.014 67.6842 286.982 66.8869 288.235L63.2419 285.501C64.381 283.755 65.9377 282.388 67.912 281.401C69.9244 280.414 72.1455 279.92 74.5755 279.92C78.5242 279.92 81.6186 280.964 83.8587 283.052C86.1368 285.103 87.2759 287.912 87.2759 291.481V309.877H82.6627V305.719H82.4349C81.5996 307.124 80.3467 308.32 78.6761 309.307C77.0055 310.295 75.126 310.788 73.0378 310.788ZM73.4934 306.517C75.126 306.517 76.6448 306.099 78.0496 305.264C79.4544 304.428 80.5745 303.308 81.4098 301.904C82.2451 300.499 82.6627 298.961 82.6627 297.29C81.7515 296.683 80.6314 296.189 79.3025 295.81C77.9736 295.43 76.5688 295.24 75.0881 295.24C72.4303 295.24 70.4179 295.791 69.0511 296.892C67.7222 297.993 67.0578 299.417 67.0578 301.163C67.0578 302.758 67.6652 304.049 68.8802 305.036C70.0952 306.023 71.6329 306.517 73.4934 306.517ZM92.8715 269.099H97.7124V309.877H92.8715V269.099ZM115.187 310.333C114.01 310.333 112.908 310.143 111.883 309.763C110.896 309.383 110.061 308.871 109.377 308.225C108.618 307.504 108.049 306.669 107.669 305.719C107.289 304.77 107.099 303.612 107.099 302.245V285.217H102.031V280.831H107.099V272.63H111.94V280.831H119.002V285.217H111.94V301.049C111.94 302.644 112.244 303.821 112.852 304.58C113.573 305.416 114.617 305.833 115.984 305.833C117.085 305.833 118.148 305.511 119.173 304.865V309.592C118.604 309.858 118.015 310.048 117.408 310.162C116.838 310.276 116.098 310.333 115.187 310.333ZM126.867 275.478C125.918 275.478 125.102 275.136 124.418 274.453C123.735 273.769 123.393 272.953 123.393 272.004C123.393 271.054 123.735 270.257 124.418 269.612C125.102 268.928 125.918 268.586 126.867 268.586C127.816 268.586 128.633 268.928 129.316 269.612C130 270.257 130.341 271.054 130.341 272.004C130.341 272.953 130 273.769 129.316 274.453C128.671 275.136 127.854 275.478 126.867 275.478ZM124.475 280.831H129.259V309.877H124.475V280.831ZM135.728 280.831H140.341V285.103H140.569C141.404 283.622 142.657 282.388 144.328 281.401C145.999 280.414 147.764 279.92 149.625 279.92C151.751 279.92 153.592 280.433 155.149 281.458C156.744 282.483 157.883 283.85 158.566 285.558C159.591 283.85 160.939 282.483 162.61 281.458C164.318 280.433 166.293 279.92 168.533 279.92C171.874 279.92 174.38 280.945 176.051 282.995C177.759 285.008 178.613 287.76 178.613 291.253V309.877H173.829V291.994C173.829 289.298 173.279 287.343 172.178 286.128C171.077 284.913 169.444 284.305 167.28 284.305C165.837 284.305 164.527 284.723 163.35 285.558C162.173 286.394 161.243 287.514 160.559 288.918C159.914 290.323 159.591 291.842 159.591 293.475V309.877H154.75V292.051C154.75 289.317 154.2 287.343 153.099 286.128C151.998 284.913 150.384 284.305 148.258 284.305C146.815 284.305 145.505 284.742 144.328 285.615C143.151 286.451 142.221 287.59 141.537 289.032C140.892 290.437 140.569 291.956 140.569 293.589V309.877H135.728V280.831ZM197.351 310.788C194.579 310.788 192.092 310.124 189.89 308.795C187.688 307.466 185.96 305.643 184.707 303.327C183.492 300.973 182.885 298.335 182.885 295.411C182.885 292.601 183.454 290.02 184.593 287.665C185.77 285.311 187.422 283.432 189.548 282.027C191.675 280.622 194.142 279.92 196.952 279.92C199.8 279.92 202.268 280.565 204.356 281.856C206.444 283.109 208.039 284.856 209.14 287.096C210.279 289.336 210.849 291.899 210.849 294.785C210.849 295.354 210.792 295.848 210.678 296.265H187.726C187.84 298.467 188.371 300.328 189.32 301.847C190.27 303.365 191.466 304.504 192.908 305.264C194.389 306.023 195.927 306.403 197.522 306.403C201.243 306.403 204.109 304.656 206.121 301.163L210.222 303.157C208.969 305.511 207.261 307.371 205.096 308.738C202.97 310.105 200.388 310.788 197.351 310.788ZM205.723 292.279C205.647 291.064 205.305 289.849 204.698 288.634C204.09 287.419 203.122 286.394 201.793 285.558C200.502 284.723 198.87 284.305 196.895 284.305C194.617 284.305 192.681 285.046 191.086 286.526C189.529 287.969 188.504 289.887 188.011 292.279H205.723ZM228.441 269.099H240.743C244.919 269.099 248.564 269.972 251.678 271.719C254.791 273.427 257.183 275.819 258.854 278.895C260.524 281.97 261.36 285.501 261.36 289.488C261.36 293.475 260.524 297.006 258.854 300.081C257.183 303.157 254.791 305.568 251.678 307.314C248.564 309.023 244.919 309.877 240.743 309.877H228.441V269.099ZM240.743 305.264C245.565 305.264 249.381 303.878 252.19 301.106C255.038 298.335 256.462 294.462 256.462 289.488C256.462 284.514 255.038 280.641 252.19 277.87C249.381 275.098 245.565 273.712 240.743 273.712H233.225V305.264H240.743ZM275.662 310.788C273.536 310.788 271.637 310.371 269.967 309.535C268.296 308.7 267.005 307.561 266.094 306.118C265.183 304.637 264.727 302.967 264.727 301.106C264.727 298.031 265.885 295.639 268.201 293.93C270.517 292.184 273.441 291.31 276.972 291.31C278.718 291.31 280.332 291.5 281.813 291.88C283.331 292.26 284.489 292.696 285.287 293.19V291.424C285.287 289.26 284.527 287.533 283.009 286.242C281.49 284.913 279.572 284.248 277.256 284.248C275.624 284.248 274.124 284.609 272.757 285.33C271.39 286.014 270.308 286.982 269.511 288.235L265.866 285.501C267.005 283.755 268.562 282.388 270.536 281.401C272.548 280.414 274.77 279.92 277.199 279.92C281.148 279.92 284.243 280.964 286.483 283.052C288.761 285.103 289.9 287.912 289.9 291.481V309.877H285.287V305.719H285.059C284.224 307.124 282.971 308.32 281.3 309.307C279.629 310.295 277.75 310.788 275.662 310.788ZM276.117 306.517C277.75 306.517 279.269 306.099 280.674 305.264C282.078 304.428 283.198 303.308 284.034 301.904C284.869 300.499 285.287 298.961 285.287 297.29C284.375 296.683 283.255 296.189 281.927 295.81C280.598 295.43 279.193 295.24 277.712 295.24C275.054 295.24 273.042 295.791 271.675 296.892C270.346 297.993 269.682 299.417 269.682 301.163C269.682 302.758 270.289 304.049 271.504 305.036C272.719 306.023 274.257 306.517 276.117 306.517ZM306.102 310.333C304.925 310.333 303.824 310.143 302.799 309.763C301.812 309.383 300.976 308.871 300.293 308.225C299.533 307.504 298.964 306.669 298.584 305.719C298.205 304.77 298.015 303.612 298.015 302.245V285.217H292.946V280.831H298.015V272.63H302.856V280.831H309.918V285.217H302.856V301.049C302.856 302.644 303.159 303.821 303.767 304.58C304.488 305.416 305.532 305.833 306.899 305.833C308 305.833 309.064 305.511 310.089 304.865V309.592C309.519 309.858 308.931 310.048 308.323 310.162C307.754 310.276 307.013 310.333 306.102 310.333ZM323.384 310.788C321.258 310.788 319.359 310.371 317.689 309.535C316.018 308.7 314.727 307.561 313.816 306.118C312.905 304.637 312.449 302.967 312.449 301.106C312.449 298.031 313.607 295.639 315.923 293.93C318.239 292.184 321.163 291.31 324.694 291.31C326.44 291.31 328.054 291.5 329.535 291.88C331.054 292.26 332.212 292.696 333.009 293.19V291.424C333.009 289.26 332.25 287.533 330.731 286.242C329.212 284.913 327.295 284.248 324.979 284.248C323.346 284.248 321.846 284.609 320.479 285.33C319.112 286.014 318.03 286.982 317.233 288.235L313.588 285.501C314.727 283.755 316.284 282.388 318.258 281.401C320.271 280.414 322.492 279.92 324.922 279.92C328.87 279.92 331.965 280.964 334.205 283.052C336.483 285.103 337.622 287.912 337.622 291.481V309.877H333.009V305.719H332.781C331.946 307.124 330.693 308.32 329.022 309.307C327.352 310.295 325.472 310.788 323.384 310.788ZM323.84 306.517C325.472 306.517 326.991 306.099 328.396 305.264C329.801 304.428 330.921 303.308 331.756 301.904C332.591 300.499 333.009 298.961 333.009 297.29C332.098 296.683 330.978 296.189 329.649 295.81C328.32 295.43 326.915 295.24 325.434 295.24C322.776 295.24 320.764 295.791 319.397 296.892C318.068 297.993 317.404 299.417 317.404 301.163C317.404 302.758 318.011 304.049 319.226 305.036C320.441 306.023 321.979 306.517 323.84 306.517ZM357.968 310.788C355.766 310.788 353.773 310.295 351.988 309.307C350.242 308.282 348.932 307.048 348.059 305.606H347.831V309.877H343.218V269.099H348.059V281.116L347.831 285.16H348.059C348.932 283.679 350.242 282.445 351.988 281.458C353.773 280.433 355.766 279.92 357.968 279.92C360.55 279.92 362.904 280.584 365.03 281.913C367.157 283.242 368.827 285.084 370.042 287.438C371.257 289.792 371.865 292.431 371.865 295.354C371.865 298.316 371.257 300.973 370.042 303.327C368.827 305.643 367.157 307.466 365.03 308.795C362.904 310.124 360.55 310.788 357.968 310.788ZM357.399 306.403C359.069 306.403 360.645 305.947 362.126 305.036C363.607 304.125 364.784 302.834 365.657 301.163C366.568 299.455 367.024 297.518 367.024 295.354C367.024 293.19 366.568 291.272 365.657 289.602C364.784 287.893 363.607 286.583 362.126 285.672C360.645 284.761 359.069 284.305 357.399 284.305C355.728 284.305 354.153 284.761 352.672 285.672C351.191 286.583 350.014 287.874 349.141 289.545C348.267 291.216 347.831 293.152 347.831 295.354C347.831 297.556 348.267 299.493 349.141 301.163C350.014 302.834 351.191 304.125 352.672 305.036C354.153 305.947 355.728 306.403 357.399 306.403ZM385.622 310.788C383.496 310.788 381.598 310.371 379.927 309.535C378.256 308.7 376.966 307.561 376.054 306.118C375.143 304.637 374.687 302.967 374.687 301.106C374.687 298.031 375.845 295.639 378.162 293.93C380.478 292.184 383.401 291.31 386.932 291.31C388.679 291.31 390.292 291.5 391.773 291.88C393.292 292.26 394.45 292.696 395.247 293.19V291.424C395.247 289.26 394.488 287.533 392.969 286.242C391.45 284.913 389.533 284.248 387.217 284.248C385.584 284.248 384.085 284.609 382.718 285.33C381.351 286.014 380.269 286.982 379.471 288.235L375.827 285.501C376.966 283.755 378.522 282.388 380.497 281.401C382.509 280.414 384.73 279.92 387.16 279.92C391.109 279.92 394.203 280.964 396.443 283.052C398.721 285.103 399.86 287.912 399.86 291.481V309.877H395.247V305.719H395.019C394.184 307.124 392.931 308.32 391.261 309.307C389.59 310.295 387.711 310.788 385.622 310.788ZM386.078 306.517C387.711 306.517 389.229 306.099 390.634 305.264C392.039 304.428 393.159 303.308 393.994 301.904C394.83 300.499 395.247 298.961 395.247 297.29C394.336 296.683 393.216 296.189 391.887 295.81C390.558 295.43 389.153 295.24 387.673 295.24C385.015 295.24 383.003 295.791 381.636 296.892C380.307 297.993 379.642 299.417 379.642 301.163C379.642 302.758 380.25 304.049 381.465 305.036C382.68 306.023 384.218 306.517 386.078 306.517ZM415.315 310.788C412.202 310.788 409.601 310.067 407.513 308.624C405.425 307.143 403.944 305.264 403.071 302.986L407.399 301.049C408.12 302.796 409.184 304.144 410.588 305.093C412.031 306.042 413.607 306.517 415.315 306.517C417.138 306.517 418.695 306.156 419.986 305.435C421.277 304.675 421.922 303.612 421.922 302.245C421.922 301.03 421.409 300.062 420.384 299.341C419.359 298.581 417.745 297.936 415.543 297.404L412.012 296.493C409.696 295.924 407.798 294.955 406.317 293.589C404.836 292.222 404.096 290.456 404.096 288.292C404.096 286.621 404.589 285.16 405.577 283.907C406.602 282.616 407.95 281.629 409.62 280.945C411.291 280.262 413.094 279.92 415.031 279.92C417.575 279.92 419.834 280.47 421.808 281.572C423.82 282.673 425.244 284.21 426.08 286.185L421.865 288.121C420.574 285.539 418.277 284.248 414.974 284.248C413.379 284.248 411.974 284.628 410.759 285.387C409.582 286.109 408.994 287.039 408.994 288.178C408.994 289.241 409.411 290.114 410.247 290.798C411.082 291.443 412.335 291.975 414.006 292.393L418.22 293.475C421.068 294.196 423.213 295.278 424.656 296.721C426.098 298.126 426.82 299.853 426.82 301.904C426.82 303.688 426.307 305.264 425.282 306.631C424.257 307.96 422.871 308.985 421.125 309.706C419.378 310.427 417.442 310.788 415.315 310.788ZM444.164 310.788C441.392 310.788 438.906 310.124 436.703 308.795C434.501 307.466 432.774 305.643 431.521 303.327C430.306 300.973 429.698 298.335 429.698 295.411C429.698 292.601 430.268 290.02 431.407 287.665C432.584 285.311 434.235 283.432 436.362 282.027C438.488 280.622 440.956 279.92 443.765 279.92C446.613 279.92 449.081 280.565 451.169 281.856C453.258 283.109 454.852 284.856 455.953 287.096C457.092 289.336 457.662 291.899 457.662 294.785C457.662 295.354 457.605 295.848 457.491 296.265H434.539C434.653 298.467 435.185 300.328 436.134 301.847C437.083 303.365 438.279 304.504 439.722 305.264C441.203 306.023 442.74 306.403 444.335 306.403C448.056 306.403 450.922 304.656 452.935 301.163L457.035 303.157C455.782 305.511 454.074 307.371 451.91 308.738C449.783 310.105 447.202 310.788 444.164 310.788ZM452.536 292.279C452.46 291.064 452.119 289.849 451.511 288.634C450.904 287.419 449.935 286.394 448.606 285.558C447.316 284.723 445.683 284.305 443.709 284.305C441.43 284.305 439.494 285.046 437.899 286.526C436.343 287.969 435.318 289.887 434.824 292.279H452.536Z" fill="white"/>
<g clip-path="url(#clip0_57_7124)">
<path d="M283.52 63.5793C279.426 57.8986 270.012 46.2181 255.551 28.866C249.274 21.3396 243.889 14.9511 241.238 11.8147C239.776 10.0846 238.523 8.6043 237.533 7.43393L235.955 5.57429L235.1 4.56583L234.933 4.32065L234.859 4.28827L231.209 0L226.583 3.71003C214.773 13.1701 205.1 25.3642 198.619 38.9553C194.646 47.0415 192.05 54.9473 190.69 63.089C190.334 64.9208 190.029 66.8036 189.774 68.691C188.188 68.5615 186.573 68.4782 184.973 68.4412C184.838 68.432 184.704 68.4273 184.524 68.4227C178.663 68.2192 172.834 68.9177 167.204 70.5044L164.794 71.1798L163.554 73.354C157.744 83.545 154.455 95.1469 154.043 106.902C153.511 122.167 157.67 136.943 166.071 149.632C174.291 162.043 185.902 171.531 199.651 177.068L201.441 177.79L201.982 177.98L202.005 177.97C209.166 180.57 216.684 182.023 224.349 182.286C225.219 182.319 226.084 182.333 226.949 182.333C236.622 182.333 246.04 180.441 254.977 176.698L255.042 176.726L257.42 175.625C269.475 170.051 279.791 161.289 287.253 150.284C294.927 138.964 299.239 125.72 299.72 111.985C300.293 95.5679 294.839 79.2845 283.515 63.5839L283.52 63.5793ZM229.706 114.446C232.199 123.897 231.709 132.978 228.258 141.476C219.635 132.964 213.311 123.606 209.453 113.632C205.322 102.965 202.838 92.8154 202.052 83.4293C205.702 84.6275 209.055 86.2096 212.044 88.1571C220.639 93.7591 226.583 102.604 229.706 114.451V114.446ZM231.279 160.197C234.942 162.987 238.796 165.6 242.769 168.006C236.918 169.597 230.881 170.296 224.774 170.078C223.831 170.046 222.887 169.99 221.939 169.912C225.417 166.914 228.545 163.662 231.274 160.197H231.279ZM241.511 111.333C237.588 96.4653 229.914 85.2242 218.705 77.9244C213.788 74.7233 208.186 72.2946 202.033 70.7079C202.121 69.6856 202.232 68.6679 202.362 67.6687C202.473 66.8129 202.588 66.0265 202.713 65.2909C203.726 60.059 205.234 54.8825 207.187 49.9096C207.936 48.0037 208.755 46.1117 209.624 44.2844L209.657 44.2196C210.998 41.5042 212.511 38.761 214.292 35.8281L214.991 34.6763L214.967 34.6624C219.103 28.1999 224.057 22.3064 229.724 17.1115L231.912 19.6974C237.015 25.7435 241.812 31.4612 246.174 36.6932C255.986 48.4616 268.707 63.917 273.615 70.7311C283.321 84.1834 287.998 97.9179 287.521 111.564C287.151 122.163 284.015 132.497 278.445 141.444C273.171 149.923 265.825 157.019 257.17 162.015C252.341 159.605 245.328 155.641 237.88 149.872C243.884 137.905 245.11 124.947 241.516 111.333H241.511ZM221.948 152.338C216.443 159.471 209.893 164.111 206.072 166.442C205.452 166.216 204.832 165.98 204.221 165.73L203.731 165.536C192.411 160.859 182.863 152.953 176.119 142.665C169.226 132.15 165.812 119.928 166.251 107.318C166.566 98.2787 168.819 89.642 172.954 81.6437C175.355 81.1117 177.802 80.7787 180.249 80.6538L180.883 80.6399C182.118 80.6121 183.349 80.6121 184.519 80.6399C186.24 80.7185 187.966 80.8989 189.663 81.1719C190.218 92.6628 193.04 105.06 198.059 118.032C202.894 130.517 210.924 142.05 221.943 152.333L221.948 152.338Z" fill="white"/>
</g>
<g filter="url(#filter0_d_57_7124)">
<circle cx="304" cy="137" r="45" fill="white"/>
<path fill-rule="evenodd" clip-rule="evenodd" d="M283.75 143.75H324.25V152.755C324.251 153.344 324.135 153.929 323.91 154.474C323.684 155.019 323.354 155.515 322.937 155.932C322.52 156.35 322.025 156.681 321.48 156.907C320.935 157.133 320.351 157.25 319.761 157.25H288.239C287.048 157.248 285.906 156.773 285.065 155.93C284.223 155.088 283.751 153.945 283.75 152.755V143.75ZM283.75 121.232C283.75 118.757 285.759 116.75 288.239 116.75H319.761C322.241 116.75 324.25 118.775 324.25 121.232V137.018C324.25 139.493 322.241 141.5 319.761 141.5H288.239C285.759 141.5 283.75 139.475 283.75 137.018V121.232ZM288.25 121.25H319.75V128H288.25V121.25ZM288.25 133.636C288.25 133.009 288.732 132.5 289.386 132.5H291.614C292.242 132.5 292.75 132.982 292.75 133.636V135.864C292.752 136.014 292.725 136.162 292.668 136.301C292.612 136.44 292.529 136.567 292.423 136.673C292.317 136.779 292.19 136.862 292.051 136.918C291.912 136.975 291.764 137.002 291.614 137H289.386C289.236 137.002 289.088 136.975 288.949 136.918C288.81 136.862 288.683 136.779 288.577 136.673C288.471 136.567 288.388 136.44 288.332 136.301C288.275 136.162 288.248 136.014 288.25 135.864V133.636ZM288.25 149.386C288.25 148.758 288.732 148.25 289.386 148.25H291.614C292.242 148.25 292.75 148.731 292.75 149.386V151.614C292.752 151.764 292.725 151.912 292.668 152.051C292.612 152.19 292.529 152.317 292.423 152.423C292.317 152.529 292.19 152.612 292.051 152.668C291.912 152.725 291.764 152.752 291.614 152.75H289.386C289.236 152.752 289.088 152.725 288.949 152.668C288.81 152.612 288.683 152.529 288.577 152.423C288.471 152.317 288.388 152.19 288.332 152.051C288.275 151.912 288.248 151.764 288.25 151.614V149.386Z" fill="#1F1F1F"/>
</g>
<defs>
<filter id="filter0_d_57_7124" x="253" y="88.0029" width="102" height="102" filterUnits="userSpaceOnUse" color-interpolation-filters="sRGB">
<feFlood flood-opacity="0" result="BackgroundImageFix"/>
<feColorMatrix in="SourceAlpha" type="matrix" values="0 0 0 0 0 0 0 0 0 0 0 0 0 0 0 0 0 0 127 0" result="hardAlpha"/>
<feOffset dy="2.0029"/>
<feGaussianBlur stdDeviation="3"/>
<feComposite in2="hardAlpha" operator="out"/>
<feColorMatrix type="matrix" values="0 0 0 0 0 0 0 0 0 0 0 0 0 0 0 0 0 0 0.3 0"/>
<feBlend mode="normal" in2="BackgroundImageFix" result="effect1_dropShadow_57_7124"/>
<feBlend mode="normal" in="SourceGraphic" in2="effect1_dropShadow_57_7124" result="shape"/>
</filter>
<clipPath id="clip0_57_7124">
<rect width="145.769" height="182.328" fill="white" transform="translate(153.998)"/>
</clipPath>
</defs>
</svg>
