<svg width="424" height="327" viewBox="0 0 424 327" fill="none" xmlns="http://www.w3.org/2000/svg">
<path d="M300.285 254.393C297.521 254.393 295.022 253.749 292.788 252.462C290.592 251.175 288.87 249.395 287.62 247.124C286.371 244.814 285.746 242.24 285.746 239.4C285.746 236.674 286.333 234.175 287.507 231.904C288.718 229.594 290.403 227.777 292.561 226.452C294.719 225.089 297.18 224.407 299.944 224.407C302.783 224.407 305.244 225.032 307.327 226.281C309.447 227.531 311.056 229.272 312.154 231.506C313.252 233.702 313.801 236.239 313.801 239.116C313.801 239.457 313.782 239.798 313.744 240.138C313.706 240.479 313.687 240.668 313.687 240.706H291.993C292.182 243.281 293.11 245.268 294.776 246.669C296.442 248.07 298.335 248.77 300.455 248.77C303.711 248.77 306.21 247.256 307.951 244.227L313.29 246.783C312.04 249.092 310.299 250.947 308.065 252.348C305.869 253.711 303.275 254.393 300.285 254.393ZM307.44 235.936C307.364 235.027 307.062 234.1 306.531 233.153C306.001 232.206 305.169 231.411 304.033 230.768C302.935 230.086 301.553 229.746 299.887 229.746C298.032 229.746 296.423 230.313 295.06 231.449C293.735 232.585 292.826 234.081 292.334 235.936H307.44Z" fill="white"/>
<path d="M272.035 254.393C268.817 254.393 266.148 253.654 264.027 252.178C261.945 250.663 260.468 248.77 259.598 246.499L265.163 244.114C265.807 245.666 266.734 246.84 267.946 247.635C269.195 248.43 270.558 248.827 272.035 248.827C273.587 248.827 274.855 248.543 275.84 247.975C276.824 247.37 277.316 246.593 277.316 245.647C277.316 244.738 276.919 244 276.124 243.432C275.329 242.826 274.022 242.296 272.205 241.842L268.343 240.933C266.223 240.441 264.387 239.532 262.835 238.207C261.32 236.844 260.563 235.084 260.563 232.926C260.563 230.313 261.642 228.25 263.8 226.736C265.958 225.183 268.608 224.407 271.751 224.407C274.363 224.407 276.673 224.956 278.679 226.054C280.724 227.152 282.2 228.742 283.109 230.825L277.6 233.153C277.07 231.979 276.256 231.109 275.158 230.541C274.06 229.973 272.868 229.689 271.581 229.689C270.331 229.689 269.233 229.973 268.287 230.541C267.34 231.071 266.867 231.79 266.867 232.699C266.867 233.494 267.189 234.137 267.832 234.63C268.514 235.122 269.574 235.538 271.013 235.879L275.215 236.901C278.055 237.621 280.175 238.718 281.576 240.195C282.977 241.634 283.677 243.375 283.677 245.42C283.677 247.086 283.166 248.6 282.144 249.963C281.159 251.326 279.777 252.405 277.998 253.2C276.256 253.995 274.269 254.393 272.035 254.393Z" fill="white"/>
<path d="M242.149 254.393C240.143 254.393 238.325 253.995 236.697 253.2C235.107 252.367 233.839 251.231 232.892 249.793C231.984 248.316 231.529 246.65 231.529 244.795C231.529 241.842 232.627 239.514 234.823 237.81C237.057 236.106 239.878 235.254 243.285 235.254C246.276 235.254 248.832 235.765 250.952 236.788V235.595C250.952 233.891 250.27 232.49 248.907 231.392C247.582 230.257 245.973 229.689 244.08 229.689C241.203 229.689 238.893 230.862 237.152 233.21L232.381 229.916C233.706 228.136 235.353 226.774 237.322 225.827C239.329 224.88 241.581 224.407 244.08 224.407C248.207 224.407 251.387 225.448 253.621 227.531C255.893 229.575 257.028 232.472 257.028 236.22V253.484H250.952V250.02H250.611C249.702 251.307 248.548 252.367 247.147 253.2C245.746 253.995 244.08 254.393 242.149 254.393ZM243.171 249.225C244.572 249.225 245.859 248.884 247.033 248.203C248.245 247.483 249.191 246.556 249.873 245.42C250.592 244.246 250.952 242.997 250.952 241.672C248.945 240.574 246.806 240.025 244.534 240.025C242.452 240.025 240.824 240.479 239.65 241.388C238.477 242.296 237.89 243.451 237.89 244.852C237.89 246.139 238.401 247.199 239.423 248.032C240.483 248.827 241.733 249.225 243.171 249.225Z" fill="white"/>
<path d="M215.939 254.393C213.894 254.393 212.058 253.958 210.43 253.087C208.84 252.216 207.648 251.118 206.852 249.793H206.512V253.484H200.605V212.822H206.852V225.032L206.512 228.951H206.852C207.648 227.664 208.84 226.585 210.43 225.714C212.058 224.843 213.894 224.408 215.939 224.408C218.362 224.408 220.596 225.051 222.64 226.338C224.723 227.626 226.37 229.424 227.581 231.734C228.83 234.005 229.455 236.561 229.455 239.4C229.455 242.24 228.83 244.795 227.581 247.067C226.37 249.339 224.723 251.137 222.64 252.462C220.596 253.749 218.362 254.393 215.939 254.393ZM214.86 248.657C216.336 248.657 217.699 248.279 218.949 247.521C220.236 246.764 221.258 245.685 222.016 244.284C222.811 242.846 223.208 241.218 223.208 239.4C223.208 237.583 222.811 235.974 222.016 234.573C221.258 233.134 220.236 232.036 218.949 231.279C217.699 230.522 216.336 230.143 214.86 230.143C213.383 230.143 212.001 230.522 210.714 231.279C209.465 232.036 208.443 233.115 207.648 234.516C206.89 235.917 206.512 237.545 206.512 239.4C206.512 241.255 206.89 242.883 207.648 244.284C208.443 245.685 209.465 246.764 210.714 247.521C212.001 248.279 213.383 248.657 214.86 248.657Z" fill="white"/>
<path d="M183.369 254.393C180.605 254.393 178.106 253.749 175.872 252.462C173.676 251.175 171.954 249.395 170.704 247.124C169.455 244.814 168.83 242.24 168.83 239.4C168.83 236.674 169.417 234.175 170.591 231.904C171.802 229.594 173.487 227.777 175.645 226.452C177.803 225.089 180.264 224.407 183.028 224.407C185.867 224.407 188.328 225.032 190.411 226.281C192.531 227.531 194.14 229.272 195.238 231.506C196.336 233.702 196.885 236.239 196.885 239.116C196.885 239.457 196.866 239.798 196.828 240.138C196.79 240.479 196.771 240.668 196.771 240.706H175.077C175.266 243.281 176.194 245.268 177.86 246.669C179.526 248.07 181.419 248.77 183.539 248.77C186.795 248.77 189.294 247.256 191.035 244.227L196.374 246.783C195.124 249.092 193.383 250.947 191.149 252.348C188.953 253.711 186.359 254.393 183.369 254.393ZM190.524 235.936C190.448 235.027 190.146 234.1 189.615 233.153C189.085 232.206 188.253 231.411 187.117 230.768C186.019 230.086 184.637 229.746 182.971 229.746C181.116 229.746 179.507 230.313 178.144 231.449C176.819 232.585 175.91 234.081 175.418 235.936H190.524Z" fill="white"/>
<path d="M151.494 225.316H157.4V229.519H157.741C158.347 228.08 159.445 226.887 161.035 225.941C162.625 224.957 164.253 224.464 165.919 224.464C167.282 224.464 168.399 224.654 169.27 225.032V231.563C167.982 230.92 166.544 230.598 164.954 230.598C162.909 230.598 161.186 231.393 159.786 232.983C158.423 234.535 157.741 236.447 157.741 238.719V253.484H151.494V225.316Z" fill="white"/>
<path d="M142.578 220.546C141.404 220.546 140.401 220.148 139.568 219.353C138.773 218.52 138.375 217.517 138.375 216.343C138.375 215.169 138.773 214.185 139.568 213.39C140.401 212.557 141.404 212.141 142.578 212.141C143.751 212.141 144.736 212.557 145.531 213.39C146.364 214.185 146.78 215.169 146.78 216.343C146.78 217.517 146.364 218.52 145.531 219.353C144.736 220.148 143.751 220.546 142.578 220.546ZM139.454 225.316H145.701V253.484H139.454V225.316Z" fill="white"/>
<path d="M111 212.822H135.704V218.898H117.361V230.597H133.887V236.617H117.361V253.484H111V212.822Z" fill="white"/>
<path d="M21.9452 310.788C17.9965 310.788 14.4085 309.858 11.1812 307.998C7.95391 306.137 5.41003 303.593 3.54959 300.366C1.72711 297.101 0.815868 293.475 0.815868 289.488C0.815868 285.501 1.72711 281.894 3.54959 278.667C5.41003 275.402 7.95391 272.839 11.1812 270.978C14.4085 269.118 17.9965 268.188 21.9452 268.188C24.9827 268.188 27.7544 268.776 30.2603 269.953C32.8042 271.092 35.0063 272.725 36.8668 274.851L33.3927 278.211C31.836 276.351 30.1274 274.984 28.267 274.111C26.4445 273.238 24.3372 272.801 21.9452 272.801C18.9837 272.801 16.269 273.503 13.801 274.908C11.3331 276.275 9.35874 278.23 7.87798 280.774C6.43518 283.28 5.71378 286.185 5.71378 289.488C5.71378 292.791 6.43518 295.715 7.87798 298.259C9.35874 300.765 11.3331 302.72 13.801 304.125C16.269 305.492 18.9837 306.175 21.9452 306.175C26.8811 306.175 31.0766 304.144 34.5317 300.081L38.0628 303.498C36.1644 305.738 33.8293 307.523 31.0576 308.852C28.2859 310.143 25.2485 310.788 21.9452 310.788ZM42.3596 269.099H47.2005V309.877H42.3596V269.099ZM66.3397 310.788C63.4921 310.788 60.9292 310.105 58.6511 308.738C56.373 307.371 54.5885 305.511 53.2976 303.157C52.0446 300.803 51.4181 298.202 51.4181 295.354C51.4181 292.506 52.0446 289.906 53.2976 287.552C54.5885 285.198 56.373 283.337 58.6511 281.97C60.9292 280.603 63.4921 279.92 66.3397 279.92C69.1873 279.92 71.7502 280.603 74.0283 281.97C76.3064 283.337 78.0719 285.198 79.3249 287.552C80.6158 289.906 81.2612 292.506 81.2612 295.354C81.2612 298.202 80.6158 300.803 79.3249 303.157C78.0719 305.511 76.3064 307.371 74.0283 308.738C71.7502 310.105 69.1873 310.788 66.3397 310.788ZM66.3397 306.403C68.1242 306.403 69.7758 305.966 71.2946 305.093C72.8513 304.182 74.0852 302.891 74.9965 301.22C75.9457 299.55 76.4203 297.594 76.4203 295.354C76.4203 293.114 75.9457 291.159 74.9965 289.488C74.0852 287.817 72.8513 286.545 71.2946 285.672C69.7758 284.761 68.1242 284.305 66.3397 284.305C64.5552 284.305 62.8846 284.761 61.3279 285.672C59.7712 286.545 58.5182 287.817 57.569 289.488C56.6578 291.159 56.2022 293.114 56.2022 295.354C56.2022 297.594 56.6578 299.55 57.569 301.22C58.5182 302.891 59.7712 304.182 61.3279 305.093C62.8846 305.966 64.5552 306.403 66.3397 306.403ZM96.0017 310.788C92.5086 310.788 89.8319 309.763 87.9714 307.713C86.1489 305.662 85.2377 302.796 85.2377 299.113V280.831H90.0786V298.373C90.0786 301.144 90.7051 303.176 91.9581 304.466C93.211 305.757 94.9006 306.403 97.0268 306.403C98.6595 306.403 100.102 305.966 101.355 305.093C102.646 304.22 103.633 303.081 104.317 301.676C105.038 300.271 105.399 298.79 105.399 297.234V280.831H110.24V309.877H105.627V305.662H105.399C104.602 307.105 103.33 308.32 101.583 309.307C99.8365 310.295 97.9761 310.788 96.0017 310.788ZM128.275 310.788C125.693 310.788 123.339 310.124 121.213 308.795C119.124 307.466 117.473 305.643 116.258 303.327C115.043 300.973 114.435 298.316 114.435 295.354C114.435 292.431 115.043 289.792 116.258 287.438C117.473 285.084 119.124 283.242 121.213 281.913C123.339 280.584 125.693 279.92 128.275 279.92C130.515 279.92 132.508 280.433 134.255 281.458C136.001 282.445 137.33 283.679 138.241 285.16H138.469L138.241 281.116V269.099H143.082V309.877H138.469V305.606H138.241C137.33 307.048 136.001 308.282 134.255 309.307C132.508 310.295 130.515 310.788 128.275 310.788ZM128.844 306.403C130.553 306.403 132.128 305.947 133.571 305.036C135.052 304.125 136.229 302.834 137.102 301.163C138.013 299.493 138.469 297.556 138.469 295.354C138.469 293.152 138.013 291.216 137.102 289.545C136.229 287.874 135.052 286.583 133.571 285.672C132.128 284.761 130.553 284.305 128.844 284.305C127.174 284.305 125.598 284.761 124.117 285.672C122.636 286.583 121.44 287.893 120.529 289.602C119.656 291.272 119.219 293.19 119.219 295.354C119.219 297.518 119.656 299.455 120.529 301.163C121.44 302.834 122.636 304.125 124.117 305.036C125.598 305.947 127.174 306.403 128.844 306.403ZM162.16 269.099H169.166L182.151 302.53H182.379L195.364 269.099H202.369V309.877H197.585V283.964L197.813 276.218H197.585L184.258 309.877H180.271L166.944 276.218H166.717L166.944 283.964V309.877H162.16V269.099ZM222.314 310.788C219.543 310.788 217.056 310.124 214.854 308.795C212.651 307.466 210.924 305.643 209.671 303.327C208.456 300.973 207.848 298.335 207.848 295.411C207.848 292.601 208.418 290.02 209.557 287.665C210.734 285.311 212.386 283.432 214.512 282.027C216.638 280.622 219.106 279.92 221.916 279.92C224.763 279.92 227.231 280.565 229.319 281.856C231.408 283.109 233.002 284.856 234.103 287.096C235.242 289.336 235.812 291.899 235.812 294.785C235.812 295.354 235.755 295.848 235.641 296.265H212.689C212.803 298.467 213.335 300.328 214.284 301.847C215.233 303.365 216.429 304.504 217.872 305.264C219.353 306.023 220.89 306.403 222.485 306.403C226.206 306.403 229.073 304.656 231.085 301.163L235.186 303.157C233.933 305.511 232.224 307.371 230.06 308.738C227.934 310.105 225.352 310.788 222.314 310.788ZM230.686 292.279C230.61 291.064 230.269 289.849 229.661 288.634C229.054 287.419 228.085 286.394 226.757 285.558C225.466 284.723 223.833 284.305 221.859 284.305C219.581 284.305 217.644 285.046 216.05 286.526C214.493 287.969 213.468 289.887 212.974 292.279H230.686ZM250.754 310.788C247.641 310.788 245.04 310.067 242.952 308.624C240.863 307.143 239.383 305.264 238.509 302.986L242.838 301.049C243.559 302.796 244.622 304.144 246.027 305.093C247.47 306.042 249.045 306.517 250.754 306.517C252.577 306.517 254.133 306.156 255.424 305.435C256.715 304.675 257.361 303.612 257.361 302.245C257.361 301.03 256.848 300.062 255.823 299.341C254.798 298.581 253.184 297.936 250.982 297.404L247.451 296.493C245.135 295.924 243.236 294.955 241.756 293.589C240.275 292.222 239.534 290.456 239.534 288.292C239.534 286.621 240.028 285.16 241.015 283.907C242.04 282.616 243.388 281.629 245.059 280.945C246.729 280.262 248.533 279.92 250.469 279.92C253.013 279.92 255.272 280.47 257.247 281.572C259.259 282.673 260.683 284.21 261.518 286.185L257.304 288.121C256.013 285.539 253.716 284.248 250.412 284.248C248.818 284.248 247.413 284.628 246.198 285.387C245.021 286.109 244.432 287.039 244.432 288.178C244.432 289.241 244.85 290.114 245.685 290.798C246.521 291.443 247.774 291.975 249.444 292.393L253.659 293.475C256.506 294.196 258.651 295.278 260.094 296.721C261.537 298.126 262.258 299.853 262.258 301.904C262.258 303.688 261.746 305.264 260.721 306.631C259.696 307.96 258.31 308.985 256.563 309.706C254.817 310.427 252.88 310.788 250.754 310.788ZM276.534 310.788C273.421 310.788 270.82 310.067 268.731 308.624C266.643 307.143 265.162 305.264 264.289 302.986L268.618 301.049C269.339 302.796 270.402 304.144 271.807 305.093C273.25 306.042 274.825 306.517 276.534 306.517C278.356 306.517 279.913 306.156 281.204 305.435C282.495 304.675 283.14 303.612 283.14 302.245C283.14 301.03 282.628 300.062 281.603 299.341C280.578 298.581 278.964 297.936 276.762 297.404L273.231 296.493C270.915 295.924 269.016 294.955 267.535 293.589C266.055 292.222 265.314 290.456 265.314 288.292C265.314 286.621 265.808 285.16 266.795 283.907C267.82 282.616 269.168 281.629 270.839 280.945C272.509 280.262 274.313 279.92 276.249 279.92C278.793 279.92 281.052 280.47 283.027 281.572C285.039 282.673 286.463 284.21 287.298 286.185L283.083 288.121C281.793 285.539 279.495 284.248 276.192 284.248C274.598 284.248 273.193 284.628 271.978 285.387C270.801 286.109 270.212 287.039 270.212 288.178C270.212 289.241 270.63 290.114 271.465 290.798C272.3 291.443 273.553 291.975 275.224 292.393L279.439 293.475C282.286 294.196 284.431 295.278 285.874 296.721C287.317 298.126 288.038 299.853 288.038 301.904C288.038 303.688 287.526 305.264 286.501 306.631C285.475 307.96 284.09 308.985 282.343 309.706C280.597 310.427 278.66 310.788 276.534 310.788ZM301.738 310.788C299.611 310.788 297.713 310.371 296.042 309.535C294.372 308.7 293.081 307.561 292.17 306.118C291.258 304.637 290.803 302.967 290.803 301.106C290.803 298.031 291.961 295.639 294.277 293.93C296.593 292.184 299.517 291.31 303.048 291.31C304.794 291.31 306.408 291.5 307.889 291.88C309.407 292.26 310.565 292.696 311.363 293.19V291.424C311.363 289.26 310.603 287.533 309.085 286.242C307.566 284.913 305.648 284.248 303.332 284.248C301.7 284.248 300.2 284.609 298.833 285.33C297.466 286.014 296.384 286.982 295.587 288.235L291.942 285.501C293.081 283.755 294.638 282.388 296.612 281.401C298.624 280.414 300.845 279.92 303.275 279.92C307.224 279.92 310.318 280.964 312.559 283.052C314.837 285.103 315.976 287.912 315.976 291.481V309.877H311.363V305.719H311.135C310.3 307.124 309.047 308.32 307.376 309.307C305.705 310.295 303.826 310.788 301.738 310.788ZM302.193 306.517C303.826 306.517 305.345 306.099 306.749 305.264C308.154 304.428 309.274 303.308 310.11 301.904C310.945 300.499 311.363 298.961 311.363 297.29C310.451 296.683 309.331 296.189 308.002 295.81C306.674 295.43 305.269 295.24 303.788 295.24C301.13 295.24 299.118 295.791 297.751 296.892C296.422 297.993 295.758 299.417 295.758 301.163C295.758 302.758 296.365 304.049 297.58 305.036C298.795 306.023 300.333 306.517 302.193 306.517ZM334.051 323.09C330.633 323.09 327.805 322.293 325.565 320.698C323.363 319.103 321.882 317.186 321.122 314.946L325.508 313.066C326.153 314.737 327.216 316.085 328.697 317.11C330.216 318.173 332 318.705 334.051 318.705C337.05 318.705 339.366 317.831 340.999 316.085C342.669 314.338 343.505 311.87 343.505 308.681V305.435H343.277C342.328 306.915 340.98 308.13 339.233 309.08C337.525 309.991 335.569 310.446 333.367 310.446C330.861 310.446 328.564 309.801 326.476 308.51C324.426 307.219 322.793 305.416 321.578 303.1C320.363 300.784 319.756 298.145 319.756 295.183C319.756 292.26 320.363 289.64 321.578 287.324C322.793 284.97 324.426 283.147 326.476 281.856C328.564 280.565 330.861 279.92 333.367 279.92C335.569 279.92 337.525 280.395 339.233 281.344C340.98 282.255 342.328 283.47 343.277 284.989H343.505V280.831H348.118V308.738C348.118 313.408 346.827 316.958 344.245 319.388C341.663 321.856 338.265 323.09 334.051 323.09ZM334.051 306.061C335.797 306.061 337.373 305.625 338.778 304.751C340.22 303.878 341.36 302.625 342.195 300.992C343.068 299.36 343.505 297.423 343.505 295.183C343.505 292.905 343.068 290.95 342.195 289.317C341.36 287.684 340.22 286.451 338.778 285.615C337.373 284.742 335.797 284.305 334.051 284.305C332.304 284.305 330.709 284.742 329.267 285.615C327.824 286.488 326.666 287.741 325.793 289.374C324.957 291.007 324.54 292.943 324.54 295.183C324.54 297.423 324.957 299.379 325.793 301.049C326.666 302.682 327.824 303.935 329.267 304.808C330.709 305.643 332.304 306.061 334.051 306.061ZM356.984 275.478C356.035 275.478 355.219 275.136 354.535 274.453C353.852 273.769 353.51 272.953 353.51 272.004C353.51 271.054 353.852 270.257 354.535 269.612C355.219 268.928 356.035 268.586 356.984 268.586C357.933 268.586 358.75 268.928 359.433 269.612C360.117 270.257 360.458 271.054 360.458 272.004C360.458 272.953 360.117 273.769 359.433 274.453C358.788 275.136 357.971 275.478 356.984 275.478ZM354.592 280.831H359.376V309.877H354.592V280.831ZM365.845 280.831H370.458V285.103H370.686C371.484 283.66 372.755 282.445 374.502 281.458C376.249 280.433 378.109 279.92 380.083 279.92C383.576 279.92 386.234 280.945 388.057 282.995C389.917 285.008 390.847 287.76 390.847 291.253V309.877H386.006V291.994C386.006 289.298 385.361 287.343 384.07 286.128C382.779 284.913 381.014 284.305 378.773 284.305C377.217 284.305 375.812 284.742 374.559 285.615C373.344 286.488 372.395 287.647 371.711 289.089C371.028 290.494 370.686 291.975 370.686 293.532V309.877H365.845V280.831ZM409.11 323.09C405.693 323.09 402.864 322.293 400.624 320.698C398.422 319.103 396.941 317.186 396.182 314.946L400.567 313.066C401.213 314.737 402.276 316.085 403.756 317.11C405.275 318.173 407.06 318.705 409.11 318.705C412.109 318.705 414.426 317.831 416.058 316.085C417.729 314.338 418.564 311.87 418.564 308.681V305.435H418.336C417.387 306.915 416.039 308.13 414.293 309.08C412.584 309.991 410.629 310.446 408.427 310.446C405.921 310.446 403.624 309.801 401.535 308.51C399.485 307.219 397.852 305.416 396.637 303.1C395.422 300.784 394.815 298.145 394.815 295.183C394.815 292.26 395.422 289.64 396.637 287.324C397.852 284.97 399.485 283.147 401.535 281.856C403.624 280.565 405.921 279.92 408.427 279.92C410.629 279.92 412.584 280.395 414.293 281.344C416.039 282.255 417.387 283.47 418.336 284.989H418.564V280.831H423.177V308.738C423.177 313.408 421.886 316.958 419.304 319.388C416.723 321.856 413.324 323.09 409.11 323.09ZM409.11 306.061C410.856 306.061 412.432 305.625 413.837 304.751C415.28 303.878 416.419 302.625 417.254 300.992C418.127 299.36 418.564 297.423 418.564 295.183C418.564 292.905 418.127 290.95 417.254 289.317C416.419 287.684 415.28 286.451 413.837 285.615C412.432 284.742 410.856 284.305 409.11 284.305C407.363 284.305 405.769 284.742 404.326 285.615C402.883 286.488 401.725 287.741 400.852 289.374C400.017 291.007 399.599 292.943 399.599 295.183C399.599 297.423 400.017 299.379 400.852 301.049C401.725 302.682 402.883 303.935 404.326 304.808C405.769 305.643 407.363 306.061 409.11 306.061Z" fill="white"/>
<path d="M185.196 176.071C192.728 179.103 200.9 180.902 209.48 181.201C221.092 181.607 232.135 179.206 242.006 174.646C230.169 169.995 219.448 163.193 210.298 154.737C204.366 164.233 195.594 171.734 185.196 176.071Z" fill="#FF9100"/>
<path d="M210.298 154.74C189.411 135.423 176.74 107.463 177.811 76.7969C177.846 75.801 177.898 74.8058 177.96 73.8109C174.219 72.8435 170.314 72.2531 166.295 72.1127C160.542 71.9118 154.971 72.6253 149.712 74.1064C144.136 83.8733 140.771 95.0794 140.352 107.083C139.27 138.06 158.017 165.128 185.196 176.074C195.594 171.737 204.366 164.245 210.298 154.74Z" fill="#FFC400"/>
<path d="M210.298 154.739C215.154 146.968 218.099 137.857 218.441 128.041C219.343 102.22 201.985 80.0082 177.96 73.8101C177.899 74.805 177.846 75.8003 177.812 76.7961C176.741 107.462 189.412 135.422 210.298 154.739Z" fill="#FF9100"/>
<path d="M215.755 1.23018C202.072 12.1917 191.268 26.6455 184.731 43.2959C180.988 52.833 178.636 63.0774 177.95 73.8163C201.974 80.0144 219.332 102.226 218.43 128.047C218.088 137.863 215.135 146.965 210.287 154.745C219.437 163.21 230.158 170.003 241.996 174.654C265.757 163.67 282.615 140.036 283.591 112.082C284.224 93.9699 277.265 77.8275 267.432 64.202C257.048 49.7916 215.755 1.23018 215.755 1.23018Z" fill="#DD2C00"/>
<g filter="url(#filter0_d_57_6795)">
<circle cx="288" cy="137" r="45" fill="white"/>
<path fill-rule="evenodd" clip-rule="evenodd" d="M275.625 152.75C272.212 152.75 269.297 151.569 266.878 149.206C264.459 146.844 263.25 143.956 263.25 140.544C263.25 137.619 264.131 135.013 265.894 132.725C267.656 130.438 269.963 128.975 272.812 128.338C273.75 124.888 275.625 122.094 278.438 119.956C281.25 117.819 284.438 116.75 288 116.75C292.387 116.75 296.109 118.278 299.166 121.334C302.222 124.391 303.75 128.113 303.75 132.5C306.337 132.8 308.484 133.916 310.191 135.847C311.897 137.778 312.75 140.038 312.75 142.625C312.75 142.705 312.749 142.785 312.748 142.865L308.037 141.015C307.787 140.121 307.314 139.326 306.619 138.631C305.531 137.544 304.2 137 302.625 137H299.25V132.5C299.25 129.388 298.153 126.734 295.959 124.541C293.766 122.347 291.112 121.25 288 121.25C284.888 121.25 282.234 122.347 280.041 124.541C277.847 126.734 276.75 129.388 276.75 132.5H275.625C273.45 132.5 271.594 133.269 270.056 134.806C268.519 136.344 267.75 138.2 267.75 140.375C267.75 142.55 268.519 144.406 270.056 145.944C271.594 147.481 273.45 148.25 275.625 148.25H283.5V152.75H275.625ZM288 151.062V159.5L315 148.25L288 137V145.438L299.368 148.25L288 151.062Z" fill="#1F1F1F"/>
</g>
<defs>
<filter id="filter0_d_57_6795" x="237" y="88.0029" width="102" height="102" filterUnits="userSpaceOnUse" color-interpolation-filters="sRGB">
<feFlood flood-opacity="0" result="BackgroundImageFix"/>
<feColorMatrix in="SourceAlpha" type="matrix" values="0 0 0 0 0 0 0 0 0 0 0 0 0 0 0 0 0 0 127 0" result="hardAlpha"/>
<feOffset dy="2.0029"/>
<feGaussianBlur stdDeviation="3"/>
<feComposite in2="hardAlpha" operator="out"/>
<feColorMatrix type="matrix" values="0 0 0 0 0 0 0 0 0 0 0 0 0 0 0 0 0 0 0.3 0"/>
<feBlend mode="normal" in2="BackgroundImageFix" result="effect1_dropShadow_57_6795"/>
<feBlend mode="normal" in="SourceGraphic" in2="effect1_dropShadow_57_6795" result="shape"/>
</filter>
</defs>
</svg>
