<svg width="446" height="327" viewBox="0 0 446 327" fill="none" xmlns="http://www.w3.org/2000/svg">
<path d="M311.285 254.393C308.521 254.393 306.022 253.75 303.788 252.462C301.592 251.175 299.87 249.396 298.62 247.124C297.371 244.815 296.746 242.24 296.746 239.4C296.746 236.675 297.333 234.176 298.507 231.904C299.718 229.595 301.403 227.777 303.561 226.452C305.719 225.089 308.18 224.408 310.944 224.408C313.783 224.408 316.244 225.032 318.327 226.282C320.447 227.531 322.056 229.273 323.154 231.507C324.252 233.702 324.801 236.239 324.801 239.117C324.801 239.457 324.782 239.798 324.744 240.139C324.706 240.479 324.687 240.669 324.687 240.707H302.993C303.182 243.281 304.11 245.269 305.776 246.67C307.442 248.071 309.335 248.771 311.455 248.771C314.711 248.771 317.21 247.257 318.951 244.228L324.29 246.783C323.04 249.093 321.299 250.948 319.065 252.349C316.869 253.712 314.275 254.393 311.285 254.393ZM318.44 235.936C318.364 235.028 318.062 234.1 317.531 233.153C317.001 232.207 316.169 231.412 315.033 230.768C313.935 230.087 312.553 229.746 310.887 229.746C309.032 229.746 307.423 230.314 306.06 231.45C304.735 232.586 303.826 234.081 303.334 235.936H318.44Z" fill="#5A5A5A"/>
<path d="M283.035 254.393C279.817 254.393 277.148 253.655 275.027 252.178C272.945 250.664 271.468 248.771 270.598 246.499L276.163 244.114C276.807 245.666 277.734 246.84 278.946 247.635C280.195 248.43 281.558 248.828 283.035 248.828C284.587 248.828 285.855 248.544 286.84 247.976C287.824 247.37 288.316 246.594 288.316 245.647C288.316 244.739 287.919 244.001 287.124 243.433C286.329 242.827 285.022 242.297 283.205 241.842L279.343 240.934C277.223 240.442 275.387 239.533 273.835 238.208C272.32 236.845 271.563 235.084 271.563 232.926C271.563 230.314 272.642 228.251 274.8 226.736C276.958 225.184 279.608 224.408 282.751 224.408C285.363 224.408 287.673 224.957 289.679 226.055C291.724 227.153 293.2 228.743 294.109 230.825L288.6 233.153C288.07 231.98 287.256 231.109 286.158 230.541C285.06 229.973 283.868 229.689 282.581 229.689C281.331 229.689 280.233 229.973 279.287 230.541C278.34 231.071 277.867 231.791 277.867 232.699C277.867 233.494 278.189 234.138 278.832 234.63C279.514 235.122 280.574 235.539 282.013 235.879L286.215 236.902C289.055 237.621 291.175 238.719 292.576 240.196C293.977 241.634 294.677 243.376 294.677 245.42C294.677 247.086 294.166 248.601 293.144 249.964C292.159 251.327 290.777 252.406 288.998 253.201C287.256 253.996 285.269 254.393 283.035 254.393Z" fill="#5A5A5A"/>
<path d="M253.149 254.393C251.143 254.393 249.325 253.996 247.697 253.201C246.107 252.368 244.839 251.232 243.892 249.793C242.984 248.317 242.529 246.651 242.529 244.796C242.529 241.842 243.627 239.514 245.823 237.81C248.057 236.107 250.878 235.255 254.285 235.255C257.276 235.255 259.832 235.766 261.952 236.788V235.595C261.952 233.892 261.27 232.491 259.907 231.393C258.582 230.257 256.973 229.689 255.08 229.689C252.203 229.689 249.893 230.863 248.152 233.21L243.381 229.916C244.706 228.137 246.353 226.774 248.322 225.827C250.329 224.881 252.581 224.408 255.08 224.408C259.207 224.408 262.387 225.449 264.621 227.531C266.893 229.576 268.028 232.472 268.028 236.22V253.485H261.952V250.02H261.611C260.702 251.308 259.548 252.368 258.147 253.201C256.746 253.996 255.08 254.393 253.149 254.393ZM254.171 249.225C255.572 249.225 256.859 248.885 258.033 248.203C259.245 247.484 260.191 246.556 260.873 245.42C261.592 244.247 261.952 242.997 261.952 241.672C259.945 240.574 257.806 240.025 255.534 240.025C253.452 240.025 251.824 240.479 250.65 241.388C249.477 242.297 248.89 243.452 248.89 244.852C248.89 246.14 249.401 247.2 250.423 248.033C251.483 248.828 252.733 249.225 254.171 249.225Z" fill="#5A5A5A"/>
<path d="M226.939 254.393C224.894 254.393 223.058 253.958 221.43 253.087C219.84 252.216 218.648 251.118 217.852 249.793H217.512V253.484H211.605V212.822H217.852V225.032L217.512 228.951H217.852C218.648 227.664 219.84 226.585 221.43 225.714C223.058 224.843 224.894 224.408 226.939 224.408C229.362 224.408 231.596 225.051 233.64 226.338C235.723 227.626 237.37 229.424 238.581 231.734C239.83 234.005 240.455 236.561 240.455 239.4C240.455 242.24 239.83 244.795 238.581 247.067C237.37 249.339 235.723 251.137 233.64 252.462C231.596 253.749 229.362 254.393 226.939 254.393ZM225.86 248.657C227.336 248.657 228.699 248.279 229.949 247.521C231.236 246.764 232.258 245.685 233.016 244.284C233.811 242.846 234.208 241.218 234.208 239.4C234.208 237.583 233.811 235.974 233.016 234.573C232.258 233.134 231.236 232.036 229.949 231.279C228.699 230.522 227.336 230.143 225.86 230.143C224.383 230.143 223.001 230.522 221.714 231.279C220.465 232.036 219.443 233.115 218.648 234.516C217.89 235.917 217.512 237.545 217.512 239.4C217.512 241.255 217.89 242.883 218.648 244.284C219.443 245.685 220.465 246.764 221.714 247.521C223.001 248.279 224.383 248.657 225.86 248.657Z" fill="#5A5A5A"/>
<path d="M194.369 254.393C191.605 254.393 189.106 253.75 186.872 252.462C184.676 251.175 182.954 249.396 181.704 247.124C180.455 244.815 179.83 242.24 179.83 239.4C179.83 236.675 180.417 234.176 181.591 231.904C182.802 229.595 184.487 227.777 186.645 226.452C188.803 225.089 191.264 224.408 194.028 224.408C196.867 224.408 199.328 225.032 201.411 226.282C203.531 227.531 205.14 229.273 206.238 231.507C207.336 233.702 207.885 236.239 207.885 239.117C207.885 239.457 207.866 239.798 207.828 240.139C207.79 240.479 207.771 240.669 207.771 240.707H186.077C186.266 243.281 187.194 245.269 188.86 246.67C190.526 248.071 192.419 248.771 194.539 248.771C197.795 248.771 200.294 247.257 202.035 244.228L207.374 246.783C206.124 249.093 204.383 250.948 202.149 252.349C199.953 253.712 197.359 254.393 194.369 254.393ZM201.524 235.936C201.448 235.028 201.146 234.1 200.615 233.153C200.085 232.207 199.253 231.412 198.117 230.768C197.019 230.087 195.637 229.746 193.971 229.746C192.116 229.746 190.507 230.314 189.144 231.45C187.819 232.586 186.91 234.081 186.418 235.936H201.524Z" fill="#5A5A5A"/>
<path d="M162.494 225.316H168.4V229.519H168.741C169.347 228.08 170.445 226.888 172.035 225.941C173.625 224.957 175.253 224.465 176.919 224.465C178.282 224.465 179.399 224.654 180.27 225.033V231.563C178.982 230.92 177.544 230.598 175.954 230.598C173.909 230.598 172.186 231.393 170.786 232.983C169.423 234.535 168.741 236.447 168.741 238.719V253.485H162.494V225.316Z" fill="#5A5A5A"/>
<path d="M153.578 220.546C152.404 220.546 151.401 220.148 150.568 219.353C149.773 218.52 149.375 217.517 149.375 216.343C149.375 215.17 149.773 214.185 150.568 213.39C151.401 212.557 152.404 212.141 153.578 212.141C154.751 212.141 155.736 212.557 156.531 213.39C157.364 214.185 157.78 215.17 157.78 216.343C157.78 217.517 157.364 218.52 156.531 219.353C155.736 220.148 154.751 220.546 153.578 220.546ZM150.454 225.316H156.701V253.485H150.454V225.316Z" fill="#5A5A5A"/>
<path d="M122 212.822H146.704V218.899H128.361V230.598H144.887V236.618H128.361V253.484H122V212.822Z" fill="#5A5A5A"/>
<path d="M1.92094 269.099H6.70495V309.877H1.92094V269.099ZM13.7181 280.831H18.3313V285.102H18.5591C19.3564 283.66 20.6284 282.445 22.3749 281.457C24.1214 280.432 25.9819 279.92 27.9562 279.92C31.4493 279.92 34.1071 280.945 35.9296 282.995C37.79 285.007 38.7203 287.76 38.7203 291.253V309.877H33.8793V291.994C33.8793 289.298 33.2338 287.343 31.9429 286.128C30.652 284.913 28.8865 284.305 26.6463 284.305C25.0896 284.305 23.6848 284.742 22.4318 285.615C21.2169 286.488 20.2677 287.646 19.5842 289.089C18.9008 290.494 18.5591 291.975 18.5591 293.531V309.877H13.7181V280.831ZM44.4466 290.228H62.5006V294.215H44.4466V290.228ZM81.2041 269.099H86.6716L102.163 309.877H96.8661L92.7655 298.657H75.1672L71.0666 309.877H65.77L81.2041 269.099ZM91.1139 294.101L85.7034 279.407L84.0518 275.022H83.8239L82.2293 279.407L76.8188 294.101H91.1139ZM105.513 280.831H110.126V285.159H110.354C111.227 283.679 112.537 282.445 114.284 281.457C116.068 280.432 118.062 279.92 120.264 279.92C122.846 279.92 125.2 280.584 127.326 281.913C129.452 283.242 131.123 285.083 132.338 287.437C133.553 289.791 134.16 292.43 134.16 295.354C134.16 298.315 133.553 300.973 132.338 303.327C131.123 305.643 129.452 307.466 127.326 308.795C125.2 310.124 122.846 310.788 120.264 310.788C118.062 310.788 116.068 310.294 114.284 309.307C112.537 308.282 111.227 307.048 110.354 305.605H110.126L110.354 309.592V322.178H105.513V280.831ZM119.694 306.403C121.365 306.403 122.941 305.947 124.421 305.036C125.902 304.125 127.079 302.834 127.952 301.163C128.864 299.454 129.319 297.518 129.319 295.354C129.319 293.19 128.864 291.272 127.952 289.602C127.079 287.893 125.902 286.583 124.421 285.672C122.941 284.761 121.365 284.305 119.694 284.305C118.024 284.305 116.448 284.761 114.967 285.672C113.486 286.583 112.309 287.874 111.436 289.545C110.563 291.215 110.126 293.152 110.126 295.354C110.126 297.556 110.563 299.492 111.436 301.163C112.309 302.834 113.486 304.125 114.967 305.036C116.448 305.947 118.024 306.403 119.694 306.403ZM137.856 280.831H142.469V285.159H142.697C143.57 283.679 144.88 282.445 146.627 281.457C148.411 280.432 150.404 279.92 152.607 279.92C155.188 279.92 157.542 280.584 159.669 281.913C161.795 283.242 163.465 285.083 164.68 287.437C165.895 289.791 166.503 292.43 166.503 295.354C166.503 298.315 165.895 300.973 164.68 303.327C163.465 305.643 161.795 307.466 159.669 308.795C157.542 310.124 155.188 310.788 152.607 310.788C150.404 310.788 148.411 310.294 146.627 309.307C144.88 308.282 143.57 307.048 142.697 305.605H142.469L142.697 309.592V322.178H137.856V280.831ZM152.037 306.403C153.708 306.403 155.283 305.947 156.764 305.036C158.245 304.125 159.422 302.834 160.295 301.163C161.206 299.454 161.662 297.518 161.662 295.354C161.662 293.19 161.206 291.272 160.295 289.602C159.422 287.893 158.245 286.583 156.764 285.672C155.283 284.761 153.708 284.305 152.037 284.305C150.366 284.305 148.791 284.761 147.31 285.672C145.829 286.583 144.652 287.874 143.779 289.545C142.906 291.215 142.469 293.152 142.469 295.354C142.469 297.556 142.906 299.492 143.779 301.163C144.652 302.834 145.829 304.125 147.31 305.036C148.791 305.947 150.366 306.403 152.037 306.403ZM184.049 269.099H191.054L204.039 302.53H204.267L217.252 269.099H224.257V309.877H219.473V283.963L219.701 276.218H219.473L206.146 309.877H202.16L188.833 276.218H188.605L188.833 283.963V309.877H184.049V269.099ZM244.203 310.788C241.431 310.788 238.944 310.124 236.742 308.795C234.54 307.466 232.812 305.643 231.559 303.327C230.344 300.973 229.737 298.334 229.737 295.411C229.737 292.601 230.306 290.019 231.445 287.665C232.622 285.311 234.274 283.432 236.4 282.027C238.526 280.622 240.994 279.92 243.804 279.92C246.652 279.92 249.119 280.565 251.208 281.856C253.296 283.109 254.891 284.856 255.992 287.096C257.131 289.336 257.7 291.899 257.7 294.784C257.7 295.354 257.643 295.847 257.529 296.265H234.578C234.691 298.467 235.223 300.328 236.172 301.846C237.121 303.365 238.317 304.504 239.76 305.264C241.241 306.023 242.779 306.403 244.373 306.403C248.094 306.403 250.961 304.656 252.973 301.163L257.074 303.156C255.821 305.51 254.112 307.371 251.948 308.738C249.822 310.105 247.24 310.788 244.203 310.788ZM252.575 292.278C252.499 291.063 252.157 289.848 251.549 288.633C250.942 287.418 249.974 286.393 248.645 285.558C247.354 284.723 245.721 284.305 243.747 284.305C241.469 284.305 239.532 285.045 237.938 286.526C236.381 287.969 235.356 289.886 234.862 292.278H252.575ZM272.642 310.788C269.529 310.788 266.928 310.067 264.84 308.624C262.752 307.143 261.271 305.264 260.398 302.985L264.726 301.049C265.447 302.796 266.51 304.143 267.915 305.093C269.358 306.042 270.934 306.517 272.642 306.517C274.465 306.517 276.022 306.156 277.312 305.434C278.603 304.675 279.249 303.612 279.249 302.245C279.249 301.03 278.736 300.062 277.711 299.341C276.686 298.581 275.072 297.936 272.87 297.404L269.339 296.493C267.023 295.923 265.125 294.955 263.644 293.588C262.163 292.221 261.423 290.456 261.423 288.292C261.423 286.621 261.916 285.159 262.903 283.906C263.929 282.615 265.276 281.628 266.947 280.945C268.618 280.261 270.421 279.92 272.358 279.92C274.901 279.92 277.161 280.47 279.135 281.571C281.147 282.672 282.571 284.21 283.406 286.184L279.192 288.121C277.901 285.539 275.604 284.248 272.301 284.248C270.706 284.248 269.301 284.628 268.086 285.387C266.909 286.109 266.321 287.039 266.321 288.178C266.321 289.241 266.738 290.114 267.574 290.798C268.409 291.443 269.662 291.975 271.332 292.392L275.547 293.474C278.395 294.196 280.54 295.278 281.983 296.721C283.425 298.126 284.147 299.853 284.147 301.903C284.147 303.688 283.634 305.264 282.609 306.63C281.584 307.959 280.198 308.984 278.451 309.706C276.705 310.427 274.769 310.788 272.642 310.788ZM298.422 310.788C295.309 310.788 292.708 310.067 290.62 308.624C288.531 307.143 287.051 305.264 286.177 302.985L290.506 301.049C291.227 302.796 292.29 304.143 293.695 305.093C295.138 306.042 296.714 306.517 298.422 306.517C300.245 306.517 301.801 306.156 303.092 305.434C304.383 304.675 305.029 303.612 305.029 302.245C305.029 301.03 304.516 300.062 303.491 299.341C302.466 298.581 300.852 297.936 298.65 297.404L295.119 296.493C292.803 295.923 290.904 294.955 289.424 293.588C287.943 292.221 287.203 290.456 287.203 288.292C287.203 286.621 287.696 285.159 288.683 283.906C289.708 282.615 291.056 281.628 292.727 280.945C294.398 280.261 296.201 279.92 298.137 279.92C300.681 279.92 302.94 280.47 304.915 281.571C306.927 282.672 308.351 284.21 309.186 286.184L304.972 288.121C303.681 285.539 301.384 284.248 298.08 284.248C296.486 284.248 295.081 284.628 293.866 285.387C292.689 286.109 292.1 287.039 292.1 288.178C292.1 289.241 292.518 290.114 293.353 290.798C294.189 291.443 295.442 291.975 297.112 292.392L301.327 293.474C304.174 294.196 306.32 295.278 307.762 296.721C309.205 298.126 309.927 299.853 309.927 301.903C309.927 303.688 309.414 305.264 308.389 306.63C307.364 307.959 305.978 308.984 304.231 309.706C302.485 310.427 300.548 310.788 298.422 310.788ZM323.626 310.788C321.5 310.788 319.601 310.37 317.931 309.535C316.26 308.7 314.969 307.561 314.058 306.118C313.147 304.637 312.691 302.966 312.691 301.106C312.691 298.031 313.849 295.639 316.165 293.93C318.481 292.183 321.405 291.31 324.936 291.31C326.682 291.31 328.296 291.5 329.777 291.88C331.295 292.259 332.454 292.696 333.251 293.19V291.424C333.251 289.26 332.492 287.532 330.973 286.241C329.454 284.913 327.537 284.248 325.221 284.248C323.588 284.248 322.088 284.609 320.721 285.33C319.354 286.014 318.272 286.982 317.475 288.235L313.83 285.501C314.969 283.755 316.526 282.388 318.5 281.4C320.512 280.413 322.734 279.92 325.164 279.92C329.112 279.92 332.207 280.964 334.447 283.052C336.725 285.102 337.864 287.912 337.864 291.481V309.877H333.251V305.719H333.023C332.188 307.124 330.935 308.32 329.264 309.307C327.594 310.294 325.714 310.788 323.626 310.788ZM324.082 306.517C325.714 306.517 327.233 306.099 328.638 305.264C330.043 304.428 331.163 303.308 331.998 301.903C332.833 300.499 333.251 298.961 333.251 297.29C332.34 296.683 331.22 296.189 329.891 295.809C328.562 295.43 327.157 295.24 325.676 295.24C323.018 295.24 321.006 295.79 319.639 296.892C318.31 297.993 317.646 299.416 317.646 301.163C317.646 302.758 318.253 304.049 319.468 305.036C320.683 306.023 322.221 306.517 324.082 306.517ZM355.939 323.09C352.522 323.09 349.693 322.292 347.453 320.698C345.251 319.103 343.77 317.186 343.011 314.945L347.396 313.066C348.041 314.737 349.105 316.085 350.585 317.11C352.104 318.173 353.889 318.704 355.939 318.704C358.938 318.704 361.254 317.831 362.887 316.085C364.558 314.338 365.393 311.87 365.393 308.681V305.434H365.165C364.216 306.915 362.868 308.13 361.122 309.079C359.413 309.991 357.458 310.446 355.255 310.446C352.75 310.446 350.452 309.801 348.364 308.51C346.314 307.219 344.681 305.415 343.466 303.099C342.251 300.783 341.644 298.144 341.644 295.183C341.644 292.259 342.251 289.64 343.466 287.324C344.681 284.969 346.314 283.147 348.364 281.856C350.452 280.565 352.75 279.92 355.255 279.92C357.458 279.92 359.413 280.394 361.122 281.344C362.868 282.255 364.216 283.47 365.165 284.988H365.393V280.831H370.006V308.738C370.006 313.408 368.715 316.958 366.133 319.388C363.552 321.856 360.153 323.09 355.939 323.09ZM355.939 306.061C357.685 306.061 359.261 305.624 360.666 304.751C362.109 303.878 363.248 302.625 364.083 300.992C364.956 299.359 365.393 297.423 365.393 295.183C365.393 292.905 364.956 290.95 364.083 289.317C363.248 287.684 362.109 286.45 360.666 285.615C359.261 284.742 357.685 284.305 355.939 284.305C354.192 284.305 352.598 284.742 351.155 285.615C349.712 286.488 348.554 287.741 347.681 289.374C346.845 291.006 346.428 292.943 346.428 295.183C346.428 297.423 346.845 299.378 347.681 301.049C348.554 302.682 349.712 303.935 351.155 304.808C352.598 305.643 354.192 306.061 355.939 306.061ZM378.872 275.477C377.923 275.477 377.107 275.136 376.424 274.452C375.74 273.769 375.398 272.953 375.398 272.003C375.398 271.054 375.74 270.257 376.424 269.611C377.107 268.928 377.923 268.586 378.872 268.586C379.822 268.586 380.638 268.928 381.321 269.611C382.005 270.257 382.347 271.054 382.347 272.003C382.347 272.953 382.005 273.769 381.321 274.452C380.676 275.136 379.86 275.477 378.872 275.477ZM376.48 280.831H381.264V309.877H376.48V280.831ZM387.733 280.831H392.347V285.102H392.574C393.372 283.66 394.644 282.445 396.39 281.457C398.137 280.432 399.997 279.92 401.972 279.92C405.465 279.92 408.122 280.945 409.945 282.995C411.805 285.007 412.736 287.76 412.736 291.253V309.877H407.895V291.994C407.895 289.298 407.249 287.343 405.958 286.128C404.667 284.913 402.902 284.305 400.662 284.305C399.105 284.305 397.7 284.742 396.447 285.615C395.232 286.488 394.283 287.646 393.6 289.089C392.916 290.494 392.574 291.975 392.574 293.531V309.877H387.733V280.831ZM430.998 323.09C427.581 323.09 424.752 322.292 422.512 320.698C420.31 319.103 418.829 317.186 418.07 314.945L422.455 313.066C423.101 314.737 424.164 316.085 425.645 317.11C427.163 318.173 428.948 318.704 430.998 318.704C433.998 318.704 436.314 317.831 437.946 316.085C439.617 314.338 440.452 311.87 440.452 308.681V305.434H440.225C439.275 306.915 437.927 308.13 436.181 309.079C434.472 309.991 432.517 310.446 430.315 310.446C427.809 310.446 425.512 309.801 423.424 308.51C421.373 307.219 419.741 305.415 418.526 303.099C417.311 300.783 416.703 298.144 416.703 295.183C416.703 292.259 417.311 289.64 418.526 287.324C419.741 284.969 421.373 283.147 423.424 281.856C425.512 280.565 427.809 279.92 430.315 279.92C432.517 279.92 434.472 280.394 436.181 281.344C437.927 282.255 439.275 283.47 440.225 284.988H440.452V280.831H445.065V308.738C445.065 313.408 443.775 316.958 441.193 319.388C438.611 321.856 435.213 323.09 430.998 323.09ZM430.998 306.061C432.745 306.061 434.32 305.624 435.725 304.751C437.168 303.878 438.307 302.625 439.142 300.992C440.016 299.359 440.452 297.423 440.452 295.183C440.452 292.905 440.016 290.95 439.142 289.317C438.307 287.684 437.168 286.45 435.725 285.615C434.32 284.742 432.745 284.305 430.998 284.305C429.252 284.305 427.657 284.742 426.214 285.615C424.771 286.488 423.613 287.741 422.74 289.374C421.905 291.006 421.487 292.943 421.487 295.183C421.487 297.423 421.905 299.378 422.74 301.049C423.613 302.682 424.771 303.935 426.214 304.808C427.657 305.643 429.252 306.061 430.998 306.061Z" fill="#5A5A5A"/>
<path d="M196.196 176.071C203.728 179.103 211.9 180.902 220.48 181.201C232.092 181.607 243.135 179.206 253.006 174.646C241.169 169.995 230.448 163.193 221.298 154.737C215.366 164.233 206.594 171.734 196.196 176.071Z" fill="#FF9100"/>
<path d="M221.298 154.74C200.411 135.423 187.74 107.463 188.811 76.797C188.846 75.8011 188.898 74.8059 188.96 73.811C185.219 72.8436 181.314 72.2532 177.295 72.1129C171.542 71.912 165.971 72.6254 160.712 74.1065C155.136 83.8734 151.771 95.0795 151.352 107.083C150.27 138.06 169.017 165.128 196.196 176.074C206.594 171.737 215.366 164.245 221.298 154.74Z" fill="#FFC400"/>
<path d="M221.298 154.739C226.154 146.968 229.099 137.857 229.441 128.04C230.343 102.22 212.985 80.008 188.96 73.8099C188.899 74.8048 188.846 75.8 188.812 76.7959C187.741 107.462 200.412 135.421 221.298 154.739Z" fill="#FF9100"/>
<path d="M226.755 1.23018C213.072 12.1917 202.268 26.6455 195.731 43.2959C191.988 52.833 189.636 63.0774 188.95 73.8163C212.974 80.0144 230.332 102.226 229.43 128.047C229.088 137.863 226.135 146.965 221.287 154.745C230.437 163.21 241.158 170.003 252.996 174.654C276.757 163.67 293.615 140.036 294.591 112.082C295.224 93.9699 288.265 77.8275 278.432 64.202C268.048 49.7916 226.755 1.23018 226.755 1.23018Z" fill="#DD2C00"/>
<g filter="url(#filter0_d_57_6445)">
<circle cx="299" cy="137" r="45" fill="white"/>
<path fill-rule="evenodd" clip-rule="evenodd" d="M313.428 160.428C312.547 161.309 311.487 161.75 310.25 161.75H287.75C286.512 161.75 285.453 161.309 284.572 160.428C283.691 159.547 283.25 158.488 283.25 157.25V150.5L287.75 148.25V150.5H310.25V123.5H287.75V125.75L283.25 123.5V116.75C283.25 115.513 283.691 114.453 284.572 113.572C285.453 112.691 286.512 112.25 287.75 112.25H310.25C311.487 112.25 312.547 112.691 313.428 113.572C314.309 114.453 314.75 115.513 314.75 116.75V157.25C314.75 158.488 314.309 159.547 313.428 160.428ZM274.25 148.25V139.813L285.618 137L274.25 134.188V125.75L301.25 137L274.25 148.25Z" fill="#1F1F1F"/>
</g>
<defs>
<filter id="filter0_d_57_6445" x="248" y="88.0029" width="102" height="102" filterUnits="userSpaceOnUse" color-interpolation-filters="sRGB">
<feFlood flood-opacity="0" result="BackgroundImageFix"/>
<feColorMatrix in="SourceAlpha" type="matrix" values="0 0 0 0 0 0 0 0 0 0 0 0 0 0 0 0 0 0 127 0" result="hardAlpha"/>
<feOffset dy="2.0029"/>
<feGaussianBlur stdDeviation="3"/>
<feComposite in2="hardAlpha" operator="out"/>
<feColorMatrix type="matrix" values="0 0 0 0 0 0 0 0 0 0 0 0 0 0 0 0 0 0 0.3 0"/>
<feBlend mode="normal" in2="BackgroundImageFix" result="effect1_dropShadow_57_6445"/>
<feBlend mode="normal" in="SourceGraphic" in2="effect1_dropShadow_57_6445" result="shape"/>
</filter>
</defs>
</svg>
