<svg width="228" height="327" viewBox="0 0 228 327" fill="none" xmlns="http://www.w3.org/2000/svg">
<path d="M189.285 254.393C186.521 254.393 184.022 253.749 181.788 252.462C179.592 251.175 177.87 249.395 176.62 247.124C175.371 244.814 174.746 242.24 174.746 239.4C174.746 236.674 175.333 234.175 176.507 231.904C177.718 229.594 179.403 227.777 181.561 226.452C183.719 225.089 186.18 224.407 188.944 224.407C191.783 224.407 194.244 225.032 196.327 226.281C198.447 227.531 200.056 229.272 201.154 231.506C202.252 233.702 202.801 236.239 202.801 239.116C202.801 239.457 202.782 239.798 202.744 240.138C202.706 240.479 202.687 240.668 202.687 240.706H180.993C181.182 243.281 182.11 245.268 183.776 246.669C185.442 248.07 187.335 248.77 189.455 248.77C192.711 248.77 195.21 247.256 196.951 244.227L202.29 246.783C201.04 249.092 199.299 250.947 197.065 252.348C194.869 253.711 192.275 254.393 189.285 254.393ZM196.44 235.936C196.364 235.027 196.062 234.1 195.531 233.153C195.001 232.206 194.169 231.411 193.033 230.768C191.935 230.086 190.553 229.746 188.887 229.746C187.032 229.746 185.423 230.313 184.06 231.449C182.735 232.585 181.826 234.081 181.334 235.936H196.44Z" fill="white"/>
<path d="M161.035 254.393C157.817 254.393 155.148 253.654 153.027 252.178C150.945 250.663 149.468 248.77 148.598 246.499L154.163 244.114C154.807 245.666 155.734 246.84 156.946 247.635C158.195 248.43 159.558 248.827 161.035 248.827C162.587 248.827 163.855 248.543 164.84 247.975C165.824 247.37 166.316 246.593 166.316 245.647C166.316 244.738 165.919 244 165.124 243.432C164.329 242.826 163.022 242.296 161.205 241.842L157.343 240.933C155.223 240.441 153.387 239.532 151.835 238.207C150.32 236.844 149.563 235.084 149.563 232.926C149.563 230.313 150.642 228.25 152.8 226.736C154.958 225.183 157.608 224.407 160.751 224.407C163.363 224.407 165.673 224.956 167.679 226.054C169.724 227.152 171.2 228.742 172.109 230.825L166.6 233.153C166.07 231.979 165.256 231.109 164.158 230.541C163.06 229.973 161.868 229.689 160.581 229.689C159.331 229.689 158.233 229.973 157.287 230.541C156.34 231.071 155.867 231.79 155.867 232.699C155.867 233.494 156.189 234.137 156.832 234.63C157.514 235.122 158.574 235.538 160.013 235.879L164.215 236.901C167.055 237.621 169.175 238.718 170.576 240.195C171.977 241.634 172.677 243.375 172.677 245.42C172.677 247.086 172.166 248.6 171.144 249.963C170.159 251.326 168.777 252.405 166.998 253.2C165.256 253.995 163.269 254.393 161.035 254.393Z" fill="white"/>
<path d="M131.149 254.393C129.143 254.393 127.325 253.995 125.697 253.2C124.107 252.367 122.839 251.231 121.892 249.793C120.984 248.316 120.529 246.65 120.529 244.795C120.529 241.842 121.627 239.514 123.823 237.81C126.057 236.106 128.878 235.254 132.285 235.254C135.276 235.254 137.832 235.765 139.952 236.788V235.595C139.952 233.891 139.27 232.49 137.907 231.392C136.582 230.257 134.973 229.689 133.08 229.689C130.203 229.689 127.893 230.862 126.152 233.21L121.381 229.916C122.706 228.136 124.353 226.774 126.322 225.827C128.329 224.88 130.581 224.407 133.08 224.407C137.207 224.407 140.387 225.448 142.621 227.531C144.893 229.575 146.028 232.472 146.028 236.22V253.484H139.952V250.02H139.611C138.702 251.307 137.548 252.367 136.147 253.2C134.746 253.995 133.08 254.393 131.149 254.393ZM132.171 249.225C133.572 249.225 134.859 248.884 136.033 248.203C137.245 247.483 138.191 246.556 138.873 245.42C139.592 244.246 139.952 242.997 139.952 241.672C137.945 240.574 135.806 240.025 133.534 240.025C131.452 240.025 129.824 240.479 128.65 241.388C127.477 242.296 126.89 243.451 126.89 244.852C126.89 246.139 127.401 247.199 128.423 248.032C129.483 248.827 130.733 249.225 132.171 249.225Z" fill="white"/>
<path d="M104.939 254.393C102.894 254.393 101.058 253.958 99.4303 253.087C97.8401 252.216 96.6475 251.118 95.8524 249.793H95.5117V253.484H89.6055V212.822H95.8524V225.032L95.5117 228.951H95.8524C96.6475 227.664 97.8401 226.585 99.4303 225.714C101.058 224.843 102.894 224.408 104.939 224.408C107.362 224.408 109.596 225.051 111.64 226.338C113.723 227.626 115.37 229.424 116.581 231.734C117.83 234.005 118.455 236.561 118.455 239.4C118.455 242.24 117.83 244.795 116.581 247.067C115.37 249.339 113.723 251.137 111.64 252.462C109.596 253.749 107.362 254.393 104.939 254.393ZM103.86 248.657C105.336 248.657 106.699 248.279 107.949 247.521C109.236 246.764 110.258 245.685 111.016 244.284C111.811 242.846 112.208 241.218 112.208 239.4C112.208 237.583 111.811 235.974 111.016 234.573C110.258 233.134 109.236 232.036 107.949 231.279C106.699 230.522 105.336 230.143 103.86 230.143C102.383 230.143 101.001 230.522 99.7142 231.279C98.4648 232.036 97.4426 233.115 96.6475 234.516C95.8903 235.917 95.5117 237.545 95.5117 239.4C95.5117 241.255 95.8903 242.883 96.6475 244.284C97.4426 245.685 98.4648 246.764 99.7142 247.521C101.001 248.279 102.383 248.657 103.86 248.657Z" fill="white"/>
<path d="M72.3685 254.393C69.6047 254.393 67.1059 253.749 64.8721 252.462C62.6762 251.175 60.9536 249.395 59.7042 247.124C58.4548 244.814 57.8301 242.24 57.8301 239.4C57.8301 236.674 58.4169 234.175 59.5906 231.904C60.8021 229.594 62.4869 227.777 64.645 226.452C66.803 225.089 69.2639 224.407 72.0278 224.407C74.8673 224.407 77.3282 225.032 79.4106 226.281C81.5307 227.531 83.1398 229.272 84.2378 231.506C85.3357 233.702 85.8847 236.239 85.8847 239.116C85.8847 239.457 85.8658 239.798 85.8279 240.138C85.79 240.479 85.7711 240.668 85.7711 240.706H64.0771C64.2664 243.281 65.1939 245.268 66.8598 246.669C68.5257 248.07 70.4187 248.77 72.5389 248.77C75.7949 248.77 78.2937 247.256 80.0353 244.227L85.3736 246.783C84.1242 249.092 82.3826 250.947 80.1488 252.348C77.9529 253.711 75.3595 254.393 72.3685 254.393ZM79.5241 235.936C79.4484 235.027 79.1455 234.1 78.6155 233.153C78.0854 232.206 77.2525 231.411 76.1167 230.768C75.0187 230.086 73.6368 229.746 71.971 229.746C70.1158 229.746 68.5067 230.313 67.1438 231.449C65.8186 232.585 64.91 234.081 64.4178 235.936H79.5241Z" fill="white"/>
<path d="M40.4941 225.317H46.4004V229.519H46.7411C47.3469 228.081 48.4448 226.888 50.035 225.941C51.6251 224.957 53.2531 224.465 54.919 224.465C56.282 224.465 57.3988 224.654 58.2696 225.033V231.564C56.9824 230.92 55.5437 230.598 53.9535 230.598C51.9091 230.598 50.1864 231.393 48.7856 232.983C47.4226 234.536 46.7411 236.448 46.7411 238.719V253.485H40.4941V225.317Z" fill="white"/>
<path d="M31.5775 220.546C30.4038 220.546 29.4005 220.148 28.5676 219.353C27.7725 218.52 27.375 217.517 27.375 216.343C27.375 215.169 27.7725 214.185 28.5676 213.39C29.4005 212.557 30.4038 212.141 31.5775 212.141C32.7512 212.141 33.7356 212.557 34.5306 213.39C35.3636 214.185 35.78 215.169 35.78 216.343C35.78 217.517 35.3636 218.52 34.5306 219.353C33.7356 220.148 32.7512 220.546 31.5775 220.546ZM28.454 225.316H34.701V253.484H28.454V225.316Z" fill="white"/>
<path d="M0 212.822H24.704V218.899H6.36056V230.598H22.8867V236.618H6.36056V253.484H0V212.822Z" fill="white"/>
<path d="M41.9159 310.788C38.0811 310.788 34.5501 309.858 31.3228 307.998C28.0954 306.137 25.5326 303.574 23.6342 300.309C21.7358 297.044 20.7865 293.437 20.7865 289.488C20.7865 285.539 21.7358 281.932 23.6342 278.667C25.5326 275.402 28.0954 272.839 31.3228 270.978C34.5501 269.118 38.0811 268.188 41.9159 268.188C44.9154 268.188 47.7251 268.719 50.3449 269.782C53.0027 270.846 55.1858 272.345 56.8944 274.282L53.4203 277.756C52.1294 276.161 50.4778 274.946 48.4655 274.111C46.4531 273.238 44.2889 272.801 41.9729 272.801C39.0873 272.801 36.3915 273.503 33.8856 274.908C31.4177 276.275 29.4243 278.23 27.9056 280.774C26.4248 283.28 25.6845 286.185 25.6845 289.488C25.6845 292.791 26.4248 295.715 27.9056 298.259C29.4243 300.765 31.4367 302.72 33.9426 304.125C36.4485 305.492 39.1252 306.175 41.9729 306.175C44.7066 306.175 46.9847 305.757 48.8072 304.922C50.6676 304.049 52.2623 302.91 53.5912 301.505C54.5784 300.442 55.3757 299.17 55.9832 297.689C56.5907 296.17 56.9704 294.5 57.1222 292.677H42.0298V288.178H61.6215C61.8113 289.241 61.9062 290.228 61.9062 291.14C61.9062 293.645 61.5076 296.094 60.7102 298.486C59.9129 300.84 58.641 302.91 56.8944 304.694C53.1356 308.757 48.1427 310.788 41.9159 310.788ZM79.6523 310.788C76.8806 310.788 74.3937 310.124 72.1915 308.795C69.9893 307.466 68.2618 305.643 67.0088 303.327C65.7938 300.973 65.1863 298.335 65.1863 295.411C65.1863 292.601 65.7559 290.02 66.8949 287.665C68.0719 285.311 69.7236 283.432 71.8498 282.027C73.976 280.622 76.444 279.92 79.2536 279.92C82.1012 279.92 84.5692 280.565 86.6574 281.856C88.7457 283.109 90.3404 284.856 91.4414 287.096C92.5805 289.336 93.15 291.899 93.15 294.785C93.15 295.354 93.0931 295.848 92.9792 296.265H70.0273C70.1412 298.467 70.6728 300.328 71.622 301.847C72.5712 303.365 73.7672 304.504 75.21 305.264C76.6907 306.023 78.2285 306.403 79.8231 306.403C83.544 306.403 86.4106 304.656 88.423 301.163L92.5235 303.157C91.2706 305.511 89.562 307.371 87.3978 308.738C85.2716 310.105 82.6897 310.788 79.6523 310.788ZM88.0243 292.279C87.9484 291.064 87.6066 289.849 86.9991 288.634C86.3917 287.419 85.4235 286.394 84.0946 285.558C82.8036 284.723 81.171 284.305 79.1967 284.305C76.9186 284.305 74.9822 285.046 73.3875 286.526C71.8308 287.969 70.8057 289.887 70.3121 292.279H88.0243ZM97.6764 280.831H102.29V285.103H102.517C103.315 283.66 104.587 282.445 106.333 281.458C108.08 280.433 109.94 279.92 111.915 279.92C115.408 279.92 118.065 280.945 119.888 282.995C121.748 285.008 122.679 287.76 122.679 291.253V309.877H117.838V291.994C117.838 289.298 117.192 287.343 115.901 286.128C114.61 284.913 112.845 284.305 110.605 284.305C109.048 284.305 107.643 284.742 106.39 285.615C105.175 286.488 104.226 287.647 103.542 289.089C102.859 290.494 102.517 291.975 102.517 293.532V309.877H97.6764V280.831ZM128.462 269.099H133.303V294.728L146.971 280.831H153.122V281.059L141.732 292.563L153.407 309.649V309.877H147.655L138.315 295.924L133.303 300.935V309.877H128.462V269.099ZM158.925 275.478C157.976 275.478 157.159 275.136 156.476 274.453C155.792 273.769 155.451 272.953 155.451 272.004C155.451 271.054 155.792 270.257 156.476 269.612C157.159 268.928 157.976 268.586 158.925 268.586C159.874 268.586 160.69 268.928 161.374 269.612C162.057 270.257 162.399 271.054 162.399 272.004C162.399 272.953 162.057 273.769 161.374 274.453C160.728 275.136 159.912 275.478 158.925 275.478ZM156.533 280.831H161.317V309.877H156.533V280.831ZM178.67 310.333C177.493 310.333 176.392 310.143 175.367 309.763C174.38 309.383 173.545 308.871 172.861 308.225C172.102 307.504 171.532 306.669 171.153 305.719C170.773 304.77 170.583 303.612 170.583 302.245V285.217H165.514V280.831H170.583V272.63H175.424V280.831H182.486V285.217H175.424V301.049C175.424 302.644 175.728 303.821 176.335 304.58C177.057 305.416 178.101 305.833 179.468 305.833C180.569 305.833 181.632 305.511 182.657 304.865V309.592C182.088 309.858 181.499 310.048 180.892 310.162C180.322 310.276 179.582 310.333 178.67 310.333Z" fill="white"/>
<path d="M173.017 99.803V99.7458C173.016 99.7242 173.016 99.7027 173.017 99.6812C171.295 88.4617 166.829 78.1267 160.904 68.8306C160.159 67.6552 159.384 66.4997 158.592 65.3516C158.207 64.795 157.817 64.2434 157.422 63.6967C149.803 53.1207 125.739 24.3674 113.097 9.3757C108.315 3.70257 105.168 0 105.168 0C103.742 1.14308 102.349 2.32259 100.987 3.53856L100.94 3.58079C91.0814 12.7989 82.9061 23.667 76.7821 35.6962L76.7622 35.7336C75.583 38.0528 74.4818 40.4135 73.4583 42.8157C71.0905 48.3804 69.166 54.1236 67.7026 59.9916C66.8149 63.5384 66.0962 67.1474 65.5464 70.8185C62.5207 70.3234 59.4647 70.0361 56.3998 69.9587C55.8202 69.9438 55.2406 69.9363 54.661 69.9363C49.6527 69.9326 44.6599 70.4911 39.7761 71.6013C36.7866 76.4304 34.3801 81.597 32.607 86.9931C30.21 94.296 28.9925 101.935 29 109.621C29 144.753 54.025 174.043 87.2178 180.616C91.8728 181.538 96.607 182.002 101.352 182C102.289 182 103.221 181.98 104.15 181.948C106.589 181.852 108.994 181.64 111.366 181.312C116.892 180.545 122.311 179.139 127.513 177.122C128.899 176.585 130.263 176.006 131.607 175.383C156.448 163.925 173.705 138.787 173.705 109.621C173.695 106.337 173.466 103.057 173.017 99.803ZM77.9993 164.856C70.8755 161.846 64.4038 157.48 58.9436 152.002C53.4686 146.54 49.1053 140.067 46.0957 132.942C42.9738 125.561 41.3736 117.626 41.3908 109.611C41.3733 101.596 42.9736 93.6592 46.0957 86.2774C46.5926 85.0912 47.1299 83.9266 47.7079 82.7836C50.0044 82.4955 52.3167 82.351 54.6312 82.3511C57.887 82.3508 61.1364 82.6386 64.3416 83.211C64.272 84.8287 64.2373 86.4613 64.2373 88.0988C64.1935 118.565 76.2022 147.811 97.6412 169.451C90.8796 169.053 84.2362 167.499 77.9993 164.856ZM104.579 158.746C103.125 157.2 101.727 155.615 100.384 153.99C93.945 146.237 88.6834 137.578 84.7685 128.29C79.3886 115.572 76.63 101.899 76.6578 88.0889C76.6578 87.7128 76.6578 87.3376 76.6578 86.9632C82.8122 89.694 88.4079 93.541 93.1623 98.3095C100.533 105.644 105.637 114.946 107.863 125.105C108.705 128.965 109.128 132.905 109.125 136.856C109.148 144.388 107.606 151.842 104.597 158.746H104.579ZM161.319 111.686C160.94 122.957 157.384 133.892 151.062 143.23C145.925 150.813 139.129 157.127 131.189 161.693L131.11 161.656C129.023 162.852 126.866 163.92 124.651 164.856C121.891 166.024 119.047 166.982 116.143 167.722C115.626 167.854 115.108 167.978 114.588 168.094C114.307 168.159 114.029 168.221 113.748 168.278C113.858 168.079 113.964 167.873 114.069 167.669C114.23 167.359 114.389 167.048 114.543 166.735C116.44 162.941 117.967 158.973 119.104 154.887C120.736 149.021 121.561 142.96 121.556 136.871C121.558 132.441 121.123 128.022 120.257 123.678C115.654 100.653 99.2435 81.8964 77.6117 73.9794C78.6082 66.6557 80.3965 59.4619 82.9451 52.5244C83.5165 50.9721 84.1251 49.4306 84.771 47.8998C85.7447 45.5938 86.798 43.3325 87.9308 41.1159C87.9376 41.1049 87.9434 41.0932 87.9482 41.0812C88.4127 40.1145 88.8921 39.1628 89.389 38.2135C93.2882 30.7861 98.2036 23.9388 103.993 17.8692L104.09 17.9861C109.222 24.0742 116.091 32.2646 122.932 40.5171C126.432 44.7415 129.925 48.9833 133.174 52.9716C139.268 60.4538 144.504 67.0439 147.334 70.9577C147.738 71.5193 148.133 72.0784 148.521 72.645C152.585 78.5467 155.725 84.5131 157.854 90.4148C159.207 94.136 160.183 97.9838 160.768 101.9V101.95C161.246 105.172 161.432 108.43 161.324 111.686H161.319Z" fill="white"/>
<g filter="url(#filter0_d_57_7781)">
<circle cx="177" cy="137" r="45" fill="white"/>
<path fill-rule="evenodd" clip-rule="evenodd" d="M157 151.25C156.208 150.792 155.594 150.188 155.156 149.437C154.719 148.687 154.5 147.854 154.5 146.938V127.062C154.5 126.146 154.719 125.312 155.156 124.562C155.594 123.812 156.208 123.208 157 122.75L174.5 112.688C175.292 112.229 176.125 112 177 112C177.875 112 178.708 112.229 179.5 112.688L197 122.75C197.792 123.208 198.406 123.812 198.844 124.562C199.281 125.312 199.5 126.146 199.5 127.062V146.938C199.5 147.854 199.281 148.687 198.844 149.437C198.406 150.188 197.792 150.792 197 151.25L179.5 161.312C178.708 161.771 177.875 162 177 162C176.125 162 175.292 161.771 174.5 161.312L157 151.25ZM159 146.998V126.938L177 116.75L195 126.875V146.998L177 157.25L159 146.998ZM173.073 140.927C175.691 143.545 177 146.736 177 150.5C177 146.736 178.309 143.545 180.927 140.927C183.545 138.309 186.736 137 190.5 137C186.736 137 183.545 135.691 180.927 133.073C178.309 130.455 177 127.264 177 123.5C177 127.264 175.691 130.455 173.073 133.073C170.455 135.691 167.264 137 163.5 137C167.264 137 170.455 138.309 173.073 140.927Z" fill="#1F1F1F"/>
</g>
<defs>
<filter id="filter0_d_57_7781" x="126" y="88.0029" width="102" height="102" filterUnits="userSpaceOnUse" color-interpolation-filters="sRGB">
<feFlood flood-opacity="0" result="BackgroundImageFix"/>
<feColorMatrix in="SourceAlpha" type="matrix" values="0 0 0 0 0 0 0 0 0 0 0 0 0 0 0 0 0 0 127 0" result="hardAlpha"/>
<feOffset dy="2.0029"/>
<feGaussianBlur stdDeviation="3"/>
<feComposite in2="hardAlpha" operator="out"/>
<feColorMatrix type="matrix" values="0 0 0 0 0 0 0 0 0 0 0 0 0 0 0 0 0 0 0.3 0"/>
<feBlend mode="normal" in2="BackgroundImageFix" result="effect1_dropShadow_57_7781"/>
<feBlend mode="normal" in="SourceGraphic" in2="effect1_dropShadow_57_7781" result="shape"/>
</filter>
</defs>
</svg>
