<svg width="228" height="327" viewBox="0 0 228 327" fill="none" xmlns="http://www.w3.org/2000/svg">
<path d="M189.285 254.393C186.521 254.393 184.022 253.749 181.788 252.462C179.592 251.175 177.87 249.395 176.62 247.124C175.371 244.814 174.746 242.24 174.746 239.4C174.746 236.674 175.333 234.175 176.507 231.904C177.718 229.594 179.403 227.777 181.561 226.452C183.719 225.089 186.18 224.407 188.944 224.407C191.783 224.407 194.244 225.032 196.327 226.281C198.447 227.531 200.056 229.272 201.154 231.506C202.252 233.702 202.801 236.239 202.801 239.116C202.801 239.457 202.782 239.798 202.744 240.138C202.706 240.479 202.687 240.668 202.687 240.706H180.993C181.182 243.281 182.11 245.268 183.776 246.669C185.442 248.07 187.335 248.77 189.455 248.77C192.711 248.77 195.21 247.256 196.951 244.227L202.29 246.783C201.04 249.092 199.299 250.947 197.065 252.348C194.869 253.711 192.275 254.393 189.285 254.393ZM196.44 235.936C196.364 235.027 196.062 234.1 195.531 233.153C195.001 232.206 194.169 231.411 193.033 230.768C191.935 230.086 190.553 229.746 188.887 229.746C187.032 229.746 185.423 230.313 184.06 231.449C182.735 232.585 181.826 234.081 181.334 235.936H196.44Z" fill="white"/>
<path d="M161.035 254.393C157.817 254.393 155.148 253.654 153.027 252.178C150.945 250.663 149.468 248.77 148.598 246.499L154.163 244.114C154.807 245.666 155.734 246.84 156.946 247.635C158.195 248.43 159.558 248.827 161.035 248.827C162.587 248.827 163.855 248.543 164.84 247.975C165.824 247.37 166.316 246.593 166.316 245.647C166.316 244.738 165.919 244 165.124 243.432C164.329 242.826 163.022 242.296 161.205 241.842L157.343 240.933C155.223 240.441 153.387 239.532 151.835 238.207C150.32 236.844 149.563 235.084 149.563 232.926C149.563 230.313 150.642 228.25 152.8 226.736C154.958 225.183 157.608 224.407 160.751 224.407C163.363 224.407 165.673 224.956 167.679 226.054C169.724 227.152 171.2 228.742 172.109 230.825L166.6 233.153C166.07 231.979 165.256 231.109 164.158 230.541C163.06 229.973 161.868 229.689 160.581 229.689C159.331 229.689 158.233 229.973 157.287 230.541C156.34 231.071 155.867 231.79 155.867 232.699C155.867 233.494 156.189 234.137 156.832 234.63C157.514 235.122 158.574 235.538 160.013 235.879L164.215 236.901C167.055 237.621 169.175 238.718 170.576 240.195C171.977 241.634 172.677 243.375 172.677 245.42C172.677 247.086 172.166 248.6 171.144 249.963C170.159 251.326 168.777 252.405 166.998 253.2C165.256 253.995 163.269 254.393 161.035 254.393Z" fill="white"/>
<path d="M131.149 254.393C129.143 254.393 127.325 253.995 125.697 253.2C124.107 252.367 122.839 251.231 121.892 249.793C120.984 248.316 120.529 246.65 120.529 244.795C120.529 241.842 121.627 239.514 123.823 237.81C126.057 236.106 128.878 235.254 132.285 235.254C135.276 235.254 137.832 235.765 139.952 236.788V235.595C139.952 233.891 139.27 232.49 137.907 231.392C136.582 230.257 134.973 229.689 133.08 229.689C130.203 229.689 127.893 230.862 126.152 233.21L121.381 229.916C122.706 228.136 124.353 226.774 126.322 225.827C128.329 224.88 130.581 224.407 133.08 224.407C137.207 224.407 140.387 225.448 142.621 227.531C144.893 229.575 146.028 232.472 146.028 236.22V253.484H139.952V250.02H139.611C138.702 251.307 137.548 252.367 136.147 253.2C134.746 253.995 133.08 254.393 131.149 254.393ZM132.171 249.225C133.572 249.225 134.859 248.884 136.033 248.203C137.245 247.483 138.191 246.556 138.873 245.42C139.592 244.246 139.952 242.997 139.952 241.672C137.945 240.574 135.806 240.025 133.534 240.025C131.452 240.025 129.824 240.479 128.65 241.388C127.477 242.296 126.89 243.451 126.89 244.852C126.89 246.139 127.401 247.199 128.423 248.032C129.483 248.827 130.733 249.225 132.171 249.225Z" fill="white"/>
<path d="M104.939 254.393C102.894 254.393 101.058 253.958 99.4303 253.087C97.8401 252.216 96.6475 251.118 95.8524 249.793H95.5117V253.484H89.6055V212.822H95.8524V225.032L95.5117 228.951H95.8524C96.6475 227.664 97.8401 226.585 99.4303 225.714C101.058 224.843 102.894 224.408 104.939 224.408C107.362 224.408 109.596 225.051 111.64 226.338C113.723 227.626 115.37 229.424 116.581 231.734C117.83 234.005 118.455 236.561 118.455 239.4C118.455 242.24 117.83 244.795 116.581 247.067C115.37 249.339 113.723 251.137 111.64 252.462C109.596 253.749 107.362 254.393 104.939 254.393ZM103.86 248.657C105.336 248.657 106.699 248.279 107.949 247.521C109.236 246.764 110.258 245.685 111.016 244.284C111.811 242.846 112.208 241.218 112.208 239.4C112.208 237.583 111.811 235.974 111.016 234.573C110.258 233.134 109.236 232.036 107.949 231.279C106.699 230.522 105.336 230.143 103.86 230.143C102.383 230.143 101.001 230.522 99.7142 231.279C98.4648 232.036 97.4426 233.115 96.6475 234.516C95.8903 235.917 95.5117 237.545 95.5117 239.4C95.5117 241.255 95.8903 242.883 96.6475 244.284C97.4426 245.685 98.4648 246.764 99.7142 247.521C101.001 248.279 102.383 248.657 103.86 248.657Z" fill="white"/>
<path d="M72.3685 254.393C69.6047 254.393 67.1059 253.749 64.8721 252.462C62.6762 251.175 60.9536 249.395 59.7042 247.124C58.4548 244.814 57.8301 242.24 57.8301 239.4C57.8301 236.674 58.4169 234.175 59.5906 231.904C60.8021 229.594 62.4869 227.777 64.645 226.452C66.803 225.089 69.2639 224.407 72.0278 224.407C74.8673 224.407 77.3282 225.032 79.4106 226.281C81.5307 227.531 83.1398 229.272 84.2378 231.506C85.3357 233.702 85.8847 236.239 85.8847 239.116C85.8847 239.457 85.8658 239.798 85.8279 240.138C85.79 240.479 85.7711 240.668 85.7711 240.706H64.0771C64.2664 243.281 65.1939 245.268 66.8598 246.669C68.5257 248.07 70.4187 248.77 72.5389 248.77C75.7949 248.77 78.2937 247.256 80.0353 244.227L85.3736 246.783C84.1242 249.092 82.3826 250.947 80.1488 252.348C77.9529 253.711 75.3595 254.393 72.3685 254.393ZM79.5241 235.936C79.4484 235.027 79.1455 234.1 78.6155 233.153C78.0854 232.206 77.2525 231.411 76.1167 230.768C75.0187 230.086 73.6368 229.746 71.971 229.746C70.1158 229.746 68.5067 230.313 67.1438 231.449C65.8186 232.585 64.91 234.081 64.4178 235.936H79.5241Z" fill="white"/>
<path d="M40.4941 225.317H46.4004V229.519H46.7411C47.3469 228.081 48.4448 226.888 50.035 225.941C51.6251 224.957 53.2531 224.465 54.919 224.465C56.282 224.465 57.3988 224.654 58.2696 225.033V231.564C56.9824 230.92 55.5437 230.598 53.9535 230.598C51.9091 230.598 50.1864 231.393 48.7856 232.983C47.4226 234.536 46.7411 236.448 46.7411 238.719V253.485H40.4941V225.317Z" fill="white"/>
<path d="M31.5775 220.546C30.4038 220.546 29.4005 220.148 28.5676 219.353C27.7725 218.52 27.375 217.517 27.375 216.343C27.375 215.169 27.7725 214.185 28.5676 213.39C29.4005 212.557 30.4038 212.141 31.5775 212.141C32.7512 212.141 33.7356 212.557 34.5306 213.39C35.3636 214.185 35.78 215.169 35.78 216.343C35.78 217.517 35.3636 218.52 34.5306 219.353C33.7356 220.148 32.7512 220.546 31.5775 220.546ZM28.454 225.316H34.701V253.484H28.454V225.316Z" fill="white"/>
<path d="M0 212.822H24.704V218.899H6.36056V230.598H22.8867V236.618H6.36056V253.484H0V212.822Z" fill="white"/>
<path d="M66.9709 269.099H73.976L86.9612 302.53H87.189L100.174 269.099H107.179V309.877H102.395V283.964L102.623 276.218H102.395L89.0685 309.877H85.0818L71.7549 276.218H71.5271L71.7549 283.964V309.877H66.9709V269.099ZM115.165 269.099H119.949V305.264H137.832V309.877H115.165V269.099Z" fill="white"/>
<g clip-path="url(#clip0_57_7105)">
<path d="M156.52 63.5793C152.426 57.8986 143.012 46.2181 128.551 28.866C122.274 21.3396 116.889 14.9511 114.238 11.8147C112.776 10.0846 111.523 8.6043 110.533 7.43393L108.955 5.57429L108.1 4.56583L107.933 4.32065L107.859 4.28827L104.209 0L99.5832 3.71003C87.7731 13.1701 78.1002 25.3642 71.6192 38.9553C67.6455 47.0415 65.0503 54.9473 63.6903 63.089C63.3341 64.9208 63.0288 66.8036 62.7744 68.691C61.1877 68.5615 59.5732 68.4782 57.9726 68.4412C57.8385 68.432 57.7043 68.4273 57.5239 68.4227C51.6628 68.2192 45.8341 68.9177 40.2043 70.5044L37.7941 71.1798L36.5544 73.354C30.7442 83.545 27.4551 95.1469 27.0434 106.902C26.5114 122.167 30.6701 136.943 39.0709 149.632C47.2912 162.043 58.9024 171.531 72.6508 177.068L74.4411 177.79L74.9823 177.98L75.0054 177.97C82.1664 180.57 89.6836 182.023 97.3489 182.286C98.2185 182.319 99.0836 182.333 99.9486 182.333C109.622 182.333 119.04 180.441 127.977 176.698L128.042 176.726L130.42 175.625C142.475 170.051 152.791 161.289 160.253 150.284C167.927 138.964 172.239 125.72 172.72 111.985C173.293 95.5679 167.839 79.2845 156.515 63.5839L156.52 63.5793ZM102.706 114.446C105.199 123.897 104.709 132.978 101.258 141.476C92.635 132.964 86.3113 123.606 82.4532 113.632C78.3222 102.965 75.8381 92.8154 75.0517 83.4293C78.7016 84.6275 82.0554 86.2096 85.0438 88.1571C93.6388 93.7591 99.5832 102.604 102.706 114.451V114.446ZM104.279 160.197C107.942 162.987 111.796 165.6 115.769 168.006C109.918 169.597 103.881 170.296 97.7744 170.078C96.8307 170.046 95.887 169.99 94.9387 169.912C98.4174 166.914 101.545 163.662 104.274 160.197H104.279ZM114.511 111.333C110.588 96.4653 102.914 85.2242 91.7052 77.9244C86.7878 74.7233 81.1857 72.2946 75.0332 70.7079C75.1211 69.6856 75.2321 68.6679 75.3616 67.6687C75.4726 66.8129 75.5883 66.0265 75.7132 65.2909C76.7263 60.059 78.2343 54.8825 80.1865 49.9096C80.9359 48.0037 81.7547 46.1117 82.6244 44.2844L82.6568 44.2196C83.9983 41.5042 85.511 38.761 87.292 35.8281L87.9905 34.6763L87.9674 34.6624C92.103 28.1999 97.0574 22.3064 102.724 17.1115L104.912 19.6974C110.015 25.7435 114.812 31.4612 119.174 36.6932C128.986 48.4616 141.707 63.917 146.615 70.7311C156.321 84.1834 160.998 97.9179 160.521 111.564C160.151 122.163 157.015 132.497 151.445 141.444C146.171 149.923 138.825 157.019 130.17 162.015C125.341 159.605 118.328 155.641 110.88 149.872C116.884 137.905 118.11 124.947 114.516 111.333H114.511ZM94.948 152.338C89.4431 159.471 82.8927 164.111 79.0716 166.442C78.4518 166.216 77.8319 165.98 77.2213 165.73L76.7309 165.536C65.4112 160.859 55.8632 152.953 49.1185 142.665C42.2258 132.15 38.8118 119.928 39.2513 107.318C39.5659 98.2787 41.8187 89.642 45.9543 81.6437C48.3552 81.1117 50.8024 80.7787 53.2495 80.6538L53.8832 80.6399C55.1184 80.6121 56.3489 80.6121 57.5193 80.6399C59.2401 80.7185 60.9656 80.8989 62.6633 81.1719C63.2185 92.6628 66.0403 105.06 71.0595 118.032C75.8936 130.517 83.9243 142.05 94.9434 152.333L94.948 152.338Z" fill="white"/>
</g>
<g filter="url(#filter0_d_57_7105)">
<circle cx="177" cy="137" r="45" fill="white"/>
<g clip-path="url(#clip1_57_7105)">
<path fill-rule="evenodd" clip-rule="evenodd" d="M177 110C179.236 110 181.05 111.798 181.05 114.014C181.05 115.76 179.925 117.245 178.352 117.799L178.35 123.5H190.5C192.887 123.5 195.176 124.448 196.864 126.136C198.552 127.824 199.5 130.113 199.5 132.5H200.625C201.222 132.5 201.794 132.737 202.216 133.159C202.638 133.581 202.875 134.153 202.875 134.75V145.879C202.875 146.475 202.638 147.048 202.216 147.469C201.794 147.891 201.222 148.128 200.625 148.128L199.5 148.126V150.5C199.5 152.887 198.552 155.176 196.864 156.864C195.176 158.552 192.887 159.5 190.5 159.5H163.5C161.113 159.5 158.824 158.552 157.136 156.864C155.448 155.176 154.5 152.887 154.5 150.5V148.126H153.375C152.778 148.126 152.206 147.889 151.784 147.467C151.362 147.045 151.125 146.473 151.125 145.876V134.75C151.125 134.153 151.362 133.581 151.784 133.159C152.206 132.737 152.778 132.5 153.375 132.5H154.5C154.5 130.113 155.448 127.824 157.136 126.136C158.824 124.448 161.113 123.5 163.5 123.5H175.65V117.799C174.916 117.543 174.272 117.081 173.796 116.468C173.319 115.855 173.03 115.116 172.964 114.343L172.95 114.014C172.95 111.798 174.764 110 177 110ZM190.5 128H163.5C162.365 128 161.271 128.428 160.439 129.2C159.606 129.972 159.096 131.03 159.011 132.163L159 132.5V150.5C159 151.635 159.428 152.729 160.2 153.561C160.972 154.394 162.03 154.904 163.162 154.989L163.5 155H190.5C191.635 155 192.729 154.572 193.561 153.8C194.394 153.028 194.904 151.97 194.989 150.837L195 150.5V132.5C195 131.365 194.572 130.271 193.8 129.439C193.028 128.606 191.97 128.096 190.837 128.011L190.5 128ZM182.625 146L180.76 150.5H173.27L171.375 146H182.625ZM188.25 134.75V143.75H183.75V134.75H188.25ZM170.25 134.75V143.75H165.75V134.75H170.25Z" fill="#1F1F1F"/>
</g>
</g>
<defs>
<filter id="filter0_d_57_7105" x="126" y="88.0029" width="102" height="102" filterUnits="userSpaceOnUse" color-interpolation-filters="sRGB">
<feFlood flood-opacity="0" result="BackgroundImageFix"/>
<feColorMatrix in="SourceAlpha" type="matrix" values="0 0 0 0 0 0 0 0 0 0 0 0 0 0 0 0 0 0 127 0" result="hardAlpha"/>
<feOffset dy="2.0029"/>
<feGaussianBlur stdDeviation="3"/>
<feComposite in2="hardAlpha" operator="out"/>
<feColorMatrix type="matrix" values="0 0 0 0 0 0 0 0 0 0 0 0 0 0 0 0 0 0 0.3 0"/>
<feBlend mode="normal" in2="BackgroundImageFix" result="effect1_dropShadow_57_7105"/>
<feBlend mode="normal" in="SourceGraphic" in2="effect1_dropShadow_57_7105" result="shape"/>
</filter>
<clipPath id="clip0_57_7105">
<rect width="145.769" height="182.328" fill="white" transform="translate(26.998)"/>
</clipPath>
<clipPath id="clip1_57_7105">
<rect width="54" height="54" fill="white" transform="translate(150 110)"/>
</clipPath>
</defs>
</svg>
