<svg width="338" height="327" viewBox="0 0 338 327" fill="none" xmlns="http://www.w3.org/2000/svg">
<path d="M256.285 254.393C253.521 254.393 251.022 253.749 248.788 252.462C246.592 251.175 244.87 249.395 243.62 247.124C242.371 244.814 241.746 242.24 241.746 239.4C241.746 236.674 242.333 234.175 243.507 231.904C244.718 229.594 246.403 227.777 248.561 226.452C250.719 225.089 253.18 224.407 255.944 224.407C258.783 224.407 261.244 225.032 263.327 226.281C265.447 227.531 267.056 229.272 268.154 231.506C269.252 233.702 269.801 236.239 269.801 239.116C269.801 239.457 269.782 239.798 269.744 240.138C269.706 240.479 269.687 240.668 269.687 240.706H247.993C248.182 243.281 249.11 245.268 250.776 246.669C252.442 248.07 254.335 248.77 256.455 248.77C259.711 248.77 262.21 247.256 263.951 244.227L269.29 246.783C268.04 249.092 266.299 250.947 264.065 252.348C261.869 253.711 259.275 254.393 256.285 254.393ZM263.44 235.936C263.364 235.027 263.062 234.1 262.531 233.153C262.001 232.206 261.169 231.411 260.033 230.768C258.935 230.086 257.553 229.746 255.887 229.746C254.032 229.746 252.423 230.313 251.06 231.449C249.735 232.585 248.826 234.081 248.334 235.936H263.44Z" fill="white"/>
<path d="M228.035 254.393C224.817 254.393 222.148 253.654 220.027 252.178C217.945 250.663 216.468 248.77 215.598 246.499L221.163 244.114C221.807 245.666 222.734 246.84 223.946 247.635C225.195 248.43 226.558 248.827 228.035 248.827C229.587 248.827 230.855 248.543 231.84 247.975C232.824 247.37 233.316 246.593 233.316 245.647C233.316 244.738 232.919 244 232.124 243.432C231.329 242.826 230.022 242.296 228.205 241.842L224.343 240.933C222.223 240.441 220.387 239.532 218.835 238.207C217.32 236.844 216.563 235.084 216.563 232.926C216.563 230.313 217.642 228.25 219.8 226.736C221.958 225.183 224.608 224.407 227.751 224.407C230.363 224.407 232.673 224.956 234.679 226.054C236.724 227.152 238.2 228.742 239.109 230.825L233.6 233.153C233.07 231.979 232.256 231.109 231.158 230.541C230.06 229.973 228.868 229.689 227.581 229.689C226.331 229.689 225.233 229.973 224.287 230.541C223.34 231.071 222.867 231.79 222.867 232.699C222.867 233.494 223.189 234.137 223.832 234.63C224.514 235.122 225.574 235.538 227.013 235.879L231.215 236.901C234.055 237.621 236.175 238.718 237.576 240.195C238.977 241.634 239.677 243.375 239.677 245.42C239.677 247.086 239.166 248.6 238.144 249.963C237.159 251.326 235.777 252.405 233.998 253.2C232.256 253.995 230.269 254.393 228.035 254.393Z" fill="white"/>
<path d="M198.149 254.393C196.143 254.393 194.325 253.995 192.697 253.2C191.107 252.367 189.839 251.231 188.892 249.793C187.984 248.316 187.529 246.65 187.529 244.795C187.529 241.842 188.627 239.514 190.823 237.81C193.057 236.106 195.878 235.254 199.285 235.254C202.276 235.254 204.832 235.765 206.952 236.788V235.595C206.952 233.891 206.27 232.49 204.907 231.392C203.582 230.257 201.973 229.689 200.08 229.689C197.203 229.689 194.893 230.862 193.152 233.21L188.381 229.916C189.706 228.136 191.353 226.774 193.322 225.827C195.329 224.88 197.581 224.407 200.08 224.407C204.207 224.407 207.387 225.448 209.621 227.531C211.893 229.575 213.028 232.472 213.028 236.22V253.484H206.952V250.02H206.611C205.702 251.307 204.548 252.367 203.147 253.2C201.746 253.995 200.08 254.393 198.149 254.393ZM199.171 249.225C200.572 249.225 201.859 248.884 203.033 248.203C204.245 247.483 205.191 246.556 205.873 245.42C206.592 244.246 206.952 242.997 206.952 241.672C204.945 240.574 202.806 240.025 200.534 240.025C198.452 240.025 196.824 240.479 195.65 241.388C194.477 242.296 193.89 243.451 193.89 244.852C193.89 246.139 194.401 247.199 195.423 248.032C196.483 248.827 197.733 249.225 199.171 249.225Z" fill="white"/>
<path d="M171.939 254.393C169.894 254.393 168.058 253.958 166.43 253.087C164.84 252.216 163.648 251.118 162.852 249.793H162.512V253.484H156.605V212.822H162.852V225.032L162.512 228.951H162.852C163.648 227.664 164.84 226.585 166.43 225.714C168.058 224.843 169.894 224.408 171.939 224.408C174.362 224.408 176.596 225.051 178.64 226.338C180.723 227.626 182.37 229.424 183.581 231.734C184.83 234.005 185.455 236.561 185.455 239.4C185.455 242.24 184.83 244.795 183.581 247.067C182.37 249.339 180.723 251.137 178.64 252.462C176.596 253.749 174.362 254.393 171.939 254.393ZM170.86 248.657C172.336 248.657 173.699 248.279 174.949 247.521C176.236 246.764 177.258 245.685 178.016 244.284C178.811 242.846 179.208 241.218 179.208 239.4C179.208 237.583 178.811 235.974 178.016 234.573C177.258 233.134 176.236 232.036 174.949 231.279C173.699 230.522 172.336 230.143 170.86 230.143C169.383 230.143 168.001 230.522 166.714 231.279C165.465 232.036 164.443 233.115 163.648 234.516C162.89 235.917 162.512 237.545 162.512 239.4C162.512 241.255 162.89 242.883 163.648 244.284C164.443 245.685 165.465 246.764 166.714 247.521C168.001 248.279 169.383 248.657 170.86 248.657Z" fill="white"/>
<path d="M139.369 254.393C136.605 254.393 134.106 253.749 131.872 252.462C129.676 251.175 127.954 249.395 126.704 247.124C125.455 244.814 124.83 242.24 124.83 239.4C124.83 236.674 125.417 234.175 126.591 231.904C127.802 229.594 129.487 227.777 131.645 226.452C133.803 225.089 136.264 224.407 139.028 224.407C141.867 224.407 144.328 225.032 146.411 226.281C148.531 227.531 150.14 229.272 151.238 231.506C152.336 233.702 152.885 236.239 152.885 239.116C152.885 239.457 152.866 239.798 152.828 240.138C152.79 240.479 152.771 240.668 152.771 240.706H131.077C131.266 243.281 132.194 245.268 133.86 246.669C135.526 248.07 137.419 248.77 139.539 248.77C142.795 248.77 145.294 247.256 147.035 244.227L152.374 246.783C151.124 249.092 149.383 250.947 147.149 252.348C144.953 253.711 142.359 254.393 139.369 254.393ZM146.524 235.936C146.448 235.027 146.146 234.1 145.615 233.153C145.085 232.206 144.253 231.411 143.117 230.768C142.019 230.086 140.637 229.746 138.971 229.746C137.116 229.746 135.507 230.313 134.144 231.449C132.819 232.585 131.91 234.081 131.418 235.936H146.524Z" fill="white"/>
<path d="M107.494 225.316H113.4V229.519H113.741C114.347 228.08 115.445 226.887 117.035 225.941C118.625 224.957 120.253 224.464 121.919 224.464C123.282 224.464 124.399 224.654 125.27 225.032V231.563C123.982 230.92 122.544 230.598 120.954 230.598C118.909 230.598 117.186 231.393 115.786 232.983C114.423 234.535 113.741 236.447 113.741 238.719V253.484H107.494V225.316Z" fill="white"/>
<path d="M98.5775 220.546C97.4038 220.546 96.4005 220.148 95.5676 219.353C94.7725 218.52 94.375 217.517 94.375 216.343C94.375 215.169 94.7725 214.185 95.5676 213.39C96.4005 212.557 97.4038 212.141 98.5775 212.141C99.7512 212.141 100.736 212.557 101.531 213.39C102.364 214.185 102.78 215.169 102.78 216.343C102.78 217.517 102.364 218.52 101.531 219.353C100.736 220.148 99.7512 220.546 98.5775 220.546ZM95.454 225.316H101.701V253.484H95.454V225.316Z" fill="white"/>
<path d="M67 212.822H91.704V218.898H73.3606V230.597H89.8867V236.617H73.3606V253.484H67V212.822Z" fill="white"/>
<path d="M1.92847 269.099H14.2302C18.4067 269.099 22.0517 269.972 25.1651 271.719C28.2785 273.427 30.6705 275.819 32.3411 278.895C34.0117 281.97 34.847 285.501 34.847 289.488C34.847 293.475 34.0117 297.006 32.3411 300.081C30.6705 303.157 28.2785 305.568 25.1651 307.314C22.0517 309.023 18.4067 309.877 14.2302 309.877H1.92847V269.099ZM14.2302 305.264C19.0522 305.264 22.868 303.878 25.6777 301.106C28.5253 298.335 29.9491 294.462 29.9491 289.488C29.9491 284.514 28.5253 280.641 25.6777 277.87C22.868 275.098 19.0522 273.712 14.2302 273.712H6.71248V305.264H14.2302ZM49.1492 310.788C47.023 310.788 45.1245 310.371 43.4539 309.535C41.7833 308.7 40.4924 307.561 39.5812 306.118C38.6699 304.637 38.2143 302.967 38.2143 301.106C38.2143 298.031 39.3723 295.639 41.6884 293.93C44.0045 292.184 46.928 291.31 50.4591 291.31C52.2056 291.31 53.8193 291.5 55.3001 291.88C56.8188 292.26 57.9768 292.696 58.7742 293.19V291.424C58.7742 289.26 58.0148 287.533 56.4961 286.242C54.9773 284.913 53.0599 284.248 50.7439 284.248C49.1112 284.248 47.6115 284.609 46.2446 285.33C44.8778 286.014 43.7957 286.982 42.9983 288.235L39.3534 285.501C40.4924 283.755 42.0491 282.388 44.0235 281.401C46.0358 280.414 48.2569 279.92 50.6869 279.92C54.6356 279.92 57.73 280.964 59.9702 283.052C62.2483 285.103 63.3873 287.912 63.3873 291.481V309.877H58.7742V305.719H58.5463C57.711 307.124 56.4581 308.32 54.7875 309.307C53.1169 310.295 51.2374 310.788 49.1492 310.788ZM49.6048 306.517C51.2374 306.517 52.7562 306.099 54.161 305.264C55.5658 304.428 56.6859 303.308 57.5212 301.904C58.3565 300.499 58.7742 298.961 58.7742 297.29C57.8629 296.683 56.7429 296.189 55.414 295.81C54.0851 295.43 52.6802 295.24 51.1995 295.24C48.5417 295.24 46.5294 295.791 45.1625 296.892C43.8336 297.993 43.1692 299.417 43.1692 301.163C43.1692 302.758 43.7767 304.049 44.9917 305.036C46.2066 306.023 47.7444 306.517 49.6048 306.517ZM79.5894 310.333C78.4124 310.333 77.3113 310.143 76.2862 309.763C75.299 309.383 74.4637 308.871 73.7802 308.225C73.0209 307.504 72.4514 306.669 72.0717 305.719C71.692 304.77 71.5021 303.612 71.5021 302.245V285.217H66.4334V280.831H71.5021V272.63H76.3431V280.831H83.4052V285.217H76.3431V301.049C76.3431 302.644 76.6469 303.821 77.2543 304.58C77.9757 305.416 79.0199 305.833 80.3867 305.833C81.4878 305.833 82.5509 305.511 83.5761 304.865V309.592C83.0065 309.858 82.418 310.048 81.8105 310.162C81.241 310.276 80.5006 310.333 79.5894 310.333ZM96.8714 310.788C94.7451 310.788 92.8467 310.371 91.1761 309.535C89.5055 308.7 88.2146 307.561 87.3033 306.118C86.3921 304.637 85.9365 302.967 85.9365 301.106C85.9365 298.031 87.0945 295.639 89.4106 293.93C91.7267 292.184 94.6502 291.31 98.1813 291.31C99.9278 291.31 101.541 291.5 103.022 291.88C104.541 292.26 105.699 292.696 106.496 293.19V291.424C106.496 289.26 105.737 287.533 104.218 286.242C102.699 284.913 100.782 284.248 98.466 284.248C96.8334 284.248 95.3336 284.609 93.9668 285.33C92.5999 286.014 91.5178 286.982 90.7205 288.235L87.0755 285.501C88.2146 283.755 89.7713 282.388 91.7456 281.401C93.758 280.414 95.9791 279.92 98.4091 279.92C102.358 279.92 105.452 280.964 107.692 283.052C109.97 285.103 111.109 287.912 111.109 291.481V309.877H106.496V305.719H106.269C105.433 307.124 104.18 308.32 102.51 309.307C100.839 310.295 98.9596 310.788 96.8714 310.788ZM97.327 306.517C98.9596 306.517 100.478 306.099 101.883 305.264C103.288 304.428 104.408 303.308 105.243 301.904C106.079 300.499 106.496 298.961 106.496 297.29C105.585 296.683 104.465 296.189 103.136 295.81C101.807 295.43 100.402 295.24 98.9216 295.24C96.2639 295.24 94.2515 295.791 92.8847 296.892C91.5558 297.993 90.8913 299.417 90.8913 301.163C90.8913 302.758 91.4988 304.049 92.7138 305.036C93.9288 306.023 95.4665 306.517 97.327 306.517ZM147.795 310.788C143.846 310.788 140.258 309.858 137.031 307.998C133.804 306.137 131.26 303.593 129.399 300.366C127.577 297.101 126.666 293.475 126.666 289.488C126.666 285.501 127.577 281.894 129.399 278.667C131.26 275.402 133.804 272.839 137.031 270.978C140.258 269.118 143.846 268.188 147.795 268.188C150.832 268.188 153.604 268.776 156.11 269.953C158.654 271.092 160.856 272.725 162.716 274.851L159.242 278.211C157.686 276.351 155.977 274.984 154.117 274.111C152.294 273.238 150.187 272.801 147.795 272.801C144.833 272.801 142.119 273.503 139.651 274.908C137.183 276.275 135.208 278.23 133.728 280.774C132.285 283.28 131.563 286.185 131.563 289.488C131.563 292.791 132.285 295.715 133.728 298.259C135.208 300.765 137.183 302.72 139.651 304.125C142.119 305.492 144.833 306.175 147.795 306.175C152.731 306.175 156.926 304.144 160.381 300.081L163.912 303.498C162.014 305.738 159.679 307.523 156.907 308.852C154.136 310.143 151.098 310.788 147.795 310.788ZM181.037 310.788C178.189 310.788 175.626 310.105 173.348 308.738C171.07 307.371 169.286 305.511 167.995 303.157C166.742 300.803 166.115 298.202 166.115 295.354C166.115 292.506 166.742 289.906 167.995 287.552C169.286 285.198 171.07 283.337 173.348 281.97C175.626 280.603 178.189 279.92 181.037 279.92C183.885 279.92 186.447 280.603 188.725 281.97C191.004 283.337 192.769 285.198 194.022 287.552C195.313 289.906 195.958 292.506 195.958 295.354C195.958 298.202 195.313 300.803 194.022 303.157C192.769 305.511 191.004 307.371 188.725 308.738C186.447 310.105 183.885 310.788 181.037 310.788ZM181.037 306.403C182.821 306.403 184.473 305.966 185.992 305.093C187.548 304.182 188.782 302.891 189.694 301.22C190.643 299.55 191.117 297.594 191.117 295.354C191.117 293.114 190.643 291.159 189.694 289.488C188.782 287.817 187.548 286.545 185.992 285.672C184.473 284.761 182.821 284.305 181.037 284.305C179.252 284.305 177.582 284.761 176.025 285.672C174.468 286.545 173.215 287.817 172.266 289.488C171.355 291.159 170.899 293.114 170.899 295.354C170.899 297.594 171.355 299.55 172.266 301.22C173.215 302.891 174.468 304.182 176.025 305.093C177.582 305.966 179.252 306.403 181.037 306.403ZM199.885 280.831H204.498V285.103H204.726C205.523 283.66 206.795 282.445 208.541 281.458C210.288 280.433 212.148 279.92 214.123 279.92C217.616 279.92 220.274 280.945 222.096 282.995C223.957 285.008 224.887 287.76 224.887 291.253V309.877H220.046V291.994C220.046 289.298 219.4 287.343 218.109 286.128C216.818 284.913 215.053 284.305 212.813 284.305C211.256 284.305 209.851 284.742 208.598 285.615C207.383 286.488 206.434 287.647 205.751 289.089C205.067 290.494 204.726 291.975 204.726 293.532V309.877H199.885V280.831ZM230.67 280.831H235.283V285.103H235.511C236.308 283.66 237.58 282.445 239.327 281.458C241.073 280.433 242.934 279.92 244.908 279.92C248.401 279.92 251.059 280.945 252.882 282.995C254.742 285.008 255.672 287.76 255.672 291.253V309.877H250.831V291.994C250.831 289.298 250.186 287.343 248.895 286.128C247.604 284.913 245.838 284.305 243.598 284.305C242.042 284.305 240.637 284.742 239.384 285.615C238.169 286.488 237.22 287.647 236.536 289.089C235.853 290.494 235.511 291.975 235.511 293.532V309.877H230.67V280.831ZM274.384 310.788C271.612 310.788 269.125 310.124 266.923 308.795C264.721 307.466 262.993 305.643 261.74 303.327C260.525 300.973 259.918 298.335 259.918 295.411C259.918 292.601 260.487 290.02 261.626 287.665C262.803 285.311 264.455 283.432 266.581 282.027C268.708 280.622 271.175 279.92 273.985 279.92C276.833 279.92 279.301 280.565 281.389 281.856C283.477 283.109 285.072 284.856 286.173 287.096C287.312 289.336 287.882 291.899 287.882 294.785C287.882 295.354 287.825 295.848 287.711 296.265H264.759C264.873 298.467 265.404 300.328 266.353 301.847C267.303 303.365 268.499 304.504 269.941 305.264C271.422 306.023 272.96 306.403 274.555 306.403C278.276 306.403 281.142 304.656 283.154 301.163L287.255 303.157C286.002 305.511 284.294 307.371 282.129 308.738C280.003 310.105 277.421 310.788 274.384 310.788ZM282.756 292.279C282.68 291.064 282.338 289.849 281.731 288.634C281.123 287.419 280.155 286.394 278.826 285.558C277.535 284.723 275.903 284.305 273.928 284.305C271.65 284.305 269.714 285.046 268.119 286.526C266.562 287.969 265.537 289.887 265.044 292.279H282.756ZM305.842 310.788C303.032 310.788 300.507 310.124 298.267 308.795C296.027 307.428 294.281 305.587 293.028 303.27C291.775 300.916 291.148 298.278 291.148 295.354C291.148 292.431 291.775 289.792 293.028 287.438C294.281 285.084 296.027 283.242 298.267 281.913C300.507 280.584 303.032 279.92 305.842 279.92C308.993 279.92 311.632 280.66 313.758 282.141C315.923 283.584 317.46 285.52 318.372 287.95L313.986 289.773C313.265 287.988 312.183 286.64 310.74 285.729C309.335 284.78 307.627 284.305 305.614 284.305C303.906 284.305 302.311 284.78 300.83 285.729C299.349 286.64 298.153 287.931 297.242 289.602C296.369 291.272 295.932 293.19 295.932 295.354C295.932 297.518 296.369 299.436 297.242 301.106C298.153 302.777 299.349 304.087 300.83 305.036C302.311 305.947 303.906 306.403 305.614 306.403C307.664 306.403 309.43 305.928 310.911 304.979C312.392 304.03 313.493 302.682 314.214 300.935L318.542 302.758C317.555 305.15 315.961 307.086 313.758 308.567C311.594 310.048 308.955 310.788 305.842 310.788ZM333.522 310.333C332.345 310.333 331.244 310.143 330.219 309.763C329.231 309.383 328.396 308.871 327.713 308.225C326.953 307.504 326.384 306.669 326.004 305.719C325.624 304.77 325.435 303.612 325.435 302.245V285.217H320.366V280.831H325.435V272.63H330.276V280.831H337.338V285.217H330.276V301.049C330.276 302.644 330.579 303.821 331.187 304.58C331.908 305.416 332.952 305.833 334.319 305.833C335.42 305.833 336.483 305.511 337.508 304.865V309.592C336.939 309.858 336.35 310.048 335.743 310.162C335.173 310.276 334.433 310.333 333.522 310.333Z" fill="white"/>
<path d="M141.196 176.072C148.728 179.103 156.9 180.902 165.48 181.202C177.092 181.607 188.135 179.206 198.006 174.646C186.169 169.995 175.448 163.193 166.298 154.737C160.366 164.234 151.594 171.734 141.196 176.072Z" fill="#FF9100"/>
<path d="M166.298 154.74C145.411 135.423 132.74 107.463 133.811 76.7969C133.846 75.801 133.898 74.8058 133.96 73.8109C130.219 72.8435 126.314 72.2531 122.295 72.1127C116.542 71.9118 110.971 72.6253 105.712 74.1064C100.136 83.8733 96.7714 95.0794 96.3522 107.083C95.2705 138.06 114.017 165.128 141.196 176.074C151.594 171.737 160.366 164.245 166.298 154.74Z" fill="#FFC400"/>
<path d="M166.298 154.739C171.154 146.968 174.099 137.857 174.441 128.041C175.343 102.22 157.985 80.0082 133.96 73.8101C133.899 74.805 133.846 75.8003 133.812 76.7961C132.741 107.462 145.412 135.422 166.298 154.739Z" fill="#FF9100"/>
<path d="M171.755 1.23018C158.072 12.1917 147.268 26.6455 140.731 43.2959C136.988 52.833 134.636 63.0774 133.95 73.8163C157.974 80.0144 175.332 102.226 174.43 128.047C174.088 137.863 171.135 146.965 166.287 154.745C175.437 163.21 186.158 170.003 197.996 174.654C221.757 163.67 238.615 140.036 239.591 112.082C240.224 93.9699 233.265 77.8275 223.432 64.202C213.048 49.7916 171.755 1.23018 171.755 1.23018Z" fill="#DD2C00"/>
<g filter="url(#filter0_d_57_6737)">
<circle cx="244" cy="137" r="45" fill="white"/>
<path fill-rule="evenodd" clip-rule="evenodd" d="M244.519 151.886L233.806 141.174C235.639 137.948 235.18 133.773 232.429 131.022C229.128 127.72 223.774 127.72 220.472 131.022C217.171 134.324 217.171 139.677 220.472 142.979C223.223 145.73 227.398 146.189 230.624 144.356L241.337 155.068C244.546 158.277 248.746 158.301 251.476 156.06C254.221 153.808 254.936 149.716 252.28 146.058L239.26 125.577L239.213 125.514C237.858 123.678 238.42 122.226 239.296 121.504C240.197 120.761 241.833 120.464 243.483 122.114L251.185 129.816C252.064 130.695 253.488 130.695 254.367 129.816C255.246 128.938 255.246 127.513 254.367 126.634L246.665 118.932C243.418 115.685 239.168 115.776 236.432 118.033C233.688 120.296 232.858 124.42 235.544 128.12L248.564 148.601L248.611 148.664C249.998 150.542 249.408 151.937 248.622 152.582C247.805 153.252 246.207 153.575 244.519 151.886ZM223.654 139.797C225.199 141.341 227.703 141.341 229.247 139.797C230.792 138.252 230.792 135.748 229.247 134.204C227.703 132.659 225.199 132.659 223.654 134.204C222.11 135.748 222.11 138.252 223.654 139.797Z" fill="#1F1F1F"/>
<path d="M255.701 131.15C252.47 134.381 252.47 139.619 255.701 142.85C258.932 146.081 264.17 146.081 267.401 142.85C270.632 139.619 270.632 134.381 267.401 131.15C264.17 127.919 258.932 127.919 255.701 131.15Z" fill="#1F1F1F"/>
</g>
<defs>
<filter id="filter0_d_57_6737" x="193" y="88.0029" width="102" height="102" filterUnits="userSpaceOnUse" color-interpolation-filters="sRGB">
<feFlood flood-opacity="0" result="BackgroundImageFix"/>
<feColorMatrix in="SourceAlpha" type="matrix" values="0 0 0 0 0 0 0 0 0 0 0 0 0 0 0 0 0 0 127 0" result="hardAlpha"/>
<feOffset dy="2.0029"/>
<feGaussianBlur stdDeviation="3"/>
<feComposite in2="hardAlpha" operator="out"/>
<feColorMatrix type="matrix" values="0 0 0 0 0 0 0 0 0 0 0 0 0 0 0 0 0 0 0.3 0"/>
<feBlend mode="normal" in2="BackgroundImageFix" result="effect1_dropShadow_57_6737"/>
<feBlend mode="normal" in="SourceGraphic" in2="effect1_dropShadow_57_6737" result="shape"/>
</filter>
</defs>
</svg>
