<svg width="446" height="327" viewBox="0 0 446 327" fill="none" xmlns="http://www.w3.org/2000/svg">
<path d="M311.285 254.393C308.521 254.393 306.022 253.749 303.788 252.462C301.592 251.175 299.87 249.395 298.62 247.124C297.371 244.814 296.746 242.24 296.746 239.4C296.746 236.674 297.333 234.175 298.507 231.904C299.718 229.594 301.403 227.777 303.561 226.452C305.719 225.089 308.18 224.407 310.944 224.407C313.783 224.407 316.244 225.032 318.327 226.281C320.447 227.531 322.056 229.272 323.154 231.506C324.252 233.702 324.801 236.239 324.801 239.116C324.801 239.457 324.782 239.798 324.744 240.138C324.706 240.479 324.687 240.668 324.687 240.706H302.993C303.182 243.281 304.11 245.268 305.776 246.669C307.442 248.07 309.335 248.77 311.455 248.77C314.711 248.77 317.21 247.256 318.951 244.227L324.29 246.783C323.04 249.092 321.299 250.947 319.065 252.348C316.869 253.711 314.275 254.393 311.285 254.393ZM318.44 235.936C318.364 235.027 318.062 234.1 317.531 233.153C317.001 232.206 316.169 231.411 315.033 230.768C313.935 230.086 312.553 229.746 310.887 229.746C309.032 229.746 307.423 230.313 306.06 231.449C304.735 232.585 303.826 234.081 303.334 235.936H318.44Z" fill="white"/>
<path d="M283.035 254.393C279.817 254.393 277.148 253.654 275.027 252.178C272.945 250.663 271.468 248.77 270.598 246.499L276.163 244.114C276.807 245.666 277.734 246.84 278.946 247.635C280.195 248.43 281.558 248.827 283.035 248.827C284.587 248.827 285.855 248.543 286.84 247.975C287.824 247.37 288.316 246.593 288.316 245.647C288.316 244.738 287.919 244 287.124 243.432C286.329 242.826 285.022 242.296 283.205 241.842L279.343 240.933C277.223 240.441 275.387 239.532 273.835 238.207C272.32 236.844 271.563 235.084 271.563 232.926C271.563 230.313 272.642 228.25 274.8 226.736C276.958 225.183 279.608 224.407 282.751 224.407C285.363 224.407 287.673 224.956 289.679 226.054C291.724 227.152 293.2 228.742 294.109 230.825L288.6 233.153C288.07 231.979 287.256 231.109 286.158 230.541C285.06 229.973 283.868 229.689 282.581 229.689C281.331 229.689 280.233 229.973 279.287 230.541C278.34 231.071 277.867 231.79 277.867 232.699C277.867 233.494 278.189 234.137 278.832 234.63C279.514 235.122 280.574 235.538 282.013 235.879L286.215 236.901C289.055 237.621 291.175 238.718 292.576 240.195C293.977 241.634 294.677 243.375 294.677 245.42C294.677 247.086 294.166 248.6 293.144 249.963C292.159 251.326 290.777 252.405 288.998 253.2C287.256 253.995 285.269 254.393 283.035 254.393Z" fill="white"/>
<path d="M253.149 254.393C251.143 254.393 249.325 253.995 247.697 253.2C246.107 252.367 244.839 251.231 243.892 249.793C242.984 248.316 242.529 246.65 242.529 244.795C242.529 241.842 243.627 239.514 245.823 237.81C248.057 236.106 250.878 235.254 254.285 235.254C257.276 235.254 259.832 235.765 261.952 236.788V235.595C261.952 233.891 261.27 232.49 259.907 231.392C258.582 230.257 256.973 229.689 255.08 229.689C252.203 229.689 249.893 230.862 248.152 233.21L243.381 229.916C244.706 228.136 246.353 226.774 248.322 225.827C250.329 224.88 252.581 224.407 255.08 224.407C259.207 224.407 262.387 225.448 264.621 227.531C266.893 229.575 268.028 232.472 268.028 236.22V253.484H261.952V250.02H261.611C260.702 251.307 259.548 252.367 258.147 253.2C256.746 253.995 255.08 254.393 253.149 254.393ZM254.171 249.225C255.572 249.225 256.859 248.884 258.033 248.203C259.245 247.483 260.191 246.556 260.873 245.42C261.592 244.246 261.952 242.997 261.952 241.672C259.945 240.574 257.806 240.025 255.534 240.025C253.452 240.025 251.824 240.479 250.65 241.388C249.477 242.296 248.89 243.451 248.89 244.852C248.89 246.139 249.401 247.199 250.423 248.032C251.483 248.827 252.733 249.225 254.171 249.225Z" fill="white"/>
<path d="M226.939 254.393C224.894 254.393 223.058 253.958 221.43 253.087C219.84 252.216 218.648 251.118 217.852 249.793H217.512V253.484H211.605V212.822H217.852V225.032L217.512 228.951H217.852C218.648 227.664 219.84 226.585 221.43 225.714C223.058 224.843 224.894 224.408 226.939 224.408C229.362 224.408 231.596 225.051 233.64 226.338C235.723 227.626 237.37 229.424 238.581 231.734C239.83 234.005 240.455 236.561 240.455 239.4C240.455 242.24 239.83 244.795 238.581 247.067C237.37 249.339 235.723 251.137 233.64 252.462C231.596 253.749 229.362 254.393 226.939 254.393ZM225.86 248.657C227.336 248.657 228.699 248.279 229.949 247.521C231.236 246.764 232.258 245.685 233.016 244.284C233.811 242.846 234.208 241.218 234.208 239.4C234.208 237.583 233.811 235.974 233.016 234.573C232.258 233.134 231.236 232.036 229.949 231.279C228.699 230.522 227.336 230.143 225.86 230.143C224.383 230.143 223.001 230.522 221.714 231.279C220.465 232.036 219.443 233.115 218.648 234.516C217.89 235.917 217.512 237.545 217.512 239.4C217.512 241.255 217.89 242.883 218.648 244.284C219.443 245.685 220.465 246.764 221.714 247.521C223.001 248.279 224.383 248.657 225.86 248.657Z" fill="white"/>
<path d="M194.369 254.393C191.605 254.393 189.106 253.749 186.872 252.462C184.676 251.175 182.954 249.395 181.704 247.124C180.455 244.814 179.83 242.24 179.83 239.4C179.83 236.674 180.417 234.175 181.591 231.904C182.802 229.594 184.487 227.777 186.645 226.452C188.803 225.089 191.264 224.407 194.028 224.407C196.867 224.407 199.328 225.032 201.411 226.281C203.531 227.531 205.14 229.272 206.238 231.506C207.336 233.702 207.885 236.239 207.885 239.116C207.885 239.457 207.866 239.798 207.828 240.138C207.79 240.479 207.771 240.668 207.771 240.706H186.077C186.266 243.281 187.194 245.268 188.86 246.669C190.526 248.07 192.419 248.77 194.539 248.77C197.795 248.77 200.294 247.256 202.035 244.227L207.374 246.783C206.124 249.092 204.383 250.947 202.149 252.348C199.953 253.711 197.359 254.393 194.369 254.393ZM201.524 235.936C201.448 235.027 201.146 234.1 200.615 233.153C200.085 232.206 199.253 231.411 198.117 230.768C197.019 230.086 195.637 229.746 193.971 229.746C192.116 229.746 190.507 230.313 189.144 231.449C187.819 232.585 186.91 234.081 186.418 235.936H201.524Z" fill="white"/>
<path d="M162.494 225.317H168.4V229.519H168.741C169.347 228.081 170.445 226.888 172.035 225.941C173.625 224.957 175.253 224.465 176.919 224.465C178.282 224.465 179.399 224.654 180.27 225.033V231.564C178.982 230.92 177.544 230.598 175.954 230.598C173.909 230.598 172.186 231.393 170.786 232.983C169.423 234.536 168.741 236.448 168.741 238.719V253.485H162.494V225.317Z" fill="white"/>
<path d="M153.578 220.546C152.404 220.546 151.401 220.148 150.568 219.353C149.773 218.52 149.375 217.517 149.375 216.343C149.375 215.169 149.773 214.185 150.568 213.39C151.401 212.557 152.404 212.141 153.578 212.141C154.751 212.141 155.736 212.557 156.531 213.39C157.364 214.185 157.78 215.169 157.78 216.343C157.78 217.517 157.364 218.52 156.531 219.353C155.736 220.148 154.751 220.546 153.578 220.546ZM150.454 225.316H156.701V253.484H150.454V225.316Z" fill="white"/>
<path d="M122 212.822H146.704V218.899H128.361V230.598H144.887V236.618H128.361V253.484H122V212.822Z" fill="white"/>
<path d="M1.92094 269.099H6.70495V309.877H1.92094V269.099ZM13.7181 280.831H18.3313V285.103H18.5591C19.3564 283.66 20.6284 282.445 22.3749 281.458C24.1214 280.433 25.9819 279.92 27.9562 279.92C31.4493 279.92 34.1071 280.945 35.9296 282.995C37.79 285.008 38.7203 287.76 38.7203 291.253V309.877H33.8793V291.994C33.8793 289.298 33.2338 287.343 31.9429 286.128C30.652 284.913 28.8865 284.305 26.6463 284.305C25.0896 284.305 23.6848 284.742 22.4318 285.615C21.2169 286.488 20.2677 287.647 19.5842 289.089C18.9008 290.494 18.5591 291.975 18.5591 293.532V309.877H13.7181V280.831ZM44.4466 290.228H62.5006V294.215H44.4466V290.228ZM81.2041 269.099H86.6716L102.163 309.877H96.8661L92.7655 298.657H75.1672L71.0666 309.877H65.77L81.2041 269.099ZM91.1139 294.101L85.7034 279.407L84.0518 275.022H83.8239L82.2293 279.407L76.8188 294.101H91.1139ZM105.513 280.831H110.126V285.16H110.354C111.227 283.679 112.537 282.445 114.284 281.458C116.068 280.433 118.062 279.92 120.264 279.92C122.846 279.92 125.2 280.584 127.326 281.913C129.452 283.242 131.123 285.084 132.338 287.438C133.553 289.792 134.16 292.431 134.16 295.354C134.16 298.316 133.553 300.973 132.338 303.327C131.123 305.643 129.452 307.466 127.326 308.795C125.2 310.124 122.846 310.788 120.264 310.788C118.062 310.788 116.068 310.295 114.284 309.307C112.537 308.282 111.227 307.048 110.354 305.606H110.126L110.354 309.592V322.179H105.513V280.831ZM119.694 306.403C121.365 306.403 122.941 305.947 124.421 305.036C125.902 304.125 127.079 302.834 127.952 301.163C128.864 299.455 129.319 297.518 129.319 295.354C129.319 293.19 128.864 291.272 127.952 289.602C127.079 287.893 125.902 286.583 124.421 285.672C122.941 284.761 121.365 284.305 119.694 284.305C118.024 284.305 116.448 284.761 114.967 285.672C113.486 286.583 112.309 287.874 111.436 289.545C110.563 291.216 110.126 293.152 110.126 295.354C110.126 297.556 110.563 299.493 111.436 301.163C112.309 302.834 113.486 304.125 114.967 305.036C116.448 305.947 118.024 306.403 119.694 306.403ZM137.856 280.831H142.469V285.16H142.697C143.57 283.679 144.88 282.445 146.627 281.458C148.411 280.433 150.404 279.92 152.607 279.92C155.188 279.92 157.542 280.584 159.669 281.913C161.795 283.242 163.465 285.084 164.68 287.438C165.895 289.792 166.503 292.431 166.503 295.354C166.503 298.316 165.895 300.973 164.68 303.327C163.465 305.643 161.795 307.466 159.669 308.795C157.542 310.124 155.188 310.788 152.607 310.788C150.404 310.788 148.411 310.295 146.627 309.307C144.88 308.282 143.57 307.048 142.697 305.606H142.469L142.697 309.592V322.179H137.856V280.831ZM152.037 306.403C153.708 306.403 155.283 305.947 156.764 305.036C158.245 304.125 159.422 302.834 160.295 301.163C161.206 299.455 161.662 297.518 161.662 295.354C161.662 293.19 161.206 291.272 160.295 289.602C159.422 287.893 158.245 286.583 156.764 285.672C155.283 284.761 153.708 284.305 152.037 284.305C150.366 284.305 148.791 284.761 147.31 285.672C145.829 286.583 144.652 287.874 143.779 289.545C142.906 291.216 142.469 293.152 142.469 295.354C142.469 297.556 142.906 299.493 143.779 301.163C144.652 302.834 145.829 304.125 147.31 305.036C148.791 305.947 150.366 306.403 152.037 306.403ZM184.049 269.099H191.054L204.039 302.53H204.267L217.252 269.099H224.257V309.877H219.473V283.964L219.701 276.218H219.473L206.146 309.877H202.16L188.833 276.218H188.605L188.833 283.964V309.877H184.049V269.099ZM244.203 310.788C241.431 310.788 238.944 310.124 236.742 308.795C234.54 307.466 232.812 305.643 231.559 303.327C230.344 300.973 229.737 298.335 229.737 295.411C229.737 292.601 230.306 290.02 231.445 287.665C232.622 285.311 234.274 283.432 236.4 282.027C238.526 280.622 240.994 279.92 243.804 279.92C246.652 279.92 249.119 280.565 251.208 281.856C253.296 283.109 254.891 284.856 255.992 287.096C257.131 289.336 257.7 291.899 257.7 294.785C257.7 295.354 257.643 295.848 257.529 296.265H234.578C234.691 298.467 235.223 300.328 236.172 301.847C237.121 303.365 238.317 304.504 239.76 305.264C241.241 306.023 242.779 306.403 244.373 306.403C248.094 306.403 250.961 304.656 252.973 301.163L257.074 303.157C255.821 305.511 254.112 307.371 251.948 308.738C249.822 310.105 247.24 310.788 244.203 310.788ZM252.575 292.279C252.499 291.064 252.157 289.849 251.549 288.634C250.942 287.419 249.974 286.394 248.645 285.558C247.354 284.723 245.721 284.305 243.747 284.305C241.469 284.305 239.532 285.046 237.938 286.526C236.381 287.969 235.356 289.887 234.862 292.279H252.575ZM272.642 310.788C269.529 310.788 266.928 310.067 264.84 308.624C262.752 307.143 261.271 305.264 260.398 302.986L264.726 301.049C265.447 302.796 266.51 304.144 267.915 305.093C269.358 306.042 270.934 306.517 272.642 306.517C274.465 306.517 276.022 306.156 277.312 305.435C278.603 304.675 279.249 303.612 279.249 302.245C279.249 301.03 278.736 300.062 277.711 299.341C276.686 298.581 275.072 297.936 272.87 297.404L269.339 296.493C267.023 295.924 265.125 294.955 263.644 293.589C262.163 292.222 261.423 290.456 261.423 288.292C261.423 286.621 261.916 285.16 262.903 283.907C263.929 282.616 265.276 281.629 266.947 280.945C268.618 280.262 270.421 279.92 272.358 279.92C274.901 279.92 277.161 280.47 279.135 281.572C281.147 282.673 282.571 284.21 283.406 286.185L279.192 288.121C277.901 285.539 275.604 284.248 272.301 284.248C270.706 284.248 269.301 284.628 268.086 285.387C266.909 286.109 266.321 287.039 266.321 288.178C266.321 289.241 266.738 290.114 267.574 290.798C268.409 291.443 269.662 291.975 271.332 292.393L275.547 293.475C278.395 294.196 280.54 295.278 281.983 296.721C283.425 298.126 284.147 299.853 284.147 301.904C284.147 303.688 283.634 305.264 282.609 306.631C281.584 307.96 280.198 308.985 278.451 309.706C276.705 310.427 274.769 310.788 272.642 310.788ZM298.422 310.788C295.309 310.788 292.708 310.067 290.62 308.624C288.531 307.143 287.051 305.264 286.177 302.986L290.506 301.049C291.227 302.796 292.29 304.144 293.695 305.093C295.138 306.042 296.714 306.517 298.422 306.517C300.245 306.517 301.801 306.156 303.092 305.435C304.383 304.675 305.029 303.612 305.029 302.245C305.029 301.03 304.516 300.062 303.491 299.341C302.466 298.581 300.852 297.936 298.65 297.404L295.119 296.493C292.803 295.924 290.904 294.955 289.424 293.589C287.943 292.222 287.203 290.456 287.203 288.292C287.203 286.621 287.696 285.16 288.683 283.907C289.708 282.616 291.056 281.629 292.727 280.945C294.398 280.262 296.201 279.92 298.137 279.92C300.681 279.92 302.94 280.47 304.915 281.572C306.927 282.673 308.351 284.21 309.186 286.185L304.972 288.121C303.681 285.539 301.384 284.248 298.08 284.248C296.486 284.248 295.081 284.628 293.866 285.387C292.689 286.109 292.1 287.039 292.1 288.178C292.1 289.241 292.518 290.114 293.353 290.798C294.189 291.443 295.442 291.975 297.112 292.393L301.327 293.475C304.174 294.196 306.32 295.278 307.762 296.721C309.205 298.126 309.927 299.853 309.927 301.904C309.927 303.688 309.414 305.264 308.389 306.631C307.364 307.96 305.978 308.985 304.231 309.706C302.485 310.427 300.548 310.788 298.422 310.788ZM323.626 310.788C321.5 310.788 319.601 310.371 317.931 309.535C316.26 308.7 314.969 307.561 314.058 306.118C313.147 304.637 312.691 302.967 312.691 301.106C312.691 298.031 313.849 295.639 316.165 293.93C318.481 292.184 321.405 291.31 324.936 291.31C326.682 291.31 328.296 291.5 329.777 291.88C331.295 292.26 332.454 292.696 333.251 293.19V291.424C333.251 289.26 332.492 287.533 330.973 286.242C329.454 284.913 327.537 284.248 325.221 284.248C323.588 284.248 322.088 284.609 320.721 285.33C319.354 286.014 318.272 286.982 317.475 288.235L313.83 285.501C314.969 283.755 316.526 282.388 318.5 281.401C320.512 280.414 322.734 279.92 325.164 279.92C329.112 279.92 332.207 280.964 334.447 283.052C336.725 285.103 337.864 287.912 337.864 291.481V309.877H333.251V305.719H333.023C332.188 307.124 330.935 308.32 329.264 309.307C327.594 310.295 325.714 310.788 323.626 310.788ZM324.082 306.517C325.714 306.517 327.233 306.099 328.638 305.264C330.043 304.428 331.163 303.308 331.998 301.904C332.833 300.499 333.251 298.961 333.251 297.29C332.34 296.683 331.22 296.189 329.891 295.81C328.562 295.43 327.157 295.24 325.676 295.24C323.018 295.24 321.006 295.791 319.639 296.892C318.31 297.993 317.646 299.417 317.646 301.163C317.646 302.758 318.253 304.049 319.468 305.036C320.683 306.023 322.221 306.517 324.082 306.517ZM355.939 323.09C352.522 323.09 349.693 322.293 347.453 320.698C345.251 319.103 343.77 317.186 343.011 314.946L347.396 313.066C348.041 314.737 349.105 316.085 350.585 317.11C352.104 318.173 353.889 318.705 355.939 318.705C358.938 318.705 361.254 317.831 362.887 316.085C364.558 314.338 365.393 311.87 365.393 308.681V305.435H365.165C364.216 306.915 362.868 308.13 361.122 309.08C359.413 309.991 357.458 310.446 355.255 310.446C352.75 310.446 350.452 309.801 348.364 308.51C346.314 307.219 344.681 305.416 343.466 303.1C342.251 300.784 341.644 298.145 341.644 295.183C341.644 292.26 342.251 289.64 343.466 287.324C344.681 284.97 346.314 283.147 348.364 281.856C350.452 280.565 352.75 279.92 355.255 279.92C357.458 279.92 359.413 280.395 361.122 281.344C362.868 282.255 364.216 283.47 365.165 284.989H365.393V280.831H370.006V308.738C370.006 313.408 368.715 316.958 366.133 319.388C363.552 321.856 360.153 323.09 355.939 323.09ZM355.939 306.061C357.685 306.061 359.261 305.625 360.666 304.751C362.109 303.878 363.248 302.625 364.083 300.992C364.956 299.36 365.393 297.423 365.393 295.183C365.393 292.905 364.956 290.95 364.083 289.317C363.248 287.684 362.109 286.451 360.666 285.615C359.261 284.742 357.685 284.305 355.939 284.305C354.192 284.305 352.598 284.742 351.155 285.615C349.712 286.488 348.554 287.741 347.681 289.374C346.845 291.007 346.428 292.943 346.428 295.183C346.428 297.423 346.845 299.379 347.681 301.049C348.554 302.682 349.712 303.935 351.155 304.808C352.598 305.643 354.192 306.061 355.939 306.061ZM378.872 275.478C377.923 275.478 377.107 275.136 376.424 274.453C375.74 273.769 375.398 272.953 375.398 272.004C375.398 271.054 375.74 270.257 376.424 269.612C377.107 268.928 377.923 268.586 378.872 268.586C379.822 268.586 380.638 268.928 381.321 269.612C382.005 270.257 382.347 271.054 382.347 272.004C382.347 272.953 382.005 273.769 381.321 274.453C380.676 275.136 379.86 275.478 378.872 275.478ZM376.48 280.831H381.264V309.877H376.48V280.831ZM387.733 280.831H392.347V285.103H392.574C393.372 283.66 394.644 282.445 396.39 281.458C398.137 280.433 399.997 279.92 401.972 279.92C405.465 279.92 408.122 280.945 409.945 282.995C411.805 285.008 412.736 287.76 412.736 291.253V309.877H407.895V291.994C407.895 289.298 407.249 287.343 405.958 286.128C404.667 284.913 402.902 284.305 400.662 284.305C399.105 284.305 397.7 284.742 396.447 285.615C395.232 286.488 394.283 287.647 393.6 289.089C392.916 290.494 392.574 291.975 392.574 293.532V309.877H387.733V280.831ZM430.998 323.09C427.581 323.09 424.752 322.293 422.512 320.698C420.31 319.103 418.829 317.186 418.07 314.946L422.455 313.066C423.101 314.737 424.164 316.085 425.645 317.11C427.163 318.173 428.948 318.705 430.998 318.705C433.998 318.705 436.314 317.831 437.946 316.085C439.617 314.338 440.452 311.87 440.452 308.681V305.435H440.225C439.275 306.915 437.927 308.13 436.181 309.08C434.472 309.991 432.517 310.446 430.315 310.446C427.809 310.446 425.512 309.801 423.424 308.51C421.373 307.219 419.741 305.416 418.526 303.1C417.311 300.784 416.703 298.145 416.703 295.183C416.703 292.26 417.311 289.64 418.526 287.324C419.741 284.97 421.373 283.147 423.424 281.856C425.512 280.565 427.809 279.92 430.315 279.92C432.517 279.92 434.472 280.395 436.181 281.344C437.927 282.255 439.275 283.47 440.225 284.989H440.452V280.831H445.065V308.738C445.065 313.408 443.775 316.958 441.193 319.388C438.611 321.856 435.213 323.09 430.998 323.09ZM430.998 306.061C432.745 306.061 434.32 305.625 435.725 304.751C437.168 303.878 438.307 302.625 439.142 300.992C440.016 299.36 440.452 297.423 440.452 295.183C440.452 292.905 440.016 290.95 439.142 289.317C438.307 287.684 437.168 286.451 435.725 285.615C434.32 284.742 432.745 284.305 430.998 284.305C429.252 284.305 427.657 284.742 426.214 285.615C424.771 286.488 423.613 287.741 422.74 289.374C421.905 291.007 421.487 292.943 421.487 295.183C421.487 297.423 421.905 299.379 422.74 301.049C423.613 302.682 424.771 303.935 426.214 304.808C427.657 305.643 429.252 306.061 430.998 306.061Z" fill="white"/>
<g clip-path="url(#clip0_57_7383)">
<path d="M278.52 63.5793C274.426 57.8986 265.012 46.2181 250.551 28.866C244.274 21.3396 238.889 14.9511 236.238 11.8147C234.776 10.0846 233.523 8.6043 232.533 7.43393L230.955 5.57429L230.1 4.56583L229.933 4.32065L229.859 4.28827L226.209 0L221.583 3.71003C209.773 13.1701 200.1 25.3642 193.619 38.9553C189.646 47.0415 187.05 54.9473 185.69 63.089C185.334 64.9208 185.029 66.8036 184.774 68.691C183.188 68.5615 181.573 68.4782 179.973 68.4412C179.838 68.432 179.704 68.4273 179.524 68.4227C173.663 68.2192 167.834 68.9177 162.204 70.5044L159.794 71.1798L158.554 73.354C152.744 83.545 149.455 95.1469 149.043 106.902C148.511 122.167 152.67 136.943 161.071 149.632C169.291 162.043 180.902 171.531 194.651 177.068L196.441 177.79L196.982 177.98L197.005 177.97C204.166 180.57 211.684 182.023 219.349 182.286C220.219 182.319 221.084 182.333 221.949 182.333C231.622 182.333 241.04 180.441 249.977 176.698L250.042 176.726L252.42 175.625C264.475 170.051 274.791 161.289 282.253 150.284C289.927 138.964 294.239 125.72 294.72 111.985C295.293 95.5679 289.839 79.2845 278.515 63.5839L278.52 63.5793ZM224.706 114.446C227.199 123.897 226.709 132.978 223.258 141.476C214.635 132.964 208.311 123.606 204.453 113.632C200.322 102.965 197.838 92.8154 197.052 83.4293C200.702 84.6275 204.055 86.2096 207.044 88.1571C215.639 93.7591 221.583 102.604 224.706 114.451V114.446ZM226.279 160.197C229.942 162.987 233.796 165.6 237.769 168.006C231.918 169.597 225.881 170.296 219.774 170.078C218.831 170.046 217.887 169.99 216.939 169.912C220.417 166.914 223.545 163.662 226.274 160.197H226.279ZM236.511 111.333C232.588 96.4653 224.914 85.2242 213.705 77.9244C208.788 74.7233 203.186 72.2946 197.033 70.7079C197.121 69.6856 197.232 68.6679 197.362 67.6687C197.473 66.8129 197.588 66.0265 197.713 65.2909C198.726 60.059 200.234 54.8825 202.187 49.9096C202.936 48.0037 203.755 46.1117 204.624 44.2844L204.657 44.2196C205.998 41.5042 207.511 38.761 209.292 35.8281L209.991 34.6763L209.967 34.6624C214.103 28.1999 219.057 22.3064 224.724 17.1115L226.912 19.6974C232.015 25.7435 236.812 31.4612 241.174 36.6932C250.986 48.4616 263.707 63.917 268.615 70.7311C278.321 84.1834 282.998 97.9179 282.521 111.564C282.151 122.163 279.015 132.497 273.445 141.444C268.171 149.923 260.825 157.019 252.17 162.015C247.341 159.605 240.328 155.641 232.88 149.872C238.884 137.905 240.11 124.947 236.516 111.333H236.511ZM216.948 152.338C211.443 159.471 204.893 164.111 201.072 166.442C200.452 166.216 199.832 165.98 199.221 165.73L198.731 165.536C187.411 160.859 177.863 152.953 171.119 142.665C164.226 132.15 160.812 119.928 161.251 107.318C161.566 98.2787 163.819 89.642 167.954 81.6437C170.355 81.1117 172.802 80.7787 175.249 80.6538L175.883 80.6399C177.118 80.6121 178.349 80.6121 179.519 80.6399C181.24 80.7185 182.966 80.8989 184.663 81.1719C185.218 92.6628 188.04 105.06 193.059 118.032C197.894 130.517 205.924 142.05 216.943 152.333L216.948 152.338Z" fill="white"/>
</g>
<g filter="url(#filter0_d_57_7383)">
<circle cx="299" cy="137" r="45" fill="white"/>
<path fill-rule="evenodd" clip-rule="evenodd" d="M313.428 160.428C312.547 161.309 311.487 161.75 310.25 161.75H287.75C286.512 161.75 285.453 161.309 284.572 160.428C283.691 159.547 283.25 158.487 283.25 157.25V150.5L287.75 148.25V150.5H310.25V123.5H287.75V125.75L283.25 123.5V116.75C283.25 115.513 283.691 114.453 284.572 113.572C285.453 112.691 286.512 112.25 287.75 112.25H310.25C311.487 112.25 312.547 112.691 313.428 113.572C314.309 114.453 314.75 115.513 314.75 116.75V157.25C314.75 158.487 314.309 159.547 313.428 160.428ZM274.25 148.25V139.812L285.618 137L274.25 134.188V125.75L301.25 137L274.25 148.25Z" fill="#1F1F1F"/>
</g>
<defs>
<filter id="filter0_d_57_7383" x="248" y="88.0029" width="102" height="102" filterUnits="userSpaceOnUse" color-interpolation-filters="sRGB">
<feFlood flood-opacity="0" result="BackgroundImageFix"/>
<feColorMatrix in="SourceAlpha" type="matrix" values="0 0 0 0 0 0 0 0 0 0 0 0 0 0 0 0 0 0 127 0" result="hardAlpha"/>
<feOffset dy="2.0029"/>
<feGaussianBlur stdDeviation="3"/>
<feComposite in2="hardAlpha" operator="out"/>
<feColorMatrix type="matrix" values="0 0 0 0 0 0 0 0 0 0 0 0 0 0 0 0 0 0 0.3 0"/>
<feBlend mode="normal" in2="BackgroundImageFix" result="effect1_dropShadow_57_7383"/>
<feBlend mode="normal" in="SourceGraphic" in2="effect1_dropShadow_57_7383" result="shape"/>
</filter>
<clipPath id="clip0_57_7383">
<rect width="145.769" height="182.328" fill="white" transform="translate(148.998)"/>
</clipPath>
</defs>
</svg>
