<svg width="597" height="327" viewBox="0 0 597 327" fill="none" xmlns="http://www.w3.org/2000/svg">
<path d="M386.285 254.393C383.521 254.393 381.022 253.75 378.788 252.462C376.592 251.175 374.87 249.396 373.62 247.124C372.371 244.815 371.746 242.24 371.746 239.4C371.746 236.675 372.333 234.176 373.507 231.904C374.718 229.595 376.403 227.777 378.561 226.452C380.719 225.089 383.18 224.408 385.944 224.408C388.783 224.408 391.244 225.032 393.327 226.282C395.447 227.531 397.056 229.273 398.154 231.507C399.252 233.702 399.801 236.239 399.801 239.117C399.801 239.457 399.782 239.798 399.744 240.139C399.706 240.479 399.687 240.669 399.687 240.707H377.993C378.182 243.281 379.11 245.269 380.776 246.67C382.442 248.071 384.335 248.771 386.455 248.771C389.711 248.771 392.21 247.257 393.951 244.228L399.29 246.783C398.04 249.093 396.299 250.948 394.065 252.349C391.869 253.712 389.275 254.393 386.285 254.393ZM393.44 235.936C393.364 235.028 393.062 234.1 392.531 233.153C392.001 232.207 391.169 231.412 390.033 230.768C388.935 230.087 387.553 229.746 385.887 229.746C384.032 229.746 382.423 230.314 381.06 231.45C379.735 232.586 378.826 234.081 378.334 235.936H393.44Z" fill="#5A5A5A"/>
<path d="M358.035 254.393C354.817 254.393 352.148 253.655 350.027 252.178C347.945 250.664 346.468 248.771 345.598 246.499L351.163 244.114C351.807 245.666 352.734 246.84 353.946 247.635C355.195 248.43 356.558 248.828 358.035 248.828C359.587 248.828 360.855 248.544 361.84 247.976C362.824 247.37 363.316 246.594 363.316 245.647C363.316 244.739 362.919 244.001 362.124 243.433C361.329 242.827 360.022 242.297 358.205 241.842L354.343 240.934C352.223 240.442 350.387 239.533 348.835 238.208C347.32 236.845 346.563 235.084 346.563 232.926C346.563 230.314 347.642 228.251 349.8 226.736C351.958 225.184 354.608 224.408 357.751 224.408C360.363 224.408 362.673 224.957 364.679 226.055C366.724 227.153 368.2 228.743 369.109 230.825L363.6 233.153C363.07 231.98 362.256 231.109 361.158 230.541C360.06 229.973 358.868 229.689 357.581 229.689C356.331 229.689 355.233 229.973 354.287 230.541C353.34 231.071 352.867 231.791 352.867 232.699C352.867 233.494 353.189 234.138 353.832 234.63C354.514 235.122 355.574 235.539 357.013 235.879L361.215 236.902C364.055 237.621 366.175 238.719 367.576 240.196C368.977 241.634 369.677 243.376 369.677 245.42C369.677 247.086 369.166 248.601 368.144 249.964C367.159 251.327 365.777 252.406 363.998 253.201C362.256 253.996 360.269 254.393 358.035 254.393Z" fill="#5A5A5A"/>
<path d="M328.149 254.393C326.143 254.393 324.325 253.996 322.697 253.201C321.107 252.368 319.839 251.232 318.892 249.793C317.984 248.317 317.529 246.651 317.529 244.796C317.529 241.842 318.627 239.514 320.823 237.81C323.057 236.107 325.878 235.255 329.285 235.255C332.276 235.255 334.832 235.766 336.952 236.788V235.595C336.952 233.892 336.27 232.491 334.907 231.393C333.582 230.257 331.973 229.689 330.08 229.689C327.203 229.689 324.893 230.863 323.152 233.21L318.381 229.916C319.706 228.137 321.353 226.774 323.322 225.827C325.329 224.881 327.581 224.408 330.08 224.408C334.207 224.408 337.387 225.449 339.621 227.531C341.893 229.576 343.028 232.472 343.028 236.22V253.485H336.952V250.02H336.611C335.702 251.308 334.548 252.368 333.147 253.201C331.746 253.996 330.08 254.393 328.149 254.393ZM329.171 249.225C330.572 249.225 331.859 248.885 333.033 248.203C334.245 247.484 335.191 246.556 335.873 245.42C336.592 244.247 336.952 242.997 336.952 241.672C334.945 240.574 332.806 240.025 330.534 240.025C328.452 240.025 326.824 240.479 325.65 241.388C324.477 242.297 323.89 243.452 323.89 244.852C323.89 246.14 324.401 247.2 325.423 248.033C326.483 248.828 327.733 249.225 329.171 249.225Z" fill="#5A5A5A"/>
<path d="M301.939 254.393C299.894 254.393 298.058 253.958 296.43 253.087C294.84 252.216 293.648 251.118 292.852 249.793H292.512V253.484H286.605V212.822H292.852V225.032L292.512 228.951H292.852C293.648 227.664 294.84 226.585 296.43 225.714C298.058 224.843 299.894 224.408 301.939 224.408C304.362 224.408 306.596 225.051 308.64 226.338C310.723 227.626 312.37 229.424 313.581 231.734C314.83 234.005 315.455 236.561 315.455 239.4C315.455 242.24 314.83 244.795 313.581 247.067C312.37 249.339 310.723 251.137 308.64 252.462C306.596 253.749 304.362 254.393 301.939 254.393ZM300.86 248.657C302.336 248.657 303.699 248.279 304.949 247.521C306.236 246.764 307.258 245.685 308.016 244.284C308.811 242.846 309.208 241.218 309.208 239.4C309.208 237.583 308.811 235.974 308.016 234.573C307.258 233.134 306.236 232.036 304.949 231.279C303.699 230.522 302.336 230.143 300.86 230.143C299.383 230.143 298.001 230.522 296.714 231.279C295.465 232.036 294.443 233.115 293.648 234.516C292.89 235.917 292.512 237.545 292.512 239.4C292.512 241.255 292.89 242.883 293.648 244.284C294.443 245.685 295.465 246.764 296.714 247.521C298.001 248.279 299.383 248.657 300.86 248.657Z" fill="#5A5A5A"/>
<path d="M269.369 254.393C266.605 254.393 264.106 253.75 261.872 252.462C259.676 251.175 257.954 249.396 256.704 247.124C255.455 244.815 254.83 242.24 254.83 239.4C254.83 236.675 255.417 234.176 256.591 231.904C257.802 229.595 259.487 227.777 261.645 226.452C263.803 225.089 266.264 224.408 269.028 224.408C271.867 224.408 274.328 225.032 276.411 226.282C278.531 227.531 280.14 229.273 281.238 231.507C282.336 233.702 282.885 236.239 282.885 239.117C282.885 239.457 282.866 239.798 282.828 240.139C282.79 240.479 282.771 240.669 282.771 240.707H261.077C261.266 243.281 262.194 245.269 263.86 246.67C265.526 248.071 267.419 248.771 269.539 248.771C272.795 248.771 275.294 247.257 277.035 244.228L282.374 246.783C281.124 249.093 279.383 250.948 277.149 252.349C274.953 253.712 272.359 254.393 269.369 254.393ZM276.524 235.936C276.448 235.028 276.146 234.1 275.615 233.153C275.085 232.207 274.253 231.412 273.117 230.768C272.019 230.087 270.637 229.746 268.971 229.746C267.116 229.746 265.507 230.314 264.144 231.45C262.819 232.586 261.91 234.081 261.418 235.936H276.524Z" fill="#5A5A5A"/>
<path d="M237.494 225.316H243.4V229.519H243.741C244.347 228.08 245.445 226.888 247.035 225.941C248.625 224.957 250.253 224.465 251.919 224.465C253.282 224.465 254.399 224.654 255.27 225.033V231.563C253.982 230.92 252.544 230.598 250.954 230.598C248.909 230.598 247.186 231.393 245.786 232.983C244.423 234.535 243.741 236.447 243.741 238.719V253.485H237.494V225.316Z" fill="#5A5A5A"/>
<path d="M228.578 220.546C227.404 220.546 226.401 220.148 225.568 219.353C224.773 218.52 224.375 217.517 224.375 216.343C224.375 215.17 224.773 214.185 225.568 213.39C226.401 212.557 227.404 212.141 228.578 212.141C229.751 212.141 230.736 212.557 231.531 213.39C232.364 214.185 232.78 215.17 232.78 216.343C232.78 217.517 232.364 218.52 231.531 219.353C230.736 220.148 229.751 220.546 228.578 220.546ZM225.454 225.316H231.701V253.485H225.454V225.316Z" fill="#5A5A5A"/>
<path d="M197 212.822H221.704V218.899H203.361V230.598H219.887V236.618H203.361V253.484H197V212.822Z" fill="#5A5A5A"/>
<path d="M0.569046 269.099H14.2946C16.5727 269.099 18.6799 269.611 20.6163 270.636C22.5527 271.662 24.0904 273.104 25.2295 274.965C26.4065 276.787 26.995 278.857 26.995 281.173C26.995 283.489 26.4065 285.577 25.2295 287.437C24.0904 289.26 22.5527 290.684 20.6163 291.709C18.6799 292.734 16.5727 293.247 14.2946 293.247H5.35305V309.877H0.569046V269.099ZM14.4085 288.633C15.9272 288.633 17.2561 288.273 18.3952 287.551C19.5722 286.83 20.4834 285.9 21.1289 284.761C21.7744 283.622 22.0971 282.426 22.0971 281.173C22.0971 279.92 21.7744 278.724 21.1289 277.585C20.4834 276.446 19.5722 275.515 18.3952 274.794C17.2561 274.073 15.9272 273.712 14.4085 273.712H5.35305V288.633H14.4085ZM42.2022 310.788C39.4305 310.788 36.9436 310.124 34.7414 308.795C32.5393 307.466 30.8117 305.643 29.5587 303.327C28.3438 300.973 27.7363 298.334 27.7363 295.411C27.7363 292.601 28.3058 290.019 29.4448 287.665C30.6219 285.311 32.2735 283.432 34.3997 282.027C36.5259 280.622 38.9939 279.92 41.8035 279.92C44.6512 279.92 47.1191 280.565 49.2074 281.856C51.2956 283.109 52.8903 284.856 53.9914 287.096C55.1304 289.336 55.6999 291.899 55.6999 294.784C55.6999 295.354 55.643 295.847 55.5291 296.265H32.5772C32.6911 298.467 33.2227 300.328 34.1719 301.846C35.1211 303.365 36.3171 304.504 37.7599 305.264C39.2407 306.023 40.7784 306.403 42.3731 306.403C46.094 306.403 48.9606 304.656 50.9729 301.163L55.0735 303.156C53.8205 305.51 52.1119 307.371 49.9477 308.738C47.8215 310.105 45.2397 310.788 42.2022 310.788ZM50.5742 292.278C50.4983 291.063 50.1566 289.848 49.5491 288.633C48.9416 287.418 47.9734 286.393 46.6445 285.558C45.3536 284.723 43.7209 284.305 41.7466 284.305C39.4685 284.305 37.5321 285.045 35.9374 286.526C34.3807 287.969 33.3556 289.886 32.862 292.278H50.5742ZM85.0576 285.216H79.6471V280.831H85.0576V277.699C85.0576 275.876 85.4753 274.281 86.3106 272.915C87.1459 271.548 88.2659 270.504 89.6708 269.782C91.0756 269.023 92.6323 268.643 94.3409 268.643C95.9735 268.643 97.3973 268.871 98.6123 269.327V274.054C97.8529 273.75 97.1695 273.522 96.562 273.37C95.9925 273.218 95.309 273.142 94.5117 273.142C93.2208 273.142 92.1197 273.598 91.2085 274.509C90.3352 275.382 89.8986 276.616 89.8986 278.211V280.831H97.3024V285.216H89.8986V309.877H85.0576V285.216ZM60.2263 280.831H64.8395V285.444H65.0673C65.7507 283.736 66.9087 282.407 68.5414 281.457C70.174 280.508 71.9585 280.034 73.8949 280.034C74.7302 280.034 75.4326 280.091 76.0022 280.204V285.159C75.3567 285.007 74.4834 284.932 73.3823 284.932C70.9144 284.932 68.9021 285.748 67.3454 287.38C65.8266 289.013 65.0673 291.139 65.0673 293.759V309.877H60.2263V280.831ZM113.739 310.788C110.892 310.788 108.329 310.105 106.051 308.738C103.773 307.371 101.988 305.51 100.697 303.156C99.4443 300.802 98.8179 298.201 98.8179 295.354C98.8179 292.506 99.4443 289.905 100.697 287.551C101.988 285.197 103.773 283.337 106.051 281.97C108.329 280.603 110.892 279.92 113.739 279.92C116.587 279.92 119.15 280.603 121.428 281.97C123.706 283.337 125.472 285.197 126.725 287.551C128.015 289.905 128.661 292.506 128.661 295.354C128.661 298.201 128.015 300.802 126.725 303.156C125.472 305.51 123.706 307.371 121.428 308.738C119.15 310.105 116.587 310.788 113.739 310.788ZM113.739 306.403C115.524 306.403 117.176 305.966 118.694 305.093C120.251 304.181 121.485 302.891 122.396 301.22C123.345 299.549 123.82 297.594 123.82 295.354C123.82 293.114 123.345 291.158 122.396 289.488C121.485 287.817 120.251 286.545 118.694 285.672C117.176 284.761 115.524 284.305 113.739 284.305C111.955 284.305 110.284 284.761 108.728 285.672C107.171 286.545 105.918 287.817 104.969 289.488C104.057 291.158 103.602 293.114 103.602 295.354C103.602 297.594 104.057 299.549 104.969 301.22C105.918 302.891 107.171 304.181 108.728 305.093C110.284 305.966 111.955 306.403 113.739 306.403ZM132.587 280.831H137.2V285.501H137.428C137.998 283.906 139.099 282.596 140.731 281.571C142.364 280.508 144.073 279.977 145.857 279.977C147.186 279.977 148.325 280.166 149.274 280.546V285.786C148.059 285.178 146.692 284.875 145.174 284.875C143.769 284.875 142.478 285.273 141.301 286.071C140.124 286.868 139.175 287.95 138.453 289.317C137.77 290.646 137.428 292.089 137.428 293.645V309.877H132.587V280.831ZM152.805 280.831H157.418V285.102H157.646C158.481 283.622 159.734 282.388 161.405 281.4C163.076 280.413 164.841 279.92 166.702 279.92C168.828 279.92 170.669 280.432 172.226 281.457C173.821 282.483 174.96 283.849 175.643 285.558C176.668 283.849 178.016 282.483 179.687 281.457C181.395 280.432 183.37 279.92 185.61 279.92C188.951 279.92 191.457 280.945 193.128 282.995C194.836 285.007 195.69 287.76 195.69 291.253V309.877H190.906V291.994C190.906 289.298 190.356 287.343 189.255 286.128C188.154 284.913 186.521 284.305 184.357 284.305C182.914 284.305 181.604 284.723 180.427 285.558C179.25 286.393 178.32 287.513 177.637 288.918C176.991 290.323 176.668 291.842 176.668 293.474V309.877H171.827V292.051C171.827 289.317 171.277 287.343 170.176 286.128C169.075 284.913 167.461 284.305 165.335 284.305C163.892 284.305 162.582 284.742 161.405 285.615C160.228 286.45 159.298 287.589 158.614 289.032C157.969 290.437 157.646 291.956 157.646 293.588V309.877H152.805V280.831ZM210.505 310.788C208.379 310.788 206.48 310.37 204.81 309.535C203.139 308.7 201.848 307.561 200.937 306.118C200.026 304.637 199.57 302.966 199.57 301.106C199.57 298.031 200.728 295.639 203.044 293.93C205.36 292.183 208.284 291.31 211.815 291.31C213.561 291.31 215.175 291.5 216.656 291.88C218.174 292.259 219.332 292.696 220.13 293.19V291.424C220.13 289.26 219.37 287.532 217.852 286.241C216.333 284.913 214.416 284.248 212.099 284.248C210.467 284.248 208.967 284.609 207.6 285.33C206.233 286.014 205.151 286.982 204.354 288.235L200.709 285.501C201.848 283.755 203.405 282.388 205.379 281.4C207.391 280.413 209.613 279.92 212.042 279.92C215.991 279.92 219.086 280.964 221.326 283.052C223.604 285.102 224.743 287.912 224.743 291.481V309.877H220.13V305.719H219.902C219.067 307.124 217.814 308.32 216.143 309.307C214.472 310.294 212.593 310.788 210.505 310.788ZM210.96 306.517C212.593 306.517 214.112 306.099 215.517 305.264C216.921 304.428 218.041 303.308 218.877 301.903C219.712 300.499 220.13 298.961 220.13 297.29C219.219 296.683 218.098 296.189 216.77 295.809C215.441 295.43 214.036 295.24 212.555 295.24C209.897 295.24 207.885 295.79 206.518 296.892C205.189 297.993 204.525 299.416 204.525 301.163C204.525 302.758 205.132 304.049 206.347 305.036C207.562 306.023 209.1 306.517 210.96 306.517ZM230.338 280.831H234.952V285.102H235.179C235.977 283.66 237.249 282.445 238.995 281.457C240.742 280.432 242.602 279.92 244.577 279.92C248.07 279.92 250.727 280.945 252.55 282.995C254.41 285.007 255.341 287.76 255.341 291.253V309.877H250.5V291.994C250.5 289.298 249.854 287.343 248.563 286.128C247.272 284.913 245.507 284.305 243.267 284.305C241.71 284.305 240.305 284.742 239.052 285.615C237.837 286.488 236.888 287.646 236.205 289.089C235.521 290.494 235.179 291.975 235.179 293.531V309.877H230.338V280.831ZM274.28 310.788C271.47 310.788 268.945 310.124 266.705 308.795C264.465 307.428 262.719 305.586 261.466 303.27C260.213 300.916 259.586 298.277 259.586 295.354C259.586 292.43 260.213 289.791 261.466 287.437C262.719 285.083 264.465 283.242 266.705 281.913C268.945 280.584 271.47 279.92 274.28 279.92C277.431 279.92 280.07 280.66 282.196 282.141C284.361 283.584 285.898 285.52 286.81 287.95L282.424 289.772C281.703 287.988 280.621 286.64 279.178 285.729C277.773 284.78 276.064 284.305 274.052 284.305C272.344 284.305 270.749 284.78 269.268 285.729C267.787 286.64 266.591 287.931 265.68 289.602C264.807 291.272 264.37 293.19 264.37 295.354C264.37 297.518 264.807 299.435 265.68 301.106C266.591 302.777 267.787 304.087 269.268 305.036C270.749 305.947 272.344 306.403 274.052 306.403C276.102 306.403 277.868 305.928 279.349 304.979C280.83 304.03 281.931 302.682 282.652 300.935L286.98 302.758C285.993 305.15 284.399 307.086 282.196 308.567C280.032 310.048 277.393 310.788 274.28 310.788ZM303.725 310.788C300.954 310.788 298.467 310.124 296.265 308.795C294.062 307.466 292.335 305.643 291.082 303.327C289.867 300.973 289.259 298.334 289.259 295.411C289.259 292.601 289.829 290.019 290.968 287.665C292.145 285.311 293.797 283.432 295.923 282.027C298.049 280.622 300.517 279.92 303.327 279.92C306.174 279.92 308.642 280.565 310.73 281.856C312.819 283.109 314.413 284.856 315.514 287.096C316.654 289.336 317.223 291.899 317.223 294.784C317.223 295.354 317.166 295.847 317.052 296.265H294.1C294.214 298.467 294.746 300.328 295.695 301.846C296.644 303.365 297.84 304.504 299.283 305.264C300.764 306.023 302.301 306.403 303.896 306.403C307.617 306.403 310.484 304.656 312.496 301.163L316.597 303.156C315.344 305.51 313.635 307.371 311.471 308.738C309.345 310.105 306.763 310.788 303.725 310.788ZM312.097 292.278C312.021 291.063 311.68 289.848 311.072 288.633C310.465 287.418 309.496 286.393 308.168 285.558C306.877 284.723 305.244 284.305 303.27 284.305C300.992 284.305 299.055 285.045 297.461 286.526C295.904 287.969 294.879 289.886 294.385 292.278H312.097ZM334.816 269.099H341.821L354.806 302.53H355.034L368.019 269.099H375.024V309.877H370.24V283.963L370.468 276.218H370.24L356.913 309.877H352.926L339.6 276.218H339.372L339.6 283.963V309.877H334.816V269.099ZM395.425 310.788C392.577 310.788 390.015 310.105 387.736 308.738C385.458 307.371 383.674 305.51 382.383 303.156C381.13 300.802 380.503 298.201 380.503 295.354C380.503 292.506 381.13 289.905 382.383 287.551C383.674 285.197 385.458 283.337 387.736 281.97C390.015 280.603 392.577 279.92 395.425 279.92C398.273 279.92 400.836 280.603 403.114 281.97C405.392 283.337 407.157 285.197 408.41 287.551C409.701 289.905 410.347 292.506 410.347 295.354C410.347 298.201 409.701 300.802 408.41 303.156C407.157 305.51 405.392 307.371 403.114 308.738C400.836 310.105 398.273 310.788 395.425 310.788ZM395.425 306.403C397.21 306.403 398.861 305.966 400.38 305.093C401.937 304.181 403.171 302.891 404.082 301.22C405.031 299.549 405.506 297.594 405.506 295.354C405.506 293.114 405.031 291.158 404.082 289.488C403.171 287.817 401.937 286.545 400.38 285.672C398.861 284.761 397.21 284.305 395.425 284.305C393.641 284.305 391.97 284.761 390.413 285.672C388.857 286.545 387.604 287.817 386.654 289.488C385.743 291.158 385.287 293.114 385.287 295.354C385.287 297.594 385.743 299.549 386.654 301.22C387.604 302.891 388.857 304.181 390.413 305.093C391.97 305.966 393.641 306.403 395.425 306.403ZM414.273 280.831H418.886V285.102H419.114C419.911 283.66 421.183 282.445 422.93 281.457C424.676 280.432 426.536 279.92 428.511 279.92C432.004 279.92 434.662 280.945 436.484 282.995C438.345 285.007 439.275 287.76 439.275 291.253V309.877H434.434V291.994C434.434 289.298 433.788 287.343 432.498 286.128C431.207 284.913 429.441 284.305 427.201 284.305C425.644 284.305 424.239 284.742 422.986 285.615C421.771 286.488 420.822 287.646 420.139 289.089C419.455 290.494 419.114 291.975 419.114 293.531V309.877H414.273V280.831ZM447.906 275.477C446.957 275.477 446.14 275.136 445.457 274.452C444.773 273.769 444.432 272.953 444.432 272.003C444.432 271.054 444.773 270.257 445.457 269.611C446.14 268.928 446.957 268.586 447.906 268.586C448.855 268.586 449.671 268.928 450.355 269.611C451.038 270.257 451.38 271.054 451.38 272.003C451.38 272.953 451.038 273.769 450.355 274.452C449.709 275.136 448.893 275.477 447.906 275.477ZM445.514 280.831H450.298V309.877H445.514V280.831ZM467.651 310.332C466.474 310.332 465.373 310.142 464.348 309.763C463.361 309.383 462.526 308.871 461.842 308.225C461.083 307.504 460.513 306.668 460.134 305.719C459.754 304.77 459.564 303.612 459.564 302.245V285.216H454.495V280.831H459.564V272.63H464.405V280.831H471.467V285.216H464.405V301.049C464.405 302.644 464.709 303.821 465.316 304.58C466.038 305.415 467.082 305.833 468.449 305.833C469.55 305.833 470.613 305.51 471.638 304.865V309.592C471.069 309.858 470.48 310.048 469.873 310.161C469.303 310.275 468.563 310.332 467.651 310.332ZM488.311 310.788C485.463 310.788 482.9 310.105 480.622 308.738C478.344 307.371 476.56 305.51 475.269 303.156C474.016 300.802 473.389 298.201 473.389 295.354C473.389 292.506 474.016 289.905 475.269 287.551C476.56 285.197 478.344 283.337 480.622 281.97C482.9 280.603 485.463 279.92 488.311 279.92C491.159 279.92 493.721 280.603 496 281.97C498.278 283.337 500.043 285.197 501.296 287.551C502.587 289.905 503.232 292.506 503.232 295.354C503.232 298.201 502.587 300.802 501.296 303.156C500.043 305.51 498.278 307.371 496 308.738C493.721 310.105 491.159 310.788 488.311 310.788ZM488.311 306.403C490.095 306.403 491.747 305.966 493.266 305.093C494.823 304.181 496.056 302.891 496.968 301.22C497.917 299.549 498.392 297.594 498.392 295.354C498.392 293.114 497.917 291.158 496.968 289.488C496.056 287.817 494.823 286.545 493.266 285.672C491.747 284.761 490.095 284.305 488.311 284.305C486.526 284.305 484.856 284.761 483.299 285.672C481.742 286.545 480.489 287.817 479.54 289.488C478.629 291.158 478.173 293.114 478.173 295.354C478.173 297.594 478.629 299.549 479.54 301.22C480.489 302.891 481.742 304.181 483.299 305.093C484.856 305.966 486.526 306.403 488.311 306.403ZM507.159 280.831H511.772V285.501H512C512.569 283.906 513.67 282.596 515.303 281.571C516.935 280.508 518.644 279.977 520.429 279.977C521.757 279.977 522.897 280.166 523.846 280.546V285.786C522.631 285.178 521.264 284.875 519.745 284.875C518.34 284.875 517.049 285.273 515.872 286.071C514.695 286.868 513.746 287.95 513.025 289.317C512.341 290.646 512 292.089 512 293.645V309.877H507.159V280.831ZM530.224 275.477C529.275 275.477 528.459 275.136 527.775 274.452C527.092 273.769 526.75 272.953 526.75 272.003C526.75 271.054 527.092 270.257 527.775 269.611C528.459 268.928 529.275 268.586 530.224 268.586C531.174 268.586 531.99 268.928 532.673 269.611C533.357 270.257 533.699 271.054 533.699 272.003C533.699 272.953 533.357 273.769 532.673 274.452C532.028 275.136 531.212 275.477 530.224 275.477ZM527.832 280.831H532.616V309.877H527.832V280.831ZM539.085 280.831H543.699V285.102H543.926C544.724 283.66 545.996 282.445 547.742 281.457C549.489 280.432 551.349 279.92 553.324 279.92C556.817 279.92 559.474 280.945 561.297 282.995C563.157 285.007 564.088 287.76 564.088 291.253V309.877H559.247V291.994C559.247 289.298 558.601 287.343 557.31 286.128C556.019 284.913 554.254 284.305 552.014 284.305C550.457 284.305 549.052 284.742 547.799 285.615C546.584 286.488 545.635 287.646 544.952 289.089C544.268 290.494 543.926 291.975 543.926 293.531V309.877H539.085V280.831ZM582.35 323.09C578.933 323.09 576.104 322.292 573.864 320.698C571.662 319.103 570.181 317.186 569.422 314.945L573.807 313.066C574.453 314.737 575.516 316.085 576.997 317.11C578.515 318.173 580.3 318.704 582.35 318.704C585.35 318.704 587.666 317.831 589.298 316.085C590.969 314.338 591.804 311.87 591.804 308.681V305.434H591.576C590.627 306.915 589.279 308.13 587.533 309.079C585.824 309.991 583.869 310.446 581.667 310.446C579.161 310.446 576.864 309.801 574.775 308.51C572.725 307.219 571.093 305.415 569.878 303.099C568.663 300.783 568.055 298.144 568.055 295.183C568.055 292.259 568.663 289.64 569.878 287.324C571.093 284.969 572.725 283.147 574.775 281.856C576.864 280.565 579.161 279.92 581.667 279.92C583.869 279.92 585.824 280.394 587.533 281.344C589.279 282.255 590.627 283.47 591.576 284.988H591.804V280.831H596.417V308.738C596.417 313.408 595.126 316.958 592.545 319.388C589.963 321.856 586.565 323.09 582.35 323.09ZM582.35 306.061C584.097 306.061 585.672 305.624 587.077 304.751C588.52 303.878 589.659 302.625 590.494 300.992C591.368 299.359 591.804 297.423 591.804 295.183C591.804 292.905 591.368 290.95 590.494 289.317C589.659 287.684 588.52 286.45 587.077 285.615C585.672 284.742 584.097 284.305 582.35 284.305C580.604 284.305 579.009 284.742 577.566 285.615C576.123 286.488 574.965 287.741 574.092 289.374C573.257 291.006 572.839 292.943 572.839 295.183C572.839 297.423 573.257 299.378 574.092 301.049C574.965 302.682 576.123 303.935 577.566 304.808C579.009 305.643 580.604 306.061 582.35 306.061Z" fill="#5A5A5A"/>
<path d="M271.196 176.072C278.728 179.103 286.9 180.902 295.48 181.202C307.092 181.607 318.135 179.206 328.006 174.646C316.169 169.995 305.448 163.193 296.298 154.737C290.366 164.234 281.594 171.734 271.196 176.072Z" fill="#FF9100"/>
<path d="M296.298 154.74C275.411 135.423 262.74 107.463 263.811 76.797C263.846 75.8011 263.898 74.8059 263.96 73.811C260.219 72.8436 256.314 72.2532 252.295 72.1129C246.542 71.912 240.971 72.6254 235.712 74.1065C230.136 83.8734 226.771 95.0795 226.352 107.083C225.27 138.06 244.017 165.128 271.196 176.074C281.594 171.737 290.366 164.245 296.298 154.74Z" fill="#FFC400"/>
<path d="M296.298 154.739C301.154 146.968 304.099 137.857 304.441 128.04C305.343 102.22 287.985 80.008 263.96 73.8099C263.899 74.8048 263.846 75.8 263.812 76.7959C262.741 107.462 275.412 135.421 296.298 154.739Z" fill="#FF9100"/>
<path d="M301.755 1.23018C288.072 12.1917 277.268 26.6455 270.731 43.2959C266.988 52.833 264.636 63.0774 263.95 73.8163C287.974 80.0144 305.332 102.226 304.43 128.047C304.088 137.863 301.135 146.965 296.287 154.745C305.437 163.21 316.158 170.003 327.996 174.654C351.757 163.67 368.615 140.036 369.591 112.082C370.224 93.9699 363.265 77.8275 353.432 64.202C343.048 49.7916 301.755 1.23018 301.755 1.23018Z" fill="#DD2C00"/>
<g filter="url(#filter0_d_57_5888)">
<circle cx="374" cy="137" r="45" fill="white"/>
<path fill-rule="evenodd" clip-rule="evenodd" d="M374 114.5C386.375 114.5 396.5 124.625 396.5 137C396.5 149.375 386.375 159.5 374 159.5C361.625 159.5 351.5 149.375 351.5 137C351.5 124.625 361.625 114.5 374 114.5ZM385.925 150.5C389.525 147.125 392 142.4 392 137C392 127.1 383.9 119 374 119C364.1 119 356 127.1 356 137C356 142.4 358.475 147.125 362.075 150.5C365.225 147.8 369.275 146 374 146C378.725 146 382.775 147.8 385.925 150.5ZM362.75 130.25C364.1 130.25 365 131.15 365 132.5C365 133.85 364.1 134.75 362.75 134.75C361.4 134.75 360.5 133.85 360.5 132.5C360.5 131.15 361.4 130.25 362.75 130.25ZM371.75 125.75C371.75 127.1 370.85 128 369.5 128C368.15 128 367.25 127.1 367.25 125.75C367.25 124.4 368.15 123.5 369.5 123.5C370.85 123.5 371.75 124.4 371.75 125.75ZM385.25 130.25C386.6 130.25 387.5 131.15 387.5 132.5C387.5 133.85 386.6 134.75 385.25 134.75C383.9 134.75 383 133.85 383 132.5C383 131.15 383.9 130.25 385.25 130.25ZM376.603 124.54L376.603 124.54C377.003 123.915 377.703 123.5 378.5 123.5C379.742 123.5 380.75 124.508 380.75 125.75C380.75 125.928 380.729 126.101 380.69 126.267C379.945 130.068 379.933 130.132 378.425 137.809C378.04 139.903 376.206 141.488 374 141.488C371.514 141.488 369.5 139.475 369.5 136.988C369.5 136.066 369.777 135.209 370.252 134.496C374.47 127.883 374.478 127.871 376.603 124.54Z" fill="#1F1F1F"/>
</g>
<defs>
<filter id="filter0_d_57_5888" x="323" y="88.0029" width="102" height="102" filterUnits="userSpaceOnUse" color-interpolation-filters="sRGB">
<feFlood flood-opacity="0" result="BackgroundImageFix"/>
<feColorMatrix in="SourceAlpha" type="matrix" values="0 0 0 0 0 0 0 0 0 0 0 0 0 0 0 0 0 0 127 0" result="hardAlpha"/>
<feOffset dy="2.0029"/>
<feGaussianBlur stdDeviation="3"/>
<feComposite in2="hardAlpha" operator="out"/>
<feColorMatrix type="matrix" values="0 0 0 0 0 0 0 0 0 0 0 0 0 0 0 0 0 0 0.3 0"/>
<feBlend mode="normal" in2="BackgroundImageFix" result="effect1_dropShadow_57_5888"/>
<feBlend mode="normal" in="SourceGraphic" in2="effect1_dropShadow_57_5888" result="shape"/>
</filter>
</defs>
</svg>
