<svg width="399" height="327" viewBox="0 0 399 327" fill="none" xmlns="http://www.w3.org/2000/svg">
<path d="M289.285 254.393C286.521 254.393 284.022 253.749 281.788 252.462C279.592 251.175 277.87 249.395 276.62 247.124C275.371 244.814 274.746 242.24 274.746 239.4C274.746 236.674 275.333 234.175 276.507 231.904C277.718 229.594 279.403 227.777 281.561 226.452C283.719 225.089 286.18 224.407 288.944 224.407C291.783 224.407 294.244 225.032 296.327 226.281C298.447 227.531 300.056 229.272 301.154 231.506C302.252 233.702 302.801 236.239 302.801 239.116C302.801 239.457 302.782 239.798 302.744 240.138C302.706 240.479 302.687 240.668 302.687 240.706H280.993C281.182 243.281 282.11 245.268 283.776 246.669C285.442 248.07 287.335 248.77 289.455 248.77C292.711 248.77 295.21 247.256 296.951 244.227L302.29 246.783C301.04 249.092 299.299 250.947 297.065 252.348C294.869 253.711 292.275 254.393 289.285 254.393ZM296.44 235.936C296.364 235.027 296.062 234.1 295.531 233.153C295.001 232.206 294.169 231.411 293.033 230.768C291.935 230.086 290.553 229.746 288.887 229.746C287.032 229.746 285.423 230.313 284.06 231.449C282.735 232.585 281.826 234.081 281.334 235.936H296.44Z" fill="white"/>
<path d="M261.035 254.393C257.817 254.393 255.148 253.654 253.027 252.178C250.945 250.663 249.468 248.77 248.598 246.499L254.163 244.114C254.807 245.666 255.734 246.84 256.946 247.635C258.195 248.43 259.558 248.827 261.035 248.827C262.587 248.827 263.855 248.543 264.84 247.975C265.824 247.37 266.316 246.593 266.316 245.647C266.316 244.738 265.919 244 265.124 243.432C264.329 242.826 263.022 242.296 261.205 241.842L257.343 240.933C255.223 240.441 253.387 239.532 251.835 238.207C250.32 236.844 249.563 235.084 249.563 232.926C249.563 230.313 250.642 228.25 252.8 226.736C254.958 225.183 257.608 224.407 260.751 224.407C263.363 224.407 265.673 224.956 267.679 226.054C269.724 227.152 271.2 228.742 272.109 230.825L266.6 233.153C266.07 231.979 265.256 231.109 264.158 230.541C263.06 229.973 261.868 229.689 260.581 229.689C259.331 229.689 258.233 229.973 257.287 230.541C256.34 231.071 255.867 231.79 255.867 232.699C255.867 233.494 256.189 234.137 256.832 234.63C257.514 235.122 258.574 235.538 260.013 235.879L264.215 236.901C267.055 237.621 269.175 238.718 270.576 240.195C271.977 241.634 272.677 243.375 272.677 245.42C272.677 247.086 272.166 248.6 271.144 249.963C270.159 251.326 268.777 252.405 266.998 253.2C265.256 253.995 263.269 254.393 261.035 254.393Z" fill="white"/>
<path d="M231.149 254.393C229.143 254.393 227.325 253.995 225.697 253.2C224.107 252.367 222.839 251.231 221.892 249.793C220.984 248.316 220.529 246.65 220.529 244.795C220.529 241.842 221.627 239.514 223.823 237.81C226.057 236.106 228.878 235.254 232.285 235.254C235.276 235.254 237.832 235.765 239.952 236.788V235.595C239.952 233.891 239.27 232.49 237.907 231.392C236.582 230.257 234.973 229.689 233.08 229.689C230.203 229.689 227.893 230.862 226.152 233.21L221.381 229.916C222.706 228.136 224.353 226.774 226.322 225.827C228.329 224.88 230.581 224.407 233.08 224.407C237.207 224.407 240.387 225.448 242.621 227.531C244.893 229.575 246.028 232.472 246.028 236.22V253.484H239.952V250.02H239.611C238.702 251.307 237.548 252.367 236.147 253.2C234.746 253.995 233.08 254.393 231.149 254.393ZM232.171 249.225C233.572 249.225 234.859 248.884 236.033 248.203C237.245 247.483 238.191 246.556 238.873 245.42C239.592 244.246 239.952 242.997 239.952 241.672C237.945 240.574 235.806 240.025 233.534 240.025C231.452 240.025 229.824 240.479 228.65 241.388C227.477 242.296 226.89 243.451 226.89 244.852C226.89 246.139 227.401 247.199 228.423 248.032C229.483 248.827 230.733 249.225 232.171 249.225Z" fill="white"/>
<path d="M204.939 254.393C202.894 254.393 201.058 253.958 199.43 253.087C197.84 252.216 196.648 251.118 195.852 249.793H195.512V253.484H189.605V212.822H195.852V225.032L195.512 228.951H195.852C196.648 227.664 197.84 226.585 199.43 225.714C201.058 224.843 202.894 224.408 204.939 224.408C207.362 224.408 209.596 225.051 211.64 226.338C213.723 227.626 215.37 229.424 216.581 231.734C217.83 234.005 218.455 236.561 218.455 239.4C218.455 242.24 217.83 244.795 216.581 247.067C215.37 249.339 213.723 251.137 211.64 252.462C209.596 253.749 207.362 254.393 204.939 254.393ZM203.86 248.657C205.336 248.657 206.699 248.279 207.949 247.521C209.236 246.764 210.258 245.685 211.016 244.284C211.811 242.846 212.208 241.218 212.208 239.4C212.208 237.583 211.811 235.974 211.016 234.573C210.258 233.134 209.236 232.036 207.949 231.279C206.699 230.522 205.336 230.143 203.86 230.143C202.383 230.143 201.001 230.522 199.714 231.279C198.465 232.036 197.443 233.115 196.648 234.516C195.89 235.917 195.512 237.545 195.512 239.4C195.512 241.255 195.89 242.883 196.648 244.284C197.443 245.685 198.465 246.764 199.714 247.521C201.001 248.279 202.383 248.657 203.86 248.657Z" fill="white"/>
<path d="M172.369 254.393C169.605 254.393 167.106 253.749 164.872 252.462C162.676 251.175 160.954 249.395 159.704 247.124C158.455 244.814 157.83 242.24 157.83 239.4C157.83 236.674 158.417 234.175 159.591 231.904C160.802 229.594 162.487 227.777 164.645 226.452C166.803 225.089 169.264 224.407 172.028 224.407C174.867 224.407 177.328 225.032 179.411 226.281C181.531 227.531 183.14 229.272 184.238 231.506C185.336 233.702 185.885 236.239 185.885 239.116C185.885 239.457 185.866 239.798 185.828 240.138C185.79 240.479 185.771 240.668 185.771 240.706H164.077C164.266 243.281 165.194 245.268 166.86 246.669C168.526 248.07 170.419 248.77 172.539 248.77C175.795 248.77 178.294 247.256 180.035 244.227L185.374 246.783C184.124 249.092 182.383 250.947 180.149 252.348C177.953 253.711 175.359 254.393 172.369 254.393ZM179.524 235.936C179.448 235.027 179.146 234.1 178.615 233.153C178.085 232.206 177.253 231.411 176.117 230.768C175.019 230.086 173.637 229.746 171.971 229.746C170.116 229.746 168.507 230.313 167.144 231.449C165.819 232.585 164.91 234.081 164.418 235.936H179.524Z" fill="white"/>
<path d="M140.494 225.317H146.4V229.519H146.741C147.347 228.081 148.445 226.888 150.035 225.941C151.625 224.957 153.253 224.465 154.919 224.465C156.282 224.465 157.399 224.654 158.27 225.033V231.564C156.982 230.92 155.544 230.598 153.954 230.598C151.909 230.598 150.186 231.393 148.786 232.983C147.423 234.536 146.741 236.448 146.741 238.719V253.485H140.494V225.317Z" fill="white"/>
<path d="M131.578 220.546C130.404 220.546 129.401 220.148 128.568 219.353C127.773 218.52 127.375 217.517 127.375 216.343C127.375 215.169 127.773 214.185 128.568 213.39C129.401 212.557 130.404 212.141 131.578 212.141C132.751 212.141 133.736 212.557 134.531 213.39C135.364 214.185 135.78 215.169 135.78 216.343C135.78 217.517 135.364 218.52 134.531 219.353C133.736 220.148 132.751 220.546 131.578 220.546ZM128.454 225.316H134.701V253.484H128.454V225.316Z" fill="white"/>
<path d="M100 212.822H124.704V218.899H106.361V230.598H122.887V236.618H106.361V253.484H100V212.822Z" fill="white"/>
<path d="M16.3752 269.099H21.8426L37.3337 309.877H32.0371L27.9366 298.657H10.3382L6.23766 309.877H0.941079L16.3752 269.099ZM26.2849 294.101L20.8744 279.407L19.2228 275.022H18.995L17.4003 279.407L11.9899 294.101H26.2849ZM40.6841 280.831H45.2973V285.16H45.5251C46.3983 283.679 47.7083 282.445 49.4548 281.458C51.2393 280.433 53.2326 279.92 55.4348 279.92C58.0167 279.92 60.3707 280.584 62.4969 281.913C64.6231 283.242 66.2937 285.084 67.5087 287.438C68.7237 289.792 69.3312 292.431 69.3312 295.354C69.3312 298.316 68.7237 300.973 67.5087 303.327C66.2937 305.643 64.6231 307.466 62.4969 308.795C60.3707 310.124 58.0167 310.788 55.4348 310.788C53.2326 310.788 51.2393 310.295 49.4548 309.307C47.7083 308.282 46.3983 307.048 45.5251 305.606H45.2973L45.5251 309.592V322.179H40.6841V280.831ZM54.8653 306.403C56.5359 306.403 58.1116 305.947 59.5923 305.036C61.0731 304.125 62.2501 302.834 63.1234 301.163C64.0346 299.455 64.4903 297.518 64.4903 295.354C64.4903 293.19 64.0346 291.272 63.1234 289.602C62.2501 287.893 61.0731 286.583 59.5923 285.672C58.1116 284.761 56.5359 284.305 54.8653 284.305C53.1947 284.305 51.619 284.761 50.1382 285.672C48.6575 286.583 47.4804 287.874 46.6072 289.545C45.7339 291.216 45.2973 293.152 45.2973 295.354C45.2973 297.556 45.7339 299.493 46.6072 301.163C47.4804 302.834 48.6575 304.125 50.1382 305.036C51.619 305.947 53.1947 306.403 54.8653 306.403ZM73.0269 280.831H77.64V285.16H77.8679C78.7411 283.679 80.051 282.445 81.7976 281.458C83.5821 280.433 85.5754 279.92 87.7776 279.92C90.3594 279.92 92.7135 280.584 94.8397 281.913C96.9659 283.242 98.6365 285.084 99.8515 287.438C101.067 289.792 101.674 292.431 101.674 295.354C101.674 298.316 101.067 300.973 99.8515 303.327C98.6365 305.643 96.9659 307.466 94.8397 308.795C92.7135 310.124 90.3594 310.788 87.7776 310.788C85.5754 310.788 83.5821 310.295 81.7976 309.307C80.051 308.282 78.7411 307.048 77.8679 305.606H77.64L77.8679 309.592V322.179H73.0269V280.831ZM87.2081 306.403C88.8787 306.403 90.4544 305.947 91.9351 305.036C93.4159 304.125 94.5929 302.834 95.4662 301.163C96.3774 299.455 96.833 297.518 96.833 295.354C96.833 293.19 96.3774 291.272 95.4662 289.602C94.5929 287.893 93.4159 286.583 91.9351 285.672C90.4544 284.761 88.8787 284.305 87.2081 284.305C85.5375 284.305 83.9618 284.761 82.481 285.672C81.0002 286.583 79.8232 287.874 78.95 289.545C78.0767 291.216 77.64 293.152 77.64 295.354C77.64 297.556 78.0767 299.493 78.95 301.163C79.8232 302.834 81.0002 304.125 82.481 305.036C83.9618 305.947 85.5375 306.403 87.2081 306.403ZM119.22 269.099H131.522C135.698 269.099 139.343 269.972 142.456 271.719C145.57 273.427 147.962 275.819 149.632 278.895C151.303 281.97 152.138 285.501 152.138 289.488C152.138 293.475 151.303 297.006 149.632 300.081C147.962 303.157 145.57 305.568 142.456 307.314C139.343 309.023 135.698 309.877 131.522 309.877H119.22V269.099ZM131.522 305.264C136.344 305.264 140.159 303.878 142.969 301.106C145.817 298.335 147.24 294.462 147.24 289.488C147.24 284.514 145.817 280.641 142.969 277.87C140.159 275.098 136.344 273.712 131.522 273.712H124.004V305.264H131.522ZM160.005 275.478C159.056 275.478 158.239 275.136 157.556 274.453C156.873 273.769 156.531 272.953 156.531 272.004C156.531 271.054 156.873 270.257 157.556 269.612C158.239 268.928 159.056 268.586 160.005 268.586C160.954 268.586 161.77 268.928 162.454 269.612C163.137 270.257 163.479 271.054 163.479 272.004C163.479 272.953 163.137 273.769 162.454 274.453C161.808 275.136 160.992 275.478 160.005 275.478ZM157.613 280.831H162.397V309.877H157.613V280.831ZM179.003 310.788C175.89 310.788 173.289 310.067 171.201 308.624C169.113 307.143 167.632 305.264 166.759 302.986L171.087 301.049C171.808 302.796 172.872 304.144 174.276 305.093C175.719 306.042 177.295 306.517 179.003 306.517C180.826 306.517 182.383 306.156 183.674 305.435C184.964 304.675 185.61 303.612 185.61 302.245C185.61 301.03 185.097 300.062 184.072 299.341C183.047 298.581 181.433 297.936 179.231 297.404L175.7 296.493C173.384 295.924 171.486 294.955 170.005 293.589C168.524 292.222 167.784 290.456 167.784 288.292C167.784 286.621 168.277 285.16 169.265 283.907C170.29 282.616 171.638 281.629 173.308 280.945C174.979 280.262 176.782 279.92 178.719 279.92C181.263 279.92 183.522 280.47 185.496 281.572C187.508 282.673 188.932 284.21 189.767 286.185L185.553 288.121C184.262 285.539 181.965 284.248 178.662 284.248C177.067 284.248 175.662 284.628 174.447 285.387C173.27 286.109 172.682 287.039 172.682 288.178C172.682 289.241 173.099 290.114 173.935 290.798C174.77 291.443 176.023 291.975 177.694 292.393L181.908 293.475C184.756 294.196 186.901 295.278 188.344 296.721C189.786 298.126 190.508 299.853 190.508 301.904C190.508 303.688 189.995 305.264 188.97 306.631C187.945 307.96 186.559 308.985 184.813 309.706C183.066 310.427 181.13 310.788 179.003 310.788ZM205.53 310.333C204.353 310.333 203.252 310.143 202.227 309.763C201.24 309.383 200.405 308.871 199.721 308.225C198.962 307.504 198.392 306.669 198.013 305.719C197.633 304.77 197.443 303.612 197.443 302.245V285.217H192.374V280.831H197.443V272.63H202.284V280.831H209.346V285.217H202.284V301.049C202.284 302.644 202.588 303.821 203.195 304.58C203.917 305.416 204.961 305.833 206.328 305.833C207.429 305.833 208.492 305.511 209.517 304.865V309.592C208.948 309.858 208.359 310.048 207.752 310.162C207.182 310.276 206.442 310.333 205.53 310.333ZM214.085 280.831H218.698V285.501H218.926C219.496 283.907 220.597 282.597 222.229 281.572C223.862 280.508 225.571 279.977 227.355 279.977C228.684 279.977 229.823 280.167 230.772 280.546V285.786C229.557 285.179 228.191 284.875 226.672 284.875C225.267 284.875 223.976 285.273 222.799 286.071C221.622 286.868 220.673 287.95 219.951 289.317C219.268 290.646 218.926 292.089 218.926 293.645V309.877H214.085V280.831ZM237.151 275.478C236.202 275.478 235.385 275.136 234.702 274.453C234.019 273.769 233.677 272.953 233.677 272.004C233.677 271.054 234.019 270.257 234.702 269.612C235.385 268.928 236.202 268.586 237.151 268.586C238.1 268.586 238.917 268.928 239.6 269.612C240.283 270.257 240.625 271.054 240.625 272.004C240.625 272.953 240.283 273.769 239.6 274.453C238.955 275.136 238.138 275.478 237.151 275.478ZM234.759 280.831H239.543V309.877H234.759V280.831ZM260.763 310.788C258.561 310.788 256.567 310.295 254.783 309.307C253.036 308.282 251.726 307.048 250.853 305.606H250.625V309.877H246.012V269.099H250.853V281.116L250.625 285.16H250.853C251.726 283.679 253.036 282.445 254.783 281.458C256.567 280.433 258.561 279.92 260.763 279.92C263.345 279.92 265.699 280.584 267.825 281.913C269.951 283.242 271.622 285.084 272.837 287.438C274.052 289.792 274.659 292.431 274.659 295.354C274.659 298.316 274.052 300.973 272.837 303.327C271.622 305.643 269.951 307.466 267.825 308.795C265.699 310.124 263.345 310.788 260.763 310.788ZM260.193 306.403C261.864 306.403 263.439 305.947 264.92 305.036C266.401 304.125 267.578 302.834 268.451 301.163C269.363 299.455 269.818 297.518 269.818 295.354C269.818 293.19 269.363 291.272 268.451 289.602C267.578 287.893 266.401 286.583 264.92 285.672C263.439 284.761 261.864 284.305 260.193 284.305C258.523 284.305 256.947 284.761 255.466 285.672C253.985 286.583 252.808 287.874 251.935 289.545C251.062 291.216 250.625 293.152 250.625 295.354C250.625 297.556 251.062 299.493 251.935 301.163C252.808 302.834 253.985 304.125 255.466 305.036C256.947 305.947 258.523 306.403 260.193 306.403ZM289.392 310.788C285.898 310.788 283.222 309.763 281.361 307.713C279.539 305.662 278.628 302.796 278.628 299.113V280.831H283.469V298.373C283.469 301.144 284.095 303.176 285.348 304.466C286.601 305.757 288.29 306.403 290.417 306.403C292.049 306.403 293.492 305.966 294.745 305.093C296.036 304.22 297.023 303.081 297.707 301.676C298.428 300.271 298.789 298.79 298.789 297.234V280.831H303.63V309.877H299.017V305.662H298.789C297.991 307.105 296.719 308.32 294.973 309.307C293.226 310.295 291.366 310.788 289.392 310.788ZM321.082 310.333C319.905 310.333 318.804 310.143 317.778 309.763C316.791 309.383 315.956 308.871 315.272 308.225C314.513 307.504 313.944 306.669 313.564 305.719C313.184 304.77 312.994 303.612 312.994 302.245V285.217H307.926V280.831H312.994V272.63H317.835V280.831H324.897V285.217H317.835V301.049C317.835 302.644 318.139 303.821 318.747 304.58C319.468 305.416 320.512 305.833 321.879 305.833C322.98 305.833 324.043 305.511 325.068 304.865V309.592C324.499 309.858 323.91 310.048 323.303 310.162C322.733 310.276 321.993 310.333 321.082 310.333ZM332.762 275.478C331.813 275.478 330.997 275.136 330.313 274.453C329.63 273.769 329.288 272.953 329.288 272.004C329.288 271.054 329.63 270.257 330.313 269.612C330.997 268.928 331.813 268.586 332.762 268.586C333.711 268.586 334.528 268.928 335.211 269.612C335.895 270.257 336.236 271.054 336.236 272.004C336.236 272.953 335.895 273.769 335.211 274.453C334.566 275.136 333.749 275.478 332.762 275.478ZM330.37 280.831H335.154V309.877H330.37V280.831ZM354.729 310.788C351.881 310.788 349.318 310.105 347.04 308.738C344.762 307.371 342.978 305.511 341.687 303.157C340.434 300.803 339.807 298.202 339.807 295.354C339.807 292.506 340.434 289.906 341.687 287.552C342.978 285.198 344.762 283.337 347.04 281.97C349.318 280.603 351.881 279.92 354.729 279.92C357.577 279.92 360.139 280.603 362.418 281.97C364.696 283.337 366.461 285.198 367.714 287.552C369.005 289.906 369.651 292.506 369.651 295.354C369.651 298.202 369.005 300.803 367.714 303.157C366.461 305.511 364.696 307.371 362.418 308.738C360.139 310.105 357.577 310.788 354.729 310.788ZM354.729 306.403C356.513 306.403 358.165 305.966 359.684 305.093C361.241 304.182 362.475 302.891 363.386 301.22C364.335 299.55 364.81 297.594 364.81 295.354C364.81 293.114 364.335 291.159 363.386 289.488C362.475 287.817 361.241 286.545 359.684 285.672C358.165 284.761 356.513 284.305 354.729 284.305C352.944 284.305 351.274 284.761 349.717 285.672C348.16 286.545 346.908 287.817 345.958 289.488C345.047 291.159 344.591 293.114 344.591 295.354C344.591 297.594 345.047 299.55 345.958 301.22C346.908 302.891 348.16 304.182 349.717 305.093C351.274 305.966 352.944 306.403 354.729 306.403ZM373.577 280.831H378.19V285.103H378.418C379.215 283.66 380.487 282.445 382.233 281.458C383.98 280.433 385.84 279.92 387.815 279.92C391.308 279.92 393.966 280.945 395.788 282.995C397.649 285.008 398.579 287.76 398.579 291.253V309.877H393.738V291.994C393.738 289.298 393.092 287.343 391.801 286.128C390.511 284.913 388.745 284.305 386.505 284.305C384.948 284.305 383.543 284.742 382.29 285.615C381.075 286.488 380.126 287.647 379.443 289.089C378.759 290.494 378.418 291.975 378.418 293.532V309.877H373.577V280.831Z" fill="white"/>
<path d="M273.017 99.803V99.7458C273.016 99.7242 273.016 99.7027 273.017 99.6812C271.295 88.4617 266.829 78.1267 260.904 68.8306C260.159 67.6552 259.384 66.4997 258.592 65.3516C258.207 64.795 257.817 64.2434 257.422 63.6967C249.803 53.1207 225.739 24.3674 213.097 9.3757C208.315 3.70257 205.168 0 205.168 0C203.742 1.14308 202.349 2.32259 200.987 3.53856L200.94 3.58079C191.081 12.7989 182.906 23.667 176.782 35.6962L176.762 35.7336C175.583 38.0528 174.482 40.4135 173.458 42.8157C171.091 48.3804 169.166 54.1236 167.703 59.9916C166.815 63.5384 166.096 67.1474 165.546 70.8185C162.521 70.3234 159.465 70.0361 156.4 69.9587C155.82 69.9438 155.241 69.9363 154.661 69.9363C149.653 69.9326 144.66 70.4911 139.776 71.6013C136.787 76.4304 134.38 81.597 132.607 86.9931C130.21 94.296 128.992 101.935 129 109.621C129 144.753 154.025 174.043 187.218 180.616C191.873 181.538 196.607 182.002 201.352 182C202.289 182 203.221 181.98 204.15 181.948C206.589 181.852 208.994 181.64 211.366 181.312C216.892 180.545 222.311 179.139 227.513 177.122C228.899 176.585 230.263 176.006 231.607 175.383C256.448 163.925 273.705 138.787 273.705 109.621C273.695 106.337 273.466 103.057 273.017 99.803ZM177.999 164.856C170.875 161.846 164.404 157.48 158.944 152.002C153.469 146.54 149.105 140.067 146.096 132.942C142.974 125.561 141.374 117.626 141.391 109.611C141.373 101.596 142.974 93.6592 146.096 86.2774C146.593 85.0912 147.13 83.9266 147.708 82.7836C150.004 82.4955 152.317 82.351 154.631 82.3511C157.887 82.3508 161.136 82.6386 164.342 83.211C164.272 84.8287 164.237 86.4613 164.237 88.0988C164.193 118.565 176.202 147.811 197.641 169.451C190.88 169.053 184.236 167.499 177.999 164.856ZM204.579 158.746C203.125 157.2 201.727 155.615 200.384 153.99C193.945 146.237 188.683 137.578 184.769 128.29C179.389 115.572 176.63 101.899 176.658 88.0889C176.658 87.7128 176.658 87.3376 176.658 86.9632C182.812 89.694 188.408 93.541 193.162 98.3095C200.533 105.644 205.637 114.946 207.863 125.105C208.705 128.965 209.128 132.905 209.125 136.856C209.148 144.388 207.606 151.842 204.597 158.746H204.579ZM261.319 111.686C260.94 122.957 257.384 133.892 251.062 143.23C245.925 150.813 239.129 157.127 231.189 161.693L231.11 161.656C229.023 162.852 226.866 163.92 224.651 164.856C221.891 166.024 219.047 166.982 216.143 167.722C215.626 167.854 215.108 167.978 214.588 168.094C214.307 168.159 214.029 168.221 213.748 168.278C213.858 168.079 213.964 167.873 214.069 167.669C214.23 167.359 214.389 167.048 214.543 166.735C216.44 162.941 217.967 158.973 219.104 154.887C220.736 149.021 221.561 142.96 221.556 136.871C221.558 132.441 221.123 128.022 220.257 123.678C215.654 100.653 199.243 81.8964 177.612 73.9794C178.608 66.6557 180.396 59.4619 182.945 52.5244C183.516 50.9721 184.125 49.4306 184.771 47.8998C185.745 45.5938 186.798 43.3325 187.931 41.1159C187.938 41.1049 187.943 41.0932 187.948 41.0812C188.413 40.1145 188.892 39.1628 189.389 38.2135C193.288 30.7861 198.204 23.9388 203.993 17.8692L204.09 17.9861C209.222 24.0742 216.091 32.2646 222.932 40.5171C226.432 44.7415 229.925 48.9833 233.174 52.9716C239.268 60.4538 244.504 67.0439 247.334 70.9577C247.738 71.5193 248.133 72.0784 248.521 72.645C252.585 78.5467 255.725 84.5131 257.854 90.4148C259.207 94.136 260.183 97.9838 260.768 101.9V101.95C261.246 105.172 261.432 108.43 261.324 111.686H261.319Z" fill="white"/>
<g filter="url(#filter0_d_57_8180)">
<circle cx="277" cy="137" r="45" fill="white"/>
<path fill-rule="evenodd" clip-rule="evenodd" d="M262.375 152.75C260.511 152.75 259 151.239 259 149.375C259 147.511 260.511 146 262.375 146H264.625C266.489 146 268 144.489 268 142.625C268 140.761 266.489 139.25 264.625 139.25H260.125C258.261 139.25 256.75 137.739 256.75 135.875C256.75 134.011 258.261 132.5 260.125 132.5H268C269.243 132.5 270.25 131.493 270.25 130.25C270.25 129.007 269.243 128 268 128C266.136 128 264.625 126.489 264.625 124.625C264.625 122.761 266.136 121.25 268 121.25H301.683C303.094 121.25 304.162 122.573 303.919 124.02L299.419 150.795C299.252 151.906 298.306 152.733 297.183 152.75H262.375ZM272.152 148.25H295.297L299.068 125.75H275.875L272.152 148.25ZM292.44 144.875H276.132L278.737 129.125H295.081L292.44 144.875ZM253.375 152.75C251.511 152.75 250 151.239 250 149.375C250 147.511 251.511 146 253.375 146C255.239 146 256.75 147.511 256.75 149.375C256.75 151.239 255.239 152.75 253.375 152.75Z" fill="#1F1F1F"/>
</g>
<defs>
<filter id="filter0_d_57_8180" x="226" y="88.0029" width="102" height="102" filterUnits="userSpaceOnUse" color-interpolation-filters="sRGB">
<feFlood flood-opacity="0" result="BackgroundImageFix"/>
<feColorMatrix in="SourceAlpha" type="matrix" values="0 0 0 0 0 0 0 0 0 0 0 0 0 0 0 0 0 0 127 0" result="hardAlpha"/>
<feOffset dy="2.0029"/>
<feGaussianBlur stdDeviation="3"/>
<feComposite in2="hardAlpha" operator="out"/>
<feColorMatrix type="matrix" values="0 0 0 0 0 0 0 0 0 0 0 0 0 0 0 0 0 0 0.3 0"/>
<feBlend mode="normal" in2="BackgroundImageFix" result="effect1_dropShadow_57_8180"/>
<feBlend mode="normal" in="SourceGraphic" in2="effect1_dropShadow_57_8180" result="shape"/>
</filter>
</defs>
</svg>
