<svg width="228" height="327" viewBox="0 0 228 327" fill="none" xmlns="http://www.w3.org/2000/svg">
<path d="M189.285 254.393C186.521 254.393 184.022 253.75 181.788 252.462C179.592 251.175 177.87 249.396 176.62 247.124C175.371 244.815 174.746 242.24 174.746 239.4C174.746 236.675 175.333 234.176 176.507 231.904C177.718 229.595 179.403 227.777 181.561 226.452C183.719 225.089 186.18 224.408 188.944 224.408C191.783 224.408 194.244 225.032 196.327 226.282C198.447 227.531 200.056 229.273 201.154 231.507C202.252 233.702 202.801 236.239 202.801 239.117C202.801 239.457 202.782 239.798 202.744 240.139C202.706 240.479 202.687 240.669 202.687 240.707H180.993C181.182 243.281 182.11 245.269 183.776 246.67C185.442 248.071 187.335 248.771 189.455 248.771C192.711 248.771 195.21 247.257 196.951 244.228L202.29 246.783C201.04 249.093 199.299 250.948 197.065 252.349C194.869 253.712 192.275 254.393 189.285 254.393ZM196.44 235.936C196.364 235.028 196.062 234.1 195.531 233.153C195.001 232.207 194.169 231.412 193.033 230.768C191.935 230.087 190.553 229.746 188.887 229.746C187.032 229.746 185.423 230.314 184.06 231.45C182.735 232.586 181.826 234.081 181.334 235.936H196.44Z" fill="#5A5A5A"/>
<path d="M161.035 254.393C157.817 254.393 155.148 253.655 153.027 252.178C150.945 250.664 149.468 248.771 148.598 246.499L154.163 244.114C154.807 245.666 155.734 246.84 156.946 247.635C158.195 248.43 159.558 248.828 161.035 248.828C162.587 248.828 163.855 248.544 164.84 247.976C165.824 247.37 166.316 246.594 166.316 245.647C166.316 244.739 165.919 244.001 165.124 243.433C164.329 242.827 163.022 242.297 161.205 241.842L157.343 240.934C155.223 240.442 153.387 239.533 151.835 238.208C150.32 236.845 149.563 235.084 149.563 232.926C149.563 230.314 150.642 228.251 152.8 226.736C154.958 225.184 157.608 224.408 160.751 224.408C163.363 224.408 165.673 224.957 167.679 226.055C169.724 227.153 171.2 228.743 172.109 230.825L166.6 233.153C166.07 231.98 165.256 231.109 164.158 230.541C163.06 229.973 161.868 229.689 160.581 229.689C159.331 229.689 158.233 229.973 157.287 230.541C156.34 231.071 155.867 231.791 155.867 232.699C155.867 233.494 156.189 234.138 156.832 234.63C157.514 235.122 158.574 235.539 160.013 235.879L164.215 236.902C167.055 237.621 169.175 238.719 170.576 240.196C171.977 241.634 172.677 243.376 172.677 245.42C172.677 247.086 172.166 248.601 171.144 249.964C170.159 251.327 168.777 252.406 166.998 253.201C165.256 253.996 163.269 254.393 161.035 254.393Z" fill="#5A5A5A"/>
<path d="M131.149 254.393C129.143 254.393 127.325 253.996 125.697 253.201C124.107 252.368 122.839 251.232 121.892 249.793C120.984 248.317 120.529 246.651 120.529 244.796C120.529 241.842 121.627 239.514 123.823 237.81C126.057 236.107 128.878 235.255 132.285 235.255C135.276 235.255 137.832 235.766 139.952 236.788V235.595C139.952 233.892 139.27 232.491 137.907 231.393C136.582 230.257 134.973 229.689 133.08 229.689C130.203 229.689 127.893 230.863 126.152 233.21L121.381 229.916C122.706 228.137 124.353 226.774 126.322 225.827C128.329 224.881 130.581 224.408 133.08 224.408C137.207 224.408 140.387 225.449 142.621 227.531C144.893 229.576 146.028 232.472 146.028 236.22V253.485H139.952V250.02H139.611C138.702 251.308 137.548 252.368 136.147 253.201C134.746 253.996 133.08 254.393 131.149 254.393ZM132.171 249.225C133.572 249.225 134.859 248.885 136.033 248.203C137.245 247.484 138.191 246.556 138.873 245.42C139.592 244.247 139.952 242.997 139.952 241.672C137.945 240.574 135.806 240.025 133.534 240.025C131.452 240.025 129.824 240.479 128.65 241.388C127.477 242.297 126.89 243.452 126.89 244.852C126.89 246.14 127.401 247.2 128.423 248.033C129.483 248.828 130.733 249.225 132.171 249.225Z" fill="#5A5A5A"/>
<path d="M104.939 254.393C102.894 254.393 101.058 253.958 99.4303 253.087C97.8401 252.216 96.6475 251.118 95.8524 249.793H95.5117V253.484H89.6055V212.822H95.8524V225.032L95.5117 228.951H95.8524C96.6475 227.664 97.8401 226.585 99.4303 225.714C101.058 224.843 102.894 224.408 104.939 224.408C107.362 224.408 109.596 225.051 111.64 226.338C113.723 227.626 115.37 229.424 116.581 231.734C117.83 234.005 118.455 236.561 118.455 239.4C118.455 242.24 117.83 244.795 116.581 247.067C115.37 249.339 113.723 251.137 111.64 252.462C109.596 253.749 107.362 254.393 104.939 254.393ZM103.86 248.657C105.336 248.657 106.699 248.279 107.949 247.521C109.236 246.764 110.258 245.685 111.016 244.284C111.811 242.846 112.208 241.218 112.208 239.4C112.208 237.583 111.811 235.974 111.016 234.573C110.258 233.134 109.236 232.036 107.949 231.279C106.699 230.522 105.336 230.143 103.86 230.143C102.383 230.143 101.001 230.522 99.7142 231.279C98.4648 232.036 97.4426 233.115 96.6475 234.516C95.8903 235.917 95.5117 237.545 95.5117 239.4C95.5117 241.255 95.8903 242.883 96.6475 244.284C97.4426 245.685 98.4648 246.764 99.7142 247.521C101.001 248.279 102.383 248.657 103.86 248.657Z" fill="#5A5A5A"/>
<path d="M72.3685 254.393C69.6047 254.393 67.1059 253.75 64.8721 252.462C62.6762 251.175 60.9536 249.396 59.7042 247.124C58.4548 244.815 57.8301 242.24 57.8301 239.4C57.8301 236.675 58.4169 234.176 59.5906 231.904C60.8021 229.595 62.4869 227.777 64.645 226.452C66.803 225.089 69.2639 224.408 72.0278 224.408C74.8673 224.408 77.3282 225.032 79.4106 226.282C81.5307 227.531 83.1398 229.273 84.2378 231.507C85.3357 233.702 85.8847 236.239 85.8847 239.117C85.8847 239.457 85.8658 239.798 85.8279 240.139C85.79 240.479 85.7711 240.669 85.7711 240.707H64.0771C64.2664 243.281 65.1939 245.269 66.8598 246.67C68.5257 248.071 70.4187 248.771 72.5389 248.771C75.7949 248.771 78.2937 247.257 80.0353 244.228L85.3736 246.783C84.1242 249.093 82.3826 250.948 80.1488 252.349C77.9529 253.712 75.3595 254.393 72.3685 254.393ZM79.5241 235.936C79.4484 235.028 79.1455 234.1 78.6155 233.153C78.0854 232.207 77.2525 231.412 76.1167 230.768C75.0187 230.087 73.6368 229.746 71.971 229.746C70.1158 229.746 68.5067 230.314 67.1438 231.45C65.8186 232.586 64.91 234.081 64.4178 235.936H79.5241Z" fill="#5A5A5A"/>
<path d="M40.4941 225.316H46.4004V229.519H46.7411C47.3469 228.08 48.4448 226.888 50.035 225.941C51.6251 224.957 53.2531 224.465 54.919 224.465C56.282 224.465 57.3988 224.654 58.2696 225.033V231.563C56.9824 230.92 55.5437 230.598 53.9535 230.598C51.9091 230.598 50.1864 231.393 48.7856 232.983C47.4226 234.535 46.7411 236.447 46.7411 238.719V253.485H40.4941V225.316Z" fill="#5A5A5A"/>
<path d="M31.5775 220.546C30.4038 220.546 29.4005 220.148 28.5676 219.353C27.7725 218.52 27.375 217.517 27.375 216.343C27.375 215.17 27.7725 214.185 28.5676 213.39C29.4005 212.557 30.4038 212.141 31.5775 212.141C32.7512 212.141 33.7356 212.557 34.5306 213.39C35.3636 214.185 35.78 215.17 35.78 216.343C35.78 217.517 35.3636 218.52 34.5306 219.353C33.7356 220.148 32.7512 220.546 31.5775 220.546ZM28.454 225.316H34.701V253.485H28.454V225.316Z" fill="#5A5A5A"/>
<path d="M0 212.822H24.704V218.899H6.36056V230.598H22.8867V236.618H6.36056V253.484H0V212.822Z" fill="#5A5A5A"/>
<path d="M66.9709 269.099H73.976L86.9612 302.53H87.189L100.174 269.099H107.179V309.877H102.395V283.963L102.623 276.218H102.395L89.0685 309.877H85.0818L71.7549 276.218H71.5271L71.7549 283.963V309.877H66.9709V269.099ZM115.165 269.099H119.949V305.264H137.832V309.877H115.165V269.099Z" fill="#5A5A5A"/>
<path d="M74.196 176.071C81.7283 179.103 89.9 180.902 98.4802 181.201C110.092 181.607 121.135 179.206 131.006 174.646C119.169 169.995 108.448 163.193 99.2975 154.737C93.3664 164.233 84.5939 171.734 74.196 176.071Z" fill="#FF9100"/>
<path d="M99.2975 154.74C78.4109 135.423 65.7401 107.463 66.811 76.7969C66.8458 75.8011 66.8984 74.8059 66.9598 73.811C63.2191 72.8435 59.3138 72.2531 55.2949 72.1128C49.5422 71.9119 43.9712 72.6254 38.7116 74.1064C33.1361 83.8733 29.7714 95.0795 29.3522 107.083C28.2705 138.06 47.017 165.128 74.196 176.074C84.5939 171.737 93.3661 164.245 99.2975 154.74Z" fill="#FFC400"/>
<path d="M99.2982 154.739C104.154 146.968 107.099 137.857 107.441 128.04C108.343 102.22 90.9848 80.008 66.9605 73.8099C66.899 74.8048 66.8465 75.8 66.8117 76.7959C65.7408 107.462 78.4116 135.421 99.2982 154.739Z" fill="#FF9100"/>
<path d="M104.755 1.23018C91.0723 12.1917 80.2677 26.6455 73.7306 43.2959C69.9881 52.833 67.6362 63.0774 66.9496 73.8163C90.9739 80.0144 108.332 102.226 107.43 128.047C107.088 137.863 104.135 146.965 99.2873 154.745C108.437 163.21 119.158 170.003 130.996 174.654C154.757 163.67 171.615 140.036 172.591 112.082C173.224 93.9699 166.265 77.8275 156.432 64.202C146.048 49.7916 104.755 1.23018 104.755 1.23018Z" fill="#DD2C00"/>
<g filter="url(#filter0_d_57_5697)">
<circle cx="177" cy="137" r="45" fill="white"/>
<g clip-path="url(#clip0_57_5697)">
<path fill-rule="evenodd" clip-rule="evenodd" d="M177 110C179.236 110 181.05 111.798 181.05 114.014C181.05 115.76 179.925 117.245 178.352 117.799L178.35 123.5H190.5C192.887 123.5 195.176 124.448 196.864 126.136C198.552 127.824 199.5 130.113 199.5 132.5H200.625C201.222 132.5 201.794 132.737 202.216 133.159C202.638 133.581 202.875 134.153 202.875 134.75V145.879C202.875 146.475 202.638 147.048 202.216 147.469C201.794 147.891 201.222 148.128 200.625 148.128L199.5 148.126V150.5C199.5 152.887 198.552 155.176 196.864 156.864C195.176 158.552 192.887 159.5 190.5 159.5H163.5C161.113 159.5 158.824 158.552 157.136 156.864C155.448 155.176 154.5 152.887 154.5 150.5V148.126H153.375C152.778 148.126 152.206 147.889 151.784 147.467C151.362 147.045 151.125 146.473 151.125 145.876V134.75C151.125 134.153 151.362 133.581 151.784 133.159C152.206 132.737 152.778 132.5 153.375 132.5H154.5C154.5 130.113 155.448 127.824 157.136 126.136C158.824 124.448 161.113 123.5 163.5 123.5H175.65V117.799C174.916 117.543 174.272 117.081 173.796 116.468C173.319 115.855 173.03 115.116 172.964 114.343L172.95 114.014C172.95 111.798 174.764 110 177 110ZM190.5 128H163.5C162.365 128 161.271 128.428 160.439 129.2C159.606 129.972 159.096 131.03 159.011 132.163L159 132.5V150.5C159 151.635 159.428 152.729 160.2 153.561C160.972 154.394 162.03 154.904 163.162 154.989L163.5 155H190.5C191.635 155 192.729 154.572 193.561 153.8C194.394 153.028 194.904 151.97 194.989 150.837L195 150.5V132.5C195 131.365 194.572 130.271 193.8 129.439C193.028 128.606 191.97 128.096 190.837 128.011L190.5 128ZM182.625 146L180.76 150.5H173.27L171.375 146H182.625ZM188.25 134.75V143.75H183.75V134.75H188.25ZM170.25 134.75V143.75H165.75V134.75H170.25Z" fill="#1F1F1F"/>
</g>
</g>
<defs>
<filter id="filter0_d_57_5697" x="126" y="88.0029" width="102" height="102" filterUnits="userSpaceOnUse" color-interpolation-filters="sRGB">
<feFlood flood-opacity="0" result="BackgroundImageFix"/>
<feColorMatrix in="SourceAlpha" type="matrix" values="0 0 0 0 0 0 0 0 0 0 0 0 0 0 0 0 0 0 127 0" result="hardAlpha"/>
<feOffset dy="2.0029"/>
<feGaussianBlur stdDeviation="3"/>
<feComposite in2="hardAlpha" operator="out"/>
<feColorMatrix type="matrix" values="0 0 0 0 0 0 0 0 0 0 0 0 0 0 0 0 0 0 0.3 0"/>
<feBlend mode="normal" in2="BackgroundImageFix" result="effect1_dropShadow_57_5697"/>
<feBlend mode="normal" in="SourceGraphic" in2="effect1_dropShadow_57_5697" result="shape"/>
</filter>
<clipPath id="clip0_57_5697">
<rect width="54" height="54" fill="white" transform="translate(150 110)"/>
</clipPath>
</defs>
</svg>
