<svg width="228" height="327" viewBox="0 0 228 327" fill="none" xmlns="http://www.w3.org/2000/svg">
<path d="M189.285 254.393C186.521 254.393 184.022 253.749 181.788 252.462C179.592 251.175 177.87 249.395 176.62 247.124C175.371 244.814 174.746 242.24 174.746 239.4C174.746 236.674 175.333 234.175 176.507 231.904C177.718 229.594 179.403 227.777 181.561 226.452C183.719 225.089 186.18 224.407 188.944 224.407C191.783 224.407 194.244 225.032 196.327 226.281C198.447 227.531 200.056 229.272 201.154 231.506C202.252 233.702 202.801 236.239 202.801 239.116C202.801 239.457 202.782 239.798 202.744 240.138C202.706 240.479 202.687 240.668 202.687 240.706H180.993C181.182 243.281 182.11 245.268 183.776 246.669C185.442 248.07 187.335 248.77 189.455 248.77C192.711 248.77 195.21 247.256 196.951 244.227L202.29 246.783C201.04 249.092 199.299 250.947 197.065 252.348C194.869 253.711 192.275 254.393 189.285 254.393ZM196.44 235.936C196.364 235.027 196.062 234.1 195.531 233.153C195.001 232.206 194.169 231.411 193.033 230.768C191.935 230.086 190.553 229.746 188.887 229.746C187.032 229.746 185.423 230.313 184.06 231.449C182.735 232.585 181.826 234.081 181.334 235.936H196.44Z" fill="white"/>
<path d="M161.035 254.393C157.817 254.393 155.148 253.654 153.027 252.178C150.945 250.663 149.468 248.77 148.598 246.499L154.163 244.114C154.807 245.666 155.734 246.84 156.946 247.635C158.195 248.43 159.558 248.827 161.035 248.827C162.587 248.827 163.855 248.543 164.84 247.975C165.824 247.37 166.316 246.593 166.316 245.647C166.316 244.738 165.919 244 165.124 243.432C164.329 242.826 163.022 242.296 161.205 241.842L157.343 240.933C155.223 240.441 153.387 239.532 151.835 238.207C150.32 236.844 149.563 235.084 149.563 232.926C149.563 230.313 150.642 228.25 152.8 226.736C154.958 225.183 157.608 224.407 160.751 224.407C163.363 224.407 165.673 224.956 167.679 226.054C169.724 227.152 171.2 228.742 172.109 230.825L166.6 233.153C166.07 231.979 165.256 231.109 164.158 230.541C163.06 229.973 161.868 229.689 160.581 229.689C159.331 229.689 158.233 229.973 157.287 230.541C156.34 231.071 155.867 231.79 155.867 232.699C155.867 233.494 156.189 234.137 156.832 234.63C157.514 235.122 158.574 235.538 160.013 235.879L164.215 236.901C167.055 237.621 169.175 238.718 170.576 240.195C171.977 241.634 172.677 243.375 172.677 245.42C172.677 247.086 172.166 248.6 171.144 249.963C170.159 251.326 168.777 252.405 166.998 253.2C165.256 253.995 163.269 254.393 161.035 254.393Z" fill="white"/>
<path d="M131.149 254.393C129.143 254.393 127.325 253.995 125.697 253.2C124.107 252.367 122.839 251.231 121.892 249.793C120.984 248.316 120.529 246.65 120.529 244.795C120.529 241.842 121.627 239.514 123.823 237.81C126.057 236.106 128.878 235.254 132.285 235.254C135.276 235.254 137.832 235.765 139.952 236.788V235.595C139.952 233.891 139.27 232.49 137.907 231.392C136.582 230.257 134.973 229.689 133.08 229.689C130.203 229.689 127.893 230.862 126.152 233.21L121.381 229.916C122.706 228.136 124.353 226.774 126.322 225.827C128.329 224.88 130.581 224.407 133.08 224.407C137.207 224.407 140.387 225.448 142.621 227.531C144.893 229.575 146.028 232.472 146.028 236.22V253.484H139.952V250.02H139.611C138.702 251.307 137.548 252.367 136.147 253.2C134.746 253.995 133.08 254.393 131.149 254.393ZM132.171 249.225C133.572 249.225 134.859 248.884 136.033 248.203C137.245 247.483 138.191 246.556 138.873 245.42C139.592 244.246 139.952 242.997 139.952 241.672C137.945 240.574 135.806 240.025 133.534 240.025C131.452 240.025 129.824 240.479 128.65 241.388C127.477 242.296 126.89 243.451 126.89 244.852C126.89 246.139 127.401 247.199 128.423 248.032C129.483 248.827 130.733 249.225 132.171 249.225Z" fill="white"/>
<path d="M104.939 254.393C102.894 254.393 101.058 253.958 99.4303 253.087C97.8401 252.216 96.6475 251.118 95.8524 249.793H95.5117V253.484H89.6055V212.822H95.8524V225.032L95.5117 228.951H95.8524C96.6475 227.664 97.8401 226.585 99.4303 225.714C101.058 224.843 102.894 224.408 104.939 224.408C107.362 224.408 109.596 225.051 111.64 226.338C113.723 227.626 115.37 229.424 116.581 231.734C117.83 234.005 118.455 236.561 118.455 239.4C118.455 242.24 117.83 244.795 116.581 247.067C115.37 249.339 113.723 251.137 111.64 252.462C109.596 253.749 107.362 254.393 104.939 254.393ZM103.86 248.657C105.336 248.657 106.699 248.279 107.949 247.521C109.236 246.764 110.258 245.685 111.016 244.284C111.811 242.846 112.208 241.218 112.208 239.4C112.208 237.583 111.811 235.974 111.016 234.573C110.258 233.134 109.236 232.036 107.949 231.279C106.699 230.522 105.336 230.143 103.86 230.143C102.383 230.143 101.001 230.522 99.7142 231.279C98.4648 232.036 97.4426 233.115 96.6475 234.516C95.8903 235.917 95.5117 237.545 95.5117 239.4C95.5117 241.255 95.8903 242.883 96.6475 244.284C97.4426 245.685 98.4648 246.764 99.7142 247.521C101.001 248.279 102.383 248.657 103.86 248.657Z" fill="white"/>
<path d="M72.3685 254.393C69.6047 254.393 67.1059 253.749 64.8721 252.462C62.6762 251.175 60.9536 249.395 59.7042 247.124C58.4548 244.814 57.8301 242.24 57.8301 239.4C57.8301 236.674 58.4169 234.175 59.5906 231.904C60.8021 229.594 62.4869 227.777 64.645 226.452C66.803 225.089 69.2639 224.407 72.0278 224.407C74.8673 224.407 77.3282 225.032 79.4106 226.281C81.5307 227.531 83.1398 229.272 84.2378 231.506C85.3357 233.702 85.8847 236.239 85.8847 239.116C85.8847 239.457 85.8658 239.798 85.8279 240.138C85.79 240.479 85.7711 240.668 85.7711 240.706H64.0771C64.2664 243.281 65.1939 245.268 66.8598 246.669C68.5257 248.07 70.4187 248.77 72.5389 248.77C75.7949 248.77 78.2937 247.256 80.0353 244.227L85.3736 246.783C84.1242 249.092 82.3826 250.947 80.1488 252.348C77.9529 253.711 75.3595 254.393 72.3685 254.393ZM79.5241 235.936C79.4484 235.027 79.1455 234.1 78.6155 233.153C78.0854 232.206 77.2525 231.411 76.1167 230.768C75.0187 230.086 73.6368 229.746 71.971 229.746C70.1158 229.746 68.5067 230.313 67.1438 231.449C65.8186 232.585 64.91 234.081 64.4178 235.936H79.5241Z" fill="white"/>
<path d="M40.4941 225.317H46.4004V229.519H46.7411C47.3469 228.081 48.4448 226.888 50.035 225.941C51.6251 224.957 53.2531 224.465 54.919 224.465C56.282 224.465 57.3988 224.654 58.2696 225.033V231.564C56.9824 230.92 55.5437 230.598 53.9535 230.598C51.9091 230.598 50.1864 231.393 48.7856 232.983C47.4226 234.536 46.7411 236.448 46.7411 238.719V253.485H40.4941V225.317Z" fill="white"/>
<path d="M31.5775 220.546C30.4038 220.546 29.4005 220.148 28.5676 219.353C27.7725 218.52 27.375 217.517 27.375 216.343C27.375 215.169 27.7725 214.185 28.5676 213.39C29.4005 212.557 30.4038 212.141 31.5775 212.141C32.7512 212.141 33.7356 212.557 34.5306 213.39C35.3636 214.185 35.78 215.169 35.78 216.343C35.78 217.517 35.3636 218.52 34.5306 219.353C33.7356 220.148 32.7512 220.546 31.5775 220.546ZM28.454 225.316H34.701V253.484H28.454V225.316Z" fill="white"/>
<path d="M0 212.822H24.704V218.899H6.36056V230.598H22.8867V236.618H6.36056V253.484H0V212.822Z" fill="white"/>
<path d="M41.9159 310.788C38.0811 310.788 34.5501 309.858 31.3228 307.998C28.0954 306.137 25.5326 303.574 23.6342 300.309C21.7358 297.044 20.7865 293.437 20.7865 289.488C20.7865 285.539 21.7358 281.932 23.6342 278.667C25.5326 275.402 28.0954 272.839 31.3228 270.978C34.5501 269.118 38.0811 268.188 41.9159 268.188C44.9154 268.188 47.7251 268.719 50.3449 269.782C53.0027 270.846 55.1858 272.345 56.8944 274.282L53.4203 277.756C52.1294 276.161 50.4778 274.946 48.4655 274.111C46.4531 273.238 44.2889 272.801 41.9729 272.801C39.0873 272.801 36.3915 273.503 33.8856 274.908C31.4177 276.275 29.4243 278.23 27.9056 280.774C26.4248 283.28 25.6845 286.185 25.6845 289.488C25.6845 292.791 26.4248 295.715 27.9056 298.259C29.4243 300.765 31.4367 302.72 33.9426 304.125C36.4485 305.492 39.1252 306.175 41.9729 306.175C44.7066 306.175 46.9847 305.757 48.8072 304.922C50.6676 304.049 52.2623 302.91 53.5912 301.505C54.5784 300.442 55.3757 299.17 55.9832 297.689C56.5907 296.17 56.9704 294.5 57.1222 292.677H42.0298V288.178H61.6215C61.8113 289.241 61.9062 290.228 61.9062 291.14C61.9062 293.645 61.5076 296.094 60.7102 298.486C59.9129 300.84 58.641 302.91 56.8944 304.694C53.1356 308.757 48.1427 310.788 41.9159 310.788ZM79.6523 310.788C76.8806 310.788 74.3937 310.124 72.1915 308.795C69.9893 307.466 68.2618 305.643 67.0088 303.327C65.7938 300.973 65.1863 298.335 65.1863 295.411C65.1863 292.601 65.7559 290.02 66.8949 287.665C68.0719 285.311 69.7236 283.432 71.8498 282.027C73.976 280.622 76.444 279.92 79.2536 279.92C82.1012 279.92 84.5692 280.565 86.6574 281.856C88.7457 283.109 90.3404 284.856 91.4414 287.096C92.5805 289.336 93.15 291.899 93.15 294.785C93.15 295.354 93.0931 295.848 92.9792 296.265H70.0273C70.1412 298.467 70.6728 300.328 71.622 301.847C72.5712 303.365 73.7672 304.504 75.21 305.264C76.6907 306.023 78.2285 306.403 79.8231 306.403C83.544 306.403 86.4106 304.656 88.423 301.163L92.5235 303.157C91.2706 305.511 89.562 307.371 87.3978 308.738C85.2716 310.105 82.6897 310.788 79.6523 310.788ZM88.0243 292.279C87.9484 291.064 87.6066 289.849 86.9991 288.634C86.3917 287.419 85.4235 286.394 84.0946 285.558C82.8036 284.723 81.171 284.305 79.1967 284.305C76.9186 284.305 74.9822 285.046 73.3875 286.526C71.8308 287.969 70.8057 289.887 70.3121 292.279H88.0243ZM97.6764 280.831H102.29V285.103H102.517C103.315 283.66 104.587 282.445 106.333 281.458C108.08 280.433 109.94 279.92 111.915 279.92C115.408 279.92 118.065 280.945 119.888 282.995C121.748 285.008 122.679 287.76 122.679 291.253V309.877H117.838V291.994C117.838 289.298 117.192 287.343 115.901 286.128C114.61 284.913 112.845 284.305 110.605 284.305C109.048 284.305 107.643 284.742 106.39 285.615C105.175 286.488 104.226 287.647 103.542 289.089C102.859 290.494 102.517 291.975 102.517 293.532V309.877H97.6764V280.831ZM128.462 269.099H133.303V294.728L146.971 280.831H153.122V281.059L141.732 292.563L153.407 309.649V309.877H147.655L138.315 295.924L133.303 300.935V309.877H128.462V269.099ZM158.925 275.478C157.976 275.478 157.159 275.136 156.476 274.453C155.792 273.769 155.451 272.953 155.451 272.004C155.451 271.054 155.792 270.257 156.476 269.612C157.159 268.928 157.976 268.586 158.925 268.586C159.874 268.586 160.69 268.928 161.374 269.612C162.057 270.257 162.399 271.054 162.399 272.004C162.399 272.953 162.057 273.769 161.374 274.453C160.728 275.136 159.912 275.478 158.925 275.478ZM156.533 280.831H161.317V309.877H156.533V280.831ZM178.67 310.333C177.493 310.333 176.392 310.143 175.367 309.763C174.38 309.383 173.545 308.871 172.861 308.225C172.102 307.504 171.532 306.669 171.153 305.719C170.773 304.77 170.583 303.612 170.583 302.245V285.217H165.514V280.831H170.583V272.63H175.424V280.831H182.486V285.217H175.424V301.049C175.424 302.644 175.728 303.821 176.335 304.58C177.057 305.416 178.101 305.833 179.468 305.833C180.569 305.833 181.632 305.511 182.657 304.865V309.592C182.088 309.858 181.499 310.048 180.892 310.162C180.322 310.276 179.582 310.333 178.67 310.333Z" fill="white"/>
<g clip-path="url(#clip0_57_7143)">
<path d="M156.52 63.5793C152.426 57.8986 143.012 46.2181 128.551 28.866C122.274 21.3396 116.889 14.9511 114.238 11.8147C112.776 10.0846 111.523 8.6043 110.533 7.43393L108.955 5.57429L108.1 4.56583L107.933 4.32065L107.859 4.28827L104.209 0L99.5832 3.71003C87.7731 13.1701 78.1002 25.3642 71.6192 38.9553C67.6455 47.0415 65.0503 54.9473 63.6903 63.089C63.3341 64.9208 63.0288 66.8036 62.7744 68.691C61.1877 68.5615 59.5732 68.4782 57.9726 68.4412C57.8385 68.432 57.7043 68.4273 57.5239 68.4227C51.6628 68.2192 45.8341 68.9177 40.2043 70.5044L37.7941 71.1798L36.5544 73.354C30.7442 83.545 27.4551 95.1469 27.0434 106.902C26.5114 122.167 30.6701 136.943 39.0709 149.632C47.2912 162.043 58.9024 171.531 72.6508 177.068L74.4411 177.79L74.9823 177.98L75.0054 177.97C82.1664 180.57 89.6836 182.023 97.3489 182.286C98.2185 182.319 99.0836 182.333 99.9486 182.333C109.622 182.333 119.04 180.441 127.977 176.698L128.042 176.726L130.42 175.625C142.475 170.051 152.791 161.289 160.253 150.284C167.927 138.964 172.239 125.72 172.72 111.985C173.293 95.5679 167.839 79.2845 156.515 63.5839L156.52 63.5793ZM102.706 114.446C105.199 123.897 104.709 132.978 101.258 141.476C92.635 132.964 86.3113 123.606 82.4532 113.632C78.3222 102.965 75.8381 92.8154 75.0517 83.4293C78.7016 84.6275 82.0554 86.2096 85.0438 88.1571C93.6388 93.7591 99.5832 102.604 102.706 114.451V114.446ZM104.279 160.197C107.942 162.987 111.796 165.6 115.769 168.006C109.918 169.597 103.881 170.296 97.7744 170.078C96.8307 170.046 95.887 169.99 94.9387 169.912C98.4174 166.914 101.545 163.662 104.274 160.197H104.279ZM114.511 111.333C110.588 96.4653 102.914 85.2242 91.7052 77.9244C86.7878 74.7233 81.1857 72.2946 75.0332 70.7079C75.1211 69.6856 75.2321 68.6679 75.3616 67.6687C75.4726 66.8129 75.5883 66.0265 75.7132 65.2909C76.7263 60.059 78.2343 54.8825 80.1865 49.9096C80.9359 48.0037 81.7547 46.1117 82.6244 44.2844L82.6568 44.2196C83.9983 41.5042 85.511 38.761 87.292 35.8281L87.9905 34.6763L87.9674 34.6624C92.103 28.1999 97.0574 22.3064 102.724 17.1115L104.912 19.6974C110.015 25.7435 114.812 31.4612 119.174 36.6932C128.986 48.4616 141.707 63.917 146.615 70.7311C156.321 84.1834 160.998 97.9179 160.521 111.564C160.151 122.163 157.015 132.497 151.445 141.444C146.171 149.923 138.825 157.019 130.17 162.015C125.341 159.605 118.328 155.641 110.88 149.872C116.884 137.905 118.11 124.947 114.516 111.333H114.511ZM94.948 152.338C89.4431 159.471 82.8927 164.111 79.0716 166.442C78.4518 166.216 77.8319 165.98 77.2213 165.73L76.7309 165.536C65.4112 160.859 55.8632 152.953 49.1185 142.665C42.2258 132.15 38.8118 119.928 39.2513 107.318C39.5659 98.2787 41.8187 89.642 45.9543 81.6437C48.3552 81.1117 50.8024 80.7787 53.2495 80.6538L53.8832 80.6399C55.1184 80.6121 56.3489 80.6121 57.5193 80.6399C59.2401 80.7185 60.9656 80.8989 62.6633 81.1719C63.2185 92.6628 66.0403 105.06 71.0595 118.032C75.8936 130.517 83.9243 142.05 94.9434 152.333L94.948 152.338Z" fill="white"/>
</g>
<g filter="url(#filter0_d_57_7143)">
<circle cx="177" cy="137" r="45" fill="white"/>
<path fill-rule="evenodd" clip-rule="evenodd" d="M157 151.25C156.208 150.792 155.594 150.188 155.156 149.437C154.719 148.687 154.5 147.854 154.5 146.938V127.062C154.5 126.146 154.719 125.312 155.156 124.562C155.594 123.812 156.208 123.208 157 122.75L174.5 112.688C175.292 112.229 176.125 112 177 112C177.875 112 178.708 112.229 179.5 112.688L197 122.75C197.792 123.208 198.406 123.812 198.844 124.562C199.281 125.312 199.5 126.146 199.5 127.062V146.938C199.5 147.854 199.281 148.687 198.844 149.437C198.406 150.188 197.792 150.792 197 151.25L179.5 161.312C178.708 161.771 177.875 162 177 162C176.125 162 175.292 161.771 174.5 161.312L157 151.25ZM159 146.998V126.938L177 116.75L195 126.875V146.998L177 157.25L159 146.998ZM173.073 140.927C175.691 143.545 177 146.736 177 150.5C177 146.736 178.309 143.545 180.927 140.927C183.545 138.309 186.736 137 190.5 137C186.736 137 183.545 135.691 180.927 133.073C178.309 130.455 177 127.264 177 123.5C177 127.264 175.691 130.455 173.073 133.073C170.455 135.691 167.264 137 163.5 137C167.264 137 170.455 138.309 173.073 140.927Z" fill="#1F1F1F"/>
</g>
<defs>
<filter id="filter0_d_57_7143" x="126" y="88.0029" width="102" height="102" filterUnits="userSpaceOnUse" color-interpolation-filters="sRGB">
<feFlood flood-opacity="0" result="BackgroundImageFix"/>
<feColorMatrix in="SourceAlpha" type="matrix" values="0 0 0 0 0 0 0 0 0 0 0 0 0 0 0 0 0 0 127 0" result="hardAlpha"/>
<feOffset dy="2.0029"/>
<feGaussianBlur stdDeviation="3"/>
<feComposite in2="hardAlpha" operator="out"/>
<feColorMatrix type="matrix" values="0 0 0 0 0 0 0 0 0 0 0 0 0 0 0 0 0 0 0.3 0"/>
<feBlend mode="normal" in2="BackgroundImageFix" result="effect1_dropShadow_57_7143"/>
<feBlend mode="normal" in="SourceGraphic" in2="effect1_dropShadow_57_7143" result="shape"/>
</filter>
<clipPath id="clip0_57_7143">
<rect width="145.769" height="182.328" fill="white" transform="translate(26.998)"/>
</clipPath>
</defs>
</svg>
