<svg width="260" height="327" viewBox="0 0 260 327" fill="none" xmlns="http://www.w3.org/2000/svg">
<path d="M217.285 254.393C214.521 254.393 212.022 253.749 209.788 252.462C207.592 251.175 205.87 249.395 204.62 247.124C203.371 244.814 202.746 242.24 202.746 239.4C202.746 236.674 203.333 234.175 204.507 231.904C205.718 229.594 207.403 227.777 209.561 226.452C211.719 225.089 214.18 224.407 216.944 224.407C219.783 224.407 222.244 225.032 224.327 226.281C226.447 227.531 228.056 229.272 229.154 231.506C230.252 233.702 230.801 236.239 230.801 239.116C230.801 239.457 230.782 239.798 230.744 240.138C230.706 240.479 230.687 240.668 230.687 240.706H208.993C209.182 243.281 210.11 245.268 211.776 246.669C213.442 248.07 215.335 248.77 217.455 248.77C220.711 248.77 223.21 247.256 224.951 244.227L230.29 246.783C229.04 249.092 227.299 250.947 225.065 252.348C222.869 253.711 220.275 254.393 217.285 254.393ZM224.44 235.936C224.364 235.027 224.062 234.1 223.531 233.153C223.001 232.206 222.169 231.411 221.033 230.768C219.935 230.086 218.553 229.746 216.887 229.746C215.032 229.746 213.423 230.313 212.06 231.449C210.735 232.585 209.826 234.081 209.334 235.936H224.44Z" fill="white"/>
<path d="M189.035 254.393C185.817 254.393 183.148 253.654 181.027 252.178C178.945 250.663 177.468 248.77 176.598 246.499L182.163 244.114C182.807 245.666 183.734 246.84 184.946 247.635C186.195 248.43 187.558 248.827 189.035 248.827C190.587 248.827 191.855 248.543 192.84 247.975C193.824 247.37 194.316 246.593 194.316 245.647C194.316 244.738 193.919 244 193.124 243.432C192.329 242.826 191.022 242.296 189.205 241.842L185.343 240.933C183.223 240.441 181.387 239.532 179.835 238.207C178.32 236.844 177.563 235.084 177.563 232.926C177.563 230.313 178.642 228.25 180.8 226.736C182.958 225.183 185.608 224.407 188.751 224.407C191.363 224.407 193.673 224.956 195.679 226.054C197.724 227.152 199.2 228.742 200.109 230.825L194.6 233.153C194.07 231.979 193.256 231.109 192.158 230.541C191.06 229.973 189.868 229.689 188.581 229.689C187.331 229.689 186.233 229.973 185.287 230.541C184.34 231.071 183.867 231.79 183.867 232.699C183.867 233.494 184.189 234.137 184.832 234.63C185.514 235.122 186.574 235.538 188.013 235.879L192.215 236.901C195.055 237.621 197.175 238.718 198.576 240.195C199.977 241.634 200.677 243.375 200.677 245.42C200.677 247.086 200.166 248.6 199.144 249.963C198.159 251.326 196.777 252.405 194.998 253.2C193.256 253.995 191.269 254.393 189.035 254.393Z" fill="white"/>
<path d="M159.149 254.393C157.143 254.393 155.325 253.995 153.697 253.2C152.107 252.367 150.839 251.231 149.892 249.793C148.984 248.316 148.529 246.65 148.529 244.795C148.529 241.842 149.627 239.514 151.823 237.81C154.057 236.106 156.878 235.254 160.285 235.254C163.276 235.254 165.832 235.765 167.952 236.788V235.595C167.952 233.891 167.27 232.49 165.907 231.392C164.582 230.257 162.973 229.689 161.08 229.689C158.203 229.689 155.893 230.862 154.152 233.21L149.381 229.916C150.706 228.136 152.353 226.774 154.322 225.827C156.329 224.88 158.581 224.407 161.08 224.407C165.207 224.407 168.387 225.448 170.621 227.531C172.893 229.575 174.028 232.472 174.028 236.22V253.484H167.952V250.02H167.611C166.702 251.307 165.548 252.367 164.147 253.2C162.746 253.995 161.08 254.393 159.149 254.393ZM160.171 249.225C161.572 249.225 162.859 248.884 164.033 248.203C165.245 247.483 166.191 246.556 166.873 245.42C167.592 244.246 167.952 242.997 167.952 241.672C165.945 240.574 163.806 240.025 161.534 240.025C159.452 240.025 157.824 240.479 156.65 241.388C155.477 242.296 154.89 243.451 154.89 244.852C154.89 246.139 155.401 247.199 156.423 248.032C157.483 248.827 158.733 249.225 160.171 249.225Z" fill="white"/>
<path d="M132.939 254.393C130.894 254.393 129.058 253.958 127.43 253.087C125.84 252.216 124.648 251.118 123.852 249.793H123.512V253.484H117.605V212.822H123.852V225.032L123.512 228.951H123.852C124.648 227.664 125.84 226.585 127.43 225.714C129.058 224.843 130.894 224.408 132.939 224.408C135.362 224.408 137.596 225.051 139.64 226.338C141.723 227.626 143.37 229.424 144.581 231.734C145.83 234.005 146.455 236.561 146.455 239.4C146.455 242.24 145.83 244.795 144.581 247.067C143.37 249.339 141.723 251.137 139.64 252.462C137.596 253.749 135.362 254.393 132.939 254.393ZM131.86 248.657C133.336 248.657 134.699 248.279 135.949 247.521C137.236 246.764 138.258 245.685 139.016 244.284C139.811 242.846 140.208 241.218 140.208 239.4C140.208 237.583 139.811 235.974 139.016 234.573C138.258 233.134 137.236 232.036 135.949 231.279C134.699 230.522 133.336 230.143 131.86 230.143C130.383 230.143 129.001 230.522 127.714 231.279C126.465 232.036 125.443 233.115 124.648 234.516C123.89 235.917 123.512 237.545 123.512 239.4C123.512 241.255 123.89 242.883 124.648 244.284C125.443 245.685 126.465 246.764 127.714 247.521C129.001 248.279 130.383 248.657 131.86 248.657Z" fill="white"/>
<path d="M100.369 254.393C97.6047 254.393 95.1059 253.749 92.8721 252.462C90.6762 251.175 88.9536 249.395 87.7042 247.124C86.4548 244.814 85.8301 242.24 85.8301 239.4C85.8301 236.674 86.4169 234.175 87.5906 231.904C88.8021 229.594 90.4869 227.777 92.645 226.452C94.803 225.089 97.2639 224.407 100.028 224.407C102.867 224.407 105.328 225.032 107.411 226.281C109.531 227.531 111.14 229.272 112.238 231.506C113.336 233.702 113.885 236.239 113.885 239.116C113.885 239.457 113.866 239.798 113.828 240.138C113.79 240.479 113.771 240.668 113.771 240.706H92.0771C92.2664 243.281 93.1939 245.268 94.8598 246.669C96.5257 248.07 98.4187 248.77 100.539 248.77C103.795 248.77 106.294 247.256 108.035 244.227L113.374 246.783C112.124 249.092 110.383 250.947 108.149 252.348C105.953 253.711 103.359 254.393 100.369 254.393ZM107.524 235.936C107.448 235.027 107.146 234.1 106.615 233.153C106.085 232.206 105.253 231.411 104.117 230.768C103.019 230.086 101.637 229.746 99.971 229.746C98.1158 229.746 96.5067 230.313 95.1438 231.449C93.8186 232.585 92.91 234.081 92.4178 235.936H107.524Z" fill="white"/>
<path d="M68.4941 225.316H74.4004V229.519H74.7411C75.3469 228.08 76.4448 226.887 78.035 225.941C79.6251 224.957 81.2531 224.464 82.919 224.464C84.282 224.464 85.3988 224.654 86.2696 225.032V231.563C84.9824 230.92 83.5437 230.598 81.9535 230.598C79.9091 230.598 78.1864 231.393 76.7856 232.983C75.4226 234.535 74.7411 236.447 74.7411 238.719V253.484H68.4941V225.316Z" fill="white"/>
<path d="M59.5775 220.546C58.4038 220.546 57.4005 220.148 56.5676 219.353C55.7725 218.52 55.375 217.517 55.375 216.343C55.375 215.169 55.7725 214.185 56.5676 213.39C57.4005 212.557 58.4038 212.141 59.5775 212.141C60.7512 212.141 61.7356 212.557 62.5306 213.39C63.3636 214.185 63.78 215.169 63.78 216.343C63.78 217.517 63.3636 218.52 62.5306 219.353C61.7356 220.148 60.7512 220.546 59.5775 220.546ZM56.454 225.316H62.701V253.484H56.454V225.316Z" fill="white"/>
<path d="M28 212.822H52.704V218.898H34.3606V230.597H50.8867V236.617H34.3606V253.484H28V212.822Z" fill="white"/>
<path d="M2.6684 269.099H26.2467V273.712H7.4524V287.21H24.4242V291.766H7.4524V305.264H26.2467V309.877H2.6684V269.099ZM38.7772 295.126L28.6966 280.831H34.164L41.6817 291.595L48.9147 280.831H54.553L44.4155 295.126L54.7808 309.877H49.1425L41.5678 298.714L34.164 309.877H28.5257L38.7772 295.126ZM69.1502 310.333C67.9732 310.333 66.8721 310.143 65.8469 309.763C64.8598 309.383 64.0245 308.871 63.341 308.225C62.5817 307.504 62.0121 306.669 61.6325 305.719C61.2528 304.77 61.0629 303.612 61.0629 302.245V285.217H55.9942V280.831H61.0629V272.63H65.9039V280.831H72.966V285.217H65.9039V301.049C65.9039 302.644 66.2076 303.821 66.8151 304.58C67.5365 305.416 68.5807 305.833 69.9475 305.833C71.0486 305.833 72.1117 305.511 73.1369 304.865V309.592C72.5673 309.858 71.9788 310.048 71.3713 310.162C70.8018 310.276 70.0614 310.333 69.1502 310.333ZM89.3541 310.788C86.5824 310.788 84.0955 310.124 81.8933 308.795C79.6911 307.466 77.9636 305.643 76.7106 303.327C75.4956 300.973 74.8881 298.335 74.8881 295.411C74.8881 292.601 75.4577 290.02 76.5967 287.665C77.7737 285.311 79.4254 283.432 81.5516 282.027C83.6778 280.622 86.1457 279.92 88.9554 279.92C91.803 279.92 94.271 280.565 96.3592 281.856C98.4475 283.109 100.042 284.856 101.143 287.096C102.282 289.336 102.852 291.899 102.852 294.785C102.852 295.354 102.795 295.848 102.681 296.265H79.7291C79.843 298.467 80.3746 300.328 81.3238 301.847C82.273 303.365 83.469 304.504 84.9118 305.264C86.3925 306.023 87.9303 306.403 89.5249 306.403C93.2458 306.403 96.1124 304.656 98.1248 301.163L102.225 303.157C100.972 305.511 99.2638 307.371 97.0996 308.738C94.9734 310.105 92.3915 310.788 89.3541 310.788ZM97.7261 292.279C97.6501 291.064 97.3084 289.849 96.7009 288.634C96.0934 287.419 95.1253 286.394 93.7964 285.558C92.5054 284.723 90.8728 284.305 88.8985 284.305C86.6204 284.305 84.684 285.046 83.0893 286.526C81.5326 287.969 80.5075 289.887 80.0139 292.279H97.7261ZM107.378 280.831H111.991V285.103H112.219C113.016 283.66 114.288 282.445 116.035 281.458C117.782 280.433 119.642 279.92 121.616 279.92C125.109 279.92 127.767 280.945 129.59 282.995C131.45 285.008 132.38 287.76 132.38 291.253V309.877H127.539V291.994C127.539 289.298 126.894 287.343 125.603 286.128C124.312 284.913 122.547 284.305 120.306 284.305C118.75 284.305 117.345 284.742 116.092 285.615C114.877 286.488 113.928 287.647 113.244 289.089C112.561 290.494 112.219 291.975 112.219 293.532V309.877H107.378V280.831ZM148.023 310.788C144.91 310.788 142.309 310.067 140.221 308.624C138.132 307.143 136.652 305.264 135.778 302.986L140.107 301.049C140.828 302.796 141.891 304.144 143.296 305.093C144.739 306.042 146.315 306.517 148.023 306.517C149.846 306.517 151.402 306.156 152.693 305.435C153.984 304.675 154.63 303.612 154.63 302.245C154.63 301.03 154.117 300.062 153.092 299.341C152.067 298.581 150.453 297.936 148.251 297.404L144.72 296.493C142.404 295.924 140.505 294.955 139.025 293.589C137.544 292.222 136.803 290.456 136.803 288.292C136.803 286.621 137.297 285.16 138.284 283.907C139.309 282.616 140.657 281.629 142.328 280.945C143.998 280.262 145.802 279.92 147.738 279.92C150.282 279.92 152.541 280.47 154.516 281.572C156.528 282.673 157.952 284.21 158.787 286.185L154.573 288.121C153.282 285.539 150.985 284.248 147.681 284.248C146.087 284.248 144.682 284.628 143.467 285.387C142.29 286.109 141.701 287.039 141.701 288.178C141.701 289.241 142.119 290.114 142.954 290.798C143.79 291.443 145.043 291.975 146.713 292.393L150.928 293.475C153.775 294.196 155.921 295.278 157.363 296.721C158.806 298.126 159.528 299.853 159.528 301.904C159.528 303.688 159.015 305.264 157.99 306.631C156.965 307.96 155.579 308.985 153.832 309.706C152.086 310.427 150.149 310.788 148.023 310.788ZM166.235 275.478C165.286 275.478 164.469 275.136 163.786 274.453C163.103 273.769 162.761 272.953 162.761 272.004C162.761 271.054 163.103 270.257 163.786 269.612C164.469 268.928 165.286 268.586 166.235 268.586C167.184 268.586 168.001 268.928 168.684 269.612C169.367 270.257 169.709 271.054 169.709 272.004C169.709 272.953 169.367 273.769 168.684 274.453C168.039 275.136 167.222 275.478 166.235 275.478ZM163.843 280.831H168.627V309.877H163.843V280.831ZM188.202 310.788C185.354 310.788 182.791 310.105 180.513 308.738C178.235 307.371 176.451 305.511 175.16 303.157C173.907 300.803 173.28 298.202 173.28 295.354C173.28 292.506 173.907 289.906 175.16 287.552C176.451 285.198 178.235 283.337 180.513 281.97C182.791 280.603 185.354 279.92 188.202 279.92C191.049 279.92 193.612 280.603 195.89 281.97C198.168 283.337 199.934 285.198 201.187 287.552C202.478 289.906 203.123 292.506 203.123 295.354C203.123 298.202 202.478 300.803 201.187 303.157C199.934 305.511 198.168 307.371 195.89 308.738C193.612 310.105 191.049 310.788 188.202 310.788ZM188.202 306.403C189.986 306.403 191.638 305.966 193.157 305.093C194.713 304.182 195.947 302.891 196.859 301.22C197.808 299.55 198.282 297.594 198.282 295.354C198.282 293.114 197.808 291.159 196.859 289.488C195.947 287.817 194.713 286.545 193.157 285.672C191.638 284.761 189.986 284.305 188.202 284.305C186.417 284.305 184.747 284.761 183.19 285.672C181.633 286.545 180.38 287.817 179.431 289.488C178.52 291.159 178.064 293.114 178.064 295.354C178.064 297.594 178.52 299.55 179.431 301.22C180.38 302.891 181.633 304.182 183.19 305.093C184.747 305.966 186.417 306.403 188.202 306.403ZM207.049 280.831H211.663V285.103H211.89C212.688 283.66 213.96 282.445 215.706 281.458C217.453 280.433 219.313 279.92 221.288 279.92C224.781 279.92 227.438 280.945 229.261 282.995C231.121 285.008 232.052 287.76 232.052 291.253V309.877H227.211V291.994C227.211 289.298 226.565 287.343 225.274 286.128C223.983 284.913 222.218 284.305 219.978 284.305C218.421 284.305 217.016 284.742 215.763 285.615C214.548 286.488 213.599 287.647 212.916 289.089C212.232 290.494 211.89 291.975 211.89 293.532V309.877H207.049V280.831ZM247.694 310.788C244.581 310.788 241.98 310.067 239.892 308.624C237.804 307.143 236.323 305.264 235.45 302.986L239.778 301.049C240.499 302.796 241.563 304.144 242.967 305.093C244.41 306.042 245.986 306.517 247.694 306.517C249.517 306.517 251.074 306.156 252.365 305.435C253.655 304.675 254.301 303.612 254.301 302.245C254.301 301.03 253.788 300.062 252.763 299.341C251.738 298.581 250.124 297.936 247.922 297.404L244.391 296.493C242.075 295.924 240.177 294.955 238.696 293.589C237.215 292.222 236.475 290.456 236.475 288.292C236.475 286.621 236.968 285.16 237.956 283.907C238.981 282.616 240.329 281.629 241.999 280.945C243.67 280.262 245.473 279.92 247.41 279.92C249.954 279.92 252.213 280.47 254.187 281.572C256.199 282.673 257.623 284.21 258.458 286.185L254.244 288.121C252.953 285.539 250.656 284.248 247.353 284.248C245.758 284.248 244.353 284.628 243.138 285.387C241.961 286.109 241.373 287.039 241.373 288.178C241.373 289.241 241.79 290.114 242.626 290.798C243.461 291.443 244.714 291.975 246.384 292.393L250.599 293.475C253.447 294.196 255.592 295.278 257.035 296.721C258.477 298.126 259.199 299.853 259.199 301.904C259.199 303.688 258.686 305.264 257.661 306.631C256.636 307.96 255.25 308.985 253.504 309.706C251.757 310.427 249.821 310.788 247.694 310.788Z" fill="white"/>
<path d="M102.196 176.072C109.728 179.103 117.9 180.902 126.48 181.202C138.092 181.607 149.135 179.206 159.006 174.646C147.169 169.995 136.448 163.193 127.298 154.737C121.366 164.234 112.594 171.734 102.196 176.072Z" fill="#FF9100"/>
<path d="M127.298 154.74C106.411 135.423 93.7401 107.463 94.811 76.7969C94.8458 75.801 94.8984 74.8058 94.9598 73.8109C91.2191 72.8435 87.3138 72.2531 83.2949 72.1127C77.5422 71.9118 71.9712 72.6253 66.7116 74.1064C61.1361 83.8733 57.7714 95.0794 57.3522 107.083C56.2705 138.06 75.017 165.128 102.196 176.074C112.594 171.737 121.366 164.245 127.298 154.74Z" fill="#FFC400"/>
<path d="M127.298 154.739C132.154 146.968 135.099 137.857 135.441 128.041C136.343 102.22 118.985 80.0082 94.9605 73.8101C94.899 74.805 94.8465 75.8003 94.8117 76.7961C93.7408 107.462 106.412 135.422 127.298 154.739Z" fill="#FF9100"/>
<path d="M132.755 1.23018C119.072 12.1917 108.268 26.6455 101.731 43.2959C97.9881 52.833 95.6362 63.0774 94.9496 73.8163C118.974 80.0144 136.332 102.226 135.43 128.047C135.088 137.863 132.135 146.965 127.287 154.745C136.437 163.21 147.158 170.003 158.996 174.654C182.757 163.67 199.615 140.036 200.591 112.082C201.224 93.9699 194.265 77.8275 184.432 64.202C174.048 49.7916 132.755 1.23018 132.755 1.23018Z" fill="#DD2C00"/>
<g filter="url(#filter0_d_57_6756)">
<circle cx="205" cy="137" r="45" fill="white"/>
<path fill-rule="evenodd" clip-rule="evenodd" d="M207.606 114.809L212.867 120.148C214.635 121.943 213.917 122.614 212.777 123.773L207.638 128.988C206.497 130.147 206.67 131.56 207.631 132.534L211.123 136.078C212.086 137.054 213.474 137.23 214.615 136.071L219.754 130.856C220.895 129.697 222.364 129.789 223.331 130.766L228.549 136.064C229.512 137.043 229.607 138.537 228.464 139.696L211.604 156.807C209.636 158.818 206.941 159.951 204.128 159.951C201.314 159.951 198.619 158.818 196.651 156.807L181.441 141.368C180.473 140.389 180.39 138.886 181.531 137.729L186.632 132.552C187.772 131.393 188.011 130.325 187.048 129.346L183.198 125.438C182.233 124.461 182.222 122.891 183.362 121.732L188.317 116.703C189.458 115.544 190.954 115.61 191.917 116.586L195.769 120.494C196.732 121.473 197.749 121.268 198.89 120.112L204.029 114.894C205.169 113.735 206.643 113.83 207.606 114.809Z" fill="#1F1F1F"/>
</g>
<defs>
<filter id="filter0_d_57_6756" x="154" y="88.0029" width="102" height="102" filterUnits="userSpaceOnUse" color-interpolation-filters="sRGB">
<feFlood flood-opacity="0" result="BackgroundImageFix"/>
<feColorMatrix in="SourceAlpha" type="matrix" values="0 0 0 0 0 0 0 0 0 0 0 0 0 0 0 0 0 0 127 0" result="hardAlpha"/>
<feOffset dy="2.0029"/>
<feGaussianBlur stdDeviation="3"/>
<feComposite in2="hardAlpha" operator="out"/>
<feColorMatrix type="matrix" values="0 0 0 0 0 0 0 0 0 0 0 0 0 0 0 0 0 0 0.3 0"/>
<feBlend mode="normal" in2="BackgroundImageFix" result="effect1_dropShadow_57_6756"/>
<feBlend mode="normal" in="SourceGraphic" in2="effect1_dropShadow_57_6756" result="shape"/>
</filter>
</defs>
</svg>
