<svg width="403" height="386" viewBox="0 0 403 386" fill="none" xmlns="http://www.w3.org/2000/svg">
<path d="M289.285 254.393C286.521 254.393 284.022 253.749 281.788 252.462C279.592 251.175 277.87 249.395 276.62 247.124C275.371 244.814 274.746 242.24 274.746 239.4C274.746 236.674 275.333 234.175 276.507 231.904C277.718 229.594 279.403 227.777 281.561 226.452C283.719 225.089 286.18 224.407 288.944 224.407C291.783 224.407 294.244 225.032 296.327 226.281C298.447 227.531 300.056 229.272 301.154 231.506C302.252 233.702 302.801 236.239 302.801 239.116C302.801 239.457 302.782 239.798 302.744 240.138C302.706 240.479 302.687 240.668 302.687 240.706H280.993C281.182 243.281 282.11 245.268 283.776 246.669C285.442 248.07 287.335 248.77 289.455 248.77C292.711 248.77 295.21 247.256 296.951 244.227L302.29 246.783C301.04 249.092 299.299 250.947 297.065 252.348C294.869 253.711 292.275 254.393 289.285 254.393ZM296.44 235.936C296.364 235.027 296.062 234.1 295.531 233.153C295.001 232.206 294.169 231.411 293.033 230.768C291.935 230.086 290.553 229.746 288.887 229.746C287.032 229.746 285.423 230.313 284.06 231.449C282.735 232.585 281.826 234.081 281.334 235.936H296.44Z" fill="white"/>
<path d="M261.035 254.393C257.817 254.393 255.148 253.654 253.027 252.178C250.945 250.663 249.468 248.77 248.598 246.499L254.163 244.114C254.807 245.666 255.734 246.84 256.946 247.635C258.195 248.43 259.558 248.827 261.035 248.827C262.587 248.827 263.855 248.543 264.84 247.975C265.824 247.37 266.316 246.593 266.316 245.647C266.316 244.738 265.919 244 265.124 243.432C264.329 242.826 263.022 242.296 261.205 241.842L257.343 240.933C255.223 240.441 253.387 239.532 251.835 238.207C250.32 236.844 249.563 235.084 249.563 232.926C249.563 230.313 250.642 228.25 252.8 226.736C254.958 225.183 257.608 224.407 260.751 224.407C263.363 224.407 265.673 224.956 267.679 226.054C269.724 227.152 271.2 228.742 272.109 230.825L266.6 233.153C266.07 231.979 265.256 231.109 264.158 230.541C263.06 229.973 261.868 229.689 260.581 229.689C259.331 229.689 258.233 229.973 257.287 230.541C256.34 231.071 255.867 231.79 255.867 232.699C255.867 233.494 256.189 234.137 256.832 234.63C257.514 235.122 258.574 235.538 260.013 235.879L264.215 236.901C267.055 237.621 269.175 238.718 270.576 240.195C271.977 241.634 272.677 243.375 272.677 245.42C272.677 247.086 272.166 248.6 271.144 249.963C270.159 251.326 268.777 252.405 266.998 253.2C265.256 253.995 263.269 254.393 261.035 254.393Z" fill="white"/>
<path d="M231.149 254.393C229.143 254.393 227.325 253.995 225.697 253.2C224.107 252.367 222.839 251.231 221.892 249.793C220.984 248.316 220.529 246.65 220.529 244.795C220.529 241.842 221.627 239.514 223.823 237.81C226.057 236.106 228.878 235.254 232.285 235.254C235.276 235.254 237.832 235.765 239.952 236.788V235.595C239.952 233.891 239.27 232.49 237.907 231.392C236.582 230.257 234.973 229.689 233.08 229.689C230.203 229.689 227.893 230.862 226.152 233.21L221.381 229.916C222.706 228.136 224.353 226.774 226.322 225.827C228.329 224.88 230.581 224.407 233.08 224.407C237.207 224.407 240.387 225.448 242.621 227.531C244.893 229.575 246.028 232.472 246.028 236.22V253.484H239.952V250.02H239.611C238.702 251.307 237.548 252.367 236.147 253.2C234.746 253.995 233.08 254.393 231.149 254.393ZM232.171 249.225C233.572 249.225 234.859 248.884 236.033 248.203C237.245 247.483 238.191 246.556 238.873 245.42C239.592 244.246 239.952 242.997 239.952 241.672C237.945 240.574 235.806 240.025 233.534 240.025C231.452 240.025 229.824 240.479 228.65 241.388C227.477 242.296 226.89 243.451 226.89 244.852C226.89 246.139 227.401 247.199 228.423 248.032C229.483 248.827 230.733 249.225 232.171 249.225Z" fill="white"/>
<path d="M204.939 254.393C202.894 254.393 201.058 253.958 199.43 253.087C197.84 252.216 196.648 251.118 195.852 249.793H195.512V253.484H189.605V212.822H195.852V225.032L195.512 228.951H195.852C196.648 227.664 197.84 226.585 199.43 225.714C201.058 224.843 202.894 224.408 204.939 224.408C207.362 224.408 209.596 225.051 211.64 226.338C213.723 227.626 215.37 229.424 216.581 231.734C217.83 234.005 218.455 236.561 218.455 239.4C218.455 242.24 217.83 244.795 216.581 247.067C215.37 249.339 213.723 251.137 211.64 252.462C209.596 253.749 207.362 254.393 204.939 254.393ZM203.86 248.657C205.336 248.657 206.699 248.279 207.949 247.521C209.236 246.764 210.258 245.685 211.016 244.284C211.811 242.846 212.208 241.218 212.208 239.4C212.208 237.583 211.811 235.974 211.016 234.573C210.258 233.134 209.236 232.036 207.949 231.279C206.699 230.522 205.336 230.143 203.86 230.143C202.383 230.143 201.001 230.522 199.714 231.279C198.465 232.036 197.443 233.115 196.648 234.516C195.89 235.917 195.512 237.545 195.512 239.4C195.512 241.255 195.89 242.883 196.648 244.284C197.443 245.685 198.465 246.764 199.714 247.521C201.001 248.279 202.383 248.657 203.86 248.657Z" fill="white"/>
<path d="M172.369 254.393C169.605 254.393 167.106 253.749 164.872 252.462C162.676 251.175 160.954 249.395 159.704 247.124C158.455 244.814 157.83 242.24 157.83 239.4C157.83 236.674 158.417 234.175 159.591 231.904C160.802 229.594 162.487 227.777 164.645 226.452C166.803 225.089 169.264 224.407 172.028 224.407C174.867 224.407 177.328 225.032 179.411 226.281C181.531 227.531 183.14 229.272 184.238 231.506C185.336 233.702 185.885 236.239 185.885 239.116C185.885 239.457 185.866 239.798 185.828 240.138C185.79 240.479 185.771 240.668 185.771 240.706H164.077C164.266 243.281 165.194 245.268 166.86 246.669C168.526 248.07 170.419 248.77 172.539 248.77C175.795 248.77 178.294 247.256 180.035 244.227L185.374 246.783C184.124 249.092 182.383 250.947 180.149 252.348C177.953 253.711 175.359 254.393 172.369 254.393ZM179.524 235.936C179.448 235.027 179.146 234.1 178.615 233.153C178.085 232.206 177.253 231.411 176.117 230.768C175.019 230.086 173.637 229.746 171.971 229.746C170.116 229.746 168.507 230.313 167.144 231.449C165.819 232.585 164.91 234.081 164.418 235.936H179.524Z" fill="white"/>
<path d="M140.494 225.317H146.4V229.519H146.741C147.347 228.081 148.445 226.888 150.035 225.941C151.625 224.957 153.253 224.465 154.919 224.465C156.282 224.465 157.399 224.654 158.27 225.033V231.564C156.982 230.92 155.544 230.598 153.954 230.598C151.909 230.598 150.186 231.393 148.786 232.983C147.423 234.536 146.741 236.448 146.741 238.719V253.485H140.494V225.317Z" fill="white"/>
<path d="M131.578 220.546C130.404 220.546 129.401 220.148 128.568 219.353C127.773 218.52 127.375 217.517 127.375 216.343C127.375 215.169 127.773 214.185 128.568 213.39C129.401 212.557 130.404 212.141 131.578 212.141C132.751 212.141 133.736 212.557 134.531 213.39C135.364 214.185 135.78 215.169 135.78 216.343C135.78 217.517 135.364 218.52 134.531 219.353C133.736 220.148 132.751 220.546 131.578 220.546ZM128.454 225.316H134.701V253.484H128.454V225.316Z" fill="white"/>
<path d="M100 212.822H124.704V218.899H106.361V230.598H122.887V236.618H106.361V253.484H100V212.822Z" fill="white"/>
<path d="M50.6429 310.911C46.6942 310.911 43.1062 309.981 39.8789 308.121C36.6516 306.26 34.1077 303.716 32.2472 300.489C30.4248 297.224 29.5135 293.598 29.5135 289.611C29.5135 285.624 30.4248 282.017 32.2472 278.79C34.1077 275.525 36.6516 272.962 39.8789 271.101C43.1062 269.241 46.6942 268.311 50.6429 268.311C53.6804 268.311 56.4521 268.899 58.958 270.076C61.5018 271.215 63.704 272.848 65.5644 274.974L62.0903 278.334C60.5336 276.474 58.8251 275.107 56.9646 274.234C55.1421 273.361 53.0349 272.924 50.6429 272.924C47.6814 272.924 44.9666 273.626 42.4987 275.031C40.0308 276.398 38.0564 278.353 36.5756 280.897C35.1328 283.403 34.4114 286.308 34.4114 289.611C34.4114 292.914 35.1328 295.838 36.5756 298.382C38.0564 300.888 40.0308 302.843 42.4987 304.248C44.9666 305.615 47.6814 306.298 50.6429 306.298C55.5788 306.298 59.7743 304.267 63.2294 300.204L66.7605 303.621C64.862 305.861 62.527 307.646 59.7553 308.975C56.9836 310.266 53.9461 310.911 50.6429 310.911ZM71.0572 269.222H75.8982V310H71.0572V269.222ZM95.0374 310.911C92.1897 310.911 89.6269 310.228 87.3488 308.861C85.0707 307.494 83.2862 305.634 81.9952 303.28C80.7423 300.926 80.1158 298.325 80.1158 295.477C80.1158 292.629 80.7423 290.029 81.9952 287.675C83.2862 285.321 85.0707 283.46 87.3488 282.093C89.6269 280.726 92.1897 280.043 95.0374 280.043C97.885 280.043 100.448 280.726 102.726 282.093C105.004 283.46 106.77 285.321 108.023 287.675C109.313 290.029 109.959 292.629 109.959 295.477C109.959 298.325 109.313 300.926 108.023 303.28C106.77 305.634 105.004 307.494 102.726 308.861C100.448 310.228 97.885 310.911 95.0374 310.911ZM95.0374 306.526C96.8219 306.526 98.4735 306.089 99.9922 305.216C101.549 304.305 102.783 303.014 103.694 301.343C104.643 299.673 105.118 297.717 105.118 295.477C105.118 293.237 104.643 291.282 103.694 289.611C102.783 287.94 101.549 286.668 99.9922 285.795C98.4735 284.884 96.8219 284.428 95.0374 284.428C93.2528 284.428 91.5822 284.884 90.0255 285.795C88.4688 286.668 87.2159 287.94 86.2667 289.611C85.3554 291.282 84.8998 293.237 84.8998 295.477C84.8998 297.717 85.3554 299.673 86.2667 301.343C87.2159 303.014 88.4688 304.305 90.0255 305.216C91.5822 306.089 93.2528 306.526 95.0374 306.526ZM124.699 310.911C121.206 310.911 118.53 309.886 116.669 307.836C114.847 305.786 113.935 302.919 113.935 299.236V280.954H118.776V298.496C118.776 301.267 119.403 303.299 120.656 304.59C121.909 305.88 123.598 306.526 125.725 306.526C127.357 306.526 128.8 306.089 130.053 305.216C131.344 304.343 132.331 303.204 133.014 301.799C133.736 300.394 134.097 298.913 134.097 297.357V280.954H138.937V310H134.324V305.786H134.097C133.299 307.228 132.027 308.443 130.281 309.43C128.534 310.418 126.674 310.911 124.699 310.911ZM156.972 310.911C154.39 310.911 152.036 310.247 149.91 308.918C147.822 307.589 146.17 305.767 144.955 303.45C143.74 301.096 143.133 298.439 143.133 295.477C143.133 292.554 143.74 289.915 144.955 287.561C146.17 285.207 147.822 283.365 149.91 282.036C152.036 280.707 154.39 280.043 156.972 280.043C159.212 280.043 161.206 280.556 162.952 281.581C164.699 282.568 166.028 283.802 166.939 285.283H167.167L166.939 281.239V269.222H171.78V310H167.167V305.729H166.939C166.028 307.171 164.699 308.405 162.952 309.43C161.206 310.418 159.212 310.911 156.972 310.911ZM157.542 306.526C159.25 306.526 160.826 306.07 162.269 305.159C163.75 304.248 164.927 302.957 165.8 301.286C166.711 299.616 167.167 297.679 167.167 295.477C167.167 293.275 166.711 291.339 165.8 289.668C164.927 287.997 163.75 286.706 162.269 285.795C160.826 284.884 159.25 284.428 157.542 284.428C155.871 284.428 154.296 284.884 152.815 285.795C151.334 286.706 150.138 288.016 149.227 289.725C148.353 291.396 147.917 293.313 147.917 295.477C147.917 297.641 148.353 299.578 149.227 301.286C150.138 302.957 151.334 304.248 152.815 305.159C154.296 306.07 155.871 306.526 157.542 306.526ZM200.524 310.911C197.335 310.911 194.412 309.943 191.754 308.007C189.096 306.07 187.274 303.356 186.286 299.862L190.899 297.983C191.545 300.413 192.741 302.406 194.488 303.963C196.234 305.52 198.284 306.298 200.638 306.298C202.992 306.298 204.986 305.672 206.618 304.419C208.251 303.128 209.067 301.381 209.067 299.179C209.067 297.281 208.365 295.724 206.96 294.509C205.593 293.256 203.334 292.098 200.183 291.035L197.62 290.124C194.734 289.098 192.38 287.751 190.558 286.08C188.735 284.409 187.824 282.093 187.824 279.132C187.824 277.195 188.356 275.411 189.419 273.778C190.482 272.108 191.963 270.779 193.861 269.792C195.759 268.804 197.886 268.311 200.24 268.311C202.594 268.311 204.644 268.747 206.391 269.621C208.137 270.494 209.523 271.557 210.548 272.81C211.611 274.063 212.352 275.297 212.769 276.512L208.213 278.448C207.833 277.043 206.96 275.772 205.593 274.633C204.264 273.493 202.499 272.924 200.297 272.924C198.208 272.924 196.424 273.512 194.943 274.689C193.462 275.866 192.722 277.347 192.722 279.132C192.722 280.726 193.348 282.036 194.601 283.061C195.854 284.049 197.753 284.979 200.297 285.852L202.973 286.763C206.429 288.016 209.124 289.592 211.061 291.49C212.997 293.351 213.965 295.895 213.965 299.122C213.965 301.742 213.282 303.944 211.915 305.729C210.586 307.513 208.896 308.823 206.846 309.658C204.796 310.494 202.689 310.911 200.524 310.911ZM228.668 310.456C227.491 310.456 226.39 310.266 225.365 309.886C224.377 309.506 223.542 308.994 222.859 308.348C222.099 307.627 221.53 306.792 221.15 305.842C220.77 304.893 220.581 303.735 220.581 302.368V285.34H215.512V280.954H220.581V272.753H225.422V280.954H232.484V285.34H225.422V301.172C225.422 302.767 225.725 303.944 226.333 304.703C227.054 305.539 228.098 305.956 229.465 305.956C230.566 305.956 231.629 305.634 232.655 304.988V309.715C232.085 309.981 231.497 310.171 230.889 310.285C230.32 310.399 229.579 310.456 228.668 310.456ZM249.327 310.911C246.48 310.911 243.917 310.228 241.639 308.861C239.361 307.494 237.576 305.634 236.285 303.28C235.032 300.926 234.406 298.325 234.406 295.477C234.406 292.629 235.032 290.029 236.285 287.675C237.576 285.321 239.361 283.46 241.639 282.093C243.917 280.726 246.48 280.043 249.327 280.043C252.175 280.043 254.738 280.726 257.016 282.093C259.294 283.46 261.06 285.321 262.313 287.675C263.603 290.029 264.249 292.629 264.249 295.477C264.249 298.325 263.603 300.926 262.313 303.28C261.06 305.634 259.294 307.494 257.016 308.861C254.738 310.228 252.175 310.911 249.327 310.911ZM249.327 306.526C251.112 306.526 252.764 306.089 254.282 305.216C255.839 304.305 257.073 303.014 257.984 301.343C258.933 299.673 259.408 297.717 259.408 295.477C259.408 293.237 258.933 291.282 257.984 289.611C257.073 287.94 255.839 286.668 254.282 285.795C252.764 284.884 251.112 284.428 249.327 284.428C247.543 284.428 245.872 284.884 244.316 285.795C242.759 286.668 241.506 287.94 240.557 289.611C239.645 291.282 239.19 293.237 239.19 295.477C239.19 297.717 239.645 299.673 240.557 301.343C241.506 303.014 242.759 304.305 244.316 305.216C245.872 306.089 247.543 306.526 249.327 306.526ZM268.175 280.954H272.788V285.624H273.016C273.586 284.03 274.687 282.72 276.319 281.695C277.952 280.632 279.661 280.1 281.445 280.1C282.774 280.1 283.913 280.29 284.862 280.669V285.909C283.647 285.302 282.28 284.998 280.762 284.998C279.357 284.998 278.066 285.397 276.889 286.194C275.712 286.991 274.763 288.073 274.041 289.44C273.358 290.769 273.016 292.212 273.016 293.769V310H268.175V280.954ZM296.564 310.911C294.438 310.911 292.539 310.494 290.869 309.658C289.198 308.823 287.907 307.684 286.996 306.241C286.085 304.76 285.629 303.09 285.629 301.229C285.629 298.154 286.787 295.762 289.103 294.053C291.419 292.307 294.343 291.433 297.874 291.433C299.621 291.433 301.234 291.623 302.715 292.003C304.234 292.383 305.392 292.819 306.189 293.313V291.547C306.189 289.383 305.43 287.656 303.911 286.365C302.392 285.036 300.475 284.371 298.159 284.371C296.526 284.371 295.026 284.732 293.66 285.453C292.293 286.137 291.211 287.105 290.413 288.358L286.768 285.624C287.907 283.878 289.464 282.511 291.438 281.524C293.451 280.537 295.672 280.043 298.102 280.043C302.051 280.043 305.145 281.087 307.385 283.175C309.663 285.226 310.802 288.035 310.802 291.604V310H306.189V305.842H305.961C305.126 307.247 303.873 308.443 302.202 309.43C300.532 310.418 298.652 310.911 296.564 310.911ZM297.02 306.64C298.652 306.64 300.171 306.222 301.576 305.387C302.981 304.552 304.101 303.431 304.936 302.027C305.771 300.622 306.189 299.084 306.189 297.414C305.278 296.806 304.158 296.312 302.829 295.933C301.5 295.553 300.095 295.363 298.614 295.363C295.957 295.363 293.944 295.914 292.577 297.015C291.249 298.116 290.584 299.54 290.584 301.286C290.584 302.881 291.192 304.172 292.407 305.159C293.622 306.146 295.159 306.64 297.02 306.64ZM328.877 323.213C325.46 323.213 322.631 322.416 320.391 320.821C318.189 319.226 316.708 317.309 315.949 315.069L320.334 313.189C320.98 314.86 322.043 316.208 323.524 317.233C325.042 318.296 326.827 318.828 328.877 318.828C331.877 318.828 334.193 317.954 335.825 316.208C337.496 314.461 338.331 311.993 338.331 308.804V305.558H338.103C337.154 307.038 335.806 308.253 334.06 309.203C332.351 310.114 330.396 310.57 328.194 310.57C325.688 310.57 323.391 309.924 321.302 308.633C319.252 307.342 317.619 305.539 316.405 303.223C315.19 300.907 314.582 298.268 314.582 295.306C314.582 292.383 315.19 289.763 316.405 287.447C317.619 285.093 319.252 283.27 321.302 281.979C323.391 280.688 325.688 280.043 328.194 280.043C330.396 280.043 332.351 280.518 334.06 281.467C335.806 282.378 337.154 283.593 338.103 285.112H338.331V280.954H342.944V308.861C342.944 313.531 341.653 317.081 339.072 319.511C336.49 321.979 333.092 323.213 328.877 323.213ZM328.877 306.184C330.624 306.184 332.199 305.748 333.604 304.874C335.047 304.001 336.186 302.748 337.021 301.115C337.895 299.483 338.331 297.546 338.331 295.306C338.331 293.028 337.895 291.073 337.021 289.44C336.186 287.808 335.047 286.574 333.604 285.738C332.199 284.865 330.624 284.428 328.877 284.428C327.131 284.428 325.536 284.865 324.093 285.738C322.65 286.612 321.492 287.864 320.619 289.497C319.784 291.13 319.366 293.066 319.366 295.306C319.366 297.546 319.784 299.502 320.619 301.172C321.492 302.805 322.65 304.058 324.093 304.931C325.536 305.767 327.131 306.184 328.877 306.184ZM361.613 310.911C358.842 310.911 356.355 310.247 354.152 308.918C351.95 307.589 350.223 305.767 348.97 303.45C347.755 301.096 347.147 298.458 347.147 295.534C347.147 292.724 347.717 290.143 348.856 287.789C350.033 285.434 351.684 283.555 353.811 282.15C355.937 280.745 358.405 280.043 361.215 280.043C364.062 280.043 366.53 280.688 368.618 281.979C370.707 283.232 372.301 284.979 373.402 287.219C374.541 289.459 375.111 292.022 375.111 294.908C375.111 295.477 375.054 295.971 374.94 296.388H351.988C352.102 298.591 352.634 300.451 353.583 301.97C354.532 303.488 355.728 304.627 357.171 305.387C358.652 306.146 360.189 306.526 361.784 306.526C365.505 306.526 368.372 304.779 370.384 301.286L374.484 303.28C373.232 305.634 371.523 307.494 369.359 308.861C367.233 310.228 364.651 310.911 361.613 310.911ZM369.985 292.402C369.909 291.187 369.568 289.972 368.96 288.757C368.353 287.542 367.384 286.517 366.055 285.681C364.765 284.846 363.132 284.428 361.158 284.428C358.879 284.428 356.943 285.169 355.348 286.649C353.792 288.092 352.767 290.01 352.273 292.402H369.985ZM61.9313 348.34H56.5777V343.954H61.9313V340.822C61.9313 338.999 62.3489 337.405 63.1842 336.038C64.0195 334.671 65.1396 333.627 66.5444 332.905C67.9493 332.146 69.506 331.766 71.2145 331.766C72.8472 331.766 74.271 331.994 75.486 332.45V337.177C74.8025 336.911 74.1571 336.702 73.5496 336.55C72.9421 336.361 72.2207 336.266 71.3854 336.266C70.1324 336.266 69.0503 336.721 68.1391 337.633C67.2279 338.506 66.7722 339.74 66.7722 341.334V343.954H74.233V348.34H66.7722V373H61.9313V348.34ZM90.6158 373.911C87.7681 373.911 85.2053 373.228 82.9272 371.861C80.6491 370.494 78.8646 368.634 77.5736 366.28C76.3207 363.926 75.6942 361.325 75.6942 358.477C75.6942 355.629 76.3207 353.029 77.5736 350.675C78.8646 348.321 80.6491 346.46 82.9272 345.093C85.2053 343.726 87.7681 343.043 90.6158 343.043C93.4634 343.043 96.0262 343.726 98.3043 345.093C100.582 346.46 102.348 348.321 103.601 350.675C104.892 353.029 105.537 355.629 105.537 358.477C105.537 361.325 104.892 363.926 103.601 366.28C102.348 368.634 100.582 370.494 98.3043 371.861C96.0262 373.228 93.4634 373.911 90.6158 373.911ZM90.6158 369.526C92.4003 369.526 94.0519 369.089 95.5706 368.216C97.1273 367.305 98.3613 366.014 99.2725 364.343C100.222 362.673 100.696 360.717 100.696 358.477C100.696 356.237 100.222 354.282 99.2725 352.611C98.3613 350.94 97.1273 349.668 95.5706 348.795C94.0519 347.884 92.4003 347.428 90.6158 347.428C88.8312 347.428 87.1606 347.884 85.6039 348.795C84.0472 349.668 82.7943 350.94 81.8451 352.611C80.9338 354.282 80.4782 356.237 80.4782 358.477C80.4782 360.717 80.9338 362.673 81.8451 364.343C82.7943 366.014 84.0472 367.305 85.6039 368.216C87.1606 369.089 88.8312 369.526 90.6158 369.526ZM109.463 343.954H114.077V348.624H114.304C114.874 347.03 115.975 345.72 117.608 344.695C119.24 343.632 120.949 343.1 122.733 343.1C124.062 343.1 125.201 343.29 126.151 343.669V348.909C124.936 348.302 123.569 347.998 122.05 347.998C120.645 347.998 119.354 348.397 118.177 349.194C117 349.991 116.051 351.073 115.33 352.44C114.646 353.769 114.304 355.212 114.304 356.769V373H109.463V343.954ZM142.748 332.222H166.326V336.835H147.532V350.789H164.504V355.345H147.532V373H142.748V332.222ZM173.188 338.601C172.239 338.601 171.422 338.259 170.739 337.576C170.056 336.892 169.714 336.076 169.714 335.127C169.714 334.177 170.056 333.38 170.739 332.735C171.422 332.051 172.239 331.709 173.188 331.709C174.137 331.709 174.953 332.051 175.637 332.735C176.32 333.38 176.662 334.177 176.662 335.127C176.662 336.076 176.32 336.892 175.637 337.576C174.991 338.259 174.175 338.601 173.188 338.601ZM170.796 343.954H175.58V373H170.796V343.954ZM182.049 343.954H186.662V348.624H186.89C187.459 347.03 188.561 345.72 190.193 344.695C191.826 343.632 193.534 343.1 195.319 343.1C196.648 343.1 197.787 343.29 198.736 343.669V348.909C197.521 348.302 196.154 347.998 194.635 347.998C193.231 347.998 191.94 348.397 190.763 349.194C189.586 349.991 188.636 351.073 187.915 352.44C187.232 353.769 186.89 355.212 186.89 356.769V373H182.049V343.954ZM213.471 373.911C210.699 373.911 208.213 373.247 206.01 371.918C203.808 370.589 202.081 368.767 200.828 366.45C199.613 364.096 199.005 361.458 199.005 358.534C199.005 355.724 199.575 353.143 200.714 350.789C201.891 348.434 203.542 346.555 205.669 345.15C207.795 343.745 210.263 343.043 213.072 343.043C215.92 343.043 218.388 343.688 220.476 344.979C222.565 346.232 224.159 347.979 225.26 350.219C226.399 352.459 226.969 355.022 226.969 357.908C226.969 358.477 226.912 358.971 226.798 359.388H203.846C203.96 361.591 204.492 363.451 205.441 364.97C206.39 366.488 207.586 367.627 209.029 368.387C210.51 369.146 212.047 369.526 213.642 369.526C217.363 369.526 220.23 367.779 222.242 364.286L226.342 366.28C225.089 368.634 223.381 370.494 221.217 371.861C219.09 373.228 216.509 373.911 213.471 373.911ZM221.843 355.402C221.767 354.187 221.426 352.972 220.818 351.757C220.211 350.542 219.242 349.517 217.913 348.681C216.623 347.846 214.99 347.428 213.016 347.428C210.737 347.428 208.801 348.169 207.206 349.649C205.65 351.092 204.625 353.01 204.131 355.402H221.843ZM246.246 373.911C244.044 373.911 242.05 373.418 240.266 372.43C238.519 371.405 237.209 370.171 236.336 368.729H236.108V373H231.495V332.222H236.336V344.239L236.108 348.283H236.336C237.209 346.802 238.519 345.568 240.266 344.581C242.05 343.556 244.044 343.043 246.246 343.043C248.828 343.043 251.182 343.707 253.308 345.036C255.434 346.365 257.105 348.207 258.32 350.561C259.535 352.915 260.142 355.554 260.142 358.477C260.142 361.439 259.535 364.096 258.32 366.45C257.105 368.767 255.434 370.589 253.308 371.918C251.182 373.247 248.828 373.911 246.246 373.911ZM245.676 369.526C247.347 369.526 248.923 369.07 250.403 368.159C251.884 367.248 253.061 365.957 253.935 364.286C254.846 362.578 255.301 360.641 255.301 358.477C255.301 356.313 254.846 354.396 253.935 352.725C253.061 351.016 251.884 349.706 250.403 348.795C248.923 347.884 247.347 347.428 245.676 347.428C244.006 347.428 242.43 347.884 240.949 348.795C239.469 349.706 238.292 350.997 237.418 352.668C236.545 354.339 236.108 356.275 236.108 358.477C236.108 360.679 236.545 362.616 237.418 364.286C238.292 365.957 239.469 367.248 240.949 368.159C242.43 369.07 244.006 369.526 245.676 369.526ZM273.9 373.911C271.774 373.911 269.875 373.494 268.205 372.658C266.534 371.823 265.243 370.684 264.332 369.241C263.421 367.76 262.965 366.09 262.965 364.229C262.965 361.154 264.123 358.762 266.439 357.053C268.755 355.307 271.679 354.433 275.21 354.433C276.956 354.433 278.57 354.623 280.051 355.003C281.57 355.383 282.728 355.819 283.525 356.313V354.547C283.525 352.383 282.766 350.656 281.247 349.365C279.728 348.036 277.811 347.371 275.495 347.371C273.862 347.371 272.362 347.732 270.995 348.453C269.629 349.137 268.546 350.105 267.749 351.358L264.104 348.624C265.243 346.878 266.8 345.511 268.774 344.524C270.787 343.537 273.008 343.043 275.438 343.043C279.386 343.043 282.481 344.087 284.721 346.175C286.999 348.226 288.138 351.035 288.138 354.604V373H283.525V368.842H283.297C282.462 370.247 281.209 371.443 279.538 372.43C277.868 373.418 275.988 373.911 273.9 373.911ZM274.356 369.64C275.988 369.64 277.507 369.222 278.912 368.387C280.317 367.552 281.437 366.431 282.272 365.027C283.107 363.622 283.525 362.084 283.525 360.414C282.614 359.806 281.494 359.312 280.165 358.933C278.836 358.553 277.431 358.363 275.95 358.363C273.292 358.363 271.28 358.914 269.913 360.015C268.584 361.116 267.92 362.54 267.92 364.286C267.92 365.881 268.527 367.172 269.742 368.159C270.957 369.146 272.495 369.64 274.356 369.64ZM303.593 373.911C300.48 373.911 297.879 373.19 295.791 371.747C293.702 370.266 292.222 368.387 291.348 366.109L295.677 364.172C296.398 365.919 297.461 367.267 298.866 368.216C300.309 369.165 301.885 369.64 303.593 369.64C305.416 369.64 306.972 369.279 308.263 368.558C309.554 367.798 310.2 366.735 310.2 365.368C310.2 364.153 309.687 363.185 308.662 362.464C307.637 361.704 306.023 361.059 303.821 360.527L300.29 359.616C297.974 359.047 296.075 358.078 294.595 356.712C293.114 355.345 292.373 353.579 292.373 351.415C292.373 349.744 292.867 348.283 293.854 347.03C294.879 345.739 296.227 344.752 297.898 344.068C299.568 343.385 301.372 343.043 303.308 343.043C305.852 343.043 308.111 343.594 310.086 344.695C312.098 345.796 313.522 347.333 314.357 349.308L310.143 351.244C308.852 348.662 306.555 347.371 303.251 347.371C301.657 347.371 300.252 347.751 299.037 348.51C297.86 349.232 297.271 350.162 297.271 351.301C297.271 352.364 297.689 353.237 298.524 353.921C299.36 354.566 300.613 355.098 302.283 355.516L306.498 356.598C309.345 357.319 311.491 358.401 312.933 359.844C314.376 361.249 315.098 362.976 315.098 365.027C315.098 366.811 314.585 368.387 313.56 369.754C312.535 371.083 311.149 372.108 309.402 372.829C307.656 373.551 305.719 373.911 303.593 373.911ZM332.442 373.911C329.67 373.911 327.183 373.247 324.981 371.918C322.779 370.589 321.051 368.767 319.798 366.45C318.583 364.096 317.976 361.458 317.976 358.534C317.976 355.724 318.545 353.143 319.684 350.789C320.861 348.434 322.513 346.555 324.639 345.15C326.765 343.745 329.233 343.043 332.043 343.043C334.891 343.043 337.359 343.688 339.447 344.979C341.535 346.232 343.13 347.979 344.231 350.219C345.37 352.459 345.939 355.022 345.939 357.908C345.939 358.477 345.883 358.971 345.769 359.388H322.817C322.931 361.591 323.462 363.451 324.411 364.97C325.361 366.488 326.557 367.627 327.999 368.387C329.48 369.146 331.018 369.526 332.613 369.526C336.334 369.526 339.2 367.779 341.212 364.286L345.313 366.28C344.06 368.634 342.351 370.494 340.187 371.861C338.061 373.228 335.479 373.911 332.442 373.911ZM340.814 355.402C340.738 354.187 340.396 352.972 339.789 351.757C339.181 350.542 338.213 349.517 336.884 348.681C335.593 347.846 333.96 347.428 331.986 347.428C329.708 347.428 327.772 348.169 326.177 349.649C324.62 351.092 323.595 353.01 323.102 355.402H340.814Z" fill="white"/>
<g clip-path="url(#clip0_57_7249)">
<path d="M256.52 63.5793C252.426 57.8986 243.012 46.2181 228.551 28.866C222.274 21.3396 216.889 14.9511 214.238 11.8147C212.776 10.0846 211.523 8.6043 210.533 7.43393L208.955 5.57429L208.1 4.56583L207.933 4.32065L207.859 4.28827L204.209 0L199.583 3.71003C187.773 13.1701 178.1 25.3642 171.619 38.9553C167.646 47.0415 165.05 54.9473 163.69 63.089C163.334 64.9208 163.029 66.8036 162.774 68.691C161.188 68.5615 159.573 68.4782 157.973 68.4412C157.838 68.432 157.704 68.4273 157.524 68.4227C151.663 68.2192 145.834 68.9177 140.204 70.5044L137.794 71.1798L136.554 73.354C130.744 83.545 127.455 95.1469 127.043 106.902C126.511 122.167 130.67 136.943 139.071 149.632C147.291 162.043 158.902 171.531 172.651 177.068L174.441 177.79L174.982 177.98L175.005 177.97C182.166 180.57 189.684 182.023 197.349 182.286C198.219 182.319 199.084 182.333 199.949 182.333C209.622 182.333 219.04 180.441 227.977 176.698L228.042 176.726L230.42 175.625C242.475 170.051 252.791 161.289 260.253 150.284C267.927 138.964 272.239 125.72 272.72 111.985C273.293 95.5679 267.839 79.2845 256.515 63.5839L256.52 63.5793ZM202.706 114.446C205.199 123.897 204.709 132.978 201.258 141.476C192.635 132.964 186.311 123.606 182.453 113.632C178.322 102.965 175.838 92.8154 175.052 83.4293C178.702 84.6275 182.055 86.2096 185.044 88.1571C193.639 93.7591 199.583 102.604 202.706 114.451V114.446ZM204.279 160.197C207.942 162.987 211.796 165.6 215.769 168.006C209.918 169.597 203.881 170.296 197.774 170.078C196.831 170.046 195.887 169.99 194.939 169.912C198.417 166.914 201.545 163.662 204.274 160.197H204.279ZM214.511 111.333C210.588 96.4653 202.914 85.2242 191.705 77.9244C186.788 74.7233 181.186 72.2946 175.033 70.7079C175.121 69.6856 175.232 68.6679 175.362 67.6687C175.473 66.8129 175.588 66.0265 175.713 65.2909C176.726 60.059 178.234 54.8825 180.187 49.9096C180.936 48.0037 181.755 46.1117 182.624 44.2844L182.657 44.2196C183.998 41.5042 185.511 38.761 187.292 35.8281L187.991 34.6763L187.967 34.6624C192.103 28.1999 197.057 22.3064 202.724 17.1115L204.912 19.6974C210.015 25.7435 214.812 31.4612 219.174 36.6932C228.986 48.4616 241.707 63.917 246.615 70.7311C256.321 84.1834 260.998 97.9179 260.521 111.564C260.151 122.163 257.015 132.497 251.445 141.444C246.171 149.923 238.825 157.019 230.17 162.015C225.341 159.605 218.328 155.641 210.88 149.872C216.884 137.905 218.11 124.947 214.516 111.333H214.511ZM194.948 152.338C189.443 159.471 182.893 164.111 179.072 166.442C178.452 166.216 177.832 165.98 177.221 165.73L176.731 165.536C165.411 160.859 155.863 152.953 149.119 142.665C142.226 132.15 138.812 119.928 139.251 107.318C139.566 98.2787 141.819 89.642 145.954 81.6437C148.355 81.1117 150.802 80.7787 153.249 80.6538L153.883 80.6399C155.118 80.6121 156.349 80.6121 157.519 80.6399C159.24 80.7185 160.966 80.8989 162.663 81.1719C163.218 92.6628 166.04 105.06 171.059 118.032C175.894 130.517 183.924 142.05 194.943 152.333L194.948 152.338Z" fill="white"/>
</g>
<g filter="url(#filter0_d_57_7249)">
<circle cx="277" cy="137" r="45" fill="white"/>
<path d="M272.5 119H259C256.525 119 254.522 121.025 254.522 123.5L254.5 150.5C254.5 152.975 256.525 155 259 155H295C297.475 155 299.5 152.975 299.5 150.5V128C299.5 125.525 297.475 123.5 295 123.5H277L272.5 119ZM275.762 145.347L282.999 137L292.75 148.25H263.5L270.812 139.25L275.762 145.347Z" fill="#1F1F1F"/>
</g>
<defs>
<filter id="filter0_d_57_7249" x="226" y="88.0029" width="102" height="102" filterUnits="userSpaceOnUse" color-interpolation-filters="sRGB">
<feFlood flood-opacity="0" result="BackgroundImageFix"/>
<feColorMatrix in="SourceAlpha" type="matrix" values="0 0 0 0 0 0 0 0 0 0 0 0 0 0 0 0 0 0 127 0" result="hardAlpha"/>
<feOffset dy="2.0029"/>
<feGaussianBlur stdDeviation="3"/>
<feComposite in2="hardAlpha" operator="out"/>
<feColorMatrix type="matrix" values="0 0 0 0 0 0 0 0 0 0 0 0 0 0 0 0 0 0 0.3 0"/>
<feBlend mode="normal" in2="BackgroundImageFix" result="effect1_dropShadow_57_7249"/>
<feBlend mode="normal" in="SourceGraphic" in2="effect1_dropShadow_57_7249" result="shape"/>
</filter>
<clipPath id="clip0_57_7249">
<rect width="145.769" height="182.328" fill="white" transform="translate(126.998)"/>
</clipPath>
</defs>
</svg>
